<svg xmlns="http://www.w3.org/2000/svg" xmlns:xlink="http://www.w3.org/1999/xlink" version="1.1" class="marks" width="1755" height="573" viewBox="0 0 1755 573"><rect width="1755" height="573" fill="white"/><g fill="none" stroke-miterlimit="10" transform="translate(51,11)"><g class="mark-group role-frame root" role="graphics-object" aria-roledescription="group mark container"><g transform="translate(0,0)"><path class="background" aria-hidden="true" d="M0.5,0.5h1628v480h-1628Z"/><g><g class="mark-group role-axis" aria-hidden="true"><g transform="translate(0.5,0.5)"><path class="background" aria-hidden="true" d="M0,0h0v0h0Z" pointer-events="none"/><g><g class="mark-rule role-axis-grid" pointer-events="none"><line transform="translate(0,480)" x2="1628" y2="0" stroke="#ddd" stroke-width="1" opacity="1"/><line transform="translate(0,436)" x2="1628" y2="0" stroke="#ddd" stroke-width="1" opacity="1"/><line transform="translate(0,393)" x2="1628" y2="0" stroke="#ddd" stroke-width="1" opacity="1"/><line transform="translate(0,349)" x2="1628" y2="0" stroke="#ddd" stroke-width="1" opacity="1"/><line transform="translate(0,305)" x2="1628" y2="0" stroke="#ddd" stroke-width="1" opacity="1"/><line transform="translate(0,262)" x2="1628" y2="0" stroke="#ddd" stroke-width="1" opacity="1"/><line transform="translate(0,218)" x2="1628" y2="0" stroke="#ddd" stroke-width="1" opacity="1"/><line transform="translate(0,175)" x2="1628" y2="0" stroke="#ddd" stroke-width="1" opacity="1"/><line transform="translate(0,131)" x2="1628" y2="0" stroke="#ddd" stroke-width="1" opacity="1"/><line transform="translate(0,87)" x2="1628" y2="0" stroke="#ddd" stroke-width="1" opacity="1"/><line transform="translate(0,44)" x2="1628" y2="0" stroke="#ddd" stroke-width="1" opacity="1"/><line transform="translate(0,0)" x2="1628" y2="0" stroke="#ddd" stroke-width="1" opacity="1"/></g></g><path class="foreground" aria-hidden="true" d="" pointer-events="none" display="none"/></g></g><g class="mark-group role-axis" role="graphics-symbol" aria-roledescription="axis" aria-label="X-axis titled 'Date' for a time scale with values from 2025-09-08 to 2025-10-20"><g transform="translate(0.5,480.5)"><path class="background" aria-hidden="true" d="M0,0h0v0h0Z" pointer-events="none"/><g><g class="mark-rule role-axis-tick" pointer-events="none"><line transform="translate(0,0)" x2="0" y2="5" stroke="#bbb" stroke-width="1" opacity="1"/><line transform="translate(39,0)" x2="0" y2="5" stroke="#bbb" stroke-width="1" opacity="1"/><line transform="translate(78,0)" x2="0" y2="5" stroke="#bbb" stroke-width="1" opacity="1"/><line transform="translate(116,0)" x2="0" y2="5" stroke="#bbb" stroke-width="1" opacity="1"/><line transform="translate(155,0)" x2="0" y2="5" stroke="#bbb" stroke-width="1" opacity="1"/><line transform="translate(194,0)" x2="0" y2="5" stroke="#bbb" stroke-width="1" opacity="1"/><line transform="translate(233,0)" x2="0" y2="5" stroke="#bbb" stroke-width="1" opacity="1"/><line transform="translate(271,0)" x2="0" y2="5" stroke="#bbb" stroke-width="1" opacity="1"/><line transform="translate(310,0)" x2="0" y2="5" stroke="#bbb" stroke-width="1" opacity="1"/><line transform="translate(349,0)" x2="0" y2="5" stroke="#bbb" stroke-width="1" opacity="1"/><line transform="translate(388,0)" x2="0" y2="5" stroke="#bbb" stroke-width="1" opacity="1"/><line transform="translate(426,0)" x2="0" y2="5" stroke="#bbb" stroke-width="1" opacity="1"/><line transform="translate(465,0)" x2="0" y2="5" stroke="#bbb" stroke-width="1" opacity="1"/><line transform="translate(504,0)" x2="0" y2="5" stroke="#bbb" stroke-width="1" opacity="1"/><line transform="translate(543,0)" x2="0" y2="5" stroke="#bbb" stroke-width="1" opacity="1"/><line transform="translate(581,0)" x2="0" y2="5" stroke="#bbb" stroke-width="1" opacity="1"/><line transform="translate(620,0)" x2="0" y2="5" stroke="#bbb" stroke-width="1" opacity="1"/><line transform="translate(659,0)" x2="0" y2="5" stroke="#bbb" stroke-width="1" opacity="1"/><line transform="translate(698,0)" x2="0" y2="5" stroke="#bbb" stroke-width="1" opacity="1"/><line transform="translate(736,0)" x2="0" y2="5" stroke="#bbb" stroke-width="1" opacity="1"/><line transform="translate(775,0)" x2="0" y2="5" stroke="#bbb" stroke-width="1" opacity="1"/><line transform="translate(814,0)" x2="0" y2="5" stroke="#bbb" stroke-width="1" opacity="1"/><line transform="translate(853,0)" x2="0" y2="5" stroke="#bbb" stroke-width="1" opacity="1"/><line transform="translate(892,0)" x2="0" y2="5" stroke="#bbb" stroke-width="1" opacity="1"/><line transform="translate(930,0)" x2="0" y2="5" stroke="#bbb" stroke-width="1" opacity="1"/><line transform="translate(969,0)" x2="0" y2="5" stroke="#bbb" stroke-width="1" opacity="1"/><line transform="translate(1008,0)" x2="0" y2="5" stroke="#bbb" stroke-width="1" opacity="1"/><line transform="translate(1047,0)" x2="0" y2="5" stroke="#bbb" stroke-width="1" opacity="1"/><line transform="translate(1085,0)" x2="0" y2="5" stroke="#bbb" stroke-width="1" opacity="1"/><line transform="translate(1124,0)" x2="0" y2="5" stroke="#bbb" stroke-width="1" opacity="1"/><line transform="translate(1163,0)" x2="0" y2="5" stroke="#bbb" stroke-width="1" opacity="1"/><line transform="translate(1202,0)" x2="0" y2="5" stroke="#bbb" stroke-width="1" opacity="1"/><line transform="translate(1240,0)" x2="0" y2="5" stroke="#bbb" stroke-width="1" opacity="1"/><line transform="translate(1279,0)" x2="0" y2="5" stroke="#bbb" stroke-width="1" opacity="1"/><line transform="translate(1318,0)" x2="0" y2="5" stroke="#bbb" stroke-width="1" opacity="1"/><line transform="translate(1357,0)" x2="0" y2="5" stroke="#bbb" stroke-width="1" opacity="1"/><line transform="translate(1395,0)" x2="0" y2="5" stroke="#bbb" stroke-width="1" opacity="1"/><line transform="translate(1434,0)" x2="0" y2="5" stroke="#bbb" stroke-width="1" opacity="1"/><line transform="translate(1473,0)" x2="0" y2="5" stroke="#bbb" stroke-width="1" opacity="1"/><line transform="translate(1512,0)" x2="0" y2="5" stroke="#bbb" stroke-width="1" opacity="1"/><line transform="translate(1550,0)" x2="0" y2="5" stroke="#bbb" stroke-width="1" opacity="1"/><line transform="translate(1589,0)" x2="0" y2="5" stroke="#bbb" stroke-width="1" opacity="1"/><line transform="translate(1628,0)" x2="0" y2="5" stroke="#bbb" stroke-width="1" opacity="1"/></g><g class="mark-text role-axis-label" pointer-events="none"><text text-anchor="end" transform="translate(0,7) rotate(315) translate(0,9)" font-family="Segoe UI" font-size="11px" fill="#000" opacity="1">2025-09-08</text><text text-anchor="end" transform="translate(38.76190476190476,7) rotate(315) translate(0,9)" font-family="Segoe UI" font-size="11px" fill="#000" opacity="0">2025-09-09</text><text text-anchor="end" transform="translate(77.52380952380952,7) rotate(315) translate(0,9)" font-family="Segoe UI" font-size="11px" fill="#000" opacity="1">2025-09-10</text><text text-anchor="end" transform="translate(116.28571428571428,7) rotate(315) translate(0,9)" font-family="Segoe UI" font-size="11px" fill="#000" opacity="0">2025-09-11</text><text text-anchor="end" transform="translate(155.04761904761904,7) rotate(315) translate(0,9)" font-family="Segoe UI" font-size="11px" fill="#000" opacity="1">2025-09-12</text><text text-anchor="end" transform="translate(193.8095238095238,7) rotate(315) translate(0,9)" font-family="Segoe UI" font-size="11px" fill="#000" opacity="0">2025-09-13</text><text text-anchor="end" transform="translate(232.57142857142856,7) rotate(315) translate(0,9)" font-family="Segoe UI" font-size="11px" fill="#000" opacity="1">2025-09-14</text><text text-anchor="end" transform="translate(271.3333333333333,7) rotate(315) translate(0,9)" font-family="Segoe UI" font-size="11px" fill="#000" opacity="0">2025-09-15</text><text text-anchor="end" transform="translate(310.0952380952381,7) rotate(315) translate(0,9)" font-family="Segoe UI" font-size="11px" fill="#000" opacity="1">2025-09-16</text><text text-anchor="end" transform="translate(348.85714285714283,7) rotate(315) translate(0,9)" font-family="Segoe UI" font-size="11px" fill="#000" opacity="0">2025-09-17</text><text text-anchor="end" transform="translate(387.6190476190476,7) rotate(315) translate(0,9)" font-family="Segoe UI" font-size="11px" fill="#000" opacity="1">2025-09-18</text><text text-anchor="end" transform="translate(426.3809523809524,7) rotate(315) translate(0,9)" font-family="Segoe UI" font-size="11px" fill="#000" opacity="0">2025-09-19</text><text text-anchor="end" transform="translate(465.1428571428571,7) rotate(315) translate(0,9)" font-family="Segoe UI" font-size="11px" fill="#000" opacity="1">2025-09-20</text><text text-anchor="end" transform="translate(503.9047619047619,7) rotate(315) translate(0,9)" font-family="Segoe UI" font-size="11px" fill="#000" opacity="0">2025-09-21</text><text text-anchor="end" transform="translate(542.6666666666666,7) rotate(315) translate(0,9)" font-family="Segoe UI" font-size="11px" fill="#000" opacity="1">2025-09-22</text><text text-anchor="end" transform="translate(581.4285714285714,7) rotate(315) translate(0,9)" font-family="Segoe UI" font-size="11px" fill="#000" opacity="0">2025-09-23</text><text text-anchor="end" transform="translate(620.1904761904761,7) rotate(315) translate(0,9)" font-family="Segoe UI" font-size="11px" fill="#000" opacity="1">2025-09-24</text><text text-anchor="end" transform="translate(658.952380952381,7) rotate(315) translate(0,9)" font-family="Segoe UI" font-size="11px" fill="#000" opacity="0">2025-09-25</text><text text-anchor="end" transform="translate(697.7142857142857,7) rotate(315) translate(0,9)" font-family="Segoe UI" font-size="11px" fill="#000" opacity="1">2025-09-26</text><text text-anchor="end" transform="translate(736.4761904761905,7) rotate(315) translate(0,9)" font-family="Segoe UI" font-size="11px" fill="#000" opacity="0">2025-09-27</text><text text-anchor="end" transform="translate(775.2380952380952,7) rotate(315) translate(0,9)" font-family="Segoe UI" font-size="11px" fill="#000" opacity="1">2025-09-28</text><text text-anchor="end" transform="translate(814,7) rotate(315) translate(0,9)" font-family="Segoe UI" font-size="11px" fill="#000" opacity="0">2025-09-29</text><text text-anchor="end" transform="translate(852.7619047619048,7) rotate(315) translate(0,9)" font-family="Segoe UI" font-size="11px" fill="#000" opacity="1">2025-09-30</text><text text-anchor="end" transform="translate(891.5238095238096,7) rotate(315) translate(0,9)" font-family="Segoe UI" font-size="11px" fill="#000" opacity="0">2025-10-01</text><text text-anchor="end" transform="translate(930.2857142857142,7) rotate(315) translate(0,9)" font-family="Segoe UI" font-size="11px" fill="#000" opacity="1">2025-10-02</text><text text-anchor="end" transform="translate(969.047619047619,7) rotate(315) translate(0,9)" font-family="Segoe UI" font-size="11px" fill="#000" opacity="0">2025-10-03</text><text text-anchor="end" transform="translate(1007.8095238095239,7) rotate(315) translate(0,9)" font-family="Segoe UI" font-size="11px" fill="#000" opacity="1">2025-10-04</text><text text-anchor="end" transform="translate(1046.5714285714287,7) rotate(315) translate(0,9)" font-family="Segoe UI" font-size="11px" fill="#000" opacity="0">2025-10-05</text><text text-anchor="end" transform="translate(1085.3333333333333,7) rotate(315) translate(0,9)" font-family="Segoe UI" font-size="11px" fill="#000" opacity="1">2025-10-06</text><text text-anchor="end" transform="translate(1124.095238095238,7) rotate(315) translate(0,9)" font-family="Segoe UI" font-size="11px" fill="#000" opacity="0">2025-10-07</text><text text-anchor="end" transform="translate(1162.857142857143,7) rotate(315) translate(0,9)" font-family="Segoe UI" font-size="11px" fill="#000" opacity="1">2025-10-08</text><text text-anchor="end" transform="translate(1201.6190476190477,7) rotate(315) translate(0,9)" font-family="Segoe UI" font-size="11px" fill="#000" opacity="0">2025-10-09</text><text text-anchor="end" transform="translate(1240.3809523809523,7) rotate(315) translate(0,9)" font-family="Segoe UI" font-size="11px" fill="#000" opacity="1">2025-10-10</text><text text-anchor="end" transform="translate(1279.142857142857,7) rotate(315) translate(0,9)" font-family="Segoe UI" font-size="11px" fill="#000" opacity="0">2025-10-11</text><text text-anchor="end" transform="translate(1317.904761904762,7) rotate(315) translate(0,9)" font-family="Segoe UI" font-size="11px" fill="#000" opacity="1">2025-10-12</text><text text-anchor="end" transform="translate(1356.6666666666667,7) rotate(315) translate(0,9)" font-family="Segoe UI" font-size="11px" fill="#000" opacity="0">2025-10-13</text><text text-anchor="end" transform="translate(1395.4285714285713,7) rotate(315) translate(0,9)" font-family="Segoe UI" font-size="11px" fill="#000" opacity="1">2025-10-14</text><text text-anchor="end" transform="translate(1434.1904761904761,7) rotate(315) translate(0,9)" font-family="Segoe UI" font-size="11px" fill="#000" opacity="0">2025-10-15</text><text text-anchor="end" transform="translate(1472.952380952381,7) rotate(315) translate(0,9)" font-family="Segoe UI" font-size="11px" fill="#000" opacity="1">2025-10-16</text><text text-anchor="end" transform="translate(1511.7142857142858,7) rotate(315) translate(0,9)" font-family="Segoe UI" font-size="11px" fill="#000" opacity="0">2025-10-17</text><text text-anchor="end" transform="translate(1550.4761904761904,7) rotate(315) translate(0,9)" font-family="Segoe UI" font-size="11px" fill="#000" opacity="1">2025-10-18</text><text text-anchor="end" transform="translate(1589.2380952380952,7) rotate(315) translate(0,9)" font-family="Segoe UI" font-size="11px" fill="#000" opacity="0">2025-10-19</text><text text-anchor="end" transform="translate(1628,7) rotate(315) translate(0,9)" font-family="Segoe UI" font-size="11px" fill="#000" opacity="1">2025-10-20</text></g><g class="mark-rule role-axis-domain" pointer-events="none"><line transform="translate(0,0)" x2="1628" y2="0" stroke="#888" stroke-width="1" opacity="1"/></g><g class="mark-text role-axis-title" pointer-events="none"><text text-anchor="middle" transform="translate(814,73.9777658717112)" font-family="Segoe UI" font-size="13px" font-weight="bold" fill="#000" opacity="1">Date</text></g></g><path class="foreground" aria-hidden="true" d="" pointer-events="none" display="none"/></g></g><g class="mark-group role-axis" role="graphics-symbol" aria-roledescription="axis" aria-label="Y-axis titled 'Unique server names' for a linear scale with values from 0 to 55"><g transform="translate(0.5,0.5)"><path class="background" aria-hidden="true" d="M0,0h0v0h0Z" pointer-events="none"/><g><g class="mark-rule role-axis-tick" pointer-events="none"><line transform="translate(0,480)" x2="-5" y2="0" stroke="#bbb" stroke-width="1" opacity="1"/><line transform="translate(0,436)" x2="-5" y2="0" stroke="#bbb" stroke-width="1" opacity="1"/><line transform="translate(0,393)" x2="-5" y2="0" stroke="#bbb" stroke-width="1" opacity="1"/><line transform="translate(0,349)" x2="-5" y2="0" stroke="#bbb" stroke-width="1" opacity="1"/><line transform="translate(0,305)" x2="-5" y2="0" stroke="#bbb" stroke-width="1" opacity="1"/><line transform="translate(0,262)" x2="-5" y2="0" stroke="#bbb" stroke-width="1" opacity="1"/><line transform="translate(0,218)" x2="-5" y2="0" stroke="#bbb" stroke-width="1" opacity="1"/><line transform="translate(0,175)" x2="-5" y2="0" stroke="#bbb" stroke-width="1" opacity="1"/><line transform="translate(0,131)" x2="-5" y2="0" stroke="#bbb" stroke-width="1" opacity="1"/><line transform="translate(0,87)" x2="-5" y2="0" stroke="#bbb" stroke-width="1" opacity="1"/><line transform="translate(0,44)" x2="-5" y2="0" stroke="#bbb" stroke-width="1" opacity="1"/><line transform="translate(0,0)" x2="-5" y2="0" stroke="#bbb" stroke-width="1" opacity="1"/></g><g class="mark-text role-axis-label" pointer-events="none"><text text-anchor="end" transform="translate(-7,483)" font-family="Segoe UI" font-size="11px" fill="#000" opacity="1">0</text><text text-anchor="end" transform="translate(-7,439.3636363636364)" font-family="Segoe UI" font-size="11px" fill="#000" opacity="1">5</text><text text-anchor="end" transform="translate(-7,395.7272727272727)" font-family="Segoe UI" font-size="11px" fill="#000" opacity="1">10</text><text text-anchor="end" transform="translate(-7,352.0909090909091)" font-family="Segoe UI" font-size="11px" fill="#000" opacity="1">15</text><text text-anchor="end" transform="translate(-7,308.45454545454544)" font-family="Segoe UI" font-size="11px" fill="#000" opacity="1">20</text><text text-anchor="end" transform="translate(-7,264.8181818181818)" font-family="Segoe UI" font-size="11px" fill="#000" opacity="1">25</text><text text-anchor="end" transform="translate(-7,221.1818181818182)" font-family="Segoe UI" font-size="11px" fill="#000" opacity="1">30</text><text text-anchor="end" transform="translate(-7,177.54545454545456)" font-family="Segoe UI" font-size="11px" fill="#000" opacity="1">35</text><text text-anchor="end" transform="translate(-7,133.9090909090909)" font-family="Segoe UI" font-size="11px" fill="#000" opacity="1">40</text><text text-anchor="end" transform="translate(-7,90.27272727272725)" font-family="Segoe UI" font-size="11px" fill="#000" opacity="1">45</text><text text-anchor="end" transform="translate(-7,46.636363636363654)" font-family="Segoe UI" font-size="11px" fill="#000" opacity="1">50</text><text text-anchor="end" transform="translate(-7,3)" font-family="Segoe UI" font-size="11px" fill="#000" opacity="1">55</text></g><g class="mark-rule role-axis-domain" pointer-events="none"><line transform="translate(0,480)" x2="0" y2="-480" stroke="#888" stroke-width="1" opacity="1"/></g><g class="mark-text role-axis-title" pointer-events="none"><text text-anchor="middle" transform="translate(-24.99609375,240) rotate(-90) translate(0,-3)" font-family="Segoe UI" font-size="13px" font-weight="bold" fill="#000" opacity="1">Unique server names</text></g></g><path class="foreground" aria-hidden="true" d="" pointer-events="none" display="none"/></g></g><g class="mark-area role-mark layer_0_marks" role="graphics-object" aria-roledescription="area mark container" pointer-events="none"><path aria-label="date: 2025-09-08; count: 1" role="graphics-symbol" aria-roledescription="area mark" d="M0,471.273C12.921,240,25.841,8.727,38.762,8.727C51.683,8.727,64.603,17.455,77.524,34.909C90.444,52.364,103.365,142.545,116.286,165.818C129.206,189.091,142.127,177.455,155.048,200.727C167.968,224,180.889,293.818,193.81,305.455C206.73,317.091,219.651,322.909,232.571,322.909C245.492,322.909,258.413,273.455,271.333,261.818C284.254,250.182,297.175,256,310.095,244.364C323.016,232.727,335.937,151.273,348.857,139.636C361.778,128,374.698,122.182,387.619,122.182C400.54,122.182,413.46,212.364,426.381,235.636C439.302,258.909,452.222,251.636,465.143,270.545C478.063,289.455,490.984,349.091,503.905,349.091C516.825,349.091,529.746,343.273,542.667,340.364C555.587,337.455,568.508,334.545,581.429,331.636C594.349,328.727,607.27,322.909,620.19,322.909C633.111,322.909,646.032,384,658.952,384C671.873,384,684.794,261.818,697.714,261.818C710.635,261.818,723.556,418.909,736.476,418.909C749.397,418.909,762.317,398.545,775.238,357.818C788.159,317.091,801.079,148.364,814,148.364C826.921,148.364,839.841,202.182,852.762,244.364C865.683,286.545,878.603,401.455,891.524,401.455C904.444,401.455,917.365,165.818,930.286,165.818C943.206,165.818,956.127,253.091,969.048,253.091C981.968,253.091,994.889,253.091,1007.81,253.091C1020.73,253.091,1033.651,340.364,1046.571,340.364C1059.492,340.364,1072.413,327.273,1085.333,305.455C1098.254,283.636,1111.175,209.455,1124.095,209.455C1137.016,209.455,1149.937,229.818,1162.857,253.091C1175.778,276.364,1188.698,349.091,1201.619,349.091C1214.54,349.091,1227.46,314.182,1240.381,314.182C1253.302,314.182,1266.222,401.455,1279.143,401.455C1292.063,401.455,1304.984,349.091,1317.905,349.091C1330.825,349.091,1343.746,349.091,1356.667,349.091C1369.587,349.091,1382.508,366.545,1395.429,366.545C1408.349,366.545,1421.27,314.182,1434.19,314.182C1447.111,314.182,1460.032,330.182,1472.952,340.364C1485.873,350.545,1498.794,356.364,1511.714,375.273C1524.635,394.182,1537.556,453.818,1550.476,453.818C1563.397,453.818,1576.317,437.818,1589.238,427.636C1602.159,417.455,1615.079,405.091,1628,392.727L1628,480C1615.079,480,1602.159,480,1589.238,480C1576.317,480,1563.397,480,1550.476,480C1537.556,480,1524.635,480,1511.714,480C1498.794,480,1485.873,480,1472.952,480C1460.032,480,1447.111,480,1434.19,480C1421.27,480,1408.349,480,1395.429,480C1382.508,480,1369.587,480,1356.667,480C1343.746,480,1330.825,480,1317.905,480C1304.984,480,1292.063,480,1279.143,480C1266.222,480,1253.302,480,1240.381,480C1227.46,480,1214.54,480,1201.619,480C1188.698,480,1175.778,480,1162.857,480C1149.937,480,1137.016,480,1124.095,480C1111.175,480,1098.254,480,1085.333,480C1072.413,480,1059.492,480,1046.571,480C1033.651,480,1020.73,480,1007.81,480C994.889,480,981.968,480,969.048,480C956.127,480,943.206,480,930.286,480C917.365,480,904.444,480,891.524,480C878.603,480,865.683,480,852.762,480C839.841,480,826.921,480,814,480C801.079,480,788.159,480,775.238,480C762.317,480,749.397,480,736.476,480C723.556,480,710.635,480,697.714,480C684.794,480,671.873,480,658.952,480C646.032,480,633.111,480,620.19,480C607.27,480,594.349,480,581.429,480C568.508,480,555.587,480,542.667,480C529.746,480,516.825,480,503.905,480C490.984,480,478.063,480,465.143,480C452.222,480,439.302,480,426.381,480C413.46,480,400.54,480,387.619,480C374.698,480,361.778,480,348.857,480C335.937,480,323.016,480,310.095,480C297.175,480,284.254,480,271.333,480C258.413,480,245.492,480,232.571,480C219.651,480,206.73,480,193.81,480C180.889,480,167.968,480,155.048,480C142.127,480,129.206,480,116.286,480C103.365,480,90.444,480,77.524,480C64.603,480,51.683,480,38.762,480C25.841,480,12.921,480,0,480Z" fill="#4e79a7" opacity="0.18"/></g><g class="mark-line role-mark layer_1_marks" role="graphics-object" aria-roledescription="line mark container" pointer-events="none"><path aria-label="date: Sep 08, 2025; count: 1" role="graphics-symbol" aria-roledescription="line mark" d="M0,471.273C12.921,240,25.841,8.727,38.762,8.727C51.683,8.727,64.603,17.455,77.524,34.909C90.444,52.364,103.365,142.545,116.286,165.818C129.206,189.091,142.127,177.455,155.048,200.727C167.968,224,180.889,293.818,193.81,305.455C206.73,317.091,219.651,322.909,232.571,322.909C245.492,322.909,258.413,273.455,271.333,261.818C284.254,250.182,297.175,256,310.095,244.364C323.016,232.727,335.937,151.273,348.857,139.636C361.778,128,374.698,122.182,387.619,122.182C400.54,122.182,413.46,212.364,426.381,235.636C439.302,258.909,452.222,251.636,465.143,270.545C478.063,289.455,490.984,349.091,503.905,349.091C516.825,349.091,529.746,343.273,542.667,340.364C555.587,337.455,568.508,334.545,581.429,331.636C594.349,328.727,607.27,322.909,620.19,322.909C633.111,322.909,646.032,384,658.952,384C671.873,384,684.794,261.818,697.714,261.818C710.635,261.818,723.556,418.909,736.476,418.909C749.397,418.909,762.317,398.545,775.238,357.818C788.159,317.091,801.079,148.364,814,148.364C826.921,148.364,839.841,202.182,852.762,244.364C865.683,286.545,878.603,401.455,891.524,401.455C904.444,401.455,917.365,165.818,930.286,165.818C943.206,165.818,956.127,253.091,969.048,253.091C981.968,253.091,994.889,253.091,1007.81,253.091C1020.73,253.091,1033.651,340.364,1046.571,340.364C1059.492,340.364,1072.413,327.273,1085.333,305.455C1098.254,283.636,1111.175,209.455,1124.095,209.455C1137.016,209.455,1149.937,229.818,1162.857,253.091C1175.778,276.364,1188.698,349.091,1201.619,349.091C1214.54,349.091,1227.46,314.182,1240.381,314.182C1253.302,314.182,1266.222,401.455,1279.143,401.455C1292.063,401.455,1304.984,349.091,1317.905,349.091C1330.825,349.091,1343.746,349.091,1356.667,349.091C1369.587,349.091,1382.508,366.545,1395.429,366.545C1408.349,366.545,1421.27,314.182,1434.19,314.182C1447.111,314.182,1460.032,330.182,1472.952,340.364C1485.873,350.545,1498.794,356.364,1511.714,375.273C1524.635,394.182,1537.556,453.818,1550.476,453.818C1563.397,453.818,1576.317,437.818,1589.238,427.636C1602.159,417.455,1615.079,405.091,1628,392.727" stroke="#4e79a7" stroke-width="2"/></g><g class="mark-line role-mark layer_2_marks" role="graphics-object" aria-roledescription="line mark container" pointer-events="none"><path aria-label="date: Sep 08, 2025; ma7: 1" role="graphics-symbol" aria-roledescription="line mark" d="M0,471.273C12.921,378.424,25.841,285.576,38.762,240C51.683,194.424,64.603,172.606,77.524,171.636C90.444,170.667,103.365,170.182,116.286,170.182C129.206,170.182,142.127,172.218,155.048,176.291C167.968,180.364,180.889,191.252,193.81,197.818C206.73,204.384,219.651,215.688,232.571,215.688C245.492,215.688,258.413,185.766,271.333,185.766C284.254,185.766,297.175,211.325,310.095,219.429C323.016,227.532,335.937,234.39,348.857,234.39C361.778,234.39,374.698,228.156,387.619,228.156C400.54,228.156,413.46,233.143,426.381,233.143C439.302,233.143,452.222,228.156,465.143,228.156C478.063,228.156,490.984,229.403,503.905,231.896C516.825,234.39,529.746,239.169,542.667,243.117C555.587,247.065,568.508,249.143,581.429,255.584C594.349,262.026,607.27,271.169,620.19,281.766C633.111,292.364,646.032,316.675,658.952,319.169C671.873,321.662,684.794,320.416,697.714,322.909C710.635,325.403,723.556,343.273,736.476,344.104C749.397,344.935,762.317,345.351,775.238,345.351C788.159,345.351,801.079,324.571,814,317.922C826.921,311.273,839.841,305.455,852.762,305.455C865.683,305.455,878.603,316.675,891.524,316.675C904.444,316.675,917.365,286.338,930.286,285.506C943.206,284.675,956.127,285.091,969.048,284.26C981.968,283.429,994.889,262.234,1007.81,260.571C1020.73,258.909,1033.651,258.078,1046.571,258.078C1059.492,258.078,1072.413,280.519,1085.333,280.519C1098.254,280.519,1111.175,278.857,1124.095,275.532C1137.016,272.208,1149.937,254.338,1162.857,254.338C1175.778,254.338,1188.698,274.701,1201.619,280.519C1214.54,286.338,1227.46,284.26,1240.381,289.247C1253.302,294.234,1266.222,309.61,1279.143,310.442C1292.063,311.273,1304.984,310.857,1317.905,311.688C1330.825,312.519,1343.746,313.766,1356.667,317.922C1369.587,322.078,1382.508,335.169,1395.429,340.364C1408.349,345.558,1421.27,349.091,1434.19,349.091C1447.111,349.091,1460.032,347.844,1472.952,347.844C1485.873,347.844,1498.794,353.87,1511.714,356.571C1524.635,359.273,1537.556,360.935,1550.476,364.052C1563.397,367.169,1576.317,372.364,1589.238,375.273C1602.159,378.182,1615.079,379.844,1628,381.506" stroke="#d62728" stroke-width="2" stroke-dasharray="6,4"/></g><g class="mark-symbol role-mark layer_3_marks" role="graphics-object" aria-roledescription="symbol mark container"><path aria-label="date: Sep 08, 2025; count: 1; Date: Sep 08, 2025; Daily unique: 1; 7d avg: 1" role="graphics-symbol" aria-roledescription="point" transform="translate(0,471.27272727272725)" d="M3.536,0A3.536,3.536,0,1,1,-3.536,0A3.536,3.536,0,1,1,3.536,0" fill="#4e79a7" stroke-width="2" opacity="0.55"/><path aria-label="date: Sep 09, 2025; count: 54; Date: Sep 09, 2025; Daily unique: 54; 7d avg: 27.5" role="graphics-symbol" aria-roledescription="point" transform="translate(38.76190476190476,8.72727272727273)" d="M3.536,0A3.536,3.536,0,1,1,-3.536,0A3.536,3.536,0,1,1,3.536,0" fill="#4e79a7" stroke-width="2" opacity="0.55"/><path aria-label="date: Sep 10, 2025; count: 51; Date: Sep 10, 2025; Daily unique: 51; 7d avg: 35.3333333333" role="graphics-symbol" aria-roledescription="point" transform="translate(77.52380952380952,34.90909090909092)" d="M3.536,0A3.536,3.536,0,1,1,-3.536,0A3.536,3.536,0,1,1,3.536,0" fill="#4e79a7" stroke-width="2" opacity="0.55"/><path aria-label="date: Sep 11, 2025; count: 36; Date: Sep 11, 2025; Daily unique: 36; 7d avg: 35.5" role="graphics-symbol" aria-roledescription="point" transform="translate(116.28571428571428,165.8181818181818)" d="M3.536,0A3.536,3.536,0,1,1,-3.536,0A3.536,3.536,0,1,1,3.536,0" fill="#4e79a7" stroke-width="2" opacity="0.55"/><path aria-label="date: Sep 12, 2025; count: 32; Date: Sep 12, 2025; Daily unique: 32; 7d avg: 34.8" role="graphics-symbol" aria-roledescription="point" transform="translate(155.04761904761904,200.72727272727275)" d="M3.536,0A3.536,3.536,0,1,1,-3.536,0A3.536,3.536,0,1,1,3.536,0" fill="#4e79a7" stroke-width="2" opacity="0.55"/><path aria-label="date: Sep 13, 2025; count: 20; Date: Sep 13, 2025; Daily unique: 20; 7d avg: 32.3333333333" role="graphics-symbol" aria-roledescription="point" transform="translate(193.8095238095238,305.45454545454544)" d="M3.536,0A3.536,3.536,0,1,1,-3.536,0A3.536,3.536,0,1,1,3.536,0" fill="#4e79a7" stroke-width="2" opacity="0.55"/><path aria-label="date: Sep 14, 2025; count: 18; Date: Sep 14, 2025; Daily unique: 18; 7d avg: 30.2857142857" role="graphics-symbol" aria-roledescription="point" transform="translate(232.57142857142856,322.90909090909093)" d="M3.536,0A3.536,3.536,0,1,1,-3.536,0A3.536,3.536,0,1,1,3.536,0" fill="#4e79a7" stroke-width="2" opacity="0.55"/><path aria-label="date: Sep 15, 2025; count: 25; Date: Sep 15, 2025; Daily unique: 25; 7d avg: 33.7142857143" role="graphics-symbol" aria-roledescription="point" transform="translate(271.3333333333333,261.8181818181818)" d="M3.536,0A3.536,3.536,0,1,1,-3.536,0A3.536,3.536,0,1,1,3.536,0" fill="#4e79a7" stroke-width="2" opacity="0.55"/><path aria-label="date: Sep 16, 2025; count: 27; Date: Sep 16, 2025; Daily unique: 27; 7d avg: 29.8571428571" role="graphics-symbol" aria-roledescription="point" transform="translate(310.0952380952381,244.36363636363635)" d="M3.536,0A3.536,3.536,0,1,1,-3.536,0A3.536,3.536,0,1,1,3.536,0" fill="#4e79a7" stroke-width="2" opacity="0.55"/><path aria-label="date: Sep 17, 2025; count: 39; Date: Sep 17, 2025; Daily unique: 39; 7d avg: 28.1428571429" role="graphics-symbol" aria-roledescription="point" transform="translate(348.85714285714283,139.63636363636363)" d="M3.536,0A3.536,3.536,0,1,1,-3.536,0A3.536,3.536,0,1,1,3.536,0" fill="#4e79a7" stroke-width="2" opacity="0.55"/><path aria-label="date: Sep 18, 2025; count: 41; Date: Sep 18, 2025; Daily unique: 41; 7d avg: 28.8571428571" role="graphics-symbol" aria-roledescription="point" transform="translate(387.6190476190476,122.18181818181817)" d="M3.536,0A3.536,3.536,0,1,1,-3.536,0A3.536,3.536,0,1,1,3.536,0" fill="#4e79a7" stroke-width="2" opacity="0.55"/><path aria-label="date: Sep 19, 2025; count: 28; Date: Sep 19, 2025; Daily unique: 28; 7d avg: 28.2857142857" role="graphics-symbol" aria-roledescription="point" transform="translate(426.3809523809524,235.63636363636365)" d="M3.536,0A3.536,3.536,0,1,1,-3.536,0A3.536,3.536,0,1,1,3.536,0" fill="#4e79a7" stroke-width="2" opacity="0.55"/><path aria-label="date: Sep 20, 2025; count: 24; Date: Sep 20, 2025; Daily unique: 24; 7d avg: 28.8571428571" role="graphics-symbol" aria-roledescription="point" transform="translate(465.1428571428571,270.54545454545456)" d="M3.536,0A3.536,3.536,0,1,1,-3.536,0A3.536,3.536,0,1,1,3.536,0" fill="#4e79a7" stroke-width="2" opacity="0.55"/><path aria-label="date: Sep 21, 2025; count: 15; Date: Sep 21, 2025; Daily unique: 15; 7d avg: 28.4285714286" role="graphics-symbol" aria-roledescription="point" transform="translate(503.9047619047619,349.0909090909091)" d="M3.536,0A3.536,3.536,0,1,1,-3.536,0A3.536,3.536,0,1,1,3.536,0" fill="#4e79a7" stroke-width="2" opacity="0.55"/><path aria-label="date: Sep 22, 2025; count: 16; Date: Sep 22, 2025; Daily unique: 16; 7d avg: 27.1428571429" role="graphics-symbol" aria-roledescription="point" transform="translate(542.6666666666666,340.3636363636364)" d="M3.536,0A3.536,3.536,0,1,1,-3.536,0A3.536,3.536,0,1,1,3.536,0" fill="#4e79a7" stroke-width="2" opacity="0.55"/><path aria-label="date: Sep 23, 2025; count: 17; Date: Sep 23, 2025; Daily unique: 17; 7d avg: 25.7142857143" role="graphics-symbol" aria-roledescription="point" transform="translate(581.4285714285714,331.6363636363636)" d="M3.536,0A3.536,3.536,0,1,1,-3.536,0A3.536,3.536,0,1,1,3.536,0" fill="#4e79a7" stroke-width="2" opacity="0.55"/><path aria-label="date: Sep 24, 2025; count: 18; Date: Sep 24, 2025; Daily unique: 18; 7d avg: 22.7142857143" role="graphics-symbol" aria-roledescription="point" transform="translate(620.1904761904761,322.90909090909093)" d="M3.536,0A3.536,3.536,0,1,1,-3.536,0A3.536,3.536,0,1,1,3.536,0" fill="#4e79a7" stroke-width="2" opacity="0.55"/><path aria-label="date: Sep 25, 2025; count: 11; Date: Sep 25, 2025; Daily unique: 11; 7d avg: 18.4285714286" role="graphics-symbol" aria-roledescription="point" transform="translate(658.952380952381,384)" d="M3.536,0A3.536,3.536,0,1,1,-3.536,0A3.536,3.536,0,1,1,3.536,0" fill="#4e79a7" stroke-width="2" opacity="0.55"/><path aria-label="date: Sep 26, 2025; count: 25; Date: Sep 26, 2025; Daily unique: 25; 7d avg: 18" role="graphics-symbol" aria-roledescription="point" transform="translate(697.7142857142857,261.8181818181818)" d="M3.536,0A3.536,3.536,0,1,1,-3.536,0A3.536,3.536,0,1,1,3.536,0" fill="#4e79a7" stroke-width="2" opacity="0.55"/><path aria-label="date: Sep 27, 2025; count: 7; Date: Sep 27, 2025; Daily unique: 7; 7d avg: 15.5714285714" role="graphics-symbol" aria-roledescription="point" transform="translate(736.4761904761905,418.90909090909093)" d="M3.536,0A3.536,3.536,0,1,1,-3.536,0A3.536,3.536,0,1,1,3.536,0" fill="#4e79a7" stroke-width="2" opacity="0.55"/><path aria-label="date: Sep 28, 2025; count: 14; Date: Sep 28, 2025; Daily unique: 14; 7d avg: 15.4285714286" role="graphics-symbol" aria-roledescription="point" transform="translate(775.2380952380952,357.8181818181818)" d="M3.536,0A3.536,3.536,0,1,1,-3.536,0A3.536,3.536,0,1,1,3.536,0" fill="#4e79a7" stroke-width="2" opacity="0.55"/><path aria-label="date: Sep 29, 2025; count: 38; Date: Sep 29, 2025; Daily unique: 38; 7d avg: 18.5714285714" role="graphics-symbol" aria-roledescription="point" transform="translate(814,148.36363636363637)" d="M3.536,0A3.536,3.536,0,1,1,-3.536,0A3.536,3.536,0,1,1,3.536,0" fill="#4e79a7" stroke-width="2" opacity="0.55"/><path aria-label="date: Sep 30, 2025; count: 27; Date: Sep 30, 2025; Daily unique: 27; 7d avg: 20" role="graphics-symbol" aria-roledescription="point" transform="translate(852.7619047619048,244.36363636363635)" d="M3.536,0A3.536,3.536,0,1,1,-3.536,0A3.536,3.536,0,1,1,3.536,0" fill="#4e79a7" stroke-width="2" opacity="0.55"/><path aria-label="date: Oct 01, 2025; count: 9; Date: Oct 01, 2025; Daily unique: 9; 7d avg: 18.7142857143" role="graphics-symbol" aria-roledescription="point" transform="translate(891.5238095238096,401.4545454545455)" d="M3.536,0A3.536,3.536,0,1,1,-3.536,0A3.536,3.536,0,1,1,3.536,0" fill="#4e79a7" stroke-width="2" opacity="0.55"/><path aria-label="date: Oct 02, 2025; count: 36; Date: Oct 02, 2025; Daily unique: 36; 7d avg: 22.2857142857" role="graphics-symbol" aria-roledescription="point" transform="translate(930.2857142857142,165.8181818181818)" d="M3.536,0A3.536,3.536,0,1,1,-3.536,0A3.536,3.536,0,1,1,3.536,0" fill="#4e79a7" stroke-width="2" opacity="0.55"/><path aria-label="date: Oct 03, 2025; count: 26; Date: Oct 03, 2025; Daily unique: 26; 7d avg: 22.4285714286" role="graphics-symbol" aria-roledescription="point" transform="translate(969.047619047619,253.09090909090912)" d="M3.536,0A3.536,3.536,0,1,1,-3.536,0A3.536,3.536,0,1,1,3.536,0" fill="#4e79a7" stroke-width="2" opacity="0.55"/><path aria-label="date: Oct 04, 2025; count: 26; Date: Oct 04, 2025; Daily unique: 26; 7d avg: 25.1428571429" role="graphics-symbol" aria-roledescription="point" transform="translate(1007.8095238095239,253.09090909090912)" d="M3.536,0A3.536,3.536,0,1,1,-3.536,0A3.536,3.536,0,1,1,3.536,0" fill="#4e79a7" stroke-width="2" opacity="0.55"/><path aria-label="date: Oct 05, 2025; count: 16; Date: Oct 05, 2025; Daily unique: 16; 7d avg: 25.4285714286" role="graphics-symbol" aria-roledescription="point" transform="translate(1046.5714285714287,340.3636363636364)" d="M3.536,0A3.536,3.536,0,1,1,-3.536,0A3.536,3.536,0,1,1,3.536,0" fill="#4e79a7" stroke-width="2" opacity="0.55"/><path aria-label="date: Oct 06, 2025; count: 20; Date: Oct 06, 2025; Daily unique: 20; 7d avg: 22.8571428571" role="graphics-symbol" aria-roledescription="point" transform="translate(1085.3333333333333,305.45454545454544)" d="M3.536,0A3.536,3.536,0,1,1,-3.536,0A3.536,3.536,0,1,1,3.536,0" fill="#4e79a7" stroke-width="2" opacity="0.55"/><path aria-label="date: Oct 07, 2025; count: 31; Date: Oct 07, 2025; Daily unique: 31; 7d avg: 23.4285714286" role="graphics-symbol" aria-roledescription="point" transform="translate(1124.095238095238,209.45454545454547)" d="M3.536,0A3.536,3.536,0,1,1,-3.536,0A3.536,3.536,0,1,1,3.536,0" fill="#4e79a7" stroke-width="2" opacity="0.55"/><path aria-label="date: Oct 08, 2025; count: 26; Date: Oct 08, 2025; Daily unique: 26; 7d avg: 25.8571428571" role="graphics-symbol" aria-roledescription="point" transform="translate(1162.857142857143,253.09090909090912)" d="M3.536,0A3.536,3.536,0,1,1,-3.536,0A3.536,3.536,0,1,1,3.536,0" fill="#4e79a7" stroke-width="2" opacity="0.55"/><path aria-label="date: Oct 09, 2025; count: 15; Date: Oct 09, 2025; Daily unique: 15; 7d avg: 22.8571428571" role="graphics-symbol" aria-roledescription="point" transform="translate(1201.6190476190477,349.0909090909091)" d="M3.536,0A3.536,3.536,0,1,1,-3.536,0A3.536,3.536,0,1,1,3.536,0" fill="#4e79a7" stroke-width="2" opacity="0.55"/><path aria-label="date: Oct 10, 2025; count: 19; Date: Oct 10, 2025; Daily unique: 19; 7d avg: 21.8571428571" role="graphics-symbol" aria-roledescription="point" transform="translate(1240.3809523809523,314.1818181818182)" d="M3.536,0A3.536,3.536,0,1,1,-3.536,0A3.536,3.536,0,1,1,3.536,0" fill="#4e79a7" stroke-width="2" opacity="0.55"/><path aria-label="date: Oct 11, 2025; count: 9; Date: Oct 11, 2025; Daily unique: 9; 7d avg: 19.4285714286" role="graphics-symbol" aria-roledescription="point" transform="translate(1279.142857142857,401.4545454545455)" d="M3.536,0A3.536,3.536,0,1,1,-3.536,0A3.536,3.536,0,1,1,3.536,0" fill="#4e79a7" stroke-width="2" opacity="0.55"/><path aria-label="date: Oct 12, 2025; count: 15; Date: Oct 12, 2025; Daily unique: 15; 7d avg: 19.2857142857" role="graphics-symbol" aria-roledescription="point" transform="translate(1317.904761904762,349.0909090909091)" d="M3.536,0A3.536,3.536,0,1,1,-3.536,0A3.536,3.536,0,1,1,3.536,0" fill="#4e79a7" stroke-width="2" opacity="0.55"/><path aria-label="date: Oct 13, 2025; count: 15; Date: Oct 13, 2025; Daily unique: 15; 7d avg: 18.5714285714" role="graphics-symbol" aria-roledescription="point" transform="translate(1356.6666666666667,349.0909090909091)" d="M3.536,0A3.536,3.536,0,1,1,-3.536,0A3.536,3.536,0,1,1,3.536,0" fill="#4e79a7" stroke-width="2" opacity="0.55"/><path aria-label="date: Oct 14, 2025; count: 13; Date: Oct 14, 2025; Daily unique: 13; 7d avg: 16" role="graphics-symbol" aria-roledescription="point" transform="translate(1395.4285714285713,366.54545454545456)" d="M3.536,0A3.536,3.536,0,1,1,-3.536,0A3.536,3.536,0,1,1,3.536,0" fill="#4e79a7" stroke-width="2" opacity="0.55"/><path aria-label="date: Oct 15, 2025; count: 19; Date: Oct 15, 2025; Daily unique: 19; 7d avg: 15" role="graphics-symbol" aria-roledescription="point" transform="translate(1434.1904761904761,314.1818181818182)" d="M3.536,0A3.536,3.536,0,1,1,-3.536,0A3.536,3.536,0,1,1,3.536,0" fill="#4e79a7" stroke-width="2" opacity="0.55"/><path aria-label="date: Oct 16, 2025; count: 16; Date: Oct 16, 2025; Daily unique: 16; 7d avg: 15.1428571429" role="graphics-symbol" aria-roledescription="point" transform="translate(1472.952380952381,340.3636363636364)" d="M3.536,0A3.536,3.536,0,1,1,-3.536,0A3.536,3.536,0,1,1,3.536,0" fill="#4e79a7" stroke-width="2" opacity="0.55"/><path aria-label="date: Oct 17, 2025; count: 12; Date: Oct 17, 2025; Daily unique: 12; 7d avg: 14.1428571429" role="graphics-symbol" aria-roledescription="point" transform="translate(1511.7142857142858,375.2727272727273)" d="M3.536,0A3.536,3.536,0,1,1,-3.536,0A3.536,3.536,0,1,1,3.536,0" fill="#4e79a7" stroke-width="2" opacity="0.55"/><path aria-label="date: Oct 18, 2025; count: 3; Date: Oct 18, 2025; Daily unique: 3; 7d avg: 13.2857142857" role="graphics-symbol" aria-roledescription="point" transform="translate(1550.4761904761904,453.8181818181818)" d="M3.536,0A3.536,3.536,0,1,1,-3.536,0A3.536,3.536,0,1,1,3.536,0" fill="#4e79a7" stroke-width="2" opacity="0.55"/><path aria-label="date: Oct 19, 2025; count: 6; Date: Oct 19, 2025; Daily unique: 6; 7d avg: 12" role="graphics-symbol" aria-roledescription="point" transform="translate(1589.2380952380952,427.6363636363636)" d="M3.536,0A3.536,3.536,0,1,1,-3.536,0A3.536,3.536,0,1,1,3.536,0" fill="#4e79a7" stroke-width="2" opacity="0.55"/><path aria-label="date: Oct 20, 2025; count: 10; Date: Oct 20, 2025; Daily unique: 10; 7d avg: 11.2857142857" role="graphics-symbol" aria-roledescription="point" transform="translate(1628,392.7272727272727)" d="M3.536,0A3.536,3.536,0,1,1,-3.536,0A3.536,3.536,0,1,1,3.536,0" fill="#4e79a7" stroke-width="2" opacity="0.55"/></g><g class="mark-path role-mark layer_3_voronoi" aria-hidden="true"><path transform="translate(0,0)" d="M0,296.410627043025L25.15109337915733,305.98557985412083L27.649209720451523,307.41723203793725L151.20645215800522,451.8318556785304L169.17567712609036,480L0,480Z" stroke-width="0.35"/><path transform="translate(0,0)" d="M72.8799984915687,0L0,107.89806654985222L0,0Z" stroke-width="0.35"/><path transform="translate(0,0)" d="M246.87537070181693,0L222.49038460848644,63.17799927074121L0,129.05693127419318L0,107.89806654985222L72.8799984915687,0Z" stroke-width="0.35"/><path transform="translate(0,0)" d="M224.86082508396558,84.23447151026524L25.15109337915733,305.98557985412083L0,296.410627043025L0,129.05693127419318L222.49038460848644,63.17799927074121Z" stroke-width="0.35"/><path transform="translate(0,0)" d="M208.31783396873163,240.54773544736597L27.649209720451523,307.41723203793725L25.15109337915733,305.98557985412083L224.86082508396558,84.23447151026524L249.45199876811444,162.24941240024148Z" stroke-width="0.35"/><path transform="translate(0,0)" d="M208.31783396873163,240.54773544736597L229.44571350356475,278.0832579384167L151.20645215800522,451.8318556785304L27.649209720451523,307.41723203793725Z" stroke-width="0.35"/><path transform="translate(0,0)" d="M364.4249601903213,375.5171426131571L354.3430762521672,480L169.17567712609036,480L151.20645215800522,451.8318556785304L229.44571350356475,278.0832579384167L330.97744508488313,342.5046811653955Z" stroke-width="0.35"/><path transform="translate(0,0)" d="M249.95070814079065,162.56584123548404L330.97744508488313,342.5046811653955L229.44571350356475,278.0832579384167L208.31783396873163,240.54773544736597L249.45199876811444,162.24941240024148Z" stroke-width="0.35"/><path transform="translate(0,0)" d="M369.1633949267307,366.74813950679766L364.4249601903213,375.5171426131571L330.97744508488313,342.5046811653955L249.95070814079065,162.56584123548404L365.64023983504507,205.3851230968578L375.10836620753975,331.54227122084257Z" stroke-width="0.35"/><path transform="translate(0,0)" d="M309.28952984324883,0L392.1388933207115,183.98640887331365L365.64023983504507,205.3851230968578L249.95070814079065,162.56584123548404L249.45199876811444,162.24941240024148L224.86082508396558,84.23447151026524L222.49038460848644,63.17799927074121L246.87537070181693,0Z" stroke-width="0.35"/><path transform="translate(0,0)" d="M559.4904028209817,126.81053066568921L392.1388933207115,183.98640887331365L309.28952984324883,0L609.1159125697068,0L605.9566520419065,51.44976958087855L575.8773335963417,118.24793856936716Z" stroke-width="0.35"/><path transform="translate(0,0)" d="M559.4904028209817,126.81053066568921L375.10836620753975,331.54227122084257L365.64023983504507,205.3851230968578L392.1388933207115,183.98640887331365Z" stroke-width="0.35"/><path transform="translate(0,0)" d="M573.4259813747417,205.64959286744988L544.9171815155286,259.91570552463406L512.3356959621422,296.09311396275683L369.1633949267307,366.74813950679766L375.10836620753975,331.54227122084257L559.4904028209817,126.81053066568921L575.8773335963417,118.24793856936716L578.5839808467907,190.3768655947228Z" stroke-width="0.35"/><path transform="translate(0,0)" d="M512.3356959621422,296.09311396275683L553.7424730730518,480L354.3430762521672,480L364.4249601903213,375.5171426131571L369.1633949267307,366.74813950679766Z" stroke-width="0.35"/><path transform="translate(0,0)" d="M544.9171815155286,259.91570552463406L580.2676186705112,416.9235499123892L556.5980997633891,480L553.7424730730518,480L512.3356959621422,296.09311396275683Z" stroke-width="0.35"/><path transform="translate(0,0)" d="M573.4259813747417,205.64959286744988L610.812761376811,371.7017893647359L580.2676186705112,416.9235499123892L544.9171815155286,259.91570552463406Z" stroke-width="0.35"/><path transform="translate(0,0)" d="M573.4259813747417,205.64959286744988L578.5839808467907,190.3768655947228L684.5862824292576,324.89282483075L610.812761376811,371.7017893647359Z" stroke-width="0.35"/><path transform="translate(0,0)" d="M715.2198090545198,362.5794323621705L662.3451464773779,480L556.5980997633891,480L580.2676186705112,416.9235499123892L610.812761376811,371.7017893647359L684.5862824292576,324.89282483075L708.4383601656328,332.459842406271Z" stroke-width="0.35"/><path transform="translate(0,0)" d="M771.6576072504927,221.28566162960578L777.8618565436748,276.3976141803522L708.4383601656328,332.459842406271L684.5862824292576,324.89282483075L578.5839808467907,190.3768655947228L575.8773335963417,118.24793856936716L605.9566520419065,51.44976958087855Z" stroke-width="0.35"/><path transform="translate(0,0)" d="M815.8273995381434,426.41449225377795L821.8598087193129,480L662.3451464773779,480L715.2198090545198,362.5794323621705Z" stroke-width="0.35"/><path transform="translate(0,0)" d="M777.8618565436748,276.3976141803522L852.8847789399316,327.6609877407983L815.8273995381434,426.41449225377795L715.2198090545198,362.5794323621705L708.4383601656328,332.459842406271Z" stroke-width="0.35"/><path transform="translate(0,0)" d="M895.7222833007954,0L868.3684553273996,182.23673785252126L771.6576072504927,221.28566162960578L605.9566520419065,51.44976958087855L609.1159125697068,0Z" stroke-width="0.35"/><path transform="translate(0,0)" d="M868.3684553273996,182.23673785252126L912.6172082264986,225.9099448034177L905.9637094754825,314.5638552447852L852.8847789399316,327.6609877407983L777.8618565436748,276.3976141803522L771.6576072504927,221.28566162960578Z" stroke-width="0.35"/><path transform="translate(0,0)" d="M905.9637094754825,314.5638552447852L957.4461397822281,341.4647469912021L1012.0309479813614,480L821.8598087193129,480L815.8273995381434,426.41449225377795L852.8847789399316,327.6609877407983Z" stroke-width="0.35"/><path transform="translate(0,0)" d="M1069.4369480567827,0L1035.5857149142273,150.34917736033805L988.4285714285714,192.23856850821133L912.6172082264986,225.9099448034177L868.3684553273996,182.23673785252126L895.7222833007954,0Z" stroke-width="0.35"/><path transform="translate(0,0)" d="M912.6172082264986,225.9099448034177L988.4285714285714,192.23856850821133L988.4285714285714,313.9432496736069L957.4461397822281,341.4647469912021L905.9637094754825,314.5638552447852Z" stroke-width="0.35"/><path transform="translate(0,0)" d="M988.4285714285714,192.23856850821133L1035.5857149142273,150.34917736033805L1070.6097947331714,243.68418054451217L1038.0351037647376,291.91066581755365L988.4285714285714,313.9432496736069Z" stroke-width="0.35"/><path transform="translate(0,0)" d="M988.4285714285714,313.9432496736069L1038.0351037647376,291.91066581755365L1121.8309242514397,384.9547849442805L1116.4810483984038,480L1012.0309479813614,480L957.4461397822281,341.4647469912021Z" stroke-width="0.35"/><path transform="translate(0,0)" d="M1038.0351037647376,291.91066581755365L1070.6097947331714,243.68418054451217L1111.0995258836167,260.0327128641861L1148.1336042569808,314.86127400094244L1121.8309242514397,384.9547849442805Z" stroke-width="0.35"/><path transform="translate(0,0)" d="M1367.5657052351266,0L1352.022855634426,46.02204871847712L1111.0995258836167,260.0327128641861L1070.6097947331714,243.68418054451217L1035.5857149142273,150.34917736033805L1069.4369480567827,0Z" stroke-width="0.35"/><path transform="translate(0,0)" d="M1111.0995258836167,260.0327128641861L1352.022855634426,46.02204871847712L1337.2857142857142,111.47659417302302L1190.4899830172556,297.759045672141L1148.1336042569808,314.86127400094244Z" stroke-width="0.35"/><path transform="translate(0,0)" d="M1148.1336042569808,314.86127400094244L1190.4899830172556,297.759045672141L1248.9172771876433,362.6347887279009L1169.6426739071367,480L1116.4810483984038,480L1121.8309242514397,384.9547849442805Z" stroke-width="0.35"/><path transform="translate(0,0)" d="M1190.4899830172556,297.759045672141L1337.2857142857142,111.47659417302302L1337.2857142857142,202.51653653885796L1269.2509538893837,353.60365077217756L1248.9172771876433,362.6347887279009Z" stroke-width="0.35"/><path transform="translate(0,0)" d="M1169.6426739071367,480L1248.9172771876433,362.6347887279009L1269.2509538893837,353.60365077217756L1337.2857142857142,403.9660221832842L1348.0745909588884,419.9388399299113L1366.1050129231946,480Z" stroke-width="0.35"/><path transform="translate(0,0)" d="M1269.2509538893837,353.60365077217756L1337.2857142857142,202.51653653885796L1337.2857142857142,403.9660221832842Z" stroke-width="0.35"/><path transform="translate(0,0)" d="M1337.2857142857142,403.9660221832842L1337.2857142857142,202.51653653885836L1391.6329517775798,323.2073015443552L1348.0745909588884,419.9388399299113Z" stroke-width="0.35"/><path transform="translate(0,0)" d="M1366.1050129231946,480L1348.0745909588884,419.9388399299113L1391.6329517775798,323.2073015443552L1434.755937111309,355.1288632737046L1451.119411145707,403.5807635726468L1447.188864816964,455.9529537922393L1433.6533373558166,480Z" stroke-width="0.35"/><path transform="translate(0,0)" d="M1628,0L1628,69.0330730777156L1434.755937111309,355.1288632737046L1391.6329517775798,323.2073015443552L1337.2857142857142,202.51653653885836L1337.2857142857142,111.47659417302302L1352.022855634426,46.02204871847712L1367.5657052351266,0Z" stroke-width="0.35"/><path transform="translate(0,0)" d="M1434.755937111309,355.1288632737046L1628,69.0330730777156L1628,136.9990952609997L1590.0777899934924,249.28595650381368L1451.119411145707,403.5807635726468Z" stroke-width="0.35"/><path transform="translate(0,0)" d="M1447.188864816964,455.9529537922393L1451.119411145707,403.5807635726468L1590.0777899934924,249.28595650381368L1572.0260683719953,369.55017927084253L1546.9032394528263,406.7442616356307Z" stroke-width="0.35"/><path transform="translate(0,0)" d="M1433.6533373558166,480L1447.188864816964,455.9529537922393L1546.9032394528263,406.7442616356307L1596.3839972848236,480Z" stroke-width="0.35"/><path transform="translate(0,0)" d="M1628,480L1596.3839972848236,480L1546.9032394528263,406.7442616356307L1572.0260683719953,369.55017927084253L1628,431.7017893647357Z" stroke-width="0.35"/><path transform="translate(0,0)" d="M1628,431.7017893647357L1572.0260683719953,369.55017927084253L1590.0777899934924,249.28595650381368L1628,136.9990952609997Z" stroke-width="0.35"/></g><g class="mark-symbol role-mark layer_4_marks" role="graphics-object" aria-roledescription="symbol mark container"><path aria-label="date: Sep 08, 2025; count: 1; Peak date: Sep 08, 2025; Peak unique count: 1" role="graphics-symbol" aria-roledescription="point" transform="translate(0,471.27272727272725)" d="M-5.916,0L0,-5.916L5.916,0L0,5.916Z" fill="#ff9900" stroke="#b36b00" stroke-width="1.5" opacity="0"/><path aria-label="date: Sep 09, 2025; count: 54; Peak date: Sep 09, 2025; Peak unique count: 54" role="graphics-symbol" aria-roledescription="point" transform="translate(38.76190476190476,8.72727272727273)" d="M-5.916,0L0,-5.916L5.916,0L0,5.916Z" fill="#ff9900" stroke="#b36b00" stroke-width="1.5" opacity="1"/><path aria-label="date: Sep 10, 2025; count: 51; Peak date: Sep 10, 2025; Peak unique count: 51" role="graphics-symbol" aria-roledescription="point" transform="translate(77.52380952380952,34.90909090909092)" d="M-5.916,0L0,-5.916L5.916,0L0,5.916Z" fill="#ff9900" stroke="#b36b00" stroke-width="1.5" opacity="0"/><path aria-label="date: Sep 11, 2025; count: 36; Peak date: Sep 11, 2025; Peak unique count: 36" role="graphics-symbol" aria-roledescription="point" transform="translate(116.28571428571428,165.8181818181818)" d="M-5.916,0L0,-5.916L5.916,0L0,5.916Z" fill="#ff9900" stroke="#b36b00" stroke-width="1.5" opacity="0"/><path aria-label="date: Sep 12, 2025; count: 32; Peak date: Sep 12, 2025; Peak unique count: 32" role="graphics-symbol" aria-roledescription="point" transform="translate(155.04761904761904,200.72727272727275)" d="M-5.916,0L0,-5.916L5.916,0L0,5.916Z" fill="#ff9900" stroke="#b36b00" stroke-width="1.5" opacity="0"/><path aria-label="date: Sep 13, 2025; count: 20; Peak date: Sep 13, 2025; Peak unique count: 20" role="graphics-symbol" aria-roledescription="point" transform="translate(193.8095238095238,305.45454545454544)" d="M-5.916,0L0,-5.916L5.916,0L0,5.916Z" fill="#ff9900" stroke="#b36b00" stroke-width="1.5" opacity="0"/><path aria-label="date: Sep 14, 2025; count: 18; Peak date: Sep 14, 2025; Peak unique count: 18" role="graphics-symbol" aria-roledescription="point" transform="translate(232.57142857142856,322.90909090909093)" d="M-5.916,0L0,-5.916L5.916,0L0,5.916Z" fill="#ff9900" stroke="#b36b00" stroke-width="1.5" opacity="0"/><path aria-label="date: Sep 15, 2025; count: 25; Peak date: Sep 15, 2025; Peak unique count: 25" role="graphics-symbol" aria-roledescription="point" transform="translate(271.3333333333333,261.8181818181818)" d="M-5.916,0L0,-5.916L5.916,0L0,5.916Z" fill="#ff9900" stroke="#b36b00" stroke-width="1.5" opacity="0"/><path aria-label="date: Sep 16, 2025; count: 27; Peak date: Sep 16, 2025; Peak unique count: 27" role="graphics-symbol" aria-roledescription="point" transform="translate(310.0952380952381,244.36363636363635)" d="M-5.916,0L0,-5.916L5.916,0L0,5.916Z" fill="#ff9900" stroke="#b36b00" stroke-width="1.5" opacity="0"/><path aria-label="date: Sep 17, 2025; count: 39; Peak date: Sep 17, 2025; Peak unique count: 39" role="graphics-symbol" aria-roledescription="point" transform="translate(348.85714285714283,139.63636363636363)" d="M-5.916,0L0,-5.916L5.916,0L0,5.916Z" fill="#ff9900" stroke="#b36b00" stroke-width="1.5" opacity="0"/><path aria-label="date: Sep 18, 2025; count: 41; Peak date: Sep 18, 2025; Peak unique count: 41" role="graphics-symbol" aria-roledescription="point" transform="translate(387.6190476190476,122.18181818181817)" d="M-5.916,0L0,-5.916L5.916,0L0,5.916Z" fill="#ff9900" stroke="#b36b00" stroke-width="1.5" opacity="0"/><path aria-label="date: Sep 19, 2025; count: 28; Peak date: Sep 19, 2025; Peak unique count: 28" role="graphics-symbol" aria-roledescription="point" transform="translate(426.3809523809524,235.63636363636365)" d="M-5.916,0L0,-5.916L5.916,0L0,5.916Z" fill="#ff9900" stroke="#b36b00" stroke-width="1.5" opacity="0"/><path aria-label="date: Sep 20, 2025; count: 24; Peak date: Sep 20, 2025; Peak unique count: 24" role="graphics-symbol" aria-roledescription="point" transform="translate(465.1428571428571,270.54545454545456)" d="M-5.916,0L0,-5.916L5.916,0L0,5.916Z" fill="#ff9900" stroke="#b36b00" stroke-width="1.5" opacity="0"/><path aria-label="date: Sep 21, 2025; count: 15; Peak date: Sep 21, 2025; Peak unique count: 15" role="graphics-symbol" aria-roledescription="point" transform="translate(503.9047619047619,349.0909090909091)" d="M-5.916,0L0,-5.916L5.916,0L0,5.916Z" fill="#ff9900" stroke="#b36b00" stroke-width="1.5" opacity="0"/><path aria-label="date: Sep 22, 2025; count: 16; Peak date: Sep 22, 2025; Peak unique count: 16" role="graphics-symbol" aria-roledescription="point" transform="translate(542.6666666666666,340.3636363636364)" d="M-5.916,0L0,-5.916L5.916,0L0,5.916Z" fill="#ff9900" stroke="#b36b00" stroke-width="1.5" opacity="0"/><path aria-label="date: Sep 23, 2025; count: 17; Peak date: Sep 23, 2025; Peak unique count: 17" role="graphics-symbol" aria-roledescription="point" transform="translate(581.4285714285714,331.6363636363636)" d="M-5.916,0L0,-5.916L5.916,0L0,5.916Z" fill="#ff9900" stroke="#b36b00" stroke-width="1.5" opacity="0"/><path aria-label="date: Sep 24, 2025; count: 18; Peak date: Sep 24, 2025; Peak unique count: 18" role="graphics-symbol" aria-roledescription="point" transform="translate(620.1904761904761,322.90909090909093)" d="M-5.916,0L0,-5.916L5.916,0L0,5.916Z" fill="#ff9900" stroke="#b36b00" stroke-width="1.5" opacity="0"/><path aria-label="date: Sep 25, 2025; count: 11; Peak date: Sep 25, 2025; Peak unique count: 11" role="graphics-symbol" aria-roledescription="point" transform="translate(658.952380952381,384)" d="M-5.916,0L0,-5.916L5.916,0L0,5.916Z" fill="#ff9900" stroke="#b36b00" stroke-width="1.5" opacity="0"/><path aria-label="date: Sep 26, 2025; count: 25; Peak date: Sep 26, 2025; Peak unique count: 25" role="graphics-symbol" aria-roledescription="point" transform="translate(697.7142857142857,261.8181818181818)" d="M-5.916,0L0,-5.916L5.916,0L0,5.916Z" fill="#ff9900" stroke="#b36b00" stroke-width="1.5" opacity="0"/><path aria-label="date: Sep 27, 2025; count: 7; Peak date: Sep 27, 2025; Peak unique count: 7" role="graphics-symbol" aria-roledescription="point" transform="translate(736.4761904761905,418.90909090909093)" d="M-5.916,0L0,-5.916L5.916,0L0,5.916Z" fill="#ff9900" stroke="#b36b00" stroke-width="1.5" opacity="0"/><path aria-label="date: Sep 28, 2025; count: 14; Peak date: Sep 28, 2025; Peak unique count: 14" role="graphics-symbol" aria-roledescription="point" transform="translate(775.2380952380952,357.8181818181818)" d="M-5.916,0L0,-5.916L5.916,0L0,5.916Z" fill="#ff9900" stroke="#b36b00" stroke-width="1.5" opacity="0"/><path aria-label="date: Sep 29, 2025; count: 38; Peak date: Sep 29, 2025; Peak unique count: 38" role="graphics-symbol" aria-roledescription="point" transform="translate(814,148.36363636363637)" d="M-5.916,0L0,-5.916L5.916,0L0,5.916Z" fill="#ff9900" stroke="#b36b00" stroke-width="1.5" opacity="0"/><path aria-label="date: Sep 30, 2025; count: 27; Peak date: Sep 30, 2025; Peak unique count: 27" role="graphics-symbol" aria-roledescription="point" transform="translate(852.7619047619048,244.36363636363635)" d="M-5.916,0L0,-5.916L5.916,0L0,5.916Z" fill="#ff9900" stroke="#b36b00" stroke-width="1.5" opacity="0"/><path aria-label="date: Oct 01, 2025; count: 9; Peak date: Oct 01, 2025; Peak unique count: 9" role="graphics-symbol" aria-roledescription="point" transform="translate(891.5238095238096,401.4545454545455)" d="M-5.916,0L0,-5.916L5.916,0L0,5.916Z" fill="#ff9900" stroke="#b36b00" stroke-width="1.5" opacity="0"/><path aria-label="date: Oct 02, 2025; count: 36; Peak date: Oct 02, 2025; Peak unique count: 36" role="graphics-symbol" aria-roledescription="point" transform="translate(930.2857142857142,165.8181818181818)" d="M-5.916,0L0,-5.916L5.916,0L0,5.916Z" fill="#ff9900" stroke="#b36b00" stroke-width="1.5" opacity="0"/><path aria-label="date: Oct 03, 2025; count: 26; Peak date: Oct 03, 2025; Peak unique count: 26" role="graphics-symbol" aria-roledescription="point" transform="translate(969.047619047619,253.09090909090912)" d="M-5.916,0L0,-5.916L5.916,0L0,5.916Z" fill="#ff9900" stroke="#b36b00" stroke-width="1.5" opacity="0"/><path aria-label="date: Oct 04, 2025; count: 26; Peak date: Oct 04, 2025; Peak unique count: 26" role="graphics-symbol" aria-roledescription="point" transform="translate(1007.8095238095239,253.09090909090912)" d="M-5.916,0L0,-5.916L5.916,0L0,5.916Z" fill="#ff9900" stroke="#b36b00" stroke-width="1.5" opacity="0"/><path aria-label="date: Oct 05, 2025; count: 16; Peak date: Oct 05, 2025; Peak unique count: 16" role="graphics-symbol" aria-roledescription="point" transform="translate(1046.5714285714287,340.3636363636364)" d="M-5.916,0L0,-5.916L5.916,0L0,5.916Z" fill="#ff9900" stroke="#b36b00" stroke-width="1.5" opacity="0"/><path aria-label="date: Oct 06, 2025; count: 20; Peak date: Oct 06, 2025; Peak unique count: 20" role="graphics-symbol" aria-roledescription="point" transform="translate(1085.3333333333333,305.45454545454544)" d="M-5.916,0L0,-5.916L5.916,0L0,5.916Z" fill="#ff9900" stroke="#b36b00" stroke-width="1.5" opacity="0"/><path aria-label="date: Oct 07, 2025; count: 31; Peak date: Oct 07, 2025; Peak unique count: 31" role="graphics-symbol" aria-roledescription="point" transform="translate(1124.095238095238,209.45454545454547)" d="M-5.916,0L0,-5.916L5.916,0L0,5.916Z" fill="#ff9900" stroke="#b36b00" stroke-width="1.5" opacity="0"/><path aria-label="date: Oct 08, 2025; count: 26; Peak date: Oct 08, 2025; Peak unique count: 26" role="graphics-symbol" aria-roledescription="point" transform="translate(1162.857142857143,253.09090909090912)" d="M-5.916,0L0,-5.916L5.916,0L0,5.916Z" fill="#ff9900" stroke="#b36b00" stroke-width="1.5" opacity="0"/><path aria-label="date: Oct 09, 2025; count: 15; Peak date: Oct 09, 2025; Peak unique count: 15" role="graphics-symbol" aria-roledescription="point" transform="translate(1201.6190476190477,349.0909090909091)" d="M-5.916,0L0,-5.916L5.916,0L0,5.916Z" fill="#ff9900" stroke="#b36b00" stroke-width="1.5" opacity="0"/><path aria-label="date: Oct 10, 2025; count: 19; Peak date: Oct 10, 2025; Peak unique count: 19" role="graphics-symbol" aria-roledescription="point" transform="translate(1240.3809523809523,314.1818181818182)" d="M-5.916,0L0,-5.916L5.916,0L0,5.916Z" fill="#ff9900" stroke="#b36b00" stroke-width="1.5" opacity="0"/><path aria-label="date: Oct 11, 2025; count: 9; Peak date: Oct 11, 2025; Peak unique count: 9" role="graphics-symbol" aria-roledescription="point" transform="translate(1279.142857142857,401.4545454545455)" d="M-5.916,0L0,-5.916L5.916,0L0,5.916Z" fill="#ff9900" stroke="#b36b00" stroke-width="1.5" opacity="0"/><path aria-label="date: Oct 12, 2025; count: 15; Peak date: Oct 12, 2025; Peak unique count: 15" role="graphics-symbol" aria-roledescription="point" transform="translate(1317.904761904762,349.0909090909091)" d="M-5.916,0L0,-5.916L5.916,0L0,5.916Z" fill="#ff9900" stroke="#b36b00" stroke-width="1.5" opacity="0"/><path aria-label="date: Oct 13, 2025; count: 15; Peak date: Oct 13, 2025; Peak unique count: 15" role="graphics-symbol" aria-roledescription="point" transform="translate(1356.6666666666667,349.0909090909091)" d="M-5.916,0L0,-5.916L5.916,0L0,5.916Z" fill="#ff9900" stroke="#b36b00" stroke-width="1.5" opacity="0"/><path aria-label="date: Oct 14, 2025; count: 13; Peak date: Oct 14, 2025; Peak unique count: 13" role="graphics-symbol" aria-roledescription="point" transform="translate(1395.4285714285713,366.54545454545456)" d="M-5.916,0L0,-5.916L5.916,0L0,5.916Z" fill="#ff9900" stroke="#b36b00" stroke-width="1.5" opacity="0"/><path aria-label="date: Oct 15, 2025; count: 19; Peak date: Oct 15, 2025; Peak unique count: 19" role="graphics-symbol" aria-roledescription="point" transform="translate(1434.1904761904761,314.1818181818182)" d="M-5.916,0L0,-5.916L5.916,0L0,5.916Z" fill="#ff9900" stroke="#b36b00" stroke-width="1.5" opacity="0"/><path aria-label="date: Oct 16, 2025; count: 16; Peak date: Oct 16, 2025; Peak unique count: 16" role="graphics-symbol" aria-roledescription="point" transform="translate(1472.952380952381,340.3636363636364)" d="M-5.916,0L0,-5.916L5.916,0L0,5.916Z" fill="#ff9900" stroke="#b36b00" stroke-width="1.5" opacity="0"/><path aria-label="date: Oct 17, 2025; count: 12; Peak date: Oct 17, 2025; Peak unique count: 12" role="graphics-symbol" aria-roledescription="point" transform="translate(1511.7142857142858,375.2727272727273)" d="M-5.916,0L0,-5.916L5.916,0L0,5.916Z" fill="#ff9900" stroke="#b36b00" stroke-width="1.5" opacity="0"/><path aria-label="date: Oct 18, 2025; count: 3; Peak date: Oct 18, 2025; Peak unique count: 3" role="graphics-symbol" aria-roledescription="point" transform="translate(1550.4761904761904,453.8181818181818)" d="M-5.916,0L0,-5.916L5.916,0L0,5.916Z" fill="#ff9900" stroke="#b36b00" stroke-width="1.5" opacity="0"/><path aria-label="date: Oct 19, 2025; count: 6; Peak date: Oct 19, 2025; Peak unique count: 6" role="graphics-symbol" aria-roledescription="point" transform="translate(1589.2380952380952,427.6363636363636)" d="M-5.916,0L0,-5.916L5.916,0L0,5.916Z" fill="#ff9900" stroke="#b36b00" stroke-width="1.5" opacity="0"/><path aria-label="date: Oct 20, 2025; count: 10; Peak date: Oct 20, 2025; Peak unique count: 10" role="graphics-symbol" aria-roledescription="point" transform="translate(1628,392.7272727272727)" d="M-5.916,0L0,-5.916L5.916,0L0,5.916Z" fill="#ff9900" stroke="#b36b00" stroke-width="1.5" opacity="0"/></g><g class="mark-rule role-mark layer_5_marks" role="graphics-symbol" aria-roledescription="rule mark container" pointer-events="none"><line transform="translate(1628,292.10181818181815)" x2="-1628" y2="0" stroke="#d62728" stroke-width="1.5" stroke-dasharray="4,4"/><line transform="translate(1628,292.10181818181815)" x2="-1628" y2="0" stroke="#d62728" stroke-width="1.5" stroke-dasharray="4,4"/><line transform="translate(1628,292.10181818181815)" x2="-1628" y2="0" stroke="#d62728" stroke-width="1.5" stroke-dasharray="4,4"/><line transform="translate(1628,292.10181818181815)" x2="-1628" y2="0" stroke="#d62728" stroke-width="1.5" stroke-dasharray="4,4"/><line transform="translate(1628,292.10181818181815)" x2="-1628" y2="0" stroke="#d62728" stroke-width="1.5" stroke-dasharray="4,4"/><line transform="translate(1628,292.10181818181815)" x2="-1628" y2="0" stroke="#d62728" stroke-width="1.5" stroke-dasharray="4,4"/><line transform="translate(1628,292.10181818181815)" x2="-1628" y2="0" stroke="#d62728" stroke-width="1.5" stroke-dasharray="4,4"/><line transform="translate(1628,292.10181818181815)" x2="-1628" y2="0" stroke="#d62728" stroke-width="1.5" stroke-dasharray="4,4"/><line transform="translate(1628,292.10181818181815)" x2="-1628" y2="0" stroke="#d62728" stroke-width="1.5" stroke-dasharray="4,4"/><line transform="translate(1628,292.10181818181815)" x2="-1628" y2="0" stroke="#d62728" stroke-width="1.5" stroke-dasharray="4,4"/><line transform="translate(1628,292.10181818181815)" x2="-1628" y2="0" stroke="#d62728" stroke-width="1.5" stroke-dasharray="4,4"/><line transform="translate(1628,292.10181818181815)" x2="-1628" y2="0" stroke="#d62728" stroke-width="1.5" stroke-dasharray="4,4"/><line transform="translate(1628,292.10181818181815)" x2="-1628" y2="0" stroke="#d62728" stroke-width="1.5" stroke-dasharray="4,4"/><line transform="translate(1628,292.10181818181815)" x2="-1628" y2="0" stroke="#d62728" stroke-width="1.5" stroke-dasharray="4,4"/><line transform="translate(1628,292.10181818181815)" x2="-1628" y2="0" stroke="#d62728" stroke-width="1.5" stroke-dasharray="4,4"/><line transform="translate(1628,292.10181818181815)" x2="-1628" y2="0" stroke="#d62728" stroke-width="1.5" stroke-dasharray="4,4"/><line transform="translate(1628,292.10181818181815)" x2="-1628" y2="0" stroke="#d62728" stroke-width="1.5" stroke-dasharray="4,4"/><line transform="translate(1628,292.10181818181815)" x2="-1628" y2="0" stroke="#d62728" stroke-width="1.5" stroke-dasharray="4,4"/><line transform="translate(1628,292.10181818181815)" x2="-1628" y2="0" stroke="#d62728" stroke-width="1.5" stroke-dasharray="4,4"/><line transform="translate(1628,292.10181818181815)" x2="-1628" y2="0" stroke="#d62728" stroke-width="1.5" stroke-dasharray="4,4"/><line transform="translate(1628,292.10181818181815)" x2="-1628" y2="0" stroke="#d62728" stroke-width="1.5" stroke-dasharray="4,4"/><line transform="translate(1628,292.10181818181815)" x2="-1628" y2="0" stroke="#d62728" stroke-width="1.5" stroke-dasharray="4,4"/><line transform="translate(1628,292.10181818181815)" x2="-1628" y2="0" stroke="#d62728" stroke-width="1.5" stroke-dasharray="4,4"/><line transform="translate(1628,292.10181818181815)" x2="-1628" y2="0" stroke="#d62728" stroke-width="1.5" stroke-dasharray="4,4"/><line transform="translate(1628,292.10181818181815)" x2="-1628" y2="0" stroke="#d62728" stroke-width="1.5" stroke-dasharray="4,4"/><line transform="translate(1628,292.10181818181815)" x2="-1628" y2="0" stroke="#d62728" stroke-width="1.5" stroke-dasharray="4,4"/><line transform="translate(1628,292.10181818181815)" x2="-1628" y2="0" stroke="#d62728" stroke-width="1.5" stroke-dasharray="4,4"/><line transform="translate(1628,292.10181818181815)" x2="-1628" y2="0" stroke="#d62728" stroke-width="1.5" stroke-dasharray="4,4"/><line transform="translate(1628,292.10181818181815)" x2="-1628" y2="0" stroke="#d62728" stroke-width="1.5" stroke-dasharray="4,4"/><line transform="translate(1628,292.10181818181815)" x2="-1628" y2="0" stroke="#d62728" stroke-width="1.5" stroke-dasharray="4,4"/><line transform="translate(1628,292.10181818181815)" x2="-1628" y2="0" stroke="#d62728" stroke-width="1.5" stroke-dasharray="4,4"/><line transform="translate(1628,292.10181818181815)" x2="-1628" y2="0" stroke="#d62728" stroke-width="1.5" stroke-dasharray="4,4"/><line transform="translate(1628,292.10181818181815)" x2="-1628" y2="0" stroke="#d62728" stroke-width="1.5" stroke-dasharray="4,4"/><line transform="translate(1628,292.10181818181815)" x2="-1628" y2="0" stroke="#d62728" stroke-width="1.5" stroke-dasharray="4,4"/><line transform="translate(1628,292.10181818181815)" x2="-1628" y2="0" stroke="#d62728" stroke-width="1.5" stroke-dasharray="4,4"/><line transform="translate(1628,292.10181818181815)" x2="-1628" y2="0" stroke="#d62728" stroke-width="1.5" stroke-dasharray="4,4"/><line transform="translate(1628,292.10181818181815)" x2="-1628" y2="0" stroke="#d62728" stroke-width="1.5" stroke-dasharray="4,4"/><line transform="translate(1628,292.10181818181815)" x2="-1628" y2="0" stroke="#d62728" stroke-width="1.5" stroke-dasharray="4,4"/><line transform="translate(1628,292.10181818181815)" x2="-1628" y2="0" stroke="#d62728" stroke-width="1.5" stroke-dasharray="4,4"/><line transform="translate(1628,292.10181818181815)" x2="-1628" y2="0" stroke="#d62728" stroke-width="1.5" stroke-dasharray="4,4"/><line transform="translate(1628,292.10181818181815)" x2="-1628" y2="0" stroke="#d62728" stroke-width="1.5" stroke-dasharray="4,4"/><line transform="translate(1628,292.10181818181815)" x2="-1628" y2="0" stroke="#d62728" stroke-width="1.5" stroke-dasharray="4,4"/><line transform="translate(1628,292.10181818181815)" x2="-1628" y2="0" stroke="#d62728" stroke-width="1.5" stroke-dasharray="4,4"/></g><g class="mark-text role-mark layer_6_marks" role="graphics-object" aria-roledescription="text mark container" pointer-events="none"><text aria-label="date: Oct 20, 2025" role="graphics-symbol" aria-roledescription="text mark" text-anchor="start" transform="translate(1634,290.10181818181815)" font-family="sans-serif" font-size="12px" fill="#d62728">Avg: 21.53</text></g></g><path class="foreground" aria-hidden="true" d="" display="none"/></g></g></g></svg>
