<svg xmlns="http://www.w3.org/2000/svg" xmlns:xlink="http://www.w3.org/1999/xlink" version="1.1" class="marks" width="2043" height="573" viewBox="0 0 2043 573"><rect width="2043" height="573" fill="white"/><g fill="none" stroke-miterlimit="10" transform="translate(51,11)"><g class="mark-group role-frame root" role="graphics-object" aria-roledescription="group mark container"><g transform="translate(0,0)"><path class="background" aria-hidden="true" d="M0.5,0.5h1916v480h-1916Z"/><g><g class="mark-group role-axis" aria-hidden="true"><g transform="translate(0.5,0.5)"><path class="background" aria-hidden="true" d="M0,0h0v0h0Z" pointer-events="none"/><g><g class="mark-rule role-axis-grid" pointer-events="none"><line transform="translate(0,480)" x2="1916" y2="0" stroke="#ddd" stroke-width="1" opacity="1"/><line transform="translate(0,436)" x2="1916" y2="0" stroke="#ddd" stroke-width="1" opacity="1"/><line transform="translate(0,393)" x2="1916" y2="0" stroke="#ddd" stroke-width="1" opacity="1"/><line transform="translate(0,349)" x2="1916" y2="0" stroke="#ddd" stroke-width="1" opacity="1"/><line transform="translate(0,305)" x2="1916" y2="0" stroke="#ddd" stroke-width="1" opacity="1"/><line transform="translate(0,262)" x2="1916" y2="0" stroke="#ddd" stroke-width="1" opacity="1"/><line transform="translate(0,218)" x2="1916" y2="0" stroke="#ddd" stroke-width="1" opacity="1"/><line transform="translate(0,175)" x2="1916" y2="0" stroke="#ddd" stroke-width="1" opacity="1"/><line transform="translate(0,131)" x2="1916" y2="0" stroke="#ddd" stroke-width="1" opacity="1"/><line transform="translate(0,87)" x2="1916" y2="0" stroke="#ddd" stroke-width="1" opacity="1"/><line transform="translate(0,44)" x2="1916" y2="0" stroke="#ddd" stroke-width="1" opacity="1"/><line transform="translate(0,0)" x2="1916" y2="0" stroke="#ddd" stroke-width="1" opacity="1"/></g></g><path class="foreground" aria-hidden="true" d="" pointer-events="none" display="none"/></g></g><g class="mark-group role-axis" role="graphics-symbol" aria-roledescription="axis" aria-label="X-axis titled 'Date' for a time scale with values from 2025-09-08 to 2025-10-28"><g transform="translate(0.5,480.5)"><path class="background" aria-hidden="true" d="M0,0h0v0h0Z" pointer-events="none"/><g><g class="mark-rule role-axis-tick" pointer-events="none"><line transform="translate(0,0)" x2="0" y2="5" stroke="#bbb" stroke-width="1" opacity="1"/><line transform="translate(38,0)" x2="0" y2="5" stroke="#bbb" stroke-width="1" opacity="1"/><line transform="translate(77,0)" x2="0" y2="5" stroke="#bbb" stroke-width="1" opacity="1"/><line transform="translate(115,0)" x2="0" y2="5" stroke="#bbb" stroke-width="1" opacity="1"/><line transform="translate(153,0)" x2="0" y2="5" stroke="#bbb" stroke-width="1" opacity="1"/><line transform="translate(192,0)" x2="0" y2="5" stroke="#bbb" stroke-width="1" opacity="1"/><line transform="translate(230,0)" x2="0" y2="5" stroke="#bbb" stroke-width="1" opacity="1"/><line transform="translate(268,0)" x2="0" y2="5" stroke="#bbb" stroke-width="1" opacity="1"/><line transform="translate(307,0)" x2="0" y2="5" stroke="#bbb" stroke-width="1" opacity="1"/><line transform="translate(345,0)" x2="0" y2="5" stroke="#bbb" stroke-width="1" opacity="1"/><line transform="translate(383,0)" x2="0" y2="5" stroke="#bbb" stroke-width="1" opacity="1"/><line transform="translate(422,0)" x2="0" y2="5" stroke="#bbb" stroke-width="1" opacity="1"/><line transform="translate(460,0)" x2="0" y2="5" stroke="#bbb" stroke-width="1" opacity="1"/><line transform="translate(498,0)" x2="0" y2="5" stroke="#bbb" stroke-width="1" opacity="1"/><line transform="translate(536,0)" x2="0" y2="5" stroke="#bbb" stroke-width="1" opacity="1"/><line transform="translate(575,0)" x2="0" y2="5" stroke="#bbb" stroke-width="1" opacity="1"/><line transform="translate(613,0)" x2="0" y2="5" stroke="#bbb" stroke-width="1" opacity="1"/><line transform="translate(651,0)" x2="0" y2="5" stroke="#bbb" stroke-width="1" opacity="1"/><line transform="translate(690,0)" x2="0" y2="5" stroke="#bbb" stroke-width="1" opacity="1"/><line transform="translate(728,0)" x2="0" y2="5" stroke="#bbb" stroke-width="1" opacity="1"/><line transform="translate(766,0)" x2="0" y2="5" stroke="#bbb" stroke-width="1" opacity="1"/><line transform="translate(805,0)" x2="0" y2="5" stroke="#bbb" stroke-width="1" opacity="1"/><line transform="translate(843,0)" x2="0" y2="5" stroke="#bbb" stroke-width="1" opacity="1"/><line transform="translate(881,0)" x2="0" y2="5" stroke="#bbb" stroke-width="1" opacity="1"/><line transform="translate(920,0)" x2="0" y2="5" stroke="#bbb" stroke-width="1" opacity="1"/><line transform="translate(958,0)" x2="0" y2="5" stroke="#bbb" stroke-width="1" opacity="1"/><line transform="translate(996,0)" x2="0" y2="5" stroke="#bbb" stroke-width="1" opacity="1"/><line transform="translate(1035,0)" x2="0" y2="5" stroke="#bbb" stroke-width="1" opacity="1"/><line transform="translate(1073,0)" x2="0" y2="5" stroke="#bbb" stroke-width="1" opacity="1"/><line transform="translate(1111,0)" x2="0" y2="5" stroke="#bbb" stroke-width="1" opacity="1"/><line transform="translate(1150,0)" x2="0" y2="5" stroke="#bbb" stroke-width="1" opacity="1"/><line transform="translate(1188,0)" x2="0" y2="5" stroke="#bbb" stroke-width="1" opacity="1"/><line transform="translate(1226,0)" x2="0" y2="5" stroke="#bbb" stroke-width="1" opacity="1"/><line transform="translate(1265,0)" x2="0" y2="5" stroke="#bbb" stroke-width="1" opacity="1"/><line transform="translate(1303,0)" x2="0" y2="5" stroke="#bbb" stroke-width="1" opacity="1"/><line transform="translate(1341,0)" x2="0" y2="5" stroke="#bbb" stroke-width="1" opacity="1"/><line transform="translate(1380,0)" x2="0" y2="5" stroke="#bbb" stroke-width="1" opacity="1"/><line transform="translate(1418,0)" x2="0" y2="5" stroke="#bbb" stroke-width="1" opacity="1"/><line transform="translate(1456,0)" x2="0" y2="5" stroke="#bbb" stroke-width="1" opacity="1"/><line transform="translate(1494,0)" x2="0" y2="5" stroke="#bbb" stroke-width="1" opacity="1"/><line transform="translate(1533,0)" x2="0" y2="5" stroke="#bbb" stroke-width="1" opacity="1"/><line transform="translate(1571,0)" x2="0" y2="5" stroke="#bbb" stroke-width="1" opacity="1"/><line transform="translate(1609,0)" x2="0" y2="5" stroke="#bbb" stroke-width="1" opacity="1"/><line transform="translate(1648,0)" x2="0" y2="5" stroke="#bbb" stroke-width="1" opacity="1"/><line transform="translate(1686,0)" x2="0" y2="5" stroke="#bbb" stroke-width="1" opacity="1"/><line transform="translate(1724,0)" x2="0" y2="5" stroke="#bbb" stroke-width="1" opacity="1"/><line transform="translate(1763,0)" x2="0" y2="5" stroke="#bbb" stroke-width="1" opacity="1"/><line transform="translate(1801,0)" x2="0" y2="5" stroke="#bbb" stroke-width="1" opacity="1"/><line transform="translate(1839,0)" x2="0" y2="5" stroke="#bbb" stroke-width="1" opacity="1"/><line transform="translate(1878,0)" x2="0" y2="5" stroke="#bbb" stroke-width="1" opacity="1"/><line transform="translate(1916,0)" x2="0" y2="5" stroke="#bbb" stroke-width="1" opacity="1"/></g><g class="mark-text role-axis-label" pointer-events="none"><text text-anchor="end" transform="translate(0,7) rotate(315) translate(0,9)" font-family="Segoe UI" font-size="11px" fill="#000" opacity="1">2025-09-08</text><text text-anchor="end" transform="translate(38.32,7) rotate(315) translate(0,9)" font-family="Segoe UI" font-size="11px" fill="#000" opacity="0">2025-09-09</text><text text-anchor="end" transform="translate(76.64,7) rotate(315) translate(0,9)" font-family="Segoe UI" font-size="11px" fill="#000" opacity="1">2025-09-10</text><text text-anchor="end" transform="translate(114.96,7) rotate(315) translate(0,9)" font-family="Segoe UI" font-size="11px" fill="#000" opacity="0">2025-09-11</text><text text-anchor="end" transform="translate(153.28,7) rotate(315) translate(0,9)" font-family="Segoe UI" font-size="11px" fill="#000" opacity="1">2025-09-12</text><text text-anchor="end" transform="translate(191.60000000000002,7) rotate(315) translate(0,9)" font-family="Segoe UI" font-size="11px" fill="#000" opacity="0">2025-09-13</text><text text-anchor="end" transform="translate(229.92,7) rotate(315) translate(0,9)" font-family="Segoe UI" font-size="11px" fill="#000" opacity="1">2025-09-14</text><text text-anchor="end" transform="translate(268.24,7) rotate(315) translate(0,9)" font-family="Segoe UI" font-size="11px" fill="#000" opacity="0">2025-09-15</text><text text-anchor="end" transform="translate(306.56,7) rotate(315) translate(0,9)" font-family="Segoe UI" font-size="11px" fill="#000" opacity="1">2025-09-16</text><text text-anchor="end" transform="translate(344.88,7) rotate(315) translate(0,9)" font-family="Segoe UI" font-size="11px" fill="#000" opacity="0">2025-09-17</text><text text-anchor="end" transform="translate(383.20000000000005,7) rotate(315) translate(0,9)" font-family="Segoe UI" font-size="11px" fill="#000" opacity="1">2025-09-18</text><text text-anchor="end" transform="translate(421.52,7) rotate(315) translate(0,9)" font-family="Segoe UI" font-size="11px" fill="#000" opacity="0">2025-09-19</text><text text-anchor="end" transform="translate(459.84,7) rotate(315) translate(0,9)" font-family="Segoe UI" font-size="11px" fill="#000" opacity="1">2025-09-20</text><text text-anchor="end" transform="translate(498.16,7) rotate(315) translate(0,9)" font-family="Segoe UI" font-size="11px" fill="#000" opacity="0">2025-09-21</text><text text-anchor="end" transform="translate(536.48,7) rotate(315) translate(0,9)" font-family="Segoe UI" font-size="11px" fill="#000" opacity="1">2025-09-22</text><text text-anchor="end" transform="translate(574.8,7) rotate(315) translate(0,9)" font-family="Segoe UI" font-size="11px" fill="#000" opacity="0">2025-09-23</text><text text-anchor="end" transform="translate(613.12,7) rotate(315) translate(0,9)" font-family="Segoe UI" font-size="11px" fill="#000" opacity="1">2025-09-24</text><text text-anchor="end" transform="translate(651.44,7) rotate(315) translate(0,9)" font-family="Segoe UI" font-size="11px" fill="#000" opacity="0">2025-09-25</text><text text-anchor="end" transform="translate(689.76,7) rotate(315) translate(0,9)" font-family="Segoe UI" font-size="11px" fill="#000" opacity="1">2025-09-26</text><text text-anchor="end" transform="translate(728.08,7) rotate(315) translate(0,9)" font-family="Segoe UI" font-size="11px" fill="#000" opacity="0">2025-09-27</text><text text-anchor="end" transform="translate(766.4000000000001,7) rotate(315) translate(0,9)" font-family="Segoe UI" font-size="11px" fill="#000" opacity="1">2025-09-28</text><text text-anchor="end" transform="translate(804.7199999999999,7) rotate(315) translate(0,9)" font-family="Segoe UI" font-size="11px" fill="#000" opacity="0">2025-09-29</text><text text-anchor="end" transform="translate(843.04,7) rotate(315) translate(0,9)" font-family="Segoe UI" font-size="11px" fill="#000" opacity="1">2025-09-30</text><text text-anchor="end" transform="translate(881.36,7) rotate(315) translate(0,9)" font-family="Segoe UI" font-size="11px" fill="#000" opacity="0">2025-10-01</text><text text-anchor="end" transform="translate(919.68,7) rotate(315) translate(0,9)" font-family="Segoe UI" font-size="11px" fill="#000" opacity="1">2025-10-02</text><text text-anchor="end" transform="translate(958,7) rotate(315) translate(0,9)" font-family="Segoe UI" font-size="11px" fill="#000" opacity="0">2025-10-03</text><text text-anchor="end" transform="translate(996.32,7) rotate(315) translate(0,9)" font-family="Segoe UI" font-size="11px" fill="#000" opacity="1">2025-10-04</text><text text-anchor="end" transform="translate(1034.64,7) rotate(315) translate(0,9)" font-family="Segoe UI" font-size="11px" fill="#000" opacity="0">2025-10-05</text><text text-anchor="end" transform="translate(1072.96,7) rotate(315) translate(0,9)" font-family="Segoe UI" font-size="11px" fill="#000" opacity="1">2025-10-06</text><text text-anchor="end" transform="translate(1111.28,7) rotate(315) translate(0,9)" font-family="Segoe UI" font-size="11px" fill="#000" opacity="0">2025-10-07</text><text text-anchor="end" transform="translate(1149.6,7) rotate(315) translate(0,9)" font-family="Segoe UI" font-size="11px" fill="#000" opacity="1">2025-10-08</text><text text-anchor="end" transform="translate(1187.92,7) rotate(315) translate(0,9)" font-family="Segoe UI" font-size="11px" fill="#000" opacity="0">2025-10-09</text><text text-anchor="end" transform="translate(1226.24,7) rotate(315) translate(0,9)" font-family="Segoe UI" font-size="11px" fill="#000" opacity="1">2025-10-10</text><text text-anchor="end" transform="translate(1264.5600000000002,7) rotate(315) translate(0,9)" font-family="Segoe UI" font-size="11px" fill="#000" opacity="0">2025-10-11</text><text text-anchor="end" transform="translate(1302.88,7) rotate(315) translate(0,9)" font-family="Segoe UI" font-size="11px" fill="#000" opacity="1">2025-10-12</text><text text-anchor="end" transform="translate(1341.1999999999998,7) rotate(315) translate(0,9)" font-family="Segoe UI" font-size="11px" fill="#000" opacity="0">2025-10-13</text><text text-anchor="end" transform="translate(1379.52,7) rotate(315) translate(0,9)" font-family="Segoe UI" font-size="11px" fill="#000" opacity="1">2025-10-14</text><text text-anchor="end" transform="translate(1417.84,7) rotate(315) translate(0,9)" font-family="Segoe UI" font-size="11px" fill="#000" opacity="0">2025-10-15</text><text text-anchor="end" transform="translate(1456.16,7) rotate(315) translate(0,9)" font-family="Segoe UI" font-size="11px" fill="#000" opacity="1">2025-10-16</text><text text-anchor="end" transform="translate(1494.48,7) rotate(315) translate(0,9)" font-family="Segoe UI" font-size="11px" fill="#000" opacity="0">2025-10-17</text><text text-anchor="end" transform="translate(1532.8000000000002,7) rotate(315) translate(0,9)" font-family="Segoe UI" font-size="11px" fill="#000" opacity="1">2025-10-18</text><text text-anchor="end" transform="translate(1571.12,7) rotate(315) translate(0,9)" font-family="Segoe UI" font-size="11px" fill="#000" opacity="0">2025-10-19</text><text text-anchor="end" transform="translate(1609.4399999999998,7) rotate(315) translate(0,9)" font-family="Segoe UI" font-size="11px" fill="#000" opacity="1">2025-10-20</text><text text-anchor="end" transform="translate(1647.76,7) rotate(315) translate(0,9)" font-family="Segoe UI" font-size="11px" fill="#000" opacity="0">2025-10-21</text><text text-anchor="end" transform="translate(1686.08,7) rotate(315) translate(0,9)" font-family="Segoe UI" font-size="11px" fill="#000" opacity="1">2025-10-22</text><text text-anchor="end" transform="translate(1724.4,7) rotate(315) translate(0,9)" font-family="Segoe UI" font-size="11px" fill="#000" opacity="0">2025-10-23</text><text text-anchor="end" transform="translate(1762.72,7) rotate(315) translate(0,9)" font-family="Segoe UI" font-size="11px" fill="#000" opacity="1">2025-10-24</text><text text-anchor="end" transform="translate(1801.04,7) rotate(315) translate(0,9)" font-family="Segoe UI" font-size="11px" fill="#000" opacity="0">2025-10-25</text><text text-anchor="end" transform="translate(1839.36,7) rotate(315) translate(0,9)" font-family="Segoe UI" font-size="11px" fill="#000" opacity="1">2025-10-26</text><text text-anchor="end" transform="translate(1877.68,7) rotate(315) translate(0,9)" font-family="Segoe UI" font-size="11px" fill="#000" opacity="0">2025-10-27</text><text text-anchor="end" transform="translate(1916,7) rotate(315) translate(0,9)" font-family="Segoe UI" font-size="11px" fill="#000" opacity="1">2025-10-28</text></g><g class="mark-rule role-axis-domain" pointer-events="none"><line transform="translate(0,0)" x2="1916" y2="0" stroke="#888" stroke-width="1" opacity="1"/></g><g class="mark-text role-axis-title" pointer-events="none"><text text-anchor="middle" transform="translate(958,73.9777658717112)" font-family="Segoe UI" font-size="13px" font-weight="bold" fill="#000" opacity="1">Date</text></g></g><path class="foreground" aria-hidden="true" d="" pointer-events="none" display="none"/></g></g><g class="mark-group role-axis" role="graphics-symbol" aria-roledescription="axis" aria-label="Y-axis titled 'Unique server names' for a linear scale with values from 0 to 55"><g transform="translate(0.5,0.5)"><path class="background" aria-hidden="true" d="M0,0h0v0h0Z" pointer-events="none"/><g><g class="mark-rule role-axis-tick" pointer-events="none"><line transform="translate(0,480)" x2="-5" y2="0" stroke="#bbb" stroke-width="1" opacity="1"/><line transform="translate(0,436)" x2="-5" y2="0" stroke="#bbb" stroke-width="1" opacity="1"/><line transform="translate(0,393)" x2="-5" y2="0" stroke="#bbb" stroke-width="1" opacity="1"/><line transform="translate(0,349)" x2="-5" y2="0" stroke="#bbb" stroke-width="1" opacity="1"/><line transform="translate(0,305)" x2="-5" y2="0" stroke="#bbb" stroke-width="1" opacity="1"/><line transform="translate(0,262)" x2="-5" y2="0" stroke="#bbb" stroke-width="1" opacity="1"/><line transform="translate(0,218)" x2="-5" y2="0" stroke="#bbb" stroke-width="1" opacity="1"/><line transform="translate(0,175)" x2="-5" y2="0" stroke="#bbb" stroke-width="1" opacity="1"/><line transform="translate(0,131)" x2="-5" y2="0" stroke="#bbb" stroke-width="1" opacity="1"/><line transform="translate(0,87)" x2="-5" y2="0" stroke="#bbb" stroke-width="1" opacity="1"/><line transform="translate(0,44)" x2="-5" y2="0" stroke="#bbb" stroke-width="1" opacity="1"/><line transform="translate(0,0)" x2="-5" y2="0" stroke="#bbb" stroke-width="1" opacity="1"/></g><g class="mark-text role-axis-label" pointer-events="none"><text text-anchor="end" transform="translate(-7,483)" font-family="Segoe UI" font-size="11px" fill="#000" opacity="1">0</text><text text-anchor="end" transform="translate(-7,439.3636363636364)" font-family="Segoe UI" font-size="11px" fill="#000" opacity="1">5</text><text text-anchor="end" transform="translate(-7,395.7272727272727)" font-family="Segoe UI" font-size="11px" fill="#000" opacity="1">10</text><text text-anchor="end" transform="translate(-7,352.0909090909091)" font-family="Segoe UI" font-size="11px" fill="#000" opacity="1">15</text><text text-anchor="end" transform="translate(-7,308.45454545454544)" font-family="Segoe UI" font-size="11px" fill="#000" opacity="1">20</text><text text-anchor="end" transform="translate(-7,264.8181818181818)" font-family="Segoe UI" font-size="11px" fill="#000" opacity="1">25</text><text text-anchor="end" transform="translate(-7,221.1818181818182)" font-family="Segoe UI" font-size="11px" fill="#000" opacity="1">30</text><text text-anchor="end" transform="translate(-7,177.54545454545456)" font-family="Segoe UI" font-size="11px" fill="#000" opacity="1">35</text><text text-anchor="end" transform="translate(-7,133.9090909090909)" font-family="Segoe UI" font-size="11px" fill="#000" opacity="1">40</text><text text-anchor="end" transform="translate(-7,90.27272727272725)" font-family="Segoe UI" font-size="11px" fill="#000" opacity="1">45</text><text text-anchor="end" transform="translate(-7,46.636363636363654)" font-family="Segoe UI" font-size="11px" fill="#000" opacity="1">50</text><text text-anchor="end" transform="translate(-7,3)" font-family="Segoe UI" font-size="11px" fill="#000" opacity="1">55</text></g><g class="mark-rule role-axis-domain" pointer-events="none"><line transform="translate(0,480)" x2="0" y2="-480" stroke="#888" stroke-width="1" opacity="1"/></g><g class="mark-text role-axis-title" pointer-events="none"><text text-anchor="middle" transform="translate(-24.99609375,240) rotate(-90) translate(0,-3)" font-family="Segoe UI" font-size="13px" font-weight="bold" fill="#000" opacity="1">Unique server names</text></g></g><path class="foreground" aria-hidden="true" d="" pointer-events="none" display="none"/></g></g><g class="mark-area role-mark layer_0_marks" role="graphics-object" aria-roledescription="area mark container" pointer-events="none"><path aria-label="date: 2025-09-08; count: 1" role="graphics-symbol" aria-roledescription="area mark" d="M0,471.273C12.773,240,25.547,8.727,38.32,8.727C51.093,8.727,63.867,17.455,76.64,34.909C89.413,52.364,102.187,142.545,114.96,165.818C127.733,189.091,140.507,177.455,153.28,200.727C166.053,224,178.827,293.818,191.6,305.455C204.373,317.091,217.147,322.909,229.92,322.909C242.693,322.909,255.467,273.455,268.24,261.818C281.013,250.182,293.787,256,306.56,244.364C319.333,232.727,332.107,151.273,344.88,139.636C357.653,128,370.427,122.182,383.2,122.182C395.973,122.182,408.747,212.364,421.52,235.636C434.293,258.909,447.067,251.636,459.84,270.545C472.613,289.455,485.387,349.091,498.16,349.091C510.933,349.091,523.707,343.273,536.48,340.364C549.253,337.455,562.027,334.545,574.8,331.636C587.573,328.727,600.347,322.909,613.12,322.909C625.893,322.909,638.667,384,651.44,384C664.213,384,676.987,261.818,689.76,261.818C702.533,261.818,715.307,418.909,728.08,418.909C740.853,418.909,753.627,398.545,766.4,357.818C779.173,317.091,791.947,148.364,804.72,148.364C817.493,148.364,830.267,202.182,843.04,244.364C855.813,286.545,868.587,401.455,881.36,401.455C894.133,401.455,906.907,165.818,919.68,165.818C932.453,165.818,945.227,253.091,958,253.091C970.773,253.091,983.547,253.091,996.32,253.091C1009.093,253.091,1021.867,340.364,1034.64,340.364C1047.413,340.364,1060.187,327.273,1072.96,305.455C1085.733,283.636,1098.507,209.455,1111.28,209.455C1124.053,209.455,1136.827,229.818,1149.6,253.091C1162.373,276.364,1175.147,349.091,1187.92,349.091C1200.693,349.091,1213.467,314.182,1226.24,314.182C1239.013,314.182,1251.787,401.455,1264.56,401.455C1277.333,401.455,1290.107,349.091,1302.88,349.091C1315.653,349.091,1328.427,349.091,1341.2,349.091C1353.973,349.091,1366.747,366.545,1379.52,366.545C1392.293,366.545,1405.067,314.182,1417.84,314.182C1430.613,314.182,1443.387,330.182,1456.16,340.364C1468.933,350.545,1481.707,356.364,1494.48,375.273C1507.253,394.182,1520.027,453.818,1532.8,453.818C1545.573,453.818,1558.347,442.182,1571.12,427.636C1583.893,413.091,1596.667,366.545,1609.44,366.545C1622.213,366.545,1634.987,392.727,1647.76,392.727C1660.533,392.727,1673.307,331.636,1686.08,331.636C1698.853,331.636,1711.627,375.273,1724.4,375.273C1737.173,375.273,1749.947,370.909,1762.72,366.545C1775.493,362.182,1788.267,349.091,1801.04,349.091C1813.813,349.091,1826.587,392.727,1839.36,392.727C1852.133,392.727,1864.907,349.091,1877.68,349.091C1890.453,349.091,1903.227,353.455,1916,357.818L1916,480C1903.227,480,1890.453,480,1877.68,480C1864.907,480,1852.133,480,1839.36,480C1826.587,480,1813.813,480,1801.04,480C1788.267,480,1775.493,480,1762.72,480C1749.947,480,1737.173,480,1724.4,480C1711.627,480,1698.853,480,1686.08,480C1673.307,480,1660.533,480,1647.76,480C1634.987,480,1622.213,480,1609.44,480C1596.667,480,1583.893,480,1571.12,480C1558.347,480,1545.573,480,1532.8,480C1520.027,480,1507.253,480,1494.48,480C1481.707,480,1468.933,480,1456.16,480C1443.387,480,1430.613,480,1417.84,480C1405.067,480,1392.293,480,1379.52,480C1366.747,480,1353.973,480,1341.2,480C1328.427,480,1315.653,480,1302.88,480C1290.107,480,1277.333,480,1264.56,480C1251.787,480,1239.013,480,1226.24,480C1213.467,480,1200.693,480,1187.92,480C1175.147,480,1162.373,480,1149.6,480C1136.827,480,1124.053,480,1111.28,480C1098.507,480,1085.733,480,1072.96,480C1060.187,480,1047.413,480,1034.64,480C1021.867,480,1009.093,480,996.32,480C983.547,480,970.773,480,958,480C945.227,480,932.453,480,919.68,480C906.907,480,894.133,480,881.36,480C868.587,480,855.813,480,843.04,480C830.267,480,817.493,480,804.72,480C791.947,480,779.173,480,766.4,480C753.627,480,740.853,480,728.08,480C715.307,480,702.533,480,689.76,480C676.987,480,664.213,480,651.44,480C638.667,480,625.893,480,613.12,480C600.347,480,587.573,480,574.8,480C562.027,480,549.253,480,536.48,480C523.707,480,510.933,480,498.16,480C485.387,480,472.613,480,459.84,480C447.067,480,434.293,480,421.52,480C408.747,480,395.973,480,383.2,480C370.427,480,357.653,480,344.88,480C332.107,480,319.333,480,306.56,480C293.787,480,281.013,480,268.24,480C255.467,480,242.693,480,229.92,480C217.147,480,204.373,480,191.6,480C178.827,480,166.053,480,153.28,480C140.507,480,127.733,480,114.96,480C102.187,480,89.413,480,76.64,480C63.867,480,51.093,480,38.32,480C25.547,480,12.773,480,0,480Z" fill="#4e79a7" opacity="0.18"/></g><g class="mark-line role-mark layer_1_marks" role="graphics-object" aria-roledescription="line mark container" pointer-events="none"><path aria-label="date: Sep 08, 2025; count: 1" role="graphics-symbol" aria-roledescription="line mark" d="M0,471.273C12.773,240,25.547,8.727,38.32,8.727C51.093,8.727,63.867,17.455,76.64,34.909C89.413,52.364,102.187,142.545,114.96,165.818C127.733,189.091,140.507,177.455,153.28,200.727C166.053,224,178.827,293.818,191.6,305.455C204.373,317.091,217.147,322.909,229.92,322.909C242.693,322.909,255.467,273.455,268.24,261.818C281.013,250.182,293.787,256,306.56,244.364C319.333,232.727,332.107,151.273,344.88,139.636C357.653,128,370.427,122.182,383.2,122.182C395.973,122.182,408.747,212.364,421.52,235.636C434.293,258.909,447.067,251.636,459.84,270.545C472.613,289.455,485.387,349.091,498.16,349.091C510.933,349.091,523.707,343.273,536.48,340.364C549.253,337.455,562.027,334.545,574.8,331.636C587.573,328.727,600.347,322.909,613.12,322.909C625.893,322.909,638.667,384,651.44,384C664.213,384,676.987,261.818,689.76,261.818C702.533,261.818,715.307,418.909,728.08,418.909C740.853,418.909,753.627,398.545,766.4,357.818C779.173,317.091,791.947,148.364,804.72,148.364C817.493,148.364,830.267,202.182,843.04,244.364C855.813,286.545,868.587,401.455,881.36,401.455C894.133,401.455,906.907,165.818,919.68,165.818C932.453,165.818,945.227,253.091,958,253.091C970.773,253.091,983.547,253.091,996.32,253.091C1009.093,253.091,1021.867,340.364,1034.64,340.364C1047.413,340.364,1060.187,327.273,1072.96,305.455C1085.733,283.636,1098.507,209.455,1111.28,209.455C1124.053,209.455,1136.827,229.818,1149.6,253.091C1162.373,276.364,1175.147,349.091,1187.92,349.091C1200.693,349.091,1213.467,314.182,1226.24,314.182C1239.013,314.182,1251.787,401.455,1264.56,401.455C1277.333,401.455,1290.107,349.091,1302.88,349.091C1315.653,349.091,1328.427,349.091,1341.2,349.091C1353.973,349.091,1366.747,366.545,1379.52,366.545C1392.293,366.545,1405.067,314.182,1417.84,314.182C1430.613,314.182,1443.387,330.182,1456.16,340.364C1468.933,350.545,1481.707,356.364,1494.48,375.273C1507.253,394.182,1520.027,453.818,1532.8,453.818C1545.573,453.818,1558.347,442.182,1571.12,427.636C1583.893,413.091,1596.667,366.545,1609.44,366.545C1622.213,366.545,1634.987,392.727,1647.76,392.727C1660.533,392.727,1673.307,331.636,1686.08,331.636C1698.853,331.636,1711.627,375.273,1724.4,375.273C1737.173,375.273,1749.947,370.909,1762.72,366.545C1775.493,362.182,1788.267,349.091,1801.04,349.091C1813.813,349.091,1826.587,392.727,1839.36,392.727C1852.133,392.727,1864.907,349.091,1877.68,349.091C1890.453,349.091,1903.227,353.455,1916,357.818" stroke="#4e79a7" stroke-width="2"/></g><g class="mark-line role-mark layer_2_marks" role="graphics-object" aria-roledescription="line mark container" pointer-events="none"><path aria-label="date: Sep 08, 2025; ma7: 1" role="graphics-symbol" aria-roledescription="line mark" d="M0,471.273C12.773,378.424,25.547,285.576,38.32,240C51.093,194.424,63.867,172.606,76.64,171.636C89.413,170.667,102.187,170.182,114.96,170.182C127.733,170.182,140.507,172.218,153.28,176.291C166.053,180.364,178.827,191.252,191.6,197.818C204.373,204.384,217.147,215.688,229.92,215.688C242.693,215.688,255.467,185.766,268.24,185.766C281.013,185.766,293.787,211.325,306.56,219.429C319.333,227.532,332.107,234.39,344.88,234.39C357.653,234.39,370.427,228.156,383.2,228.156C395.973,228.156,408.747,233.143,421.52,233.143C434.293,233.143,447.067,228.156,459.84,228.156C472.613,228.156,485.387,229.403,498.16,231.896C510.933,234.39,523.707,239.169,536.48,243.117C549.253,247.065,562.027,249.143,574.8,255.584C587.573,262.026,600.347,271.169,613.12,281.766C625.893,292.364,638.667,316.675,651.44,319.169C664.213,321.662,676.987,320.416,689.76,322.909C702.533,325.403,715.307,343.273,728.08,344.104C740.853,344.935,753.627,345.351,766.4,345.351C779.173,345.351,791.947,324.571,804.72,317.922C817.493,311.273,830.267,305.455,843.04,305.455C855.813,305.455,868.587,316.675,881.36,316.675C894.133,316.675,906.907,286.338,919.68,285.506C932.453,284.675,945.227,285.091,958,284.26C970.773,283.429,983.547,262.234,996.32,260.571C1009.093,258.909,1021.867,258.078,1034.64,258.078C1047.413,258.078,1060.187,280.519,1072.96,280.519C1085.733,280.519,1098.507,278.857,1111.28,275.532C1124.053,272.208,1136.827,254.338,1149.6,254.338C1162.373,254.338,1175.147,274.701,1187.92,280.519C1200.693,286.338,1213.467,284.26,1226.24,289.247C1239.013,294.234,1251.787,309.61,1264.56,310.442C1277.333,311.273,1290.107,310.857,1302.88,311.688C1315.653,312.519,1328.427,313.766,1341.2,317.922C1353.973,322.078,1366.747,335.169,1379.52,340.364C1392.293,345.558,1405.067,349.091,1417.84,349.091C1430.613,349.091,1443.387,347.844,1456.16,347.844C1468.933,347.844,1481.707,353.87,1494.48,356.571C1507.253,359.273,1520.027,360.935,1532.8,364.052C1545.573,367.169,1558.347,373.61,1571.12,375.273C1583.893,376.935,1596.667,376.727,1609.44,377.766C1622.213,378.805,1634.987,380.468,1647.76,381.506C1660.533,382.545,1673.307,382.753,1686.08,384C1698.853,385.247,1711.627,388.987,1724.4,388.987C1737.173,388.987,1749.947,388.571,1762.72,387.74C1775.493,386.909,1788.267,376.104,1801.04,372.779C1813.813,369.455,1826.587,369.039,1839.36,367.792C1852.133,366.545,1864.907,366.545,1877.68,365.299C1890.453,364.052,1903.227,362.182,1916,360.312" stroke="#d62728" stroke-width="2" stroke-dasharray="6,4"/></g><g class="mark-symbol role-mark layer_3_marks" role="graphics-object" aria-roledescription="symbol mark container"><path aria-label="date: Sep 08, 2025; count: 1; Date: Sep 08, 2025; Daily unique: 1; 7d avg: 1" role="graphics-symbol" aria-roledescription="point" transform="translate(0,471.27272727272725)" d="M3.536,0A3.536,3.536,0,1,1,-3.536,0A3.536,3.536,0,1,1,3.536,0" fill="#4e79a7" stroke-width="2" opacity="0.55"/><path aria-label="date: Sep 09, 2025; count: 54; Date: Sep 09, 2025; Daily unique: 54; 7d avg: 27.5" role="graphics-symbol" aria-roledescription="point" transform="translate(38.32,8.72727272727273)" d="M3.536,0A3.536,3.536,0,1,1,-3.536,0A3.536,3.536,0,1,1,3.536,0" fill="#4e79a7" stroke-width="2" opacity="0.55"/><path aria-label="date: Sep 10, 2025; count: 51; Date: Sep 10, 2025; Daily unique: 51; 7d avg: 35.3333333333" role="graphics-symbol" aria-roledescription="point" transform="translate(76.64,34.90909090909092)" d="M3.536,0A3.536,3.536,0,1,1,-3.536,0A3.536,3.536,0,1,1,3.536,0" fill="#4e79a7" stroke-width="2" opacity="0.55"/><path aria-label="date: Sep 11, 2025; count: 36; Date: Sep 11, 2025; Daily unique: 36; 7d avg: 35.5" role="graphics-symbol" aria-roledescription="point" transform="translate(114.96,165.8181818181818)" d="M3.536,0A3.536,3.536,0,1,1,-3.536,0A3.536,3.536,0,1,1,3.536,0" fill="#4e79a7" stroke-width="2" opacity="0.55"/><path aria-label="date: Sep 12, 2025; count: 32; Date: Sep 12, 2025; Daily unique: 32; 7d avg: 34.8" role="graphics-symbol" aria-roledescription="point" transform="translate(153.28,200.72727272727275)" d="M3.536,0A3.536,3.536,0,1,1,-3.536,0A3.536,3.536,0,1,1,3.536,0" fill="#4e79a7" stroke-width="2" opacity="0.55"/><path aria-label="date: Sep 13, 2025; count: 20; Date: Sep 13, 2025; Daily unique: 20; 7d avg: 32.3333333333" role="graphics-symbol" aria-roledescription="point" transform="translate(191.60000000000002,305.45454545454544)" d="M3.536,0A3.536,3.536,0,1,1,-3.536,0A3.536,3.536,0,1,1,3.536,0" fill="#4e79a7" stroke-width="2" opacity="0.55"/><path aria-label="date: Sep 14, 2025; count: 18; Date: Sep 14, 2025; Daily unique: 18; 7d avg: 30.2857142857" role="graphics-symbol" aria-roledescription="point" transform="translate(229.92,322.90909090909093)" d="M3.536,0A3.536,3.536,0,1,1,-3.536,0A3.536,3.536,0,1,1,3.536,0" fill="#4e79a7" stroke-width="2" opacity="0.55"/><path aria-label="date: Sep 15, 2025; count: 25; Date: Sep 15, 2025; Daily unique: 25; 7d avg: 33.7142857143" role="graphics-symbol" aria-roledescription="point" transform="translate(268.24,261.8181818181818)" d="M3.536,0A3.536,3.536,0,1,1,-3.536,0A3.536,3.536,0,1,1,3.536,0" fill="#4e79a7" stroke-width="2" opacity="0.55"/><path aria-label="date: Sep 16, 2025; count: 27; Date: Sep 16, 2025; Daily unique: 27; 7d avg: 29.8571428571" role="graphics-symbol" aria-roledescription="point" transform="translate(306.56,244.36363636363635)" d="M3.536,0A3.536,3.536,0,1,1,-3.536,0A3.536,3.536,0,1,1,3.536,0" fill="#4e79a7" stroke-width="2" opacity="0.55"/><path aria-label="date: Sep 17, 2025; count: 39; Date: Sep 17, 2025; Daily unique: 39; 7d avg: 28.1428571429" role="graphics-symbol" aria-roledescription="point" transform="translate(344.88,139.63636363636363)" d="M3.536,0A3.536,3.536,0,1,1,-3.536,0A3.536,3.536,0,1,1,3.536,0" fill="#4e79a7" stroke-width="2" opacity="0.55"/><path aria-label="date: Sep 18, 2025; count: 41; Date: Sep 18, 2025; Daily unique: 41; 7d avg: 28.8571428571" role="graphics-symbol" aria-roledescription="point" transform="translate(383.20000000000005,122.18181818181817)" d="M3.536,0A3.536,3.536,0,1,1,-3.536,0A3.536,3.536,0,1,1,3.536,0" fill="#4e79a7" stroke-width="2" opacity="0.55"/><path aria-label="date: Sep 19, 2025; count: 28; Date: Sep 19, 2025; Daily unique: 28; 7d avg: 28.2857142857" role="graphics-symbol" aria-roledescription="point" transform="translate(421.52,235.63636363636365)" d="M3.536,0A3.536,3.536,0,1,1,-3.536,0A3.536,3.536,0,1,1,3.536,0" fill="#4e79a7" stroke-width="2" opacity="0.55"/><path aria-label="date: Sep 20, 2025; count: 24; Date: Sep 20, 2025; Daily unique: 24; 7d avg: 28.8571428571" role="graphics-symbol" aria-roledescription="point" transform="translate(459.84,270.54545454545456)" d="M3.536,0A3.536,3.536,0,1,1,-3.536,0A3.536,3.536,0,1,1,3.536,0" fill="#4e79a7" stroke-width="2" opacity="0.55"/><path aria-label="date: Sep 21, 2025; count: 15; Date: Sep 21, 2025; Daily unique: 15; 7d avg: 28.4285714286" role="graphics-symbol" aria-roledescription="point" transform="translate(498.16,349.0909090909091)" d="M3.536,0A3.536,3.536,0,1,1,-3.536,0A3.536,3.536,0,1,1,3.536,0" fill="#4e79a7" stroke-width="2" opacity="0.55"/><path aria-label="date: Sep 22, 2025; count: 16; Date: Sep 22, 2025; Daily unique: 16; 7d avg: 27.1428571429" role="graphics-symbol" aria-roledescription="point" transform="translate(536.48,340.3636363636364)" d="M3.536,0A3.536,3.536,0,1,1,-3.536,0A3.536,3.536,0,1,1,3.536,0" fill="#4e79a7" stroke-width="2" opacity="0.55"/><path aria-label="date: Sep 23, 2025; count: 17; Date: Sep 23, 2025; Daily unique: 17; 7d avg: 25.7142857143" role="graphics-symbol" aria-roledescription="point" transform="translate(574.8,331.6363636363636)" d="M3.536,0A3.536,3.536,0,1,1,-3.536,0A3.536,3.536,0,1,1,3.536,0" fill="#4e79a7" stroke-width="2" opacity="0.55"/><path aria-label="date: Sep 24, 2025; count: 18; Date: Sep 24, 2025; Daily unique: 18; 7d avg: 22.7142857143" role="graphics-symbol" aria-roledescription="point" transform="translate(613.12,322.90909090909093)" d="M3.536,0A3.536,3.536,0,1,1,-3.536,0A3.536,3.536,0,1,1,3.536,0" fill="#4e79a7" stroke-width="2" opacity="0.55"/><path aria-label="date: Sep 25, 2025; count: 11; Date: Sep 25, 2025; Daily unique: 11; 7d avg: 18.4285714286" role="graphics-symbol" aria-roledescription="point" transform="translate(651.44,384)" d="M3.536,0A3.536,3.536,0,1,1,-3.536,0A3.536,3.536,0,1,1,3.536,0" fill="#4e79a7" stroke-width="2" opacity="0.55"/><path aria-label="date: Sep 26, 2025; count: 25; Date: Sep 26, 2025; Daily unique: 25; 7d avg: 18" role="graphics-symbol" aria-roledescription="point" transform="translate(689.76,261.8181818181818)" d="M3.536,0A3.536,3.536,0,1,1,-3.536,0A3.536,3.536,0,1,1,3.536,0" fill="#4e79a7" stroke-width="2" opacity="0.55"/><path aria-label="date: Sep 27, 2025; count: 7; Date: Sep 27, 2025; Daily unique: 7; 7d avg: 15.5714285714" role="graphics-symbol" aria-roledescription="point" transform="translate(728.08,418.90909090909093)" d="M3.536,0A3.536,3.536,0,1,1,-3.536,0A3.536,3.536,0,1,1,3.536,0" fill="#4e79a7" stroke-width="2" opacity="0.55"/><path aria-label="date: Sep 28, 2025; count: 14; Date: Sep 28, 2025; Daily unique: 14; 7d avg: 15.4285714286" role="graphics-symbol" aria-roledescription="point" transform="translate(766.4000000000001,357.8181818181818)" d="M3.536,0A3.536,3.536,0,1,1,-3.536,0A3.536,3.536,0,1,1,3.536,0" fill="#4e79a7" stroke-width="2" opacity="0.55"/><path aria-label="date: Sep 29, 2025; count: 38; Date: Sep 29, 2025; Daily unique: 38; 7d avg: 18.5714285714" role="graphics-symbol" aria-roledescription="point" transform="translate(804.7199999999999,148.36363636363637)" d="M3.536,0A3.536,3.536,0,1,1,-3.536,0A3.536,3.536,0,1,1,3.536,0" fill="#4e79a7" stroke-width="2" opacity="0.55"/><path aria-label="date: Sep 30, 2025; count: 27; Date: Sep 30, 2025; Daily unique: 27; 7d avg: 20" role="graphics-symbol" aria-roledescription="point" transform="translate(843.04,244.36363636363635)" d="M3.536,0A3.536,3.536,0,1,1,-3.536,0A3.536,3.536,0,1,1,3.536,0" fill="#4e79a7" stroke-width="2" opacity="0.55"/><path aria-label="date: Oct 01, 2025; count: 9; Date: Oct 01, 2025; Daily unique: 9; 7d avg: 18.7142857143" role="graphics-symbol" aria-roledescription="point" transform="translate(881.36,401.4545454545455)" d="M3.536,0A3.536,3.536,0,1,1,-3.536,0A3.536,3.536,0,1,1,3.536,0" fill="#4e79a7" stroke-width="2" opacity="0.55"/><path aria-label="date: Oct 02, 2025; count: 36; Date: Oct 02, 2025; Daily unique: 36; 7d avg: 22.2857142857" role="graphics-symbol" aria-roledescription="point" transform="translate(919.68,165.8181818181818)" d="M3.536,0A3.536,3.536,0,1,1,-3.536,0A3.536,3.536,0,1,1,3.536,0" fill="#4e79a7" stroke-width="2" opacity="0.55"/><path aria-label="date: Oct 03, 2025; count: 26; Date: Oct 03, 2025; Daily unique: 26; 7d avg: 22.4285714286" role="graphics-symbol" aria-roledescription="point" transform="translate(958,253.09090909090912)" d="M3.536,0A3.536,3.536,0,1,1,-3.536,0A3.536,3.536,0,1,1,3.536,0" fill="#4e79a7" stroke-width="2" opacity="0.55"/><path aria-label="date: Oct 04, 2025; count: 26; Date: Oct 04, 2025; Daily unique: 26; 7d avg: 25.1428571429" role="graphics-symbol" aria-roledescription="point" transform="translate(996.32,253.09090909090912)" d="M3.536,0A3.536,3.536,0,1,1,-3.536,0A3.536,3.536,0,1,1,3.536,0" fill="#4e79a7" stroke-width="2" opacity="0.55"/><path aria-label="date: Oct 05, 2025; count: 16; Date: Oct 05, 2025; Daily unique: 16; 7d avg: 25.4285714286" role="graphics-symbol" aria-roledescription="point" transform="translate(1034.64,340.3636363636364)" d="M3.536,0A3.536,3.536,0,1,1,-3.536,0A3.536,3.536,0,1,1,3.536,0" fill="#4e79a7" stroke-width="2" opacity="0.55"/><path aria-label="date: Oct 06, 2025; count: 20; Date: Oct 06, 2025; Daily unique: 20; 7d avg: 22.8571428571" role="graphics-symbol" aria-roledescription="point" transform="translate(1072.96,305.45454545454544)" d="M3.536,0A3.536,3.536,0,1,1,-3.536,0A3.536,3.536,0,1,1,3.536,0" fill="#4e79a7" stroke-width="2" opacity="0.55"/><path aria-label="date: Oct 07, 2025; count: 31; Date: Oct 07, 2025; Daily unique: 31; 7d avg: 23.4285714286" role="graphics-symbol" aria-roledescription="point" transform="translate(1111.28,209.45454545454547)" d="M3.536,0A3.536,3.536,0,1,1,-3.536,0A3.536,3.536,0,1,1,3.536,0" fill="#4e79a7" stroke-width="2" opacity="0.55"/><path aria-label="date: Oct 08, 2025; count: 26; Date: Oct 08, 2025; Daily unique: 26; 7d avg: 25.8571428571" role="graphics-symbol" aria-roledescription="point" transform="translate(1149.6,253.09090909090912)" d="M3.536,0A3.536,3.536,0,1,1,-3.536,0A3.536,3.536,0,1,1,3.536,0" fill="#4e79a7" stroke-width="2" opacity="0.55"/><path aria-label="date: Oct 09, 2025; count: 15; Date: Oct 09, 2025; Daily unique: 15; 7d avg: 22.8571428571" role="graphics-symbol" aria-roledescription="point" transform="translate(1187.92,349.0909090909091)" d="M3.536,0A3.536,3.536,0,1,1,-3.536,0A3.536,3.536,0,1,1,3.536,0" fill="#4e79a7" stroke-width="2" opacity="0.55"/><path aria-label="date: Oct 10, 2025; count: 19; Date: Oct 10, 2025; Daily unique: 19; 7d avg: 21.8571428571" role="graphics-symbol" aria-roledescription="point" transform="translate(1226.24,314.1818181818182)" d="M3.536,0A3.536,3.536,0,1,1,-3.536,0A3.536,3.536,0,1,1,3.536,0" fill="#4e79a7" stroke-width="2" opacity="0.55"/><path aria-label="date: Oct 11, 2025; count: 9; Date: Oct 11, 2025; Daily unique: 9; 7d avg: 19.4285714286" role="graphics-symbol" aria-roledescription="point" transform="translate(1264.5600000000002,401.4545454545455)" d="M3.536,0A3.536,3.536,0,1,1,-3.536,0A3.536,3.536,0,1,1,3.536,0" fill="#4e79a7" stroke-width="2" opacity="0.55"/><path aria-label="date: Oct 12, 2025; count: 15; Date: Oct 12, 2025; Daily unique: 15; 7d avg: 19.2857142857" role="graphics-symbol" aria-roledescription="point" transform="translate(1302.88,349.0909090909091)" d="M3.536,0A3.536,3.536,0,1,1,-3.536,0A3.536,3.536,0,1,1,3.536,0" fill="#4e79a7" stroke-width="2" opacity="0.55"/><path aria-label="date: Oct 13, 2025; count: 15; Date: Oct 13, 2025; Daily unique: 15; 7d avg: 18.5714285714" role="graphics-symbol" aria-roledescription="point" transform="translate(1341.1999999999998,349.0909090909091)" d="M3.536,0A3.536,3.536,0,1,1,-3.536,0A3.536,3.536,0,1,1,3.536,0" fill="#4e79a7" stroke-width="2" opacity="0.55"/><path aria-label="date: Oct 14, 2025; count: 13; Date: Oct 14, 2025; Daily unique: 13; 7d avg: 16" role="graphics-symbol" aria-roledescription="point" transform="translate(1379.52,366.54545454545456)" d="M3.536,0A3.536,3.536,0,1,1,-3.536,0A3.536,3.536,0,1,1,3.536,0" fill="#4e79a7" stroke-width="2" opacity="0.55"/><path aria-label="date: Oct 15, 2025; count: 19; Date: Oct 15, 2025; Daily unique: 19; 7d avg: 15" role="graphics-symbol" aria-roledescription="point" transform="translate(1417.84,314.1818181818182)" d="M3.536,0A3.536,3.536,0,1,1,-3.536,0A3.536,3.536,0,1,1,3.536,0" fill="#4e79a7" stroke-width="2" opacity="0.55"/><path aria-label="date: Oct 16, 2025; count: 16; Date: Oct 16, 2025; Daily unique: 16; 7d avg: 15.1428571429" role="graphics-symbol" aria-roledescription="point" transform="translate(1456.16,340.3636363636364)" d="M3.536,0A3.536,3.536,0,1,1,-3.536,0A3.536,3.536,0,1,1,3.536,0" fill="#4e79a7" stroke-width="2" opacity="0.55"/><path aria-label="date: Oct 17, 2025; count: 12; Date: Oct 17, 2025; Daily unique: 12; 7d avg: 14.1428571429" role="graphics-symbol" aria-roledescription="point" transform="translate(1494.48,375.2727272727273)" d="M3.536,0A3.536,3.536,0,1,1,-3.536,0A3.536,3.536,0,1,1,3.536,0" fill="#4e79a7" stroke-width="2" opacity="0.55"/><path aria-label="date: Oct 18, 2025; count: 3; Date: Oct 18, 2025; Daily unique: 3; 7d avg: 13.2857142857" role="graphics-symbol" aria-roledescription="point" transform="translate(1532.8000000000002,453.8181818181818)" d="M3.536,0A3.536,3.536,0,1,1,-3.536,0A3.536,3.536,0,1,1,3.536,0" fill="#4e79a7" stroke-width="2" opacity="0.55"/><path aria-label="date: Oct 19, 2025; count: 6; Date: Oct 19, 2025; Daily unique: 6; 7d avg: 12" role="graphics-symbol" aria-roledescription="point" transform="translate(1571.12,427.6363636363636)" d="M3.536,0A3.536,3.536,0,1,1,-3.536,0A3.536,3.536,0,1,1,3.536,0" fill="#4e79a7" stroke-width="2" opacity="0.55"/><path aria-label="date: Oct 20, 2025; count: 13; Date: Oct 20, 2025; Daily unique: 13; 7d avg: 11.7142857143" role="graphics-symbol" aria-roledescription="point" transform="translate(1609.4399999999998,366.54545454545456)" d="M3.536,0A3.536,3.536,0,1,1,-3.536,0A3.536,3.536,0,1,1,3.536,0" fill="#4e79a7" stroke-width="2" opacity="0.55"/><path aria-label="date: Oct 21, 2025; count: 10; Date: Oct 21, 2025; Daily unique: 10; 7d avg: 11.2857142857" role="graphics-symbol" aria-roledescription="point" transform="translate(1647.76,392.7272727272727)" d="M3.536,0A3.536,3.536,0,1,1,-3.536,0A3.536,3.536,0,1,1,3.536,0" fill="#4e79a7" stroke-width="2" opacity="0.55"/><path aria-label="date: Oct 22, 2025; count: 17; Date: Oct 22, 2025; Daily unique: 17; 7d avg: 11" role="graphics-symbol" aria-roledescription="point" transform="translate(1686.08,331.6363636363636)" d="M3.536,0A3.536,3.536,0,1,1,-3.536,0A3.536,3.536,0,1,1,3.536,0" fill="#4e79a7" stroke-width="2" opacity="0.55"/><path aria-label="date: Oct 23, 2025; count: 12; Date: Oct 23, 2025; Daily unique: 12; 7d avg: 10.4285714286" role="graphics-symbol" aria-roledescription="point" transform="translate(1724.4,375.2727272727273)" d="M3.536,0A3.536,3.536,0,1,1,-3.536,0A3.536,3.536,0,1,1,3.536,0" fill="#4e79a7" stroke-width="2" opacity="0.55"/><path aria-label="date: Oct 24, 2025; count: 13; Date: Oct 24, 2025; Daily unique: 13; 7d avg: 10.5714285714" role="graphics-symbol" aria-roledescription="point" transform="translate(1762.72,366.54545454545456)" d="M3.536,0A3.536,3.536,0,1,1,-3.536,0A3.536,3.536,0,1,1,3.536,0" fill="#4e79a7" stroke-width="2" opacity="0.55"/><path aria-label="date: Oct 25, 2025; count: 15; Date: Oct 25, 2025; Daily unique: 15; 7d avg: 12.2857142857" role="graphics-symbol" aria-roledescription="point" transform="translate(1801.04,349.0909090909091)" d="M3.536,0A3.536,3.536,0,1,1,-3.536,0A3.536,3.536,0,1,1,3.536,0" fill="#4e79a7" stroke-width="2" opacity="0.55"/><path aria-label="date: Oct 26, 2025; count: 10; Date: Oct 26, 2025; Daily unique: 10; 7d avg: 12.8571428571" role="graphics-symbol" aria-roledescription="point" transform="translate(1839.36,392.7272727272727)" d="M3.536,0A3.536,3.536,0,1,1,-3.536,0A3.536,3.536,0,1,1,3.536,0" fill="#4e79a7" stroke-width="2" opacity="0.55"/><path aria-label="date: Oct 27, 2025; count: 15; Date: Oct 27, 2025; Daily unique: 15; 7d avg: 13.1428571429" role="graphics-symbol" aria-roledescription="point" transform="translate(1877.68,349.0909090909091)" d="M3.536,0A3.536,3.536,0,1,1,-3.536,0A3.536,3.536,0,1,1,3.536,0" fill="#4e79a7" stroke-width="2" opacity="0.55"/><path aria-label="date: Oct 28, 2025; count: 14; Date: Oct 28, 2025; Daily unique: 14; 7d avg: 13.7142857143" role="graphics-symbol" aria-roledescription="point" transform="translate(1916,357.8181818181818)" d="M3.536,0A3.536,3.536,0,1,1,-3.536,0A3.536,3.536,0,1,1,3.536,0" fill="#4e79a7" stroke-width="2" opacity="0.55"/></g><g class="mark-path role-mark layer_3_voronoi" aria-hidden="true"><path transform="translate(0,0)" d="M0,296.912445974026L22.783874602479386,305.48731992263055L25.318220636543458,306.92317683160724L148.9807360613417,449.81304388714716L168.45988785175726,480L0,480Z" stroke-width="0.35"/><path transform="translate(0,0)" d="M72.3870894942977,0L0,105.94654848484846L0,0Z" stroke-width="0.35"/><path transform="translate(0,0)" d="M244.8333474155376,0L219.82306213123962,64.05933000977518L0,128.40642525252525L0,105.94654848484846L72.3870894942977,0Z" stroke-width="0.35"/><path transform="translate(0,0)" d="M222.36739633955807,86.40282491582495L22.783874602479386,305.48731992263055L0,296.912445974026L0,128.40642525252525L219.82306213123962,64.05933000977518Z" stroke-width="0.35"/><path transform="translate(0,0)" d="M246.67642941230332,163.68570349650358L205.616603246885,240.95149780564262L25.318220636543458,306.92317683160724L22.783874602479386,305.48731992263055L222.36739633955807,86.40282491582495L246.833179355478,163.13509319611205Z" stroke-width="0.35"/><path transform="translate(0,0)" d="M227.00515751556182,278.51692861952864L148.9807360613417,449.81304388714716L25.318220636543458,306.92317683160724L205.616603246885,240.95149780564262Z" stroke-width="0.35"/><path transform="translate(0,0)" d="M360.37613236343236,373.537341677646L349.9847441910908,480L168.45988785175726,480L148.9807360613417,449.81304388714716L227.00515751556182,278.51692861952864L327.77191035042017,341.724073939394Z" stroke-width="0.35"/><path transform="translate(0,0)" d="M246.67642941230332,163.68570349650358L327.77191035042017,341.724073939394L227.00515751556182,278.51692861952864L205.616603246885,240.95149780564262Z" stroke-width="0.35"/><path transform="translate(0,0)" d="M364.7335414219142,365.5654012855832L360.37613236343236,373.537341677646L327.77191035042017,341.724073939394L246.67642941230332,163.68570349650358L246.833179355478,163.13509319611205L361.386788927148,205.05057714285712L370.85274396887985,329.74086993006995Z" stroke-width="0.35"/><path transform="translate(0,0)" d="M304.4116420228093,0L388.0979004238628,183.72620646464645L361.386788927148,205.05057714285712L246.833179355478,163.13509319611205L222.36739633955807,86.40282491582495L219.82306213123962,64.05933000977518L244.8333474155376,0Z" stroke-width="0.35"/><path transform="translate(0,0)" d="M555.3249415774751,127.2442013468015L388.0979004238628,183.72620646464645L304.4116420228093,0L602.3621777149677,0L598.9559544541921,54.83924832535895L569.2531228574044,120.04933986013994Z" stroke-width="0.35"/><path transform="translate(0,0)" d="M555.3249415774751,127.2442013468015L370.85274396887985,329.74086993006995L361.386788927148,205.05057714285712L388.0979004238628,183.72620646464645Z" stroke-width="0.35"/><path transform="translate(0,0)" d="M566.7940149415967,207.99141454545432L538.5786865887954,261.0866163636364L506.3325970427371,296.4834175757576L364.7335414219142,365.5654012855832L370.85274396887985,329.74086993006995L555.3249415774751,127.2442013468015L569.2531228574044,120.04933986013994L572.0114962646009,192.7186872727273Z" stroke-width="0.35"/><path transform="translate(0,0)" d="M506.3325970427371,296.4834175757576L548.127984954882,480L349.9847441910908,480L360.37613236343236,373.537341677646L364.7335414219142,365.5654012855832Z" stroke-width="0.35"/><path transform="translate(0,0)" d="M538.5786865887954,261.0866163636364L573.7367723735745,415.45991136363637L549.238731517107,480L548.127984954882,480L506.3325970427371,296.4834175757576Z" stroke-width="0.35"/><path transform="translate(0,0)" d="M566.7940149415967,207.99141454545432L603.9674813230041,371.21390984848495L573.7367723735745,415.45991136363637L538.5786865887954,261.0866163636364Z" stroke-width="0.35"/><path transform="translate(0,0)" d="M677.5176615653594,325.0786836940837L603.9674813230041,371.21390984848495L566.7940149415967,207.99141454545432L572.0114962646009,192.7186872727273Z" stroke-width="0.35"/><path transform="translate(0,0)" d="M707.1710945093371,363.2299383838384L653.9829852136854,480L549.238731517107,480L573.7367723735745,415.45991136363637L603.9674813230041,371.21390984848495L677.5176615653594,325.0786836940837L700.0949139378367,332.15960885780885Z" stroke-width="0.35"/><path transform="translate(0,0)" d="M769.1280938824572,277.0481202020202L700.0949139378367,332.15960885780885L677.5176615653594,325.0786836940837L572.0114962646009,192.7186872727273L569.2531228574044,120.04933986013994L598.9559544541921,54.83924832535895L762.7202498617838,220.77656996047435Z" stroke-width="0.35"/><path transform="translate(0,0)" d="M653.9829852136854,480L707.1710945093371,363.2299383838384L806.465907013844,425.5137916083916L812.670447730292,480Z" stroke-width="0.35"/><path transform="translate(0,0)" d="M843.6994485827597,327.4220263450835L806.465907013844,425.5137916083916L707.1710945093371,363.2299383838384L700.0949139378367,332.15960885780885L769.1280938824572,277.0481202020202Z" stroke-width="0.35"/><path transform="translate(0,0)" d="M886.0513431908762,0L858.3247231830732,182.61445102639294L762.7202498617838,220.77656996047435L598.9559544541921,54.83924832535895L602.3621777149677,0Z" stroke-width="0.35"/><path transform="translate(0,0)" d="M902.2828461022684,225.5061824451411L895.5051957418175,314.78478181818184L843.6994485827597,327.4220263450835L769.1280938824572,277.0481202020202L762.7202498617838,220.77656996047435L858.3247231830732,182.61445102639294Z" stroke-width="0.35"/><path transform="translate(0,0)" d="M946.0342759281306,340.88651941638614L1001.4790110250349,480L812.670447730292,480L806.465907013844,425.5137916083916L843.6994485827597,327.4220263450835L895.5051957418175,314.78478181818184Z" stroke-width="0.35"/><path transform="translate(0,0)" d="M1058.2136565503197,0L1023.6387127107092,151.8128159090909L977.1600000000001,192.62887212121208L902.2828461022684,225.5061824451411L858.3247231830732,182.61445102639294L886.0513431908762,0Z" stroke-width="0.35"/><path transform="translate(0,0)" d="M977.1600000000001,313.55294606060613L946.0342759281306,340.88651941638614L895.5051957418175,314.78478181818184L902.2828461022684,225.5061824451411L977.1600000000001,192.62887212121208Z" stroke-width="0.35"/><path transform="translate(0,0)" d="M977.1600000000001,313.55294606060613L977.1600000000001,192.62887212121208L1023.6387127107092,151.8128159090909L1058.6698560312338,244.102362987013L1025.8147548636598,292.18945411255413Z" stroke-width="0.35"/><path transform="translate(0,0)" d="M977.1600000000001,313.55294606060613L1025.8147548636598,292.18945411255413L1109.0680070191606,383.5772427807485L1103.5780037612797,480L1001.4790110250349,480L946.0342759281306,340.88651941638614Z" stroke-width="0.35"/><path transform="translate(0,0)" d="M1025.8147548636598,292.18945411255413L1058.6698560312338,244.102362987013L1097.9677519453405,259.78877310606055L1135.309856031234,314.44309155844167L1109.0680070191606,383.5772427807485Z" stroke-width="0.35"/><path transform="translate(0,0)" d="M1023.6387127107092,151.8128159090909L1058.2136565503197,0L1354.002536965786,0L1336.9470894942974,49.9250848484854L1097.9677519453405,259.78877310606055L1058.6698560312338,244.102362987013Z" stroke-width="0.35"/><path transform="translate(0,0)" d="M1135.309856031234,314.44309155844167L1097.9677519453405,259.78877310606055L1336.9470894942974,49.9250848484854L1322.04,115.37963030303004L1176.4551841589168,298.0192480808081Z" stroke-width="0.35"/><path transform="translate(0,0)" d="M1135.309856031234,314.44309155844167L1176.4551841589168,298.0192480808081L1235.0652451363403,362.3560004329005L1154.6859704273713,480L1103.5780037612797,480L1109.0680070191606,383.5772427807485Z" stroke-width="0.35"/><path transform="translate(0,0)" d="M1176.4551841589168,298.0192480808081L1322.04,115.37963030303004L1322.04,205.44381363636379L1254.4429105057025,353.847590530303L1235.0652451363403,362.3560004329005Z" stroke-width="0.35"/><path transform="translate(0,0)" d="M1154.6859704273713,480L1235.0652451363403,362.3560004329005L1254.4429105057025,353.847590530303L1322.04,403.315516161616L1332.5977313618248,418.767929090909L1351.1916416777378,480Z" stroke-width="0.35"/><path transform="translate(0,0)" d="M1254.4429105057025,353.847590530303L1322.04,205.44381363636379L1322.04,403.315516161616Z" stroke-width="0.35"/><path transform="translate(0,0)" d="M1322.04,403.315516161616L1322.04,205.44381363636379L1375.9028357977188,323.69518106060605L1332.5977313618248,418.767929090909Z" stroke-width="0.35"/><path transform="translate(0,0)" d="M1351.1916416777378,480L1332.5977313618248,418.767929090909L1375.9028357977188,323.69518106060605L1418.2638308689477,354.69519259259266L1434.6005155995854,402.5162991735537L1430.6122101167005,455.05225314685345L1416.4077613485397,480Z" stroke-width="0.35"/><path transform="translate(0,0)" d="M1336.9470894942974,49.9250848484854L1354.002536965786,0L1572.9718975729147,0L1563.747219168541,141.76408899521462L1418.2638308689477,354.69519259259266L1375.9028357977188,323.69518106060605L1322.04,205.44381363636379L1322.04,115.37963030303004Z" stroke-width="0.35"/><path transform="translate(0,0)" d="M1418.2638308689477,354.69519259259266L1563.747219168541,141.76408899521462L1564.694803254338,166.72819173553734L1545.1472560311202,281.1682209790213L1434.6005155995854,402.5162991735537Z" stroke-width="0.35"/><path transform="translate(0,0)" d="M1430.6122101167005,455.05225314685345L1434.6005155995854,402.5162991735537L1545.1472560311202,281.1682209790213L1552.1309925292016,373.1614900000001L1528.963619455132,407.0695146464647Z" stroke-width="0.35"/><path transform="translate(0,0)" d="M1416.4077613485397,480L1430.6122101167005,455.05225314685345L1528.963619455132,407.0695146464647L1578.7927610897361,480Z" stroke-width="0.35"/><path transform="translate(0,0)" d="M1578.7927610897361,480L1528.963619455132,407.0695146464647L1552.1309925292016,373.1614900000001L1608.7560298831932,408.68021878787886L1641.2417909211683,480Z" stroke-width="0.35"/><path transform="translate(0,0)" d="M1545.1472560311202,281.1682209790213L1564.694803254338,166.72819173553734L1648.4439701168064,350.5925084848484L1608.7560298831932,408.68021878787886L1552.1309925292016,373.1614900000001Z" stroke-width="0.35"/><path transform="translate(0,0)" d="M1641.2417909211683,480L1608.7560298831932,408.68021878787886L1648.4439701168064,350.5925084848484L1683.4761318633286,372.56684898989903L1707.9437312583032,480Z" stroke-width="0.35"/><path transform="translate(0,0)" d="M1563.747219168541,141.76408899521462L1572.9718975729147,0L1795.2379102468988,0L1751.152388067427,290.35827045454545L1733.860646779045,328.32084747474744L1683.4761318633286,372.56684898989903L1648.4439701168064,350.5925084848484L1564.694803254338,166.72819173553734Z" stroke-width="0.35"/><path transform="translate(0,0)" d="M1767.3041791611313,480L1707.9437312583032,480L1683.4761318633286,372.56684898989903L1733.860646779045,328.32084747474744L1767.744567159544,477.0994945454542Z" stroke-width="0.35"/><path transform="translate(0,0)" d="M1767.744567159544,477.0994945454542L1733.860646779045,328.32084747474744L1751.152388067427,290.35827045454545L1797.0877398555135,391.2055073593073Z" stroke-width="0.35"/><path transform="translate(0,0)" d="M1751.152388067427,290.35827045454545L1795.2379102468988,0L1839.3600000000001,0L1839.36,354.0834175757575L1797.0877398555135,391.2055073593073Z" stroke-width="0.35"/><path transform="translate(0,0)" d="M1916,480L1767.3041791611313,480L1767.744567159544,477.0994945454542L1797.0877398555135,391.2055073593073L1839.36,354.0834175757575L1887.140646779045,396.04278888888905L1916,459.40109393939406Z" stroke-width="0.35"/><path transform="translate(0,0)" d="M1916,269.3261787878789L1887.140646779045,396.04278888888905L1839.36,354.0834175757575L1839.3600000000001,0L1916,0Z" stroke-width="0.35"/><path transform="translate(0,0)" d="M1916,459.40109393939406L1887.140646779045,396.04278888888905L1916,269.3261787878789Z" stroke-width="0.35"/></g><g class="mark-symbol role-mark layer_4_marks" role="graphics-object" aria-roledescription="symbol mark container"><path aria-label="date: Sep 08, 2025; count: 1; Peak date: Sep 08, 2025; Peak unique count: 1" role="graphics-symbol" aria-roledescription="point" transform="translate(0,471.27272727272725)" d="M-5.916,0L0,-5.916L5.916,0L0,5.916Z" fill="#ff9900" stroke="#b36b00" stroke-width="1.5" opacity="0"/><path aria-label="date: Sep 09, 2025; count: 54; Peak date: Sep 09, 2025; Peak unique count: 54" role="graphics-symbol" aria-roledescription="point" transform="translate(38.32,8.72727272727273)" d="M-5.916,0L0,-5.916L5.916,0L0,5.916Z" fill="#ff9900" stroke="#b36b00" stroke-width="1.5" opacity="1"/><path aria-label="date: Sep 10, 2025; count: 51; Peak date: Sep 10, 2025; Peak unique count: 51" role="graphics-symbol" aria-roledescription="point" transform="translate(76.64,34.90909090909092)" d="M-5.916,0L0,-5.916L5.916,0L0,5.916Z" fill="#ff9900" stroke="#b36b00" stroke-width="1.5" opacity="0"/><path aria-label="date: Sep 11, 2025; count: 36; Peak date: Sep 11, 2025; Peak unique count: 36" role="graphics-symbol" aria-roledescription="point" transform="translate(114.96,165.8181818181818)" d="M-5.916,0L0,-5.916L5.916,0L0,5.916Z" fill="#ff9900" stroke="#b36b00" stroke-width="1.5" opacity="0"/><path aria-label="date: Sep 12, 2025; count: 32; Peak date: Sep 12, 2025; Peak unique count: 32" role="graphics-symbol" aria-roledescription="point" transform="translate(153.28,200.72727272727275)" d="M-5.916,0L0,-5.916L5.916,0L0,5.916Z" fill="#ff9900" stroke="#b36b00" stroke-width="1.5" opacity="0"/><path aria-label="date: Sep 13, 2025; count: 20; Peak date: Sep 13, 2025; Peak unique count: 20" role="graphics-symbol" aria-roledescription="point" transform="translate(191.60000000000002,305.45454545454544)" d="M-5.916,0L0,-5.916L5.916,0L0,5.916Z" fill="#ff9900" stroke="#b36b00" stroke-width="1.5" opacity="0"/><path aria-label="date: Sep 14, 2025; count: 18; Peak date: Sep 14, 2025; Peak unique count: 18" role="graphics-symbol" aria-roledescription="point" transform="translate(229.92,322.90909090909093)" d="M-5.916,0L0,-5.916L5.916,0L0,5.916Z" fill="#ff9900" stroke="#b36b00" stroke-width="1.5" opacity="0"/><path aria-label="date: Sep 15, 2025; count: 25; Peak date: Sep 15, 2025; Peak unique count: 25" role="graphics-symbol" aria-roledescription="point" transform="translate(268.24,261.8181818181818)" d="M-5.916,0L0,-5.916L5.916,0L0,5.916Z" fill="#ff9900" stroke="#b36b00" stroke-width="1.5" opacity="0"/><path aria-label="date: Sep 16, 2025; count: 27; Peak date: Sep 16, 2025; Peak unique count: 27" role="graphics-symbol" aria-roledescription="point" transform="translate(306.56,244.36363636363635)" d="M-5.916,0L0,-5.916L5.916,0L0,5.916Z" fill="#ff9900" stroke="#b36b00" stroke-width="1.5" opacity="0"/><path aria-label="date: Sep 17, 2025; count: 39; Peak date: Sep 17, 2025; Peak unique count: 39" role="graphics-symbol" aria-roledescription="point" transform="translate(344.88,139.63636363636363)" d="M-5.916,0L0,-5.916L5.916,0L0,5.916Z" fill="#ff9900" stroke="#b36b00" stroke-width="1.5" opacity="0"/><path aria-label="date: Sep 18, 2025; count: 41; Peak date: Sep 18, 2025; Peak unique count: 41" role="graphics-symbol" aria-roledescription="point" transform="translate(383.20000000000005,122.18181818181817)" d="M-5.916,0L0,-5.916L5.916,0L0,5.916Z" fill="#ff9900" stroke="#b36b00" stroke-width="1.5" opacity="0"/><path aria-label="date: Sep 19, 2025; count: 28; Peak date: Sep 19, 2025; Peak unique count: 28" role="graphics-symbol" aria-roledescription="point" transform="translate(421.52,235.63636363636365)" d="M-5.916,0L0,-5.916L5.916,0L0,5.916Z" fill="#ff9900" stroke="#b36b00" stroke-width="1.5" opacity="0"/><path aria-label="date: Sep 20, 2025; count: 24; Peak date: Sep 20, 2025; Peak unique count: 24" role="graphics-symbol" aria-roledescription="point" transform="translate(459.84,270.54545454545456)" d="M-5.916,0L0,-5.916L5.916,0L0,5.916Z" fill="#ff9900" stroke="#b36b00" stroke-width="1.5" opacity="0"/><path aria-label="date: Sep 21, 2025; count: 15; Peak date: Sep 21, 2025; Peak unique count: 15" role="graphics-symbol" aria-roledescription="point" transform="translate(498.16,349.0909090909091)" d="M-5.916,0L0,-5.916L5.916,0L0,5.916Z" fill="#ff9900" stroke="#b36b00" stroke-width="1.5" opacity="0"/><path aria-label="date: Sep 22, 2025; count: 16; Peak date: Sep 22, 2025; Peak unique count: 16" role="graphics-symbol" aria-roledescription="point" transform="translate(536.48,340.3636363636364)" d="M-5.916,0L0,-5.916L5.916,0L0,5.916Z" fill="#ff9900" stroke="#b36b00" stroke-width="1.5" opacity="0"/><path aria-label="date: Sep 23, 2025; count: 17; Peak date: Sep 23, 2025; Peak unique count: 17" role="graphics-symbol" aria-roledescription="point" transform="translate(574.8,331.6363636363636)" d="M-5.916,0L0,-5.916L5.916,0L0,5.916Z" fill="#ff9900" stroke="#b36b00" stroke-width="1.5" opacity="0"/><path aria-label="date: Sep 24, 2025; count: 18; Peak date: Sep 24, 2025; Peak unique count: 18" role="graphics-symbol" aria-roledescription="point" transform="translate(613.12,322.90909090909093)" d="M-5.916,0L0,-5.916L5.916,0L0,5.916Z" fill="#ff9900" stroke="#b36b00" stroke-width="1.5" opacity="0"/><path aria-label="date: Sep 25, 2025; count: 11; Peak date: Sep 25, 2025; Peak unique count: 11" role="graphics-symbol" aria-roledescription="point" transform="translate(651.44,384)" d="M-5.916,0L0,-5.916L5.916,0L0,5.916Z" fill="#ff9900" stroke="#b36b00" stroke-width="1.5" opacity="0"/><path aria-label="date: Sep 26, 2025; count: 25; Peak date: Sep 26, 2025; Peak unique count: 25" role="graphics-symbol" aria-roledescription="point" transform="translate(689.76,261.8181818181818)" d="M-5.916,0L0,-5.916L5.916,0L0,5.916Z" fill="#ff9900" stroke="#b36b00" stroke-width="1.5" opacity="0"/><path aria-label="date: Sep 27, 2025; count: 7; Peak date: Sep 27, 2025; Peak unique count: 7" role="graphics-symbol" aria-roledescription="point" transform="translate(728.08,418.90909090909093)" d="M-5.916,0L0,-5.916L5.916,0L0,5.916Z" fill="#ff9900" stroke="#b36b00" stroke-width="1.5" opacity="0"/><path aria-label="date: Sep 28, 2025; count: 14; Peak date: Sep 28, 2025; Peak unique count: 14" role="graphics-symbol" aria-roledescription="point" transform="translate(766.4000000000001,357.8181818181818)" d="M-5.916,0L0,-5.916L5.916,0L0,5.916Z" fill="#ff9900" stroke="#b36b00" stroke-width="1.5" opacity="0"/><path aria-label="date: Sep 29, 2025; count: 38; Peak date: Sep 29, 2025; Peak unique count: 38" role="graphics-symbol" aria-roledescription="point" transform="translate(804.7199999999999,148.36363636363637)" d="M-5.916,0L0,-5.916L5.916,0L0,5.916Z" fill="#ff9900" stroke="#b36b00" stroke-width="1.5" opacity="0"/><path aria-label="date: Sep 30, 2025; count: 27; Peak date: Sep 30, 2025; Peak unique count: 27" role="graphics-symbol" aria-roledescription="point" transform="translate(843.04,244.36363636363635)" d="M-5.916,0L0,-5.916L5.916,0L0,5.916Z" fill="#ff9900" stroke="#b36b00" stroke-width="1.5" opacity="0"/><path aria-label="date: Oct 01, 2025; count: 9; Peak date: Oct 01, 2025; Peak unique count: 9" role="graphics-symbol" aria-roledescription="point" transform="translate(881.36,401.4545454545455)" d="M-5.916,0L0,-5.916L5.916,0L0,5.916Z" fill="#ff9900" stroke="#b36b00" stroke-width="1.5" opacity="0"/><path aria-label="date: Oct 02, 2025; count: 36; Peak date: Oct 02, 2025; Peak unique count: 36" role="graphics-symbol" aria-roledescription="point" transform="translate(919.68,165.8181818181818)" d="M-5.916,0L0,-5.916L5.916,0L0,5.916Z" fill="#ff9900" stroke="#b36b00" stroke-width="1.5" opacity="0"/><path aria-label="date: Oct 03, 2025; count: 26; Peak date: Oct 03, 2025; Peak unique count: 26" role="graphics-symbol" aria-roledescription="point" transform="translate(958,253.09090909090912)" d="M-5.916,0L0,-5.916L5.916,0L0,5.916Z" fill="#ff9900" stroke="#b36b00" stroke-width="1.5" opacity="0"/><path aria-label="date: Oct 04, 2025; count: 26; Peak date: Oct 04, 2025; Peak unique count: 26" role="graphics-symbol" aria-roledescription="point" transform="translate(996.32,253.09090909090912)" d="M-5.916,0L0,-5.916L5.916,0L0,5.916Z" fill="#ff9900" stroke="#b36b00" stroke-width="1.5" opacity="0"/><path aria-label="date: Oct 05, 2025; count: 16; Peak date: Oct 05, 2025; Peak unique count: 16" role="graphics-symbol" aria-roledescription="point" transform="translate(1034.64,340.3636363636364)" d="M-5.916,0L0,-5.916L5.916,0L0,5.916Z" fill="#ff9900" stroke="#b36b00" stroke-width="1.5" opacity="0"/><path aria-label="date: Oct 06, 2025; count: 20; Peak date: Oct 06, 2025; Peak unique count: 20" role="graphics-symbol" aria-roledescription="point" transform="translate(1072.96,305.45454545454544)" d="M-5.916,0L0,-5.916L5.916,0L0,5.916Z" fill="#ff9900" stroke="#b36b00" stroke-width="1.5" opacity="0"/><path aria-label="date: Oct 07, 2025; count: 31; Peak date: Oct 07, 2025; Peak unique count: 31" role="graphics-symbol" aria-roledescription="point" transform="translate(1111.28,209.45454545454547)" d="M-5.916,0L0,-5.916L5.916,0L0,5.916Z" fill="#ff9900" stroke="#b36b00" stroke-width="1.5" opacity="0"/><path aria-label="date: Oct 08, 2025; count: 26; Peak date: Oct 08, 2025; Peak unique count: 26" role="graphics-symbol" aria-roledescription="point" transform="translate(1149.6,253.09090909090912)" d="M-5.916,0L0,-5.916L5.916,0L0,5.916Z" fill="#ff9900" stroke="#b36b00" stroke-width="1.5" opacity="0"/><path aria-label="date: Oct 09, 2025; count: 15; Peak date: Oct 09, 2025; Peak unique count: 15" role="graphics-symbol" aria-roledescription="point" transform="translate(1187.92,349.0909090909091)" d="M-5.916,0L0,-5.916L5.916,0L0,5.916Z" fill="#ff9900" stroke="#b36b00" stroke-width="1.5" opacity="0"/><path aria-label="date: Oct 10, 2025; count: 19; Peak date: Oct 10, 2025; Peak unique count: 19" role="graphics-symbol" aria-roledescription="point" transform="translate(1226.24,314.1818181818182)" d="M-5.916,0L0,-5.916L5.916,0L0,5.916Z" fill="#ff9900" stroke="#b36b00" stroke-width="1.5" opacity="0"/><path aria-label="date: Oct 11, 2025; count: 9; Peak date: Oct 11, 2025; Peak unique count: 9" role="graphics-symbol" aria-roledescription="point" transform="translate(1264.5600000000002,401.4545454545455)" d="M-5.916,0L0,-5.916L5.916,0L0,5.916Z" fill="#ff9900" stroke="#b36b00" stroke-width="1.5" opacity="0"/><path aria-label="date: Oct 12, 2025; count: 15; Peak date: Oct 12, 2025; Peak unique count: 15" role="graphics-symbol" aria-roledescription="point" transform="translate(1302.88,349.0909090909091)" d="M-5.916,0L0,-5.916L5.916,0L0,5.916Z" fill="#ff9900" stroke="#b36b00" stroke-width="1.5" opacity="0"/><path aria-label="date: Oct 13, 2025; count: 15; Peak date: Oct 13, 2025; Peak unique count: 15" role="graphics-symbol" aria-roledescription="point" transform="translate(1341.1999999999998,349.0909090909091)" d="M-5.916,0L0,-5.916L5.916,0L0,5.916Z" fill="#ff9900" stroke="#b36b00" stroke-width="1.5" opacity="0"/><path aria-label="date: Oct 14, 2025; count: 13; Peak date: Oct 14, 2025; Peak unique count: 13" role="graphics-symbol" aria-roledescription="point" transform="translate(1379.52,366.54545454545456)" d="M-5.916,0L0,-5.916L5.916,0L0,5.916Z" fill="#ff9900" stroke="#b36b00" stroke-width="1.5" opacity="0"/><path aria-label="date: Oct 15, 2025; count: 19; Peak date: Oct 15, 2025; Peak unique count: 19" role="graphics-symbol" aria-roledescription="point" transform="translate(1417.84,314.1818181818182)" d="M-5.916,0L0,-5.916L5.916,0L0,5.916Z" fill="#ff9900" stroke="#b36b00" stroke-width="1.5" opacity="0"/><path aria-label="date: Oct 16, 2025; count: 16; Peak date: Oct 16, 2025; Peak unique count: 16" role="graphics-symbol" aria-roledescription="point" transform="translate(1456.16,340.3636363636364)" d="M-5.916,0L0,-5.916L5.916,0L0,5.916Z" fill="#ff9900" stroke="#b36b00" stroke-width="1.5" opacity="0"/><path aria-label="date: Oct 17, 2025; count: 12; Peak date: Oct 17, 2025; Peak unique count: 12" role="graphics-symbol" aria-roledescription="point" transform="translate(1494.48,375.2727272727273)" d="M-5.916,0L0,-5.916L5.916,0L0,5.916Z" fill="#ff9900" stroke="#b36b00" stroke-width="1.5" opacity="0"/><path aria-label="date: Oct 18, 2025; count: 3; Peak date: Oct 18, 2025; Peak unique count: 3" role="graphics-symbol" aria-roledescription="point" transform="translate(1532.8000000000002,453.8181818181818)" d="M-5.916,0L0,-5.916L5.916,0L0,5.916Z" fill="#ff9900" stroke="#b36b00" stroke-width="1.5" opacity="0"/><path aria-label="date: Oct 19, 2025; count: 6; Peak date: Oct 19, 2025; Peak unique count: 6" role="graphics-symbol" aria-roledescription="point" transform="translate(1571.12,427.6363636363636)" d="M-5.916,0L0,-5.916L5.916,0L0,5.916Z" fill="#ff9900" stroke="#b36b00" stroke-width="1.5" opacity="0"/><path aria-label="date: Oct 20, 2025; count: 13; Peak date: Oct 20, 2025; Peak unique count: 13" role="graphics-symbol" aria-roledescription="point" transform="translate(1609.4399999999998,366.54545454545456)" d="M-5.916,0L0,-5.916L5.916,0L0,5.916Z" fill="#ff9900" stroke="#b36b00" stroke-width="1.5" opacity="0"/><path aria-label="date: Oct 21, 2025; count: 10; Peak date: Oct 21, 2025; Peak unique count: 10" role="graphics-symbol" aria-roledescription="point" transform="translate(1647.76,392.7272727272727)" d="M-5.916,0L0,-5.916L5.916,0L0,5.916Z" fill="#ff9900" stroke="#b36b00" stroke-width="1.5" opacity="0"/><path aria-label="date: Oct 22, 2025; count: 17; Peak date: Oct 22, 2025; Peak unique count: 17" role="graphics-symbol" aria-roledescription="point" transform="translate(1686.08,331.6363636363636)" d="M-5.916,0L0,-5.916L5.916,0L0,5.916Z" fill="#ff9900" stroke="#b36b00" stroke-width="1.5" opacity="0"/><path aria-label="date: Oct 23, 2025; count: 12; Peak date: Oct 23, 2025; Peak unique count: 12" role="graphics-symbol" aria-roledescription="point" transform="translate(1724.4,375.2727272727273)" d="M-5.916,0L0,-5.916L5.916,0L0,5.916Z" fill="#ff9900" stroke="#b36b00" stroke-width="1.5" opacity="0"/><path aria-label="date: Oct 24, 2025; count: 13; Peak date: Oct 24, 2025; Peak unique count: 13" role="graphics-symbol" aria-roledescription="point" transform="translate(1762.72,366.54545454545456)" d="M-5.916,0L0,-5.916L5.916,0L0,5.916Z" fill="#ff9900" stroke="#b36b00" stroke-width="1.5" opacity="0"/><path aria-label="date: Oct 25, 2025; count: 15; Peak date: Oct 25, 2025; Peak unique count: 15" role="graphics-symbol" aria-roledescription="point" transform="translate(1801.04,349.0909090909091)" d="M-5.916,0L0,-5.916L5.916,0L0,5.916Z" fill="#ff9900" stroke="#b36b00" stroke-width="1.5" opacity="0"/><path aria-label="date: Oct 26, 2025; count: 10; Peak date: Oct 26, 2025; Peak unique count: 10" role="graphics-symbol" aria-roledescription="point" transform="translate(1839.36,392.7272727272727)" d="M-5.916,0L0,-5.916L5.916,0L0,5.916Z" fill="#ff9900" stroke="#b36b00" stroke-width="1.5" opacity="0"/><path aria-label="date: Oct 27, 2025; count: 15; Peak date: Oct 27, 2025; Peak unique count: 15" role="graphics-symbol" aria-roledescription="point" transform="translate(1877.68,349.0909090909091)" d="M-5.916,0L0,-5.916L5.916,0L0,5.916Z" fill="#ff9900" stroke="#b36b00" stroke-width="1.5" opacity="0"/><path aria-label="date: Oct 28, 2025; count: 14; Peak date: Oct 28, 2025; Peak unique count: 14" role="graphics-symbol" aria-roledescription="point" transform="translate(1916,357.8181818181818)" d="M-5.916,0L0,-5.916L5.916,0L0,5.916Z" fill="#ff9900" stroke="#b36b00" stroke-width="1.5" opacity="0"/></g><g class="mark-rule role-mark layer_5_marks" role="graphics-symbol" aria-roledescription="rule mark container" pointer-events="none"><line transform="translate(1916,302.9236363636364)" x2="-1916" y2="0" stroke="#d62728" stroke-width="1.5" stroke-dasharray="4,4"/><line transform="translate(1916,302.9236363636364)" x2="-1916" y2="0" stroke="#d62728" stroke-width="1.5" stroke-dasharray="4,4"/><line transform="translate(1916,302.9236363636364)" x2="-1916" y2="0" stroke="#d62728" stroke-width="1.5" stroke-dasharray="4,4"/><line transform="translate(1916,302.9236363636364)" x2="-1916" y2="0" stroke="#d62728" stroke-width="1.5" stroke-dasharray="4,4"/><line transform="translate(1916,302.9236363636364)" x2="-1916" y2="0" stroke="#d62728" stroke-width="1.5" stroke-dasharray="4,4"/><line transform="translate(1916,302.9236363636364)" x2="-1916" y2="0" stroke="#d62728" stroke-width="1.5" stroke-dasharray="4,4"/><line transform="translate(1916,302.9236363636364)" x2="-1916" y2="0" stroke="#d62728" stroke-width="1.5" stroke-dasharray="4,4"/><line transform="translate(1916,302.9236363636364)" x2="-1916" y2="0" stroke="#d62728" stroke-width="1.5" stroke-dasharray="4,4"/><line transform="translate(1916,302.9236363636364)" x2="-1916" y2="0" stroke="#d62728" stroke-width="1.5" stroke-dasharray="4,4"/><line transform="translate(1916,302.9236363636364)" x2="-1916" y2="0" stroke="#d62728" stroke-width="1.5" stroke-dasharray="4,4"/><line transform="translate(1916,302.9236363636364)" x2="-1916" y2="0" stroke="#d62728" stroke-width="1.5" stroke-dasharray="4,4"/><line transform="translate(1916,302.9236363636364)" x2="-1916" y2="0" stroke="#d62728" stroke-width="1.5" stroke-dasharray="4,4"/><line transform="translate(1916,302.9236363636364)" x2="-1916" y2="0" stroke="#d62728" stroke-width="1.5" stroke-dasharray="4,4"/><line transform="translate(1916,302.9236363636364)" x2="-1916" y2="0" stroke="#d62728" stroke-width="1.5" stroke-dasharray="4,4"/><line transform="translate(1916,302.9236363636364)" x2="-1916" y2="0" stroke="#d62728" stroke-width="1.5" stroke-dasharray="4,4"/><line transform="translate(1916,302.9236363636364)" x2="-1916" y2="0" stroke="#d62728" stroke-width="1.5" stroke-dasharray="4,4"/><line transform="translate(1916,302.9236363636364)" x2="-1916" y2="0" stroke="#d62728" stroke-width="1.5" stroke-dasharray="4,4"/><line transform="translate(1916,302.9236363636364)" x2="-1916" y2="0" stroke="#d62728" stroke-width="1.5" stroke-dasharray="4,4"/><line transform="translate(1916,302.9236363636364)" x2="-1916" y2="0" stroke="#d62728" stroke-width="1.5" stroke-dasharray="4,4"/><line transform="translate(1916,302.9236363636364)" x2="-1916" y2="0" stroke="#d62728" stroke-width="1.5" stroke-dasharray="4,4"/><line transform="translate(1916,302.9236363636364)" x2="-1916" y2="0" stroke="#d62728" stroke-width="1.5" stroke-dasharray="4,4"/><line transform="translate(1916,302.9236363636364)" x2="-1916" y2="0" stroke="#d62728" stroke-width="1.5" stroke-dasharray="4,4"/><line transform="translate(1916,302.9236363636364)" x2="-1916" y2="0" stroke="#d62728" stroke-width="1.5" stroke-dasharray="4,4"/><line transform="translate(1916,302.9236363636364)" x2="-1916" y2="0" stroke="#d62728" stroke-width="1.5" stroke-dasharray="4,4"/><line transform="translate(1916,302.9236363636364)" x2="-1916" y2="0" stroke="#d62728" stroke-width="1.5" stroke-dasharray="4,4"/><line transform="translate(1916,302.9236363636364)" x2="-1916" y2="0" stroke="#d62728" stroke-width="1.5" stroke-dasharray="4,4"/><line transform="translate(1916,302.9236363636364)" x2="-1916" y2="0" stroke="#d62728" stroke-width="1.5" stroke-dasharray="4,4"/><line transform="translate(1916,302.9236363636364)" x2="-1916" y2="0" stroke="#d62728" stroke-width="1.5" stroke-dasharray="4,4"/><line transform="translate(1916,302.9236363636364)" x2="-1916" y2="0" stroke="#d62728" stroke-width="1.5" stroke-dasharray="4,4"/><line transform="translate(1916,302.9236363636364)" x2="-1916" y2="0" stroke="#d62728" stroke-width="1.5" stroke-dasharray="4,4"/><line transform="translate(1916,302.9236363636364)" x2="-1916" y2="0" stroke="#d62728" stroke-width="1.5" stroke-dasharray="4,4"/><line transform="translate(1916,302.9236363636364)" x2="-1916" y2="0" stroke="#d62728" stroke-width="1.5" stroke-dasharray="4,4"/><line transform="translate(1916,302.9236363636364)" x2="-1916" y2="0" stroke="#d62728" stroke-width="1.5" stroke-dasharray="4,4"/><line transform="translate(1916,302.9236363636364)" x2="-1916" y2="0" stroke="#d62728" stroke-width="1.5" stroke-dasharray="4,4"/><line transform="translate(1916,302.9236363636364)" x2="-1916" y2="0" stroke="#d62728" stroke-width="1.5" stroke-dasharray="4,4"/><line transform="translate(1916,302.9236363636364)" x2="-1916" y2="0" stroke="#d62728" stroke-width="1.5" stroke-dasharray="4,4"/><line transform="translate(1916,302.9236363636364)" x2="-1916" y2="0" stroke="#d62728" stroke-width="1.5" stroke-dasharray="4,4"/><line transform="translate(1916,302.9236363636364)" x2="-1916" y2="0" stroke="#d62728" stroke-width="1.5" stroke-dasharray="4,4"/><line transform="translate(1916,302.9236363636364)" x2="-1916" y2="0" stroke="#d62728" stroke-width="1.5" stroke-dasharray="4,4"/><line transform="translate(1916,302.9236363636364)" x2="-1916" y2="0" stroke="#d62728" stroke-width="1.5" stroke-dasharray="4,4"/><line transform="translate(1916,302.9236363636364)" x2="-1916" y2="0" stroke="#d62728" stroke-width="1.5" stroke-dasharray="4,4"/><line transform="translate(1916,302.9236363636364)" x2="-1916" y2="0" stroke="#d62728" stroke-width="1.5" stroke-dasharray="4,4"/><line transform="translate(1916,302.9236363636364)" x2="-1916" y2="0" stroke="#d62728" stroke-width="1.5" stroke-dasharray="4,4"/><line transform="translate(1916,302.9236363636364)" x2="-1916" y2="0" stroke="#d62728" stroke-width="1.5" stroke-dasharray="4,4"/><line transform="translate(1916,302.9236363636364)" x2="-1916" y2="0" stroke="#d62728" stroke-width="1.5" stroke-dasharray="4,4"/><line transform="translate(1916,302.9236363636364)" x2="-1916" y2="0" stroke="#d62728" stroke-width="1.5" stroke-dasharray="4,4"/><line transform="translate(1916,302.9236363636364)" x2="-1916" y2="0" stroke="#d62728" stroke-width="1.5" stroke-dasharray="4,4"/><line transform="translate(1916,302.9236363636364)" x2="-1916" y2="0" stroke="#d62728" stroke-width="1.5" stroke-dasharray="4,4"/><line transform="translate(1916,302.9236363636364)" x2="-1916" y2="0" stroke="#d62728" stroke-width="1.5" stroke-dasharray="4,4"/><line transform="translate(1916,302.9236363636364)" x2="-1916" y2="0" stroke="#d62728" stroke-width="1.5" stroke-dasharray="4,4"/><line transform="translate(1916,302.9236363636364)" x2="-1916" y2="0" stroke="#d62728" stroke-width="1.5" stroke-dasharray="4,4"/></g><g class="mark-text role-mark layer_6_marks" role="graphics-object" aria-roledescription="text mark container" pointer-events="none"><text aria-label="date: Oct 28, 2025" role="graphics-symbol" aria-roledescription="text mark" text-anchor="start" transform="translate(1922,300.9236363636364)" font-family="sans-serif" font-size="12px" fill="#d62728">Avg: 20.29</text></g></g><path class="foreground" aria-hidden="true" d="" display="none"/></g></g></g></svg>
