<svg xmlns="http://www.w3.org/2000/svg" xmlns:xlink="http://www.w3.org/1999/xlink" version="1.1" class="marks" width="2187" height="573" viewBox="0 0 2187 573"><rect width="2187" height="573" fill="white"/><g fill="none" stroke-miterlimit="10" transform="translate(51,11)"><g class="mark-group role-frame root" role="graphics-object" aria-roledescription="group mark container"><g transform="translate(0,0)"><path class="background" aria-hidden="true" d="M0.5,0.5h2060v480h-2060Z"/><g><g class="mark-group role-axis" aria-hidden="true"><g transform="translate(0.5,0.5)"><path class="background" aria-hidden="true" d="M0,0h0v0h0Z" pointer-events="none"/><g><g class="mark-rule role-axis-grid" pointer-events="none"><line transform="translate(0,480)" x2="2060" y2="0" stroke="#ddd" stroke-width="1" opacity="1"/><line transform="translate(0,436)" x2="2060" y2="0" stroke="#ddd" stroke-width="1" opacity="1"/><line transform="translate(0,393)" x2="2060" y2="0" stroke="#ddd" stroke-width="1" opacity="1"/><line transform="translate(0,349)" x2="2060" y2="0" stroke="#ddd" stroke-width="1" opacity="1"/><line transform="translate(0,305)" x2="2060" y2="0" stroke="#ddd" stroke-width="1" opacity="1"/><line transform="translate(0,262)" x2="2060" y2="0" stroke="#ddd" stroke-width="1" opacity="1"/><line transform="translate(0,218)" x2="2060" y2="0" stroke="#ddd" stroke-width="1" opacity="1"/><line transform="translate(0,175)" x2="2060" y2="0" stroke="#ddd" stroke-width="1" opacity="1"/><line transform="translate(0,131)" x2="2060" y2="0" stroke="#ddd" stroke-width="1" opacity="1"/><line transform="translate(0,87)" x2="2060" y2="0" stroke="#ddd" stroke-width="1" opacity="1"/><line transform="translate(0,44)" x2="2060" y2="0" stroke="#ddd" stroke-width="1" opacity="1"/><line transform="translate(0,0)" x2="2060" y2="0" stroke="#ddd" stroke-width="1" opacity="1"/></g></g><path class="foreground" aria-hidden="true" d="" pointer-events="none" display="none"/></g></g><g class="mark-group role-axis" role="graphics-symbol" aria-roledescription="axis" aria-label="X-axis titled 'Date' for a time scale with values from 2025-09-08 to 2025-11-01"><g transform="translate(0.5,480.5)"><path class="background" aria-hidden="true" d="M0,0h0v0h0Z" pointer-events="none"/><g><g class="mark-rule role-axis-tick" pointer-events="none"><line transform="translate(0,0)" x2="0" y2="5" stroke="#bbb" stroke-width="1" opacity="1"/><line transform="translate(38,0)" x2="0" y2="5" stroke="#bbb" stroke-width="1" opacity="1"/><line transform="translate(76,0)" x2="0" y2="5" stroke="#bbb" stroke-width="1" opacity="1"/><line transform="translate(114,0)" x2="0" y2="5" stroke="#bbb" stroke-width="1" opacity="1"/><line transform="translate(153,0)" x2="0" y2="5" stroke="#bbb" stroke-width="1" opacity="1"/><line transform="translate(191,0)" x2="0" y2="5" stroke="#bbb" stroke-width="1" opacity="1"/><line transform="translate(229,0)" x2="0" y2="5" stroke="#bbb" stroke-width="1" opacity="1"/><line transform="translate(267,0)" x2="0" y2="5" stroke="#bbb" stroke-width="1" opacity="1"/><line transform="translate(305,0)" x2="0" y2="5" stroke="#bbb" stroke-width="1" opacity="1"/><line transform="translate(343,0)" x2="0" y2="5" stroke="#bbb" stroke-width="1" opacity="1"/><line transform="translate(381,0)" x2="0" y2="5" stroke="#bbb" stroke-width="1" opacity="1"/><line transform="translate(420,0)" x2="0" y2="5" stroke="#bbb" stroke-width="1" opacity="1"/><line transform="translate(458,0)" x2="0" y2="5" stroke="#bbb" stroke-width="1" opacity="1"/><line transform="translate(496,0)" x2="0" y2="5" stroke="#bbb" stroke-width="1" opacity="1"/><line transform="translate(534,0)" x2="0" y2="5" stroke="#bbb" stroke-width="1" opacity="1"/><line transform="translate(572,0)" x2="0" y2="5" stroke="#bbb" stroke-width="1" opacity="1"/><line transform="translate(610,0)" x2="0" y2="5" stroke="#bbb" stroke-width="1" opacity="1"/><line transform="translate(649,0)" x2="0" y2="5" stroke="#bbb" stroke-width="1" opacity="1"/><line transform="translate(687,0)" x2="0" y2="5" stroke="#bbb" stroke-width="1" opacity="1"/><line transform="translate(725,0)" x2="0" y2="5" stroke="#bbb" stroke-width="1" opacity="1"/><line transform="translate(763,0)" x2="0" y2="5" stroke="#bbb" stroke-width="1" opacity="1"/><line transform="translate(801,0)" x2="0" y2="5" stroke="#bbb" stroke-width="1" opacity="1"/><line transform="translate(839,0)" x2="0" y2="5" stroke="#bbb" stroke-width="1" opacity="1"/><line transform="translate(877,0)" x2="0" y2="5" stroke="#bbb" stroke-width="1" opacity="1"/><line transform="translate(916,0)" x2="0" y2="5" stroke="#bbb" stroke-width="1" opacity="1"/><line transform="translate(954,0)" x2="0" y2="5" stroke="#bbb" stroke-width="1" opacity="1"/><line transform="translate(992,0)" x2="0" y2="5" stroke="#bbb" stroke-width="1" opacity="1"/><line transform="translate(1030,0)" x2="0" y2="5" stroke="#bbb" stroke-width="1" opacity="1"/><line transform="translate(1068,0)" x2="0" y2="5" stroke="#bbb" stroke-width="1" opacity="1"/><line transform="translate(1106,0)" x2="0" y2="5" stroke="#bbb" stroke-width="1" opacity="1"/><line transform="translate(1144,0)" x2="0" y2="5" stroke="#bbb" stroke-width="1" opacity="1"/><line transform="translate(1183,0)" x2="0" y2="5" stroke="#bbb" stroke-width="1" opacity="1"/><line transform="translate(1221,0)" x2="0" y2="5" stroke="#bbb" stroke-width="1" opacity="1"/><line transform="translate(1259,0)" x2="0" y2="5" stroke="#bbb" stroke-width="1" opacity="1"/><line transform="translate(1297,0)" x2="0" y2="5" stroke="#bbb" stroke-width="1" opacity="1"/><line transform="translate(1335,0)" x2="0" y2="5" stroke="#bbb" stroke-width="1" opacity="1"/><line transform="translate(1373,0)" x2="0" y2="5" stroke="#bbb" stroke-width="1" opacity="1"/><line transform="translate(1411,0)" x2="0" y2="5" stroke="#bbb" stroke-width="1" opacity="1"/><line transform="translate(1450,0)" x2="0" y2="5" stroke="#bbb" stroke-width="1" opacity="1"/><line transform="translate(1488,0)" x2="0" y2="5" stroke="#bbb" stroke-width="1" opacity="1"/><line transform="translate(1526,0)" x2="0" y2="5" stroke="#bbb" stroke-width="1" opacity="1"/><line transform="translate(1564,0)" x2="0" y2="5" stroke="#bbb" stroke-width="1" opacity="1"/><line transform="translate(1602,0)" x2="0" y2="5" stroke="#bbb" stroke-width="1" opacity="1"/><line transform="translate(1640,0)" x2="0" y2="5" stroke="#bbb" stroke-width="1" opacity="1"/><line transform="translate(1679,0)" x2="0" y2="5" stroke="#bbb" stroke-width="1" opacity="1"/><line transform="translate(1717,0)" x2="0" y2="5" stroke="#bbb" stroke-width="1" opacity="1"/><line transform="translate(1755,0)" x2="0" y2="5" stroke="#bbb" stroke-width="1" opacity="1"/><line transform="translate(1793,0)" x2="0" y2="5" stroke="#bbb" stroke-width="1" opacity="1"/><line transform="translate(1831,0)" x2="0" y2="5" stroke="#bbb" stroke-width="1" opacity="1"/><line transform="translate(1869,0)" x2="0" y2="5" stroke="#bbb" stroke-width="1" opacity="1"/><line transform="translate(1907,0)" x2="0" y2="5" stroke="#bbb" stroke-width="1" opacity="1"/><line transform="translate(1946,0)" x2="0" y2="5" stroke="#bbb" stroke-width="1" opacity="1"/><line transform="translate(1984,0)" x2="0" y2="5" stroke="#bbb" stroke-width="1" opacity="1"/><line transform="translate(2022,0)" x2="0" y2="5" stroke="#bbb" stroke-width="1" opacity="1"/><line transform="translate(2060,0)" x2="0" y2="5" stroke="#bbb" stroke-width="1" opacity="1"/></g><g class="mark-text role-axis-label" pointer-events="none"><text text-anchor="end" transform="translate(0,7) rotate(315) translate(0,9)" font-family="Segoe UI" font-size="11px" fill="#000" opacity="1">2025-09-08</text><text text-anchor="end" transform="translate(38.148148148148145,7) rotate(315) translate(0,9)" font-family="Segoe UI" font-size="11px" fill="#000" opacity="0">2025-09-09</text><text text-anchor="end" transform="translate(76.29629629629629,7) rotate(315) translate(0,9)" font-family="Segoe UI" font-size="11px" fill="#000" opacity="1">2025-09-10</text><text text-anchor="end" transform="translate(114.44444444444444,7) rotate(315) translate(0,9)" font-family="Segoe UI" font-size="11px" fill="#000" opacity="0">2025-09-11</text><text text-anchor="end" transform="translate(152.59259259259258,7) rotate(315) translate(0,9)" font-family="Segoe UI" font-size="11px" fill="#000" opacity="1">2025-09-12</text><text text-anchor="end" transform="translate(190.74074074074073,7) rotate(315) translate(0,9)" font-family="Segoe UI" font-size="11px" fill="#000" opacity="0">2025-09-13</text><text text-anchor="end" transform="translate(228.88888888888889,7) rotate(315) translate(0,9)" font-family="Segoe UI" font-size="11px" fill="#000" opacity="1">2025-09-14</text><text text-anchor="end" transform="translate(267.037037037037,7) rotate(315) translate(0,9)" font-family="Segoe UI" font-size="11px" fill="#000" opacity="0">2025-09-15</text><text text-anchor="end" transform="translate(305.18518518518516,7) rotate(315) translate(0,9)" font-family="Segoe UI" font-size="11px" fill="#000" opacity="1">2025-09-16</text><text text-anchor="end" transform="translate(343.3333333333333,7) rotate(315) translate(0,9)" font-family="Segoe UI" font-size="11px" fill="#000" opacity="0">2025-09-17</text><text text-anchor="end" transform="translate(381.48148148148147,7) rotate(315) translate(0,9)" font-family="Segoe UI" font-size="11px" fill="#000" opacity="1">2025-09-18</text><text text-anchor="end" transform="translate(419.6296296296296,7) rotate(315) translate(0,9)" font-family="Segoe UI" font-size="11px" fill="#000" opacity="0">2025-09-19</text><text text-anchor="end" transform="translate(457.77777777777777,7) rotate(315) translate(0,9)" font-family="Segoe UI" font-size="11px" fill="#000" opacity="1">2025-09-20</text><text text-anchor="end" transform="translate(495.9259259259259,7) rotate(315) translate(0,9)" font-family="Segoe UI" font-size="11px" fill="#000" opacity="0">2025-09-21</text><text text-anchor="end" transform="translate(534.074074074074,7) rotate(315) translate(0,9)" font-family="Segoe UI" font-size="11px" fill="#000" opacity="1">2025-09-22</text><text text-anchor="end" transform="translate(572.2222222222223,7) rotate(315) translate(0,9)" font-family="Segoe UI" font-size="11px" fill="#000" opacity="0">2025-09-23</text><text text-anchor="end" transform="translate(610.3703703703703,7) rotate(315) translate(0,9)" font-family="Segoe UI" font-size="11px" fill="#000" opacity="1">2025-09-24</text><text text-anchor="end" transform="translate(648.5185185185186,7) rotate(315) translate(0,9)" font-family="Segoe UI" font-size="11px" fill="#000" opacity="0">2025-09-25</text><text text-anchor="end" transform="translate(686.6666666666666,7) rotate(315) translate(0,9)" font-family="Segoe UI" font-size="11px" fill="#000" opacity="1">2025-09-26</text><text text-anchor="end" transform="translate(724.8148148148148,7) rotate(315) translate(0,9)" font-family="Segoe UI" font-size="11px" fill="#000" opacity="0">2025-09-27</text><text text-anchor="end" transform="translate(762.9629629629629,7) rotate(315) translate(0,9)" font-family="Segoe UI" font-size="11px" fill="#000" opacity="1">2025-09-28</text><text text-anchor="end" transform="translate(801.1111111111111,7) rotate(315) translate(0,9)" font-family="Segoe UI" font-size="11px" fill="#000" opacity="0">2025-09-29</text><text text-anchor="end" transform="translate(839.2592592592592,7) rotate(315) translate(0,9)" font-family="Segoe UI" font-size="11px" fill="#000" opacity="1">2025-09-30</text><text text-anchor="end" transform="translate(877.4074074074074,7) rotate(315) translate(0,9)" font-family="Segoe UI" font-size="11px" fill="#000" opacity="0">2025-10-01</text><text text-anchor="end" transform="translate(915.5555555555555,7) rotate(315) translate(0,9)" font-family="Segoe UI" font-size="11px" fill="#000" opacity="1">2025-10-02</text><text text-anchor="end" transform="translate(953.7037037037037,7) rotate(315) translate(0,9)" font-family="Segoe UI" font-size="11px" fill="#000" opacity="0">2025-10-03</text><text text-anchor="end" transform="translate(991.8518518518518,7) rotate(315) translate(0,9)" font-family="Segoe UI" font-size="11px" fill="#000" opacity="1">2025-10-04</text><text text-anchor="end" transform="translate(1030,7) rotate(315) translate(0,9)" font-family="Segoe UI" font-size="11px" fill="#000" opacity="0">2025-10-05</text><text text-anchor="end" transform="translate(1068.148148148148,7) rotate(315) translate(0,9)" font-family="Segoe UI" font-size="11px" fill="#000" opacity="1">2025-10-06</text><text text-anchor="end" transform="translate(1106.2962962962963,7) rotate(315) translate(0,9)" font-family="Segoe UI" font-size="11px" fill="#000" opacity="0">2025-10-07</text><text text-anchor="end" transform="translate(1144.4444444444446,7) rotate(315) translate(0,9)" font-family="Segoe UI" font-size="11px" fill="#000" opacity="1">2025-10-08</text><text text-anchor="end" transform="translate(1182.5925925925926,7) rotate(315) translate(0,9)" font-family="Segoe UI" font-size="11px" fill="#000" opacity="0">2025-10-09</text><text text-anchor="end" transform="translate(1220.7407407407406,7) rotate(315) translate(0,9)" font-family="Segoe UI" font-size="11px" fill="#000" opacity="1">2025-10-10</text><text text-anchor="end" transform="translate(1258.888888888889,7) rotate(315) translate(0,9)" font-family="Segoe UI" font-size="11px" fill="#000" opacity="0">2025-10-11</text><text text-anchor="end" transform="translate(1297.0370370370372,7) rotate(315) translate(0,9)" font-family="Segoe UI" font-size="11px" fill="#000" opacity="1">2025-10-12</text><text text-anchor="end" transform="translate(1335.1851851851852,7) rotate(315) translate(0,9)" font-family="Segoe UI" font-size="11px" fill="#000" opacity="0">2025-10-13</text><text text-anchor="end" transform="translate(1373.3333333333333,7) rotate(315) translate(0,9)" font-family="Segoe UI" font-size="11px" fill="#000" opacity="1">2025-10-14</text><text text-anchor="end" transform="translate(1411.4814814814815,7) rotate(315) translate(0,9)" font-family="Segoe UI" font-size="11px" fill="#000" opacity="0">2025-10-15</text><text text-anchor="end" transform="translate(1449.6296296296296,7) rotate(315) translate(0,9)" font-family="Segoe UI" font-size="11px" fill="#000" opacity="1">2025-10-16</text><text text-anchor="end" transform="translate(1487.7777777777778,7) rotate(315) translate(0,9)" font-family="Segoe UI" font-size="11px" fill="#000" opacity="0">2025-10-17</text><text text-anchor="end" transform="translate(1525.9259259259259,7) rotate(315) translate(0,9)" font-family="Segoe UI" font-size="11px" fill="#000" opacity="1">2025-10-18</text><text text-anchor="end" transform="translate(1564.0740740740741,7) rotate(315) translate(0,9)" font-family="Segoe UI" font-size="11px" fill="#000" opacity="0">2025-10-19</text><text text-anchor="end" transform="translate(1602.2222222222222,7) rotate(315) translate(0,9)" font-family="Segoe UI" font-size="11px" fill="#000" opacity="1">2025-10-20</text><text text-anchor="end" transform="translate(1640.3703703703704,7) rotate(315) translate(0,9)" font-family="Segoe UI" font-size="11px" fill="#000" opacity="0">2025-10-21</text><text text-anchor="end" transform="translate(1678.5185185185185,7) rotate(315) translate(0,9)" font-family="Segoe UI" font-size="11px" fill="#000" opacity="1">2025-10-22</text><text text-anchor="end" transform="translate(1716.6666666666667,7) rotate(315) translate(0,9)" font-family="Segoe UI" font-size="11px" fill="#000" opacity="0">2025-10-23</text><text text-anchor="end" transform="translate(1754.8148148148148,7) rotate(315) translate(0,9)" font-family="Segoe UI" font-size="11px" fill="#000" opacity="1">2025-10-24</text><text text-anchor="end" transform="translate(1792.9629629629628,7) rotate(315) translate(0,9)" font-family="Segoe UI" font-size="11px" fill="#000" opacity="0">2025-10-25</text><text text-anchor="end" transform="translate(1831.111111111111,7) rotate(315) translate(0,9)" font-family="Segoe UI" font-size="11px" fill="#000" opacity="1">2025-10-26</text><text text-anchor="end" transform="translate(1869.2592592592594,7) rotate(315) translate(0,9)" font-family="Segoe UI" font-size="11px" fill="#000" opacity="0">2025-10-27</text><text text-anchor="end" transform="translate(1907.4074074074074,7) rotate(315) translate(0,9)" font-family="Segoe UI" font-size="11px" fill="#000" opacity="1">2025-10-28</text><text text-anchor="end" transform="translate(1945.5555555555554,7) rotate(315) translate(0,9)" font-family="Segoe UI" font-size="11px" fill="#000" opacity="0">2025-10-29</text><text text-anchor="end" transform="translate(1983.7037037037037,7) rotate(315) translate(0,9)" font-family="Segoe UI" font-size="11px" fill="#000" opacity="1">2025-10-30</text><text text-anchor="end" transform="translate(2021.851851851852,7) rotate(315) translate(0,9)" font-family="Segoe UI" font-size="11px" fill="#000" opacity="0">2025-10-31</text><text text-anchor="end" transform="translate(2060,7) rotate(315) translate(0,9)" font-family="Segoe UI" font-size="11px" fill="#000" opacity="1">2025-11-01</text></g><g class="mark-rule role-axis-domain" pointer-events="none"><line transform="translate(0,0)" x2="2060" y2="0" stroke="#888" stroke-width="1" opacity="1"/></g><g class="mark-text role-axis-title" pointer-events="none"><text text-anchor="middle" transform="translate(1030,73.9777658717112)" font-family="Segoe UI" font-size="13px" font-weight="bold" fill="#000" opacity="1">Date</text></g></g><path class="foreground" aria-hidden="true" d="" pointer-events="none" display="none"/></g></g><g class="mark-group role-axis" role="graphics-symbol" aria-roledescription="axis" aria-label="Y-axis titled 'Unique server names' for a linear scale with values from 0 to 55"><g transform="translate(0.5,0.5)"><path class="background" aria-hidden="true" d="M0,0h0v0h0Z" pointer-events="none"/><g><g class="mark-rule role-axis-tick" pointer-events="none"><line transform="translate(0,480)" x2="-5" y2="0" stroke="#bbb" stroke-width="1" opacity="1"/><line transform="translate(0,436)" x2="-5" y2="0" stroke="#bbb" stroke-width="1" opacity="1"/><line transform="translate(0,393)" x2="-5" y2="0" stroke="#bbb" stroke-width="1" opacity="1"/><line transform="translate(0,349)" x2="-5" y2="0" stroke="#bbb" stroke-width="1" opacity="1"/><line transform="translate(0,305)" x2="-5" y2="0" stroke="#bbb" stroke-width="1" opacity="1"/><line transform="translate(0,262)" x2="-5" y2="0" stroke="#bbb" stroke-width="1" opacity="1"/><line transform="translate(0,218)" x2="-5" y2="0" stroke="#bbb" stroke-width="1" opacity="1"/><line transform="translate(0,175)" x2="-5" y2="0" stroke="#bbb" stroke-width="1" opacity="1"/><line transform="translate(0,131)" x2="-5" y2="0" stroke="#bbb" stroke-width="1" opacity="1"/><line transform="translate(0,87)" x2="-5" y2="0" stroke="#bbb" stroke-width="1" opacity="1"/><line transform="translate(0,44)" x2="-5" y2="0" stroke="#bbb" stroke-width="1" opacity="1"/><line transform="translate(0,0)" x2="-5" y2="0" stroke="#bbb" stroke-width="1" opacity="1"/></g><g class="mark-text role-axis-label" pointer-events="none"><text text-anchor="end" transform="translate(-7,483)" font-family="Segoe UI" font-size="11px" fill="#000" opacity="1">0</text><text text-anchor="end" transform="translate(-7,439.3636363636364)" font-family="Segoe UI" font-size="11px" fill="#000" opacity="1">5</text><text text-anchor="end" transform="translate(-7,395.7272727272727)" font-family="Segoe UI" font-size="11px" fill="#000" opacity="1">10</text><text text-anchor="end" transform="translate(-7,352.0909090909091)" font-family="Segoe UI" font-size="11px" fill="#000" opacity="1">15</text><text text-anchor="end" transform="translate(-7,308.45454545454544)" font-family="Segoe UI" font-size="11px" fill="#000" opacity="1">20</text><text text-anchor="end" transform="translate(-7,264.8181818181818)" font-family="Segoe UI" font-size="11px" fill="#000" opacity="1">25</text><text text-anchor="end" transform="translate(-7,221.1818181818182)" font-family="Segoe UI" font-size="11px" fill="#000" opacity="1">30</text><text text-anchor="end" transform="translate(-7,177.54545454545456)" font-family="Segoe UI" font-size="11px" fill="#000" opacity="1">35</text><text text-anchor="end" transform="translate(-7,133.9090909090909)" font-family="Segoe UI" font-size="11px" fill="#000" opacity="1">40</text><text text-anchor="end" transform="translate(-7,90.27272727272725)" font-family="Segoe UI" font-size="11px" fill="#000" opacity="1">45</text><text text-anchor="end" transform="translate(-7,46.636363636363654)" font-family="Segoe UI" font-size="11px" fill="#000" opacity="1">50</text><text text-anchor="end" transform="translate(-7,3)" font-family="Segoe UI" font-size="11px" fill="#000" opacity="1">55</text></g><g class="mark-rule role-axis-domain" pointer-events="none"><line transform="translate(0,480)" x2="0" y2="-480" stroke="#888" stroke-width="1" opacity="1"/></g><g class="mark-text role-axis-title" pointer-events="none"><text text-anchor="middle" transform="translate(-24.99609375,240) rotate(-90) translate(0,-3)" font-family="Segoe UI" font-size="13px" font-weight="bold" fill="#000" opacity="1">Unique server names</text></g></g><path class="foreground" aria-hidden="true" d="" pointer-events="none" display="none"/></g></g><g class="mark-area role-mark layer_0_marks" role="graphics-object" aria-roledescription="area mark container" pointer-events="none"><path aria-label="date: 2025-09-08; count: 1" role="graphics-symbol" aria-roledescription="area mark" d="M0,471.273C12.716,240,25.432,8.727,38.148,8.727C50.864,8.727,63.58,17.455,76.296,34.909C89.012,52.364,101.728,142.545,114.444,165.818C127.16,189.091,139.877,177.455,152.593,200.727C165.309,224,178.025,293.818,190.741,305.455C203.457,317.091,216.173,322.909,228.889,322.909C241.605,322.909,254.321,273.455,267.037,261.818C279.753,250.182,292.469,256,305.185,244.364C317.901,232.727,330.617,151.273,343.333,139.636C356.049,128,368.765,122.182,381.481,122.182C394.198,122.182,406.914,212.364,419.63,235.636C432.346,258.909,445.062,251.636,457.778,270.545C470.494,289.455,483.21,349.091,495.926,349.091C508.642,349.091,521.358,343.273,534.074,340.364C546.79,337.455,559.506,334.545,572.222,331.636C584.938,328.727,597.654,322.909,610.37,322.909C623.086,322.909,635.802,384,648.519,384C661.235,384,673.951,261.818,686.667,261.818C699.383,261.818,712.099,418.909,724.815,418.909C737.531,418.909,750.247,398.545,762.963,357.818C775.679,317.091,788.395,148.364,801.111,148.364C813.827,148.364,826.543,202.182,839.259,244.364C851.975,286.545,864.691,401.455,877.407,401.455C890.123,401.455,902.84,165.818,915.556,165.818C928.272,165.818,940.988,253.091,953.704,253.091C966.42,253.091,979.136,253.091,991.852,253.091C1004.568,253.091,1017.284,340.364,1030,340.364C1042.716,340.364,1055.432,327.273,1068.148,305.455C1080.864,283.636,1093.58,209.455,1106.296,209.455C1119.012,209.455,1131.728,229.818,1144.444,253.091C1157.16,276.364,1169.877,349.091,1182.593,349.091C1195.309,349.091,1208.025,314.182,1220.741,314.182C1233.457,314.182,1246.173,401.455,1258.889,401.455C1271.605,401.455,1284.321,349.091,1297.037,349.091C1309.753,349.091,1322.469,349.091,1335.185,349.091C1347.901,349.091,1360.617,366.545,1373.333,366.545C1386.049,366.545,1398.765,314.182,1411.481,314.182C1424.198,314.182,1436.914,330.182,1449.63,340.364C1462.346,350.545,1475.062,356.364,1487.778,375.273C1500.494,394.182,1513.21,453.818,1525.926,453.818C1538.642,453.818,1551.358,442.182,1564.074,427.636C1576.79,413.091,1589.506,366.545,1602.222,366.545C1614.938,366.545,1627.654,392.727,1640.37,392.727C1653.086,392.727,1665.802,331.636,1678.519,331.636C1691.235,331.636,1703.951,375.273,1716.667,375.273C1729.383,375.273,1742.099,370.909,1754.815,366.545C1767.531,362.182,1780.247,349.091,1792.963,349.091C1805.679,349.091,1818.395,392.727,1831.111,392.727C1843.827,392.727,1856.543,375.273,1869.259,349.091C1881.975,322.909,1894.691,235.636,1907.407,235.636C1920.123,235.636,1932.84,392.727,1945.556,392.727C1958.272,392.727,1970.988,359.273,1983.704,349.091C1996.42,338.909,2009.136,331.636,2021.852,331.636C2034.568,331.636,2047.284,392.727,2060,453.818L2060,480C2047.284,480,2034.568,480,2021.852,480C2009.136,480,1996.42,480,1983.704,480C1970.988,480,1958.272,480,1945.556,480C1932.84,480,1920.123,480,1907.407,480C1894.691,480,1881.975,480,1869.259,480C1856.543,480,1843.827,480,1831.111,480C1818.395,480,1805.679,480,1792.963,480C1780.247,480,1767.531,480,1754.815,480C1742.099,480,1729.383,480,1716.667,480C1703.951,480,1691.235,480,1678.519,480C1665.802,480,1653.086,480,1640.37,480C1627.654,480,1614.938,480,1602.222,480C1589.506,480,1576.79,480,1564.074,480C1551.358,480,1538.642,480,1525.926,480C1513.21,480,1500.494,480,1487.778,480C1475.062,480,1462.346,480,1449.63,480C1436.914,480,1424.198,480,1411.481,480C1398.765,480,1386.049,480,1373.333,480C1360.617,480,1347.901,480,1335.185,480C1322.469,480,1309.753,480,1297.037,480C1284.321,480,1271.605,480,1258.889,480C1246.173,480,1233.457,480,1220.741,480C1208.025,480,1195.309,480,1182.593,480C1169.877,480,1157.16,480,1144.444,480C1131.728,480,1119.012,480,1106.296,480C1093.58,480,1080.864,480,1068.148,480C1055.432,480,1042.716,480,1030,480C1017.284,480,1004.568,480,991.852,480C979.136,480,966.42,480,953.704,480C940.988,480,928.272,480,915.556,480C902.84,480,890.123,480,877.407,480C864.691,480,851.975,480,839.259,480C826.543,480,813.827,480,801.111,480C788.395,480,775.679,480,762.963,480C750.247,480,737.531,480,724.815,480C712.099,480,699.383,480,686.667,480C673.951,480,661.235,480,648.519,480C635.802,480,623.086,480,610.37,480C597.654,480,584.938,480,572.222,480C559.506,480,546.79,480,534.074,480C521.358,480,508.642,480,495.926,480C483.21,480,470.494,480,457.778,480C445.062,480,432.346,480,419.63,480C406.914,480,394.198,480,381.481,480C368.765,480,356.049,480,343.333,480C330.617,480,317.901,480,305.185,480C292.469,480,279.753,480,267.037,480C254.321,480,241.605,480,228.889,480C216.173,480,203.457,480,190.741,480C178.025,480,165.309,480,152.593,480C139.877,480,127.16,480,114.444,480C101.728,480,89.012,480,76.296,480C63.58,480,50.864,480,38.148,480C25.432,480,12.716,480,0,480Z" fill="#4e79a7" opacity="0.18"/></g><g class="mark-line role-mark layer_1_marks" role="graphics-object" aria-roledescription="line mark container" pointer-events="none"><path aria-label="date: Sep 08, 2025; count: 1" role="graphics-symbol" aria-roledescription="line mark" d="M0,471.273C12.716,240,25.432,8.727,38.148,8.727C50.864,8.727,63.58,17.455,76.296,34.909C89.012,52.364,101.728,142.545,114.444,165.818C127.16,189.091,139.877,177.455,152.593,200.727C165.309,224,178.025,293.818,190.741,305.455C203.457,317.091,216.173,322.909,228.889,322.909C241.605,322.909,254.321,273.455,267.037,261.818C279.753,250.182,292.469,256,305.185,244.364C317.901,232.727,330.617,151.273,343.333,139.636C356.049,128,368.765,122.182,381.481,122.182C394.198,122.182,406.914,212.364,419.63,235.636C432.346,258.909,445.062,251.636,457.778,270.545C470.494,289.455,483.21,349.091,495.926,349.091C508.642,349.091,521.358,343.273,534.074,340.364C546.79,337.455,559.506,334.545,572.222,331.636C584.938,328.727,597.654,322.909,610.37,322.909C623.086,322.909,635.802,384,648.519,384C661.235,384,673.951,261.818,686.667,261.818C699.383,261.818,712.099,418.909,724.815,418.909C737.531,418.909,750.247,398.545,762.963,357.818C775.679,317.091,788.395,148.364,801.111,148.364C813.827,148.364,826.543,202.182,839.259,244.364C851.975,286.545,864.691,401.455,877.407,401.455C890.123,401.455,902.84,165.818,915.556,165.818C928.272,165.818,940.988,253.091,953.704,253.091C966.42,253.091,979.136,253.091,991.852,253.091C1004.568,253.091,1017.284,340.364,1030,340.364C1042.716,340.364,1055.432,327.273,1068.148,305.455C1080.864,283.636,1093.58,209.455,1106.296,209.455C1119.012,209.455,1131.728,229.818,1144.444,253.091C1157.16,276.364,1169.877,349.091,1182.593,349.091C1195.309,349.091,1208.025,314.182,1220.741,314.182C1233.457,314.182,1246.173,401.455,1258.889,401.455C1271.605,401.455,1284.321,349.091,1297.037,349.091C1309.753,349.091,1322.469,349.091,1335.185,349.091C1347.901,349.091,1360.617,366.545,1373.333,366.545C1386.049,366.545,1398.765,314.182,1411.481,314.182C1424.198,314.182,1436.914,330.182,1449.63,340.364C1462.346,350.545,1475.062,356.364,1487.778,375.273C1500.494,394.182,1513.21,453.818,1525.926,453.818C1538.642,453.818,1551.358,442.182,1564.074,427.636C1576.79,413.091,1589.506,366.545,1602.222,366.545C1614.938,366.545,1627.654,392.727,1640.37,392.727C1653.086,392.727,1665.802,331.636,1678.519,331.636C1691.235,331.636,1703.951,375.273,1716.667,375.273C1729.383,375.273,1742.099,370.909,1754.815,366.545C1767.531,362.182,1780.247,349.091,1792.963,349.091C1805.679,349.091,1818.395,392.727,1831.111,392.727C1843.827,392.727,1856.543,375.273,1869.259,349.091C1881.975,322.909,1894.691,235.636,1907.407,235.636C1920.123,235.636,1932.84,392.727,1945.556,392.727C1958.272,392.727,1970.988,359.273,1983.704,349.091C1996.42,338.909,2009.136,331.636,2021.852,331.636C2034.568,331.636,2047.284,392.727,2060,453.818" stroke="#4e79a7" stroke-width="2"/></g><g class="mark-line role-mark layer_2_marks" role="graphics-object" aria-roledescription="line mark container" pointer-events="none"><path aria-label="date: Sep 08, 2025; ma7: 1" role="graphics-symbol" aria-roledescription="line mark" d="M0,471.273C12.716,378.424,25.432,285.576,38.148,240C50.864,194.424,63.58,172.606,76.296,171.636C89.012,170.667,101.728,170.182,114.444,170.182C127.16,170.182,139.877,172.218,152.593,176.291C165.309,180.364,178.025,191.252,190.741,197.818C203.457,204.384,216.173,215.688,228.889,215.688C241.605,215.688,254.321,185.766,267.037,185.766C279.753,185.766,292.469,211.325,305.185,219.429C317.901,227.532,330.617,234.39,343.333,234.39C356.049,234.39,368.765,228.156,381.481,228.156C394.198,228.156,406.914,233.143,419.63,233.143C432.346,233.143,445.062,228.156,457.778,228.156C470.494,228.156,483.21,229.403,495.926,231.896C508.642,234.39,521.358,239.169,534.074,243.117C546.79,247.065,559.506,249.143,572.222,255.584C584.938,262.026,597.654,271.169,610.37,281.766C623.086,292.364,635.802,316.675,648.519,319.169C661.235,321.662,673.951,320.416,686.667,322.909C699.383,325.403,712.099,343.273,724.815,344.104C737.531,344.935,750.247,345.351,762.963,345.351C775.679,345.351,788.395,324.571,801.111,317.922C813.827,311.273,826.543,305.455,839.259,305.455C851.975,305.455,864.691,316.675,877.407,316.675C890.123,316.675,902.84,286.338,915.556,285.506C928.272,284.675,940.988,285.091,953.704,284.26C966.42,283.429,979.136,262.234,991.852,260.571C1004.568,258.909,1017.284,258.078,1030,258.078C1042.716,258.078,1055.432,280.519,1068.148,280.519C1080.864,280.519,1093.58,278.857,1106.296,275.532C1119.012,272.208,1131.728,254.338,1144.444,254.338C1157.16,254.338,1169.877,274.701,1182.593,280.519C1195.309,286.338,1208.025,284.26,1220.741,289.247C1233.457,294.234,1246.173,309.61,1258.889,310.442C1271.605,311.273,1284.321,310.857,1297.037,311.688C1309.753,312.519,1322.469,313.766,1335.185,317.922C1347.901,322.078,1360.617,335.169,1373.333,340.364C1386.049,345.558,1398.765,349.091,1411.481,349.091C1424.198,349.091,1436.914,347.844,1449.63,347.844C1462.346,347.844,1475.062,353.87,1487.778,356.571C1500.494,359.273,1513.21,360.935,1525.926,364.052C1538.642,367.169,1551.358,373.61,1564.074,375.273C1576.79,376.935,1589.506,376.727,1602.222,377.766C1614.938,378.805,1627.654,380.468,1640.37,381.506C1653.086,382.545,1665.802,382.753,1678.519,384C1691.235,385.247,1703.951,388.987,1716.667,388.987C1729.383,388.987,1742.099,388.571,1754.815,387.74C1767.531,386.909,1780.247,376.104,1792.963,372.779C1805.679,369.455,1818.395,369.039,1831.111,367.792C1843.827,366.545,1856.543,366.961,1869.259,365.299C1881.975,363.636,1894.691,342.857,1907.407,342.857C1920.123,342.857,1932.84,351.584,1945.556,351.584C1958.272,351.584,1970.988,349.299,1983.704,347.844C1996.42,346.39,2009.136,342.857,2021.852,342.857C2034.568,342.857,2047.284,350.338,2060,357.818" stroke="#d62728" stroke-width="2" stroke-dasharray="6,4"/></g><g class="mark-symbol role-mark layer_3_marks" role="graphics-object" aria-roledescription="symbol mark container"><path aria-label="date: Sep 08, 2025; count: 1; Date: Sep 08, 2025; Daily unique: 1; 7d avg: 1" role="graphics-symbol" aria-roledescription="point" transform="translate(0,471.27272727272725)" d="M3.536,0A3.536,3.536,0,1,1,-3.536,0A3.536,3.536,0,1,1,3.536,0" fill="#4e79a7" stroke-width="2" opacity="0.55"/><path aria-label="date: Sep 09, 2025; count: 54; Date: Sep 09, 2025; Daily unique: 54; 7d avg: 27.5" role="graphics-symbol" aria-roledescription="point" transform="translate(38.148148148148145,8.72727272727273)" d="M3.536,0A3.536,3.536,0,1,1,-3.536,0A3.536,3.536,0,1,1,3.536,0" fill="#4e79a7" stroke-width="2" opacity="0.55"/><path aria-label="date: Sep 10, 2025; count: 51; Date: Sep 10, 2025; Daily unique: 51; 7d avg: 35.3333333333" role="graphics-symbol" aria-roledescription="point" transform="translate(76.29629629629629,34.90909090909092)" d="M3.536,0A3.536,3.536,0,1,1,-3.536,0A3.536,3.536,0,1,1,3.536,0" fill="#4e79a7" stroke-width="2" opacity="0.55"/><path aria-label="date: Sep 11, 2025; count: 36; Date: Sep 11, 2025; Daily unique: 36; 7d avg: 35.5" role="graphics-symbol" aria-roledescription="point" transform="translate(114.44444444444444,165.8181818181818)" d="M3.536,0A3.536,3.536,0,1,1,-3.536,0A3.536,3.536,0,1,1,3.536,0" fill="#4e79a7" stroke-width="2" opacity="0.55"/><path aria-label="date: Sep 12, 2025; count: 32; Date: Sep 12, 2025; Daily unique: 32; 7d avg: 34.8" role="graphics-symbol" aria-roledescription="point" transform="translate(152.59259259259258,200.72727272727275)" d="M3.536,0A3.536,3.536,0,1,1,-3.536,0A3.536,3.536,0,1,1,3.536,0" fill="#4e79a7" stroke-width="2" opacity="0.55"/><path aria-label="date: Sep 13, 2025; count: 20; Date: Sep 13, 2025; Daily unique: 20; 7d avg: 32.3333333333" role="graphics-symbol" aria-roledescription="point" transform="translate(190.74074074074073,305.45454545454544)" d="M3.536,0A3.536,3.536,0,1,1,-3.536,0A3.536,3.536,0,1,1,3.536,0" fill="#4e79a7" stroke-width="2" opacity="0.55"/><path aria-label="date: Sep 14, 2025; count: 18; Date: Sep 14, 2025; Daily unique: 18; 7d avg: 30.2857142857" role="graphics-symbol" aria-roledescription="point" transform="translate(228.88888888888889,322.90909090909093)" d="M3.536,0A3.536,3.536,0,1,1,-3.536,0A3.536,3.536,0,1,1,3.536,0" fill="#4e79a7" stroke-width="2" opacity="0.55"/><path aria-label="date: Sep 15, 2025; count: 25; Date: Sep 15, 2025; Daily unique: 25; 7d avg: 33.7142857143" role="graphics-symbol" aria-roledescription="point" transform="translate(267.037037037037,261.8181818181818)" d="M3.536,0A3.536,3.536,0,1,1,-3.536,0A3.536,3.536,0,1,1,3.536,0" fill="#4e79a7" stroke-width="2" opacity="0.55"/><path aria-label="date: Sep 16, 2025; count: 27; Date: Sep 16, 2025; Daily unique: 27; 7d avg: 29.8571428571" role="graphics-symbol" aria-roledescription="point" transform="translate(305.18518518518516,244.36363636363635)" d="M3.536,0A3.536,3.536,0,1,1,-3.536,0A3.536,3.536,0,1,1,3.536,0" fill="#4e79a7" stroke-width="2" opacity="0.55"/><path aria-label="date: Sep 17, 2025; count: 39; Date: Sep 17, 2025; Daily unique: 39; 7d avg: 28.1428571429" role="graphics-symbol" aria-roledescription="point" transform="translate(343.3333333333333,139.63636363636363)" d="M3.536,0A3.536,3.536,0,1,1,-3.536,0A3.536,3.536,0,1,1,3.536,0" fill="#4e79a7" stroke-width="2" opacity="0.55"/><path aria-label="date: Sep 18, 2025; count: 41; Date: Sep 18, 2025; Daily unique: 41; 7d avg: 28.8571428571" role="graphics-symbol" aria-roledescription="point" transform="translate(381.48148148148147,122.18181818181817)" d="M3.536,0A3.536,3.536,0,1,1,-3.536,0A3.536,3.536,0,1,1,3.536,0" fill="#4e79a7" stroke-width="2" opacity="0.55"/><path aria-label="date: Sep 19, 2025; count: 28; Date: Sep 19, 2025; Daily unique: 28; 7d avg: 28.2857142857" role="graphics-symbol" aria-roledescription="point" transform="translate(419.6296296296296,235.63636363636365)" d="M3.536,0A3.536,3.536,0,1,1,-3.536,0A3.536,3.536,0,1,1,3.536,0" fill="#4e79a7" stroke-width="2" opacity="0.55"/><path aria-label="date: Sep 20, 2025; count: 24; Date: Sep 20, 2025; Daily unique: 24; 7d avg: 28.8571428571" role="graphics-symbol" aria-roledescription="point" transform="translate(457.77777777777777,270.54545454545456)" d="M3.536,0A3.536,3.536,0,1,1,-3.536,0A3.536,3.536,0,1,1,3.536,0" fill="#4e79a7" stroke-width="2" opacity="0.55"/><path aria-label="date: Sep 21, 2025; count: 15; Date: Sep 21, 2025; Daily unique: 15; 7d avg: 28.4285714286" role="graphics-symbol" aria-roledescription="point" transform="translate(495.9259259259259,349.0909090909091)" d="M3.536,0A3.536,3.536,0,1,1,-3.536,0A3.536,3.536,0,1,1,3.536,0" fill="#4e79a7" stroke-width="2" opacity="0.55"/><path aria-label="date: Sep 22, 2025; count: 16; Date: Sep 22, 2025; Daily unique: 16; 7d avg: 27.1428571429" role="graphics-symbol" aria-roledescription="point" transform="translate(534.074074074074,340.3636363636364)" d="M3.536,0A3.536,3.536,0,1,1,-3.536,0A3.536,3.536,0,1,1,3.536,0" fill="#4e79a7" stroke-width="2" opacity="0.55"/><path aria-label="date: Sep 23, 2025; count: 17; Date: Sep 23, 2025; Daily unique: 17; 7d avg: 25.7142857143" role="graphics-symbol" aria-roledescription="point" transform="translate(572.2222222222223,331.6363636363636)" d="M3.536,0A3.536,3.536,0,1,1,-3.536,0A3.536,3.536,0,1,1,3.536,0" fill="#4e79a7" stroke-width="2" opacity="0.55"/><path aria-label="date: Sep 24, 2025; count: 18; Date: Sep 24, 2025; Daily unique: 18; 7d avg: 22.7142857143" role="graphics-symbol" aria-roledescription="point" transform="translate(610.3703703703703,322.90909090909093)" d="M3.536,0A3.536,3.536,0,1,1,-3.536,0A3.536,3.536,0,1,1,3.536,0" fill="#4e79a7" stroke-width="2" opacity="0.55"/><path aria-label="date: Sep 25, 2025; count: 11; Date: Sep 25, 2025; Daily unique: 11; 7d avg: 18.4285714286" role="graphics-symbol" aria-roledescription="point" transform="translate(648.5185185185186,384)" d="M3.536,0A3.536,3.536,0,1,1,-3.536,0A3.536,3.536,0,1,1,3.536,0" fill="#4e79a7" stroke-width="2" opacity="0.55"/><path aria-label="date: Sep 26, 2025; count: 25; Date: Sep 26, 2025; Daily unique: 25; 7d avg: 18" role="graphics-symbol" aria-roledescription="point" transform="translate(686.6666666666666,261.8181818181818)" d="M3.536,0A3.536,3.536,0,1,1,-3.536,0A3.536,3.536,0,1,1,3.536,0" fill="#4e79a7" stroke-width="2" opacity="0.55"/><path aria-label="date: Sep 27, 2025; count: 7; Date: Sep 27, 2025; Daily unique: 7; 7d avg: 15.5714285714" role="graphics-symbol" aria-roledescription="point" transform="translate(724.8148148148148,418.90909090909093)" d="M3.536,0A3.536,3.536,0,1,1,-3.536,0A3.536,3.536,0,1,1,3.536,0" fill="#4e79a7" stroke-width="2" opacity="0.55"/><path aria-label="date: Sep 28, 2025; count: 14; Date: Sep 28, 2025; Daily unique: 14; 7d avg: 15.4285714286" role="graphics-symbol" aria-roledescription="point" transform="translate(762.9629629629629,357.8181818181818)" d="M3.536,0A3.536,3.536,0,1,1,-3.536,0A3.536,3.536,0,1,1,3.536,0" fill="#4e79a7" stroke-width="2" opacity="0.55"/><path aria-label="date: Sep 29, 2025; count: 38; Date: Sep 29, 2025; Daily unique: 38; 7d avg: 18.5714285714" role="graphics-symbol" aria-roledescription="point" transform="translate(801.1111111111111,148.36363636363637)" d="M3.536,0A3.536,3.536,0,1,1,-3.536,0A3.536,3.536,0,1,1,3.536,0" fill="#4e79a7" stroke-width="2" opacity="0.55"/><path aria-label="date: Sep 30, 2025; count: 27; Date: Sep 30, 2025; Daily unique: 27; 7d avg: 20" role="graphics-symbol" aria-roledescription="point" transform="translate(839.2592592592592,244.36363636363635)" d="M3.536,0A3.536,3.536,0,1,1,-3.536,0A3.536,3.536,0,1,1,3.536,0" fill="#4e79a7" stroke-width="2" opacity="0.55"/><path aria-label="date: Oct 01, 2025; count: 9; Date: Oct 01, 2025; Daily unique: 9; 7d avg: 18.7142857143" role="graphics-symbol" aria-roledescription="point" transform="translate(877.4074074074074,401.4545454545455)" d="M3.536,0A3.536,3.536,0,1,1,-3.536,0A3.536,3.536,0,1,1,3.536,0" fill="#4e79a7" stroke-width="2" opacity="0.55"/><path aria-label="date: Oct 02, 2025; count: 36; Date: Oct 02, 2025; Daily unique: 36; 7d avg: 22.2857142857" role="graphics-symbol" aria-roledescription="point" transform="translate(915.5555555555555,165.8181818181818)" d="M3.536,0A3.536,3.536,0,1,1,-3.536,0A3.536,3.536,0,1,1,3.536,0" fill="#4e79a7" stroke-width="2" opacity="0.55"/><path aria-label="date: Oct 03, 2025; count: 26; Date: Oct 03, 2025; Daily unique: 26; 7d avg: 22.4285714286" role="graphics-symbol" aria-roledescription="point" transform="translate(953.7037037037037,253.09090909090912)" d="M3.536,0A3.536,3.536,0,1,1,-3.536,0A3.536,3.536,0,1,1,3.536,0" fill="#4e79a7" stroke-width="2" opacity="0.55"/><path aria-label="date: Oct 04, 2025; count: 26; Date: Oct 04, 2025; Daily unique: 26; 7d avg: 25.1428571429" role="graphics-symbol" aria-roledescription="point" transform="translate(991.8518518518518,253.09090909090912)" d="M3.536,0A3.536,3.536,0,1,1,-3.536,0A3.536,3.536,0,1,1,3.536,0" fill="#4e79a7" stroke-width="2" opacity="0.55"/><path aria-label="date: Oct 05, 2025; count: 16; Date: Oct 05, 2025; Daily unique: 16; 7d avg: 25.4285714286" role="graphics-symbol" aria-roledescription="point" transform="translate(1030,340.3636363636364)" d="M3.536,0A3.536,3.536,0,1,1,-3.536,0A3.536,3.536,0,1,1,3.536,0" fill="#4e79a7" stroke-width="2" opacity="0.55"/><path aria-label="date: Oct 06, 2025; count: 20; Date: Oct 06, 2025; Daily unique: 20; 7d avg: 22.8571428571" role="graphics-symbol" aria-roledescription="point" transform="translate(1068.148148148148,305.45454545454544)" d="M3.536,0A3.536,3.536,0,1,1,-3.536,0A3.536,3.536,0,1,1,3.536,0" fill="#4e79a7" stroke-width="2" opacity="0.55"/><path aria-label="date: Oct 07, 2025; count: 31; Date: Oct 07, 2025; Daily unique: 31; 7d avg: 23.4285714286" role="graphics-symbol" aria-roledescription="point" transform="translate(1106.2962962962963,209.45454545454547)" d="M3.536,0A3.536,3.536,0,1,1,-3.536,0A3.536,3.536,0,1,1,3.536,0" fill="#4e79a7" stroke-width="2" opacity="0.55"/><path aria-label="date: Oct 08, 2025; count: 26; Date: Oct 08, 2025; Daily unique: 26; 7d avg: 25.8571428571" role="graphics-symbol" aria-roledescription="point" transform="translate(1144.4444444444446,253.09090909090912)" d="M3.536,0A3.536,3.536,0,1,1,-3.536,0A3.536,3.536,0,1,1,3.536,0" fill="#4e79a7" stroke-width="2" opacity="0.55"/><path aria-label="date: Oct 09, 2025; count: 15; Date: Oct 09, 2025; Daily unique: 15; 7d avg: 22.8571428571" role="graphics-symbol" aria-roledescription="point" transform="translate(1182.5925925925926,349.0909090909091)" d="M3.536,0A3.536,3.536,0,1,1,-3.536,0A3.536,3.536,0,1,1,3.536,0" fill="#4e79a7" stroke-width="2" opacity="0.55"/><path aria-label="date: Oct 10, 2025; count: 19; Date: Oct 10, 2025; Daily unique: 19; 7d avg: 21.8571428571" role="graphics-symbol" aria-roledescription="point" transform="translate(1220.7407407407406,314.1818181818182)" d="M3.536,0A3.536,3.536,0,1,1,-3.536,0A3.536,3.536,0,1,1,3.536,0" fill="#4e79a7" stroke-width="2" opacity="0.55"/><path aria-label="date: Oct 11, 2025; count: 9; Date: Oct 11, 2025; Daily unique: 9; 7d avg: 19.4285714286" role="graphics-symbol" aria-roledescription="point" transform="translate(1258.888888888889,401.4545454545455)" d="M3.536,0A3.536,3.536,0,1,1,-3.536,0A3.536,3.536,0,1,1,3.536,0" fill="#4e79a7" stroke-width="2" opacity="0.55"/><path aria-label="date: Oct 12, 2025; count: 15; Date: Oct 12, 2025; Daily unique: 15; 7d avg: 19.2857142857" role="graphics-symbol" aria-roledescription="point" transform="translate(1297.0370370370372,349.0909090909091)" d="M3.536,0A3.536,3.536,0,1,1,-3.536,0A3.536,3.536,0,1,1,3.536,0" fill="#4e79a7" stroke-width="2" opacity="0.55"/><path aria-label="date: Oct 13, 2025; count: 15; Date: Oct 13, 2025; Daily unique: 15; 7d avg: 18.5714285714" role="graphics-symbol" aria-roledescription="point" transform="translate(1335.1851851851852,349.0909090909091)" d="M3.536,0A3.536,3.536,0,1,1,-3.536,0A3.536,3.536,0,1,1,3.536,0" fill="#4e79a7" stroke-width="2" opacity="0.55"/><path aria-label="date: Oct 14, 2025; count: 13; Date: Oct 14, 2025; Daily unique: 13; 7d avg: 16" role="graphics-symbol" aria-roledescription="point" transform="translate(1373.3333333333333,366.54545454545456)" d="M3.536,0A3.536,3.536,0,1,1,-3.536,0A3.536,3.536,0,1,1,3.536,0" fill="#4e79a7" stroke-width="2" opacity="0.55"/><path aria-label="date: Oct 15, 2025; count: 19; Date: Oct 15, 2025; Daily unique: 19; 7d avg: 15" role="graphics-symbol" aria-roledescription="point" transform="translate(1411.4814814814815,314.1818181818182)" d="M3.536,0A3.536,3.536,0,1,1,-3.536,0A3.536,3.536,0,1,1,3.536,0" fill="#4e79a7" stroke-width="2" opacity="0.55"/><path aria-label="date: Oct 16, 2025; count: 16; Date: Oct 16, 2025; Daily unique: 16; 7d avg: 15.1428571429" role="graphics-symbol" aria-roledescription="point" transform="translate(1449.6296296296296,340.3636363636364)" d="M3.536,0A3.536,3.536,0,1,1,-3.536,0A3.536,3.536,0,1,1,3.536,0" fill="#4e79a7" stroke-width="2" opacity="0.55"/><path aria-label="date: Oct 17, 2025; count: 12; Date: Oct 17, 2025; Daily unique: 12; 7d avg: 14.1428571429" role="graphics-symbol" aria-roledescription="point" transform="translate(1487.7777777777778,375.2727272727273)" d="M3.536,0A3.536,3.536,0,1,1,-3.536,0A3.536,3.536,0,1,1,3.536,0" fill="#4e79a7" stroke-width="2" opacity="0.55"/><path aria-label="date: Oct 18, 2025; count: 3; Date: Oct 18, 2025; Daily unique: 3; 7d avg: 13.2857142857" role="graphics-symbol" aria-roledescription="point" transform="translate(1525.9259259259259,453.8181818181818)" d="M3.536,0A3.536,3.536,0,1,1,-3.536,0A3.536,3.536,0,1,1,3.536,0" fill="#4e79a7" stroke-width="2" opacity="0.55"/><path aria-label="date: Oct 19, 2025; count: 6; Date: Oct 19, 2025; Daily unique: 6; 7d avg: 12" role="graphics-symbol" aria-roledescription="point" transform="translate(1564.0740740740741,427.6363636363636)" d="M3.536,0A3.536,3.536,0,1,1,-3.536,0A3.536,3.536,0,1,1,3.536,0" fill="#4e79a7" stroke-width="2" opacity="0.55"/><path aria-label="date: Oct 20, 2025; count: 13; Date: Oct 20, 2025; Daily unique: 13; 7d avg: 11.7142857143" role="graphics-symbol" aria-roledescription="point" transform="translate(1602.2222222222222,366.54545454545456)" d="M3.536,0A3.536,3.536,0,1,1,-3.536,0A3.536,3.536,0,1,1,3.536,0" fill="#4e79a7" stroke-width="2" opacity="0.55"/><path aria-label="date: Oct 21, 2025; count: 10; Date: Oct 21, 2025; Daily unique: 10; 7d avg: 11.2857142857" role="graphics-symbol" aria-roledescription="point" transform="translate(1640.3703703703704,392.7272727272727)" d="M3.536,0A3.536,3.536,0,1,1,-3.536,0A3.536,3.536,0,1,1,3.536,0" fill="#4e79a7" stroke-width="2" opacity="0.55"/><path aria-label="date: Oct 22, 2025; count: 17; Date: Oct 22, 2025; Daily unique: 17; 7d avg: 11" role="graphics-symbol" aria-roledescription="point" transform="translate(1678.5185185185185,331.6363636363636)" d="M3.536,0A3.536,3.536,0,1,1,-3.536,0A3.536,3.536,0,1,1,3.536,0" fill="#4e79a7" stroke-width="2" opacity="0.55"/><path aria-label="date: Oct 23, 2025; count: 12; Date: Oct 23, 2025; Daily unique: 12; 7d avg: 10.4285714286" role="graphics-symbol" aria-roledescription="point" transform="translate(1716.6666666666667,375.2727272727273)" d="M3.536,0A3.536,3.536,0,1,1,-3.536,0A3.536,3.536,0,1,1,3.536,0" fill="#4e79a7" stroke-width="2" opacity="0.55"/><path aria-label="date: Oct 24, 2025; count: 13; Date: Oct 24, 2025; Daily unique: 13; 7d avg: 10.5714285714" role="graphics-symbol" aria-roledescription="point" transform="translate(1754.8148148148148,366.54545454545456)" d="M3.536,0A3.536,3.536,0,1,1,-3.536,0A3.536,3.536,0,1,1,3.536,0" fill="#4e79a7" stroke-width="2" opacity="0.55"/><path aria-label="date: Oct 25, 2025; count: 15; Date: Oct 25, 2025; Daily unique: 15; 7d avg: 12.2857142857" role="graphics-symbol" aria-roledescription="point" transform="translate(1792.9629629629628,349.0909090909091)" d="M3.536,0A3.536,3.536,0,1,1,-3.536,0A3.536,3.536,0,1,1,3.536,0" fill="#4e79a7" stroke-width="2" opacity="0.55"/><path aria-label="date: Oct 26, 2025; count: 10; Date: Oct 26, 2025; Daily unique: 10; 7d avg: 12.8571428571" role="graphics-symbol" aria-roledescription="point" transform="translate(1831.111111111111,392.7272727272727)" d="M3.536,0A3.536,3.536,0,1,1,-3.536,0A3.536,3.536,0,1,1,3.536,0" fill="#4e79a7" stroke-width="2" opacity="0.55"/><path aria-label="date: Oct 27, 2025; count: 15; Date: Oct 27, 2025; Daily unique: 15; 7d avg: 13.1428571429" role="graphics-symbol" aria-roledescription="point" transform="translate(1869.2592592592594,349.0909090909091)" d="M3.536,0A3.536,3.536,0,1,1,-3.536,0A3.536,3.536,0,1,1,3.536,0" fill="#4e79a7" stroke-width="2" opacity="0.55"/><path aria-label="date: Oct 28, 2025; count: 28; Date: Oct 28, 2025; Daily unique: 28; 7d avg: 15.7142857143" role="graphics-symbol" aria-roledescription="point" transform="translate(1907.4074074074074,235.63636363636365)" d="M3.536,0A3.536,3.536,0,1,1,-3.536,0A3.536,3.536,0,1,1,3.536,0" fill="#4e79a7" stroke-width="2" opacity="0.55"/><path aria-label="date: Oct 29, 2025; count: 10; Date: Oct 29, 2025; Daily unique: 10; 7d avg: 14.7142857143" role="graphics-symbol" aria-roledescription="point" transform="translate(1945.5555555555554,392.7272727272727)" d="M3.536,0A3.536,3.536,0,1,1,-3.536,0A3.536,3.536,0,1,1,3.536,0" fill="#4e79a7" stroke-width="2" opacity="0.55"/><path aria-label="date: Oct 30, 2025; count: 15; Date: Oct 30, 2025; Daily unique: 15; 7d avg: 15.1428571429" role="graphics-symbol" aria-roledescription="point" transform="translate(1983.7037037037037,349.0909090909091)" d="M3.536,0A3.536,3.536,0,1,1,-3.536,0A3.536,3.536,0,1,1,3.536,0" fill="#4e79a7" stroke-width="2" opacity="0.55"/><path aria-label="date: Oct 31, 2025; count: 17; Date: Oct 31, 2025; Daily unique: 17; 7d avg: 15.7142857143" role="graphics-symbol" aria-roledescription="point" transform="translate(2021.851851851852,331.6363636363636)" d="M3.536,0A3.536,3.536,0,1,1,-3.536,0A3.536,3.536,0,1,1,3.536,0" fill="#4e79a7" stroke-width="2" opacity="0.55"/><path aria-label="date: Nov 01, 2025; count: 3; Date: Nov 01, 2025; Daily unique: 3; 7d avg: 14" role="graphics-symbol" aria-roledescription="point" transform="translate(2060,453.8181818181818)" d="M3.536,0A3.536,3.536,0,1,1,-3.536,0A3.536,3.536,0,1,1,3.536,0" fill="#4e79a7" stroke-width="2" opacity="0.55"/></g><g class="mark-path role-mark layer_3_voronoi" aria-hidden="true"><path transform="translate(0,0)" d="M0,297.10604390465494L21.856743683920556,305.29509502697044L24.405382638658267,306.7325740869654L148.11360070764755,449.0342016374901L168.18534149972808,480L0,480Z" stroke-width="0.35"/><path transform="translate(0,0)" d="M72.19646598375635,0L0,105.19366764351328L0,0Z" stroke-width="0.35"/><path transform="translate(0,0)" d="M244.04165769832144,0L218.78535844834283,64.39934071231362L0,128.1554649720802L0,105.19366764351328L72.19646598375635,0Z" stroke-width="0.35"/><path transform="translate(0,0)" d="M221.39795014642522,87.23935918397518L21.856743683920556,305.29509502697044L0,297.10604390465494L0,128.1554649720802L218.78535844834283,64.39934071231362Z" stroke-width="0.35"/><path transform="translate(0,0)" d="M245.52206634201332,164.3806704269668L204.56509797736933,241.10726625557402L24.405382638658267,306.7325740869654L21.856743683920556,305.29509502697044L221.39795014642522,87.23935918397518L245.79701487331917,163.41919917397436Z" stroke-width="0.35"/><path transform="translate(0,0)" d="M204.56509797736933,241.10726625557402L226.05660376112473,278.6842354731587L148.11360070764755,449.0342016374901L24.405382638658267,306.7325740869654Z" stroke-width="0.35"/><path transform="translate(0,0)" d="M358.80192107446413,372.77354951976974L348.2888347179609,480L168.18534149972808,480L148.11360070764755,449.0342016374901L226.05660376112473,278.6842354731587L326.5270998897477,341.42292160285984Z" stroke-width="0.35"/><path transform="translate(0,0)" d="M245.52206634201332,164.3806704269668L326.5270998897477,341.42292160285984L226.05660376112473,278.6842354731587L204.56509797736933,241.10726625557402Z" stroke-width="0.35"/><path transform="translate(0,0)" d="M363.01012462207996,365.1091098665921L358.80192107446413,372.77354951976974L326.5270998897477,341.42292160285984L245.52206634201332,164.3806704269668L245.79701487331917,163.41919917397436L359.73240178016874,204.9215118557711L369.19784520013997,329.0459029996067Z" stroke-width="0.35"/><path transform="translate(0,0)" d="M302.51043236127083,0L386.5277547862661,183.62582235246845L359.73240178016874,204.9215118557711L245.79701487331917,163.41919917397436L221.39795014642522,87.23935918397518L218.78535844834283,64.39934071231362L244.04165769832144,0Z" stroke-width="0.35"/><path transform="translate(0,0)" d="M553.7120027710005,127.41150820043138L386.5277547862661,183.62582235246845L302.51043236127083,0L599.7363245982519,0L596.2331699334904,56.14688347083572L566.676855503687,120.74430679060309Z" stroke-width="0.35"/><path transform="translate(0,0)" d="M553.7120027710005,127.41150820043138L369.19784520013997,329.0459029996067L359.73240178016874,204.9215118557711L386.5277547862661,183.62582235246845Z" stroke-width="0.35"/><path transform="translate(0,0)" d="M564.2146191541779,208.89487155505662L536.1133193660643,261.53834486843743L503.99754817964873,296.6339937440247L363.01012462207996,365.1091098665921L369.19784520013997,329.0459029996067L553.7120027710005,127.41150820043138L566.676855503687,120.74430679060309L569.4556044707148,193.62214428232954Z" stroke-width="0.35"/><path transform="translate(0,0)" d="M503.99754817964873,296.6339937440247L545.946770440504,480L348.2888347179609,480L358.80192107446413,372.77354951976974L363.01012462207996,365.1091098665921Z" stroke-width="0.35"/><path transform="translate(0,0)" d="M536.1133193660643,261.53834486843743L571.1972646440872,414.8952507326351L546.3735650116939,480L545.946770440504,480L503.99754817964873,296.6339937440247Z" stroke-width="0.35"/><path transform="translate(0,0)" d="M564.2146191541779,208.89487155505662L601.3058001313518,371.0256896381511L571.1972646440872,414.8952507326351L536.1133193660643,261.53834486843743Z" stroke-width="0.35"/><path transform="translate(0,0)" d="M564.2146191541779,208.89487155505662L569.4556044707148,193.62214428232954L674.771069130057,325.1503866313537L601.3058001313518,371.0256896381511Z" stroke-width="0.35"/><path transform="translate(0,0)" d="M704.0413696640823,363.4808986642835L650.7284816389847,480L546.3735650116939,480L571.1972646440872,414.8952507326351L601.3058001313518,371.0256896381511L674.771069130057,325.1503866313537L696.8494006532842,332.04378103606496Z" stroke-width="0.35"/><path transform="translate(0,0)" d="M765.7320530003378,277.29908048246523L696.8494006532842,332.04378103606496L674.771069130057,325.1503866313537L569.4556044707148,193.62214428232954L566.676855503687,120.74430679060309L596.2331699334904,56.14688347083572L759.2441701381338,220.58016626273468Z" stroke-width="0.35"/><path transform="translate(0,0)" d="M650.7284816389847,480L704.0413696640823,363.4808986642835L802.8251357351093,425.16630814316L809.0973744505959,480Z" stroke-width="0.35"/><path transform="translate(0,0)" d="M840.1290683006733,327.32983685430776L802.8251357351093,425.16630814316L704.0413696640823,363.4808986642835L696.8494006532842,332.04378103606496L765.7320530003378,277.29908048246523Z" stroke-width="0.35"/><path transform="translate(0,0)" d="M882.292123351788,0L854.4183745799154,182.76016989890942L759.2441701381338,220.58016626273468L596.2331699334904,56.14688347083572L599.7363245982519,0Z" stroke-width="0.35"/><path transform="translate(0,0)" d="M898.2641474960006,225.35041399520966L891.4375866779503,314.8700136115405L840.1290683006733,327.32983685430776L765.7320530003378,277.29908048246523L759.2441701381338,220.58016626273468L854.4183745799154,182.76016989890942Z" stroke-width="0.35"/><path transform="translate(0,0)" d="M941.5947667097352,340.6634436115461L997.3785813415116,480L809.0973744505959,480L802.8251357351093,425.16630814316L840.1290683006733,327.32983685430776L891.4375866779503,314.8700136115405Z" stroke-width="0.35"/><path transform="translate(0,0)" d="M972.7777777777778,192.77944828947918L898.2641474960006,225.35041399520966L854.4183745799154,182.76016989890942L882.292123351788,0L1053.8520913756572,0L1018.992213247509,152.37747654009232Z" stroke-width="0.35"/><path transform="translate(0,0)" d="M972.7777777777778,192.77944828947918L972.7777777777778,313.40236989233904L941.5947667097352,340.6634436115461L891.4375866779503,314.8700136115405L898.2641474960006,225.35041399520966Z" stroke-width="0.35"/><path transform="translate(0,0)" d="M972.7777777777778,192.77944828947918L1018.992213247509,152.37747654009232L1054.0273820031102,244.2636945958705L1021.0611817328497,292.29700851845917L972.7777777777778,313.40236989233904Z" stroke-width="0.35"/><path transform="translate(0,0)" d="M1021.0611817328497,292.29700851845917L1104.1047337155017,383.0457974809825L1098.5596036861702,480L997.3785813415116,480L941.5947667097352,340.6634436115461L972.7777777777778,313.40236989233904Z" stroke-width="0.35"/><path transform="translate(0,0)" d="M1021.0611817328497,292.29700851845917L1054.0273820031102,244.2636945958705L1092.8594889019648,259.6946630008938L1130.3236782994063,314.28175994958406L1104.1047337155017,383.0457974809825Z" stroke-width="0.35"/><path transform="translate(0,0)" d="M1018.992213247509,152.37747654009232L1053.8520913756572,0L1348.7343514580937,0L1331.0853548726454,51.4308465311546L1092.8594889019648,259.6946630008938L1054.0273820031102,244.2636945958705Z" stroke-width="0.35"/><path transform="translate(0,0)" d="M1092.8594889019648,259.6946630008938L1331.0853548726454,51.4308465311546L1316.111111111111,116.88539198570115L1170.995751255816,298.1196321929862L1130.3236782994063,314.28175994958406Z" stroke-width="0.35"/><path transform="translate(0,0)" d="M1130.3236782994063,314.28175994958406L1170.995751255816,298.1196321929862L1229.679559007891,362.2484460269954L1148.8643706853768,480L1098.5596036861702,480L1104.1047337155017,383.0457974809825Z" stroke-width="0.35"/><path transform="translate(0,0)" d="M1170.995751255816,298.1196321929862L1316.111111111111,116.88539198570115L1316.111111111111,206.57313489836622L1248.6831636458733,353.9417006354699L1229.679559007891,362.2484460269954Z" stroke-width="0.35"/><path transform="translate(0,0)" d="M1148.8643706853768,480L1229.679559007891,362.2484460269954L1248.6831636458733,353.9417006354699L1316.111111111111,403.0645558811712L1326.5786123666794,418.3162005861079L1345.3940766892224,480Z" stroke-width="0.35"/><path transform="translate(0,0)" d="M1248.6831636458733,353.9417006354699L1316.111111111111,206.57313489836622L1316.1111111111113,206.5731348983666L1316.111111111111,403.0645558811712Z" stroke-width="0.35"/><path transform="translate(0,0)" d="M1316.111111111111,403.0645558811712L1316.1111111111113,206.5731348983666L1369.7859938009099,323.8834012709398L1326.5786123666794,418.3162005861079Z" stroke-width="0.35"/><path transform="translate(0,0)" d="M1345.3940766892224,480L1326.5786123666794,418.3162005861079L1369.7859938009099,323.8834012709398L1411.8498086682257,354.52788573896254L1428.176577997472,402.10563689646193L1424.1654879068824,454.7047696816214L1409.6983129322052,480Z" stroke-width="0.35"/><path transform="translate(0,0)" d="M1331.0853548726454,51.4308465311546L1348.7343514580937,0L1566.1065531114957,0L1556.731536388646,143.42835190764103L1411.8498086682257,354.52788573896254L1369.7859938009099,323.8834012709398L1316.1111111111113,206.5731348983666L1316.111111111111,206.57313489836622L1316.111111111111,116.88539198570115Z" stroke-width="0.35"/><path transform="translate(0,0)" d="M1411.8498086682257,354.52788573896254L1556.731536388646,143.42835190764103L1557.682565093012,168.3708408439049L1538.2095622072675,281.86318790948405L1428.176577997472,402.10563689646193Z" stroke-width="0.35"/><path transform="translate(0,0)" d="M1424.1654879068824,454.7047696816214L1428.176577997472,402.10563689646193L1538.2095622072675,281.86318790948405L1545.1889867192074,373.3873542524006L1521.9861435775822,407.1949947866872Z" stroke-width="0.35"/><path transform="translate(0,0)" d="M1409.6983129322052,480L1424.1654879068824,454.7047696816214L1521.9861435775822,407.1949947866872L1571.9536387707612,480Z" stroke-width="0.35"/><path transform="translate(0,0)" d="M1571.9536387707612,480L1521.9861435775822,407.1949947866872L1545.1889867192074,373.3873542524006L1601.466275345393,408.52964261961176L1634.167275580162,480Z" stroke-width="0.35"/><path transform="translate(0,0)" d="M1538.2095622072675,281.86318790948405L1557.682565093012,168.3708408439049L1641.1263172471997,350.7430846531155L1601.466275345393,408.52964261961176L1545.1889867192074,373.3873542524006Z" stroke-width="0.35"/><path transform="translate(0,0)" d="M1634.167275580162,480L1601.466275345393,408.52964261961176L1641.1263172471997,350.7430846531155L1675.8742138458233,372.44136884967645L1700.480742702102,480Z" stroke-width="0.35"/><path transform="translate(0,0)" d="M1556.731536388646,143.42835190764103L1566.1065531114957,0L1674.0009153018862,0L1757.344642541924,198.71305337323858L1743.2812119429066,290.92293108554696L1726.0551063245973,328.57180775519254L1675.8742138458233,372.44136884967645L1641.1263172471997,350.7430846531155L1557.682565093012,168.3708408439049Z" stroke-width="0.35"/><path transform="translate(0,0)" d="M1759.2474060998334,480L1700.480742702102,480L1675.8742138458233,372.44136884967645L1726.0551063245973,328.57180775519254L1759.8275691305525,476.19603753585216Z" stroke-width="0.35"/><path transform="translate(0,0)" d="M1759.8275691305525,476.19603753585216L1726.0551063245973,328.57180775519254L1743.2812119429066,290.92293108554696L1789.066715148798,390.99039854749736Z" stroke-width="0.35"/><path transform="translate(0,0)" d="M1743.2812119429066,290.92293108554696L1757.344642541924,198.71305337323858L1831.111111111111,273.12313963471377L1831.111111111111,354.2339937440245L1789.066715148798,390.99039854749736Z" stroke-width="0.35"/><path transform="translate(0,0)" d="M1759.2474060998334,480L1759.8275691305525,476.19603753585216L1789.066715148798,390.99039854749736L1831.111111111111,354.2339937440245L1888.3333333333333,404.2592852392236L1888.3333333333333,480Z" stroke-width="0.35"/><path transform="translate(0,0)" d="M1831.111111111111,354.2339937440245L1831.111111111111,273.12313963471377L1926.4814814814815,305.19063418291813L1926.4814814814815,337.55889657895824L1888.3333333333333,404.2592852392236Z" stroke-width="0.35"/><path transform="translate(0,0)" d="M2060,169.94251932909333L1972.5190834674559,274.23111195469585L1926.4814814814815,305.19063418291813L1831.111111111111,273.12313963471377L1757.344642541924,198.71305337323858L1674.0009153018862,0L2060,0Z" stroke-width="0.35"/><path transform="translate(0,0)" d="M1888.3333333333333,480L1888.3333333333333,404.2592852392236L1926.4814814814815,337.55889657895824L2009.6978590635013,410.30901679533844L1972.496529282231,480Z" stroke-width="0.35"/><path transform="translate(0,0)" d="M1926.4814814814815,305.19063418291813L1972.5190834674559,274.23111195469585L2028.5102375624442,396.6037539099846L2009.6978590635013,410.30901679533844L1926.4814814814815,337.55889657895824Z" stroke-width="0.35"/><path transform="translate(0,0)" d="M2060,386.77188088260624L2028.5102375624442,396.6037539099846L1972.5190834674559,274.23111195469585L2060,169.94251932909333Z" stroke-width="0.35"/><path transform="translate(0,0)" d="M2060,480L1972.496529282231,480L2009.6978590635013,410.30901679533844L2028.5102375624442,396.6037539099846L2060,386.77188088260624Z" stroke-width="0.35"/></g><g class="mark-symbol role-mark layer_4_marks" role="graphics-object" aria-roledescription="symbol mark container"><path aria-label="date: Sep 08, 2025; count: 1; Peak date: Sep 08, 2025; Peak unique count: 1" role="graphics-symbol" aria-roledescription="point" transform="translate(0,471.27272727272725)" d="M-5.916,0L0,-5.916L5.916,0L0,5.916Z" fill="#ff9900" stroke="#b36b00" stroke-width="1.5" opacity="0"/><path aria-label="date: Sep 09, 2025; count: 54; Peak date: Sep 09, 2025; Peak unique count: 54" role="graphics-symbol" aria-roledescription="point" transform="translate(38.148148148148145,8.72727272727273)" d="M-5.916,0L0,-5.916L5.916,0L0,5.916Z" fill="#ff9900" stroke="#b36b00" stroke-width="1.5" opacity="1"/><path aria-label="date: Sep 10, 2025; count: 51; Peak date: Sep 10, 2025; Peak unique count: 51" role="graphics-symbol" aria-roledescription="point" transform="translate(76.29629629629629,34.90909090909092)" d="M-5.916,0L0,-5.916L5.916,0L0,5.916Z" fill="#ff9900" stroke="#b36b00" stroke-width="1.5" opacity="0"/><path aria-label="date: Sep 11, 2025; count: 36; Peak date: Sep 11, 2025; Peak unique count: 36" role="graphics-symbol" aria-roledescription="point" transform="translate(114.44444444444444,165.8181818181818)" d="M-5.916,0L0,-5.916L5.916,0L0,5.916Z" fill="#ff9900" stroke="#b36b00" stroke-width="1.5" opacity="0"/><path aria-label="date: Sep 12, 2025; count: 32; Peak date: Sep 12, 2025; Peak unique count: 32" role="graphics-symbol" aria-roledescription="point" transform="translate(152.59259259259258,200.72727272727275)" d="M-5.916,0L0,-5.916L5.916,0L0,5.916Z" fill="#ff9900" stroke="#b36b00" stroke-width="1.5" opacity="0"/><path aria-label="date: Sep 13, 2025; count: 20; Peak date: Sep 13, 2025; Peak unique count: 20" role="graphics-symbol" aria-roledescription="point" transform="translate(190.74074074074073,305.45454545454544)" d="M-5.916,0L0,-5.916L5.916,0L0,5.916Z" fill="#ff9900" stroke="#b36b00" stroke-width="1.5" opacity="0"/><path aria-label="date: Sep 14, 2025; count: 18; Peak date: Sep 14, 2025; Peak unique count: 18" role="graphics-symbol" aria-roledescription="point" transform="translate(228.88888888888889,322.90909090909093)" d="M-5.916,0L0,-5.916L5.916,0L0,5.916Z" fill="#ff9900" stroke="#b36b00" stroke-width="1.5" opacity="0"/><path aria-label="date: Sep 15, 2025; count: 25; Peak date: Sep 15, 2025; Peak unique count: 25" role="graphics-symbol" aria-roledescription="point" transform="translate(267.037037037037,261.8181818181818)" d="M-5.916,0L0,-5.916L5.916,0L0,5.916Z" fill="#ff9900" stroke="#b36b00" stroke-width="1.5" opacity="0"/><path aria-label="date: Sep 16, 2025; count: 27; Peak date: Sep 16, 2025; Peak unique count: 27" role="graphics-symbol" aria-roledescription="point" transform="translate(305.18518518518516,244.36363636363635)" d="M-5.916,0L0,-5.916L5.916,0L0,5.916Z" fill="#ff9900" stroke="#b36b00" stroke-width="1.5" opacity="0"/><path aria-label="date: Sep 17, 2025; count: 39; Peak date: Sep 17, 2025; Peak unique count: 39" role="graphics-symbol" aria-roledescription="point" transform="translate(343.3333333333333,139.63636363636363)" d="M-5.916,0L0,-5.916L5.916,0L0,5.916Z" fill="#ff9900" stroke="#b36b00" stroke-width="1.5" opacity="0"/><path aria-label="date: Sep 18, 2025; count: 41; Peak date: Sep 18, 2025; Peak unique count: 41" role="graphics-symbol" aria-roledescription="point" transform="translate(381.48148148148147,122.18181818181817)" d="M-5.916,0L0,-5.916L5.916,0L0,5.916Z" fill="#ff9900" stroke="#b36b00" stroke-width="1.5" opacity="0"/><path aria-label="date: Sep 19, 2025; count: 28; Peak date: Sep 19, 2025; Peak unique count: 28" role="graphics-symbol" aria-roledescription="point" transform="translate(419.6296296296296,235.63636363636365)" d="M-5.916,0L0,-5.916L5.916,0L0,5.916Z" fill="#ff9900" stroke="#b36b00" stroke-width="1.5" opacity="0"/><path aria-label="date: Sep 20, 2025; count: 24; Peak date: Sep 20, 2025; Peak unique count: 24" role="graphics-symbol" aria-roledescription="point" transform="translate(457.77777777777777,270.54545454545456)" d="M-5.916,0L0,-5.916L5.916,0L0,5.916Z" fill="#ff9900" stroke="#b36b00" stroke-width="1.5" opacity="0"/><path aria-label="date: Sep 21, 2025; count: 15; Peak date: Sep 21, 2025; Peak unique count: 15" role="graphics-symbol" aria-roledescription="point" transform="translate(495.9259259259259,349.0909090909091)" d="M-5.916,0L0,-5.916L5.916,0L0,5.916Z" fill="#ff9900" stroke="#b36b00" stroke-width="1.5" opacity="0"/><path aria-label="date: Sep 22, 2025; count: 16; Peak date: Sep 22, 2025; Peak unique count: 16" role="graphics-symbol" aria-roledescription="point" transform="translate(534.074074074074,340.3636363636364)" d="M-5.916,0L0,-5.916L5.916,0L0,5.916Z" fill="#ff9900" stroke="#b36b00" stroke-width="1.5" opacity="0"/><path aria-label="date: Sep 23, 2025; count: 17; Peak date: Sep 23, 2025; Peak unique count: 17" role="graphics-symbol" aria-roledescription="point" transform="translate(572.2222222222223,331.6363636363636)" d="M-5.916,0L0,-5.916L5.916,0L0,5.916Z" fill="#ff9900" stroke="#b36b00" stroke-width="1.5" opacity="0"/><path aria-label="date: Sep 24, 2025; count: 18; Peak date: Sep 24, 2025; Peak unique count: 18" role="graphics-symbol" aria-roledescription="point" transform="translate(610.3703703703703,322.90909090909093)" d="M-5.916,0L0,-5.916L5.916,0L0,5.916Z" fill="#ff9900" stroke="#b36b00" stroke-width="1.5" opacity="0"/><path aria-label="date: Sep 25, 2025; count: 11; Peak date: Sep 25, 2025; Peak unique count: 11" role="graphics-symbol" aria-roledescription="point" transform="translate(648.5185185185186,384)" d="M-5.916,0L0,-5.916L5.916,0L0,5.916Z" fill="#ff9900" stroke="#b36b00" stroke-width="1.5" opacity="0"/><path aria-label="date: Sep 26, 2025; count: 25; Peak date: Sep 26, 2025; Peak unique count: 25" role="graphics-symbol" aria-roledescription="point" transform="translate(686.6666666666666,261.8181818181818)" d="M-5.916,0L0,-5.916L5.916,0L0,5.916Z" fill="#ff9900" stroke="#b36b00" stroke-width="1.5" opacity="0"/><path aria-label="date: Sep 27, 2025; count: 7; Peak date: Sep 27, 2025; Peak unique count: 7" role="graphics-symbol" aria-roledescription="point" transform="translate(724.8148148148148,418.90909090909093)" d="M-5.916,0L0,-5.916L5.916,0L0,5.916Z" fill="#ff9900" stroke="#b36b00" stroke-width="1.5" opacity="0"/><path aria-label="date: Sep 28, 2025; count: 14; Peak date: Sep 28, 2025; Peak unique count: 14" role="graphics-symbol" aria-roledescription="point" transform="translate(762.9629629629629,357.8181818181818)" d="M-5.916,0L0,-5.916L5.916,0L0,5.916Z" fill="#ff9900" stroke="#b36b00" stroke-width="1.5" opacity="0"/><path aria-label="date: Sep 29, 2025; count: 38; Peak date: Sep 29, 2025; Peak unique count: 38" role="graphics-symbol" aria-roledescription="point" transform="translate(801.1111111111111,148.36363636363637)" d="M-5.916,0L0,-5.916L5.916,0L0,5.916Z" fill="#ff9900" stroke="#b36b00" stroke-width="1.5" opacity="0"/><path aria-label="date: Sep 30, 2025; count: 27; Peak date: Sep 30, 2025; Peak unique count: 27" role="graphics-symbol" aria-roledescription="point" transform="translate(839.2592592592592,244.36363636363635)" d="M-5.916,0L0,-5.916L5.916,0L0,5.916Z" fill="#ff9900" stroke="#b36b00" stroke-width="1.5" opacity="0"/><path aria-label="date: Oct 01, 2025; count: 9; Peak date: Oct 01, 2025; Peak unique count: 9" role="graphics-symbol" aria-roledescription="point" transform="translate(877.4074074074074,401.4545454545455)" d="M-5.916,0L0,-5.916L5.916,0L0,5.916Z" fill="#ff9900" stroke="#b36b00" stroke-width="1.5" opacity="0"/><path aria-label="date: Oct 02, 2025; count: 36; Peak date: Oct 02, 2025; Peak unique count: 36" role="graphics-symbol" aria-roledescription="point" transform="translate(915.5555555555555,165.8181818181818)" d="M-5.916,0L0,-5.916L5.916,0L0,5.916Z" fill="#ff9900" stroke="#b36b00" stroke-width="1.5" opacity="0"/><path aria-label="date: Oct 03, 2025; count: 26; Peak date: Oct 03, 2025; Peak unique count: 26" role="graphics-symbol" aria-roledescription="point" transform="translate(953.7037037037037,253.09090909090912)" d="M-5.916,0L0,-5.916L5.916,0L0,5.916Z" fill="#ff9900" stroke="#b36b00" stroke-width="1.5" opacity="0"/><path aria-label="date: Oct 04, 2025; count: 26; Peak date: Oct 04, 2025; Peak unique count: 26" role="graphics-symbol" aria-roledescription="point" transform="translate(991.8518518518518,253.09090909090912)" d="M-5.916,0L0,-5.916L5.916,0L0,5.916Z" fill="#ff9900" stroke="#b36b00" stroke-width="1.5" opacity="0"/><path aria-label="date: Oct 05, 2025; count: 16; Peak date: Oct 05, 2025; Peak unique count: 16" role="graphics-symbol" aria-roledescription="point" transform="translate(1030,340.3636363636364)" d="M-5.916,0L0,-5.916L5.916,0L0,5.916Z" fill="#ff9900" stroke="#b36b00" stroke-width="1.5" opacity="0"/><path aria-label="date: Oct 06, 2025; count: 20; Peak date: Oct 06, 2025; Peak unique count: 20" role="graphics-symbol" aria-roledescription="point" transform="translate(1068.148148148148,305.45454545454544)" d="M-5.916,0L0,-5.916L5.916,0L0,5.916Z" fill="#ff9900" stroke="#b36b00" stroke-width="1.5" opacity="0"/><path aria-label="date: Oct 07, 2025; count: 31; Peak date: Oct 07, 2025; Peak unique count: 31" role="graphics-symbol" aria-roledescription="point" transform="translate(1106.2962962962963,209.45454545454547)" d="M-5.916,0L0,-5.916L5.916,0L0,5.916Z" fill="#ff9900" stroke="#b36b00" stroke-width="1.5" opacity="0"/><path aria-label="date: Oct 08, 2025; count: 26; Peak date: Oct 08, 2025; Peak unique count: 26" role="graphics-symbol" aria-roledescription="point" transform="translate(1144.4444444444446,253.09090909090912)" d="M-5.916,0L0,-5.916L5.916,0L0,5.916Z" fill="#ff9900" stroke="#b36b00" stroke-width="1.5" opacity="0"/><path aria-label="date: Oct 09, 2025; count: 15; Peak date: Oct 09, 2025; Peak unique count: 15" role="graphics-symbol" aria-roledescription="point" transform="translate(1182.5925925925926,349.0909090909091)" d="M-5.916,0L0,-5.916L5.916,0L0,5.916Z" fill="#ff9900" stroke="#b36b00" stroke-width="1.5" opacity="0"/><path aria-label="date: Oct 10, 2025; count: 19; Peak date: Oct 10, 2025; Peak unique count: 19" role="graphics-symbol" aria-roledescription="point" transform="translate(1220.7407407407406,314.1818181818182)" d="M-5.916,0L0,-5.916L5.916,0L0,5.916Z" fill="#ff9900" stroke="#b36b00" stroke-width="1.5" opacity="0"/><path aria-label="date: Oct 11, 2025; count: 9; Peak date: Oct 11, 2025; Peak unique count: 9" role="graphics-symbol" aria-roledescription="point" transform="translate(1258.888888888889,401.4545454545455)" d="M-5.916,0L0,-5.916L5.916,0L0,5.916Z" fill="#ff9900" stroke="#b36b00" stroke-width="1.5" opacity="0"/><path aria-label="date: Oct 12, 2025; count: 15; Peak date: Oct 12, 2025; Peak unique count: 15" role="graphics-symbol" aria-roledescription="point" transform="translate(1297.0370370370372,349.0909090909091)" d="M-5.916,0L0,-5.916L5.916,0L0,5.916Z" fill="#ff9900" stroke="#b36b00" stroke-width="1.5" opacity="0"/><path aria-label="date: Oct 13, 2025; count: 15; Peak date: Oct 13, 2025; Peak unique count: 15" role="graphics-symbol" aria-roledescription="point" transform="translate(1335.1851851851852,349.0909090909091)" d="M-5.916,0L0,-5.916L5.916,0L0,5.916Z" fill="#ff9900" stroke="#b36b00" stroke-width="1.5" opacity="0"/><path aria-label="date: Oct 14, 2025; count: 13; Peak date: Oct 14, 2025; Peak unique count: 13" role="graphics-symbol" aria-roledescription="point" transform="translate(1373.3333333333333,366.54545454545456)" d="M-5.916,0L0,-5.916L5.916,0L0,5.916Z" fill="#ff9900" stroke="#b36b00" stroke-width="1.5" opacity="0"/><path aria-label="date: Oct 15, 2025; count: 19; Peak date: Oct 15, 2025; Peak unique count: 19" role="graphics-symbol" aria-roledescription="point" transform="translate(1411.4814814814815,314.1818181818182)" d="M-5.916,0L0,-5.916L5.916,0L0,5.916Z" fill="#ff9900" stroke="#b36b00" stroke-width="1.5" opacity="0"/><path aria-label="date: Oct 16, 2025; count: 16; Peak date: Oct 16, 2025; Peak unique count: 16" role="graphics-symbol" aria-roledescription="point" transform="translate(1449.6296296296296,340.3636363636364)" d="M-5.916,0L0,-5.916L5.916,0L0,5.916Z" fill="#ff9900" stroke="#b36b00" stroke-width="1.5" opacity="0"/><path aria-label="date: Oct 17, 2025; count: 12; Peak date: Oct 17, 2025; Peak unique count: 12" role="graphics-symbol" aria-roledescription="point" transform="translate(1487.7777777777778,375.2727272727273)" d="M-5.916,0L0,-5.916L5.916,0L0,5.916Z" fill="#ff9900" stroke="#b36b00" stroke-width="1.5" opacity="0"/><path aria-label="date: Oct 18, 2025; count: 3; Peak date: Oct 18, 2025; Peak unique count: 3" role="graphics-symbol" aria-roledescription="point" transform="translate(1525.9259259259259,453.8181818181818)" d="M-5.916,0L0,-5.916L5.916,0L0,5.916Z" fill="#ff9900" stroke="#b36b00" stroke-width="1.5" opacity="0"/><path aria-label="date: Oct 19, 2025; count: 6; Peak date: Oct 19, 2025; Peak unique count: 6" role="graphics-symbol" aria-roledescription="point" transform="translate(1564.0740740740741,427.6363636363636)" d="M-5.916,0L0,-5.916L5.916,0L0,5.916Z" fill="#ff9900" stroke="#b36b00" stroke-width="1.5" opacity="0"/><path aria-label="date: Oct 20, 2025; count: 13; Peak date: Oct 20, 2025; Peak unique count: 13" role="graphics-symbol" aria-roledescription="point" transform="translate(1602.2222222222222,366.54545454545456)" d="M-5.916,0L0,-5.916L5.916,0L0,5.916Z" fill="#ff9900" stroke="#b36b00" stroke-width="1.5" opacity="0"/><path aria-label="date: Oct 21, 2025; count: 10; Peak date: Oct 21, 2025; Peak unique count: 10" role="graphics-symbol" aria-roledescription="point" transform="translate(1640.3703703703704,392.7272727272727)" d="M-5.916,0L0,-5.916L5.916,0L0,5.916Z" fill="#ff9900" stroke="#b36b00" stroke-width="1.5" opacity="0"/><path aria-label="date: Oct 22, 2025; count: 17; Peak date: Oct 22, 2025; Peak unique count: 17" role="graphics-symbol" aria-roledescription="point" transform="translate(1678.5185185185185,331.6363636363636)" d="M-5.916,0L0,-5.916L5.916,0L0,5.916Z" fill="#ff9900" stroke="#b36b00" stroke-width="1.5" opacity="0"/><path aria-label="date: Oct 23, 2025; count: 12; Peak date: Oct 23, 2025; Peak unique count: 12" role="graphics-symbol" aria-roledescription="point" transform="translate(1716.6666666666667,375.2727272727273)" d="M-5.916,0L0,-5.916L5.916,0L0,5.916Z" fill="#ff9900" stroke="#b36b00" stroke-width="1.5" opacity="0"/><path aria-label="date: Oct 24, 2025; count: 13; Peak date: Oct 24, 2025; Peak unique count: 13" role="graphics-symbol" aria-roledescription="point" transform="translate(1754.8148148148148,366.54545454545456)" d="M-5.916,0L0,-5.916L5.916,0L0,5.916Z" fill="#ff9900" stroke="#b36b00" stroke-width="1.5" opacity="0"/><path aria-label="date: Oct 25, 2025; count: 15; Peak date: Oct 25, 2025; Peak unique count: 15" role="graphics-symbol" aria-roledescription="point" transform="translate(1792.9629629629628,349.0909090909091)" d="M-5.916,0L0,-5.916L5.916,0L0,5.916Z" fill="#ff9900" stroke="#b36b00" stroke-width="1.5" opacity="0"/><path aria-label="date: Oct 26, 2025; count: 10; Peak date: Oct 26, 2025; Peak unique count: 10" role="graphics-symbol" aria-roledescription="point" transform="translate(1831.111111111111,392.7272727272727)" d="M-5.916,0L0,-5.916L5.916,0L0,5.916Z" fill="#ff9900" stroke="#b36b00" stroke-width="1.5" opacity="0"/><path aria-label="date: Oct 27, 2025; count: 15; Peak date: Oct 27, 2025; Peak unique count: 15" role="graphics-symbol" aria-roledescription="point" transform="translate(1869.2592592592594,349.0909090909091)" d="M-5.916,0L0,-5.916L5.916,0L0,5.916Z" fill="#ff9900" stroke="#b36b00" stroke-width="1.5" opacity="0"/><path aria-label="date: Oct 28, 2025; count: 28; Peak date: Oct 28, 2025; Peak unique count: 28" role="graphics-symbol" aria-roledescription="point" transform="translate(1907.4074074074074,235.63636363636365)" d="M-5.916,0L0,-5.916L5.916,0L0,5.916Z" fill="#ff9900" stroke="#b36b00" stroke-width="1.5" opacity="0"/><path aria-label="date: Oct 29, 2025; count: 10; Peak date: Oct 29, 2025; Peak unique count: 10" role="graphics-symbol" aria-roledescription="point" transform="translate(1945.5555555555554,392.7272727272727)" d="M-5.916,0L0,-5.916L5.916,0L0,5.916Z" fill="#ff9900" stroke="#b36b00" stroke-width="1.5" opacity="0"/><path aria-label="date: Oct 30, 2025; count: 15; Peak date: Oct 30, 2025; Peak unique count: 15" role="graphics-symbol" aria-roledescription="point" transform="translate(1983.7037037037037,349.0909090909091)" d="M-5.916,0L0,-5.916L5.916,0L0,5.916Z" fill="#ff9900" stroke="#b36b00" stroke-width="1.5" opacity="0"/><path aria-label="date: Oct 31, 2025; count: 17; Peak date: Oct 31, 2025; Peak unique count: 17" role="graphics-symbol" aria-roledescription="point" transform="translate(2021.851851851852,331.6363636363636)" d="M-5.916,0L0,-5.916L5.916,0L0,5.916Z" fill="#ff9900" stroke="#b36b00" stroke-width="1.5" opacity="0"/><path aria-label="date: Nov 01, 2025; count: 3; Peak date: Nov 01, 2025; Peak unique count: 3" role="graphics-symbol" aria-roledescription="point" transform="translate(2060,453.8181818181818)" d="M-5.916,0L0,-5.916L5.916,0L0,5.916Z" fill="#ff9900" stroke="#b36b00" stroke-width="1.5" opacity="0"/></g><g class="mark-rule role-mark layer_5_marks" role="graphics-symbol" aria-roledescription="rule mark container" pointer-events="none"><line transform="translate(2060,306.4145454545455)" x2="-2060" y2="0" stroke="#d62728" stroke-width="1.5" stroke-dasharray="4,4"/><line transform="translate(2060,306.4145454545455)" x2="-2060" y2="0" stroke="#d62728" stroke-width="1.5" stroke-dasharray="4,4"/><line transform="translate(2060,306.4145454545455)" x2="-2060" y2="0" stroke="#d62728" stroke-width="1.5" stroke-dasharray="4,4"/><line transform="translate(2060,306.4145454545455)" x2="-2060" y2="0" stroke="#d62728" stroke-width="1.5" stroke-dasharray="4,4"/><line transform="translate(2060,306.4145454545455)" x2="-2060" y2="0" stroke="#d62728" stroke-width="1.5" stroke-dasharray="4,4"/><line transform="translate(2060,306.4145454545455)" x2="-2060" y2="0" stroke="#d62728" stroke-width="1.5" stroke-dasharray="4,4"/><line transform="translate(2060,306.4145454545455)" x2="-2060" y2="0" stroke="#d62728" stroke-width="1.5" stroke-dasharray="4,4"/><line transform="translate(2060,306.4145454545455)" x2="-2060" y2="0" stroke="#d62728" stroke-width="1.5" stroke-dasharray="4,4"/><line transform="translate(2060,306.4145454545455)" x2="-2060" y2="0" stroke="#d62728" stroke-width="1.5" stroke-dasharray="4,4"/><line transform="translate(2060,306.4145454545455)" x2="-2060" y2="0" stroke="#d62728" stroke-width="1.5" stroke-dasharray="4,4"/><line transform="translate(2060,306.4145454545455)" x2="-2060" y2="0" stroke="#d62728" stroke-width="1.5" stroke-dasharray="4,4"/><line transform="translate(2060,306.4145454545455)" x2="-2060" y2="0" stroke="#d62728" stroke-width="1.5" stroke-dasharray="4,4"/><line transform="translate(2060,306.4145454545455)" x2="-2060" y2="0" stroke="#d62728" stroke-width="1.5" stroke-dasharray="4,4"/><line transform="translate(2060,306.4145454545455)" x2="-2060" y2="0" stroke="#d62728" stroke-width="1.5" stroke-dasharray="4,4"/><line transform="translate(2060,306.4145454545455)" x2="-2060" y2="0" stroke="#d62728" stroke-width="1.5" stroke-dasharray="4,4"/><line transform="translate(2060,306.4145454545455)" x2="-2060" y2="0" stroke="#d62728" stroke-width="1.5" stroke-dasharray="4,4"/><line transform="translate(2060,306.4145454545455)" x2="-2060" y2="0" stroke="#d62728" stroke-width="1.5" stroke-dasharray="4,4"/><line transform="translate(2060,306.4145454545455)" x2="-2060" y2="0" stroke="#d62728" stroke-width="1.5" stroke-dasharray="4,4"/><line transform="translate(2060,306.4145454545455)" x2="-2060" y2="0" stroke="#d62728" stroke-width="1.5" stroke-dasharray="4,4"/><line transform="translate(2060,306.4145454545455)" x2="-2060" y2="0" stroke="#d62728" stroke-width="1.5" stroke-dasharray="4,4"/><line transform="translate(2060,306.4145454545455)" x2="-2060" y2="0" stroke="#d62728" stroke-width="1.5" stroke-dasharray="4,4"/><line transform="translate(2060,306.4145454545455)" x2="-2060" y2="0" stroke="#d62728" stroke-width="1.5" stroke-dasharray="4,4"/><line transform="translate(2060,306.4145454545455)" x2="-2060" y2="0" stroke="#d62728" stroke-width="1.5" stroke-dasharray="4,4"/><line transform="translate(2060,306.4145454545455)" x2="-2060" y2="0" stroke="#d62728" stroke-width="1.5" stroke-dasharray="4,4"/><line transform="translate(2060,306.4145454545455)" x2="-2060" y2="0" stroke="#d62728" stroke-width="1.5" stroke-dasharray="4,4"/><line transform="translate(2060,306.4145454545455)" x2="-2060" y2="0" stroke="#d62728" stroke-width="1.5" stroke-dasharray="4,4"/><line transform="translate(2060,306.4145454545455)" x2="-2060" y2="0" stroke="#d62728" stroke-width="1.5" stroke-dasharray="4,4"/><line transform="translate(2060,306.4145454545455)" x2="-2060" y2="0" stroke="#d62728" stroke-width="1.5" stroke-dasharray="4,4"/><line transform="translate(2060,306.4145454545455)" x2="-2060" y2="0" stroke="#d62728" stroke-width="1.5" stroke-dasharray="4,4"/><line transform="translate(2060,306.4145454545455)" x2="-2060" y2="0" stroke="#d62728" stroke-width="1.5" stroke-dasharray="4,4"/><line transform="translate(2060,306.4145454545455)" x2="-2060" y2="0" stroke="#d62728" stroke-width="1.5" stroke-dasharray="4,4"/><line transform="translate(2060,306.4145454545455)" x2="-2060" y2="0" stroke="#d62728" stroke-width="1.5" stroke-dasharray="4,4"/><line transform="translate(2060,306.4145454545455)" x2="-2060" y2="0" stroke="#d62728" stroke-width="1.5" stroke-dasharray="4,4"/><line transform="translate(2060,306.4145454545455)" x2="-2060" y2="0" stroke="#d62728" stroke-width="1.5" stroke-dasharray="4,4"/><line transform="translate(2060,306.4145454545455)" x2="-2060" y2="0" stroke="#d62728" stroke-width="1.5" stroke-dasharray="4,4"/><line transform="translate(2060,306.4145454545455)" x2="-2060" y2="0" stroke="#d62728" stroke-width="1.5" stroke-dasharray="4,4"/><line transform="translate(2060,306.4145454545455)" x2="-2060" y2="0" stroke="#d62728" stroke-width="1.5" stroke-dasharray="4,4"/><line transform="translate(2060,306.4145454545455)" x2="-2060" y2="0" stroke="#d62728" stroke-width="1.5" stroke-dasharray="4,4"/><line transform="translate(2060,306.4145454545455)" x2="-2060" y2="0" stroke="#d62728" stroke-width="1.5" stroke-dasharray="4,4"/><line transform="translate(2060,306.4145454545455)" x2="-2060" y2="0" stroke="#d62728" stroke-width="1.5" stroke-dasharray="4,4"/><line transform="translate(2060,306.4145454545455)" x2="-2060" y2="0" stroke="#d62728" stroke-width="1.5" stroke-dasharray="4,4"/><line transform="translate(2060,306.4145454545455)" x2="-2060" y2="0" stroke="#d62728" stroke-width="1.5" stroke-dasharray="4,4"/><line transform="translate(2060,306.4145454545455)" x2="-2060" y2="0" stroke="#d62728" stroke-width="1.5" stroke-dasharray="4,4"/><line transform="translate(2060,306.4145454545455)" x2="-2060" y2="0" stroke="#d62728" stroke-width="1.5" stroke-dasharray="4,4"/><line transform="translate(2060,306.4145454545455)" x2="-2060" y2="0" stroke="#d62728" stroke-width="1.5" stroke-dasharray="4,4"/><line transform="translate(2060,306.4145454545455)" x2="-2060" y2="0" stroke="#d62728" stroke-width="1.5" stroke-dasharray="4,4"/><line transform="translate(2060,306.4145454545455)" x2="-2060" y2="0" stroke="#d62728" stroke-width="1.5" stroke-dasharray="4,4"/><line transform="translate(2060,306.4145454545455)" x2="-2060" y2="0" stroke="#d62728" stroke-width="1.5" stroke-dasharray="4,4"/><line transform="translate(2060,306.4145454545455)" x2="-2060" y2="0" stroke="#d62728" stroke-width="1.5" stroke-dasharray="4,4"/><line transform="translate(2060,306.4145454545455)" x2="-2060" y2="0" stroke="#d62728" stroke-width="1.5" stroke-dasharray="4,4"/><line transform="translate(2060,306.4145454545455)" x2="-2060" y2="0" stroke="#d62728" stroke-width="1.5" stroke-dasharray="4,4"/><line transform="translate(2060,306.4145454545455)" x2="-2060" y2="0" stroke="#d62728" stroke-width="1.5" stroke-dasharray="4,4"/><line transform="translate(2060,306.4145454545455)" x2="-2060" y2="0" stroke="#d62728" stroke-width="1.5" stroke-dasharray="4,4"/><line transform="translate(2060,306.4145454545455)" x2="-2060" y2="0" stroke="#d62728" stroke-width="1.5" stroke-dasharray="4,4"/><line transform="translate(2060,306.4145454545455)" x2="-2060" y2="0" stroke="#d62728" stroke-width="1.5" stroke-dasharray="4,4"/></g><g class="mark-text role-mark layer_6_marks" role="graphics-object" aria-roledescription="text mark container" pointer-events="none"><text aria-label="date: Nov 01, 2025" role="graphics-symbol" aria-roledescription="text mark" text-anchor="start" transform="translate(2066,304.4145454545455)" font-family="sans-serif" font-size="12px" fill="#d62728">Avg: 19.89</text></g></g><path class="foreground" aria-hidden="true" d="" display="none"/></g></g></g></svg>
