<svg xmlns="http://www.w3.org/2000/svg" xmlns:xlink="http://www.w3.org/1999/xlink" version="1.1" class="marks" width="2367" height="573" viewBox="0 0 2367 573"><rect width="2367" height="573" fill="white"/><g fill="none" stroke-miterlimit="10" transform="translate(51,11)"><g class="mark-group role-frame root" role="graphics-object" aria-roledescription="group mark container"><g transform="translate(0,0)"><path class="background" aria-hidden="true" d="M0.5,0.5h2240v480h-2240Z"/><g><g class="mark-group role-axis" aria-hidden="true"><g transform="translate(0.5,0.5)"><path class="background" aria-hidden="true" d="M0,0h0v0h0Z" pointer-events="none"/><g><g class="mark-rule role-axis-grid" pointer-events="none"><line transform="translate(0,480)" x2="2240" y2="0" stroke="#ddd" stroke-width="1" opacity="1"/><line transform="translate(0,436)" x2="2240" y2="0" stroke="#ddd" stroke-width="1" opacity="1"/><line transform="translate(0,393)" x2="2240" y2="0" stroke="#ddd" stroke-width="1" opacity="1"/><line transform="translate(0,349)" x2="2240" y2="0" stroke="#ddd" stroke-width="1" opacity="1"/><line transform="translate(0,305)" x2="2240" y2="0" stroke="#ddd" stroke-width="1" opacity="1"/><line transform="translate(0,262)" x2="2240" y2="0" stroke="#ddd" stroke-width="1" opacity="1"/><line transform="translate(0,218)" x2="2240" y2="0" stroke="#ddd" stroke-width="1" opacity="1"/><line transform="translate(0,175)" x2="2240" y2="0" stroke="#ddd" stroke-width="1" opacity="1"/><line transform="translate(0,131)" x2="2240" y2="0" stroke="#ddd" stroke-width="1" opacity="1"/><line transform="translate(0,87)" x2="2240" y2="0" stroke="#ddd" stroke-width="1" opacity="1"/><line transform="translate(0,44)" x2="2240" y2="0" stroke="#ddd" stroke-width="1" opacity="1"/><line transform="translate(0,0)" x2="2240" y2="0" stroke="#ddd" stroke-width="1" opacity="1"/></g></g><path class="foreground" aria-hidden="true" d="" pointer-events="none" display="none"/></g></g><g class="mark-group role-axis" role="graphics-symbol" aria-roledescription="axis" aria-label="X-axis titled 'Date' for a time scale with values from 2025-09-08 to 2025-11-06"><g transform="translate(0.5,480.5)"><path class="background" aria-hidden="true" d="M0,0h0v0h0Z" pointer-events="none"/><g><g class="mark-rule role-axis-tick" pointer-events="none"><line transform="translate(0,0)" x2="0" y2="5" stroke="#bbb" stroke-width="1" opacity="1"/><line transform="translate(38,0)" x2="0" y2="5" stroke="#bbb" stroke-width="1" opacity="1"/><line transform="translate(76,0)" x2="0" y2="5" stroke="#bbb" stroke-width="1" opacity="1"/><line transform="translate(114,0)" x2="0" y2="5" stroke="#bbb" stroke-width="1" opacity="1"/><line transform="translate(152,0)" x2="0" y2="5" stroke="#bbb" stroke-width="1" opacity="1"/><line transform="translate(190,0)" x2="0" y2="5" stroke="#bbb" stroke-width="1" opacity="1"/><line transform="translate(228,0)" x2="0" y2="5" stroke="#bbb" stroke-width="1" opacity="1"/><line transform="translate(266,0)" x2="0" y2="5" stroke="#bbb" stroke-width="1" opacity="1"/><line transform="translate(304,0)" x2="0" y2="5" stroke="#bbb" stroke-width="1" opacity="1"/><line transform="translate(342,0)" x2="0" y2="5" stroke="#bbb" stroke-width="1" opacity="1"/><line transform="translate(380,0)" x2="0" y2="5" stroke="#bbb" stroke-width="1" opacity="1"/><line transform="translate(418,0)" x2="0" y2="5" stroke="#bbb" stroke-width="1" opacity="1"/><line transform="translate(456,0)" x2="0" y2="5" stroke="#bbb" stroke-width="1" opacity="1"/><line transform="translate(494,0)" x2="0" y2="5" stroke="#bbb" stroke-width="1" opacity="1"/><line transform="translate(532,0)" x2="0" y2="5" stroke="#bbb" stroke-width="1" opacity="1"/><line transform="translate(569,0)" x2="0" y2="5" stroke="#bbb" stroke-width="1" opacity="1"/><line transform="translate(607,0)" x2="0" y2="5" stroke="#bbb" stroke-width="1" opacity="1"/><line transform="translate(645,0)" x2="0" y2="5" stroke="#bbb" stroke-width="1" opacity="1"/><line transform="translate(683,0)" x2="0" y2="5" stroke="#bbb" stroke-width="1" opacity="1"/><line transform="translate(721,0)" x2="0" y2="5" stroke="#bbb" stroke-width="1" opacity="1"/><line transform="translate(759,0)" x2="0" y2="5" stroke="#bbb" stroke-width="1" opacity="1"/><line transform="translate(797,0)" x2="0" y2="5" stroke="#bbb" stroke-width="1" opacity="1"/><line transform="translate(835,0)" x2="0" y2="5" stroke="#bbb" stroke-width="1" opacity="1"/><line transform="translate(873,0)" x2="0" y2="5" stroke="#bbb" stroke-width="1" opacity="1"/><line transform="translate(911,0)" x2="0" y2="5" stroke="#bbb" stroke-width="1" opacity="1"/><line transform="translate(949,0)" x2="0" y2="5" stroke="#bbb" stroke-width="1" opacity="1"/><line transform="translate(987,0)" x2="0" y2="5" stroke="#bbb" stroke-width="1" opacity="1"/><line transform="translate(1025,0)" x2="0" y2="5" stroke="#bbb" stroke-width="1" opacity="1"/><line transform="translate(1063,0)" x2="0" y2="5" stroke="#bbb" stroke-width="1" opacity="1"/><line transform="translate(1101,0)" x2="0" y2="5" stroke="#bbb" stroke-width="1" opacity="1"/><line transform="translate(1139,0)" x2="0" y2="5" stroke="#bbb" stroke-width="1" opacity="1"/><line transform="translate(1177,0)" x2="0" y2="5" stroke="#bbb" stroke-width="1" opacity="1"/><line transform="translate(1215,0)" x2="0" y2="5" stroke="#bbb" stroke-width="1" opacity="1"/><line transform="translate(1253,0)" x2="0" y2="5" stroke="#bbb" stroke-width="1" opacity="1"/><line transform="translate(1291,0)" x2="0" y2="5" stroke="#bbb" stroke-width="1" opacity="1"/><line transform="translate(1329,0)" x2="0" y2="5" stroke="#bbb" stroke-width="1" opacity="1"/><line transform="translate(1367,0)" x2="0" y2="5" stroke="#bbb" stroke-width="1" opacity="1"/><line transform="translate(1405,0)" x2="0" y2="5" stroke="#bbb" stroke-width="1" opacity="1"/><line transform="translate(1443,0)" x2="0" y2="5" stroke="#bbb" stroke-width="1" opacity="1"/><line transform="translate(1481,0)" x2="0" y2="5" stroke="#bbb" stroke-width="1" opacity="1"/><line transform="translate(1519,0)" x2="0" y2="5" stroke="#bbb" stroke-width="1" opacity="1"/><line transform="translate(1557,0)" x2="0" y2="5" stroke="#bbb" stroke-width="1" opacity="1"/><line transform="translate(1595,0)" x2="0" y2="5" stroke="#bbb" stroke-width="1" opacity="1"/><line transform="translate(1633,0)" x2="0" y2="5" stroke="#bbb" stroke-width="1" opacity="1"/><line transform="translate(1671,0)" x2="0" y2="5" stroke="#bbb" stroke-width="1" opacity="1"/><line transform="translate(1708,0)" x2="0" y2="5" stroke="#bbb" stroke-width="1" opacity="1"/><line transform="translate(1746,0)" x2="0" y2="5" stroke="#bbb" stroke-width="1" opacity="1"/><line transform="translate(1784,0)" x2="0" y2="5" stroke="#bbb" stroke-width="1" opacity="1"/><line transform="translate(1822,0)" x2="0" y2="5" stroke="#bbb" stroke-width="1" opacity="1"/><line transform="translate(1860,0)" x2="0" y2="5" stroke="#bbb" stroke-width="1" opacity="1"/><line transform="translate(1898,0)" x2="0" y2="5" stroke="#bbb" stroke-width="1" opacity="1"/><line transform="translate(1936,0)" x2="0" y2="5" stroke="#bbb" stroke-width="1" opacity="1"/><line transform="translate(1974,0)" x2="0" y2="5" stroke="#bbb" stroke-width="1" opacity="1"/><line transform="translate(2012,0)" x2="0" y2="5" stroke="#bbb" stroke-width="1" opacity="1"/><line transform="translate(2050,0)" x2="0" y2="5" stroke="#bbb" stroke-width="1" opacity="1"/><line transform="translate(2088,0)" x2="0" y2="5" stroke="#bbb" stroke-width="1" opacity="1"/><line transform="translate(2126,0)" x2="0" y2="5" stroke="#bbb" stroke-width="1" opacity="1"/><line transform="translate(2164,0)" x2="0" y2="5" stroke="#bbb" stroke-width="1" opacity="1"/><line transform="translate(2202,0)" x2="0" y2="5" stroke="#bbb" stroke-width="1" opacity="1"/><line transform="translate(2240,0)" x2="0" y2="5" stroke="#bbb" stroke-width="1" opacity="1"/></g><g class="mark-text role-axis-label" pointer-events="none"><text text-anchor="end" transform="translate(0,7) rotate(315) translate(0,9)" font-family="Segoe UI" font-size="11px" fill="#000" opacity="1">2025-09-08</text><text text-anchor="end" transform="translate(37.96610169491525,7) rotate(315) translate(0,9)" font-family="Segoe UI" font-size="11px" fill="#000" opacity="0">2025-09-09</text><text text-anchor="end" transform="translate(75.9322033898305,7) rotate(315) translate(0,9)" font-family="Segoe UI" font-size="11px" fill="#000" opacity="1">2025-09-10</text><text text-anchor="end" transform="translate(113.89830508474577,7) rotate(315) translate(0,9)" font-family="Segoe UI" font-size="11px" fill="#000" opacity="0">2025-09-11</text><text text-anchor="end" transform="translate(151.864406779661,7) rotate(315) translate(0,9)" font-family="Segoe UI" font-size="11px" fill="#000" opacity="1">2025-09-12</text><text text-anchor="end" transform="translate(189.83050847457628,7) rotate(315) translate(0,9)" font-family="Segoe UI" font-size="11px" fill="#000" opacity="0">2025-09-13</text><text text-anchor="end" transform="translate(227.79661016949154,7) rotate(315) translate(0,9)" font-family="Segoe UI" font-size="11px" fill="#000" opacity="1">2025-09-14</text><text text-anchor="end" transform="translate(265.7627118644068,7) rotate(315) translate(0,9)" font-family="Segoe UI" font-size="11px" fill="#000" opacity="0">2025-09-15</text><text text-anchor="end" transform="translate(303.728813559322,7) rotate(315) translate(0,9)" font-family="Segoe UI" font-size="11px" fill="#000" opacity="1">2025-09-16</text><text text-anchor="end" transform="translate(341.6949152542373,7) rotate(315) translate(0,9)" font-family="Segoe UI" font-size="11px" fill="#000" opacity="0">2025-09-17</text><text text-anchor="end" transform="translate(379.66101694915255,7) rotate(315) translate(0,9)" font-family="Segoe UI" font-size="11px" fill="#000" opacity="1">2025-09-18</text><text text-anchor="end" transform="translate(417.6271186440678,7) rotate(315) translate(0,9)" font-family="Segoe UI" font-size="11px" fill="#000" opacity="0">2025-09-19</text><text text-anchor="end" transform="translate(455.5932203389831,7) rotate(315) translate(0,9)" font-family="Segoe UI" font-size="11px" fill="#000" opacity="1">2025-09-20</text><text text-anchor="end" transform="translate(493.5593220338983,7) rotate(315) translate(0,9)" font-family="Segoe UI" font-size="11px" fill="#000" opacity="0">2025-09-21</text><text text-anchor="end" transform="translate(531.5254237288136,7) rotate(315) translate(0,9)" font-family="Segoe UI" font-size="11px" fill="#000" opacity="1">2025-09-22</text><text text-anchor="end" transform="translate(569.4915254237288,7) rotate(315) translate(0,9)" font-family="Segoe UI" font-size="11px" fill="#000" opacity="0">2025-09-23</text><text text-anchor="end" transform="translate(607.457627118644,7) rotate(315) translate(0,9)" font-family="Segoe UI" font-size="11px" fill="#000" opacity="1">2025-09-24</text><text text-anchor="end" transform="translate(645.4237288135594,7) rotate(315) translate(0,9)" font-family="Segoe UI" font-size="11px" fill="#000" opacity="0">2025-09-25</text><text text-anchor="end" transform="translate(683.3898305084746,7) rotate(315) translate(0,9)" font-family="Segoe UI" font-size="11px" fill="#000" opacity="1">2025-09-26</text><text text-anchor="end" transform="translate(721.3559322033898,7) rotate(315) translate(0,9)" font-family="Segoe UI" font-size="11px" fill="#000" opacity="0">2025-09-27</text><text text-anchor="end" transform="translate(759.3220338983051,7) rotate(315) translate(0,9)" font-family="Segoe UI" font-size="11px" fill="#000" opacity="1">2025-09-28</text><text text-anchor="end" transform="translate(797.2881355932203,7) rotate(315) translate(0,9)" font-family="Segoe UI" font-size="11px" fill="#000" opacity="0">2025-09-29</text><text text-anchor="end" transform="translate(835.2542372881356,7) rotate(315) translate(0,9)" font-family="Segoe UI" font-size="11px" fill="#000" opacity="1">2025-09-30</text><text text-anchor="end" transform="translate(873.2203389830509,7) rotate(315) translate(0,9)" font-family="Segoe UI" font-size="11px" fill="#000" opacity="0">2025-10-01</text><text text-anchor="end" transform="translate(911.1864406779662,7) rotate(315) translate(0,9)" font-family="Segoe UI" font-size="11px" fill="#000" opacity="1">2025-10-02</text><text text-anchor="end" transform="translate(949.1525423728813,7) rotate(315) translate(0,9)" font-family="Segoe UI" font-size="11px" fill="#000" opacity="0">2025-10-03</text><text text-anchor="end" transform="translate(987.1186440677966,7) rotate(315) translate(0,9)" font-family="Segoe UI" font-size="11px" fill="#000" opacity="1">2025-10-04</text><text text-anchor="end" transform="translate(1025.084745762712,7) rotate(315) translate(0,9)" font-family="Segoe UI" font-size="11px" fill="#000" opacity="0">2025-10-05</text><text text-anchor="end" transform="translate(1063.0508474576272,7) rotate(315) translate(0,9)" font-family="Segoe UI" font-size="11px" fill="#000" opacity="1">2025-10-06</text><text text-anchor="end" transform="translate(1101.0169491525423,7) rotate(315) translate(0,9)" font-family="Segoe UI" font-size="11px" fill="#000" opacity="0">2025-10-07</text><text text-anchor="end" transform="translate(1138.9830508474577,7) rotate(315) translate(0,9)" font-family="Segoe UI" font-size="11px" fill="#000" opacity="1">2025-10-08</text><text text-anchor="end" transform="translate(1176.949152542373,7) rotate(315) translate(0,9)" font-family="Segoe UI" font-size="11px" fill="#000" opacity="0">2025-10-09</text><text text-anchor="end" transform="translate(1214.915254237288,7) rotate(315) translate(0,9)" font-family="Segoe UI" font-size="11px" fill="#000" opacity="1">2025-10-10</text><text text-anchor="end" transform="translate(1252.8813559322032,7) rotate(315) translate(0,9)" font-family="Segoe UI" font-size="11px" fill="#000" opacity="0">2025-10-11</text><text text-anchor="end" transform="translate(1290.8474576271187,7) rotate(315) translate(0,9)" font-family="Segoe UI" font-size="11px" fill="#000" opacity="1">2025-10-12</text><text text-anchor="end" transform="translate(1328.8135593220338,7) rotate(315) translate(0,9)" font-family="Segoe UI" font-size="11px" fill="#000" opacity="0">2025-10-13</text><text text-anchor="end" transform="translate(1366.7796610169491,7) rotate(315) translate(0,9)" font-family="Segoe UI" font-size="11px" fill="#000" opacity="1">2025-10-14</text><text text-anchor="end" transform="translate(1404.7457627118645,7) rotate(315) translate(0,9)" font-family="Segoe UI" font-size="11px" fill="#000" opacity="0">2025-10-15</text><text text-anchor="end" transform="translate(1442.7118644067796,7) rotate(315) translate(0,9)" font-family="Segoe UI" font-size="11px" fill="#000" opacity="1">2025-10-16</text><text text-anchor="end" transform="translate(1480.677966101695,7) rotate(315) translate(0,9)" font-family="Segoe UI" font-size="11px" fill="#000" opacity="0">2025-10-17</text><text text-anchor="end" transform="translate(1518.6440677966102,7) rotate(315) translate(0,9)" font-family="Segoe UI" font-size="11px" fill="#000" opacity="1">2025-10-18</text><text text-anchor="end" transform="translate(1556.6101694915255,7) rotate(315) translate(0,9)" font-family="Segoe UI" font-size="11px" fill="#000" opacity="0">2025-10-19</text><text text-anchor="end" transform="translate(1594.5762711864406,7) rotate(315) translate(0,9)" font-family="Segoe UI" font-size="11px" fill="#000" opacity="1">2025-10-20</text><text text-anchor="end" transform="translate(1632.5423728813557,7) rotate(315) translate(0,9)" font-family="Segoe UI" font-size="11px" fill="#000" opacity="0">2025-10-21</text><text text-anchor="end" transform="translate(1670.5084745762713,7) rotate(315) translate(0,9)" font-family="Segoe UI" font-size="11px" fill="#000" opacity="1">2025-10-22</text><text text-anchor="end" transform="translate(1708.4745762711864,7) rotate(315) translate(0,9)" font-family="Segoe UI" font-size="11px" fill="#000" opacity="0">2025-10-23</text><text text-anchor="end" transform="translate(1746.4406779661017,7) rotate(315) translate(0,9)" font-family="Segoe UI" font-size="11px" fill="#000" opacity="1">2025-10-24</text><text text-anchor="end" transform="translate(1784.406779661017,7) rotate(315) translate(0,9)" font-family="Segoe UI" font-size="11px" fill="#000" opacity="0">2025-10-25</text><text text-anchor="end" transform="translate(1822.3728813559323,7) rotate(315) translate(0,9)" font-family="Segoe UI" font-size="11px" fill="#000" opacity="1">2025-10-26</text><text text-anchor="end" transform="translate(1860.3389830508474,7) rotate(315) translate(0,9)" font-family="Segoe UI" font-size="11px" fill="#000" opacity="0">2025-10-27</text><text text-anchor="end" transform="translate(1898.3050847457625,7) rotate(315) translate(0,9)" font-family="Segoe UI" font-size="11px" fill="#000" opacity="1">2025-10-28</text><text text-anchor="end" transform="translate(1936.271186440678,7) rotate(315) translate(0,9)" font-family="Segoe UI" font-size="11px" fill="#000" opacity="0">2025-10-29</text><text text-anchor="end" transform="translate(1974.2372881355932,7) rotate(315) translate(0,9)" font-family="Segoe UI" font-size="11px" fill="#000" opacity="1">2025-10-30</text><text text-anchor="end" transform="translate(2012.2033898305085,7) rotate(315) translate(0,9)" font-family="Segoe UI" font-size="11px" fill="#000" opacity="0">2025-10-31</text><text text-anchor="end" transform="translate(2050.169491525424,7) rotate(315) translate(0,9)" font-family="Segoe UI" font-size="11px" fill="#000" opacity="1">2025-11-01</text><text text-anchor="end" transform="translate(2088.1355932203387,7) rotate(315) translate(0,9)" font-family="Segoe UI" font-size="11px" fill="#000" opacity="0">2025-11-02</text><text text-anchor="end" transform="translate(2126.1016949152545,7) rotate(315) translate(0,9)" font-family="Segoe UI" font-size="11px" fill="#000" opacity="1">2025-11-03</text><text text-anchor="end" transform="translate(2164.0677966101694,7) rotate(315) translate(0,9)" font-family="Segoe UI" font-size="11px" fill="#000" opacity="0">2025-11-04</text><text text-anchor="end" transform="translate(2202.0338983050847,7) rotate(315) translate(0,9)" font-family="Segoe UI" font-size="11px" fill="#000" opacity="1">2025-11-05</text><text text-anchor="end" transform="translate(2240,7) rotate(315) translate(0,9)" font-family="Segoe UI" font-size="11px" fill="#000" opacity="0">2025-11-06</text></g><g class="mark-rule role-axis-domain" pointer-events="none"><line transform="translate(0,0)" x2="2240" y2="0" stroke="#888" stroke-width="1" opacity="1"/></g><g class="mark-text role-axis-title" pointer-events="none"><text text-anchor="middle" transform="translate(1120,73.9777658717112)" font-family="Segoe UI" font-size="13px" font-weight="bold" fill="#000" opacity="1">Date</text></g></g><path class="foreground" aria-hidden="true" d="" pointer-events="none" display="none"/></g></g><g class="mark-group role-axis" role="graphics-symbol" aria-roledescription="axis" aria-label="Y-axis titled 'Unique server names' for a linear scale with values from 0 to 55"><g transform="translate(0.5,0.5)"><path class="background" aria-hidden="true" d="M0,0h0v0h0Z" pointer-events="none"/><g><g class="mark-rule role-axis-tick" pointer-events="none"><line transform="translate(0,480)" x2="-5" y2="0" stroke="#bbb" stroke-width="1" opacity="1"/><line transform="translate(0,436)" x2="-5" y2="0" stroke="#bbb" stroke-width="1" opacity="1"/><line transform="translate(0,393)" x2="-5" y2="0" stroke="#bbb" stroke-width="1" opacity="1"/><line transform="translate(0,349)" x2="-5" y2="0" stroke="#bbb" stroke-width="1" opacity="1"/><line transform="translate(0,305)" x2="-5" y2="0" stroke="#bbb" stroke-width="1" opacity="1"/><line transform="translate(0,262)" x2="-5" y2="0" stroke="#bbb" stroke-width="1" opacity="1"/><line transform="translate(0,218)" x2="-5" y2="0" stroke="#bbb" stroke-width="1" opacity="1"/><line transform="translate(0,175)" x2="-5" y2="0" stroke="#bbb" stroke-width="1" opacity="1"/><line transform="translate(0,131)" x2="-5" y2="0" stroke="#bbb" stroke-width="1" opacity="1"/><line transform="translate(0,87)" x2="-5" y2="0" stroke="#bbb" stroke-width="1" opacity="1"/><line transform="translate(0,44)" x2="-5" y2="0" stroke="#bbb" stroke-width="1" opacity="1"/><line transform="translate(0,0)" x2="-5" y2="0" stroke="#bbb" stroke-width="1" opacity="1"/></g><g class="mark-text role-axis-label" pointer-events="none"><text text-anchor="end" transform="translate(-7,483)" font-family="Segoe UI" font-size="11px" fill="#000" opacity="1">0</text><text text-anchor="end" transform="translate(-7,439.3636363636364)" font-family="Segoe UI" font-size="11px" fill="#000" opacity="1">5</text><text text-anchor="end" transform="translate(-7,395.7272727272727)" font-family="Segoe UI" font-size="11px" fill="#000" opacity="1">10</text><text text-anchor="end" transform="translate(-7,352.0909090909091)" font-family="Segoe UI" font-size="11px" fill="#000" opacity="1">15</text><text text-anchor="end" transform="translate(-7,308.45454545454544)" font-family="Segoe UI" font-size="11px" fill="#000" opacity="1">20</text><text text-anchor="end" transform="translate(-7,264.8181818181818)" font-family="Segoe UI" font-size="11px" fill="#000" opacity="1">25</text><text text-anchor="end" transform="translate(-7,221.1818181818182)" font-family="Segoe UI" font-size="11px" fill="#000" opacity="1">30</text><text text-anchor="end" transform="translate(-7,177.54545454545456)" font-family="Segoe UI" font-size="11px" fill="#000" opacity="1">35</text><text text-anchor="end" transform="translate(-7,133.9090909090909)" font-family="Segoe UI" font-size="11px" fill="#000" opacity="1">40</text><text text-anchor="end" transform="translate(-7,90.27272727272725)" font-family="Segoe UI" font-size="11px" fill="#000" opacity="1">45</text><text text-anchor="end" transform="translate(-7,46.636363636363654)" font-family="Segoe UI" font-size="11px" fill="#000" opacity="1">50</text><text text-anchor="end" transform="translate(-7,3)" font-family="Segoe UI" font-size="11px" fill="#000" opacity="1">55</text></g><g class="mark-rule role-axis-domain" pointer-events="none"><line transform="translate(0,480)" x2="0" y2="-480" stroke="#888" stroke-width="1" opacity="1"/></g><g class="mark-text role-axis-title" pointer-events="none"><text text-anchor="middle" transform="translate(-24.99609375,240) rotate(-90) translate(0,-3)" font-family="Segoe UI" font-size="13px" font-weight="bold" fill="#000" opacity="1">Unique server names</text></g></g><path class="foreground" aria-hidden="true" d="" pointer-events="none" display="none"/></g></g><g class="mark-area role-mark layer_0_marks" role="graphics-object" aria-roledescription="area mark container" pointer-events="none"><path aria-label="date: 2025-09-08; count: 1" role="graphics-symbol" aria-roledescription="area mark" d="M0,471.273C12.655,240,25.311,8.727,37.966,8.727C50.621,8.727,63.277,17.455,75.932,34.909C88.588,52.364,101.243,142.545,113.898,165.818C126.554,189.091,139.209,177.455,151.864,200.727C164.52,224,177.175,293.818,189.831,305.455C202.486,317.091,215.141,322.909,227.797,322.909C240.452,322.909,253.107,273.455,265.763,261.818C278.418,250.182,291.073,256,303.729,244.364C316.384,232.727,329.04,151.273,341.695,139.636C354.35,128,367.006,122.182,379.661,122.182C392.316,122.182,404.972,212.364,417.627,235.636C430.282,258.909,442.938,251.636,455.593,270.545C468.249,289.455,480.904,349.091,493.559,349.091C506.215,349.091,518.87,343.273,531.525,340.364C544.181,337.455,556.836,334.545,569.492,331.636C582.147,328.727,594.802,322.909,607.458,322.909C620.113,322.909,632.768,384,645.424,384C658.079,384,670.734,261.818,683.39,261.818C696.045,261.818,708.701,418.909,721.356,418.909C734.011,418.909,746.667,398.545,759.322,357.818C771.977,317.091,784.633,148.364,797.288,148.364C809.944,148.364,822.599,202.182,835.254,244.364C847.91,286.545,860.565,401.455,873.22,401.455C885.876,401.455,898.531,165.818,911.186,165.818C923.842,165.818,936.497,253.091,949.153,253.091C961.808,253.091,974.463,253.091,987.119,253.091C999.774,253.091,1012.429,340.364,1025.085,340.364C1037.74,340.364,1050.395,327.273,1063.051,305.455C1075.706,283.636,1088.362,209.455,1101.017,209.455C1113.672,209.455,1126.328,229.818,1138.983,253.091C1151.638,276.364,1164.294,349.091,1176.949,349.091C1189.605,349.091,1202.26,314.182,1214.915,314.182C1227.571,314.182,1240.226,401.455,1252.881,401.455C1265.537,401.455,1278.192,349.091,1290.847,349.091C1303.503,349.091,1316.158,349.091,1328.814,349.091C1341.469,349.091,1354.124,366.545,1366.78,366.545C1379.435,366.545,1392.09,314.182,1404.746,314.182C1417.401,314.182,1430.056,330.182,1442.712,340.364C1455.367,350.545,1468.023,356.364,1480.678,375.273C1493.333,394.182,1505.989,453.818,1518.644,453.818C1531.299,453.818,1543.955,442.182,1556.61,427.636C1569.266,413.091,1581.921,366.545,1594.576,366.545C1607.232,366.545,1619.887,392.727,1632.542,392.727C1645.198,392.727,1657.853,331.636,1670.508,331.636C1683.164,331.636,1695.819,375.273,1708.475,375.273C1721.13,375.273,1733.785,370.909,1746.441,366.545C1759.096,362.182,1771.751,349.091,1784.407,349.091C1797.062,349.091,1809.718,392.727,1822.373,392.727C1835.028,392.727,1847.684,375.273,1860.339,349.091C1872.994,322.909,1885.65,235.636,1898.305,235.636C1910.96,235.636,1923.616,392.727,1936.271,392.727C1948.927,392.727,1961.582,359.273,1974.237,349.091C1986.893,338.909,1999.548,331.636,2012.203,331.636C2024.859,331.636,2037.514,436.364,2050.169,436.364C2062.825,436.364,2075.48,386.909,2088.136,375.273C2100.791,363.636,2113.446,357.818,2126.102,357.818C2138.757,357.818,2151.412,386.909,2164.068,392.727C2176.723,398.545,2189.379,395.636,2202.034,401.455C2214.689,407.273,2227.345,430.545,2240,453.818L2240,480C2227.345,480,2214.689,480,2202.034,480C2189.379,480,2176.723,480,2164.068,480C2151.412,480,2138.757,480,2126.102,480C2113.446,480,2100.791,480,2088.136,480C2075.48,480,2062.825,480,2050.169,480C2037.514,480,2024.859,480,2012.203,480C1999.548,480,1986.893,480,1974.237,480C1961.582,480,1948.927,480,1936.271,480C1923.616,480,1910.96,480,1898.305,480C1885.65,480,1872.994,480,1860.339,480C1847.684,480,1835.028,480,1822.373,480C1809.718,480,1797.062,480,1784.407,480C1771.751,480,1759.096,480,1746.441,480C1733.785,480,1721.13,480,1708.475,480C1695.819,480,1683.164,480,1670.508,480C1657.853,480,1645.198,480,1632.542,480C1619.887,480,1607.232,480,1594.576,480C1581.921,480,1569.266,480,1556.61,480C1543.955,480,1531.299,480,1518.644,480C1505.989,480,1493.333,480,1480.678,480C1468.023,480,1455.367,480,1442.712,480C1430.056,480,1417.401,480,1404.746,480C1392.09,480,1379.435,480,1366.78,480C1354.124,480,1341.469,480,1328.814,480C1316.158,480,1303.503,480,1290.847,480C1278.192,480,1265.537,480,1252.881,480C1240.226,480,1227.571,480,1214.915,480C1202.26,480,1189.605,480,1176.949,480C1164.294,480,1151.638,480,1138.983,480C1126.328,480,1113.672,480,1101.017,480C1088.362,480,1075.706,480,1063.051,480C1050.395,480,1037.74,480,1025.085,480C1012.429,480,999.774,480,987.119,480C974.463,480,961.808,480,949.153,480C936.497,480,923.842,480,911.186,480C898.531,480,885.876,480,873.22,480C860.565,480,847.91,480,835.254,480C822.599,480,809.944,480,797.288,480C784.633,480,771.977,480,759.322,480C746.667,480,734.011,480,721.356,480C708.701,480,696.045,480,683.39,480C670.734,480,658.079,480,645.424,480C632.768,480,620.113,480,607.458,480C594.802,480,582.147,480,569.492,480C556.836,480,544.181,480,531.525,480C518.87,480,506.215,480,493.559,480C480.904,480,468.249,480,455.593,480C442.938,480,430.282,480,417.627,480C404.972,480,392.316,480,379.661,480C367.006,480,354.35,480,341.695,480C329.04,480,316.384,480,303.729,480C291.073,480,278.418,480,265.763,480C253.107,480,240.452,480,227.797,480C215.141,480,202.486,480,189.831,480C177.175,480,164.52,480,151.864,480C139.209,480,126.554,480,113.898,480C101.243,480,88.588,480,75.932,480C63.277,480,50.621,480,37.966,480C25.311,480,12.655,480,0,480Z" fill="#4e79a7" opacity="0.18"/></g><g class="mark-line role-mark layer_1_marks" role="graphics-object" aria-roledescription="line mark container" pointer-events="none"><path aria-label="date: Sep 08, 2025; count: 1" role="graphics-symbol" aria-roledescription="line mark" d="M0,471.273C12.655,240,25.311,8.727,37.966,8.727C50.621,8.727,63.277,17.455,75.932,34.909C88.588,52.364,101.243,142.545,113.898,165.818C126.554,189.091,139.209,177.455,151.864,200.727C164.52,224,177.175,293.818,189.831,305.455C202.486,317.091,215.141,322.909,227.797,322.909C240.452,322.909,253.107,273.455,265.763,261.818C278.418,250.182,291.073,256,303.729,244.364C316.384,232.727,329.04,151.273,341.695,139.636C354.35,128,367.006,122.182,379.661,122.182C392.316,122.182,404.972,212.364,417.627,235.636C430.282,258.909,442.938,251.636,455.593,270.545C468.249,289.455,480.904,349.091,493.559,349.091C506.215,349.091,518.87,343.273,531.525,340.364C544.181,337.455,556.836,334.545,569.492,331.636C582.147,328.727,594.802,322.909,607.458,322.909C620.113,322.909,632.768,384,645.424,384C658.079,384,670.734,261.818,683.39,261.818C696.045,261.818,708.701,418.909,721.356,418.909C734.011,418.909,746.667,398.545,759.322,357.818C771.977,317.091,784.633,148.364,797.288,148.364C809.944,148.364,822.599,202.182,835.254,244.364C847.91,286.545,860.565,401.455,873.22,401.455C885.876,401.455,898.531,165.818,911.186,165.818C923.842,165.818,936.497,253.091,949.153,253.091C961.808,253.091,974.463,253.091,987.119,253.091C999.774,253.091,1012.429,340.364,1025.085,340.364C1037.74,340.364,1050.395,327.273,1063.051,305.455C1075.706,283.636,1088.362,209.455,1101.017,209.455C1113.672,209.455,1126.328,229.818,1138.983,253.091C1151.638,276.364,1164.294,349.091,1176.949,349.091C1189.605,349.091,1202.26,314.182,1214.915,314.182C1227.571,314.182,1240.226,401.455,1252.881,401.455C1265.537,401.455,1278.192,349.091,1290.847,349.091C1303.503,349.091,1316.158,349.091,1328.814,349.091C1341.469,349.091,1354.124,366.545,1366.78,366.545C1379.435,366.545,1392.09,314.182,1404.746,314.182C1417.401,314.182,1430.056,330.182,1442.712,340.364C1455.367,350.545,1468.023,356.364,1480.678,375.273C1493.333,394.182,1505.989,453.818,1518.644,453.818C1531.299,453.818,1543.955,442.182,1556.61,427.636C1569.266,413.091,1581.921,366.545,1594.576,366.545C1607.232,366.545,1619.887,392.727,1632.542,392.727C1645.198,392.727,1657.853,331.636,1670.508,331.636C1683.164,331.636,1695.819,375.273,1708.475,375.273C1721.13,375.273,1733.785,370.909,1746.441,366.545C1759.096,362.182,1771.751,349.091,1784.407,349.091C1797.062,349.091,1809.718,392.727,1822.373,392.727C1835.028,392.727,1847.684,375.273,1860.339,349.091C1872.994,322.909,1885.65,235.636,1898.305,235.636C1910.96,235.636,1923.616,392.727,1936.271,392.727C1948.927,392.727,1961.582,359.273,1974.237,349.091C1986.893,338.909,1999.548,331.636,2012.203,331.636C2024.859,331.636,2037.514,436.364,2050.169,436.364C2062.825,436.364,2075.48,386.909,2088.136,375.273C2100.791,363.636,2113.446,357.818,2126.102,357.818C2138.757,357.818,2151.412,386.909,2164.068,392.727C2176.723,398.545,2189.379,395.636,2202.034,401.455C2214.689,407.273,2227.345,430.545,2240,453.818" stroke="#4e79a7" stroke-width="2"/></g><g class="mark-line role-mark layer_2_marks" role="graphics-object" aria-roledescription="line mark container" pointer-events="none"><path aria-label="date: Sep 08, 2025; ma7: 1" role="graphics-symbol" aria-roledescription="line mark" d="M0,471.273C12.655,378.424,25.311,285.576,37.966,240C50.621,194.424,63.277,172.606,75.932,171.636C88.588,170.667,101.243,170.182,113.898,170.182C126.554,170.182,139.209,172.218,151.864,176.291C164.52,180.364,177.175,191.252,189.831,197.818C202.486,204.384,215.141,215.688,227.797,215.688C240.452,215.688,253.107,185.766,265.763,185.766C278.418,185.766,291.073,211.325,303.729,219.429C316.384,227.532,329.04,234.39,341.695,234.39C354.35,234.39,367.006,228.156,379.661,228.156C392.316,228.156,404.972,233.143,417.627,233.143C430.282,233.143,442.938,228.156,455.593,228.156C468.249,228.156,480.904,229.403,493.559,231.896C506.215,234.39,518.87,239.169,531.525,243.117C544.181,247.065,556.836,249.143,569.492,255.584C582.147,262.026,594.802,271.169,607.458,281.766C620.113,292.364,632.768,316.675,645.424,319.169C658.079,321.662,670.734,320.416,683.39,322.909C696.045,325.403,708.701,343.273,721.356,344.104C734.011,344.935,746.667,345.351,759.322,345.351C771.977,345.351,784.633,324.571,797.288,317.922C809.944,311.273,822.599,305.455,835.254,305.455C847.91,305.455,860.565,316.675,873.22,316.675C885.876,316.675,898.531,286.338,911.186,285.506C923.842,284.675,936.497,285.091,949.153,284.26C961.808,283.429,974.463,262.234,987.119,260.571C999.774,258.909,1012.429,258.078,1025.085,258.078C1037.74,258.078,1050.395,280.519,1063.051,280.519C1075.706,280.519,1088.362,278.857,1101.017,275.532C1113.672,272.208,1126.328,254.338,1138.983,254.338C1151.638,254.338,1164.294,274.701,1176.949,280.519C1189.605,286.338,1202.26,284.26,1214.915,289.247C1227.571,294.234,1240.226,309.61,1252.881,310.442C1265.537,311.273,1278.192,310.857,1290.847,311.688C1303.503,312.519,1316.158,313.766,1328.814,317.922C1341.469,322.078,1354.124,335.169,1366.78,340.364C1379.435,345.558,1392.09,349.091,1404.746,349.091C1417.401,349.091,1430.056,347.844,1442.712,347.844C1455.367,347.844,1468.023,353.87,1480.678,356.571C1493.333,359.273,1505.989,360.935,1518.644,364.052C1531.299,367.169,1543.955,373.61,1556.61,375.273C1569.266,376.935,1581.921,376.727,1594.576,377.766C1607.232,378.805,1619.887,380.468,1632.542,381.506C1645.198,382.545,1657.853,382.753,1670.508,384C1683.164,385.247,1695.819,388.987,1708.475,388.987C1721.13,388.987,1733.785,388.571,1746.441,387.74C1759.096,386.909,1771.751,376.104,1784.407,372.779C1797.062,369.455,1809.718,369.039,1822.373,367.792C1835.028,366.545,1847.684,366.961,1860.339,365.299C1872.994,363.636,1885.65,342.857,1898.305,342.857C1910.96,342.857,1923.616,351.584,1936.271,351.584C1948.927,351.584,1961.582,349.299,1974.237,347.844C1986.893,346.39,1999.548,342.857,2012.203,342.857C2024.859,342.857,2037.514,355.325,2050.169,355.325C2062.825,355.325,2075.48,352.831,2088.136,352.831C2100.791,352.831,2113.446,353.247,2126.102,354.078C2138.757,354.909,2151.412,375.688,2164.068,376.519C2176.723,377.351,2189.379,376.935,2202.034,377.766C2214.689,378.597,2227.345,385.662,2240,392.727" stroke="#d62728" stroke-width="2" stroke-dasharray="6,4"/></g><g class="mark-symbol role-mark layer_3_marks" role="graphics-object" aria-roledescription="symbol mark container"><path aria-label="date: Sep 08, 2025; count: 1; Date: Sep 08, 2025; Daily unique: 1; 7d avg: 1" role="graphics-symbol" aria-roledescription="point" transform="translate(0,471.27272727272725)" d="M3.536,0A3.536,3.536,0,1,1,-3.536,0A3.536,3.536,0,1,1,3.536,0" fill="#4e79a7" stroke-width="2" opacity="0.55"/><path aria-label="date: Sep 09, 2025; count: 54; Date: Sep 09, 2025; Daily unique: 54; 7d avg: 27.5" role="graphics-symbol" aria-roledescription="point" transform="translate(37.96610169491525,8.72727272727273)" d="M3.536,0A3.536,3.536,0,1,1,-3.536,0A3.536,3.536,0,1,1,3.536,0" fill="#4e79a7" stroke-width="2" opacity="0.55"/><path aria-label="date: Sep 10, 2025; count: 51; Date: Sep 10, 2025; Daily unique: 51; 7d avg: 35.3333333333" role="graphics-symbol" aria-roledescription="point" transform="translate(75.9322033898305,34.90909090909092)" d="M3.536,0A3.536,3.536,0,1,1,-3.536,0A3.536,3.536,0,1,1,3.536,0" fill="#4e79a7" stroke-width="2" opacity="0.55"/><path aria-label="date: Sep 11, 2025; count: 36; Date: Sep 11, 2025; Daily unique: 36; 7d avg: 35.5" role="graphics-symbol" aria-roledescription="point" transform="translate(113.89830508474577,165.8181818181818)" d="M3.536,0A3.536,3.536,0,1,1,-3.536,0A3.536,3.536,0,1,1,3.536,0" fill="#4e79a7" stroke-width="2" opacity="0.55"/><path aria-label="date: Sep 12, 2025; count: 32; Date: Sep 12, 2025; Daily unique: 32; 7d avg: 34.8" role="graphics-symbol" aria-roledescription="point" transform="translate(151.864406779661,200.72727272727275)" d="M3.536,0A3.536,3.536,0,1,1,-3.536,0A3.536,3.536,0,1,1,3.536,0" fill="#4e79a7" stroke-width="2" opacity="0.55"/><path aria-label="date: Sep 13, 2025; count: 20; Date: Sep 13, 2025; Daily unique: 20; 7d avg: 32.3333333333" role="graphics-symbol" aria-roledescription="point" transform="translate(189.83050847457628,305.45454545454544)" d="M3.536,0A3.536,3.536,0,1,1,-3.536,0A3.536,3.536,0,1,1,3.536,0" fill="#4e79a7" stroke-width="2" opacity="0.55"/><path aria-label="date: Sep 14, 2025; count: 18; Date: Sep 14, 2025; Daily unique: 18; 7d avg: 30.2857142857" role="graphics-symbol" aria-roledescription="point" transform="translate(227.79661016949154,322.90909090909093)" d="M3.536,0A3.536,3.536,0,1,1,-3.536,0A3.536,3.536,0,1,1,3.536,0" fill="#4e79a7" stroke-width="2" opacity="0.55"/><path aria-label="date: Sep 15, 2025; count: 25; Date: Sep 15, 2025; Daily unique: 25; 7d avg: 33.7142857143" role="graphics-symbol" aria-roledescription="point" transform="translate(265.7627118644068,261.8181818181818)" d="M3.536,0A3.536,3.536,0,1,1,-3.536,0A3.536,3.536,0,1,1,3.536,0" fill="#4e79a7" stroke-width="2" opacity="0.55"/><path aria-label="date: Sep 16, 2025; count: 27; Date: Sep 16, 2025; Daily unique: 27; 7d avg: 29.8571428571" role="graphics-symbol" aria-roledescription="point" transform="translate(303.728813559322,244.36363636363635)" d="M3.536,0A3.536,3.536,0,1,1,-3.536,0A3.536,3.536,0,1,1,3.536,0" fill="#4e79a7" stroke-width="2" opacity="0.55"/><path aria-label="date: Sep 17, 2025; count: 39; Date: Sep 17, 2025; Daily unique: 39; 7d avg: 28.1428571429" role="graphics-symbol" aria-roledescription="point" transform="translate(341.6949152542373,139.63636363636363)" d="M3.536,0A3.536,3.536,0,1,1,-3.536,0A3.536,3.536,0,1,1,3.536,0" fill="#4e79a7" stroke-width="2" opacity="0.55"/><path aria-label="date: Sep 18, 2025; count: 41; Date: Sep 18, 2025; Daily unique: 41; 7d avg: 28.8571428571" role="graphics-symbol" aria-roledescription="point" transform="translate(379.66101694915255,122.18181818181817)" d="M3.536,0A3.536,3.536,0,1,1,-3.536,0A3.536,3.536,0,1,1,3.536,0" fill="#4e79a7" stroke-width="2" opacity="0.55"/><path aria-label="date: Sep 19, 2025; count: 28; Date: Sep 19, 2025; Daily unique: 28; 7d avg: 28.2857142857" role="graphics-symbol" aria-roledescription="point" transform="translate(417.6271186440678,235.63636363636365)" d="M3.536,0A3.536,3.536,0,1,1,-3.536,0A3.536,3.536,0,1,1,3.536,0" fill="#4e79a7" stroke-width="2" opacity="0.55"/><path aria-label="date: Sep 20, 2025; count: 24; Date: Sep 20, 2025; Daily unique: 24; 7d avg: 28.8571428571" role="graphics-symbol" aria-roledescription="point" transform="translate(455.5932203389831,270.54545454545456)" d="M3.536,0A3.536,3.536,0,1,1,-3.536,0A3.536,3.536,0,1,1,3.536,0" fill="#4e79a7" stroke-width="2" opacity="0.55"/><path aria-label="date: Sep 21, 2025; count: 15; Date: Sep 21, 2025; Daily unique: 15; 7d avg: 28.4285714286" role="graphics-symbol" aria-roledescription="point" transform="translate(493.5593220338983,349.0909090909091)" d="M3.536,0A3.536,3.536,0,1,1,-3.536,0A3.536,3.536,0,1,1,3.536,0" fill="#4e79a7" stroke-width="2" opacity="0.55"/><path aria-label="date: Sep 22, 2025; count: 16; Date: Sep 22, 2025; Daily unique: 16; 7d avg: 27.1428571429" role="graphics-symbol" aria-roledescription="point" transform="translate(531.5254237288136,340.3636363636364)" d="M3.536,0A3.536,3.536,0,1,1,-3.536,0A3.536,3.536,0,1,1,3.536,0" fill="#4e79a7" stroke-width="2" opacity="0.55"/><path aria-label="date: Sep 23, 2025; count: 17; Date: Sep 23, 2025; Daily unique: 17; 7d avg: 25.7142857143" role="graphics-symbol" aria-roledescription="point" transform="translate(569.4915254237288,331.6363636363636)" d="M3.536,0A3.536,3.536,0,1,1,-3.536,0A3.536,3.536,0,1,1,3.536,0" fill="#4e79a7" stroke-width="2" opacity="0.55"/><path aria-label="date: Sep 24, 2025; count: 18; Date: Sep 24, 2025; Daily unique: 18; 7d avg: 22.7142857143" role="graphics-symbol" aria-roledescription="point" transform="translate(607.457627118644,322.90909090909093)" d="M3.536,0A3.536,3.536,0,1,1,-3.536,0A3.536,3.536,0,1,1,3.536,0" fill="#4e79a7" stroke-width="2" opacity="0.55"/><path aria-label="date: Sep 25, 2025; count: 11; Date: Sep 25, 2025; Daily unique: 11; 7d avg: 18.4285714286" role="graphics-symbol" aria-roledescription="point" transform="translate(645.4237288135594,384)" d="M3.536,0A3.536,3.536,0,1,1,-3.536,0A3.536,3.536,0,1,1,3.536,0" fill="#4e79a7" stroke-width="2" opacity="0.55"/><path aria-label="date: Sep 26, 2025; count: 25; Date: Sep 26, 2025; Daily unique: 25; 7d avg: 18" role="graphics-symbol" aria-roledescription="point" transform="translate(683.3898305084746,261.8181818181818)" d="M3.536,0A3.536,3.536,0,1,1,-3.536,0A3.536,3.536,0,1,1,3.536,0" fill="#4e79a7" stroke-width="2" opacity="0.55"/><path aria-label="date: Sep 27, 2025; count: 7; Date: Sep 27, 2025; Daily unique: 7; 7d avg: 15.5714285714" role="graphics-symbol" aria-roledescription="point" transform="translate(721.3559322033898,418.90909090909093)" d="M3.536,0A3.536,3.536,0,1,1,-3.536,0A3.536,3.536,0,1,1,3.536,0" fill="#4e79a7" stroke-width="2" opacity="0.55"/><path aria-label="date: Sep 28, 2025; count: 14; Date: Sep 28, 2025; Daily unique: 14; 7d avg: 15.4285714286" role="graphics-symbol" aria-roledescription="point" transform="translate(759.3220338983051,357.8181818181818)" d="M3.536,0A3.536,3.536,0,1,1,-3.536,0A3.536,3.536,0,1,1,3.536,0" fill="#4e79a7" stroke-width="2" opacity="0.55"/><path aria-label="date: Sep 29, 2025; count: 38; Date: Sep 29, 2025; Daily unique: 38; 7d avg: 18.5714285714" role="graphics-symbol" aria-roledescription="point" transform="translate(797.2881355932203,148.36363636363637)" d="M3.536,0A3.536,3.536,0,1,1,-3.536,0A3.536,3.536,0,1,1,3.536,0" fill="#4e79a7" stroke-width="2" opacity="0.55"/><path aria-label="date: Sep 30, 2025; count: 27; Date: Sep 30, 2025; Daily unique: 27; 7d avg: 20" role="graphics-symbol" aria-roledescription="point" transform="translate(835.2542372881356,244.36363636363635)" d="M3.536,0A3.536,3.536,0,1,1,-3.536,0A3.536,3.536,0,1,1,3.536,0" fill="#4e79a7" stroke-width="2" opacity="0.55"/><path aria-label="date: Oct 01, 2025; count: 9; Date: Oct 01, 2025; Daily unique: 9; 7d avg: 18.7142857143" role="graphics-symbol" aria-roledescription="point" transform="translate(873.2203389830509,401.4545454545455)" d="M3.536,0A3.536,3.536,0,1,1,-3.536,0A3.536,3.536,0,1,1,3.536,0" fill="#4e79a7" stroke-width="2" opacity="0.55"/><path aria-label="date: Oct 02, 2025; count: 36; Date: Oct 02, 2025; Daily unique: 36; 7d avg: 22.2857142857" role="graphics-symbol" aria-roledescription="point" transform="translate(911.1864406779662,165.8181818181818)" d="M3.536,0A3.536,3.536,0,1,1,-3.536,0A3.536,3.536,0,1,1,3.536,0" fill="#4e79a7" stroke-width="2" opacity="0.55"/><path aria-label="date: Oct 03, 2025; count: 26; Date: Oct 03, 2025; Daily unique: 26; 7d avg: 22.4285714286" role="graphics-symbol" aria-roledescription="point" transform="translate(949.1525423728813,253.09090909090912)" d="M3.536,0A3.536,3.536,0,1,1,-3.536,0A3.536,3.536,0,1,1,3.536,0" fill="#4e79a7" stroke-width="2" opacity="0.55"/><path aria-label="date: Oct 04, 2025; count: 26; Date: Oct 04, 2025; Daily unique: 26; 7d avg: 25.1428571429" role="graphics-symbol" aria-roledescription="point" transform="translate(987.1186440677966,253.09090909090912)" d="M3.536,0A3.536,3.536,0,1,1,-3.536,0A3.536,3.536,0,1,1,3.536,0" fill="#4e79a7" stroke-width="2" opacity="0.55"/><path aria-label="date: Oct 05, 2025; count: 16; Date: Oct 05, 2025; Daily unique: 16; 7d avg: 25.4285714286" role="graphics-symbol" aria-roledescription="point" transform="translate(1025.084745762712,340.3636363636364)" d="M3.536,0A3.536,3.536,0,1,1,-3.536,0A3.536,3.536,0,1,1,3.536,0" fill="#4e79a7" stroke-width="2" opacity="0.55"/><path aria-label="date: Oct 06, 2025; count: 20; Date: Oct 06, 2025; Daily unique: 20; 7d avg: 22.8571428571" role="graphics-symbol" aria-roledescription="point" transform="translate(1063.0508474576272,305.45454545454544)" d="M3.536,0A3.536,3.536,0,1,1,-3.536,0A3.536,3.536,0,1,1,3.536,0" fill="#4e79a7" stroke-width="2" opacity="0.55"/><path aria-label="date: Oct 07, 2025; count: 31; Date: Oct 07, 2025; Daily unique: 31; 7d avg: 23.4285714286" role="graphics-symbol" aria-roledescription="point" transform="translate(1101.0169491525423,209.45454545454547)" d="M3.536,0A3.536,3.536,0,1,1,-3.536,0A3.536,3.536,0,1,1,3.536,0" fill="#4e79a7" stroke-width="2" opacity="0.55"/><path aria-label="date: Oct 08, 2025; count: 26; Date: Oct 08, 2025; Daily unique: 26; 7d avg: 25.8571428571" role="graphics-symbol" aria-roledescription="point" transform="translate(1138.9830508474577,253.09090909090912)" d="M3.536,0A3.536,3.536,0,1,1,-3.536,0A3.536,3.536,0,1,1,3.536,0" fill="#4e79a7" stroke-width="2" opacity="0.55"/><path aria-label="date: Oct 09, 2025; count: 15; Date: Oct 09, 2025; Daily unique: 15; 7d avg: 22.8571428571" role="graphics-symbol" aria-roledescription="point" transform="translate(1176.949152542373,349.0909090909091)" d="M3.536,0A3.536,3.536,0,1,1,-3.536,0A3.536,3.536,0,1,1,3.536,0" fill="#4e79a7" stroke-width="2" opacity="0.55"/><path aria-label="date: Oct 10, 2025; count: 19; Date: Oct 10, 2025; Daily unique: 19; 7d avg: 21.8571428571" role="graphics-symbol" aria-roledescription="point" transform="translate(1214.915254237288,314.1818181818182)" d="M3.536,0A3.536,3.536,0,1,1,-3.536,0A3.536,3.536,0,1,1,3.536,0" fill="#4e79a7" stroke-width="2" opacity="0.55"/><path aria-label="date: Oct 11, 2025; count: 9; Date: Oct 11, 2025; Daily unique: 9; 7d avg: 19.4285714286" role="graphics-symbol" aria-roledescription="point" transform="translate(1252.8813559322032,401.4545454545455)" d="M3.536,0A3.536,3.536,0,1,1,-3.536,0A3.536,3.536,0,1,1,3.536,0" fill="#4e79a7" stroke-width="2" opacity="0.55"/><path aria-label="date: Oct 12, 2025; count: 15; Date: Oct 12, 2025; Daily unique: 15; 7d avg: 19.2857142857" role="graphics-symbol" aria-roledescription="point" transform="translate(1290.8474576271187,349.0909090909091)" d="M3.536,0A3.536,3.536,0,1,1,-3.536,0A3.536,3.536,0,1,1,3.536,0" fill="#4e79a7" stroke-width="2" opacity="0.55"/><path aria-label="date: Oct 13, 2025; count: 15; Date: Oct 13, 2025; Daily unique: 15; 7d avg: 18.5714285714" role="graphics-symbol" aria-roledescription="point" transform="translate(1328.8135593220338,349.0909090909091)" d="M3.536,0A3.536,3.536,0,1,1,-3.536,0A3.536,3.536,0,1,1,3.536,0" fill="#4e79a7" stroke-width="2" opacity="0.55"/><path aria-label="date: Oct 14, 2025; count: 13; Date: Oct 14, 2025; Daily unique: 13; 7d avg: 16" role="graphics-symbol" aria-roledescription="point" transform="translate(1366.7796610169491,366.54545454545456)" d="M3.536,0A3.536,3.536,0,1,1,-3.536,0A3.536,3.536,0,1,1,3.536,0" fill="#4e79a7" stroke-width="2" opacity="0.55"/><path aria-label="date: Oct 15, 2025; count: 19; Date: Oct 15, 2025; Daily unique: 19; 7d avg: 15" role="graphics-symbol" aria-roledescription="point" transform="translate(1404.7457627118645,314.1818181818182)" d="M3.536,0A3.536,3.536,0,1,1,-3.536,0A3.536,3.536,0,1,1,3.536,0" fill="#4e79a7" stroke-width="2" opacity="0.55"/><path aria-label="date: Oct 16, 2025; count: 16; Date: Oct 16, 2025; Daily unique: 16; 7d avg: 15.1428571429" role="graphics-symbol" aria-roledescription="point" transform="translate(1442.7118644067796,340.3636363636364)" d="M3.536,0A3.536,3.536,0,1,1,-3.536,0A3.536,3.536,0,1,1,3.536,0" fill="#4e79a7" stroke-width="2" opacity="0.55"/><path aria-label="date: Oct 17, 2025; count: 12; Date: Oct 17, 2025; Daily unique: 12; 7d avg: 14.1428571429" role="graphics-symbol" aria-roledescription="point" transform="translate(1480.677966101695,375.2727272727273)" d="M3.536,0A3.536,3.536,0,1,1,-3.536,0A3.536,3.536,0,1,1,3.536,0" fill="#4e79a7" stroke-width="2" opacity="0.55"/><path aria-label="date: Oct 18, 2025; count: 3; Date: Oct 18, 2025; Daily unique: 3; 7d avg: 13.2857142857" role="graphics-symbol" aria-roledescription="point" transform="translate(1518.6440677966102,453.8181818181818)" d="M3.536,0A3.536,3.536,0,1,1,-3.536,0A3.536,3.536,0,1,1,3.536,0" fill="#4e79a7" stroke-width="2" opacity="0.55"/><path aria-label="date: Oct 19, 2025; count: 6; Date: Oct 19, 2025; Daily unique: 6; 7d avg: 12" role="graphics-symbol" aria-roledescription="point" transform="translate(1556.6101694915255,427.6363636363636)" d="M3.536,0A3.536,3.536,0,1,1,-3.536,0A3.536,3.536,0,1,1,3.536,0" fill="#4e79a7" stroke-width="2" opacity="0.55"/><path aria-label="date: Oct 20, 2025; count: 13; Date: Oct 20, 2025; Daily unique: 13; 7d avg: 11.7142857143" role="graphics-symbol" aria-roledescription="point" transform="translate(1594.5762711864406,366.54545454545456)" d="M3.536,0A3.536,3.536,0,1,1,-3.536,0A3.536,3.536,0,1,1,3.536,0" fill="#4e79a7" stroke-width="2" opacity="0.55"/><path aria-label="date: Oct 21, 2025; count: 10; Date: Oct 21, 2025; Daily unique: 10; 7d avg: 11.2857142857" role="graphics-symbol" aria-roledescription="point" transform="translate(1632.5423728813557,392.7272727272727)" d="M3.536,0A3.536,3.536,0,1,1,-3.536,0A3.536,3.536,0,1,1,3.536,0" fill="#4e79a7" stroke-width="2" opacity="0.55"/><path aria-label="date: Oct 22, 2025; count: 17; Date: Oct 22, 2025; Daily unique: 17; 7d avg: 11" role="graphics-symbol" aria-roledescription="point" transform="translate(1670.5084745762713,331.6363636363636)" d="M3.536,0A3.536,3.536,0,1,1,-3.536,0A3.536,3.536,0,1,1,3.536,0" fill="#4e79a7" stroke-width="2" opacity="0.55"/><path aria-label="date: Oct 23, 2025; count: 12; Date: Oct 23, 2025; Daily unique: 12; 7d avg: 10.4285714286" role="graphics-symbol" aria-roledescription="point" transform="translate(1708.4745762711864,375.2727272727273)" d="M3.536,0A3.536,3.536,0,1,1,-3.536,0A3.536,3.536,0,1,1,3.536,0" fill="#4e79a7" stroke-width="2" opacity="0.55"/><path aria-label="date: Oct 24, 2025; count: 13; Date: Oct 24, 2025; Daily unique: 13; 7d avg: 10.5714285714" role="graphics-symbol" aria-roledescription="point" transform="translate(1746.4406779661017,366.54545454545456)" d="M3.536,0A3.536,3.536,0,1,1,-3.536,0A3.536,3.536,0,1,1,3.536,0" fill="#4e79a7" stroke-width="2" opacity="0.55"/><path aria-label="date: Oct 25, 2025; count: 15; Date: Oct 25, 2025; Daily unique: 15; 7d avg: 12.2857142857" role="graphics-symbol" aria-roledescription="point" transform="translate(1784.406779661017,349.0909090909091)" d="M3.536,0A3.536,3.536,0,1,1,-3.536,0A3.536,3.536,0,1,1,3.536,0" fill="#4e79a7" stroke-width="2" opacity="0.55"/><path aria-label="date: Oct 26, 2025; count: 10; Date: Oct 26, 2025; Daily unique: 10; 7d avg: 12.8571428571" role="graphics-symbol" aria-roledescription="point" transform="translate(1822.3728813559323,392.7272727272727)" d="M3.536,0A3.536,3.536,0,1,1,-3.536,0A3.536,3.536,0,1,1,3.536,0" fill="#4e79a7" stroke-width="2" opacity="0.55"/><path aria-label="date: Oct 27, 2025; count: 15; Date: Oct 27, 2025; Daily unique: 15; 7d avg: 13.1428571429" role="graphics-symbol" aria-roledescription="point" transform="translate(1860.3389830508474,349.0909090909091)" d="M3.536,0A3.536,3.536,0,1,1,-3.536,0A3.536,3.536,0,1,1,3.536,0" fill="#4e79a7" stroke-width="2" opacity="0.55"/><path aria-label="date: Oct 28, 2025; count: 28; Date: Oct 28, 2025; Daily unique: 28; 7d avg: 15.7142857143" role="graphics-symbol" aria-roledescription="point" transform="translate(1898.3050847457625,235.63636363636365)" d="M3.536,0A3.536,3.536,0,1,1,-3.536,0A3.536,3.536,0,1,1,3.536,0" fill="#4e79a7" stroke-width="2" opacity="0.55"/><path aria-label="date: Oct 29, 2025; count: 10; Date: Oct 29, 2025; Daily unique: 10; 7d avg: 14.7142857143" role="graphics-symbol" aria-roledescription="point" transform="translate(1936.271186440678,392.7272727272727)" d="M3.536,0A3.536,3.536,0,1,1,-3.536,0A3.536,3.536,0,1,1,3.536,0" fill="#4e79a7" stroke-width="2" opacity="0.55"/><path aria-label="date: Oct 30, 2025; count: 15; Date: Oct 30, 2025; Daily unique: 15; 7d avg: 15.1428571429" role="graphics-symbol" aria-roledescription="point" transform="translate(1974.2372881355932,349.0909090909091)" d="M3.536,0A3.536,3.536,0,1,1,-3.536,0A3.536,3.536,0,1,1,3.536,0" fill="#4e79a7" stroke-width="2" opacity="0.55"/><path aria-label="date: Oct 31, 2025; count: 17; Date: Oct 31, 2025; Daily unique: 17; 7d avg: 15.7142857143" role="graphics-symbol" aria-roledescription="point" transform="translate(2012.2033898305085,331.6363636363636)" d="M3.536,0A3.536,3.536,0,1,1,-3.536,0A3.536,3.536,0,1,1,3.536,0" fill="#4e79a7" stroke-width="2" opacity="0.55"/><path aria-label="date: Nov 01, 2025; count: 5; Date: Nov 01, 2025; Daily unique: 5; 7d avg: 14.2857142857" role="graphics-symbol" aria-roledescription="point" transform="translate(2050.169491525424,436.3636363636364)" d="M3.536,0A3.536,3.536,0,1,1,-3.536,0A3.536,3.536,0,1,1,3.536,0" fill="#4e79a7" stroke-width="2" opacity="0.55"/><path aria-label="date: Nov 02, 2025; count: 12; Date: Nov 02, 2025; Daily unique: 12; 7d avg: 14.5714285714" role="graphics-symbol" aria-roledescription="point" transform="translate(2088.1355932203387,375.2727272727273)" d="M3.536,0A3.536,3.536,0,1,1,-3.536,0A3.536,3.536,0,1,1,3.536,0" fill="#4e79a7" stroke-width="2" opacity="0.55"/><path aria-label="date: Nov 03, 2025; count: 14; Date: Nov 03, 2025; Daily unique: 14; 7d avg: 14.4285714286" role="graphics-symbol" aria-roledescription="point" transform="translate(2126.1016949152545,357.8181818181818)" d="M3.536,0A3.536,3.536,0,1,1,-3.536,0A3.536,3.536,0,1,1,3.536,0" fill="#4e79a7" stroke-width="2" opacity="0.55"/><path aria-label="date: Nov 04, 2025; count: 10; Date: Nov 04, 2025; Daily unique: 10; 7d avg: 11.8571428571" role="graphics-symbol" aria-roledescription="point" transform="translate(2164.0677966101694,392.7272727272727)" d="M3.536,0A3.536,3.536,0,1,1,-3.536,0A3.536,3.536,0,1,1,3.536,0" fill="#4e79a7" stroke-width="2" opacity="0.55"/><path aria-label="date: Nov 05, 2025; count: 9; Date: Nov 05, 2025; Daily unique: 9; 7d avg: 11.7142857143" role="graphics-symbol" aria-roledescription="point" transform="translate(2202.0338983050847,401.4545454545455)" d="M3.536,0A3.536,3.536,0,1,1,-3.536,0A3.536,3.536,0,1,1,3.536,0" fill="#4e79a7" stroke-width="2" opacity="0.55"/><path aria-label="date: Nov 06, 2025; count: 3; Date: Nov 06, 2025; Daily unique: 3; 7d avg: 10" role="graphics-symbol" aria-roledescription="point" transform="translate(2240,453.8181818181818)" d="M3.536,0A3.536,3.536,0,1,1,-3.536,0A3.536,3.536,0,1,1,3.536,0" fill="#4e79a7" stroke-width="2" opacity="0.55"/></g><g class="mark-path role-mark layer_3_voronoi" aria-hidden="true"><path transform="translate(0,0)" d="M0,297.3101773262647L20.870531363531967,305.09240936012407L23.434438090239695,306.5315988476873L147.19404036800557,448.2129752287157L167.89688831969266,480L0,480Z" stroke-width="0.35"/><path transform="translate(0,0)" d="M71.99519740659957,0L0,104.3998154483647L0,0Z" stroke-width="0.35"/><path transform="translate(0,0)" d="M243.20451901169488,0L217.68583938552624,64.75785460689686L0,127.89084757369736L0,104.3998154483647L71.99519740659957,0Z" stroke-width="0.35"/><path transform="translate(0,0)" d="M220.37113196681764,88.12141717858475L20.870531363531967,305.09240936012407L0,297.3101773262647L0,127.89084757369736L217.68583938552624,64.75785460689686Z" stroke-width="0.35"/><path transform="translate(0,0)" d="M244.29898606786116,165.11345706864248L203.45057503465668,241.2715115373289L23.434438090239695,306.5315988476873L20.870531363531967,305.09240936012407L220.37113196681764,88.12141717858475L244.69973332769507,163.71876604006818Z" stroke-width="0.35"/><path transform="translate(0,0)" d="M225.05212370235486,278.8606470720806L147.19404036800557,448.2129752287157L23.434438090239695,306.5315988476873L203.45057503465668,241.2715115373289Z" stroke-width="0.35"/><path transform="translate(0,0)" d="M357.13453195160173,371.96819222034355L346.49169522970976,480L167.89688831969266,480L147.19404036800557,448.2129752287157L225.05212370235486,278.8606470720806L325.20955876173144,341.1053807248005Z" stroke-width="0.35"/><path transform="translate(0,0)" d="M244.29898606786116,165.11345706864248L325.20955876173144,341.1053807248005L225.05212370235486,278.8606470720806L203.45057503465668,241.2715115373289Z" stroke-width="0.35"/><path transform="translate(0,0)" d="M361.18403719826887,364.62798732407776L357.13453195160173,371.96819222034355L325.20955876173144,341.1053807248005L244.29898606786116,165.11345706864248L244.69973332769507,163.71876604006818L357.9797062985441,204.78542290803136L367.4448152771727,328.31311635793116Z" stroke-width="0.35"/><path transform="translate(0,0)" d="M300.4937866447882,0L384.8653077995451,183.51997539311532L357.9797062985441,204.78542290803136L244.69973332769507,163.71876604006818L220.37113196681764,88.12141717858475L217.68583938552624,64.75785460689686L243.20451901169488,0Z" stroke-width="0.35"/><path transform="translate(0,0)" d="M552.0077232816832,127.58791979935327L384.8653077995451,183.51997539311532L300.4937866447882,0L596.9550742855687,0L593.3486828150359,57.52567938872539L563.9476431118958,121.4770934322787Z" stroke-width="0.35"/><path transform="translate(0,0)" d="M552.0077232816832,127.58791979935327L367.4448152771727,328.31311635793116L357.9797062985441,204.78542290803136L384.8653077995451,183.51997539311532Z" stroke-width="0.35"/><path transform="translate(0,0)" d="M561.4820226922538,209.847494189235L533.501453985152,262.0146561855267L501.52366117703565,296.7927641830544L361.18403719826887,364.62798732407776L367.4448152771727,328.31311635793116L552.0077232816832,127.58791979935327L563.9476431118958,121.4770934322787L566.7481383947331,194.57476691650783Z" stroke-width="0.35"/><path transform="translate(0,0)" d="M501.52366117703565,296.7927641830544L543.5246232965802,479.50881408163804L543.4117143257359,480L346.49169522970976,480L357.13453195160173,371.96819222034355L361.18403719826887,364.62798732407776Z" stroke-width="0.35"/><path transform="translate(0,0)" d="M533.501453985152,262.0146561855267L568.5072739279211,414.29986158627344L543.5246232965802,479.50881408163804L501.52366117703565,296.7927641830544Z" stroke-width="0.35"/><path transform="translate(0,0)" d="M561.4820226922538,209.847494189235L598.4864546855301,370.827226589364L568.5072739279211,414.29986158627344L533.501453985152,262.0146561855267Z" stroke-width="0.35"/><path transform="translate(0,0)" d="M561.4820226922538,209.847494189235L566.7481383947331,194.57476691650783L671.8629873465004,325.2259916023202L598.4864546855301,370.827226589364Z" stroke-width="0.35"/><path transform="translate(0,0)" d="M700.7261894756502,363.7455160626663L647.2793228343305,480L543.4117143257359,480L543.5246232965802,479.50881408163804L568.5072739279211,414.29986158627344L598.4864546855301,370.827226589364L671.8629873465004,325.2259916023202L693.4108332345621,331.92164992911904Z" stroke-width="0.35"/><path transform="translate(0,0)" d="M762.1348154670188,277.5636978808481L693.4108332345621,331.92164992911904L671.8629873465004,325.2259916023202L566.7481383947331,194.57476691650783L563.9476431118958,121.4770934322787L593.3486828150359,57.52567938872539L755.5616074419318,220.37307438573944Z" stroke-width="0.35"/><path transform="translate(0,0)" d="M647.2793228343305,480L700.7261894756502,363.7455160626663L798.9682674798237,424.7999148223222L805.3126928541412,480Z" stroke-width="0.35"/><path transform="translate(0,0)" d="M836.347941357721,327.2326304630651L798.9682674798237,424.7999148223222L700.7261894756502,363.7455160626663L693.4108332345621,331.92164992911904L762.1348154670188,277.5636978808481Z" stroke-width="0.35"/><path transform="translate(0,0)" d="M878.3109599183558,0L850.2800110769493,182.91381871087364L755.5616074419318,220.37307438573944L593.3486828150359,57.52567938872539L596.9550742855687,0Z" stroke-width="0.35"/><path transform="translate(0,0)" d="M894.0071887094894,225.18616871345472L887.1284235373894,314.9598836713687L836.347941357721,327.2326304630651L762.1348154670188,277.5636978808481L755.5616074419318,220.37307438573944L850.2800110769493,182.91381871087364Z" stroke-width="0.35"/><path transform="translate(0,0)" d="M936.8909225796746,340.4282281463169L993.0368398935425,480L805.3126928541412,480L798.9682674798237,424.7999148223222L836.347941357721,327.2326304630651L887.1284235373894,314.9598836713687Z" stroke-width="0.35"/><path transform="translate(0,0)" d="M968.1355932203389,192.93821872850899L894.0071887094894,225.18616871345472L850.2800110769493,182.91381871087364L878.3109599183558,0L1049.2336901927042,0L1014.069797690753,152.97286568645384Z" stroke-width="0.35"/><path transform="translate(0,0)" d="M968.1355932203389,192.93821872850899L968.1355932203389,313.2435994533094L936.8909225796746,340.4282281463169L887.1284235373894,314.9598836713687L894.0071887094894,225.18616871345472Z" stroke-width="0.35"/><path transform="translate(0,0)" d="M1049.1100279865414,244.43380578054524L1016.0248591382204,292.4104159749089L968.1355932203389,313.2435994533094L968.1355932203389,192.93821872850899L1014.069797690753,152.97286568645384Z" stroke-width="0.35"/><path transform="translate(0,0)" d="M1016.0248591382204,292.4104159749089L1098.8470809531266,382.4854312255837L1093.2431593060253,480L993.0368398935425,480L936.8909225796746,340.4282281463169L968.1355932203389,313.2435994533094Z" stroke-width="0.35"/><path transform="translate(0,0)" d="M1087.4472815320273,259.59543147650015L1125.042231376372,314.1116487649094L1098.8470809531266,382.4854312255837L1016.0248591382204,292.4104159749089L1049.1100279865414,244.43380578054524Z" stroke-width="0.35"/><path transform="translate(0,0)" d="M1087.4472815320273,259.59543147650015L1049.1100279865414,244.43380578054524L1014.069797690753,152.97286568645384L1049.2336901927042,0L1343.1576251175634,0L1324.876553338803,53.01855092145212Z" stroke-width="0.35"/><path transform="translate(0,0)" d="M1087.4472815320273,259.59543147650015L1324.876553338803,53.01855092145212L1309.8305084745762,118.47309637599795L1165.211545968156,298.22547915233935L1125.042231376372,314.1116487649094Z" stroke-width="0.35"/><path transform="translate(0,0)" d="M1125.042231376372,314.1116487649094L1165.211545968156,298.22547915233935L1223.9751408617797,362.13503857054553L1142.6942388889997,480L1093.2431593060253,480L1098.8470809531266,382.4854312255837Z" stroke-width="0.35"/><path transform="translate(0,0)" d="M1165.211545968156,298.22547915233935L1309.8305084745762,118.47309637599795L1309.8305084745762,207.76391319108922L1242.581073779841,354.0409321598635L1223.9751408617797,362.13503857054553Z" stroke-width="0.35"/><path transform="translate(0,0)" d="M1142.6942388889997,480L1223.9751408617797,362.13503857054553L1242.581073779841,354.0409321598635L1309.8305084745762,402.79993848278855L1320.2022147959897,417.83988926901907L1339.2538850979527,480Z" stroke-width="0.35"/><path transform="translate(0,0)" d="M1242.581073779841,354.0409321598635L1309.8305084745762,207.76391319108922L1309.8305084745762,402.79993848278855Z" stroke-width="0.35"/><path transform="translate(0,0)" d="M1309.8305084745762,402.79993848278855L1309.8305084745762,207.7639131910892L1363.306553538911,324.08186431972695L1320.2022147959897,417.83988926901907Z" stroke-width="0.35"/><path transform="translate(0,0)" d="M1339.2538850979527,480L1320.2022147959897,417.83988926901907L1363.306553538911,324.08186431972695L1405.055028381993,354.35147414004064L1421.3716075771827,401.672626608199L1417.3361799987379,454.33837636078385L1402.5890781021753,480Z" stroke-width="0.35"/><path transform="translate(0,0)" d="M1324.876553338803,53.01855092145212L1343.1576251175634,0L1558.8348771193587,0L1549.2996550768994,145.18318307586438L1405.055028381993,354.35147414004064L1363.306553538911,324.08186431972695L1309.8305084745762,207.7639131910892L1309.8305084745762,118.47309637599795Z" stroke-width="0.35"/><path transform="translate(0,0)" d="M1405.055028381993,354.35147414004064L1549.2996550768994,145.18318307586438L1550.2543708147855,170.10288199695603L1530.8602694685899,282.59597455115977L1421.3716075771827,401.672626608199Z" stroke-width="0.35"/><path transform="translate(0,0)" d="M1417.3361799987379,454.33837636078385L1421.3716075771827,401.672626608199L1530.8602694685899,282.59597455115977L1537.8352598403137,373.6255099109452L1514.594152842535,407.3273034858786Z" stroke-width="0.35"/><path transform="translate(0,0)" d="M1402.5890781021753,480L1417.3361799987379,454.33837636078385L1514.594152842535,407.3273034858786L1564.7099993996758,480Z" stroke-width="0.35"/><path transform="translate(0,0)" d="M1564.7099993996758,480L1514.594152842535,407.3273034858786L1537.8352598403137,373.6255099109452L1593.7437064014566,408.3708721805819L1626.6745002301243,480Z" stroke-width="0.35"/><path transform="translate(0,0)" d="M1530.8602694685899,282.59597455115977L1550.2543708147855,170.10288199695603L1633.3749376663397,350.9018550921451L1593.7437064014566,408.3708721805819L1537.8352598403137,373.6255099109452Z" stroke-width="0.35"/><path transform="translate(0,0)" d="M1626.6745002301243,480L1593.7437064014566,408.3708721805819L1633.3749376663397,350.9018550921451L1667.821076714759,372.30906015048504L1692.5760070438034,480Z" stroke-width="0.35"/><path transform="translate(0,0)" d="M1549.2996550768994,145.18318307586438L1558.8348771193587,0L1664.8743121285493,0L1749.0191327316752,199.6656760074173L1734.9430132271427,291.51832023190826L1717.7863779774411,328.83642515357553L1667.821076714759,372.30906015048504L1633.3749376663397,350.9018550921451L1550.2543708147855,170.10288199695603Z" stroke-width="0.35"/><path transform="translate(0,0)" d="M1750.7120405018713,480L1692.5760070438034,480L1667.821076714759,372.30906015048504L1717.7863779774411,328.83642515357553L1751.4409717247315,475.2434149016744Z" stroke-width="0.35"/><path transform="translate(0,0)" d="M1751.4409717247315,475.2434149016744L1717.7863779774411,328.83642515357553L1734.9430132271427,291.51832023190826L1780.5700564018857,390.7635836345978Z" stroke-width="0.35"/><path transform="translate(0,0)" d="M1734.9430132271427,291.51832023190826L1749.0191327316752,199.6656760074173L1822.3728813559323,273.3063362951328L1822.3728813559321,354.39276418305434L1780.5700564018857,390.7635836345978Z" stroke-width="0.35"/><path transform="translate(0,0)" d="M1750.7120405018713,480L1751.4409717247315,475.2434149016744L1780.5700564018857,390.7635836345978L1822.3728813559321,354.39276418305434L1879.322033898305,403.94174436116407L1879.322033898305,480Z" stroke-width="0.35"/><path transform="translate(0,0)" d="M1822.3728813559321,354.39276418305434L1822.3728813559323,273.3063362951328L1917.2881355932204,305.0685030759722L1917.2881355932204,337.87643745701774L1879.322033898305,403.94174436116407Z" stroke-width="0.35"/><path transform="translate(0,0)" d="M2171.3571088387725,0L2131.173497688752,74.91859705936042L1962.945366497909,274.5112950823953L1917.2881355932204,305.0685030759722L1822.3728813559323,273.3063362951328L1749.0191327316752,199.6656760074173L1664.8743121285493,0Z" stroke-width="0.35"/><path transform="translate(0,0)" d="M1879.322033898305,480L1879.322033898305,403.94174436116407L1917.2881355932204,337.87643745701774L1996.267184279511,406.59267190723665L1968.143597542673,480Z" stroke-width="0.35"/><path transform="translate(0,0)" d="M1917.2881355932204,305.0685030759722L1962.945366497909,274.5112950823953L2015.8395476414407,389.5636099991171L1996.267184279511,406.59267190723665L1917.2881355932204,337.87643745701774Z" stroke-width="0.35"/><path transform="translate(0,0)" d="M2015.8395476414407,389.5636099991171L1962.945366497909,274.5112950823953L2131.173497688752,74.91859705936042L2078.464344079136,304.21830485260506L2032.9919124748415,383.34547397194257Z" stroke-width="0.35"/><path transform="translate(0,0)" d="M1968.143597542673,480L1996.267184279511,406.59267190723665L2015.8395476414407,389.5636099991171L2032.9919124748415,383.34547397194257L2114.5946210953916,434.0590217022274L2132.1953855081747,480Z" stroke-width="0.35"/><path transform="translate(0,0)" d="M2032.9919124748415,383.34547397194257L2078.464344079136,304.21830485260506L2122.448863719742,399.89084757369733L2114.5946210953916,434.0590217022274Z" stroke-width="0.35"/><path transform="translate(0,0)" d="M2240,0L2240,247.5057498280715L2202.3933457400326,312.94557757987883L2122.448863719742,399.89084757369733L2078.464344079136,304.21830485260506L2131.173497688752,74.91859705936042L2171.3571088387725,0Z" stroke-width="0.35"/><path transform="translate(0,0)" d="M2122.448863719742,399.89084757369733L2202.3933457400326,312.94557757987883L2167.031841994677,466.778107997528L2156.3942288835974,480L2132.1953855081747,480L2114.5946210953916,434.0590217022274Z" stroke-width="0.35"/><path transform="translate(0,0)" d="M2240,413.87275803133326L2167.031841994677,466.778107997528L2202.3933457400326,312.94557757987883L2240,247.5057498280715Z" stroke-width="0.35"/><path transform="translate(0,0)" d="M2240,480L2156.3942288835974,480L2167.031841994677,466.778107997528L2240,413.87275803133326Z" stroke-width="0.35"/></g><g class="mark-symbol role-mark layer_4_marks" role="graphics-object" aria-roledescription="symbol mark container"><path aria-label="date: Sep 08, 2025; count: 1; Peak date: Sep 08, 2025; Peak unique count: 1" role="graphics-symbol" aria-roledescription="point" transform="translate(0,471.27272727272725)" d="M-5.916,0L0,-5.916L5.916,0L0,5.916Z" fill="#ff9900" stroke="#b36b00" stroke-width="1.5" opacity="0"/><path aria-label="date: Sep 09, 2025; count: 54; Peak date: Sep 09, 2025; Peak unique count: 54" role="graphics-symbol" aria-roledescription="point" transform="translate(37.96610169491525,8.72727272727273)" d="M-5.916,0L0,-5.916L5.916,0L0,5.916Z" fill="#ff9900" stroke="#b36b00" stroke-width="1.5" opacity="1"/><path aria-label="date: Sep 10, 2025; count: 51; Peak date: Sep 10, 2025; Peak unique count: 51" role="graphics-symbol" aria-roledescription="point" transform="translate(75.9322033898305,34.90909090909092)" d="M-5.916,0L0,-5.916L5.916,0L0,5.916Z" fill="#ff9900" stroke="#b36b00" stroke-width="1.5" opacity="0"/><path aria-label="date: Sep 11, 2025; count: 36; Peak date: Sep 11, 2025; Peak unique count: 36" role="graphics-symbol" aria-roledescription="point" transform="translate(113.89830508474577,165.8181818181818)" d="M-5.916,0L0,-5.916L5.916,0L0,5.916Z" fill="#ff9900" stroke="#b36b00" stroke-width="1.5" opacity="0"/><path aria-label="date: Sep 12, 2025; count: 32; Peak date: Sep 12, 2025; Peak unique count: 32" role="graphics-symbol" aria-roledescription="point" transform="translate(151.864406779661,200.72727272727275)" d="M-5.916,0L0,-5.916L5.916,0L0,5.916Z" fill="#ff9900" stroke="#b36b00" stroke-width="1.5" opacity="0"/><path aria-label="date: Sep 13, 2025; count: 20; Peak date: Sep 13, 2025; Peak unique count: 20" role="graphics-symbol" aria-roledescription="point" transform="translate(189.83050847457628,305.45454545454544)" d="M-5.916,0L0,-5.916L5.916,0L0,5.916Z" fill="#ff9900" stroke="#b36b00" stroke-width="1.5" opacity="0"/><path aria-label="date: Sep 14, 2025; count: 18; Peak date: Sep 14, 2025; Peak unique count: 18" role="graphics-symbol" aria-roledescription="point" transform="translate(227.79661016949154,322.90909090909093)" d="M-5.916,0L0,-5.916L5.916,0L0,5.916Z" fill="#ff9900" stroke="#b36b00" stroke-width="1.5" opacity="0"/><path aria-label="date: Sep 15, 2025; count: 25; Peak date: Sep 15, 2025; Peak unique count: 25" role="graphics-symbol" aria-roledescription="point" transform="translate(265.7627118644068,261.8181818181818)" d="M-5.916,0L0,-5.916L5.916,0L0,5.916Z" fill="#ff9900" stroke="#b36b00" stroke-width="1.5" opacity="0"/><path aria-label="date: Sep 16, 2025; count: 27; Peak date: Sep 16, 2025; Peak unique count: 27" role="graphics-symbol" aria-roledescription="point" transform="translate(303.728813559322,244.36363636363635)" d="M-5.916,0L0,-5.916L5.916,0L0,5.916Z" fill="#ff9900" stroke="#b36b00" stroke-width="1.5" opacity="0"/><path aria-label="date: Sep 17, 2025; count: 39; Peak date: Sep 17, 2025; Peak unique count: 39" role="graphics-symbol" aria-roledescription="point" transform="translate(341.6949152542373,139.63636363636363)" d="M-5.916,0L0,-5.916L5.916,0L0,5.916Z" fill="#ff9900" stroke="#b36b00" stroke-width="1.5" opacity="0"/><path aria-label="date: Sep 18, 2025; count: 41; Peak date: Sep 18, 2025; Peak unique count: 41" role="graphics-symbol" aria-roledescription="point" transform="translate(379.66101694915255,122.18181818181817)" d="M-5.916,0L0,-5.916L5.916,0L0,5.916Z" fill="#ff9900" stroke="#b36b00" stroke-width="1.5" opacity="0"/><path aria-label="date: Sep 19, 2025; count: 28; Peak date: Sep 19, 2025; Peak unique count: 28" role="graphics-symbol" aria-roledescription="point" transform="translate(417.6271186440678,235.63636363636365)" d="M-5.916,0L0,-5.916L5.916,0L0,5.916Z" fill="#ff9900" stroke="#b36b00" stroke-width="1.5" opacity="0"/><path aria-label="date: Sep 20, 2025; count: 24; Peak date: Sep 20, 2025; Peak unique count: 24" role="graphics-symbol" aria-roledescription="point" transform="translate(455.5932203389831,270.54545454545456)" d="M-5.916,0L0,-5.916L5.916,0L0,5.916Z" fill="#ff9900" stroke="#b36b00" stroke-width="1.5" opacity="0"/><path aria-label="date: Sep 21, 2025; count: 15; Peak date: Sep 21, 2025; Peak unique count: 15" role="graphics-symbol" aria-roledescription="point" transform="translate(493.5593220338983,349.0909090909091)" d="M-5.916,0L0,-5.916L5.916,0L0,5.916Z" fill="#ff9900" stroke="#b36b00" stroke-width="1.5" opacity="0"/><path aria-label="date: Sep 22, 2025; count: 16; Peak date: Sep 22, 2025; Peak unique count: 16" role="graphics-symbol" aria-roledescription="point" transform="translate(531.5254237288136,340.3636363636364)" d="M-5.916,0L0,-5.916L5.916,0L0,5.916Z" fill="#ff9900" stroke="#b36b00" stroke-width="1.5" opacity="0"/><path aria-label="date: Sep 23, 2025; count: 17; Peak date: Sep 23, 2025; Peak unique count: 17" role="graphics-symbol" aria-roledescription="point" transform="translate(569.4915254237288,331.6363636363636)" d="M-5.916,0L0,-5.916L5.916,0L0,5.916Z" fill="#ff9900" stroke="#b36b00" stroke-width="1.5" opacity="0"/><path aria-label="date: Sep 24, 2025; count: 18; Peak date: Sep 24, 2025; Peak unique count: 18" role="graphics-symbol" aria-roledescription="point" transform="translate(607.457627118644,322.90909090909093)" d="M-5.916,0L0,-5.916L5.916,0L0,5.916Z" fill="#ff9900" stroke="#b36b00" stroke-width="1.5" opacity="0"/><path aria-label="date: Sep 25, 2025; count: 11; Peak date: Sep 25, 2025; Peak unique count: 11" role="graphics-symbol" aria-roledescription="point" transform="translate(645.4237288135594,384)" d="M-5.916,0L0,-5.916L5.916,0L0,5.916Z" fill="#ff9900" stroke="#b36b00" stroke-width="1.5" opacity="0"/><path aria-label="date: Sep 26, 2025; count: 25; Peak date: Sep 26, 2025; Peak unique count: 25" role="graphics-symbol" aria-roledescription="point" transform="translate(683.3898305084746,261.8181818181818)" d="M-5.916,0L0,-5.916L5.916,0L0,5.916Z" fill="#ff9900" stroke="#b36b00" stroke-width="1.5" opacity="0"/><path aria-label="date: Sep 27, 2025; count: 7; Peak date: Sep 27, 2025; Peak unique count: 7" role="graphics-symbol" aria-roledescription="point" transform="translate(721.3559322033898,418.90909090909093)" d="M-5.916,0L0,-5.916L5.916,0L0,5.916Z" fill="#ff9900" stroke="#b36b00" stroke-width="1.5" opacity="0"/><path aria-label="date: Sep 28, 2025; count: 14; Peak date: Sep 28, 2025; Peak unique count: 14" role="graphics-symbol" aria-roledescription="point" transform="translate(759.3220338983051,357.8181818181818)" d="M-5.916,0L0,-5.916L5.916,0L0,5.916Z" fill="#ff9900" stroke="#b36b00" stroke-width="1.5" opacity="0"/><path aria-label="date: Sep 29, 2025; count: 38; Peak date: Sep 29, 2025; Peak unique count: 38" role="graphics-symbol" aria-roledescription="point" transform="translate(797.2881355932203,148.36363636363637)" d="M-5.916,0L0,-5.916L5.916,0L0,5.916Z" fill="#ff9900" stroke="#b36b00" stroke-width="1.5" opacity="0"/><path aria-label="date: Sep 30, 2025; count: 27; Peak date: Sep 30, 2025; Peak unique count: 27" role="graphics-symbol" aria-roledescription="point" transform="translate(835.2542372881356,244.36363636363635)" d="M-5.916,0L0,-5.916L5.916,0L0,5.916Z" fill="#ff9900" stroke="#b36b00" stroke-width="1.5" opacity="0"/><path aria-label="date: Oct 01, 2025; count: 9; Peak date: Oct 01, 2025; Peak unique count: 9" role="graphics-symbol" aria-roledescription="point" transform="translate(873.2203389830509,401.4545454545455)" d="M-5.916,0L0,-5.916L5.916,0L0,5.916Z" fill="#ff9900" stroke="#b36b00" stroke-width="1.5" opacity="0"/><path aria-label="date: Oct 02, 2025; count: 36; Peak date: Oct 02, 2025; Peak unique count: 36" role="graphics-symbol" aria-roledescription="point" transform="translate(911.1864406779662,165.8181818181818)" d="M-5.916,0L0,-5.916L5.916,0L0,5.916Z" fill="#ff9900" stroke="#b36b00" stroke-width="1.5" opacity="0"/><path aria-label="date: Oct 03, 2025; count: 26; Peak date: Oct 03, 2025; Peak unique count: 26" role="graphics-symbol" aria-roledescription="point" transform="translate(949.1525423728813,253.09090909090912)" d="M-5.916,0L0,-5.916L5.916,0L0,5.916Z" fill="#ff9900" stroke="#b36b00" stroke-width="1.5" opacity="0"/><path aria-label="date: Oct 04, 2025; count: 26; Peak date: Oct 04, 2025; Peak unique count: 26" role="graphics-symbol" aria-roledescription="point" transform="translate(987.1186440677966,253.09090909090912)" d="M-5.916,0L0,-5.916L5.916,0L0,5.916Z" fill="#ff9900" stroke="#b36b00" stroke-width="1.5" opacity="0"/><path aria-label="date: Oct 05, 2025; count: 16; Peak date: Oct 05, 2025; Peak unique count: 16" role="graphics-symbol" aria-roledescription="point" transform="translate(1025.084745762712,340.3636363636364)" d="M-5.916,0L0,-5.916L5.916,0L0,5.916Z" fill="#ff9900" stroke="#b36b00" stroke-width="1.5" opacity="0"/><path aria-label="date: Oct 06, 2025; count: 20; Peak date: Oct 06, 2025; Peak unique count: 20" role="graphics-symbol" aria-roledescription="point" transform="translate(1063.0508474576272,305.45454545454544)" d="M-5.916,0L0,-5.916L5.916,0L0,5.916Z" fill="#ff9900" stroke="#b36b00" stroke-width="1.5" opacity="0"/><path aria-label="date: Oct 07, 2025; count: 31; Peak date: Oct 07, 2025; Peak unique count: 31" role="graphics-symbol" aria-roledescription="point" transform="translate(1101.0169491525423,209.45454545454547)" d="M-5.916,0L0,-5.916L5.916,0L0,5.916Z" fill="#ff9900" stroke="#b36b00" stroke-width="1.5" opacity="0"/><path aria-label="date: Oct 08, 2025; count: 26; Peak date: Oct 08, 2025; Peak unique count: 26" role="graphics-symbol" aria-roledescription="point" transform="translate(1138.9830508474577,253.09090909090912)" d="M-5.916,0L0,-5.916L5.916,0L0,5.916Z" fill="#ff9900" stroke="#b36b00" stroke-width="1.5" opacity="0"/><path aria-label="date: Oct 09, 2025; count: 15; Peak date: Oct 09, 2025; Peak unique count: 15" role="graphics-symbol" aria-roledescription="point" transform="translate(1176.949152542373,349.0909090909091)" d="M-5.916,0L0,-5.916L5.916,0L0,5.916Z" fill="#ff9900" stroke="#b36b00" stroke-width="1.5" opacity="0"/><path aria-label="date: Oct 10, 2025; count: 19; Peak date: Oct 10, 2025; Peak unique count: 19" role="graphics-symbol" aria-roledescription="point" transform="translate(1214.915254237288,314.1818181818182)" d="M-5.916,0L0,-5.916L5.916,0L0,5.916Z" fill="#ff9900" stroke="#b36b00" stroke-width="1.5" opacity="0"/><path aria-label="date: Oct 11, 2025; count: 9; Peak date: Oct 11, 2025; Peak unique count: 9" role="graphics-symbol" aria-roledescription="point" transform="translate(1252.8813559322032,401.4545454545455)" d="M-5.916,0L0,-5.916L5.916,0L0,5.916Z" fill="#ff9900" stroke="#b36b00" stroke-width="1.5" opacity="0"/><path aria-label="date: Oct 12, 2025; count: 15; Peak date: Oct 12, 2025; Peak unique count: 15" role="graphics-symbol" aria-roledescription="point" transform="translate(1290.8474576271187,349.0909090909091)" d="M-5.916,0L0,-5.916L5.916,0L0,5.916Z" fill="#ff9900" stroke="#b36b00" stroke-width="1.5" opacity="0"/><path aria-label="date: Oct 13, 2025; count: 15; Peak date: Oct 13, 2025; Peak unique count: 15" role="graphics-symbol" aria-roledescription="point" transform="translate(1328.8135593220338,349.0909090909091)" d="M-5.916,0L0,-5.916L5.916,0L0,5.916Z" fill="#ff9900" stroke="#b36b00" stroke-width="1.5" opacity="0"/><path aria-label="date: Oct 14, 2025; count: 13; Peak date: Oct 14, 2025; Peak unique count: 13" role="graphics-symbol" aria-roledescription="point" transform="translate(1366.7796610169491,366.54545454545456)" d="M-5.916,0L0,-5.916L5.916,0L0,5.916Z" fill="#ff9900" stroke="#b36b00" stroke-width="1.5" opacity="0"/><path aria-label="date: Oct 15, 2025; count: 19; Peak date: Oct 15, 2025; Peak unique count: 19" role="graphics-symbol" aria-roledescription="point" transform="translate(1404.7457627118645,314.1818181818182)" d="M-5.916,0L0,-5.916L5.916,0L0,5.916Z" fill="#ff9900" stroke="#b36b00" stroke-width="1.5" opacity="0"/><path aria-label="date: Oct 16, 2025; count: 16; Peak date: Oct 16, 2025; Peak unique count: 16" role="graphics-symbol" aria-roledescription="point" transform="translate(1442.7118644067796,340.3636363636364)" d="M-5.916,0L0,-5.916L5.916,0L0,5.916Z" fill="#ff9900" stroke="#b36b00" stroke-width="1.5" opacity="0"/><path aria-label="date: Oct 17, 2025; count: 12; Peak date: Oct 17, 2025; Peak unique count: 12" role="graphics-symbol" aria-roledescription="point" transform="translate(1480.677966101695,375.2727272727273)" d="M-5.916,0L0,-5.916L5.916,0L0,5.916Z" fill="#ff9900" stroke="#b36b00" stroke-width="1.5" opacity="0"/><path aria-label="date: Oct 18, 2025; count: 3; Peak date: Oct 18, 2025; Peak unique count: 3" role="graphics-symbol" aria-roledescription="point" transform="translate(1518.6440677966102,453.8181818181818)" d="M-5.916,0L0,-5.916L5.916,0L0,5.916Z" fill="#ff9900" stroke="#b36b00" stroke-width="1.5" opacity="0"/><path aria-label="date: Oct 19, 2025; count: 6; Peak date: Oct 19, 2025; Peak unique count: 6" role="graphics-symbol" aria-roledescription="point" transform="translate(1556.6101694915255,427.6363636363636)" d="M-5.916,0L0,-5.916L5.916,0L0,5.916Z" fill="#ff9900" stroke="#b36b00" stroke-width="1.5" opacity="0"/><path aria-label="date: Oct 20, 2025; count: 13; Peak date: Oct 20, 2025; Peak unique count: 13" role="graphics-symbol" aria-roledescription="point" transform="translate(1594.5762711864406,366.54545454545456)" d="M-5.916,0L0,-5.916L5.916,0L0,5.916Z" fill="#ff9900" stroke="#b36b00" stroke-width="1.5" opacity="0"/><path aria-label="date: Oct 21, 2025; count: 10; Peak date: Oct 21, 2025; Peak unique count: 10" role="graphics-symbol" aria-roledescription="point" transform="translate(1632.5423728813557,392.7272727272727)" d="M-5.916,0L0,-5.916L5.916,0L0,5.916Z" fill="#ff9900" stroke="#b36b00" stroke-width="1.5" opacity="0"/><path aria-label="date: Oct 22, 2025; count: 17; Peak date: Oct 22, 2025; Peak unique count: 17" role="graphics-symbol" aria-roledescription="point" transform="translate(1670.5084745762713,331.6363636363636)" d="M-5.916,0L0,-5.916L5.916,0L0,5.916Z" fill="#ff9900" stroke="#b36b00" stroke-width="1.5" opacity="0"/><path aria-label="date: Oct 23, 2025; count: 12; Peak date: Oct 23, 2025; Peak unique count: 12" role="graphics-symbol" aria-roledescription="point" transform="translate(1708.4745762711864,375.2727272727273)" d="M-5.916,0L0,-5.916L5.916,0L0,5.916Z" fill="#ff9900" stroke="#b36b00" stroke-width="1.5" opacity="0"/><path aria-label="date: Oct 24, 2025; count: 13; Peak date: Oct 24, 2025; Peak unique count: 13" role="graphics-symbol" aria-roledescription="point" transform="translate(1746.4406779661017,366.54545454545456)" d="M-5.916,0L0,-5.916L5.916,0L0,5.916Z" fill="#ff9900" stroke="#b36b00" stroke-width="1.5" opacity="0"/><path aria-label="date: Oct 25, 2025; count: 15; Peak date: Oct 25, 2025; Peak unique count: 15" role="graphics-symbol" aria-roledescription="point" transform="translate(1784.406779661017,349.0909090909091)" d="M-5.916,0L0,-5.916L5.916,0L0,5.916Z" fill="#ff9900" stroke="#b36b00" stroke-width="1.5" opacity="0"/><path aria-label="date: Oct 26, 2025; count: 10; Peak date: Oct 26, 2025; Peak unique count: 10" role="graphics-symbol" aria-roledescription="point" transform="translate(1822.3728813559323,392.7272727272727)" d="M-5.916,0L0,-5.916L5.916,0L0,5.916Z" fill="#ff9900" stroke="#b36b00" stroke-width="1.5" opacity="0"/><path aria-label="date: Oct 27, 2025; count: 15; Peak date: Oct 27, 2025; Peak unique count: 15" role="graphics-symbol" aria-roledescription="point" transform="translate(1860.3389830508474,349.0909090909091)" d="M-5.916,0L0,-5.916L5.916,0L0,5.916Z" fill="#ff9900" stroke="#b36b00" stroke-width="1.5" opacity="0"/><path aria-label="date: Oct 28, 2025; count: 28; Peak date: Oct 28, 2025; Peak unique count: 28" role="graphics-symbol" aria-roledescription="point" transform="translate(1898.3050847457625,235.63636363636365)" d="M-5.916,0L0,-5.916L5.916,0L0,5.916Z" fill="#ff9900" stroke="#b36b00" stroke-width="1.5" opacity="0"/><path aria-label="date: Oct 29, 2025; count: 10; Peak date: Oct 29, 2025; Peak unique count: 10" role="graphics-symbol" aria-roledescription="point" transform="translate(1936.271186440678,392.7272727272727)" d="M-5.916,0L0,-5.916L5.916,0L0,5.916Z" fill="#ff9900" stroke="#b36b00" stroke-width="1.5" opacity="0"/><path aria-label="date: Oct 30, 2025; count: 15; Peak date: Oct 30, 2025; Peak unique count: 15" role="graphics-symbol" aria-roledescription="point" transform="translate(1974.2372881355932,349.0909090909091)" d="M-5.916,0L0,-5.916L5.916,0L0,5.916Z" fill="#ff9900" stroke="#b36b00" stroke-width="1.5" opacity="0"/><path aria-label="date: Oct 31, 2025; count: 17; Peak date: Oct 31, 2025; Peak unique count: 17" role="graphics-symbol" aria-roledescription="point" transform="translate(2012.2033898305085,331.6363636363636)" d="M-5.916,0L0,-5.916L5.916,0L0,5.916Z" fill="#ff9900" stroke="#b36b00" stroke-width="1.5" opacity="0"/><path aria-label="date: Nov 01, 2025; count: 5; Peak date: Nov 01, 2025; Peak unique count: 5" role="graphics-symbol" aria-roledescription="point" transform="translate(2050.169491525424,436.3636363636364)" d="M-5.916,0L0,-5.916L5.916,0L0,5.916Z" fill="#ff9900" stroke="#b36b00" stroke-width="1.5" opacity="0"/><path aria-label="date: Nov 02, 2025; count: 12; Peak date: Nov 02, 2025; Peak unique count: 12" role="graphics-symbol" aria-roledescription="point" transform="translate(2088.1355932203387,375.2727272727273)" d="M-5.916,0L0,-5.916L5.916,0L0,5.916Z" fill="#ff9900" stroke="#b36b00" stroke-width="1.5" opacity="0"/><path aria-label="date: Nov 03, 2025; count: 14; Peak date: Nov 03, 2025; Peak unique count: 14" role="graphics-symbol" aria-roledescription="point" transform="translate(2126.1016949152545,357.8181818181818)" d="M-5.916,0L0,-5.916L5.916,0L0,5.916Z" fill="#ff9900" stroke="#b36b00" stroke-width="1.5" opacity="0"/><path aria-label="date: Nov 04, 2025; count: 10; Peak date: Nov 04, 2025; Peak unique count: 10" role="graphics-symbol" aria-roledescription="point" transform="translate(2164.0677966101694,392.7272727272727)" d="M-5.916,0L0,-5.916L5.916,0L0,5.916Z" fill="#ff9900" stroke="#b36b00" stroke-width="1.5" opacity="0"/><path aria-label="date: Nov 05, 2025; count: 9; Peak date: Nov 05, 2025; Peak unique count: 9" role="graphics-symbol" aria-roledescription="point" transform="translate(2202.0338983050847,401.4545454545455)" d="M-5.916,0L0,-5.916L5.916,0L0,5.916Z" fill="#ff9900" stroke="#b36b00" stroke-width="1.5" opacity="0"/><path aria-label="date: Nov 06, 2025; count: 3; Peak date: Nov 06, 2025; Peak unique count: 3" role="graphics-symbol" aria-roledescription="point" transform="translate(2240,453.8181818181818)" d="M-5.916,0L0,-5.916L5.916,0L0,5.916Z" fill="#ff9900" stroke="#b36b00" stroke-width="1.5" opacity="0"/></g><g class="mark-rule role-mark layer_5_marks" role="graphics-symbol" aria-roledescription="rule mark container" pointer-events="none"><line transform="translate(2240,313.5709090909091)" x2="-2240" y2="0" stroke="#d62728" stroke-width="1.5" stroke-dasharray="4,4"/><line transform="translate(2240,313.5709090909091)" x2="-2240" y2="0" stroke="#d62728" stroke-width="1.5" stroke-dasharray="4,4"/><line transform="translate(2240,313.5709090909091)" x2="-2240" y2="0" stroke="#d62728" stroke-width="1.5" stroke-dasharray="4,4"/><line transform="translate(2240,313.5709090909091)" x2="-2240" y2="0" stroke="#d62728" stroke-width="1.5" stroke-dasharray="4,4"/><line transform="translate(2240,313.5709090909091)" x2="-2240" y2="0" stroke="#d62728" stroke-width="1.5" stroke-dasharray="4,4"/><line transform="translate(2240,313.5709090909091)" x2="-2240" y2="0" stroke="#d62728" stroke-width="1.5" stroke-dasharray="4,4"/><line transform="translate(2240,313.5709090909091)" x2="-2240" y2="0" stroke="#d62728" stroke-width="1.5" stroke-dasharray="4,4"/><line transform="translate(2240,313.5709090909091)" x2="-2240" y2="0" stroke="#d62728" stroke-width="1.5" stroke-dasharray="4,4"/><line transform="translate(2240,313.5709090909091)" x2="-2240" y2="0" stroke="#d62728" stroke-width="1.5" stroke-dasharray="4,4"/><line transform="translate(2240,313.5709090909091)" x2="-2240" y2="0" stroke="#d62728" stroke-width="1.5" stroke-dasharray="4,4"/><line transform="translate(2240,313.5709090909091)" x2="-2240" y2="0" stroke="#d62728" stroke-width="1.5" stroke-dasharray="4,4"/><line transform="translate(2240,313.5709090909091)" x2="-2240" y2="0" stroke="#d62728" stroke-width="1.5" stroke-dasharray="4,4"/><line transform="translate(2240,313.5709090909091)" x2="-2240" y2="0" stroke="#d62728" stroke-width="1.5" stroke-dasharray="4,4"/><line transform="translate(2240,313.5709090909091)" x2="-2240" y2="0" stroke="#d62728" stroke-width="1.5" stroke-dasharray="4,4"/><line transform="translate(2240,313.5709090909091)" x2="-2240" y2="0" stroke="#d62728" stroke-width="1.5" stroke-dasharray="4,4"/><line transform="translate(2240,313.5709090909091)" x2="-2240" y2="0" stroke="#d62728" stroke-width="1.5" stroke-dasharray="4,4"/><line transform="translate(2240,313.5709090909091)" x2="-2240" y2="0" stroke="#d62728" stroke-width="1.5" stroke-dasharray="4,4"/><line transform="translate(2240,313.5709090909091)" x2="-2240" y2="0" stroke="#d62728" stroke-width="1.5" stroke-dasharray="4,4"/><line transform="translate(2240,313.5709090909091)" x2="-2240" y2="0" stroke="#d62728" stroke-width="1.5" stroke-dasharray="4,4"/><line transform="translate(2240,313.5709090909091)" x2="-2240" y2="0" stroke="#d62728" stroke-width="1.5" stroke-dasharray="4,4"/><line transform="translate(2240,313.5709090909091)" x2="-2240" y2="0" stroke="#d62728" stroke-width="1.5" stroke-dasharray="4,4"/><line transform="translate(2240,313.5709090909091)" x2="-2240" y2="0" stroke="#d62728" stroke-width="1.5" stroke-dasharray="4,4"/><line transform="translate(2240,313.5709090909091)" x2="-2240" y2="0" stroke="#d62728" stroke-width="1.5" stroke-dasharray="4,4"/><line transform="translate(2240,313.5709090909091)" x2="-2240" y2="0" stroke="#d62728" stroke-width="1.5" stroke-dasharray="4,4"/><line transform="translate(2240,313.5709090909091)" x2="-2240" y2="0" stroke="#d62728" stroke-width="1.5" stroke-dasharray="4,4"/><line transform="translate(2240,313.5709090909091)" x2="-2240" y2="0" stroke="#d62728" stroke-width="1.5" stroke-dasharray="4,4"/><line transform="translate(2240,313.5709090909091)" x2="-2240" y2="0" stroke="#d62728" stroke-width="1.5" stroke-dasharray="4,4"/><line transform="translate(2240,313.5709090909091)" x2="-2240" y2="0" stroke="#d62728" stroke-width="1.5" stroke-dasharray="4,4"/><line transform="translate(2240,313.5709090909091)" x2="-2240" y2="0" stroke="#d62728" stroke-width="1.5" stroke-dasharray="4,4"/><line transform="translate(2240,313.5709090909091)" x2="-2240" y2="0" stroke="#d62728" stroke-width="1.5" stroke-dasharray="4,4"/><line transform="translate(2240,313.5709090909091)" x2="-2240" y2="0" stroke="#d62728" stroke-width="1.5" stroke-dasharray="4,4"/><line transform="translate(2240,313.5709090909091)" x2="-2240" y2="0" stroke="#d62728" stroke-width="1.5" stroke-dasharray="4,4"/><line transform="translate(2240,313.5709090909091)" x2="-2240" y2="0" stroke="#d62728" stroke-width="1.5" stroke-dasharray="4,4"/><line transform="translate(2240,313.5709090909091)" x2="-2240" y2="0" stroke="#d62728" stroke-width="1.5" stroke-dasharray="4,4"/><line transform="translate(2240,313.5709090909091)" x2="-2240" y2="0" stroke="#d62728" stroke-width="1.5" stroke-dasharray="4,4"/><line transform="translate(2240,313.5709090909091)" x2="-2240" y2="0" stroke="#d62728" stroke-width="1.5" stroke-dasharray="4,4"/><line transform="translate(2240,313.5709090909091)" x2="-2240" y2="0" stroke="#d62728" stroke-width="1.5" stroke-dasharray="4,4"/><line transform="translate(2240,313.5709090909091)" x2="-2240" y2="0" stroke="#d62728" stroke-width="1.5" stroke-dasharray="4,4"/><line transform="translate(2240,313.5709090909091)" x2="-2240" y2="0" stroke="#d62728" stroke-width="1.5" stroke-dasharray="4,4"/><line transform="translate(2240,313.5709090909091)" x2="-2240" y2="0" stroke="#d62728" stroke-width="1.5" stroke-dasharray="4,4"/><line transform="translate(2240,313.5709090909091)" x2="-2240" y2="0" stroke="#d62728" stroke-width="1.5" stroke-dasharray="4,4"/><line transform="translate(2240,313.5709090909091)" x2="-2240" y2="0" stroke="#d62728" stroke-width="1.5" stroke-dasharray="4,4"/><line transform="translate(2240,313.5709090909091)" x2="-2240" y2="0" stroke="#d62728" stroke-width="1.5" stroke-dasharray="4,4"/><line transform="translate(2240,313.5709090909091)" x2="-2240" y2="0" stroke="#d62728" stroke-width="1.5" stroke-dasharray="4,4"/><line transform="translate(2240,313.5709090909091)" x2="-2240" y2="0" stroke="#d62728" stroke-width="1.5" stroke-dasharray="4,4"/><line transform="translate(2240,313.5709090909091)" x2="-2240" y2="0" stroke="#d62728" stroke-width="1.5" stroke-dasharray="4,4"/><line transform="translate(2240,313.5709090909091)" x2="-2240" y2="0" stroke="#d62728" stroke-width="1.5" stroke-dasharray="4,4"/><line transform="translate(2240,313.5709090909091)" x2="-2240" y2="0" stroke="#d62728" stroke-width="1.5" stroke-dasharray="4,4"/><line transform="translate(2240,313.5709090909091)" x2="-2240" y2="0" stroke="#d62728" stroke-width="1.5" stroke-dasharray="4,4"/><line transform="translate(2240,313.5709090909091)" x2="-2240" y2="0" stroke="#d62728" stroke-width="1.5" stroke-dasharray="4,4"/><line transform="translate(2240,313.5709090909091)" x2="-2240" y2="0" stroke="#d62728" stroke-width="1.5" stroke-dasharray="4,4"/><line transform="translate(2240,313.5709090909091)" x2="-2240" y2="0" stroke="#d62728" stroke-width="1.5" stroke-dasharray="4,4"/><line transform="translate(2240,313.5709090909091)" x2="-2240" y2="0" stroke="#d62728" stroke-width="1.5" stroke-dasharray="4,4"/><line transform="translate(2240,313.5709090909091)" x2="-2240" y2="0" stroke="#d62728" stroke-width="1.5" stroke-dasharray="4,4"/><line transform="translate(2240,313.5709090909091)" x2="-2240" y2="0" stroke="#d62728" stroke-width="1.5" stroke-dasharray="4,4"/><line transform="translate(2240,313.5709090909091)" x2="-2240" y2="0" stroke="#d62728" stroke-width="1.5" stroke-dasharray="4,4"/><line transform="translate(2240,313.5709090909091)" x2="-2240" y2="0" stroke="#d62728" stroke-width="1.5" stroke-dasharray="4,4"/><line transform="translate(2240,313.5709090909091)" x2="-2240" y2="0" stroke="#d62728" stroke-width="1.5" stroke-dasharray="4,4"/><line transform="translate(2240,313.5709090909091)" x2="-2240" y2="0" stroke="#d62728" stroke-width="1.5" stroke-dasharray="4,4"/><line transform="translate(2240,313.5709090909091)" x2="-2240" y2="0" stroke="#d62728" stroke-width="1.5" stroke-dasharray="4,4"/></g><g class="mark-text role-mark layer_6_marks" role="graphics-object" aria-roledescription="text mark container" pointer-events="none"><text aria-label="date: Nov 06, 2025" role="graphics-symbol" aria-roledescription="text mark" text-anchor="start" transform="translate(2246,311.5709090909091)" font-family="sans-serif" font-size="12px" fill="#d62728">Avg: 19.07</text></g></g><path class="foreground" aria-hidden="true" d="" display="none"/></g></g></g></svg>
