<svg xmlns="http://www.w3.org/2000/svg" xmlns:xlink="http://www.w3.org/1999/xlink" version="1.1" class="marks" width="2223" height="573" viewBox="0 0 2223 573"><rect width="2223" height="573" fill="white"/><g fill="none" stroke-miterlimit="10" transform="translate(51,11)"><g class="mark-group role-frame root" role="graphics-object" aria-roledescription="group mark container"><g transform="translate(0,0)"><path class="background" aria-hidden="true" d="M0.5,0.5h2096v480h-2096Z"/><g><g class="mark-group role-axis" aria-hidden="true"><g transform="translate(0.5,0.5)"><path class="background" aria-hidden="true" d="M0,0h0v0h0Z" pointer-events="none"/><g><g class="mark-rule role-axis-grid" pointer-events="none"><line transform="translate(0,480)" x2="2096" y2="0" stroke="#ddd" stroke-width="1" opacity="1"/><line transform="translate(0,436)" x2="2096" y2="0" stroke="#ddd" stroke-width="1" opacity="1"/><line transform="translate(0,393)" x2="2096" y2="0" stroke="#ddd" stroke-width="1" opacity="1"/><line transform="translate(0,349)" x2="2096" y2="0" stroke="#ddd" stroke-width="1" opacity="1"/><line transform="translate(0,305)" x2="2096" y2="0" stroke="#ddd" stroke-width="1" opacity="1"/><line transform="translate(0,262)" x2="2096" y2="0" stroke="#ddd" stroke-width="1" opacity="1"/><line transform="translate(0,218)" x2="2096" y2="0" stroke="#ddd" stroke-width="1" opacity="1"/><line transform="translate(0,175)" x2="2096" y2="0" stroke="#ddd" stroke-width="1" opacity="1"/><line transform="translate(0,131)" x2="2096" y2="0" stroke="#ddd" stroke-width="1" opacity="1"/><line transform="translate(0,87)" x2="2096" y2="0" stroke="#ddd" stroke-width="1" opacity="1"/><line transform="translate(0,44)" x2="2096" y2="0" stroke="#ddd" stroke-width="1" opacity="1"/><line transform="translate(0,0)" x2="2096" y2="0" stroke="#ddd" stroke-width="1" opacity="1"/></g></g><path class="foreground" aria-hidden="true" d="" pointer-events="none" display="none"/></g></g><g class="mark-group role-axis" role="graphics-symbol" aria-roledescription="axis" aria-label="X-axis titled 'Date' for a time scale with values from 2025-09-08 to 2025-11-02"><g transform="translate(0.5,480.5)"><path class="background" aria-hidden="true" d="M0,0h0v0h0Z" pointer-events="none"/><g><g class="mark-rule role-axis-tick" pointer-events="none"><line transform="translate(0,0)" x2="0" y2="5" stroke="#bbb" stroke-width="1" opacity="1"/><line transform="translate(38,0)" x2="0" y2="5" stroke="#bbb" stroke-width="1" opacity="1"/><line transform="translate(76,0)" x2="0" y2="5" stroke="#bbb" stroke-width="1" opacity="1"/><line transform="translate(114,0)" x2="0" y2="5" stroke="#bbb" stroke-width="1" opacity="1"/><line transform="translate(152,0)" x2="0" y2="5" stroke="#bbb" stroke-width="1" opacity="1"/><line transform="translate(191,0)" x2="0" y2="5" stroke="#bbb" stroke-width="1" opacity="1"/><line transform="translate(229,0)" x2="0" y2="5" stroke="#bbb" stroke-width="1" opacity="1"/><line transform="translate(267,0)" x2="0" y2="5" stroke="#bbb" stroke-width="1" opacity="1"/><line transform="translate(305,0)" x2="0" y2="5" stroke="#bbb" stroke-width="1" opacity="1"/><line transform="translate(343,0)" x2="0" y2="5" stroke="#bbb" stroke-width="1" opacity="1"/><line transform="translate(381,0)" x2="0" y2="5" stroke="#bbb" stroke-width="1" opacity="1"/><line transform="translate(419,0)" x2="0" y2="5" stroke="#bbb" stroke-width="1" opacity="1"/><line transform="translate(457,0)" x2="0" y2="5" stroke="#bbb" stroke-width="1" opacity="1"/><line transform="translate(495,0)" x2="0" y2="5" stroke="#bbb" stroke-width="1" opacity="1"/><line transform="translate(534,0)" x2="0" y2="5" stroke="#bbb" stroke-width="1" opacity="1"/><line transform="translate(572,0)" x2="0" y2="5" stroke="#bbb" stroke-width="1" opacity="1"/><line transform="translate(610,0)" x2="0" y2="5" stroke="#bbb" stroke-width="1" opacity="1"/><line transform="translate(648,0)" x2="0" y2="5" stroke="#bbb" stroke-width="1" opacity="1"/><line transform="translate(686,0)" x2="0" y2="5" stroke="#bbb" stroke-width="1" opacity="1"/><line transform="translate(724,0)" x2="0" y2="5" stroke="#bbb" stroke-width="1" opacity="1"/><line transform="translate(762,0)" x2="0" y2="5" stroke="#bbb" stroke-width="1" opacity="1"/><line transform="translate(800,0)" x2="0" y2="5" stroke="#bbb" stroke-width="1" opacity="1"/><line transform="translate(838,0)" x2="0" y2="5" stroke="#bbb" stroke-width="1" opacity="1"/><line transform="translate(877,0)" x2="0" y2="5" stroke="#bbb" stroke-width="1" opacity="1"/><line transform="translate(915,0)" x2="0" y2="5" stroke="#bbb" stroke-width="1" opacity="1"/><line transform="translate(953,0)" x2="0" y2="5" stroke="#bbb" stroke-width="1" opacity="1"/><line transform="translate(991,0)" x2="0" y2="5" stroke="#bbb" stroke-width="1" opacity="1"/><line transform="translate(1029,0)" x2="0" y2="5" stroke="#bbb" stroke-width="1" opacity="1"/><line transform="translate(1067,0)" x2="0" y2="5" stroke="#bbb" stroke-width="1" opacity="1"/><line transform="translate(1105,0)" x2="0" y2="5" stroke="#bbb" stroke-width="1" opacity="1"/><line transform="translate(1143,0)" x2="0" y2="5" stroke="#bbb" stroke-width="1" opacity="1"/><line transform="translate(1181,0)" x2="0" y2="5" stroke="#bbb" stroke-width="1" opacity="1"/><line transform="translate(1219,0)" x2="0" y2="5" stroke="#bbb" stroke-width="1" opacity="1"/><line transform="translate(1258,0)" x2="0" y2="5" stroke="#bbb" stroke-width="1" opacity="1"/><line transform="translate(1296,0)" x2="0" y2="5" stroke="#bbb" stroke-width="1" opacity="1"/><line transform="translate(1334,0)" x2="0" y2="5" stroke="#bbb" stroke-width="1" opacity="1"/><line transform="translate(1372,0)" x2="0" y2="5" stroke="#bbb" stroke-width="1" opacity="1"/><line transform="translate(1410,0)" x2="0" y2="5" stroke="#bbb" stroke-width="1" opacity="1"/><line transform="translate(1448,0)" x2="0" y2="5" stroke="#bbb" stroke-width="1" opacity="1"/><line transform="translate(1486,0)" x2="0" y2="5" stroke="#bbb" stroke-width="1" opacity="1"/><line transform="translate(1524,0)" x2="0" y2="5" stroke="#bbb" stroke-width="1" opacity="1"/><line transform="translate(1562,0)" x2="0" y2="5" stroke="#bbb" stroke-width="1" opacity="1"/><line transform="translate(1601,0)" x2="0" y2="5" stroke="#bbb" stroke-width="1" opacity="1"/><line transform="translate(1639,0)" x2="0" y2="5" stroke="#bbb" stroke-width="1" opacity="1"/><line transform="translate(1677,0)" x2="0" y2="5" stroke="#bbb" stroke-width="1" opacity="1"/><line transform="translate(1715,0)" x2="0" y2="5" stroke="#bbb" stroke-width="1" opacity="1"/><line transform="translate(1753,0)" x2="0" y2="5" stroke="#bbb" stroke-width="1" opacity="1"/><line transform="translate(1791,0)" x2="0" y2="5" stroke="#bbb" stroke-width="1" opacity="1"/><line transform="translate(1829,0)" x2="0" y2="5" stroke="#bbb" stroke-width="1" opacity="1"/><line transform="translate(1867,0)" x2="0" y2="5" stroke="#bbb" stroke-width="1" opacity="1"/><line transform="translate(1905,0)" x2="0" y2="5" stroke="#bbb" stroke-width="1" opacity="1"/><line transform="translate(1944,0)" x2="0" y2="5" stroke="#bbb" stroke-width="1" opacity="1"/><line transform="translate(1982,0)" x2="0" y2="5" stroke="#bbb" stroke-width="1" opacity="1"/><line transform="translate(2020,0)" x2="0" y2="5" stroke="#bbb" stroke-width="1" opacity="1"/><line transform="translate(2058,0)" x2="0" y2="5" stroke="#bbb" stroke-width="1" opacity="1"/><line transform="translate(2096,0)" x2="0" y2="5" stroke="#bbb" stroke-width="1" opacity="1"/></g><g class="mark-text role-axis-label" pointer-events="none"><text text-anchor="end" transform="translate(0,7) rotate(315) translate(0,9)" font-family="Segoe UI" font-size="11px" fill="#000" opacity="1">2025-09-08</text><text text-anchor="end" transform="translate(38.10909090909091,7) rotate(315) translate(0,9)" font-family="Segoe UI" font-size="11px" fill="#000" opacity="0">2025-09-09</text><text text-anchor="end" transform="translate(76.21818181818182,7) rotate(315) translate(0,9)" font-family="Segoe UI" font-size="11px" fill="#000" opacity="1">2025-09-10</text><text text-anchor="end" transform="translate(114.32727272727273,7) rotate(315) translate(0,9)" font-family="Segoe UI" font-size="11px" fill="#000" opacity="0">2025-09-11</text><text text-anchor="end" transform="translate(152.43636363636364,7) rotate(315) translate(0,9)" font-family="Segoe UI" font-size="11px" fill="#000" opacity="1">2025-09-12</text><text text-anchor="end" transform="translate(190.54545454545456,7) rotate(315) translate(0,9)" font-family="Segoe UI" font-size="11px" fill="#000" opacity="0">2025-09-13</text><text text-anchor="end" transform="translate(228.65454545454546,7) rotate(315) translate(0,9)" font-family="Segoe UI" font-size="11px" fill="#000" opacity="1">2025-09-14</text><text text-anchor="end" transform="translate(266.76363636363635,7) rotate(315) translate(0,9)" font-family="Segoe UI" font-size="11px" fill="#000" opacity="0">2025-09-15</text><text text-anchor="end" transform="translate(304.8727272727273,7) rotate(315) translate(0,9)" font-family="Segoe UI" font-size="11px" fill="#000" opacity="1">2025-09-16</text><text text-anchor="end" transform="translate(342.9818181818182,7) rotate(315) translate(0,9)" font-family="Segoe UI" font-size="11px" fill="#000" opacity="0">2025-09-17</text><text text-anchor="end" transform="translate(381.0909090909091,7) rotate(315) translate(0,9)" font-family="Segoe UI" font-size="11px" fill="#000" opacity="1">2025-09-18</text><text text-anchor="end" transform="translate(419.20000000000005,7) rotate(315) translate(0,9)" font-family="Segoe UI" font-size="11px" fill="#000" opacity="0">2025-09-19</text><text text-anchor="end" transform="translate(457.3090909090909,7) rotate(315) translate(0,9)" font-family="Segoe UI" font-size="11px" fill="#000" opacity="1">2025-09-20</text><text text-anchor="end" transform="translate(495.41818181818184,7) rotate(315) translate(0,9)" font-family="Segoe UI" font-size="11px" fill="#000" opacity="0">2025-09-21</text><text text-anchor="end" transform="translate(533.5272727272727,7) rotate(315) translate(0,9)" font-family="Segoe UI" font-size="11px" fill="#000" opacity="1">2025-09-22</text><text text-anchor="end" transform="translate(571.6363636363636,7) rotate(315) translate(0,9)" font-family="Segoe UI" font-size="11px" fill="#000" opacity="0">2025-09-23</text><text text-anchor="end" transform="translate(609.7454545454545,7) rotate(315) translate(0,9)" font-family="Segoe UI" font-size="11px" fill="#000" opacity="1">2025-09-24</text><text text-anchor="end" transform="translate(647.8545454545455,7) rotate(315) translate(0,9)" font-family="Segoe UI" font-size="11px" fill="#000" opacity="0">2025-09-25</text><text text-anchor="end" transform="translate(685.9636363636364,7) rotate(315) translate(0,9)" font-family="Segoe UI" font-size="11px" fill="#000" opacity="1">2025-09-26</text><text text-anchor="end" transform="translate(724.0727272727273,7) rotate(315) translate(0,9)" font-family="Segoe UI" font-size="11px" fill="#000" opacity="0">2025-09-27</text><text text-anchor="end" transform="translate(762.1818181818182,7) rotate(315) translate(0,9)" font-family="Segoe UI" font-size="11px" fill="#000" opacity="1">2025-09-28</text><text text-anchor="end" transform="translate(800.2909090909092,7) rotate(315) translate(0,9)" font-family="Segoe UI" font-size="11px" fill="#000" opacity="0">2025-09-29</text><text text-anchor="end" transform="translate(838.4000000000001,7) rotate(315) translate(0,9)" font-family="Segoe UI" font-size="11px" fill="#000" opacity="1">2025-09-30</text><text text-anchor="end" transform="translate(876.5090909090909,7) rotate(315) translate(0,9)" font-family="Segoe UI" font-size="11px" fill="#000" opacity="0">2025-10-01</text><text text-anchor="end" transform="translate(914.6181818181818,7) rotate(315) translate(0,9)" font-family="Segoe UI" font-size="11px" fill="#000" opacity="1">2025-10-02</text><text text-anchor="end" transform="translate(952.7272727272727,7) rotate(315) translate(0,9)" font-family="Segoe UI" font-size="11px" fill="#000" opacity="0">2025-10-03</text><text text-anchor="end" transform="translate(990.8363636363637,7) rotate(315) translate(0,9)" font-family="Segoe UI" font-size="11px" fill="#000" opacity="1">2025-10-04</text><text text-anchor="end" transform="translate(1028.9454545454546,7) rotate(315) translate(0,9)" font-family="Segoe UI" font-size="11px" fill="#000" opacity="0">2025-10-05</text><text text-anchor="end" transform="translate(1067.0545454545454,7) rotate(315) translate(0,9)" font-family="Segoe UI" font-size="11px" fill="#000" opacity="1">2025-10-06</text><text text-anchor="end" transform="translate(1105.1636363636362,7) rotate(315) translate(0,9)" font-family="Segoe UI" font-size="11px" fill="#000" opacity="0">2025-10-07</text><text text-anchor="end" transform="translate(1143.2727272727273,7) rotate(315) translate(0,9)" font-family="Segoe UI" font-size="11px" fill="#000" opacity="1">2025-10-08</text><text text-anchor="end" transform="translate(1181.381818181818,7) rotate(315) translate(0,9)" font-family="Segoe UI" font-size="11px" fill="#000" opacity="0">2025-10-09</text><text text-anchor="end" transform="translate(1219.490909090909,7) rotate(315) translate(0,9)" font-family="Segoe UI" font-size="11px" fill="#000" opacity="1">2025-10-10</text><text text-anchor="end" transform="translate(1257.6,7) rotate(315) translate(0,9)" font-family="Segoe UI" font-size="11px" fill="#000" opacity="0">2025-10-11</text><text text-anchor="end" transform="translate(1295.709090909091,7) rotate(315) translate(0,9)" font-family="Segoe UI" font-size="11px" fill="#000" opacity="1">2025-10-12</text><text text-anchor="end" transform="translate(1333.8181818181818,7) rotate(315) translate(0,9)" font-family="Segoe UI" font-size="11px" fill="#000" opacity="0">2025-10-13</text><text text-anchor="end" transform="translate(1371.9272727272728,7) rotate(315) translate(0,9)" font-family="Segoe UI" font-size="11px" fill="#000" opacity="1">2025-10-14</text><text text-anchor="end" transform="translate(1410.0363636363636,7) rotate(315) translate(0,9)" font-family="Segoe UI" font-size="11px" fill="#000" opacity="0">2025-10-15</text><text text-anchor="end" transform="translate(1448.1454545454546,7) rotate(315) translate(0,9)" font-family="Segoe UI" font-size="11px" fill="#000" opacity="1">2025-10-16</text><text text-anchor="end" transform="translate(1486.2545454545455,7) rotate(315) translate(0,9)" font-family="Segoe UI" font-size="11px" fill="#000" opacity="0">2025-10-17</text><text text-anchor="end" transform="translate(1524.3636363636365,7) rotate(315) translate(0,9)" font-family="Segoe UI" font-size="11px" fill="#000" opacity="1">2025-10-18</text><text text-anchor="end" transform="translate(1562.4727272727273,7) rotate(315) translate(0,9)" font-family="Segoe UI" font-size="11px" fill="#000" opacity="0">2025-10-19</text><text text-anchor="end" transform="translate(1600.5818181818183,7) rotate(315) translate(0,9)" font-family="Segoe UI" font-size="11px" fill="#000" opacity="1">2025-10-20</text><text text-anchor="end" transform="translate(1638.6909090909091,7) rotate(315) translate(0,9)" font-family="Segoe UI" font-size="11px" fill="#000" opacity="0">2025-10-21</text><text text-anchor="end" transform="translate(1676.8000000000002,7) rotate(315) translate(0,9)" font-family="Segoe UI" font-size="11px" fill="#000" opacity="1">2025-10-22</text><text text-anchor="end" transform="translate(1714.909090909091,7) rotate(315) translate(0,9)" font-family="Segoe UI" font-size="11px" fill="#000" opacity="0">2025-10-23</text><text text-anchor="end" transform="translate(1753.0181818181818,7) rotate(315) translate(0,9)" font-family="Segoe UI" font-size="11px" fill="#000" opacity="1">2025-10-24</text><text text-anchor="end" transform="translate(1791.1272727272726,7) rotate(315) translate(0,9)" font-family="Segoe UI" font-size="11px" fill="#000" opacity="0">2025-10-25</text><text text-anchor="end" transform="translate(1829.2363636363636,7) rotate(315) translate(0,9)" font-family="Segoe UI" font-size="11px" fill="#000" opacity="1">2025-10-26</text><text text-anchor="end" transform="translate(1867.3454545454545,7) rotate(315) translate(0,9)" font-family="Segoe UI" font-size="11px" fill="#000" opacity="0">2025-10-27</text><text text-anchor="end" transform="translate(1905.4545454545455,7) rotate(315) translate(0,9)" font-family="Segoe UI" font-size="11px" fill="#000" opacity="1">2025-10-28</text><text text-anchor="end" transform="translate(1943.5636363636363,7) rotate(315) translate(0,9)" font-family="Segoe UI" font-size="11px" fill="#000" opacity="0">2025-10-29</text><text text-anchor="end" transform="translate(1981.6727272727273,7) rotate(315) translate(0,9)" font-family="Segoe UI" font-size="11px" fill="#000" opacity="1">2025-10-30</text><text text-anchor="end" transform="translate(2019.7818181818182,7) rotate(315) translate(0,9)" font-family="Segoe UI" font-size="11px" fill="#000" opacity="0">2025-10-31</text><text text-anchor="end" transform="translate(2057.890909090909,7) rotate(315) translate(0,9)" font-family="Segoe UI" font-size="11px" fill="#000" opacity="1">2025-11-01</text><text text-anchor="end" transform="translate(2096,7) rotate(315) translate(0,9)" font-family="Segoe UI" font-size="11px" fill="#000" opacity="0">2025-11-02</text></g><g class="mark-rule role-axis-domain" pointer-events="none"><line transform="translate(0,0)" x2="2096" y2="0" stroke="#888" stroke-width="1" opacity="1"/></g><g class="mark-text role-axis-title" pointer-events="none"><text text-anchor="middle" transform="translate(1048,73.9777658717112)" font-family="Segoe UI" font-size="13px" font-weight="bold" fill="#000" opacity="1">Date</text></g></g><path class="foreground" aria-hidden="true" d="" pointer-events="none" display="none"/></g></g><g class="mark-group role-axis" role="graphics-symbol" aria-roledescription="axis" aria-label="Y-axis titled 'Unique server names' for a linear scale with values from 0 to 55"><g transform="translate(0.5,0.5)"><path class="background" aria-hidden="true" d="M0,0h0v0h0Z" pointer-events="none"/><g><g class="mark-rule role-axis-tick" pointer-events="none"><line transform="translate(0,480)" x2="-5" y2="0" stroke="#bbb" stroke-width="1" opacity="1"/><line transform="translate(0,436)" x2="-5" y2="0" stroke="#bbb" stroke-width="1" opacity="1"/><line transform="translate(0,393)" x2="-5" y2="0" stroke="#bbb" stroke-width="1" opacity="1"/><line transform="translate(0,349)" x2="-5" y2="0" stroke="#bbb" stroke-width="1" opacity="1"/><line transform="translate(0,305)" x2="-5" y2="0" stroke="#bbb" stroke-width="1" opacity="1"/><line transform="translate(0,262)" x2="-5" y2="0" stroke="#bbb" stroke-width="1" opacity="1"/><line transform="translate(0,218)" x2="-5" y2="0" stroke="#bbb" stroke-width="1" opacity="1"/><line transform="translate(0,175)" x2="-5" y2="0" stroke="#bbb" stroke-width="1" opacity="1"/><line transform="translate(0,131)" x2="-5" y2="0" stroke="#bbb" stroke-width="1" opacity="1"/><line transform="translate(0,87)" x2="-5" y2="0" stroke="#bbb" stroke-width="1" opacity="1"/><line transform="translate(0,44)" x2="-5" y2="0" stroke="#bbb" stroke-width="1" opacity="1"/><line transform="translate(0,0)" x2="-5" y2="0" stroke="#bbb" stroke-width="1" opacity="1"/></g><g class="mark-text role-axis-label" pointer-events="none"><text text-anchor="end" transform="translate(-7,483)" font-family="Segoe UI" font-size="11px" fill="#000" opacity="1">0</text><text text-anchor="end" transform="translate(-7,439.3636363636364)" font-family="Segoe UI" font-size="11px" fill="#000" opacity="1">5</text><text text-anchor="end" transform="translate(-7,395.7272727272727)" font-family="Segoe UI" font-size="11px" fill="#000" opacity="1">10</text><text text-anchor="end" transform="translate(-7,352.0909090909091)" font-family="Segoe UI" font-size="11px" fill="#000" opacity="1">15</text><text text-anchor="end" transform="translate(-7,308.45454545454544)" font-family="Segoe UI" font-size="11px" fill="#000" opacity="1">20</text><text text-anchor="end" transform="translate(-7,264.8181818181818)" font-family="Segoe UI" font-size="11px" fill="#000" opacity="1">25</text><text text-anchor="end" transform="translate(-7,221.1818181818182)" font-family="Segoe UI" font-size="11px" fill="#000" opacity="1">30</text><text text-anchor="end" transform="translate(-7,177.54545454545456)" font-family="Segoe UI" font-size="11px" fill="#000" opacity="1">35</text><text text-anchor="end" transform="translate(-7,133.9090909090909)" font-family="Segoe UI" font-size="11px" fill="#000" opacity="1">40</text><text text-anchor="end" transform="translate(-7,90.27272727272725)" font-family="Segoe UI" font-size="11px" fill="#000" opacity="1">45</text><text text-anchor="end" transform="translate(-7,46.636363636363654)" font-family="Segoe UI" font-size="11px" fill="#000" opacity="1">50</text><text text-anchor="end" transform="translate(-7,3)" font-family="Segoe UI" font-size="11px" fill="#000" opacity="1">55</text></g><g class="mark-rule role-axis-domain" pointer-events="none"><line transform="translate(0,480)" x2="0" y2="-480" stroke="#888" stroke-width="1" opacity="1"/></g><g class="mark-text role-axis-title" pointer-events="none"><text text-anchor="middle" transform="translate(-24.99609375,240) rotate(-90) translate(0,-3)" font-family="Segoe UI" font-size="13px" font-weight="bold" fill="#000" opacity="1">Unique server names</text></g></g><path class="foreground" aria-hidden="true" d="" pointer-events="none" display="none"/></g></g><g class="mark-area role-mark layer_0_marks" role="graphics-object" aria-roledescription="area mark container" pointer-events="none"><path aria-label="date: 2025-09-08; count: 1" role="graphics-symbol" aria-roledescription="area mark" d="M0,471.273C12.703,240,25.406,8.727,38.109,8.727C50.812,8.727,63.515,17.455,76.218,34.909C88.921,52.364,101.624,142.545,114.327,165.818C127.03,189.091,139.733,177.455,152.436,200.727C165.139,224,177.842,293.818,190.545,305.455C203.248,317.091,215.952,322.909,228.655,322.909C241.358,322.909,254.061,273.455,266.764,261.818C279.467,250.182,292.17,256,304.873,244.364C317.576,232.727,330.279,151.273,342.982,139.636C355.685,128,368.388,122.182,381.091,122.182C393.794,122.182,406.497,212.364,419.2,235.636C431.903,258.909,444.606,251.636,457.309,270.545C470.012,289.455,482.715,349.091,495.418,349.091C508.121,349.091,520.824,343.273,533.527,340.364C546.23,337.455,558.933,334.545,571.636,331.636C584.339,328.727,597.042,322.909,609.745,322.909C622.448,322.909,635.152,384,647.855,384C660.558,384,673.261,261.818,685.964,261.818C698.667,261.818,711.37,418.909,724.073,418.909C736.776,418.909,749.479,398.545,762.182,357.818C774.885,317.091,787.588,148.364,800.291,148.364C812.994,148.364,825.697,202.182,838.4,244.364C851.103,286.545,863.806,401.455,876.509,401.455C889.212,401.455,901.915,165.818,914.618,165.818C927.321,165.818,940.024,253.091,952.727,253.091C965.43,253.091,978.133,253.091,990.836,253.091C1003.539,253.091,1016.242,340.364,1028.945,340.364C1041.648,340.364,1054.352,327.273,1067.055,305.455C1079.758,283.636,1092.461,209.455,1105.164,209.455C1117.867,209.455,1130.57,229.818,1143.273,253.091C1155.976,276.364,1168.679,349.091,1181.382,349.091C1194.085,349.091,1206.788,314.182,1219.491,314.182C1232.194,314.182,1244.897,401.455,1257.6,401.455C1270.303,401.455,1283.006,349.091,1295.709,349.091C1308.412,349.091,1321.115,349.091,1333.818,349.091C1346.521,349.091,1359.224,366.545,1371.927,366.545C1384.63,366.545,1397.333,314.182,1410.036,314.182C1422.739,314.182,1435.442,330.182,1448.145,340.364C1460.848,350.545,1473.552,356.364,1486.255,375.273C1498.958,394.182,1511.661,453.818,1524.364,453.818C1537.067,453.818,1549.77,442.182,1562.473,427.636C1575.176,413.091,1587.879,366.545,1600.582,366.545C1613.285,366.545,1625.988,392.727,1638.691,392.727C1651.394,392.727,1664.097,331.636,1676.8,331.636C1689.503,331.636,1702.206,375.273,1714.909,375.273C1727.612,375.273,1740.315,370.909,1753.018,366.545C1765.721,362.182,1778.424,349.091,1791.127,349.091C1803.83,349.091,1816.533,392.727,1829.236,392.727C1841.939,392.727,1854.642,375.273,1867.345,349.091C1880.048,322.909,1892.752,235.636,1905.455,235.636C1918.158,235.636,1930.861,392.727,1943.564,392.727C1956.267,392.727,1968.97,359.273,1981.673,349.091C1994.376,338.909,2007.079,331.636,2019.782,331.636C2032.485,331.636,2045.188,436.364,2057.891,436.364C2070.594,436.364,2083.297,405.818,2096,375.273L2096,480C2083.297,480,2070.594,480,2057.891,480C2045.188,480,2032.485,480,2019.782,480C2007.079,480,1994.376,480,1981.673,480C1968.97,480,1956.267,480,1943.564,480C1930.861,480,1918.158,480,1905.455,480C1892.752,480,1880.048,480,1867.345,480C1854.642,480,1841.939,480,1829.236,480C1816.533,480,1803.83,480,1791.127,480C1778.424,480,1765.721,480,1753.018,480C1740.315,480,1727.612,480,1714.909,480C1702.206,480,1689.503,480,1676.8,480C1664.097,480,1651.394,480,1638.691,480C1625.988,480,1613.285,480,1600.582,480C1587.879,480,1575.176,480,1562.473,480C1549.77,480,1537.067,480,1524.364,480C1511.661,480,1498.958,480,1486.255,480C1473.552,480,1460.848,480,1448.145,480C1435.442,480,1422.739,480,1410.036,480C1397.333,480,1384.63,480,1371.927,480C1359.224,480,1346.521,480,1333.818,480C1321.115,480,1308.412,480,1295.709,480C1283.006,480,1270.303,480,1257.6,480C1244.897,480,1232.194,480,1219.491,480C1206.788,480,1194.085,480,1181.382,480C1168.679,480,1155.976,480,1143.273,480C1130.57,480,1117.867,480,1105.164,480C1092.461,480,1079.758,480,1067.055,480C1054.352,480,1041.648,480,1028.945,480C1016.242,480,1003.539,480,990.836,480C978.133,480,965.43,480,952.727,480C940.024,480,927.321,480,914.618,480C901.915,480,889.212,480,876.509,480C863.806,480,851.103,480,838.4,480C825.697,480,812.994,480,800.291,480C787.588,480,774.885,480,762.182,480C749.479,480,736.776,480,724.073,480C711.37,480,698.667,480,685.964,480C673.261,480,660.558,480,647.855,480C635.152,480,622.448,480,609.745,480C597.042,480,584.339,480,571.636,480C558.933,480,546.23,480,533.527,480C520.824,480,508.121,480,495.418,480C482.715,480,470.012,480,457.309,480C444.606,480,431.903,480,419.2,480C406.497,480,393.794,480,381.091,480C368.388,480,355.685,480,342.982,480C330.279,480,317.576,480,304.873,480C292.17,480,279.467,480,266.764,480C254.061,480,241.358,480,228.655,480C215.952,480,203.248,480,190.545,480C177.842,480,165.139,480,152.436,480C139.733,480,127.03,480,114.327,480C101.624,480,88.921,480,76.218,480C63.515,480,50.812,480,38.109,480C25.406,480,12.703,480,0,480Z" fill="#4e79a7" opacity="0.18"/></g><g class="mark-line role-mark layer_1_marks" role="graphics-object" aria-roledescription="line mark container" pointer-events="none"><path aria-label="date: Sep 08, 2025; count: 1" role="graphics-symbol" aria-roledescription="line mark" d="M0,471.273C12.703,240,25.406,8.727,38.109,8.727C50.812,8.727,63.515,17.455,76.218,34.909C88.921,52.364,101.624,142.545,114.327,165.818C127.03,189.091,139.733,177.455,152.436,200.727C165.139,224,177.842,293.818,190.545,305.455C203.248,317.091,215.952,322.909,228.655,322.909C241.358,322.909,254.061,273.455,266.764,261.818C279.467,250.182,292.17,256,304.873,244.364C317.576,232.727,330.279,151.273,342.982,139.636C355.685,128,368.388,122.182,381.091,122.182C393.794,122.182,406.497,212.364,419.2,235.636C431.903,258.909,444.606,251.636,457.309,270.545C470.012,289.455,482.715,349.091,495.418,349.091C508.121,349.091,520.824,343.273,533.527,340.364C546.23,337.455,558.933,334.545,571.636,331.636C584.339,328.727,597.042,322.909,609.745,322.909C622.448,322.909,635.152,384,647.855,384C660.558,384,673.261,261.818,685.964,261.818C698.667,261.818,711.37,418.909,724.073,418.909C736.776,418.909,749.479,398.545,762.182,357.818C774.885,317.091,787.588,148.364,800.291,148.364C812.994,148.364,825.697,202.182,838.4,244.364C851.103,286.545,863.806,401.455,876.509,401.455C889.212,401.455,901.915,165.818,914.618,165.818C927.321,165.818,940.024,253.091,952.727,253.091C965.43,253.091,978.133,253.091,990.836,253.091C1003.539,253.091,1016.242,340.364,1028.945,340.364C1041.648,340.364,1054.352,327.273,1067.055,305.455C1079.758,283.636,1092.461,209.455,1105.164,209.455C1117.867,209.455,1130.57,229.818,1143.273,253.091C1155.976,276.364,1168.679,349.091,1181.382,349.091C1194.085,349.091,1206.788,314.182,1219.491,314.182C1232.194,314.182,1244.897,401.455,1257.6,401.455C1270.303,401.455,1283.006,349.091,1295.709,349.091C1308.412,349.091,1321.115,349.091,1333.818,349.091C1346.521,349.091,1359.224,366.545,1371.927,366.545C1384.63,366.545,1397.333,314.182,1410.036,314.182C1422.739,314.182,1435.442,330.182,1448.145,340.364C1460.848,350.545,1473.552,356.364,1486.255,375.273C1498.958,394.182,1511.661,453.818,1524.364,453.818C1537.067,453.818,1549.77,442.182,1562.473,427.636C1575.176,413.091,1587.879,366.545,1600.582,366.545C1613.285,366.545,1625.988,392.727,1638.691,392.727C1651.394,392.727,1664.097,331.636,1676.8,331.636C1689.503,331.636,1702.206,375.273,1714.909,375.273C1727.612,375.273,1740.315,370.909,1753.018,366.545C1765.721,362.182,1778.424,349.091,1791.127,349.091C1803.83,349.091,1816.533,392.727,1829.236,392.727C1841.939,392.727,1854.642,375.273,1867.345,349.091C1880.048,322.909,1892.752,235.636,1905.455,235.636C1918.158,235.636,1930.861,392.727,1943.564,392.727C1956.267,392.727,1968.97,359.273,1981.673,349.091C1994.376,338.909,2007.079,331.636,2019.782,331.636C2032.485,331.636,2045.188,436.364,2057.891,436.364C2070.594,436.364,2083.297,405.818,2096,375.273" stroke="#4e79a7" stroke-width="2"/></g><g class="mark-line role-mark layer_2_marks" role="graphics-object" aria-roledescription="line mark container" pointer-events="none"><path aria-label="date: Sep 08, 2025; ma7: 1" role="graphics-symbol" aria-roledescription="line mark" d="M0,471.273C12.703,378.424,25.406,285.576,38.109,240C50.812,194.424,63.515,172.606,76.218,171.636C88.921,170.667,101.624,170.182,114.327,170.182C127.03,170.182,139.733,172.218,152.436,176.291C165.139,180.364,177.842,191.252,190.545,197.818C203.248,204.384,215.952,215.688,228.655,215.688C241.358,215.688,254.061,185.766,266.764,185.766C279.467,185.766,292.17,211.325,304.873,219.429C317.576,227.532,330.279,234.39,342.982,234.39C355.685,234.39,368.388,228.156,381.091,228.156C393.794,228.156,406.497,233.143,419.2,233.143C431.903,233.143,444.606,228.156,457.309,228.156C470.012,228.156,482.715,229.403,495.418,231.896C508.121,234.39,520.824,239.169,533.527,243.117C546.23,247.065,558.933,249.143,571.636,255.584C584.339,262.026,597.042,271.169,609.745,281.766C622.448,292.364,635.152,316.675,647.855,319.169C660.558,321.662,673.261,320.416,685.964,322.909C698.667,325.403,711.37,343.273,724.073,344.104C736.776,344.935,749.479,345.351,762.182,345.351C774.885,345.351,787.588,324.571,800.291,317.922C812.994,311.273,825.697,305.455,838.4,305.455C851.103,305.455,863.806,316.675,876.509,316.675C889.212,316.675,901.915,286.338,914.618,285.506C927.321,284.675,940.024,285.091,952.727,284.26C965.43,283.429,978.133,262.234,990.836,260.571C1003.539,258.909,1016.242,258.078,1028.945,258.078C1041.648,258.078,1054.352,280.519,1067.055,280.519C1079.758,280.519,1092.461,278.857,1105.164,275.532C1117.867,272.208,1130.57,254.338,1143.273,254.338C1155.976,254.338,1168.679,274.701,1181.382,280.519C1194.085,286.338,1206.788,284.26,1219.491,289.247C1232.194,294.234,1244.897,309.61,1257.6,310.442C1270.303,311.273,1283.006,310.857,1295.709,311.688C1308.412,312.519,1321.115,313.766,1333.818,317.922C1346.521,322.078,1359.224,335.169,1371.927,340.364C1384.63,345.558,1397.333,349.091,1410.036,349.091C1422.739,349.091,1435.442,347.844,1448.145,347.844C1460.848,347.844,1473.552,353.87,1486.255,356.571C1498.958,359.273,1511.661,360.935,1524.364,364.052C1537.067,367.169,1549.77,373.61,1562.473,375.273C1575.176,376.935,1587.879,376.727,1600.582,377.766C1613.285,378.805,1625.988,380.468,1638.691,381.506C1651.394,382.545,1664.097,382.753,1676.8,384C1689.503,385.247,1702.206,388.987,1714.909,388.987C1727.612,388.987,1740.315,388.571,1753.018,387.74C1765.721,386.909,1778.424,376.104,1791.127,372.779C1803.83,369.455,1816.533,369.039,1829.236,367.792C1841.939,366.545,1854.642,366.961,1867.345,365.299C1880.048,363.636,1892.752,342.857,1905.455,342.857C1918.158,342.857,1930.861,351.584,1943.564,351.584C1956.267,351.584,1968.97,349.299,1981.673,347.844C1994.376,346.39,2007.079,342.857,2019.782,342.857C2032.485,342.857,2045.188,355.325,2057.891,355.325C2070.594,355.325,2083.297,354.078,2096,352.831" stroke="#d62728" stroke-width="2" stroke-dasharray="6,4"/></g><g class="mark-symbol role-mark layer_3_marks" role="graphics-object" aria-roledescription="symbol mark container"><path aria-label="date: Sep 08, 2025; count: 1; Date: Sep 08, 2025; Daily unique: 1; 7d avg: 1" role="graphics-symbol" aria-roledescription="point" transform="translate(0,471.27272727272725)" d="M3.536,0A3.536,3.536,0,1,1,-3.536,0A3.536,3.536,0,1,1,3.536,0" fill="#4e79a7" stroke-width="2" opacity="0.55"/><path aria-label="date: Sep 09, 2025; count: 54; Date: Sep 09, 2025; Daily unique: 54; 7d avg: 27.5" role="graphics-symbol" aria-roledescription="point" transform="translate(38.10909090909091,8.72727272727273)" d="M3.536,0A3.536,3.536,0,1,1,-3.536,0A3.536,3.536,0,1,1,3.536,0" fill="#4e79a7" stroke-width="2" opacity="0.55"/><path aria-label="date: Sep 10, 2025; count: 51; Date: Sep 10, 2025; Daily unique: 51; 7d avg: 35.3333333333" role="graphics-symbol" aria-roledescription="point" transform="translate(76.21818181818182,34.90909090909092)" d="M3.536,0A3.536,3.536,0,1,1,-3.536,0A3.536,3.536,0,1,1,3.536,0" fill="#4e79a7" stroke-width="2" opacity="0.55"/><path aria-label="date: Sep 11, 2025; count: 36; Date: Sep 11, 2025; Daily unique: 36; 7d avg: 35.5" role="graphics-symbol" aria-roledescription="point" transform="translate(114.32727272727273,165.8181818181818)" d="M3.536,0A3.536,3.536,0,1,1,-3.536,0A3.536,3.536,0,1,1,3.536,0" fill="#4e79a7" stroke-width="2" opacity="0.55"/><path aria-label="date: Sep 12, 2025; count: 32; Date: Sep 12, 2025; Daily unique: 32; 7d avg: 34.8" role="graphics-symbol" aria-roledescription="point" transform="translate(152.43636363636364,200.72727272727275)" d="M3.536,0A3.536,3.536,0,1,1,-3.536,0A3.536,3.536,0,1,1,3.536,0" fill="#4e79a7" stroke-width="2" opacity="0.55"/><path aria-label="date: Sep 13, 2025; count: 20; Date: Sep 13, 2025; Daily unique: 20; 7d avg: 32.3333333333" role="graphics-symbol" aria-roledescription="point" transform="translate(190.54545454545456,305.45454545454544)" d="M3.536,0A3.536,3.536,0,1,1,-3.536,0A3.536,3.536,0,1,1,3.536,0" fill="#4e79a7" stroke-width="2" opacity="0.55"/><path aria-label="date: Sep 14, 2025; count: 18; Date: Sep 14, 2025; Daily unique: 18; 7d avg: 30.2857142857" role="graphics-symbol" aria-roledescription="point" transform="translate(228.65454545454546,322.90909090909093)" d="M3.536,0A3.536,3.536,0,1,1,-3.536,0A3.536,3.536,0,1,1,3.536,0" fill="#4e79a7" stroke-width="2" opacity="0.55"/><path aria-label="date: Sep 15, 2025; count: 25; Date: Sep 15, 2025; Daily unique: 25; 7d avg: 33.7142857143" role="graphics-symbol" aria-roledescription="point" transform="translate(266.76363636363635,261.8181818181818)" d="M3.536,0A3.536,3.536,0,1,1,-3.536,0A3.536,3.536,0,1,1,3.536,0" fill="#4e79a7" stroke-width="2" opacity="0.55"/><path aria-label="date: Sep 16, 2025; count: 27; Date: Sep 16, 2025; Daily unique: 27; 7d avg: 29.8571428571" role="graphics-symbol" aria-roledescription="point" transform="translate(304.8727272727273,244.36363636363635)" d="M3.536,0A3.536,3.536,0,1,1,-3.536,0A3.536,3.536,0,1,1,3.536,0" fill="#4e79a7" stroke-width="2" opacity="0.55"/><path aria-label="date: Sep 17, 2025; count: 39; Date: Sep 17, 2025; Daily unique: 39; 7d avg: 28.1428571429" role="graphics-symbol" aria-roledescription="point" transform="translate(342.9818181818182,139.63636363636363)" d="M3.536,0A3.536,3.536,0,1,1,-3.536,0A3.536,3.536,0,1,1,3.536,0" fill="#4e79a7" stroke-width="2" opacity="0.55"/><path aria-label="date: Sep 18, 2025; count: 41; Date: Sep 18, 2025; Daily unique: 41; 7d avg: 28.8571428571" role="graphics-symbol" aria-roledescription="point" transform="translate(381.0909090909091,122.18181818181817)" d="M3.536,0A3.536,3.536,0,1,1,-3.536,0A3.536,3.536,0,1,1,3.536,0" fill="#4e79a7" stroke-width="2" opacity="0.55"/><path aria-label="date: Sep 19, 2025; count: 28; Date: Sep 19, 2025; Daily unique: 28; 7d avg: 28.2857142857" role="graphics-symbol" aria-roledescription="point" transform="translate(419.20000000000005,235.63636363636365)" d="M3.536,0A3.536,3.536,0,1,1,-3.536,0A3.536,3.536,0,1,1,3.536,0" fill="#4e79a7" stroke-width="2" opacity="0.55"/><path aria-label="date: Sep 20, 2025; count: 24; Date: Sep 20, 2025; Daily unique: 24; 7d avg: 28.8571428571" role="graphics-symbol" aria-roledescription="point" transform="translate(457.3090909090909,270.54545454545456)" d="M3.536,0A3.536,3.536,0,1,1,-3.536,0A3.536,3.536,0,1,1,3.536,0" fill="#4e79a7" stroke-width="2" opacity="0.55"/><path aria-label="date: Sep 21, 2025; count: 15; Date: Sep 21, 2025; Daily unique: 15; 7d avg: 28.4285714286" role="graphics-symbol" aria-roledescription="point" transform="translate(495.41818181818184,349.0909090909091)" d="M3.536,0A3.536,3.536,0,1,1,-3.536,0A3.536,3.536,0,1,1,3.536,0" fill="#4e79a7" stroke-width="2" opacity="0.55"/><path aria-label="date: Sep 22, 2025; count: 16; Date: Sep 22, 2025; Daily unique: 16; 7d avg: 27.1428571429" role="graphics-symbol" aria-roledescription="point" transform="translate(533.5272727272727,340.3636363636364)" d="M3.536,0A3.536,3.536,0,1,1,-3.536,0A3.536,3.536,0,1,1,3.536,0" fill="#4e79a7" stroke-width="2" opacity="0.55"/><path aria-label="date: Sep 23, 2025; count: 17; Date: Sep 23, 2025; Daily unique: 17; 7d avg: 25.7142857143" role="graphics-symbol" aria-roledescription="point" transform="translate(571.6363636363636,331.6363636363636)" d="M3.536,0A3.536,3.536,0,1,1,-3.536,0A3.536,3.536,0,1,1,3.536,0" fill="#4e79a7" stroke-width="2" opacity="0.55"/><path aria-label="date: Sep 24, 2025; count: 18; Date: Sep 24, 2025; Daily unique: 18; 7d avg: 22.7142857143" role="graphics-symbol" aria-roledescription="point" transform="translate(609.7454545454545,322.90909090909093)" d="M3.536,0A3.536,3.536,0,1,1,-3.536,0A3.536,3.536,0,1,1,3.536,0" fill="#4e79a7" stroke-width="2" opacity="0.55"/><path aria-label="date: Sep 25, 2025; count: 11; Date: Sep 25, 2025; Daily unique: 11; 7d avg: 18.4285714286" role="graphics-symbol" aria-roledescription="point" transform="translate(647.8545454545455,384)" d="M3.536,0A3.536,3.536,0,1,1,-3.536,0A3.536,3.536,0,1,1,3.536,0" fill="#4e79a7" stroke-width="2" opacity="0.55"/><path aria-label="date: Sep 26, 2025; count: 25; Date: Sep 26, 2025; Daily unique: 25; 7d avg: 18" role="graphics-symbol" aria-roledescription="point" transform="translate(685.9636363636364,261.8181818181818)" d="M3.536,0A3.536,3.536,0,1,1,-3.536,0A3.536,3.536,0,1,1,3.536,0" fill="#4e79a7" stroke-width="2" opacity="0.55"/><path aria-label="date: Sep 27, 2025; count: 7; Date: Sep 27, 2025; Daily unique: 7; 7d avg: 15.5714285714" role="graphics-symbol" aria-roledescription="point" transform="translate(724.0727272727273,418.90909090909093)" d="M3.536,0A3.536,3.536,0,1,1,-3.536,0A3.536,3.536,0,1,1,3.536,0" fill="#4e79a7" stroke-width="2" opacity="0.55"/><path aria-label="date: Sep 28, 2025; count: 14; Date: Sep 28, 2025; Daily unique: 14; 7d avg: 15.4285714286" role="graphics-symbol" aria-roledescription="point" transform="translate(762.1818181818182,357.8181818181818)" d="M3.536,0A3.536,3.536,0,1,1,-3.536,0A3.536,3.536,0,1,1,3.536,0" fill="#4e79a7" stroke-width="2" opacity="0.55"/><path aria-label="date: Sep 29, 2025; count: 38; Date: Sep 29, 2025; Daily unique: 38; 7d avg: 18.5714285714" role="graphics-symbol" aria-roledescription="point" transform="translate(800.2909090909092,148.36363636363637)" d="M3.536,0A3.536,3.536,0,1,1,-3.536,0A3.536,3.536,0,1,1,3.536,0" fill="#4e79a7" stroke-width="2" opacity="0.55"/><path aria-label="date: Sep 30, 2025; count: 27; Date: Sep 30, 2025; Daily unique: 27; 7d avg: 20" role="graphics-symbol" aria-roledescription="point" transform="translate(838.4000000000001,244.36363636363635)" d="M3.536,0A3.536,3.536,0,1,1,-3.536,0A3.536,3.536,0,1,1,3.536,0" fill="#4e79a7" stroke-width="2" opacity="0.55"/><path aria-label="date: Oct 01, 2025; count: 9; Date: Oct 01, 2025; Daily unique: 9; 7d avg: 18.7142857143" role="graphics-symbol" aria-roledescription="point" transform="translate(876.5090909090909,401.4545454545455)" d="M3.536,0A3.536,3.536,0,1,1,-3.536,0A3.536,3.536,0,1,1,3.536,0" fill="#4e79a7" stroke-width="2" opacity="0.55"/><path aria-label="date: Oct 02, 2025; count: 36; Date: Oct 02, 2025; Daily unique: 36; 7d avg: 22.2857142857" role="graphics-symbol" aria-roledescription="point" transform="translate(914.6181818181818,165.8181818181818)" d="M3.536,0A3.536,3.536,0,1,1,-3.536,0A3.536,3.536,0,1,1,3.536,0" fill="#4e79a7" stroke-width="2" opacity="0.55"/><path aria-label="date: Oct 03, 2025; count: 26; Date: Oct 03, 2025; Daily unique: 26; 7d avg: 22.4285714286" role="graphics-symbol" aria-roledescription="point" transform="translate(952.7272727272727,253.09090909090912)" d="M3.536,0A3.536,3.536,0,1,1,-3.536,0A3.536,3.536,0,1,1,3.536,0" fill="#4e79a7" stroke-width="2" opacity="0.55"/><path aria-label="date: Oct 04, 2025; count: 26; Date: Oct 04, 2025; Daily unique: 26; 7d avg: 25.1428571429" role="graphics-symbol" aria-roledescription="point" transform="translate(990.8363636363637,253.09090909090912)" d="M3.536,0A3.536,3.536,0,1,1,-3.536,0A3.536,3.536,0,1,1,3.536,0" fill="#4e79a7" stroke-width="2" opacity="0.55"/><path aria-label="date: Oct 05, 2025; count: 16; Date: Oct 05, 2025; Daily unique: 16; 7d avg: 25.4285714286" role="graphics-symbol" aria-roledescription="point" transform="translate(1028.9454545454546,340.3636363636364)" d="M3.536,0A3.536,3.536,0,1,1,-3.536,0A3.536,3.536,0,1,1,3.536,0" fill="#4e79a7" stroke-width="2" opacity="0.55"/><path aria-label="date: Oct 06, 2025; count: 20; Date: Oct 06, 2025; Daily unique: 20; 7d avg: 22.8571428571" role="graphics-symbol" aria-roledescription="point" transform="translate(1067.0545454545454,305.45454545454544)" d="M3.536,0A3.536,3.536,0,1,1,-3.536,0A3.536,3.536,0,1,1,3.536,0" fill="#4e79a7" stroke-width="2" opacity="0.55"/><path aria-label="date: Oct 07, 2025; count: 31; Date: Oct 07, 2025; Daily unique: 31; 7d avg: 23.4285714286" role="graphics-symbol" aria-roledescription="point" transform="translate(1105.1636363636362,209.45454545454547)" d="M3.536,0A3.536,3.536,0,1,1,-3.536,0A3.536,3.536,0,1,1,3.536,0" fill="#4e79a7" stroke-width="2" opacity="0.55"/><path aria-label="date: Oct 08, 2025; count: 26; Date: Oct 08, 2025; Daily unique: 26; 7d avg: 25.8571428571" role="graphics-symbol" aria-roledescription="point" transform="translate(1143.2727272727273,253.09090909090912)" d="M3.536,0A3.536,3.536,0,1,1,-3.536,0A3.536,3.536,0,1,1,3.536,0" fill="#4e79a7" stroke-width="2" opacity="0.55"/><path aria-label="date: Oct 09, 2025; count: 15; Date: Oct 09, 2025; Daily unique: 15; 7d avg: 22.8571428571" role="graphics-symbol" aria-roledescription="point" transform="translate(1181.381818181818,349.0909090909091)" d="M3.536,0A3.536,3.536,0,1,1,-3.536,0A3.536,3.536,0,1,1,3.536,0" fill="#4e79a7" stroke-width="2" opacity="0.55"/><path aria-label="date: Oct 10, 2025; count: 19; Date: Oct 10, 2025; Daily unique: 19; 7d avg: 21.8571428571" role="graphics-symbol" aria-roledescription="point" transform="translate(1219.490909090909,314.1818181818182)" d="M3.536,0A3.536,3.536,0,1,1,-3.536,0A3.536,3.536,0,1,1,3.536,0" fill="#4e79a7" stroke-width="2" opacity="0.55"/><path aria-label="date: Oct 11, 2025; count: 9; Date: Oct 11, 2025; Daily unique: 9; 7d avg: 19.4285714286" role="graphics-symbol" aria-roledescription="point" transform="translate(1257.6,401.4545454545455)" d="M3.536,0A3.536,3.536,0,1,1,-3.536,0A3.536,3.536,0,1,1,3.536,0" fill="#4e79a7" stroke-width="2" opacity="0.55"/><path aria-label="date: Oct 12, 2025; count: 15; Date: Oct 12, 2025; Daily unique: 15; 7d avg: 19.2857142857" role="graphics-symbol" aria-roledescription="point" transform="translate(1295.709090909091,349.0909090909091)" d="M3.536,0A3.536,3.536,0,1,1,-3.536,0A3.536,3.536,0,1,1,3.536,0" fill="#4e79a7" stroke-width="2" opacity="0.55"/><path aria-label="date: Oct 13, 2025; count: 15; Date: Oct 13, 2025; Daily unique: 15; 7d avg: 18.5714285714" role="graphics-symbol" aria-roledescription="point" transform="translate(1333.8181818181818,349.0909090909091)" d="M3.536,0A3.536,3.536,0,1,1,-3.536,0A3.536,3.536,0,1,1,3.536,0" fill="#4e79a7" stroke-width="2" opacity="0.55"/><path aria-label="date: Oct 14, 2025; count: 13; Date: Oct 14, 2025; Daily unique: 13; 7d avg: 16" role="graphics-symbol" aria-roledescription="point" transform="translate(1371.9272727272728,366.54545454545456)" d="M3.536,0A3.536,3.536,0,1,1,-3.536,0A3.536,3.536,0,1,1,3.536,0" fill="#4e79a7" stroke-width="2" opacity="0.55"/><path aria-label="date: Oct 15, 2025; count: 19; Date: Oct 15, 2025; Daily unique: 19; 7d avg: 15" role="graphics-symbol" aria-roledescription="point" transform="translate(1410.0363636363636,314.1818181818182)" d="M3.536,0A3.536,3.536,0,1,1,-3.536,0A3.536,3.536,0,1,1,3.536,0" fill="#4e79a7" stroke-width="2" opacity="0.55"/><path aria-label="date: Oct 16, 2025; count: 16; Date: Oct 16, 2025; Daily unique: 16; 7d avg: 15.1428571429" role="graphics-symbol" aria-roledescription="point" transform="translate(1448.1454545454546,340.3636363636364)" d="M3.536,0A3.536,3.536,0,1,1,-3.536,0A3.536,3.536,0,1,1,3.536,0" fill="#4e79a7" stroke-width="2" opacity="0.55"/><path aria-label="date: Oct 17, 2025; count: 12; Date: Oct 17, 2025; Daily unique: 12; 7d avg: 14.1428571429" role="graphics-symbol" aria-roledescription="point" transform="translate(1486.2545454545455,375.2727272727273)" d="M3.536,0A3.536,3.536,0,1,1,-3.536,0A3.536,3.536,0,1,1,3.536,0" fill="#4e79a7" stroke-width="2" opacity="0.55"/><path aria-label="date: Oct 18, 2025; count: 3; Date: Oct 18, 2025; Daily unique: 3; 7d avg: 13.2857142857" role="graphics-symbol" aria-roledescription="point" transform="translate(1524.3636363636365,453.8181818181818)" d="M3.536,0A3.536,3.536,0,1,1,-3.536,0A3.536,3.536,0,1,1,3.536,0" fill="#4e79a7" stroke-width="2" opacity="0.55"/><path aria-label="date: Oct 19, 2025; count: 6; Date: Oct 19, 2025; Daily unique: 6; 7d avg: 12" role="graphics-symbol" aria-roledescription="point" transform="translate(1562.4727272727273,427.6363636363636)" d="M3.536,0A3.536,3.536,0,1,1,-3.536,0A3.536,3.536,0,1,1,3.536,0" fill="#4e79a7" stroke-width="2" opacity="0.55"/><path aria-label="date: Oct 20, 2025; count: 13; Date: Oct 20, 2025; Daily unique: 13; 7d avg: 11.7142857143" role="graphics-symbol" aria-roledescription="point" transform="translate(1600.5818181818183,366.54545454545456)" d="M3.536,0A3.536,3.536,0,1,1,-3.536,0A3.536,3.536,0,1,1,3.536,0" fill="#4e79a7" stroke-width="2" opacity="0.55"/><path aria-label="date: Oct 21, 2025; count: 10; Date: Oct 21, 2025; Daily unique: 10; 7d avg: 11.2857142857" role="graphics-symbol" aria-roledescription="point" transform="translate(1638.6909090909091,392.7272727272727)" d="M3.536,0A3.536,3.536,0,1,1,-3.536,0A3.536,3.536,0,1,1,3.536,0" fill="#4e79a7" stroke-width="2" opacity="0.55"/><path aria-label="date: Oct 22, 2025; count: 17; Date: Oct 22, 2025; Daily unique: 17; 7d avg: 11" role="graphics-symbol" aria-roledescription="point" transform="translate(1676.8000000000002,331.6363636363636)" d="M3.536,0A3.536,3.536,0,1,1,-3.536,0A3.536,3.536,0,1,1,3.536,0" fill="#4e79a7" stroke-width="2" opacity="0.55"/><path aria-label="date: Oct 23, 2025; count: 12; Date: Oct 23, 2025; Daily unique: 12; 7d avg: 10.4285714286" role="graphics-symbol" aria-roledescription="point" transform="translate(1714.909090909091,375.2727272727273)" d="M3.536,0A3.536,3.536,0,1,1,-3.536,0A3.536,3.536,0,1,1,3.536,0" fill="#4e79a7" stroke-width="2" opacity="0.55"/><path aria-label="date: Oct 24, 2025; count: 13; Date: Oct 24, 2025; Daily unique: 13; 7d avg: 10.5714285714" role="graphics-symbol" aria-roledescription="point" transform="translate(1753.0181818181818,366.54545454545456)" d="M3.536,0A3.536,3.536,0,1,1,-3.536,0A3.536,3.536,0,1,1,3.536,0" fill="#4e79a7" stroke-width="2" opacity="0.55"/><path aria-label="date: Oct 25, 2025; count: 15; Date: Oct 25, 2025; Daily unique: 15; 7d avg: 12.2857142857" role="graphics-symbol" aria-roledescription="point" transform="translate(1791.1272727272726,349.0909090909091)" d="M3.536,0A3.536,3.536,0,1,1,-3.536,0A3.536,3.536,0,1,1,3.536,0" fill="#4e79a7" stroke-width="2" opacity="0.55"/><path aria-label="date: Oct 26, 2025; count: 10; Date: Oct 26, 2025; Daily unique: 10; 7d avg: 12.8571428571" role="graphics-symbol" aria-roledescription="point" transform="translate(1829.2363636363636,392.7272727272727)" d="M3.536,0A3.536,3.536,0,1,1,-3.536,0A3.536,3.536,0,1,1,3.536,0" fill="#4e79a7" stroke-width="2" opacity="0.55"/><path aria-label="date: Oct 27, 2025; count: 15; Date: Oct 27, 2025; Daily unique: 15; 7d avg: 13.1428571429" role="graphics-symbol" aria-roledescription="point" transform="translate(1867.3454545454545,349.0909090909091)" d="M3.536,0A3.536,3.536,0,1,1,-3.536,0A3.536,3.536,0,1,1,3.536,0" fill="#4e79a7" stroke-width="2" opacity="0.55"/><path aria-label="date: Oct 28, 2025; count: 28; Date: Oct 28, 2025; Daily unique: 28; 7d avg: 15.7142857143" role="graphics-symbol" aria-roledescription="point" transform="translate(1905.4545454545455,235.63636363636365)" d="M3.536,0A3.536,3.536,0,1,1,-3.536,0A3.536,3.536,0,1,1,3.536,0" fill="#4e79a7" stroke-width="2" opacity="0.55"/><path aria-label="date: Oct 29, 2025; count: 10; Date: Oct 29, 2025; Daily unique: 10; 7d avg: 14.7142857143" role="graphics-symbol" aria-roledescription="point" transform="translate(1943.5636363636363,392.7272727272727)" d="M3.536,0A3.536,3.536,0,1,1,-3.536,0A3.536,3.536,0,1,1,3.536,0" fill="#4e79a7" stroke-width="2" opacity="0.55"/><path aria-label="date: Oct 30, 2025; count: 15; Date: Oct 30, 2025; Daily unique: 15; 7d avg: 15.1428571429" role="graphics-symbol" aria-roledescription="point" transform="translate(1981.6727272727273,349.0909090909091)" d="M3.536,0A3.536,3.536,0,1,1,-3.536,0A3.536,3.536,0,1,1,3.536,0" fill="#4e79a7" stroke-width="2" opacity="0.55"/><path aria-label="date: Oct 31, 2025; count: 17; Date: Oct 31, 2025; Daily unique: 17; 7d avg: 15.7142857143" role="graphics-symbol" aria-roledescription="point" transform="translate(2019.7818181818182,331.6363636363636)" d="M3.536,0A3.536,3.536,0,1,1,-3.536,0A3.536,3.536,0,1,1,3.536,0" fill="#4e79a7" stroke-width="2" opacity="0.55"/><path aria-label="date: Nov 01, 2025; count: 5; Date: Nov 01, 2025; Daily unique: 5; 7d avg: 14.2857142857" role="graphics-symbol" aria-roledescription="point" transform="translate(2057.890909090909,436.3636363636364)" d="M3.536,0A3.536,3.536,0,1,1,-3.536,0A3.536,3.536,0,1,1,3.536,0" fill="#4e79a7" stroke-width="2" opacity="0.55"/><path aria-label="date: Nov 02, 2025; count: 12; Date: Nov 02, 2025; Daily unique: 12; 7d avg: 14.5714285714" role="graphics-symbol" aria-roledescription="point" transform="translate(2096,375.2727272727273)" d="M3.536,0A3.536,3.536,0,1,1,-3.536,0A3.536,3.536,0,1,1,3.536,0" fill="#4e79a7" stroke-width="2" opacity="0.55"/></g><g class="mark-path role-mark layer_3_voronoi" aria-hidden="true"><path transform="translate(0,0)" d="M0,297.14992207792204L21.645512129579004,305.25152804642164L24.197415648415813,306.6893747602609L147.91639905238213,448.8576802507835L168.1232477446218,480L0,480Z" stroke-width="0.35"/><path transform="translate(0,0)" d="M72.15322692574603,0L0,105.02303030303028L0,0Z" stroke-width="0.35"/><path transform="translate(0,0)" d="M243.86192128482202,0L218.54948400528306,64.47640273704789L0,128.09858585858586L0,105.02303030303028L72.15322692574603,0Z" stroke-width="0.35"/><path transform="translate(0,0)" d="M221.17763898527258,87.4289562289563L21.645512129579004,305.25152804642164L0,297.14992207792204L0,128.09858585858586L218.54948400528306,64.47640273704789Z" stroke-width="0.35"/><path transform="translate(0,0)" d="M245.25968077723803,164.5381818181818L204.32603795257126,241.14257053291536L24.197415648415813,306.6893747602609L21.645512129579004,305.25152804642164L221.17763898527258,87.4289562289563L245.56156756969088,163.48359062321325Z" stroke-width="0.35"/><path transform="translate(0,0)" d="M204.32603795257126,241.14257053291536L225.84106716015117,278.72215488215494L147.91639905238213,448.8576802507835L24.197415648415813,306.6893747602609Z" stroke-width="0.35"/><path transform="translate(0,0)" d="M358.4441722233956,372.6004391743522L347.9033211063745,480L168.1232477446218,480L147.91639905238213,448.8576802507835L225.84106716015117,278.72215488215494L326.2443303261624,341.3546666666666Z" stroke-width="0.35"/><path transform="translate(0,0)" d="M245.25968077723803,164.5381818181818L326.2443303261624,341.3546666666666L225.84106716015117,278.72215488215494L204.32603795257126,241.14257053291536Z" stroke-width="0.35"/><path transform="translate(0,0)" d="M362.61838369818935,365.00569329660243L358.4441722233956,372.6004391743522L326.2443303261624,341.3546666666666L245.25968077723803,164.5381818181818L245.56156756969088,163.48359062321325L359.3563834638644,204.89225974025976L368.82173704158436,328.88839160839154Z" stroke-width="0.35"/><path transform="translate(0,0)" d="M302.0780013879251,0L386.1710108720796,183.6030707070707L359.3563834638644,204.89225974025976L245.56156756969088,163.48359062321325L221.17763898527258,87.4289562289563L218.54948400528306,64.47640273704789L243.86192128482202,0Z" stroke-width="0.35"/><path transform="translate(0,0)" d="M553.3459788726966,127.44942760942753L386.1710108720796,183.6030707070707L302.0780013879251,0L599.1395874077346,0L595.6143321523796,56.443253588516654L566.0913254684247,120.90181818181821Z" stroke-width="0.35"/><path transform="translate(0,0)" d="M553.3459788726966,127.44942760942753L368.82173704158436,328.88839160839154L359.3563834638644,204.89225974025976L386.1710108720796,183.6030707070707Z" stroke-width="0.35"/><path transform="translate(0,0)" d="M563.628369188064,209.09963636363617L535.5529770992366,261.6407272727273L503.4668147120055,296.66812121212126L362.61838369818935,365.00569329660243L368.82173704158436,328.88839160839154L553.3459788726966,127.44942760942753L566.0913254684247,120.90181818181821L568.8747258848022,193.82690909090917Z" stroke-width="0.35"/><path transform="translate(0,0)" d="M503.4668147120055,296.66812121212126L545.4512144344206,480L347.9033211063745,480L358.4441722233956,372.6004391743522L362.61838369818935,365.00569329660243Z" stroke-width="0.35"/><path transform="translate(0,0)" d="M535.5529770992366,261.6407272727273L570.6201249132547,414.7672727272727L545.7221374045802,480L545.4512144344206,480L503.4668147120055,296.66812121212126Z" stroke-width="0.35"/><path transform="translate(0,0)" d="M563.628369188064,209.09963636363617L600.7009021512838,370.9830303030304L570.6201249132547,414.7672727272727L535.5529770992366,261.6407272727273Z" stroke-width="0.35"/><path transform="translate(0,0)" d="M674.1470275271802,325.1666378066378L600.7009021512838,370.9830303030304L563.628369188064,209.09963636363617L568.8747258848022,193.82690909090917Z" stroke-width="0.35"/><path transform="translate(0,0)" d="M703.3300948415452,363.53777777777776L649.9886190145733,480L545.7221374045802,480L570.6201249132547,414.7672727272727L600.7009021512838,370.9830303030304L674.1470275271802,325.1666378066378L696.1117172903432,332.01752913752915Z" stroke-width="0.35"/><path transform="translate(0,0)" d="M764.9602590793431,277.3559595959596L696.1117172903432,332.01752913752915L674.1470275271802,325.1666378066378L568.8747258848022,193.82690909090917L566.0913254684247,120.90181818181821L595.6143321523796,56.443253588516654L758.4541170081164,220.53565217391306Z" stroke-width="0.35"/><path transform="translate(0,0)" d="M649.9886190145733,480L703.3300948415452,363.53777777777776L801.9976725564512,425.0875524475524L808.2853573907009,480Z" stroke-width="0.35"/><path transform="translate(0,0)" d="M839.3177526944158,327.30894248608536L801.9976725564512,425.0875524475524L703.3300948415452,363.53777777777776L696.1117172903432,332.01752913752915L764.9602590793431,277.3559595959596Z" stroke-width="0.35"/><path transform="translate(0,0)" d="M881.4378903539209,0L853.5305321125563,182.79319648093843L758.4541170081164,220.53565217391306L595.6143321523796,56.443253588516654L599.1395874077346,0Z" stroke-width="0.35"/><path transform="translate(0,0)" d="M897.3508243796215,225.31510971786832L890.5130975606563,314.8893310463122L839.3177526944158,327.30894248608536L764.9602590793431,277.3559595959596L758.4541170081164,220.53565217391306L853.5305321125563,182.79319648093843Z" stroke-width="0.35"/><path transform="translate(0,0)" d="M940.5856632482587,340.6128843995511L996.4469118667593,480L808.2853573907009,480L801.9976725564512,425.0875524475524L839.3177526944158,327.30894248608536L890.5130975606563,314.8893310463122Z" stroke-width="0.35"/><path transform="translate(0,0)" d="M897.3508243796215,225.31510971786832L853.5305321125563,182.79319648093843L881.4378903539209,0L1052.8610687022901,0L1017.9361554476058,152.50545454545465L971.7818181818182,192.81357575757576Z" stroke-width="0.35"/><path transform="translate(0,0)" d="M971.7818181818182,313.36824242424245L940.5856632482587,340.6128843995511L890.5130975606563,314.8893310463122L897.3508243796215,225.31510971786832L971.7818181818182,192.81357575757576Z" stroke-width="0.35"/><path transform="translate(0,0)" d="M971.7818181818182,313.36824242424245L971.7818181818182,192.81357575757576L1017.9361554476058,152.50545454545465L1052.9723406364628,244.30025974025978L1019.9807276692773,292.32138528138535Z" stroke-width="0.35"/><path transform="translate(0,0)" d="M971.7818181818182,313.36824242424245L1019.9807276692773,292.32138528138535L1102.9767236804505,382.92534759358267L1097.419014573213,480L996.4469118667593,480L940.5856632482587,340.6128843995511Z" stroke-width="0.35"/><path transform="translate(0,0)" d="M1019.9807276692773,292.32138528138535L1052.9723406364628,244.30025974025978L1091.6984038861901,259.6733333333334L1129.1905224546445,314.2451948051948L1102.9767236804505,382.92534759358267Z" stroke-width="0.35"/><path transform="translate(0,0)" d="M1017.9361554476058,152.50545454545465L1052.8610687022901,0L1347.5375433726576,0L1329.753226925746,51.77212121212054L1091.6984038861901,259.6733333333334L1052.9723406364628,244.30025974025978Z" stroke-width="0.35"/><path transform="translate(0,0)" d="M1129.1905224546445,314.2451948051948L1091.6984038861901,259.6733333333334L1329.753226925746,51.77212121212054L1314.7636363636364,117.2266666666666L1169.7548554244738,298.14238383838386Z" stroke-width="0.35"/><path transform="translate(0,0)" d="M1129.1905224546445,314.2451948051948L1169.7548554244738,298.14238383838386L1228.4556359670862,362.22406926406927L1147.5408743927828,480L1097.419014573213,480L1102.9767236804505,382.92534759358267Z" stroke-width="0.35"/><path transform="translate(0,0)" d="M1169.7548554244738,298.14238383838386L1314.7636363636364,117.2266666666666L1314.7636363636364,206.82909090909104L1247.3740458015268,353.96303030303034L1228.4556359670862,362.22406926406927Z" stroke-width="0.35"/><path transform="translate(0,0)" d="M1147.5408743927828,480L1228.4556359670862,362.22406926406927L1247.3740458015268,353.96303030303034L1314.7636363636364,403.0076767676769L1325.2106037473977,418.2138181818184L1344.076613462873,480Z" stroke-width="0.35"/><path transform="translate(0,0)" d="M1247.3740458015268,353.96303030303034L1314.7636363636364,206.82909090909104L1314.7636363636364,403.0076767676769Z" stroke-width="0.35"/><path transform="translate(0,0)" d="M1314.7636363636364,403.0076767676769L1314.7636363636364,206.82909090909104L1368.3958362248438,323.9260606060606L1325.2106037473977,418.2138181818184Z" stroke-width="0.35"/><path transform="translate(0,0)" d="M1344.076613462873,480L1325.2106037473977,418.2138181818184L1368.3958362248438,323.9260606060606L1410.392042563035,354.48996632996636L1426.7165983218724,402.01256198347096L1422.7003042758768,454.6260139860142L1408.1732130464957,480Z" stroke-width="0.35"/><path transform="translate(0,0)" d="M1329.753226925746,51.77212121212054L1347.5375433726576,0L1564.5463666104888,0L1555.1370612513242,143.80555023923378L1410.392042563035,354.48996632996636L1368.3958362248438,323.9260606060606L1314.7636363636364,206.82909090909104L1314.7636363636364,117.2266666666666Z" stroke-width="0.35"/><path transform="translate(0,0)" d="M1410.392042563035,354.48996632996636L1555.1370612513242,143.80555023923378L1556.088877673333,168.74314049586775L1536.6328084129611,282.02069930069956L1426.7165983218724,402.01256198347096Z" stroke-width="0.35"/><path transform="translate(0,0)" d="M1422.7003042758768,454.6260139860142L1426.7165983218724,402.01256198347096L1536.6328084129611,282.02069930069956L1543.6112699514226,373.43854545454536L1520.4002775850104,407.22343434343435Z" stroke-width="0.35"/><path transform="translate(0,0)" d="M1408.1732130464957,480L1422.7003042758768,454.6260139860142L1520.4002775850104,407.22343434343435L1570.3994448299793,480Z" stroke-width="0.35"/><path transform="translate(0,0)" d="M1570.3994448299793,480L1520.4002775850104,407.22343434343435L1543.6112699514226,373.43854545454536L1599.809465648855,408.4955151515152L1632.5596113809854,480Z" stroke-width="0.35"/><path transform="translate(0,0)" d="M1536.6328084129611,282.02069930069956L1556.088877673333,168.74314049586775L1639.4632616238725,350.7772121212121L1599.809465648855,408.4955151515152L1543.6112699514226,373.43854545454536Z" stroke-width="0.35"/><path transform="translate(0,0)" d="M1632.5596113809854,480L1599.809465648855,408.4955151515152L1639.4632616238725,350.7772121212121L1674.1464723571594,372.4129292929293L1698.7847328244275,480Z" stroke-width="0.35"/><path transform="translate(0,0)" d="M1555.1370612513242,143.80555023923378L1564.5463666104888,0L1672.0433032616238,0L1755.5584177654407,198.91781818181826L1741.4922970159612,291.0509090909094L1724.281101087208,328.62868686868705L1674.1464723571594,372.4129292929293L1639.4632616238725,350.7772121212121L1556.088877673333,168.74314049586775Z" stroke-width="0.35"/><path transform="translate(0,0)" d="M1757.416238723109,480L1698.7847328244275,480L1674.1464723571594,372.4129292929293L1724.281101087208,328.62868686868705L1758.0282581540598,475.9912727272726Z" stroke-width="0.35"/><path transform="translate(0,0)" d="M1758.0282581540598,475.9912727272726L1724.281101087208,328.62868686868705L1741.4922970159612,291.0509090909094L1787.2437791216416,390.94164502164506Z" stroke-width="0.35"/><path transform="translate(0,0)" d="M1741.4922970159612,291.0509090909094L1755.5584177654407,198.91781818181826L1829.2363636363634,273.16251748251744L1829.2363636363636,354.2681212121212L1787.2437791216416,390.94164502164506Z" stroke-width="0.35"/><path transform="translate(0,0)" d="M1757.416238723109,480L1758.0282581540598,475.9912727272726L1787.2437791216416,390.94164502164506L1829.2363636363636,354.2681212121212L1886.4,404.1910303030303L1886.4,480Z" stroke-width="0.35"/><path transform="translate(0,0)" d="M1829.2363636363636,354.2681212121212L1829.2363636363634,273.16251748251744L1924.509090909091,305.1643822843823L1924.509090909091,337.62715151515135L1886.4,404.1910303030303Z" stroke-width="0.35"/><path transform="translate(0,0)" d="M2096,124.79074380165308L1970.465150834796,274.2913368983958L1924.509090909091,305.1643822843823L1829.2363636363634,273.16251748251744L1755.5584177654407,198.91781818181826L1672.0433032616238,0L2096,0Z" stroke-width="0.35"/><path transform="translate(0,0)" d="M1886.4,480L1886.4,404.1910303030303L1924.509090909091,337.62715151515135L2003.6913254684246,406.7796363636365L1975.7446217904233,480Z" stroke-width="0.35"/><path transform="translate(0,0)" d="M1924.509090909091,305.1643822843823L1970.465150834796,274.2913368983958L2023.3023892138397,389.6526406926407L2003.6913254684246,406.7796363636365L1924.509090909091,337.62715151515135Z" stroke-width="0.35"/><path transform="translate(0,0)" d="M2023.3023892138397,389.6526406926407L1970.465150834796,274.2913368983958L2096,124.79074380165308L2096,286.8906666666668L2040.8153402242594,383.2798724082935Z" stroke-width="0.35"/><path transform="translate(0,0)" d="M2096,480L1975.7446217904233,480L2003.6913254684246,406.7796363636365L2023.3023892138397,389.6526406926407L2040.8153402242594,383.2798724082935L2096,417.7045887445887Z" stroke-width="0.35"/><path transform="translate(0,0)" d="M2096,417.7045887445887L2040.8153402242594,383.2798724082935L2096,286.8906666666668Z" stroke-width="0.35"/></g><g class="mark-symbol role-mark layer_4_marks" role="graphics-object" aria-roledescription="symbol mark container"><path aria-label="date: Sep 08, 2025; count: 1; Peak date: Sep 08, 2025; Peak unique count: 1" role="graphics-symbol" aria-roledescription="point" transform="translate(0,471.27272727272725)" d="M-5.916,0L0,-5.916L5.916,0L0,5.916Z" fill="#ff9900" stroke="#b36b00" stroke-width="1.5" opacity="0"/><path aria-label="date: Sep 09, 2025; count: 54; Peak date: Sep 09, 2025; Peak unique count: 54" role="graphics-symbol" aria-roledescription="point" transform="translate(38.10909090909091,8.72727272727273)" d="M-5.916,0L0,-5.916L5.916,0L0,5.916Z" fill="#ff9900" stroke="#b36b00" stroke-width="1.5" opacity="1"/><path aria-label="date: Sep 10, 2025; count: 51; Peak date: Sep 10, 2025; Peak unique count: 51" role="graphics-symbol" aria-roledescription="point" transform="translate(76.21818181818182,34.90909090909092)" d="M-5.916,0L0,-5.916L5.916,0L0,5.916Z" fill="#ff9900" stroke="#b36b00" stroke-width="1.5" opacity="0"/><path aria-label="date: Sep 11, 2025; count: 36; Peak date: Sep 11, 2025; Peak unique count: 36" role="graphics-symbol" aria-roledescription="point" transform="translate(114.32727272727273,165.8181818181818)" d="M-5.916,0L0,-5.916L5.916,0L0,5.916Z" fill="#ff9900" stroke="#b36b00" stroke-width="1.5" opacity="0"/><path aria-label="date: Sep 12, 2025; count: 32; Peak date: Sep 12, 2025; Peak unique count: 32" role="graphics-symbol" aria-roledescription="point" transform="translate(152.43636363636364,200.72727272727275)" d="M-5.916,0L0,-5.916L5.916,0L0,5.916Z" fill="#ff9900" stroke="#b36b00" stroke-width="1.5" opacity="0"/><path aria-label="date: Sep 13, 2025; count: 20; Peak date: Sep 13, 2025; Peak unique count: 20" role="graphics-symbol" aria-roledescription="point" transform="translate(190.54545454545456,305.45454545454544)" d="M-5.916,0L0,-5.916L5.916,0L0,5.916Z" fill="#ff9900" stroke="#b36b00" stroke-width="1.5" opacity="0"/><path aria-label="date: Sep 14, 2025; count: 18; Peak date: Sep 14, 2025; Peak unique count: 18" role="graphics-symbol" aria-roledescription="point" transform="translate(228.65454545454546,322.90909090909093)" d="M-5.916,0L0,-5.916L5.916,0L0,5.916Z" fill="#ff9900" stroke="#b36b00" stroke-width="1.5" opacity="0"/><path aria-label="date: Sep 15, 2025; count: 25; Peak date: Sep 15, 2025; Peak unique count: 25" role="graphics-symbol" aria-roledescription="point" transform="translate(266.76363636363635,261.8181818181818)" d="M-5.916,0L0,-5.916L5.916,0L0,5.916Z" fill="#ff9900" stroke="#b36b00" stroke-width="1.5" opacity="0"/><path aria-label="date: Sep 16, 2025; count: 27; Peak date: Sep 16, 2025; Peak unique count: 27" role="graphics-symbol" aria-roledescription="point" transform="translate(304.8727272727273,244.36363636363635)" d="M-5.916,0L0,-5.916L5.916,0L0,5.916Z" fill="#ff9900" stroke="#b36b00" stroke-width="1.5" opacity="0"/><path aria-label="date: Sep 17, 2025; count: 39; Peak date: Sep 17, 2025; Peak unique count: 39" role="graphics-symbol" aria-roledescription="point" transform="translate(342.9818181818182,139.63636363636363)" d="M-5.916,0L0,-5.916L5.916,0L0,5.916Z" fill="#ff9900" stroke="#b36b00" stroke-width="1.5" opacity="0"/><path aria-label="date: Sep 18, 2025; count: 41; Peak date: Sep 18, 2025; Peak unique count: 41" role="graphics-symbol" aria-roledescription="point" transform="translate(381.0909090909091,122.18181818181817)" d="M-5.916,0L0,-5.916L5.916,0L0,5.916Z" fill="#ff9900" stroke="#b36b00" stroke-width="1.5" opacity="0"/><path aria-label="date: Sep 19, 2025; count: 28; Peak date: Sep 19, 2025; Peak unique count: 28" role="graphics-symbol" aria-roledescription="point" transform="translate(419.20000000000005,235.63636363636365)" d="M-5.916,0L0,-5.916L5.916,0L0,5.916Z" fill="#ff9900" stroke="#b36b00" stroke-width="1.5" opacity="0"/><path aria-label="date: Sep 20, 2025; count: 24; Peak date: Sep 20, 2025; Peak unique count: 24" role="graphics-symbol" aria-roledescription="point" transform="translate(457.3090909090909,270.54545454545456)" d="M-5.916,0L0,-5.916L5.916,0L0,5.916Z" fill="#ff9900" stroke="#b36b00" stroke-width="1.5" opacity="0"/><path aria-label="date: Sep 21, 2025; count: 15; Peak date: Sep 21, 2025; Peak unique count: 15" role="graphics-symbol" aria-roledescription="point" transform="translate(495.41818181818184,349.0909090909091)" d="M-5.916,0L0,-5.916L5.916,0L0,5.916Z" fill="#ff9900" stroke="#b36b00" stroke-width="1.5" opacity="0"/><path aria-label="date: Sep 22, 2025; count: 16; Peak date: Sep 22, 2025; Peak unique count: 16" role="graphics-symbol" aria-roledescription="point" transform="translate(533.5272727272727,340.3636363636364)" d="M-5.916,0L0,-5.916L5.916,0L0,5.916Z" fill="#ff9900" stroke="#b36b00" stroke-width="1.5" opacity="0"/><path aria-label="date: Sep 23, 2025; count: 17; Peak date: Sep 23, 2025; Peak unique count: 17" role="graphics-symbol" aria-roledescription="point" transform="translate(571.6363636363636,331.6363636363636)" d="M-5.916,0L0,-5.916L5.916,0L0,5.916Z" fill="#ff9900" stroke="#b36b00" stroke-width="1.5" opacity="0"/><path aria-label="date: Sep 24, 2025; count: 18; Peak date: Sep 24, 2025; Peak unique count: 18" role="graphics-symbol" aria-roledescription="point" transform="translate(609.7454545454545,322.90909090909093)" d="M-5.916,0L0,-5.916L5.916,0L0,5.916Z" fill="#ff9900" stroke="#b36b00" stroke-width="1.5" opacity="0"/><path aria-label="date: Sep 25, 2025; count: 11; Peak date: Sep 25, 2025; Peak unique count: 11" role="graphics-symbol" aria-roledescription="point" transform="translate(647.8545454545455,384)" d="M-5.916,0L0,-5.916L5.916,0L0,5.916Z" fill="#ff9900" stroke="#b36b00" stroke-width="1.5" opacity="0"/><path aria-label="date: Sep 26, 2025; count: 25; Peak date: Sep 26, 2025; Peak unique count: 25" role="graphics-symbol" aria-roledescription="point" transform="translate(685.9636363636364,261.8181818181818)" d="M-5.916,0L0,-5.916L5.916,0L0,5.916Z" fill="#ff9900" stroke="#b36b00" stroke-width="1.5" opacity="0"/><path aria-label="date: Sep 27, 2025; count: 7; Peak date: Sep 27, 2025; Peak unique count: 7" role="graphics-symbol" aria-roledescription="point" transform="translate(724.0727272727273,418.90909090909093)" d="M-5.916,0L0,-5.916L5.916,0L0,5.916Z" fill="#ff9900" stroke="#b36b00" stroke-width="1.5" opacity="0"/><path aria-label="date: Sep 28, 2025; count: 14; Peak date: Sep 28, 2025; Peak unique count: 14" role="graphics-symbol" aria-roledescription="point" transform="translate(762.1818181818182,357.8181818181818)" d="M-5.916,0L0,-5.916L5.916,0L0,5.916Z" fill="#ff9900" stroke="#b36b00" stroke-width="1.5" opacity="0"/><path aria-label="date: Sep 29, 2025; count: 38; Peak date: Sep 29, 2025; Peak unique count: 38" role="graphics-symbol" aria-roledescription="point" transform="translate(800.2909090909092,148.36363636363637)" d="M-5.916,0L0,-5.916L5.916,0L0,5.916Z" fill="#ff9900" stroke="#b36b00" stroke-width="1.5" opacity="0"/><path aria-label="date: Sep 30, 2025; count: 27; Peak date: Sep 30, 2025; Peak unique count: 27" role="graphics-symbol" aria-roledescription="point" transform="translate(838.4000000000001,244.36363636363635)" d="M-5.916,0L0,-5.916L5.916,0L0,5.916Z" fill="#ff9900" stroke="#b36b00" stroke-width="1.5" opacity="0"/><path aria-label="date: Oct 01, 2025; count: 9; Peak date: Oct 01, 2025; Peak unique count: 9" role="graphics-symbol" aria-roledescription="point" transform="translate(876.5090909090909,401.4545454545455)" d="M-5.916,0L0,-5.916L5.916,0L0,5.916Z" fill="#ff9900" stroke="#b36b00" stroke-width="1.5" opacity="0"/><path aria-label="date: Oct 02, 2025; count: 36; Peak date: Oct 02, 2025; Peak unique count: 36" role="graphics-symbol" aria-roledescription="point" transform="translate(914.6181818181818,165.8181818181818)" d="M-5.916,0L0,-5.916L5.916,0L0,5.916Z" fill="#ff9900" stroke="#b36b00" stroke-width="1.5" opacity="0"/><path aria-label="date: Oct 03, 2025; count: 26; Peak date: Oct 03, 2025; Peak unique count: 26" role="graphics-symbol" aria-roledescription="point" transform="translate(952.7272727272727,253.09090909090912)" d="M-5.916,0L0,-5.916L5.916,0L0,5.916Z" fill="#ff9900" stroke="#b36b00" stroke-width="1.5" opacity="0"/><path aria-label="date: Oct 04, 2025; count: 26; Peak date: Oct 04, 2025; Peak unique count: 26" role="graphics-symbol" aria-roledescription="point" transform="translate(990.8363636363637,253.09090909090912)" d="M-5.916,0L0,-5.916L5.916,0L0,5.916Z" fill="#ff9900" stroke="#b36b00" stroke-width="1.5" opacity="0"/><path aria-label="date: Oct 05, 2025; count: 16; Peak date: Oct 05, 2025; Peak unique count: 16" role="graphics-symbol" aria-roledescription="point" transform="translate(1028.9454545454546,340.3636363636364)" d="M-5.916,0L0,-5.916L5.916,0L0,5.916Z" fill="#ff9900" stroke="#b36b00" stroke-width="1.5" opacity="0"/><path aria-label="date: Oct 06, 2025; count: 20; Peak date: Oct 06, 2025; Peak unique count: 20" role="graphics-symbol" aria-roledescription="point" transform="translate(1067.0545454545454,305.45454545454544)" d="M-5.916,0L0,-5.916L5.916,0L0,5.916Z" fill="#ff9900" stroke="#b36b00" stroke-width="1.5" opacity="0"/><path aria-label="date: Oct 07, 2025; count: 31; Peak date: Oct 07, 2025; Peak unique count: 31" role="graphics-symbol" aria-roledescription="point" transform="translate(1105.1636363636362,209.45454545454547)" d="M-5.916,0L0,-5.916L5.916,0L0,5.916Z" fill="#ff9900" stroke="#b36b00" stroke-width="1.5" opacity="0"/><path aria-label="date: Oct 08, 2025; count: 26; Peak date: Oct 08, 2025; Peak unique count: 26" role="graphics-symbol" aria-roledescription="point" transform="translate(1143.2727272727273,253.09090909090912)" d="M-5.916,0L0,-5.916L5.916,0L0,5.916Z" fill="#ff9900" stroke="#b36b00" stroke-width="1.5" opacity="0"/><path aria-label="date: Oct 09, 2025; count: 15; Peak date: Oct 09, 2025; Peak unique count: 15" role="graphics-symbol" aria-roledescription="point" transform="translate(1181.381818181818,349.0909090909091)" d="M-5.916,0L0,-5.916L5.916,0L0,5.916Z" fill="#ff9900" stroke="#b36b00" stroke-width="1.5" opacity="0"/><path aria-label="date: Oct 10, 2025; count: 19; Peak date: Oct 10, 2025; Peak unique count: 19" role="graphics-symbol" aria-roledescription="point" transform="translate(1219.490909090909,314.1818181818182)" d="M-5.916,0L0,-5.916L5.916,0L0,5.916Z" fill="#ff9900" stroke="#b36b00" stroke-width="1.5" opacity="0"/><path aria-label="date: Oct 11, 2025; count: 9; Peak date: Oct 11, 2025; Peak unique count: 9" role="graphics-symbol" aria-roledescription="point" transform="translate(1257.6,401.4545454545455)" d="M-5.916,0L0,-5.916L5.916,0L0,5.916Z" fill="#ff9900" stroke="#b36b00" stroke-width="1.5" opacity="0"/><path aria-label="date: Oct 12, 2025; count: 15; Peak date: Oct 12, 2025; Peak unique count: 15" role="graphics-symbol" aria-roledescription="point" transform="translate(1295.709090909091,349.0909090909091)" d="M-5.916,0L0,-5.916L5.916,0L0,5.916Z" fill="#ff9900" stroke="#b36b00" stroke-width="1.5" opacity="0"/><path aria-label="date: Oct 13, 2025; count: 15; Peak date: Oct 13, 2025; Peak unique count: 15" role="graphics-symbol" aria-roledescription="point" transform="translate(1333.8181818181818,349.0909090909091)" d="M-5.916,0L0,-5.916L5.916,0L0,5.916Z" fill="#ff9900" stroke="#b36b00" stroke-width="1.5" opacity="0"/><path aria-label="date: Oct 14, 2025; count: 13; Peak date: Oct 14, 2025; Peak unique count: 13" role="graphics-symbol" aria-roledescription="point" transform="translate(1371.9272727272728,366.54545454545456)" d="M-5.916,0L0,-5.916L5.916,0L0,5.916Z" fill="#ff9900" stroke="#b36b00" stroke-width="1.5" opacity="0"/><path aria-label="date: Oct 15, 2025; count: 19; Peak date: Oct 15, 2025; Peak unique count: 19" role="graphics-symbol" aria-roledescription="point" transform="translate(1410.0363636363636,314.1818181818182)" d="M-5.916,0L0,-5.916L5.916,0L0,5.916Z" fill="#ff9900" stroke="#b36b00" stroke-width="1.5" opacity="0"/><path aria-label="date: Oct 16, 2025; count: 16; Peak date: Oct 16, 2025; Peak unique count: 16" role="graphics-symbol" aria-roledescription="point" transform="translate(1448.1454545454546,340.3636363636364)" d="M-5.916,0L0,-5.916L5.916,0L0,5.916Z" fill="#ff9900" stroke="#b36b00" stroke-width="1.5" opacity="0"/><path aria-label="date: Oct 17, 2025; count: 12; Peak date: Oct 17, 2025; Peak unique count: 12" role="graphics-symbol" aria-roledescription="point" transform="translate(1486.2545454545455,375.2727272727273)" d="M-5.916,0L0,-5.916L5.916,0L0,5.916Z" fill="#ff9900" stroke="#b36b00" stroke-width="1.5" opacity="0"/><path aria-label="date: Oct 18, 2025; count: 3; Peak date: Oct 18, 2025; Peak unique count: 3" role="graphics-symbol" aria-roledescription="point" transform="translate(1524.3636363636365,453.8181818181818)" d="M-5.916,0L0,-5.916L5.916,0L0,5.916Z" fill="#ff9900" stroke="#b36b00" stroke-width="1.5" opacity="0"/><path aria-label="date: Oct 19, 2025; count: 6; Peak date: Oct 19, 2025; Peak unique count: 6" role="graphics-symbol" aria-roledescription="point" transform="translate(1562.4727272727273,427.6363636363636)" d="M-5.916,0L0,-5.916L5.916,0L0,5.916Z" fill="#ff9900" stroke="#b36b00" stroke-width="1.5" opacity="0"/><path aria-label="date: Oct 20, 2025; count: 13; Peak date: Oct 20, 2025; Peak unique count: 13" role="graphics-symbol" aria-roledescription="point" transform="translate(1600.5818181818183,366.54545454545456)" d="M-5.916,0L0,-5.916L5.916,0L0,5.916Z" fill="#ff9900" stroke="#b36b00" stroke-width="1.5" opacity="0"/><path aria-label="date: Oct 21, 2025; count: 10; Peak date: Oct 21, 2025; Peak unique count: 10" role="graphics-symbol" aria-roledescription="point" transform="translate(1638.6909090909091,392.7272727272727)" d="M-5.916,0L0,-5.916L5.916,0L0,5.916Z" fill="#ff9900" stroke="#b36b00" stroke-width="1.5" opacity="0"/><path aria-label="date: Oct 22, 2025; count: 17; Peak date: Oct 22, 2025; Peak unique count: 17" role="graphics-symbol" aria-roledescription="point" transform="translate(1676.8000000000002,331.6363636363636)" d="M-5.916,0L0,-5.916L5.916,0L0,5.916Z" fill="#ff9900" stroke="#b36b00" stroke-width="1.5" opacity="0"/><path aria-label="date: Oct 23, 2025; count: 12; Peak date: Oct 23, 2025; Peak unique count: 12" role="graphics-symbol" aria-roledescription="point" transform="translate(1714.909090909091,375.2727272727273)" d="M-5.916,0L0,-5.916L5.916,0L0,5.916Z" fill="#ff9900" stroke="#b36b00" stroke-width="1.5" opacity="0"/><path aria-label="date: Oct 24, 2025; count: 13; Peak date: Oct 24, 2025; Peak unique count: 13" role="graphics-symbol" aria-roledescription="point" transform="translate(1753.0181818181818,366.54545454545456)" d="M-5.916,0L0,-5.916L5.916,0L0,5.916Z" fill="#ff9900" stroke="#b36b00" stroke-width="1.5" opacity="0"/><path aria-label="date: Oct 25, 2025; count: 15; Peak date: Oct 25, 2025; Peak unique count: 15" role="graphics-symbol" aria-roledescription="point" transform="translate(1791.1272727272726,349.0909090909091)" d="M-5.916,0L0,-5.916L5.916,0L0,5.916Z" fill="#ff9900" stroke="#b36b00" stroke-width="1.5" opacity="0"/><path aria-label="date: Oct 26, 2025; count: 10; Peak date: Oct 26, 2025; Peak unique count: 10" role="graphics-symbol" aria-roledescription="point" transform="translate(1829.2363636363636,392.7272727272727)" d="M-5.916,0L0,-5.916L5.916,0L0,5.916Z" fill="#ff9900" stroke="#b36b00" stroke-width="1.5" opacity="0"/><path aria-label="date: Oct 27, 2025; count: 15; Peak date: Oct 27, 2025; Peak unique count: 15" role="graphics-symbol" aria-roledescription="point" transform="translate(1867.3454545454545,349.0909090909091)" d="M-5.916,0L0,-5.916L5.916,0L0,5.916Z" fill="#ff9900" stroke="#b36b00" stroke-width="1.5" opacity="0"/><path aria-label="date: Oct 28, 2025; count: 28; Peak date: Oct 28, 2025; Peak unique count: 28" role="graphics-symbol" aria-roledescription="point" transform="translate(1905.4545454545455,235.63636363636365)" d="M-5.916,0L0,-5.916L5.916,0L0,5.916Z" fill="#ff9900" stroke="#b36b00" stroke-width="1.5" opacity="0"/><path aria-label="date: Oct 29, 2025; count: 10; Peak date: Oct 29, 2025; Peak unique count: 10" role="graphics-symbol" aria-roledescription="point" transform="translate(1943.5636363636363,392.7272727272727)" d="M-5.916,0L0,-5.916L5.916,0L0,5.916Z" fill="#ff9900" stroke="#b36b00" stroke-width="1.5" opacity="0"/><path aria-label="date: Oct 30, 2025; count: 15; Peak date: Oct 30, 2025; Peak unique count: 15" role="graphics-symbol" aria-roledescription="point" transform="translate(1981.6727272727273,349.0909090909091)" d="M-5.916,0L0,-5.916L5.916,0L0,5.916Z" fill="#ff9900" stroke="#b36b00" stroke-width="1.5" opacity="0"/><path aria-label="date: Oct 31, 2025; count: 17; Peak date: Oct 31, 2025; Peak unique count: 17" role="graphics-symbol" aria-roledescription="point" transform="translate(2019.7818181818182,331.6363636363636)" d="M-5.916,0L0,-5.916L5.916,0L0,5.916Z" fill="#ff9900" stroke="#b36b00" stroke-width="1.5" opacity="0"/><path aria-label="date: Nov 01, 2025; count: 5; Peak date: Nov 01, 2025; Peak unique count: 5" role="graphics-symbol" aria-roledescription="point" transform="translate(2057.890909090909,436.3636363636364)" d="M-5.916,0L0,-5.916L5.916,0L0,5.916Z" fill="#ff9900" stroke="#b36b00" stroke-width="1.5" opacity="0"/><path aria-label="date: Nov 02, 2025; count: 12; Peak date: Nov 02, 2025; Peak unique count: 12" role="graphics-symbol" aria-roledescription="point" transform="translate(2096,375.2727272727273)" d="M-5.916,0L0,-5.916L5.916,0L0,5.916Z" fill="#ff9900" stroke="#b36b00" stroke-width="1.5" opacity="0"/></g><g class="mark-rule role-mark layer_5_marks" role="graphics-symbol" aria-roledescription="rule mark container" pointer-events="none"><line transform="translate(2096,307.28727272727275)" x2="-2096" y2="0" stroke="#d62728" stroke-width="1.5" stroke-dasharray="4,4"/><line transform="translate(2096,307.28727272727275)" x2="-2096" y2="0" stroke="#d62728" stroke-width="1.5" stroke-dasharray="4,4"/><line transform="translate(2096,307.28727272727275)" x2="-2096" y2="0" stroke="#d62728" stroke-width="1.5" stroke-dasharray="4,4"/><line transform="translate(2096,307.28727272727275)" x2="-2096" y2="0" stroke="#d62728" stroke-width="1.5" stroke-dasharray="4,4"/><line transform="translate(2096,307.28727272727275)" x2="-2096" y2="0" stroke="#d62728" stroke-width="1.5" stroke-dasharray="4,4"/><line transform="translate(2096,307.28727272727275)" x2="-2096" y2="0" stroke="#d62728" stroke-width="1.5" stroke-dasharray="4,4"/><line transform="translate(2096,307.28727272727275)" x2="-2096" y2="0" stroke="#d62728" stroke-width="1.5" stroke-dasharray="4,4"/><line transform="translate(2096,307.28727272727275)" x2="-2096" y2="0" stroke="#d62728" stroke-width="1.5" stroke-dasharray="4,4"/><line transform="translate(2096,307.28727272727275)" x2="-2096" y2="0" stroke="#d62728" stroke-width="1.5" stroke-dasharray="4,4"/><line transform="translate(2096,307.28727272727275)" x2="-2096" y2="0" stroke="#d62728" stroke-width="1.5" stroke-dasharray="4,4"/><line transform="translate(2096,307.28727272727275)" x2="-2096" y2="0" stroke="#d62728" stroke-width="1.5" stroke-dasharray="4,4"/><line transform="translate(2096,307.28727272727275)" x2="-2096" y2="0" stroke="#d62728" stroke-width="1.5" stroke-dasharray="4,4"/><line transform="translate(2096,307.28727272727275)" x2="-2096" y2="0" stroke="#d62728" stroke-width="1.5" stroke-dasharray="4,4"/><line transform="translate(2096,307.28727272727275)" x2="-2096" y2="0" stroke="#d62728" stroke-width="1.5" stroke-dasharray="4,4"/><line transform="translate(2096,307.28727272727275)" x2="-2096" y2="0" stroke="#d62728" stroke-width="1.5" stroke-dasharray="4,4"/><line transform="translate(2096,307.28727272727275)" x2="-2096" y2="0" stroke="#d62728" stroke-width="1.5" stroke-dasharray="4,4"/><line transform="translate(2096,307.28727272727275)" x2="-2096" y2="0" stroke="#d62728" stroke-width="1.5" stroke-dasharray="4,4"/><line transform="translate(2096,307.28727272727275)" x2="-2096" y2="0" stroke="#d62728" stroke-width="1.5" stroke-dasharray="4,4"/><line transform="translate(2096,307.28727272727275)" x2="-2096" y2="0" stroke="#d62728" stroke-width="1.5" stroke-dasharray="4,4"/><line transform="translate(2096,307.28727272727275)" x2="-2096" y2="0" stroke="#d62728" stroke-width="1.5" stroke-dasharray="4,4"/><line transform="translate(2096,307.28727272727275)" x2="-2096" y2="0" stroke="#d62728" stroke-width="1.5" stroke-dasharray="4,4"/><line transform="translate(2096,307.28727272727275)" x2="-2096" y2="0" stroke="#d62728" stroke-width="1.5" stroke-dasharray="4,4"/><line transform="translate(2096,307.28727272727275)" x2="-2096" y2="0" stroke="#d62728" stroke-width="1.5" stroke-dasharray="4,4"/><line transform="translate(2096,307.28727272727275)" x2="-2096" y2="0" stroke="#d62728" stroke-width="1.5" stroke-dasharray="4,4"/><line transform="translate(2096,307.28727272727275)" x2="-2096" y2="0" stroke="#d62728" stroke-width="1.5" stroke-dasharray="4,4"/><line transform="translate(2096,307.28727272727275)" x2="-2096" y2="0" stroke="#d62728" stroke-width="1.5" stroke-dasharray="4,4"/><line transform="translate(2096,307.28727272727275)" x2="-2096" y2="0" stroke="#d62728" stroke-width="1.5" stroke-dasharray="4,4"/><line transform="translate(2096,307.28727272727275)" x2="-2096" y2="0" stroke="#d62728" stroke-width="1.5" stroke-dasharray="4,4"/><line transform="translate(2096,307.28727272727275)" x2="-2096" y2="0" stroke="#d62728" stroke-width="1.5" stroke-dasharray="4,4"/><line transform="translate(2096,307.28727272727275)" x2="-2096" y2="0" stroke="#d62728" stroke-width="1.5" stroke-dasharray="4,4"/><line transform="translate(2096,307.28727272727275)" x2="-2096" y2="0" stroke="#d62728" stroke-width="1.5" stroke-dasharray="4,4"/><line transform="translate(2096,307.28727272727275)" x2="-2096" y2="0" stroke="#d62728" stroke-width="1.5" stroke-dasharray="4,4"/><line transform="translate(2096,307.28727272727275)" x2="-2096" y2="0" stroke="#d62728" stroke-width="1.5" stroke-dasharray="4,4"/><line transform="translate(2096,307.28727272727275)" x2="-2096" y2="0" stroke="#d62728" stroke-width="1.5" stroke-dasharray="4,4"/><line transform="translate(2096,307.28727272727275)" x2="-2096" y2="0" stroke="#d62728" stroke-width="1.5" stroke-dasharray="4,4"/><line transform="translate(2096,307.28727272727275)" x2="-2096" y2="0" stroke="#d62728" stroke-width="1.5" stroke-dasharray="4,4"/><line transform="translate(2096,307.28727272727275)" x2="-2096" y2="0" stroke="#d62728" stroke-width="1.5" stroke-dasharray="4,4"/><line transform="translate(2096,307.28727272727275)" x2="-2096" y2="0" stroke="#d62728" stroke-width="1.5" stroke-dasharray="4,4"/><line transform="translate(2096,307.28727272727275)" x2="-2096" y2="0" stroke="#d62728" stroke-width="1.5" stroke-dasharray="4,4"/><line transform="translate(2096,307.28727272727275)" x2="-2096" y2="0" stroke="#d62728" stroke-width="1.5" stroke-dasharray="4,4"/><line transform="translate(2096,307.28727272727275)" x2="-2096" y2="0" stroke="#d62728" stroke-width="1.5" stroke-dasharray="4,4"/><line transform="translate(2096,307.28727272727275)" x2="-2096" y2="0" stroke="#d62728" stroke-width="1.5" stroke-dasharray="4,4"/><line transform="translate(2096,307.28727272727275)" x2="-2096" y2="0" stroke="#d62728" stroke-width="1.5" stroke-dasharray="4,4"/><line transform="translate(2096,307.28727272727275)" x2="-2096" y2="0" stroke="#d62728" stroke-width="1.5" stroke-dasharray="4,4"/><line transform="translate(2096,307.28727272727275)" x2="-2096" y2="0" stroke="#d62728" stroke-width="1.5" stroke-dasharray="4,4"/><line transform="translate(2096,307.28727272727275)" x2="-2096" y2="0" stroke="#d62728" stroke-width="1.5" stroke-dasharray="4,4"/><line transform="translate(2096,307.28727272727275)" x2="-2096" y2="0" stroke="#d62728" stroke-width="1.5" stroke-dasharray="4,4"/><line transform="translate(2096,307.28727272727275)" x2="-2096" y2="0" stroke="#d62728" stroke-width="1.5" stroke-dasharray="4,4"/><line transform="translate(2096,307.28727272727275)" x2="-2096" y2="0" stroke="#d62728" stroke-width="1.5" stroke-dasharray="4,4"/><line transform="translate(2096,307.28727272727275)" x2="-2096" y2="0" stroke="#d62728" stroke-width="1.5" stroke-dasharray="4,4"/><line transform="translate(2096,307.28727272727275)" x2="-2096" y2="0" stroke="#d62728" stroke-width="1.5" stroke-dasharray="4,4"/><line transform="translate(2096,307.28727272727275)" x2="-2096" y2="0" stroke="#d62728" stroke-width="1.5" stroke-dasharray="4,4"/><line transform="translate(2096,307.28727272727275)" x2="-2096" y2="0" stroke="#d62728" stroke-width="1.5" stroke-dasharray="4,4"/><line transform="translate(2096,307.28727272727275)" x2="-2096" y2="0" stroke="#d62728" stroke-width="1.5" stroke-dasharray="4,4"/><line transform="translate(2096,307.28727272727275)" x2="-2096" y2="0" stroke="#d62728" stroke-width="1.5" stroke-dasharray="4,4"/><line transform="translate(2096,307.28727272727275)" x2="-2096" y2="0" stroke="#d62728" stroke-width="1.5" stroke-dasharray="4,4"/></g><g class="mark-text role-mark layer_6_marks" role="graphics-object" aria-roledescription="text mark container" pointer-events="none"><text aria-label="date: Nov 02, 2025" role="graphics-symbol" aria-roledescription="text mark" text-anchor="start" transform="translate(2102,305.28727272727275)" font-family="sans-serif" font-size="12px" fill="#d62728">Avg: 19.79</text></g></g><path class="foreground" aria-hidden="true" d="" display="none"/></g></g></g></svg>
