<svg xmlns="http://www.w3.org/2000/svg" xmlns:xlink="http://www.w3.org/1999/xlink" version="1.1" class="marks" width="1395" height="573" viewBox="0 0 1395 573"><rect width="1395" height="573" fill="white"/><g fill="none" stroke-miterlimit="10" transform="translate(51,11)"><g class="mark-group role-frame root" role="graphics-object" aria-roledescription="group mark container"><g transform="translate(0,0)"><path class="background" aria-hidden="true" d="M0.5,0.5h1268v480h-1268Z"/><g><g class="mark-group role-axis" aria-hidden="true"><g transform="translate(0.5,0.5)"><path class="background" aria-hidden="true" d="M0,0h0v0h0Z" pointer-events="none"/><g><g class="mark-rule role-axis-grid" pointer-events="none"><line transform="translate(0,480)" x2="1268" y2="0" stroke="#ddd" stroke-width="1" opacity="1"/><line transform="translate(0,436)" x2="1268" y2="0" stroke="#ddd" stroke-width="1" opacity="1"/><line transform="translate(0,393)" x2="1268" y2="0" stroke="#ddd" stroke-width="1" opacity="1"/><line transform="translate(0,349)" x2="1268" y2="0" stroke="#ddd" stroke-width="1" opacity="1"/><line transform="translate(0,305)" x2="1268" y2="0" stroke="#ddd" stroke-width="1" opacity="1"/><line transform="translate(0,262)" x2="1268" y2="0" stroke="#ddd" stroke-width="1" opacity="1"/><line transform="translate(0,218)" x2="1268" y2="0" stroke="#ddd" stroke-width="1" opacity="1"/><line transform="translate(0,175)" x2="1268" y2="0" stroke="#ddd" stroke-width="1" opacity="1"/><line transform="translate(0,131)" x2="1268" y2="0" stroke="#ddd" stroke-width="1" opacity="1"/><line transform="translate(0,87)" x2="1268" y2="0" stroke="#ddd" stroke-width="1" opacity="1"/><line transform="translate(0,44)" x2="1268" y2="0" stroke="#ddd" stroke-width="1" opacity="1"/><line transform="translate(0,0)" x2="1268" y2="0" stroke="#ddd" stroke-width="1" opacity="1"/></g></g><path class="foreground" aria-hidden="true" d="" pointer-events="none" display="none"/></g></g><g class="mark-group role-axis" role="graphics-symbol" aria-roledescription="axis" aria-label="X-axis titled 'Date' for a time scale with values from 2025-09-08 to 2025-10-10"><g transform="translate(0.5,480.5)"><path class="background" aria-hidden="true" d="M0,0h0v0h0Z" pointer-events="none"/><g><g class="mark-rule role-axis-tick" pointer-events="none"><line transform="translate(0,0)" x2="0" y2="5" stroke="#bbb" stroke-width="1" opacity="1"/><line transform="translate(40,0)" x2="0" y2="5" stroke="#bbb" stroke-width="1" opacity="1"/><line transform="translate(79,0)" x2="0" y2="5" stroke="#bbb" stroke-width="1" opacity="1"/><line transform="translate(119,0)" x2="0" y2="5" stroke="#bbb" stroke-width="1" opacity="1"/><line transform="translate(159,0)" x2="0" y2="5" stroke="#bbb" stroke-width="1" opacity="1"/><line transform="translate(198,0)" x2="0" y2="5" stroke="#bbb" stroke-width="1" opacity="1"/><line transform="translate(238,0)" x2="0" y2="5" stroke="#bbb" stroke-width="1" opacity="1"/><line transform="translate(277,0)" x2="0" y2="5" stroke="#bbb" stroke-width="1" opacity="1"/><line transform="translate(317,0)" x2="0" y2="5" stroke="#bbb" stroke-width="1" opacity="1"/><line transform="translate(357,0)" x2="0" y2="5" stroke="#bbb" stroke-width="1" opacity="1"/><line transform="translate(396,0)" x2="0" y2="5" stroke="#bbb" stroke-width="1" opacity="1"/><line transform="translate(436,0)" x2="0" y2="5" stroke="#bbb" stroke-width="1" opacity="1"/><line transform="translate(476,0)" x2="0" y2="5" stroke="#bbb" stroke-width="1" opacity="1"/><line transform="translate(515,0)" x2="0" y2="5" stroke="#bbb" stroke-width="1" opacity="1"/><line transform="translate(555,0)" x2="0" y2="5" stroke="#bbb" stroke-width="1" opacity="1"/><line transform="translate(594,0)" x2="0" y2="5" stroke="#bbb" stroke-width="1" opacity="1"/><line transform="translate(634,0)" x2="0" y2="5" stroke="#bbb" stroke-width="1" opacity="1"/><line transform="translate(674,0)" x2="0" y2="5" stroke="#bbb" stroke-width="1" opacity="1"/><line transform="translate(713,0)" x2="0" y2="5" stroke="#bbb" stroke-width="1" opacity="1"/><line transform="translate(753,0)" x2="0" y2="5" stroke="#bbb" stroke-width="1" opacity="1"/><line transform="translate(793,0)" x2="0" y2="5" stroke="#bbb" stroke-width="1" opacity="1"/><line transform="translate(832,0)" x2="0" y2="5" stroke="#bbb" stroke-width="1" opacity="1"/><line transform="translate(872,0)" x2="0" y2="5" stroke="#bbb" stroke-width="1" opacity="1"/><line transform="translate(911,0)" x2="0" y2="5" stroke="#bbb" stroke-width="1" opacity="1"/><line transform="translate(951,0)" x2="0" y2="5" stroke="#bbb" stroke-width="1" opacity="1"/><line transform="translate(991,0)" x2="0" y2="5" stroke="#bbb" stroke-width="1" opacity="1"/><line transform="translate(1030,0)" x2="0" y2="5" stroke="#bbb" stroke-width="1" opacity="1"/><line transform="translate(1070,0)" x2="0" y2="5" stroke="#bbb" stroke-width="1" opacity="1"/><line transform="translate(1110,0)" x2="0" y2="5" stroke="#bbb" stroke-width="1" opacity="1"/><line transform="translate(1149,0)" x2="0" y2="5" stroke="#bbb" stroke-width="1" opacity="1"/><line transform="translate(1189,0)" x2="0" y2="5" stroke="#bbb" stroke-width="1" opacity="1"/><line transform="translate(1228,0)" x2="0" y2="5" stroke="#bbb" stroke-width="1" opacity="1"/><line transform="translate(1268,0)" x2="0" y2="5" stroke="#bbb" stroke-width="1" opacity="1"/></g><g class="mark-text role-axis-label" pointer-events="none"><text text-anchor="end" transform="translate(0,7) rotate(315) translate(0,9)" font-family="Segoe UI" font-size="11px" fill="#000" opacity="1">2025-09-08</text><text text-anchor="end" transform="translate(39.625,7) rotate(315) translate(0,9)" font-family="Segoe UI" font-size="11px" fill="#000" opacity="0">2025-09-09</text><text text-anchor="end" transform="translate(79.25,7) rotate(315) translate(0,9)" font-family="Segoe UI" font-size="11px" fill="#000" opacity="1">2025-09-10</text><text text-anchor="end" transform="translate(118.875,7) rotate(315) translate(0,9)" font-family="Segoe UI" font-size="11px" fill="#000" opacity="0">2025-09-11</text><text text-anchor="end" transform="translate(158.5,7) rotate(315) translate(0,9)" font-family="Segoe UI" font-size="11px" fill="#000" opacity="1">2025-09-12</text><text text-anchor="end" transform="translate(198.125,7) rotate(315) translate(0,9)" font-family="Segoe UI" font-size="11px" fill="#000" opacity="0">2025-09-13</text><text text-anchor="end" transform="translate(237.75,7) rotate(315) translate(0,9)" font-family="Segoe UI" font-size="11px" fill="#000" opacity="1">2025-09-14</text><text text-anchor="end" transform="translate(277.375,7) rotate(315) translate(0,9)" font-family="Segoe UI" font-size="11px" fill="#000" opacity="0">2025-09-15</text><text text-anchor="end" transform="translate(317,7) rotate(315) translate(0,9)" font-family="Segoe UI" font-size="11px" fill="#000" opacity="1">2025-09-16</text><text text-anchor="end" transform="translate(356.625,7) rotate(315) translate(0,9)" font-family="Segoe UI" font-size="11px" fill="#000" opacity="0">2025-09-17</text><text text-anchor="end" transform="translate(396.25,7) rotate(315) translate(0,9)" font-family="Segoe UI" font-size="11px" fill="#000" opacity="1">2025-09-18</text><text text-anchor="end" transform="translate(435.875,7) rotate(315) translate(0,9)" font-family="Segoe UI" font-size="11px" fill="#000" opacity="0">2025-09-19</text><text text-anchor="end" transform="translate(475.5,7) rotate(315) translate(0,9)" font-family="Segoe UI" font-size="11px" fill="#000" opacity="1">2025-09-20</text><text text-anchor="end" transform="translate(515.125,7) rotate(315) translate(0,9)" font-family="Segoe UI" font-size="11px" fill="#000" opacity="0">2025-09-21</text><text text-anchor="end" transform="translate(554.75,7) rotate(315) translate(0,9)" font-family="Segoe UI" font-size="11px" fill="#000" opacity="1">2025-09-22</text><text text-anchor="end" transform="translate(594.375,7) rotate(315) translate(0,9)" font-family="Segoe UI" font-size="11px" fill="#000" opacity="0">2025-09-23</text><text text-anchor="end" transform="translate(634,7) rotate(315) translate(0,9)" font-family="Segoe UI" font-size="11px" fill="#000" opacity="1">2025-09-24</text><text text-anchor="end" transform="translate(673.625,7) rotate(315) translate(0,9)" font-family="Segoe UI" font-size="11px" fill="#000" opacity="0">2025-09-25</text><text text-anchor="end" transform="translate(713.25,7) rotate(315) translate(0,9)" font-family="Segoe UI" font-size="11px" fill="#000" opacity="1">2025-09-26</text><text text-anchor="end" transform="translate(752.875,7) rotate(315) translate(0,9)" font-family="Segoe UI" font-size="11px" fill="#000" opacity="0">2025-09-27</text><text text-anchor="end" transform="translate(792.5,7) rotate(315) translate(0,9)" font-family="Segoe UI" font-size="11px" fill="#000" opacity="1">2025-09-28</text><text text-anchor="end" transform="translate(832.125,7) rotate(315) translate(0,9)" font-family="Segoe UI" font-size="11px" fill="#000" opacity="0">2025-09-29</text><text text-anchor="end" transform="translate(871.75,7) rotate(315) translate(0,9)" font-family="Segoe UI" font-size="11px" fill="#000" opacity="1">2025-09-30</text><text text-anchor="end" transform="translate(911.375,7) rotate(315) translate(0,9)" font-family="Segoe UI" font-size="11px" fill="#000" opacity="0">2025-10-01</text><text text-anchor="end" transform="translate(951,7) rotate(315) translate(0,9)" font-family="Segoe UI" font-size="11px" fill="#000" opacity="1">2025-10-02</text><text text-anchor="end" transform="translate(990.625,7) rotate(315) translate(0,9)" font-family="Segoe UI" font-size="11px" fill="#000" opacity="0">2025-10-03</text><text text-anchor="end" transform="translate(1030.25,7) rotate(315) translate(0,9)" font-family="Segoe UI" font-size="11px" fill="#000" opacity="1">2025-10-04</text><text text-anchor="end" transform="translate(1069.875,7) rotate(315) translate(0,9)" font-family="Segoe UI" font-size="11px" fill="#000" opacity="0">2025-10-05</text><text text-anchor="end" transform="translate(1109.5,7) rotate(315) translate(0,9)" font-family="Segoe UI" font-size="11px" fill="#000" opacity="1">2025-10-06</text><text text-anchor="end" transform="translate(1149.125,7) rotate(315) translate(0,9)" font-family="Segoe UI" font-size="11px" fill="#000" opacity="0">2025-10-07</text><text text-anchor="end" transform="translate(1188.75,7) rotate(315) translate(0,9)" font-family="Segoe UI" font-size="11px" fill="#000" opacity="1">2025-10-08</text><text text-anchor="end" transform="translate(1228.375,7) rotate(315) translate(0,9)" font-family="Segoe UI" font-size="11px" fill="#000" opacity="0">2025-10-09</text><text text-anchor="end" transform="translate(1268,7) rotate(315) translate(0,9)" font-family="Segoe UI" font-size="11px" fill="#000" opacity="1">2025-10-10</text></g><g class="mark-rule role-axis-domain" pointer-events="none"><line transform="translate(0,0)" x2="1268" y2="0" stroke="#888" stroke-width="1" opacity="1"/></g><g class="mark-text role-axis-title" pointer-events="none"><text text-anchor="middle" transform="translate(634,73.97776587171091)" font-family="Segoe UI" font-size="13px" font-weight="bold" fill="#000" opacity="1">Date</text></g></g><path class="foreground" aria-hidden="true" d="" pointer-events="none" display="none"/></g></g><g class="mark-group role-axis" role="graphics-symbol" aria-roledescription="axis" aria-label="Y-axis titled 'Unique server names' for a linear scale with values from 0 to 55"><g transform="translate(0.5,0.5)"><path class="background" aria-hidden="true" d="M0,0h0v0h0Z" pointer-events="none"/><g><g class="mark-rule role-axis-tick" pointer-events="none"><line transform="translate(0,480)" x2="-5" y2="0" stroke="#bbb" stroke-width="1" opacity="1"/><line transform="translate(0,436)" x2="-5" y2="0" stroke="#bbb" stroke-width="1" opacity="1"/><line transform="translate(0,393)" x2="-5" y2="0" stroke="#bbb" stroke-width="1" opacity="1"/><line transform="translate(0,349)" x2="-5" y2="0" stroke="#bbb" stroke-width="1" opacity="1"/><line transform="translate(0,305)" x2="-5" y2="0" stroke="#bbb" stroke-width="1" opacity="1"/><line transform="translate(0,262)" x2="-5" y2="0" stroke="#bbb" stroke-width="1" opacity="1"/><line transform="translate(0,218)" x2="-5" y2="0" stroke="#bbb" stroke-width="1" opacity="1"/><line transform="translate(0,175)" x2="-5" y2="0" stroke="#bbb" stroke-width="1" opacity="1"/><line transform="translate(0,131)" x2="-5" y2="0" stroke="#bbb" stroke-width="1" opacity="1"/><line transform="translate(0,87)" x2="-5" y2="0" stroke="#bbb" stroke-width="1" opacity="1"/><line transform="translate(0,44)" x2="-5" y2="0" stroke="#bbb" stroke-width="1" opacity="1"/><line transform="translate(0,0)" x2="-5" y2="0" stroke="#bbb" stroke-width="1" opacity="1"/></g><g class="mark-text role-axis-label" pointer-events="none"><text text-anchor="end" transform="translate(-7,483)" font-family="Segoe UI" font-size="11px" fill="#000" opacity="1">0</text><text text-anchor="end" transform="translate(-7,439.3636363636364)" font-family="Segoe UI" font-size="11px" fill="#000" opacity="1">5</text><text text-anchor="end" transform="translate(-7,395.7272727272727)" font-family="Segoe UI" font-size="11px" fill="#000" opacity="1">10</text><text text-anchor="end" transform="translate(-7,352.0909090909091)" font-family="Segoe UI" font-size="11px" fill="#000" opacity="1">15</text><text text-anchor="end" transform="translate(-7,308.45454545454544)" font-family="Segoe UI" font-size="11px" fill="#000" opacity="1">20</text><text text-anchor="end" transform="translate(-7,264.8181818181818)" font-family="Segoe UI" font-size="11px" fill="#000" opacity="1">25</text><text text-anchor="end" transform="translate(-7,221.1818181818182)" font-family="Segoe UI" font-size="11px" fill="#000" opacity="1">30</text><text text-anchor="end" transform="translate(-7,177.54545454545456)" font-family="Segoe UI" font-size="11px" fill="#000" opacity="1">35</text><text text-anchor="end" transform="translate(-7,133.9090909090909)" font-family="Segoe UI" font-size="11px" fill="#000" opacity="1">40</text><text text-anchor="end" transform="translate(-7,90.27272727272725)" font-family="Segoe UI" font-size="11px" fill="#000" opacity="1">45</text><text text-anchor="end" transform="translate(-7,46.636363636363654)" font-family="Segoe UI" font-size="11px" fill="#000" opacity="1">50</text><text text-anchor="end" transform="translate(-7,3)" font-family="Segoe UI" font-size="11px" fill="#000" opacity="1">55</text></g><g class="mark-rule role-axis-domain" pointer-events="none"><line transform="translate(0,480)" x2="0" y2="-480" stroke="#888" stroke-width="1" opacity="1"/></g><g class="mark-text role-axis-title" pointer-events="none"><text text-anchor="middle" transform="translate(-24.99609375,240) rotate(-90) translate(0,-3)" font-family="Segoe UI" font-size="13px" font-weight="bold" fill="#000" opacity="1">Unique server names</text></g></g><path class="foreground" aria-hidden="true" d="" pointer-events="none" display="none"/></g></g><g class="mark-area role-mark layer_0_marks" role="graphics-object" aria-roledescription="area mark container" pointer-events="none"><path aria-label="date: 2025-09-08; count: 1" role="graphics-symbol" aria-roledescription="area mark" d="M0,471.273C13.208,240,26.417,8.727,39.625,8.727C52.833,8.727,66.042,17.455,79.25,34.909C92.458,52.364,105.667,142.545,118.875,165.818C132.083,189.091,145.292,177.455,158.5,200.727C171.708,224,184.917,293.818,198.125,305.455C211.333,317.091,224.542,322.909,237.75,322.909C250.958,322.909,264.167,273.455,277.375,261.818C290.583,250.182,303.792,256,317,244.364C330.208,232.727,343.417,151.273,356.625,139.636C369.833,128,383.042,122.182,396.25,122.182C409.458,122.182,422.667,212.364,435.875,235.636C449.083,258.909,462.292,251.636,475.5,270.545C488.708,289.455,501.917,349.091,515.125,349.091C528.333,349.091,541.542,343.273,554.75,340.364C567.958,337.455,581.167,334.545,594.375,331.636C607.583,328.727,620.792,322.909,634,322.909C647.208,322.909,660.417,384,673.625,384C686.833,384,700.042,261.818,713.25,261.818C726.458,261.818,739.667,418.909,752.875,418.909C766.083,418.909,779.292,398.545,792.5,357.818C805.708,317.091,818.917,148.364,832.125,148.364C845.333,148.364,858.542,202.182,871.75,244.364C884.958,286.545,898.167,401.455,911.375,401.455C924.583,401.455,937.792,165.818,951,165.818C964.208,165.818,977.417,253.091,990.625,253.091C1003.833,253.091,1017.042,253.091,1030.25,253.091C1043.458,253.091,1056.667,340.364,1069.875,340.364C1083.083,340.364,1096.292,327.273,1109.5,305.455C1122.708,283.636,1135.917,209.455,1149.125,209.455C1162.333,209.455,1175.542,229.818,1188.75,253.091C1201.958,276.364,1215.167,349.091,1228.375,349.091C1241.583,349.091,1254.792,349.091,1268,349.091L1268,480C1254.792,480,1241.583,480,1228.375,480C1215.167,480,1201.958,480,1188.75,480C1175.542,480,1162.333,480,1149.125,480C1135.917,480,1122.708,480,1109.5,480C1096.292,480,1083.083,480,1069.875,480C1056.667,480,1043.458,480,1030.25,480C1017.042,480,1003.833,480,990.625,480C977.417,480,964.208,480,951,480C937.792,480,924.583,480,911.375,480C898.167,480,884.958,480,871.75,480C858.542,480,845.333,480,832.125,480C818.917,480,805.708,480,792.5,480C779.292,480,766.083,480,752.875,480C739.667,480,726.458,480,713.25,480C700.042,480,686.833,480,673.625,480C660.417,480,647.208,480,634,480C620.792,480,607.583,480,594.375,480C581.167,480,567.958,480,554.75,480C541.542,480,528.333,480,515.125,480C501.917,480,488.708,480,475.5,480C462.292,480,449.083,480,435.875,480C422.667,480,409.458,480,396.25,480C383.042,480,369.833,480,356.625,480C343.417,480,330.208,480,317,480C303.792,480,290.583,480,277.375,480C264.167,480,250.958,480,237.75,480C224.542,480,211.333,480,198.125,480C184.917,480,171.708,480,158.5,480C145.292,480,132.083,480,118.875,480C105.667,480,92.458,480,79.25,480C66.042,480,52.833,480,39.625,480C26.417,480,13.208,480,0,480Z" fill="#4e79a7" opacity="0.18"/></g><g class="mark-line role-mark layer_1_marks" role="graphics-object" aria-roledescription="line mark container" pointer-events="none"><path aria-label="date: Sep 08, 2025; count: 1" role="graphics-symbol" aria-roledescription="line mark" d="M0,471.273C13.208,240,26.417,8.727,39.625,8.727C52.833,8.727,66.042,17.455,79.25,34.909C92.458,52.364,105.667,142.545,118.875,165.818C132.083,189.091,145.292,177.455,158.5,200.727C171.708,224,184.917,293.818,198.125,305.455C211.333,317.091,224.542,322.909,237.75,322.909C250.958,322.909,264.167,273.455,277.375,261.818C290.583,250.182,303.792,256,317,244.364C330.208,232.727,343.417,151.273,356.625,139.636C369.833,128,383.042,122.182,396.25,122.182C409.458,122.182,422.667,212.364,435.875,235.636C449.083,258.909,462.292,251.636,475.5,270.545C488.708,289.455,501.917,349.091,515.125,349.091C528.333,349.091,541.542,343.273,554.75,340.364C567.958,337.455,581.167,334.545,594.375,331.636C607.583,328.727,620.792,322.909,634,322.909C647.208,322.909,660.417,384,673.625,384C686.833,384,700.042,261.818,713.25,261.818C726.458,261.818,739.667,418.909,752.875,418.909C766.083,418.909,779.292,398.545,792.5,357.818C805.708,317.091,818.917,148.364,832.125,148.364C845.333,148.364,858.542,202.182,871.75,244.364C884.958,286.545,898.167,401.455,911.375,401.455C924.583,401.455,937.792,165.818,951,165.818C964.208,165.818,977.417,253.091,990.625,253.091C1003.833,253.091,1017.042,253.091,1030.25,253.091C1043.458,253.091,1056.667,340.364,1069.875,340.364C1083.083,340.364,1096.292,327.273,1109.5,305.455C1122.708,283.636,1135.917,209.455,1149.125,209.455C1162.333,209.455,1175.542,229.818,1188.75,253.091C1201.958,276.364,1215.167,349.091,1228.375,349.091C1241.583,349.091,1254.792,349.091,1268,349.091" stroke="#4e79a7" stroke-width="2"/></g><g class="mark-line role-mark layer_2_marks" role="graphics-object" aria-roledescription="line mark container" pointer-events="none"><path aria-label="date: Sep 08, 2025; ma7: 1" role="graphics-symbol" aria-roledescription="line mark" d="M0,471.273C13.208,378.424,26.417,285.576,39.625,240C52.833,194.424,66.042,172.606,79.25,171.636C92.458,170.667,105.667,170.182,118.875,170.182C132.083,170.182,145.292,172.218,158.5,176.291C171.708,180.364,184.917,191.252,198.125,197.818C211.333,204.384,224.542,215.688,237.75,215.688C250.958,215.688,264.167,185.766,277.375,185.766C290.583,185.766,303.792,211.325,317,219.429C330.208,227.532,343.417,234.39,356.625,234.39C369.833,234.39,383.042,228.156,396.25,228.156C409.458,228.156,422.667,233.143,435.875,233.143C449.083,233.143,462.292,228.156,475.5,228.156C488.708,228.156,501.917,229.403,515.125,231.896C528.333,234.39,541.542,239.169,554.75,243.117C567.958,247.065,581.167,249.143,594.375,255.584C607.583,262.026,620.792,271.169,634,281.766C647.208,292.364,660.417,316.675,673.625,319.169C686.833,321.662,700.042,320.416,713.25,322.909C726.458,325.403,739.667,343.273,752.875,344.104C766.083,344.935,779.292,345.351,792.5,345.351C805.708,345.351,818.917,324.571,832.125,317.922C845.333,311.273,858.542,305.455,871.75,305.455C884.958,305.455,898.167,316.675,911.375,316.675C924.583,316.675,937.792,286.338,951,285.506C964.208,284.675,977.417,285.091,990.625,284.26C1003.833,283.429,1017.042,262.234,1030.25,260.571C1043.458,258.909,1056.667,258.078,1069.875,258.078C1083.083,258.078,1096.292,280.519,1109.5,280.519C1122.708,280.519,1135.917,278.857,1149.125,275.532C1162.333,272.208,1175.542,254.338,1188.75,254.338C1201.958,254.338,1215.167,273.87,1228.375,280.519C1241.583,287.169,1254.792,290.701,1268,294.234" stroke="#d62728" stroke-width="2" stroke-dasharray="6,4"/></g><g class="mark-symbol role-mark layer_3_marks" role="graphics-object" aria-roledescription="symbol mark container"><path aria-label="date: Sep 08, 2025; count: 1; Date: Sep 08, 2025; Daily unique: 1; 7d avg: 1" role="graphics-symbol" aria-roledescription="point" transform="translate(0,471.27272727272725)" d="M3.536,0A3.536,3.536,0,1,1,-3.536,0A3.536,3.536,0,1,1,3.536,0" fill="#4e79a7" stroke-width="2" opacity="0.55"/><path aria-label="date: Sep 09, 2025; count: 54; Date: Sep 09, 2025; Daily unique: 54; 7d avg: 27.5" role="graphics-symbol" aria-roledescription="point" transform="translate(39.625,8.72727272727273)" d="M3.536,0A3.536,3.536,0,1,1,-3.536,0A3.536,3.536,0,1,1,3.536,0" fill="#4e79a7" stroke-width="2" opacity="0.55"/><path aria-label="date: Sep 10, 2025; count: 51; Date: Sep 10, 2025; Daily unique: 51; 7d avg: 35.3333333333" role="graphics-symbol" aria-roledescription="point" transform="translate(79.25,34.90909090909092)" d="M3.536,0A3.536,3.536,0,1,1,-3.536,0A3.536,3.536,0,1,1,3.536,0" fill="#4e79a7" stroke-width="2" opacity="0.55"/><path aria-label="date: Sep 11, 2025; count: 36; Date: Sep 11, 2025; Daily unique: 36; 7d avg: 35.5" role="graphics-symbol" aria-roledescription="point" transform="translate(118.875,165.8181818181818)" d="M3.536,0A3.536,3.536,0,1,1,-3.536,0A3.536,3.536,0,1,1,3.536,0" fill="#4e79a7" stroke-width="2" opacity="0.55"/><path aria-label="date: Sep 12, 2025; count: 32; Date: Sep 12, 2025; Daily unique: 32; 7d avg: 34.8" role="graphics-symbol" aria-roledescription="point" transform="translate(158.5,200.72727272727275)" d="M3.536,0A3.536,3.536,0,1,1,-3.536,0A3.536,3.536,0,1,1,3.536,0" fill="#4e79a7" stroke-width="2" opacity="0.55"/><path aria-label="date: Sep 13, 2025; count: 20; Date: Sep 13, 2025; Daily unique: 20; 7d avg: 32.3333333333" role="graphics-symbol" aria-roledescription="point" transform="translate(198.125,305.45454545454544)" d="M3.536,0A3.536,3.536,0,1,1,-3.536,0A3.536,3.536,0,1,1,3.536,0" fill="#4e79a7" stroke-width="2" opacity="0.55"/><path aria-label="date: Sep 14, 2025; count: 18; Date: Sep 14, 2025; Daily unique: 18; 7d avg: 30.2857142857" role="graphics-symbol" aria-roledescription="point" transform="translate(237.75,322.90909090909093)" d="M3.536,0A3.536,3.536,0,1,1,-3.536,0A3.536,3.536,0,1,1,3.536,0" fill="#4e79a7" stroke-width="2" opacity="0.55"/><path aria-label="date: Sep 15, 2025; count: 25; Date: Sep 15, 2025; Daily unique: 25; 7d avg: 33.7142857143" role="graphics-symbol" aria-roledescription="point" transform="translate(277.375,261.8181818181818)" d="M3.536,0A3.536,3.536,0,1,1,-3.536,0A3.536,3.536,0,1,1,3.536,0" fill="#4e79a7" stroke-width="2" opacity="0.55"/><path aria-label="date: Sep 16, 2025; count: 27; Date: Sep 16, 2025; Daily unique: 27; 7d avg: 29.8571428571" role="graphics-symbol" aria-roledescription="point" transform="translate(317,244.36363636363635)" d="M3.536,0A3.536,3.536,0,1,1,-3.536,0A3.536,3.536,0,1,1,3.536,0" fill="#4e79a7" stroke-width="2" opacity="0.55"/><path aria-label="date: Sep 17, 2025; count: 39; Date: Sep 17, 2025; Daily unique: 39; 7d avg: 28.1428571429" role="graphics-symbol" aria-roledescription="point" transform="translate(356.625,139.63636363636363)" d="M3.536,0A3.536,3.536,0,1,1,-3.536,0A3.536,3.536,0,1,1,3.536,0" fill="#4e79a7" stroke-width="2" opacity="0.55"/><path aria-label="date: Sep 18, 2025; count: 41; Date: Sep 18, 2025; Daily unique: 41; 7d avg: 28.8571428571" role="graphics-symbol" aria-roledescription="point" transform="translate(396.25,122.18181818181817)" d="M3.536,0A3.536,3.536,0,1,1,-3.536,0A3.536,3.536,0,1,1,3.536,0" fill="#4e79a7" stroke-width="2" opacity="0.55"/><path aria-label="date: Sep 19, 2025; count: 28; Date: Sep 19, 2025; Daily unique: 28; 7d avg: 28.2857142857" role="graphics-symbol" aria-roledescription="point" transform="translate(435.875,235.63636363636365)" d="M3.536,0A3.536,3.536,0,1,1,-3.536,0A3.536,3.536,0,1,1,3.536,0" fill="#4e79a7" stroke-width="2" opacity="0.55"/><path aria-label="date: Sep 20, 2025; count: 24; Date: Sep 20, 2025; Daily unique: 24; 7d avg: 28.8571428571" role="graphics-symbol" aria-roledescription="point" transform="translate(475.5,270.54545454545456)" d="M3.536,0A3.536,3.536,0,1,1,-3.536,0A3.536,3.536,0,1,1,3.536,0" fill="#4e79a7" stroke-width="2" opacity="0.55"/><path aria-label="date: Sep 21, 2025; count: 15; Date: Sep 21, 2025; Daily unique: 15; 7d avg: 28.4285714286" role="graphics-symbol" aria-roledescription="point" transform="translate(515.125,349.0909090909091)" d="M3.536,0A3.536,3.536,0,1,1,-3.536,0A3.536,3.536,0,1,1,3.536,0" fill="#4e79a7" stroke-width="2" opacity="0.55"/><path aria-label="date: Sep 22, 2025; count: 16; Date: Sep 22, 2025; Daily unique: 16; 7d avg: 27.1428571429" role="graphics-symbol" aria-roledescription="point" transform="translate(554.75,340.3636363636364)" d="M3.536,0A3.536,3.536,0,1,1,-3.536,0A3.536,3.536,0,1,1,3.536,0" fill="#4e79a7" stroke-width="2" opacity="0.55"/><path aria-label="date: Sep 23, 2025; count: 17; Date: Sep 23, 2025; Daily unique: 17; 7d avg: 25.7142857143" role="graphics-symbol" aria-roledescription="point" transform="translate(594.375,331.6363636363636)" d="M3.536,0A3.536,3.536,0,1,1,-3.536,0A3.536,3.536,0,1,1,3.536,0" fill="#4e79a7" stroke-width="2" opacity="0.55"/><path aria-label="date: Sep 24, 2025; count: 18; Date: Sep 24, 2025; Daily unique: 18; 7d avg: 22.7142857143" role="graphics-symbol" aria-roledescription="point" transform="translate(634,322.90909090909093)" d="M3.536,0A3.536,3.536,0,1,1,-3.536,0A3.536,3.536,0,1,1,3.536,0" fill="#4e79a7" stroke-width="2" opacity="0.55"/><path aria-label="date: Sep 25, 2025; count: 11; Date: Sep 25, 2025; Daily unique: 11; 7d avg: 18.4285714286" role="graphics-symbol" aria-roledescription="point" transform="translate(673.625,384)" d="M3.536,0A3.536,3.536,0,1,1,-3.536,0A3.536,3.536,0,1,1,3.536,0" fill="#4e79a7" stroke-width="2" opacity="0.55"/><path aria-label="date: Sep 26, 2025; count: 25; Date: Sep 26, 2025; Daily unique: 25; 7d avg: 18" role="graphics-symbol" aria-roledescription="point" transform="translate(713.25,261.8181818181818)" d="M3.536,0A3.536,3.536,0,1,1,-3.536,0A3.536,3.536,0,1,1,3.536,0" fill="#4e79a7" stroke-width="2" opacity="0.55"/><path aria-label="date: Sep 27, 2025; count: 7; Date: Sep 27, 2025; Daily unique: 7; 7d avg: 15.5714285714" role="graphics-symbol" aria-roledescription="point" transform="translate(752.875,418.90909090909093)" d="M3.536,0A3.536,3.536,0,1,1,-3.536,0A3.536,3.536,0,1,1,3.536,0" fill="#4e79a7" stroke-width="2" opacity="0.55"/><path aria-label="date: Sep 28, 2025; count: 14; Date: Sep 28, 2025; Daily unique: 14; 7d avg: 15.4285714286" role="graphics-symbol" aria-roledescription="point" transform="translate(792.5,357.8181818181818)" d="M3.536,0A3.536,3.536,0,1,1,-3.536,0A3.536,3.536,0,1,1,3.536,0" fill="#4e79a7" stroke-width="2" opacity="0.55"/><path aria-label="date: Sep 29, 2025; count: 38; Date: Sep 29, 2025; Daily unique: 38; 7d avg: 18.5714285714" role="graphics-symbol" aria-roledescription="point" transform="translate(832.125,148.36363636363637)" d="M3.536,0A3.536,3.536,0,1,1,-3.536,0A3.536,3.536,0,1,1,3.536,0" fill="#4e79a7" stroke-width="2" opacity="0.55"/><path aria-label="date: Sep 30, 2025; count: 27; Date: Sep 30, 2025; Daily unique: 27; 7d avg: 20" role="graphics-symbol" aria-roledescription="point" transform="translate(871.75,244.36363636363635)" d="M3.536,0A3.536,3.536,0,1,1,-3.536,0A3.536,3.536,0,1,1,3.536,0" fill="#4e79a7" stroke-width="2" opacity="0.55"/><path aria-label="date: Oct 01, 2025; count: 9; Date: Oct 01, 2025; Daily unique: 9; 7d avg: 18.7142857143" role="graphics-symbol" aria-roledescription="point" transform="translate(911.375,401.4545454545455)" d="M3.536,0A3.536,3.536,0,1,1,-3.536,0A3.536,3.536,0,1,1,3.536,0" fill="#4e79a7" stroke-width="2" opacity="0.55"/><path aria-label="date: Oct 02, 2025; count: 36; Date: Oct 02, 2025; Daily unique: 36; 7d avg: 22.2857142857" role="graphics-symbol" aria-roledescription="point" transform="translate(951,165.8181818181818)" d="M3.536,0A3.536,3.536,0,1,1,-3.536,0A3.536,3.536,0,1,1,3.536,0" fill="#4e79a7" stroke-width="2" opacity="0.55"/><path aria-label="date: Oct 03, 2025; count: 26; Date: Oct 03, 2025; Daily unique: 26; 7d avg: 22.4285714286" role="graphics-symbol" aria-roledescription="point" transform="translate(990.625,253.09090909090912)" d="M3.536,0A3.536,3.536,0,1,1,-3.536,0A3.536,3.536,0,1,1,3.536,0" fill="#4e79a7" stroke-width="2" opacity="0.55"/><path aria-label="date: Oct 04, 2025; count: 26; Date: Oct 04, 2025; Daily unique: 26; 7d avg: 25.1428571429" role="graphics-symbol" aria-roledescription="point" transform="translate(1030.25,253.09090909090912)" d="M3.536,0A3.536,3.536,0,1,1,-3.536,0A3.536,3.536,0,1,1,3.536,0" fill="#4e79a7" stroke-width="2" opacity="0.55"/><path aria-label="date: Oct 05, 2025; count: 16; Date: Oct 05, 2025; Daily unique: 16; 7d avg: 25.4285714286" role="graphics-symbol" aria-roledescription="point" transform="translate(1069.875,340.3636363636364)" d="M3.536,0A3.536,3.536,0,1,1,-3.536,0A3.536,3.536,0,1,1,3.536,0" fill="#4e79a7" stroke-width="2" opacity="0.55"/><path aria-label="date: Oct 06, 2025; count: 20; Date: Oct 06, 2025; Daily unique: 20; 7d avg: 22.8571428571" role="graphics-symbol" aria-roledescription="point" transform="translate(1109.5,305.45454545454544)" d="M3.536,0A3.536,3.536,0,1,1,-3.536,0A3.536,3.536,0,1,1,3.536,0" fill="#4e79a7" stroke-width="2" opacity="0.55"/><path aria-label="date: Oct 07, 2025; count: 31; Date: Oct 07, 2025; Daily unique: 31; 7d avg: 23.4285714286" role="graphics-symbol" aria-roledescription="point" transform="translate(1149.125,209.45454545454547)" d="M3.536,0A3.536,3.536,0,1,1,-3.536,0A3.536,3.536,0,1,1,3.536,0" fill="#4e79a7" stroke-width="2" opacity="0.55"/><path aria-label="date: Oct 08, 2025; count: 26; Date: Oct 08, 2025; Daily unique: 26; 7d avg: 25.8571428571" role="graphics-symbol" aria-roledescription="point" transform="translate(1188.75,253.09090909090912)" d="M3.536,0A3.536,3.536,0,1,1,-3.536,0A3.536,3.536,0,1,1,3.536,0" fill="#4e79a7" stroke-width="2" opacity="0.55"/><path aria-label="date: Oct 09, 2025; count: 15; Date: Oct 09, 2025; Daily unique: 15; 7d avg: 22.8571428571" role="graphics-symbol" aria-roledescription="point" transform="translate(1228.375,349.0909090909091)" d="M3.536,0A3.536,3.536,0,1,1,-3.536,0A3.536,3.536,0,1,1,3.536,0" fill="#4e79a7" stroke-width="2" opacity="0.55"/><path aria-label="date: Oct 10, 2025; count: 15; Date: Oct 10, 2025; Daily unique: 15; 7d avg: 21.2857142857" role="graphics-symbol" aria-roledescription="point" transform="translate(1268,349.0909090909091)" d="M3.536,0A3.536,3.536,0,1,1,-3.536,0A3.536,3.536,0,1,1,3.536,0" fill="#4e79a7" stroke-width="2" opacity="0.55"/></g><g class="mark-path role-mark layer_3_voronoi" aria-hidden="true"><path transform="translate(0,0)" d="M0,295.4139185521509L29.707271696918994,306.97521949044966L32.13672002750313,308.39852028493004L155.53731970651393,455.8416024808972L170.61293570925773,480L0,480Z" stroke-width="0.35"/><path transform="translate(0,0)" d="M73.85364307688303,0L0,111.77415512547348L0,0Z" stroke-width="0.35"/><path transform="translate(0,0)" d="M250.88868417573246,0L227.6957671960453,61.427507655944524L0,130.34896079940026L0,111.77415512547348L73.85364307688303,0Z" stroke-width="0.35"/><path transform="translate(0,0)" d="M229.7330704159461,79.92770642624167L29.707271696918994,306.97521949044966L0,295.4139185521509L0,130.34896079940026L227.6957671960453,61.427507655944524Z" stroke-width="0.35"/><path transform="translate(0,0)" d="M213.58312047749232,239.74578608689262L32.13672002750313,308.39852028493004L29.707271696918994,306.97521949044966L229.7330704159461,79.92770642624167L254.47630851278774,160.17293637758723Z" stroke-width="0.35"/><path transform="translate(0,0)" d="M213.58312047749232,239.74578608689262L234.21809270653193,277.221904921612L155.53731970651393,455.8416024808972L32.13672002750313,308.39852028493004Z" stroke-width="0.35"/><path transform="translate(0,0)" d="M372.3362491371112,379.4494063855264L362.84513652751036,480L170.61293570925773,480L155.53731970651393,455.8416024808972L234.21809270653193,277.221904921612L337.25662036916344,344.055116595644Z" stroke-width="0.35"/><path transform="translate(0,0)" d="M256.9703395077821,161.79062352035982L337.25662036916344,344.055116595644L234.21809270653193,277.221904921612L213.58312047749232,239.74578608689262L254.47630851278774,160.17293637758723Z" stroke-width="0.35"/><path transform="translate(0,0)" d="M377.8082972587674,369.09728409808315L372.3362491371112,379.4494063855264L337.25662036916344,344.055116595644L256.9703395077821,161.79062352035982L373.9450125978123,206.04959542410714L383.42080111242353,335.12019913680075Z" stroke-width="0.35"/><path transform="translate(0,0)" d="M318.7729276924681,0L400.0453529777268,184.50322068339645L373.9450125978123,206.04959542410714L256.9703395077821,161.79062352035982L254.47630851278774,160.17293637758723L229.7330704159461,79.92770642624167L227.6957671960453,61.427507655944524L250.88868417573246,0Z" stroke-width="0.35"/><path transform="translate(0,0)" d="M567.697651703441,125.94917764888471L400.0453529777268,184.50322068339645L318.7729276924681,0L622.3129624615158,0L619.6268976842215,44.717615739010185L588.8133391558256,114.67001065340911Z" stroke-width="0.35"/><path transform="translate(0,0)" d="M567.697651703441,125.94917764888471L383.42080111242353,335.12019913680075L373.9450125978123,206.04959542410714L400.0453529777268,184.50322068339645Z" stroke-width="0.35"/><path transform="translate(0,0)" d="M586.3759799384728,200.9982865767044L557.2929732512971,257.5900523792614L524.0552513230962,295.31789624763263L377.8082972587674,369.09728409808315L383.42080111242353,335.12019913680075L567.697651703441,125.94917764888471L588.8133391558256,114.67001065340911L591.4216300153818,185.72555930397732Z" stroke-width="0.35"/><path transform="translate(0,0)" d="M362.84513652751036,480L372.3362491371112,379.4494063855264L377.8082972587674,369.09728409808315L524.0552513230962,295.31789624763263L564.7308623588916,480Z" stroke-width="0.35"/><path transform="translate(0,0)" d="M557.2929732512971,257.5900523792614L593.0259107692208,419.830616344105L570.9390707693511,480L564.7308623588916,480L524.0552513230962,295.31789624763263Z" stroke-width="0.35"/><path transform="translate(0,0)" d="M586.3759799384728,200.9982865767044L624.186275076909,372.6708115086411L593.0259107692208,419.830616344105L557.2929732512971,257.5900523792614Z" stroke-width="0.35"/><path transform="translate(0,0)" d="M698.415989367434,324.5236735378337L624.186275076909,372.6708115086411L586.3759799384728,200.9982865767044L591.4216300153818,185.72555930397732Z" stroke-width="0.35"/><path transform="translate(0,0)" d="M698.415989367434,324.5236735378337L724.7255203392822,333.05616372559734L730.9433556239192,361.2874028369634L678.6512566154809,480L570.9390707693511,480L593.0259107692208,419.830616344105L624.186275076909,372.6708115086411Z" stroke-width="0.35"/><path transform="translate(0,0)" d="M698.415989367434,324.5236735378337L591.4216300153818,185.72555930397732L588.8133391558256,114.67001065340911L619.6268976842215,44.717615739010185L789.1088522898717,222.29681517107215L794.9243290555396,275.1055846551452L724.7255203392822,333.05616372559734Z" stroke-width="0.35"/><path transform="translate(0,0)" d="M678.6512566154809,480L730.9433556239192,361.2874028369634L834.109602524662,428.203456211757L839.8136096410043,480Z" stroke-width="0.35"/><path transform="translate(0,0)" d="M724.7255203392822,333.05616372559734L794.9243290555396,275.1055846551452L870.8422787754464,328.1356108316906L834.109602524662,428.203456211757L730.9433556239192,361.2874028369634Z" stroke-width="0.35"/><path transform="translate(0,0)" d="M789.1088522898717,222.29681517107215L619.6268976842215,44.717615739010185L622.3129624615158,0L914.6283289230128,0L887.9804648833917,181.48652716046553Z" stroke-width="0.35"/><path transform="translate(0,0)" d="M870.8422787754464,328.1356108316906L794.9243290555396,275.1055846551452L789.1088522898717,222.29681517107215L887.9804648833917,181.48652716046553L932.8037709814241,226.71189416389106L926.3862864383318,314.1250527645262Z" stroke-width="0.35"/><path transform="translate(0,0)" d="M839.8136096410043,480L834.109602524662,428.203456211757L870.8422787754464,328.1356108316906L926.3862864383318,314.1250527645262L979.7188762203818,342.613217680275L1032.672083974242,480Z" stroke-width="0.35"/><path transform="translate(0,0)" d="M1091.3887768203979,0L1058.9151487179654,147.44211092862218L1010.4375,191.46335079308713L932.8037709814241,226.71189416389106L887.9804648833917,181.48652716046553L914.6283289230128,0Z" stroke-width="0.35"/><path transform="translate(0,0)" d="M932.8037709814241,226.71189416389106L1010.4375,191.46335079308713L1010.4375,314.7184673887311L979.7188762203818,342.613217680275L926.3862864383318,314.1250527645262Z" stroke-width="0.35"/><path transform="translate(0,0)" d="M1010.4375,314.7184673887311L1010.4375,191.46335079308713L1058.9151487179654,147.44211092862218L1093.9385767032652,242.8535901354505L1061.8904793407053,291.3569388781791Z" stroke-width="0.35"/><path transform="translate(0,0)" d="M1010.4375,314.7184673887311L1061.8904793407053,291.3569388781791L1146.7593543589712,387.6908474682486L1141.6766594102771,480L1032.672083974242,480L979.7188762203818,342.613217680275Z" stroke-width="0.35"/><path transform="translate(0,0)" d="M1061.8904793407053,291.3569388781791L1093.9385767032652,242.8535901354505L1136.732490769286,260.51722393613875L1173.1885767032652,315.6918644100041L1146.7593543589712,387.6908474682486Z" stroke-width="0.35"/><path transform="translate(0,0)" d="M1268,0L1268,141.31675396543574L1136.732490769286,260.51722393613875L1093.9385767032652,242.8535901354505L1058.9151487179654,147.44211092862218L1091.3887768203979,0Z" stroke-width="0.35"/><path transform="translate(0,0)" d="M1268,268.37964607007575L1248.1875,284.73527758049244L1173.1885767032652,315.6918644100041L1136.732490769286,260.51722393613875L1268,141.31675396543574Z" stroke-width="0.35"/><path transform="translate(0,0)" d="M1173.1885767032652,315.6918644100041L1248.1875,284.73527758049244L1248.1875,480L1141.6766594102771,480L1146.7593543589712,387.6908474682486Z" stroke-width="0.35"/><path transform="translate(0,0)" d="M1268,480L1248.1875,480L1248.1875,284.73527758049244L1268,268.37964607007575Z" stroke-width="0.35"/></g><g class="mark-symbol role-mark layer_4_marks" role="graphics-object" aria-roledescription="symbol mark container"><path aria-label="date: Sep 08, 2025; count: 1; Peak date: Sep 08, 2025; Peak unique count: 1" role="graphics-symbol" aria-roledescription="point" transform="translate(0,471.27272727272725)" d="M-5.916,0L0,-5.916L5.916,0L0,5.916Z" fill="#ff9900" stroke="#b36b00" stroke-width="1.5" opacity="0"/><path aria-label="date: Sep 09, 2025; count: 54; Peak date: Sep 09, 2025; Peak unique count: 54" role="graphics-symbol" aria-roledescription="point" transform="translate(39.625,8.72727272727273)" d="M-5.916,0L0,-5.916L5.916,0L0,5.916Z" fill="#ff9900" stroke="#b36b00" stroke-width="1.5" opacity="1"/><path aria-label="date: Sep 10, 2025; count: 51; Peak date: Sep 10, 2025; Peak unique count: 51" role="graphics-symbol" aria-roledescription="point" transform="translate(79.25,34.90909090909092)" d="M-5.916,0L0,-5.916L5.916,0L0,5.916Z" fill="#ff9900" stroke="#b36b00" stroke-width="1.5" opacity="0"/><path aria-label="date: Sep 11, 2025; count: 36; Peak date: Sep 11, 2025; Peak unique count: 36" role="graphics-symbol" aria-roledescription="point" transform="translate(118.875,165.8181818181818)" d="M-5.916,0L0,-5.916L5.916,0L0,5.916Z" fill="#ff9900" stroke="#b36b00" stroke-width="1.5" opacity="0"/><path aria-label="date: Sep 12, 2025; count: 32; Peak date: Sep 12, 2025; Peak unique count: 32" role="graphics-symbol" aria-roledescription="point" transform="translate(158.5,200.72727272727275)" d="M-5.916,0L0,-5.916L5.916,0L0,5.916Z" fill="#ff9900" stroke="#b36b00" stroke-width="1.5" opacity="0"/><path aria-label="date: Sep 13, 2025; count: 20; Peak date: Sep 13, 2025; Peak unique count: 20" role="graphics-symbol" aria-roledescription="point" transform="translate(198.125,305.45454545454544)" d="M-5.916,0L0,-5.916L5.916,0L0,5.916Z" fill="#ff9900" stroke="#b36b00" stroke-width="1.5" opacity="0"/><path aria-label="date: Sep 14, 2025; count: 18; Peak date: Sep 14, 2025; Peak unique count: 18" role="graphics-symbol" aria-roledescription="point" transform="translate(237.75,322.90909090909093)" d="M-5.916,0L0,-5.916L5.916,0L0,5.916Z" fill="#ff9900" stroke="#b36b00" stroke-width="1.5" opacity="0"/><path aria-label="date: Sep 15, 2025; count: 25; Peak date: Sep 15, 2025; Peak unique count: 25" role="graphics-symbol" aria-roledescription="point" transform="translate(277.375,261.8181818181818)" d="M-5.916,0L0,-5.916L5.916,0L0,5.916Z" fill="#ff9900" stroke="#b36b00" stroke-width="1.5" opacity="0"/><path aria-label="date: Sep 16, 2025; count: 27; Peak date: Sep 16, 2025; Peak unique count: 27" role="graphics-symbol" aria-roledescription="point" transform="translate(317,244.36363636363635)" d="M-5.916,0L0,-5.916L5.916,0L0,5.916Z" fill="#ff9900" stroke="#b36b00" stroke-width="1.5" opacity="0"/><path aria-label="date: Sep 17, 2025; count: 39; Peak date: Sep 17, 2025; Peak unique count: 39" role="graphics-symbol" aria-roledescription="point" transform="translate(356.625,139.63636363636363)" d="M-5.916,0L0,-5.916L5.916,0L0,5.916Z" fill="#ff9900" stroke="#b36b00" stroke-width="1.5" opacity="0"/><path aria-label="date: Sep 18, 2025; count: 41; Peak date: Sep 18, 2025; Peak unique count: 41" role="graphics-symbol" aria-roledescription="point" transform="translate(396.25,122.18181818181817)" d="M-5.916,0L0,-5.916L5.916,0L0,5.916Z" fill="#ff9900" stroke="#b36b00" stroke-width="1.5" opacity="0"/><path aria-label="date: Sep 19, 2025; count: 28; Peak date: Sep 19, 2025; Peak unique count: 28" role="graphics-symbol" aria-roledescription="point" transform="translate(435.875,235.63636363636365)" d="M-5.916,0L0,-5.916L5.916,0L0,5.916Z" fill="#ff9900" stroke="#b36b00" stroke-width="1.5" opacity="0"/><path aria-label="date: Sep 20, 2025; count: 24; Peak date: Sep 20, 2025; Peak unique count: 24" role="graphics-symbol" aria-roledescription="point" transform="translate(475.5,270.54545454545456)" d="M-5.916,0L0,-5.916L5.916,0L0,5.916Z" fill="#ff9900" stroke="#b36b00" stroke-width="1.5" opacity="0"/><path aria-label="date: Sep 21, 2025; count: 15; Peak date: Sep 21, 2025; Peak unique count: 15" role="graphics-symbol" aria-roledescription="point" transform="translate(515.125,349.0909090909091)" d="M-5.916,0L0,-5.916L5.916,0L0,5.916Z" fill="#ff9900" stroke="#b36b00" stroke-width="1.5" opacity="0"/><path aria-label="date: Sep 22, 2025; count: 16; Peak date: Sep 22, 2025; Peak unique count: 16" role="graphics-symbol" aria-roledescription="point" transform="translate(554.75,340.3636363636364)" d="M-5.916,0L0,-5.916L5.916,0L0,5.916Z" fill="#ff9900" stroke="#b36b00" stroke-width="1.5" opacity="0"/><path aria-label="date: Sep 23, 2025; count: 17; Peak date: Sep 23, 2025; Peak unique count: 17" role="graphics-symbol" aria-roledescription="point" transform="translate(594.375,331.6363636363636)" d="M-5.916,0L0,-5.916L5.916,0L0,5.916Z" fill="#ff9900" stroke="#b36b00" stroke-width="1.5" opacity="0"/><path aria-label="date: Sep 24, 2025; count: 18; Peak date: Sep 24, 2025; Peak unique count: 18" role="graphics-symbol" aria-roledescription="point" transform="translate(634,322.90909090909093)" d="M-5.916,0L0,-5.916L5.916,0L0,5.916Z" fill="#ff9900" stroke="#b36b00" stroke-width="1.5" opacity="0"/><path aria-label="date: Sep 25, 2025; count: 11; Peak date: Sep 25, 2025; Peak unique count: 11" role="graphics-symbol" aria-roledescription="point" transform="translate(673.625,384)" d="M-5.916,0L0,-5.916L5.916,0L0,5.916Z" fill="#ff9900" stroke="#b36b00" stroke-width="1.5" opacity="0"/><path aria-label="date: Sep 26, 2025; count: 25; Peak date: Sep 26, 2025; Peak unique count: 25" role="graphics-symbol" aria-roledescription="point" transform="translate(713.25,261.8181818181818)" d="M-5.916,0L0,-5.916L5.916,0L0,5.916Z" fill="#ff9900" stroke="#b36b00" stroke-width="1.5" opacity="0"/><path aria-label="date: Sep 27, 2025; count: 7; Peak date: Sep 27, 2025; Peak unique count: 7" role="graphics-symbol" aria-roledescription="point" transform="translate(752.875,418.90909090909093)" d="M-5.916,0L0,-5.916L5.916,0L0,5.916Z" fill="#ff9900" stroke="#b36b00" stroke-width="1.5" opacity="0"/><path aria-label="date: Sep 28, 2025; count: 14; Peak date: Sep 28, 2025; Peak unique count: 14" role="graphics-symbol" aria-roledescription="point" transform="translate(792.5,357.8181818181818)" d="M-5.916,0L0,-5.916L5.916,0L0,5.916Z" fill="#ff9900" stroke="#b36b00" stroke-width="1.5" opacity="0"/><path aria-label="date: Sep 29, 2025; count: 38; Peak date: Sep 29, 2025; Peak unique count: 38" role="graphics-symbol" aria-roledescription="point" transform="translate(832.125,148.36363636363637)" d="M-5.916,0L0,-5.916L5.916,0L0,5.916Z" fill="#ff9900" stroke="#b36b00" stroke-width="1.5" opacity="0"/><path aria-label="date: Sep 30, 2025; count: 27; Peak date: Sep 30, 2025; Peak unique count: 27" role="graphics-symbol" aria-roledescription="point" transform="translate(871.75,244.36363636363635)" d="M-5.916,0L0,-5.916L5.916,0L0,5.916Z" fill="#ff9900" stroke="#b36b00" stroke-width="1.5" opacity="0"/><path aria-label="date: Oct 01, 2025; count: 9; Peak date: Oct 01, 2025; Peak unique count: 9" role="graphics-symbol" aria-roledescription="point" transform="translate(911.375,401.4545454545455)" d="M-5.916,0L0,-5.916L5.916,0L0,5.916Z" fill="#ff9900" stroke="#b36b00" stroke-width="1.5" opacity="0"/><path aria-label="date: Oct 02, 2025; count: 36; Peak date: Oct 02, 2025; Peak unique count: 36" role="graphics-symbol" aria-roledescription="point" transform="translate(951,165.8181818181818)" d="M-5.916,0L0,-5.916L5.916,0L0,5.916Z" fill="#ff9900" stroke="#b36b00" stroke-width="1.5" opacity="0"/><path aria-label="date: Oct 03, 2025; count: 26; Peak date: Oct 03, 2025; Peak unique count: 26" role="graphics-symbol" aria-roledescription="point" transform="translate(990.625,253.09090909090912)" d="M-5.916,0L0,-5.916L5.916,0L0,5.916Z" fill="#ff9900" stroke="#b36b00" stroke-width="1.5" opacity="0"/><path aria-label="date: Oct 04, 2025; count: 26; Peak date: Oct 04, 2025; Peak unique count: 26" role="graphics-symbol" aria-roledescription="point" transform="translate(1030.25,253.09090909090912)" d="M-5.916,0L0,-5.916L5.916,0L0,5.916Z" fill="#ff9900" stroke="#b36b00" stroke-width="1.5" opacity="0"/><path aria-label="date: Oct 05, 2025; count: 16; Peak date: Oct 05, 2025; Peak unique count: 16" role="graphics-symbol" aria-roledescription="point" transform="translate(1069.875,340.3636363636364)" d="M-5.916,0L0,-5.916L5.916,0L0,5.916Z" fill="#ff9900" stroke="#b36b00" stroke-width="1.5" opacity="0"/><path aria-label="date: Oct 06, 2025; count: 20; Peak date: Oct 06, 2025; Peak unique count: 20" role="graphics-symbol" aria-roledescription="point" transform="translate(1109.5,305.45454545454544)" d="M-5.916,0L0,-5.916L5.916,0L0,5.916Z" fill="#ff9900" stroke="#b36b00" stroke-width="1.5" opacity="0"/><path aria-label="date: Oct 07, 2025; count: 31; Peak date: Oct 07, 2025; Peak unique count: 31" role="graphics-symbol" aria-roledescription="point" transform="translate(1149.125,209.45454545454547)" d="M-5.916,0L0,-5.916L5.916,0L0,5.916Z" fill="#ff9900" stroke="#b36b00" stroke-width="1.5" opacity="0"/><path aria-label="date: Oct 08, 2025; count: 26; Peak date: Oct 08, 2025; Peak unique count: 26" role="graphics-symbol" aria-roledescription="point" transform="translate(1188.75,253.09090909090912)" d="M-5.916,0L0,-5.916L5.916,0L0,5.916Z" fill="#ff9900" stroke="#b36b00" stroke-width="1.5" opacity="0"/><path aria-label="date: Oct 09, 2025; count: 15; Peak date: Oct 09, 2025; Peak unique count: 15" role="graphics-symbol" aria-roledescription="point" transform="translate(1228.375,349.0909090909091)" d="M-5.916,0L0,-5.916L5.916,0L0,5.916Z" fill="#ff9900" stroke="#b36b00" stroke-width="1.5" opacity="0"/><path aria-label="date: Oct 10, 2025; count: 15; Peak date: Oct 10, 2025; Peak unique count: 15" role="graphics-symbol" aria-roledescription="point" transform="translate(1268,349.0909090909091)" d="M-5.916,0L0,-5.916L5.916,0L0,5.916Z" fill="#ff9900" stroke="#b36b00" stroke-width="1.5" opacity="0"/></g><g class="mark-rule role-mark layer_5_marks" role="graphics-symbol" aria-roledescription="rule mark container" pointer-events="none"><line transform="translate(1268,267.40363636363634)" x2="-1268" y2="0" stroke="#d62728" stroke-width="1.5" stroke-dasharray="4,4"/><line transform="translate(1268,267.40363636363634)" x2="-1268" y2="0" stroke="#d62728" stroke-width="1.5" stroke-dasharray="4,4"/><line transform="translate(1268,267.40363636363634)" x2="-1268" y2="0" stroke="#d62728" stroke-width="1.5" stroke-dasharray="4,4"/><line transform="translate(1268,267.40363636363634)" x2="-1268" y2="0" stroke="#d62728" stroke-width="1.5" stroke-dasharray="4,4"/><line transform="translate(1268,267.40363636363634)" x2="-1268" y2="0" stroke="#d62728" stroke-width="1.5" stroke-dasharray="4,4"/><line transform="translate(1268,267.40363636363634)" x2="-1268" y2="0" stroke="#d62728" stroke-width="1.5" stroke-dasharray="4,4"/><line transform="translate(1268,267.40363636363634)" x2="-1268" y2="0" stroke="#d62728" stroke-width="1.5" stroke-dasharray="4,4"/><line transform="translate(1268,267.40363636363634)" x2="-1268" y2="0" stroke="#d62728" stroke-width="1.5" stroke-dasharray="4,4"/><line transform="translate(1268,267.40363636363634)" x2="-1268" y2="0" stroke="#d62728" stroke-width="1.5" stroke-dasharray="4,4"/><line transform="translate(1268,267.40363636363634)" x2="-1268" y2="0" stroke="#d62728" stroke-width="1.5" stroke-dasharray="4,4"/><line transform="translate(1268,267.40363636363634)" x2="-1268" y2="0" stroke="#d62728" stroke-width="1.5" stroke-dasharray="4,4"/><line transform="translate(1268,267.40363636363634)" x2="-1268" y2="0" stroke="#d62728" stroke-width="1.5" stroke-dasharray="4,4"/><line transform="translate(1268,267.40363636363634)" x2="-1268" y2="0" stroke="#d62728" stroke-width="1.5" stroke-dasharray="4,4"/><line transform="translate(1268,267.40363636363634)" x2="-1268" y2="0" stroke="#d62728" stroke-width="1.5" stroke-dasharray="4,4"/><line transform="translate(1268,267.40363636363634)" x2="-1268" y2="0" stroke="#d62728" stroke-width="1.5" stroke-dasharray="4,4"/><line transform="translate(1268,267.40363636363634)" x2="-1268" y2="0" stroke="#d62728" stroke-width="1.5" stroke-dasharray="4,4"/><line transform="translate(1268,267.40363636363634)" x2="-1268" y2="0" stroke="#d62728" stroke-width="1.5" stroke-dasharray="4,4"/><line transform="translate(1268,267.40363636363634)" x2="-1268" y2="0" stroke="#d62728" stroke-width="1.5" stroke-dasharray="4,4"/><line transform="translate(1268,267.40363636363634)" x2="-1268" y2="0" stroke="#d62728" stroke-width="1.5" stroke-dasharray="4,4"/><line transform="translate(1268,267.40363636363634)" x2="-1268" y2="0" stroke="#d62728" stroke-width="1.5" stroke-dasharray="4,4"/><line transform="translate(1268,267.40363636363634)" x2="-1268" y2="0" stroke="#d62728" stroke-width="1.5" stroke-dasharray="4,4"/><line transform="translate(1268,267.40363636363634)" x2="-1268" y2="0" stroke="#d62728" stroke-width="1.5" stroke-dasharray="4,4"/><line transform="translate(1268,267.40363636363634)" x2="-1268" y2="0" stroke="#d62728" stroke-width="1.5" stroke-dasharray="4,4"/><line transform="translate(1268,267.40363636363634)" x2="-1268" y2="0" stroke="#d62728" stroke-width="1.5" stroke-dasharray="4,4"/><line transform="translate(1268,267.40363636363634)" x2="-1268" y2="0" stroke="#d62728" stroke-width="1.5" stroke-dasharray="4,4"/><line transform="translate(1268,267.40363636363634)" x2="-1268" y2="0" stroke="#d62728" stroke-width="1.5" stroke-dasharray="4,4"/><line transform="translate(1268,267.40363636363634)" x2="-1268" y2="0" stroke="#d62728" stroke-width="1.5" stroke-dasharray="4,4"/><line transform="translate(1268,267.40363636363634)" x2="-1268" y2="0" stroke="#d62728" stroke-width="1.5" stroke-dasharray="4,4"/><line transform="translate(1268,267.40363636363634)" x2="-1268" y2="0" stroke="#d62728" stroke-width="1.5" stroke-dasharray="4,4"/><line transform="translate(1268,267.40363636363634)" x2="-1268" y2="0" stroke="#d62728" stroke-width="1.5" stroke-dasharray="4,4"/><line transform="translate(1268,267.40363636363634)" x2="-1268" y2="0" stroke="#d62728" stroke-width="1.5" stroke-dasharray="4,4"/><line transform="translate(1268,267.40363636363634)" x2="-1268" y2="0" stroke="#d62728" stroke-width="1.5" stroke-dasharray="4,4"/><line transform="translate(1268,267.40363636363634)" x2="-1268" y2="0" stroke="#d62728" stroke-width="1.5" stroke-dasharray="4,4"/></g><g class="mark-text role-mark layer_6_marks" role="graphics-object" aria-roledescription="text mark container" pointer-events="none"><text aria-label="date: Oct 10, 2025" role="graphics-symbol" aria-roledescription="text mark" text-anchor="start" transform="translate(1274,265.40363636363634)" font-family="sans-serif" font-size="12px" fill="#d62728">Avg: 24.36</text></g></g><path class="foreground" aria-hidden="true" d="" display="none"/></g></g></g></svg>
