<svg xmlns="http://www.w3.org/2000/svg" xmlns:xlink="http://www.w3.org/1999/xlink" version="1.1" class="marks" width="1047" height="591" viewBox="0 0 1047 591"><rect width="1047" height="591" fill="white"/><g fill="none" stroke-miterlimit="10" transform="translate(68,11)"><g class="mark-group role-frame root" role="graphics-object" aria-roledescription="group mark container"><g transform="translate(0,0)"><path class="background" aria-hidden="true" d="M0.5,0.5h872v480h-872Z"/><g><g class="mark-group role-axis" aria-hidden="true"><g transform="translate(0.5,0.5)"><path class="background" aria-hidden="true" d="M0,0h0v0h0Z" pointer-events="none"/><g><g class="mark-rule role-axis-grid" pointer-events="none"><line transform="translate(0,480)" x2="872" y2="0" stroke="#ddd" stroke-width="1" opacity="1"/><line transform="translate(0,436)" x2="872" y2="0" stroke="#ddd" stroke-width="1" opacity="1"/><line transform="translate(0,393)" x2="872" y2="0" stroke="#ddd" stroke-width="1" opacity="1"/><line transform="translate(0,349)" x2="872" y2="0" stroke="#ddd" stroke-width="1" opacity="1"/><line transform="translate(0,305)" x2="872" y2="0" stroke="#ddd" stroke-width="1" opacity="1"/><line transform="translate(0,262)" x2="872" y2="0" stroke="#ddd" stroke-width="1" opacity="1"/><line transform="translate(0,218)" x2="872" y2="0" stroke="#ddd" stroke-width="1" opacity="1"/><line transform="translate(0,175)" x2="872" y2="0" stroke="#ddd" stroke-width="1" opacity="1"/><line transform="translate(0,131)" x2="872" y2="0" stroke="#ddd" stroke-width="1" opacity="1"/><line transform="translate(0,87)" x2="872" y2="0" stroke="#ddd" stroke-width="1" opacity="1"/><line transform="translate(0,44)" x2="872" y2="0" stroke="#ddd" stroke-width="1" opacity="1"/><line transform="translate(0,0)" x2="872" y2="0" stroke="#ddd" stroke-width="1" opacity="1"/></g></g><path class="foreground" aria-hidden="true" d="" pointer-events="none" display="none"/></g></g><g class="mark-group role-axis" role="graphics-symbol" aria-roledescription="axis" aria-label="X-axis titled 'Date' for a time scale with values from 2025-09-08 to 2025-09-29"><g transform="translate(0.5,480.5)"><path class="background" aria-hidden="true" d="M0,0h0v0h0Z" pointer-events="none"/><g><g class="mark-rule role-axis-tick" pointer-events="none"><line transform="translate(0,0)" x2="0" y2="5" stroke="#bbb" stroke-width="1" opacity="1"/><line transform="translate(42,0)" x2="0" y2="5" stroke="#bbb" stroke-width="1" opacity="1"/><line transform="translate(83,0)" x2="0" y2="5" stroke="#bbb" stroke-width="1" opacity="1"/><line transform="translate(125,0)" x2="0" y2="5" stroke="#bbb" stroke-width="1" opacity="1"/><line transform="translate(166,0)" x2="0" y2="5" stroke="#bbb" stroke-width="1" opacity="1"/><line transform="translate(208,0)" x2="0" y2="5" stroke="#bbb" stroke-width="1" opacity="1"/><line transform="translate(249,0)" x2="0" y2="5" stroke="#bbb" stroke-width="1" opacity="1"/><line transform="translate(291,0)" x2="0" y2="5" stroke="#bbb" stroke-width="1" opacity="1"/><line transform="translate(332,0)" x2="0" y2="5" stroke="#bbb" stroke-width="1" opacity="1"/><line transform="translate(374,0)" x2="0" y2="5" stroke="#bbb" stroke-width="1" opacity="1"/><line transform="translate(415,0)" x2="0" y2="5" stroke="#bbb" stroke-width="1" opacity="1"/><line transform="translate(457,0)" x2="0" y2="5" stroke="#bbb" stroke-width="1" opacity="1"/><line transform="translate(498,0)" x2="0" y2="5" stroke="#bbb" stroke-width="1" opacity="1"/><line transform="translate(540,0)" x2="0" y2="5" stroke="#bbb" stroke-width="1" opacity="1"/><line transform="translate(581,0)" x2="0" y2="5" stroke="#bbb" stroke-width="1" opacity="1"/><line transform="translate(623,0)" x2="0" y2="5" stroke="#bbb" stroke-width="1" opacity="1"/><line transform="translate(664,0)" x2="0" y2="5" stroke="#bbb" stroke-width="1" opacity="1"/><line transform="translate(706,0)" x2="0" y2="5" stroke="#bbb" stroke-width="1" opacity="1"/><line transform="translate(747,0)" x2="0" y2="5" stroke="#bbb" stroke-width="1" opacity="1"/><line transform="translate(789,0)" x2="0" y2="5" stroke="#bbb" stroke-width="1" opacity="1"/><line transform="translate(830,0)" x2="0" y2="5" stroke="#bbb" stroke-width="1" opacity="1"/><line transform="translate(872,0)" x2="0" y2="5" stroke="#bbb" stroke-width="1" opacity="1"/></g><g class="mark-text role-axis-label" pointer-events="none"><text text-anchor="end" transform="translate(0,7) rotate(315) translate(0,9)" font-family="Segoe UI" font-size="11px" fill="#000" opacity="1">2025-09-08</text><text text-anchor="end" transform="translate(41.52380952380952,7) rotate(315) translate(0,9)" font-family="Segoe UI" font-size="11px" fill="#000" opacity="0">2025-09-09</text><text text-anchor="end" transform="translate(83.04761904761904,7) rotate(315) translate(0,9)" font-family="Segoe UI" font-size="11px" fill="#000" opacity="1">2025-09-10</text><text text-anchor="end" transform="translate(124.57142857142857,7) rotate(315) translate(0,9)" font-family="Segoe UI" font-size="11px" fill="#000" opacity="0">2025-09-11</text><text text-anchor="end" transform="translate(166.09523809523807,7) rotate(315) translate(0,9)" font-family="Segoe UI" font-size="11px" fill="#000" opacity="1">2025-09-12</text><text text-anchor="end" transform="translate(207.61904761904762,7) rotate(315) translate(0,9)" font-family="Segoe UI" font-size="11px" fill="#000" opacity="0">2025-09-13</text><text text-anchor="end" transform="translate(249.14285714285714,7) rotate(315) translate(0,9)" font-family="Segoe UI" font-size="11px" fill="#000" opacity="1">2025-09-14</text><text text-anchor="end" transform="translate(290.66666666666663,7) rotate(315) translate(0,9)" font-family="Segoe UI" font-size="11px" fill="#000" opacity="0">2025-09-15</text><text text-anchor="end" transform="translate(332.19047619047615,7) rotate(315) translate(0,9)" font-family="Segoe UI" font-size="11px" fill="#000" opacity="1">2025-09-16</text><text text-anchor="end" transform="translate(373.71428571428567,7) rotate(315) translate(0,9)" font-family="Segoe UI" font-size="11px" fill="#000" opacity="0">2025-09-17</text><text text-anchor="end" transform="translate(415.23809523809524,7) rotate(315) translate(0,9)" font-family="Segoe UI" font-size="11px" fill="#000" opacity="1">2025-09-18</text><text text-anchor="end" transform="translate(456.76190476190476,7) rotate(315) translate(0,9)" font-family="Segoe UI" font-size="11px" fill="#000" opacity="0">2025-09-19</text><text text-anchor="end" transform="translate(498.2857142857143,7) rotate(315) translate(0,9)" font-family="Segoe UI" font-size="11px" fill="#000" opacity="1">2025-09-20</text><text text-anchor="end" transform="translate(539.8095238095239,7) rotate(315) translate(0,9)" font-family="Segoe UI" font-size="11px" fill="#000" opacity="0">2025-09-21</text><text text-anchor="end" transform="translate(581.3333333333333,7) rotate(315) translate(0,9)" font-family="Segoe UI" font-size="11px" fill="#000" opacity="1">2025-09-22</text><text text-anchor="end" transform="translate(622.8571428571429,7) rotate(315) translate(0,9)" font-family="Segoe UI" font-size="11px" fill="#000" opacity="0">2025-09-23</text><text text-anchor="end" transform="translate(664.3809523809523,7) rotate(315) translate(0,9)" font-family="Segoe UI" font-size="11px" fill="#000" opacity="1">2025-09-24</text><text text-anchor="end" transform="translate(705.9047619047619,7) rotate(315) translate(0,9)" font-family="Segoe UI" font-size="11px" fill="#000" opacity="0">2025-09-25</text><text text-anchor="end" transform="translate(747.4285714285713,7) rotate(315) translate(0,9)" font-family="Segoe UI" font-size="11px" fill="#000" opacity="1">2025-09-26</text><text text-anchor="end" transform="translate(788.952380952381,7) rotate(315) translate(0,9)" font-family="Segoe UI" font-size="11px" fill="#000" opacity="0">2025-09-27</text><text text-anchor="end" transform="translate(830.4761904761905,7) rotate(315) translate(0,9)" font-family="Segoe UI" font-size="11px" fill="#000" opacity="1">2025-09-28</text><text text-anchor="end" transform="translate(872,7) rotate(315) translate(0,9)" font-family="Segoe UI" font-size="11px" fill="#000" opacity="0">2025-09-29</text></g><g class="mark-rule role-axis-domain" pointer-events="none"><line transform="translate(0,0)" x2="872" y2="0" stroke="#888" stroke-width="1" opacity="1"/></g><g class="mark-text role-axis-title" pointer-events="none"><text text-anchor="middle" transform="translate(436,91.00357133746826)" font-family="Segoe UI" font-size="13px" font-weight="bold" fill="#000" opacity="1">Date</text></g></g><path class="foreground" aria-hidden="true" d="" pointer-events="none" display="none"/></g></g><g class="mark-group role-axis" role="graphics-symbol" aria-roledescription="axis" aria-label="Y-axis titled 'Unique server names' for a linear scale with values from 0 to 55"><g transform="translate(0.5,0.5)"><path class="background" aria-hidden="true" d="M0,0h0v0h0Z" pointer-events="none"/><g><g class="mark-rule role-axis-tick" pointer-events="none"><line transform="translate(0,480)" x2="-5" y2="0" stroke="#bbb" stroke-width="1" opacity="1"/><line transform="translate(0,436)" x2="-5" y2="0" stroke="#bbb" stroke-width="1" opacity="1"/><line transform="translate(0,393)" x2="-5" y2="0" stroke="#bbb" stroke-width="1" opacity="1"/><line transform="translate(0,349)" x2="-5" y2="0" stroke="#bbb" stroke-width="1" opacity="1"/><line transform="translate(0,305)" x2="-5" y2="0" stroke="#bbb" stroke-width="1" opacity="1"/><line transform="translate(0,262)" x2="-5" y2="0" stroke="#bbb" stroke-width="1" opacity="1"/><line transform="translate(0,218)" x2="-5" y2="0" stroke="#bbb" stroke-width="1" opacity="1"/><line transform="translate(0,175)" x2="-5" y2="0" stroke="#bbb" stroke-width="1" opacity="1"/><line transform="translate(0,131)" x2="-5" y2="0" stroke="#bbb" stroke-width="1" opacity="1"/><line transform="translate(0,87)" x2="-5" y2="0" stroke="#bbb" stroke-width="1" opacity="1"/><line transform="translate(0,44)" x2="-5" y2="0" stroke="#bbb" stroke-width="1" opacity="1"/><line transform="translate(0,0)" x2="-5" y2="0" stroke="#bbb" stroke-width="1" opacity="1"/></g><g class="mark-text role-axis-label" pointer-events="none"><text text-anchor="end" transform="translate(-7,483)" font-family="Segoe UI" font-size="11px" fill="#000" opacity="1">0</text><text text-anchor="end" transform="translate(-7,439.3636363636364)" font-family="Segoe UI" font-size="11px" fill="#000" opacity="1">5</text><text text-anchor="end" transform="translate(-7,395.7272727272727)" font-family="Segoe UI" font-size="11px" fill="#000" opacity="1">10</text><text text-anchor="end" transform="translate(-7,352.0909090909091)" font-family="Segoe UI" font-size="11px" fill="#000" opacity="1">15</text><text text-anchor="end" transform="translate(-7,308.45454545454544)" font-family="Segoe UI" font-size="11px" fill="#000" opacity="1">20</text><text text-anchor="end" transform="translate(-7,264.8181818181818)" font-family="Segoe UI" font-size="11px" fill="#000" opacity="1">25</text><text text-anchor="end" transform="translate(-7,221.1818181818182)" font-family="Segoe UI" font-size="11px" fill="#000" opacity="1">30</text><text text-anchor="end" transform="translate(-7,177.54545454545456)" font-family="Segoe UI" font-size="11px" fill="#000" opacity="1">35</text><text text-anchor="end" transform="translate(-7,133.9090909090909)" font-family="Segoe UI" font-size="11px" fill="#000" opacity="1">40</text><text text-anchor="end" transform="translate(-7,90.27272727272725)" font-family="Segoe UI" font-size="11px" fill="#000" opacity="1">45</text><text text-anchor="end" transform="translate(-7,46.636363636363654)" font-family="Segoe UI" font-size="11px" fill="#000" opacity="1">50</text><text text-anchor="end" transform="translate(-7,3)" font-family="Segoe UI" font-size="11px" fill="#000" opacity="1">55</text></g><g class="mark-rule role-axis-domain" pointer-events="none"><line transform="translate(0,480)" x2="0" y2="-480" stroke="#888" stroke-width="1" opacity="1"/></g><g class="mark-text role-axis-title" pointer-events="none"><text text-anchor="middle" transform="translate(-28,240) rotate(-90) translate(0,-3)" font-family="Segoe UI" font-size="13px" font-weight="bold" fill="#000" opacity="1">Unique server names</text></g></g><path class="foreground" aria-hidden="true" d="" pointer-events="none" display="none"/></g></g><g class="mark-area role-mark layer_0_marks" role="graphics-object" aria-roledescription="area mark container" pointer-events="none"><path aria-label="date: 2025-09-08; count: 1" role="graphics-symbol" aria-roledescription="area mark" d="M0,471.273C13.841,240,27.683,8.727,41.524,8.727C55.365,8.727,69.206,17.455,83.048,34.909C96.889,52.364,110.73,148.364,124.571,165.818C138.413,183.273,152.254,174.545,166.095,192C179.937,209.455,193.778,293.818,207.619,305.455C221.46,317.091,235.302,322.909,249.143,322.909C262.984,322.909,276.825,273.455,290.667,261.818C304.508,250.182,318.349,256,332.19,244.364C346.032,232.727,359.873,142.545,373.714,130.909C387.556,119.273,401.397,113.455,415.238,113.455C429.079,113.455,442.921,218.182,456.762,235.636C470.603,253.091,484.444,244.364,498.286,261.818C512.127,279.273,525.968,349.091,539.81,349.091C553.651,349.091,567.492,343.273,581.333,340.364C595.175,337.455,609.016,334.545,622.857,331.636C636.698,328.727,650.54,322.909,664.381,322.909C678.222,322.909,692.063,384,705.905,384C719.746,384,733.587,261.818,747.429,261.818C761.27,261.818,775.111,418.909,788.952,418.909C802.794,418.909,816.635,376.727,830.476,357.818C844.317,338.909,858.159,322.182,872,305.455L872,480C858.159,480,844.317,480,830.476,480C816.635,480,802.794,480,788.952,480C775.111,480,761.27,480,747.429,480C733.587,480,719.746,480,705.905,480C692.063,480,678.222,480,664.381,480C650.54,480,636.698,480,622.857,480C609.016,480,595.175,480,581.333,480C567.492,480,553.651,480,539.81,480C525.968,480,512.127,480,498.286,480C484.444,480,470.603,480,456.762,480C442.921,480,429.079,480,415.238,480C401.397,480,387.556,480,373.714,480C359.873,480,346.032,480,332.19,480C318.349,480,304.508,480,290.667,480C276.825,480,262.984,480,249.143,480C235.302,480,221.46,480,207.619,480C193.778,480,179.937,480,166.095,480C152.254,480,138.413,480,124.571,480C110.73,480,96.889,480,83.048,480C69.206,480,55.365,480,41.524,480C27.683,480,13.841,480,0,480Z" fill="#4e79a7" opacity="0.18"/></g><g class="mark-line role-mark layer_1_marks" role="graphics-object" aria-roledescription="line mark container" pointer-events="none"><path aria-label="date: Sep 08, 2025; count: 1" role="graphics-symbol" aria-roledescription="line mark" d="M0,471.273C13.841,240,27.683,8.727,41.524,8.727C55.365,8.727,69.206,17.455,83.048,34.909C96.889,52.364,110.73,148.364,124.571,165.818C138.413,183.273,152.254,174.545,166.095,192C179.937,209.455,193.778,293.818,207.619,305.455C221.46,317.091,235.302,322.909,249.143,322.909C262.984,322.909,276.825,273.455,290.667,261.818C304.508,250.182,318.349,256,332.19,244.364C346.032,232.727,359.873,142.545,373.714,130.909C387.556,119.273,401.397,113.455,415.238,113.455C429.079,113.455,442.921,218.182,456.762,235.636C470.603,253.091,484.444,244.364,498.286,261.818C512.127,279.273,525.968,349.091,539.81,349.091C553.651,349.091,567.492,343.273,581.333,340.364C595.175,337.455,609.016,334.545,622.857,331.636C636.698,328.727,650.54,322.909,664.381,322.909C678.222,322.909,692.063,384,705.905,384C719.746,384,733.587,261.818,747.429,261.818C761.27,261.818,775.111,418.909,788.952,418.909C802.794,418.909,816.635,376.727,830.476,357.818C844.317,338.909,858.159,322.182,872,305.455" stroke="#4e79a7" stroke-width="2"/></g><g class="mark-line role-mark layer_2_marks" role="graphics-object" aria-roledescription="line mark container" pointer-events="none"><path aria-label="date: Sep 08, 2025; ma7: 1" role="graphics-symbol" aria-roledescription="line mark" d="M0,471.273C13.841,378.424,27.683,285.576,41.524,240C55.365,194.424,69.206,172.606,83.048,171.636C96.889,170.667,110.73,170.182,124.571,170.182C138.413,170.182,152.254,171.636,166.095,174.545C179.937,177.455,193.778,189.714,207.619,196.364C221.46,203.013,235.302,214.442,249.143,214.442C262.984,214.442,276.825,184.519,290.667,184.519C304.508,184.519,318.349,210.286,332.19,218.182C346.032,226.078,359.873,231.896,373.714,231.896C387.556,231.896,401.397,224.416,415.238,224.416C429.079,224.416,442.921,230.649,456.762,230.649C470.603,230.649,484.444,224.416,498.286,224.416C512.127,224.416,525.968,225.662,539.81,228.156C553.651,230.649,567.492,235.429,581.333,239.377C595.175,243.325,609.016,245.195,622.857,251.844C636.698,258.494,650.54,268.26,664.381,279.273C678.222,290.286,692.063,315.429,705.905,317.922C719.746,320.416,733.587,319.169,747.429,321.662C761.27,324.156,775.111,343.273,788.952,344.104C802.794,344.935,816.635,345.351,830.476,345.351C844.317,345.351,858.159,342.857,872,340.364" stroke="#d62728" stroke-width="2" stroke-dasharray="6,4"/></g><g class="mark-symbol role-mark layer_3_marks" role="graphics-object" aria-roledescription="symbol mark container"><path aria-label="date: Sep 08, 2025; count: 1; Date: Sep 08, 2025; Daily unique: 1; 7d avg: 1" role="graphics-symbol" aria-roledescription="point" transform="translate(0,471.27272727272725)" d="M3.536,0A3.536,3.536,0,1,1,-3.536,0A3.536,3.536,0,1,1,3.536,0" fill="#4e79a7" stroke-width="2" opacity="0.55"/><path aria-label="date: Sep 09, 2025; count: 54; Date: Sep 09, 2025; Daily unique: 54; 7d avg: 27.5" role="graphics-symbol" aria-roledescription="point" transform="translate(41.52380952380952,8.72727272727273)" d="M3.536,0A3.536,3.536,0,1,1,-3.536,0A3.536,3.536,0,1,1,3.536,0" fill="#4e79a7" stroke-width="2" opacity="0.55"/><path aria-label="date: Sep 10, 2025; count: 51; Date: Sep 10, 2025; Daily unique: 51; 7d avg: 35.3333333333" role="graphics-symbol" aria-roledescription="point" transform="translate(83.04761904761904,34.90909090909092)" d="M3.536,0A3.536,3.536,0,1,1,-3.536,0A3.536,3.536,0,1,1,3.536,0" fill="#4e79a7" stroke-width="2" opacity="0.55"/><path aria-label="date: Sep 11, 2025; count: 36; Date: Sep 11, 2025; Daily unique: 36; 7d avg: 35.5" role="graphics-symbol" aria-roledescription="point" transform="translate(124.57142857142857,165.8181818181818)" d="M3.536,0A3.536,3.536,0,1,1,-3.536,0A3.536,3.536,0,1,1,3.536,0" fill="#4e79a7" stroke-width="2" opacity="0.55"/><path aria-label="date: Sep 12, 2025; count: 33; Date: Sep 12, 2025; Daily unique: 33; 7d avg: 35" role="graphics-symbol" aria-roledescription="point" transform="translate(166.09523809523807,192)" d="M3.536,0A3.536,3.536,0,1,1,-3.536,0A3.536,3.536,0,1,1,3.536,0" fill="#4e79a7" stroke-width="2" opacity="0.55"/><path aria-label="date: Sep 13, 2025; count: 20; Date: Sep 13, 2025; Daily unique: 20; 7d avg: 32.5" role="graphics-symbol" aria-roledescription="point" transform="translate(207.61904761904762,305.45454545454544)" d="M3.536,0A3.536,3.536,0,1,1,-3.536,0A3.536,3.536,0,1,1,3.536,0" fill="#4e79a7" stroke-width="2" opacity="0.55"/><path aria-label="date: Sep 14, 2025; count: 18; Date: Sep 14, 2025; Daily unique: 18; 7d avg: 30.4285714286" role="graphics-symbol" aria-roledescription="point" transform="translate(249.14285714285714,322.90909090909093)" d="M3.536,0A3.536,3.536,0,1,1,-3.536,0A3.536,3.536,0,1,1,3.536,0" fill="#4e79a7" stroke-width="2" opacity="0.55"/><path aria-label="date: Sep 15, 2025; count: 25; Date: Sep 15, 2025; Daily unique: 25; 7d avg: 33.8571428571" role="graphics-symbol" aria-roledescription="point" transform="translate(290.66666666666663,261.8181818181818)" d="M3.536,0A3.536,3.536,0,1,1,-3.536,0A3.536,3.536,0,1,1,3.536,0" fill="#4e79a7" stroke-width="2" opacity="0.55"/><path aria-label="date: Sep 16, 2025; count: 27; Date: Sep 16, 2025; Daily unique: 27; 7d avg: 30" role="graphics-symbol" aria-roledescription="point" transform="translate(332.19047619047615,244.36363636363635)" d="M3.536,0A3.536,3.536,0,1,1,-3.536,0A3.536,3.536,0,1,1,3.536,0" fill="#4e79a7" stroke-width="2" opacity="0.55"/><path aria-label="date: Sep 17, 2025; count: 40; Date: Sep 17, 2025; Daily unique: 40; 7d avg: 28.4285714286" role="graphics-symbol" aria-roledescription="point" transform="translate(373.71428571428567,130.9090909090909)" d="M3.536,0A3.536,3.536,0,1,1,-3.536,0A3.536,3.536,0,1,1,3.536,0" fill="#4e79a7" stroke-width="2" opacity="0.55"/><path aria-label="date: Sep 18, 2025; count: 42; Date: Sep 18, 2025; Daily unique: 42; 7d avg: 29.2857142857" role="graphics-symbol" aria-roledescription="point" transform="translate(415.23809523809524,113.45454545454544)" d="M3.536,0A3.536,3.536,0,1,1,-3.536,0A3.536,3.536,0,1,1,3.536,0" fill="#4e79a7" stroke-width="2" opacity="0.55"/><path aria-label="date: Sep 19, 2025; count: 28; Date: Sep 19, 2025; Daily unique: 28; 7d avg: 28.5714285714" role="graphics-symbol" aria-roledescription="point" transform="translate(456.76190476190476,235.63636363636365)" d="M3.536,0A3.536,3.536,0,1,1,-3.536,0A3.536,3.536,0,1,1,3.536,0" fill="#4e79a7" stroke-width="2" opacity="0.55"/><path aria-label="date: Sep 20, 2025; count: 25; Date: Sep 20, 2025; Daily unique: 25; 7d avg: 29.2857142857" role="graphics-symbol" aria-roledescription="point" transform="translate(498.2857142857143,261.8181818181818)" d="M3.536,0A3.536,3.536,0,1,1,-3.536,0A3.536,3.536,0,1,1,3.536,0" fill="#4e79a7" stroke-width="2" opacity="0.55"/><path aria-label="date: Sep 21, 2025; count: 15; Date: Sep 21, 2025; Daily unique: 15; 7d avg: 28.8571428571" role="graphics-symbol" aria-roledescription="point" transform="translate(539.8095238095239,349.0909090909091)" d="M3.536,0A3.536,3.536,0,1,1,-3.536,0A3.536,3.536,0,1,1,3.536,0" fill="#4e79a7" stroke-width="2" opacity="0.55"/><path aria-label="date: Sep 22, 2025; count: 16; Date: Sep 22, 2025; Daily unique: 16; 7d avg: 27.5714285714" role="graphics-symbol" aria-roledescription="point" transform="translate(581.3333333333333,340.3636363636364)" d="M3.536,0A3.536,3.536,0,1,1,-3.536,0A3.536,3.536,0,1,1,3.536,0" fill="#4e79a7" stroke-width="2" opacity="0.55"/><path aria-label="date: Sep 23, 2025; count: 17; Date: Sep 23, 2025; Daily unique: 17; 7d avg: 26.1428571429" role="graphics-symbol" aria-roledescription="point" transform="translate(622.8571428571429,331.6363636363636)" d="M3.536,0A3.536,3.536,0,1,1,-3.536,0A3.536,3.536,0,1,1,3.536,0" fill="#4e79a7" stroke-width="2" opacity="0.55"/><path aria-label="date: Sep 24, 2025; count: 18; Date: Sep 24, 2025; Daily unique: 18; 7d avg: 23" role="graphics-symbol" aria-roledescription="point" transform="translate(664.3809523809523,322.90909090909093)" d="M3.536,0A3.536,3.536,0,1,1,-3.536,0A3.536,3.536,0,1,1,3.536,0" fill="#4e79a7" stroke-width="2" opacity="0.55"/><path aria-label="date: Sep 25, 2025; count: 11; Date: Sep 25, 2025; Daily unique: 11; 7d avg: 18.5714285714" role="graphics-symbol" aria-roledescription="point" transform="translate(705.9047619047619,384)" d="M3.536,0A3.536,3.536,0,1,1,-3.536,0A3.536,3.536,0,1,1,3.536,0" fill="#4e79a7" stroke-width="2" opacity="0.55"/><path aria-label="date: Sep 26, 2025; count: 25; Date: Sep 26, 2025; Daily unique: 25; 7d avg: 18.1428571429" role="graphics-symbol" aria-roledescription="point" transform="translate(747.4285714285713,261.8181818181818)" d="M3.536,0A3.536,3.536,0,1,1,-3.536,0A3.536,3.536,0,1,1,3.536,0" fill="#4e79a7" stroke-width="2" opacity="0.55"/><path aria-label="date: Sep 27, 2025; count: 7; Date: Sep 27, 2025; Daily unique: 7; 7d avg: 15.5714285714" role="graphics-symbol" aria-roledescription="point" transform="translate(788.952380952381,418.90909090909093)" d="M3.536,0A3.536,3.536,0,1,1,-3.536,0A3.536,3.536,0,1,1,3.536,0" fill="#4e79a7" stroke-width="2" opacity="0.55"/><path aria-label="date: Sep 28, 2025; count: 14; Date: Sep 28, 2025; Daily unique: 14; 7d avg: 15.4285714286" role="graphics-symbol" aria-roledescription="point" transform="translate(830.4761904761905,357.8181818181818)" d="M3.536,0A3.536,3.536,0,1,1,-3.536,0A3.536,3.536,0,1,1,3.536,0" fill="#4e79a7" stroke-width="2" opacity="0.55"/><path aria-label="date: Sep 29, 2025; count: 20; Date: Sep 29, 2025; Daily unique: 20; 7d avg: 16" role="graphics-symbol" aria-roledescription="point" transform="translate(872,305.45454545454544)" d="M3.536,0A3.536,3.536,0,1,1,-3.536,0A3.536,3.536,0,1,1,3.536,0" fill="#4e79a7" stroke-width="2" opacity="0.55"/></g><g class="mark-path role-mark layer_3_voronoi" aria-hidden="true"><path transform="translate(0,0)" d="M0,293.1438996377772L41.17067791530975,309.93425433861273L164.9954725419911,464.9738624812515L173.94348103939427,480L0,480Z" stroke-width="0.35"/><path transform="translate(0,0)" d="M0,0L76.04263293003913,0L0,120.60200645914927Z" stroke-width="0.35"/><path transform="translate(0,0)" d="M217.62041961374743,64.26330195377813L0,133.29157791062553L0,120.60200645914927L76.04263293003913,0L255.76377139679892,0L238.1181662374323,53.42697117697119Z" stroke-width="0.35"/><path transform="translate(0,0)" d="M0,133.29157791062553L217.62041961374743,64.26330195377813L75.64740891579913,289.42949220092083L41.17067791530975,309.93425433861273L0,293.1438996377772Z" stroke-width="0.35"/><path transform="translate(0,0)" d="M223.71269312892707,235.23832133048722L75.64740891579913,289.42949220092083L217.62041961374743,64.26330195377813L238.1181662374323,53.42697117697119L268.2389822995519,155.79335002754206Z" stroke-width="0.35"/><path transform="translate(0,0)" d="M244.74168268330072,275.26016018079514L164.9954725419911,464.9738624812515L41.17067791530975,309.93425433861273L75.64740891579913,289.42949220092083L223.71269312892707,235.23832133048722Z" stroke-width="0.35"/><path transform="translate(0,0)" d="M389.75578902489013,388.40519759360336L381.5053814686843,480L173.94348103939427,480L164.9954725419911,464.9738624812515L244.74168268330072,275.26016018079514L351.1497185605609,347.5862571291142Z" stroke-width="0.35"/><path transform="translate(0,0)" d="M351.1497185605609,347.5862571291142L244.74168268330072,275.26016018079514L223.71269312892707,235.23832133048722L268.2389822995519,155.79335002754206L271.3624347194746,157.7748418008158Z" stroke-width="0.35"/><path transform="translate(0,0)" d="M403.02962953765444,362.09015993684994L389.75578902489013,388.40519759360336L351.1497185605609,347.5862571291142L271.3624347194746,157.7748418008158L391.8038708873176,201.85581920168386Z" stroke-width="0.35"/><path transform="translate(0,0)" d="M343.1170275373778,0L418.92635276872136,180.34797808012098L391.8038708873176,201.85581920168386L271.3624347194746,157.7748418008158L268.2389822995519,155.79335002754206L238.1181662374323,53.42697117697119L255.76377139679892,0Z" stroke-width="0.35"/><path transform="translate(0,0)" d="M665.1358960750119,0L622.8571428571428,94.66335220957075L548.3784237093813,136.35335419751007L418.92635276872136,180.34797808012098L343.1170275373778,0Z" stroke-width="0.35"/><path transform="translate(0,0)" d="M408.63076476325614,357.9901836636531L403.02962953765444,362.09015993684994L391.8038708873176,201.85581920168386L418.92635276872136,180.34797808012098L548.3784237093813,136.35335419751007Z" stroke-width="0.35"/><path transform="translate(0,0)" d="M408.63076476325614,357.9901836636531L548.3784237093813,136.35335419751007L622.8571428571428,94.66335220957075L622.8571428571428,179.46783677395936L616.3006821570776,197.2936789040685L584.7675437257665,253.55593036112518L549.2927629905414,291.064097999163Z" stroke-width="0.35"/><path transform="translate(0,0)" d="M408.63076476325614,357.9901836636531L549.2927629905414,291.064097999163L589.0023937697,480L381.5053814686843,480L389.75578902489013,388.40519759360336L403.02962953765444,362.09015993684994Z" stroke-width="0.35"/><path transform="translate(0,0)" d="M589.0023937697,480L549.2927629905414,291.064097999163L584.7675437257665,253.55593036112518L621.1058963277478,426.4515048443621L602.3482916860733,480Z" stroke-width="0.35"/><path transform="translate(0,0)" d="M621.1058963277478,426.4515048443621L584.7675437257665,253.55593036112518L616.3006821570776,197.2936789040685L653.6244453350375,374.87777434206015Z" stroke-width="0.35"/><path transform="translate(0,0)" d="M653.6244453350375,374.87777434206015L616.3006821570776,197.2936789040685L622.8571428571428,179.46783677395936L728.9436386984343,323.6829257917693Z" stroke-width="0.35"/><path transform="translate(0,0)" d="M602.3482916860733,480L621.1058963277478,426.4515048443621L653.6244453350375,374.87777434206015L728.9436386984343,323.6829257917693L760.5201770706358,334.41429470000895L765.5497715147424,358.3447857257382L714.4119666821919,480Z" stroke-width="0.35"/><path transform="translate(0,0)" d="M622.8571428571428,94.66335220957075L665.1358960750119,0L872,0L872,105.82547928262188L805.5824090814118,295.43188764306774L760.5201770706358,334.41429470000895L728.9436386984343,323.6829257917693L622.8571428571428,179.46783677395936Z" stroke-width="0.35"/><path transform="translate(0,0)" d="M714.4119666821919,480L765.5497715147424,358.3447857257382L872,430.69956120976525L872,480Z" stroke-width="0.35"/><path transform="translate(0,0)" d="M760.5201770706358,334.41429470000895L805.5824090814118,295.43188764306774L872,348.10033440985825L872,430.69956120976525L765.5497715147424,358.3447857257382Z" stroke-width="0.35"/><path transform="translate(0,0)" d="M872,348.10033440985825L805.5824090814118,295.43188764306774L872,105.82547928262188Z" stroke-width="0.35"/></g><g class="mark-symbol role-mark layer_4_marks" role="graphics-object" aria-roledescription="symbol mark container"><path aria-label="date: Sep 08, 2025; count: 1; Peak date: Sep 08, 2025; Peak unique count: 1" role="graphics-symbol" aria-roledescription="point" transform="translate(0,471.27272727272725)" d="M-5.916,0L0,-5.916L5.916,0L0,5.916Z" fill="#ff9900" stroke="#b36b00" stroke-width="1.5" opacity="0"/><path aria-label="date: Sep 09, 2025; count: 54; Peak date: Sep 09, 2025; Peak unique count: 54" role="graphics-symbol" aria-roledescription="point" transform="translate(41.52380952380952,8.72727272727273)" d="M-5.916,0L0,-5.916L5.916,0L0,5.916Z" fill="#ff9900" stroke="#b36b00" stroke-width="1.5" opacity="1"/><path aria-label="date: Sep 10, 2025; count: 51; Peak date: Sep 10, 2025; Peak unique count: 51" role="graphics-symbol" aria-roledescription="point" transform="translate(83.04761904761904,34.90909090909092)" d="M-5.916,0L0,-5.916L5.916,0L0,5.916Z" fill="#ff9900" stroke="#b36b00" stroke-width="1.5" opacity="0"/><path aria-label="date: Sep 11, 2025; count: 36; Peak date: Sep 11, 2025; Peak unique count: 36" role="graphics-symbol" aria-roledescription="point" transform="translate(124.57142857142857,165.8181818181818)" d="M-5.916,0L0,-5.916L5.916,0L0,5.916Z" fill="#ff9900" stroke="#b36b00" stroke-width="1.5" opacity="0"/><path aria-label="date: Sep 12, 2025; count: 33; Peak date: Sep 12, 2025; Peak unique count: 33" role="graphics-symbol" aria-roledescription="point" transform="translate(166.09523809523807,192)" d="M-5.916,0L0,-5.916L5.916,0L0,5.916Z" fill="#ff9900" stroke="#b36b00" stroke-width="1.5" opacity="0"/><path aria-label="date: Sep 13, 2025; count: 20; Peak date: Sep 13, 2025; Peak unique count: 20" role="graphics-symbol" aria-roledescription="point" transform="translate(207.61904761904762,305.45454545454544)" d="M-5.916,0L0,-5.916L5.916,0L0,5.916Z" fill="#ff9900" stroke="#b36b00" stroke-width="1.5" opacity="0"/><path aria-label="date: Sep 14, 2025; count: 18; Peak date: Sep 14, 2025; Peak unique count: 18" role="graphics-symbol" aria-roledescription="point" transform="translate(249.14285714285714,322.90909090909093)" d="M-5.916,0L0,-5.916L5.916,0L0,5.916Z" fill="#ff9900" stroke="#b36b00" stroke-width="1.5" opacity="0"/><path aria-label="date: Sep 15, 2025; count: 25; Peak date: Sep 15, 2025; Peak unique count: 25" role="graphics-symbol" aria-roledescription="point" transform="translate(290.66666666666663,261.8181818181818)" d="M-5.916,0L0,-5.916L5.916,0L0,5.916Z" fill="#ff9900" stroke="#b36b00" stroke-width="1.5" opacity="0"/><path aria-label="date: Sep 16, 2025; count: 27; Peak date: Sep 16, 2025; Peak unique count: 27" role="graphics-symbol" aria-roledescription="point" transform="translate(332.19047619047615,244.36363636363635)" d="M-5.916,0L0,-5.916L5.916,0L0,5.916Z" fill="#ff9900" stroke="#b36b00" stroke-width="1.5" opacity="0"/><path aria-label="date: Sep 17, 2025; count: 40; Peak date: Sep 17, 2025; Peak unique count: 40" role="graphics-symbol" aria-roledescription="point" transform="translate(373.71428571428567,130.9090909090909)" d="M-5.916,0L0,-5.916L5.916,0L0,5.916Z" fill="#ff9900" stroke="#b36b00" stroke-width="1.5" opacity="0"/><path aria-label="date: Sep 18, 2025; count: 42; Peak date: Sep 18, 2025; Peak unique count: 42" role="graphics-symbol" aria-roledescription="point" transform="translate(415.23809523809524,113.45454545454544)" d="M-5.916,0L0,-5.916L5.916,0L0,5.916Z" fill="#ff9900" stroke="#b36b00" stroke-width="1.5" opacity="0"/><path aria-label="date: Sep 19, 2025; count: 28; Peak date: Sep 19, 2025; Peak unique count: 28" role="graphics-symbol" aria-roledescription="point" transform="translate(456.76190476190476,235.63636363636365)" d="M-5.916,0L0,-5.916L5.916,0L0,5.916Z" fill="#ff9900" stroke="#b36b00" stroke-width="1.5" opacity="0"/><path aria-label="date: Sep 20, 2025; count: 25; Peak date: Sep 20, 2025; Peak unique count: 25" role="graphics-symbol" aria-roledescription="point" transform="translate(498.2857142857143,261.8181818181818)" d="M-5.916,0L0,-5.916L5.916,0L0,5.916Z" fill="#ff9900" stroke="#b36b00" stroke-width="1.5" opacity="0"/><path aria-label="date: Sep 21, 2025; count: 15; Peak date: Sep 21, 2025; Peak unique count: 15" role="graphics-symbol" aria-roledescription="point" transform="translate(539.8095238095239,349.0909090909091)" d="M-5.916,0L0,-5.916L5.916,0L0,5.916Z" fill="#ff9900" stroke="#b36b00" stroke-width="1.5" opacity="0"/><path aria-label="date: Sep 22, 2025; count: 16; Peak date: Sep 22, 2025; Peak unique count: 16" role="graphics-symbol" aria-roledescription="point" transform="translate(581.3333333333333,340.3636363636364)" d="M-5.916,0L0,-5.916L5.916,0L0,5.916Z" fill="#ff9900" stroke="#b36b00" stroke-width="1.5" opacity="0"/><path aria-label="date: Sep 23, 2025; count: 17; Peak date: Sep 23, 2025; Peak unique count: 17" role="graphics-symbol" aria-roledescription="point" transform="translate(622.8571428571429,331.6363636363636)" d="M-5.916,0L0,-5.916L5.916,0L0,5.916Z" fill="#ff9900" stroke="#b36b00" stroke-width="1.5" opacity="0"/><path aria-label="date: Sep 24, 2025; count: 18; Peak date: Sep 24, 2025; Peak unique count: 18" role="graphics-symbol" aria-roledescription="point" transform="translate(664.3809523809523,322.90909090909093)" d="M-5.916,0L0,-5.916L5.916,0L0,5.916Z" fill="#ff9900" stroke="#b36b00" stroke-width="1.5" opacity="0"/><path aria-label="date: Sep 25, 2025; count: 11; Peak date: Sep 25, 2025; Peak unique count: 11" role="graphics-symbol" aria-roledescription="point" transform="translate(705.9047619047619,384)" d="M-5.916,0L0,-5.916L5.916,0L0,5.916Z" fill="#ff9900" stroke="#b36b00" stroke-width="1.5" opacity="0"/><path aria-label="date: Sep 26, 2025; count: 25; Peak date: Sep 26, 2025; Peak unique count: 25" role="graphics-symbol" aria-roledescription="point" transform="translate(747.4285714285713,261.8181818181818)" d="M-5.916,0L0,-5.916L5.916,0L0,5.916Z" fill="#ff9900" stroke="#b36b00" stroke-width="1.5" opacity="0"/><path aria-label="date: Sep 27, 2025; count: 7; Peak date: Sep 27, 2025; Peak unique count: 7" role="graphics-symbol" aria-roledescription="point" transform="translate(788.952380952381,418.90909090909093)" d="M-5.916,0L0,-5.916L5.916,0L0,5.916Z" fill="#ff9900" stroke="#b36b00" stroke-width="1.5" opacity="0"/><path aria-label="date: Sep 28, 2025; count: 14; Peak date: Sep 28, 2025; Peak unique count: 14" role="graphics-symbol" aria-roledescription="point" transform="translate(830.4761904761905,357.8181818181818)" d="M-5.916,0L0,-5.916L5.916,0L0,5.916Z" fill="#ff9900" stroke="#b36b00" stroke-width="1.5" opacity="0"/><path aria-label="date: Sep 29, 2025; count: 20; Peak date: Sep 29, 2025; Peak unique count: 20" role="graphics-symbol" aria-roledescription="point" transform="translate(872,305.45454545454544)" d="M-5.916,0L0,-5.916L5.916,0L0,5.916Z" fill="#ff9900" stroke="#b36b00" stroke-width="1.5" opacity="0"/></g><g class="mark-rule role-mark layer_5_marks" role="graphics-symbol" aria-roledescription="rule mark container" pointer-events="none"><line transform="translate(872,264.6109090909091)" x2="-872" y2="0" stroke="#d62728" stroke-width="1.5" stroke-dasharray="4,4"/><line transform="translate(872,264.6109090909091)" x2="-872" y2="0" stroke="#d62728" stroke-width="1.5" stroke-dasharray="4,4"/><line transform="translate(872,264.6109090909091)" x2="-872" y2="0" stroke="#d62728" stroke-width="1.5" stroke-dasharray="4,4"/><line transform="translate(872,264.6109090909091)" x2="-872" y2="0" stroke="#d62728" stroke-width="1.5" stroke-dasharray="4,4"/><line transform="translate(872,264.6109090909091)" x2="-872" y2="0" stroke="#d62728" stroke-width="1.5" stroke-dasharray="4,4"/><line transform="translate(872,264.6109090909091)" x2="-872" y2="0" stroke="#d62728" stroke-width="1.5" stroke-dasharray="4,4"/><line transform="translate(872,264.6109090909091)" x2="-872" y2="0" stroke="#d62728" stroke-width="1.5" stroke-dasharray="4,4"/><line transform="translate(872,264.6109090909091)" x2="-872" y2="0" stroke="#d62728" stroke-width="1.5" stroke-dasharray="4,4"/><line transform="translate(872,264.6109090909091)" x2="-872" y2="0" stroke="#d62728" stroke-width="1.5" stroke-dasharray="4,4"/><line transform="translate(872,264.6109090909091)" x2="-872" y2="0" stroke="#d62728" stroke-width="1.5" stroke-dasharray="4,4"/><line transform="translate(872,264.6109090909091)" x2="-872" y2="0" stroke="#d62728" stroke-width="1.5" stroke-dasharray="4,4"/><line transform="translate(872,264.6109090909091)" x2="-872" y2="0" stroke="#d62728" stroke-width="1.5" stroke-dasharray="4,4"/><line transform="translate(872,264.6109090909091)" x2="-872" y2="0" stroke="#d62728" stroke-width="1.5" stroke-dasharray="4,4"/><line transform="translate(872,264.6109090909091)" x2="-872" y2="0" stroke="#d62728" stroke-width="1.5" stroke-dasharray="4,4"/><line transform="translate(872,264.6109090909091)" x2="-872" y2="0" stroke="#d62728" stroke-width="1.5" stroke-dasharray="4,4"/><line transform="translate(872,264.6109090909091)" x2="-872" y2="0" stroke="#d62728" stroke-width="1.5" stroke-dasharray="4,4"/><line transform="translate(872,264.6109090909091)" x2="-872" y2="0" stroke="#d62728" stroke-width="1.5" stroke-dasharray="4,4"/><line transform="translate(872,264.6109090909091)" x2="-872" y2="0" stroke="#d62728" stroke-width="1.5" stroke-dasharray="4,4"/><line transform="translate(872,264.6109090909091)" x2="-872" y2="0" stroke="#d62728" stroke-width="1.5" stroke-dasharray="4,4"/><line transform="translate(872,264.6109090909091)" x2="-872" y2="0" stroke="#d62728" stroke-width="1.5" stroke-dasharray="4,4"/><line transform="translate(872,264.6109090909091)" x2="-872" y2="0" stroke="#d62728" stroke-width="1.5" stroke-dasharray="4,4"/><line transform="translate(872,264.6109090909091)" x2="-872" y2="0" stroke="#d62728" stroke-width="1.5" stroke-dasharray="4,4"/></g><g class="mark-text role-mark layer_6_marks" role="graphics-object" aria-roledescription="text mark container" pointer-events="none"><text aria-label="date: Sep 29, 2025" role="graphics-symbol" aria-roledescription="text mark" text-anchor="start" transform="translate(878,262.6109090909091)" font-family="sans-serif" font-size="12px" fill="#d62728">Avg: 24.68</text></g></g><path class="foreground" aria-hidden="true" d="" display="none"/></g></g></g></svg>