<svg xmlns="http://www.w3.org/2000/svg" xmlns:xlink="http://www.w3.org/1999/xlink" version="1.1" class="marks" width="2403" height="573" viewBox="0 0 2403 573"><rect width="2403" height="573" fill="white"/><g fill="none" stroke-miterlimit="10" transform="translate(51,11)"><g class="mark-group role-frame root" role="graphics-object" aria-roledescription="group mark container"><g transform="translate(0,0)"><path class="background" aria-hidden="true" d="M0.5,0.5h2276v480h-2276Z"/><g><g class="mark-group role-axis" aria-hidden="true"><g transform="translate(0.5,0.5)"><path class="background" aria-hidden="true" d="M0,0h0v0h0Z" pointer-events="none"/><g><g class="mark-rule role-axis-grid" pointer-events="none"><line transform="translate(0,480)" x2="2276" y2="0" stroke="#ddd" stroke-width="1" opacity="1"/><line transform="translate(0,436)" x2="2276" y2="0" stroke="#ddd" stroke-width="1" opacity="1"/><line transform="translate(0,393)" x2="2276" y2="0" stroke="#ddd" stroke-width="1" opacity="1"/><line transform="translate(0,349)" x2="2276" y2="0" stroke="#ddd" stroke-width="1" opacity="1"/><line transform="translate(0,305)" x2="2276" y2="0" stroke="#ddd" stroke-width="1" opacity="1"/><line transform="translate(0,262)" x2="2276" y2="0" stroke="#ddd" stroke-width="1" opacity="1"/><line transform="translate(0,218)" x2="2276" y2="0" stroke="#ddd" stroke-width="1" opacity="1"/><line transform="translate(0,175)" x2="2276" y2="0" stroke="#ddd" stroke-width="1" opacity="1"/><line transform="translate(0,131)" x2="2276" y2="0" stroke="#ddd" stroke-width="1" opacity="1"/><line transform="translate(0,87)" x2="2276" y2="0" stroke="#ddd" stroke-width="1" opacity="1"/><line transform="translate(0,44)" x2="2276" y2="0" stroke="#ddd" stroke-width="1" opacity="1"/><line transform="translate(0,0)" x2="2276" y2="0" stroke="#ddd" stroke-width="1" opacity="1"/></g></g><path class="foreground" aria-hidden="true" d="" pointer-events="none" display="none"/></g></g><g class="mark-group role-axis" role="graphics-symbol" aria-roledescription="axis" aria-label="X-axis titled 'Date' for a time scale with values from 2025-09-08 to 2025-11-07"><g transform="translate(0.5,480.5)"><path class="background" aria-hidden="true" d="M0,0h0v0h0Z" pointer-events="none"/><g><g class="mark-rule role-axis-tick" pointer-events="none"><line transform="translate(0,0)" x2="0" y2="5" stroke="#bbb" stroke-width="1" opacity="1"/><line transform="translate(38,0)" x2="0" y2="5" stroke="#bbb" stroke-width="1" opacity="1"/><line transform="translate(76,0)" x2="0" y2="5" stroke="#bbb" stroke-width="1" opacity="1"/><line transform="translate(114,0)" x2="0" y2="5" stroke="#bbb" stroke-width="1" opacity="1"/><line transform="translate(152,0)" x2="0" y2="5" stroke="#bbb" stroke-width="1" opacity="1"/><line transform="translate(190,0)" x2="0" y2="5" stroke="#bbb" stroke-width="1" opacity="1"/><line transform="translate(228,0)" x2="0" y2="5" stroke="#bbb" stroke-width="1" opacity="1"/><line transform="translate(266,0)" x2="0" y2="5" stroke="#bbb" stroke-width="1" opacity="1"/><line transform="translate(303,0)" x2="0" y2="5" stroke="#bbb" stroke-width="1" opacity="1"/><line transform="translate(341,0)" x2="0" y2="5" stroke="#bbb" stroke-width="1" opacity="1"/><line transform="translate(379,0)" x2="0" y2="5" stroke="#bbb" stroke-width="1" opacity="1"/><line transform="translate(417,0)" x2="0" y2="5" stroke="#bbb" stroke-width="1" opacity="1"/><line transform="translate(455,0)" x2="0" y2="5" stroke="#bbb" stroke-width="1" opacity="1"/><line transform="translate(493,0)" x2="0" y2="5" stroke="#bbb" stroke-width="1" opacity="1"/><line transform="translate(531,0)" x2="0" y2="5" stroke="#bbb" stroke-width="1" opacity="1"/><line transform="translate(569,0)" x2="0" y2="5" stroke="#bbb" stroke-width="1" opacity="1"/><line transform="translate(607,0)" x2="0" y2="5" stroke="#bbb" stroke-width="1" opacity="1"/><line transform="translate(645,0)" x2="0" y2="5" stroke="#bbb" stroke-width="1" opacity="1"/><line transform="translate(683,0)" x2="0" y2="5" stroke="#bbb" stroke-width="1" opacity="1"/><line transform="translate(721,0)" x2="0" y2="5" stroke="#bbb" stroke-width="1" opacity="1"/><line transform="translate(759,0)" x2="0" y2="5" stroke="#bbb" stroke-width="1" opacity="1"/><line transform="translate(797,0)" x2="0" y2="5" stroke="#bbb" stroke-width="1" opacity="1"/><line transform="translate(835,0)" x2="0" y2="5" stroke="#bbb" stroke-width="1" opacity="1"/><line transform="translate(872,0)" x2="0" y2="5" stroke="#bbb" stroke-width="1" opacity="1"/><line transform="translate(910,0)" x2="0" y2="5" stroke="#bbb" stroke-width="1" opacity="1"/><line transform="translate(948,0)" x2="0" y2="5" stroke="#bbb" stroke-width="1" opacity="1"/><line transform="translate(986,0)" x2="0" y2="5" stroke="#bbb" stroke-width="1" opacity="1"/><line transform="translate(1024,0)" x2="0" y2="5" stroke="#bbb" stroke-width="1" opacity="1"/><line transform="translate(1062,0)" x2="0" y2="5" stroke="#bbb" stroke-width="1" opacity="1"/><line transform="translate(1100,0)" x2="0" y2="5" stroke="#bbb" stroke-width="1" opacity="1"/><line transform="translate(1138,0)" x2="0" y2="5" stroke="#bbb" stroke-width="1" opacity="1"/><line transform="translate(1176,0)" x2="0" y2="5" stroke="#bbb" stroke-width="1" opacity="1"/><line transform="translate(1214,0)" x2="0" y2="5" stroke="#bbb" stroke-width="1" opacity="1"/><line transform="translate(1252,0)" x2="0" y2="5" stroke="#bbb" stroke-width="1" opacity="1"/><line transform="translate(1290,0)" x2="0" y2="5" stroke="#bbb" stroke-width="1" opacity="1"/><line transform="translate(1328,0)" x2="0" y2="5" stroke="#bbb" stroke-width="1" opacity="1"/><line transform="translate(1366,0)" x2="0" y2="5" stroke="#bbb" stroke-width="1" opacity="1"/><line transform="translate(1404,0)" x2="0" y2="5" stroke="#bbb" stroke-width="1" opacity="1"/><line transform="translate(1441,0)" x2="0" y2="5" stroke="#bbb" stroke-width="1" opacity="1"/><line transform="translate(1479,0)" x2="0" y2="5" stroke="#bbb" stroke-width="1" opacity="1"/><line transform="translate(1517,0)" x2="0" y2="5" stroke="#bbb" stroke-width="1" opacity="1"/><line transform="translate(1555,0)" x2="0" y2="5" stroke="#bbb" stroke-width="1" opacity="1"/><line transform="translate(1593,0)" x2="0" y2="5" stroke="#bbb" stroke-width="1" opacity="1"/><line transform="translate(1631,0)" x2="0" y2="5" stroke="#bbb" stroke-width="1" opacity="1"/><line transform="translate(1669,0)" x2="0" y2="5" stroke="#bbb" stroke-width="1" opacity="1"/><line transform="translate(1707,0)" x2="0" y2="5" stroke="#bbb" stroke-width="1" opacity="1"/><line transform="translate(1745,0)" x2="0" y2="5" stroke="#bbb" stroke-width="1" opacity="1"/><line transform="translate(1783,0)" x2="0" y2="5" stroke="#bbb" stroke-width="1" opacity="1"/><line transform="translate(1821,0)" x2="0" y2="5" stroke="#bbb" stroke-width="1" opacity="1"/><line transform="translate(1859,0)" x2="0" y2="5" stroke="#bbb" stroke-width="1" opacity="1"/><line transform="translate(1897,0)" x2="0" y2="5" stroke="#bbb" stroke-width="1" opacity="1"/><line transform="translate(1935,0)" x2="0" y2="5" stroke="#bbb" stroke-width="1" opacity="1"/><line transform="translate(1973,0)" x2="0" y2="5" stroke="#bbb" stroke-width="1" opacity="1"/><line transform="translate(2010,0)" x2="0" y2="5" stroke="#bbb" stroke-width="1" opacity="1"/><line transform="translate(2048,0)" x2="0" y2="5" stroke="#bbb" stroke-width="1" opacity="1"/><line transform="translate(2086,0)" x2="0" y2="5" stroke="#bbb" stroke-width="1" opacity="1"/><line transform="translate(2124,0)" x2="0" y2="5" stroke="#bbb" stroke-width="1" opacity="1"/><line transform="translate(2162,0)" x2="0" y2="5" stroke="#bbb" stroke-width="1" opacity="1"/><line transform="translate(2200,0)" x2="0" y2="5" stroke="#bbb" stroke-width="1" opacity="1"/><line transform="translate(2238,0)" x2="0" y2="5" stroke="#bbb" stroke-width="1" opacity="1"/><line transform="translate(2276,0)" x2="0" y2="5" stroke="#bbb" stroke-width="1" opacity="1"/></g><g class="mark-text role-axis-label" pointer-events="none"><text text-anchor="end" transform="translate(0,7) rotate(315) translate(0,9)" font-family="Segoe UI" font-size="11px" fill="#000" opacity="1">2025-09-08</text><text text-anchor="end" transform="translate(37.93333333333333,7) rotate(315) translate(0,9)" font-family="Segoe UI" font-size="11px" fill="#000" opacity="0">2025-09-09</text><text text-anchor="end" transform="translate(75.86666666666666,7) rotate(315) translate(0,9)" font-family="Segoe UI" font-size="11px" fill="#000" opacity="1">2025-09-10</text><text text-anchor="end" transform="translate(113.80000000000001,7) rotate(315) translate(0,9)" font-family="Segoe UI" font-size="11px" fill="#000" opacity="0">2025-09-11</text><text text-anchor="end" transform="translate(151.73333333333332,7) rotate(315) translate(0,9)" font-family="Segoe UI" font-size="11px" fill="#000" opacity="1">2025-09-12</text><text text-anchor="end" transform="translate(189.66666666666666,7) rotate(315) translate(0,9)" font-family="Segoe UI" font-size="11px" fill="#000" opacity="0">2025-09-13</text><text text-anchor="end" transform="translate(227.60000000000002,7) rotate(315) translate(0,9)" font-family="Segoe UI" font-size="11px" fill="#000" opacity="1">2025-09-14</text><text text-anchor="end" transform="translate(265.53333333333336,7) rotate(315) translate(0,9)" font-family="Segoe UI" font-size="11px" fill="#000" opacity="0">2025-09-15</text><text text-anchor="end" transform="translate(303.46666666666664,7) rotate(315) translate(0,9)" font-family="Segoe UI" font-size="11px" fill="#000" opacity="1">2025-09-16</text><text text-anchor="end" transform="translate(341.4,7) rotate(315) translate(0,9)" font-family="Segoe UI" font-size="11px" fill="#000" opacity="0">2025-09-17</text><text text-anchor="end" transform="translate(379.3333333333333,7) rotate(315) translate(0,9)" font-family="Segoe UI" font-size="11px" fill="#000" opacity="1">2025-09-18</text><text text-anchor="end" transform="translate(417.26666666666665,7) rotate(315) translate(0,9)" font-family="Segoe UI" font-size="11px" fill="#000" opacity="0">2025-09-19</text><text text-anchor="end" transform="translate(455.20000000000005,7) rotate(315) translate(0,9)" font-family="Segoe UI" font-size="11px" fill="#000" opacity="1">2025-09-20</text><text text-anchor="end" transform="translate(493.1333333333333,7) rotate(315) translate(0,9)" font-family="Segoe UI" font-size="11px" fill="#000" opacity="0">2025-09-21</text><text text-anchor="end" transform="translate(531.0666666666667,7) rotate(315) translate(0,9)" font-family="Segoe UI" font-size="11px" fill="#000" opacity="1">2025-09-22</text><text text-anchor="end" transform="translate(569,7) rotate(315) translate(0,9)" font-family="Segoe UI" font-size="11px" fill="#000" opacity="0">2025-09-23</text><text text-anchor="end" transform="translate(606.9333333333333,7) rotate(315) translate(0,9)" font-family="Segoe UI" font-size="11px" fill="#000" opacity="1">2025-09-24</text><text text-anchor="end" transform="translate(644.8666666666667,7) rotate(315) translate(0,9)" font-family="Segoe UI" font-size="11px" fill="#000" opacity="0">2025-09-25</text><text text-anchor="end" transform="translate(682.8,7) rotate(315) translate(0,9)" font-family="Segoe UI" font-size="11px" fill="#000" opacity="1">2025-09-26</text><text text-anchor="end" transform="translate(720.7333333333333,7) rotate(315) translate(0,9)" font-family="Segoe UI" font-size="11px" fill="#000" opacity="0">2025-09-27</text><text text-anchor="end" transform="translate(758.6666666666666,7) rotate(315) translate(0,9)" font-family="Segoe UI" font-size="11px" fill="#000" opacity="1">2025-09-28</text><text text-anchor="end" transform="translate(796.5999999999999,7) rotate(315) translate(0,9)" font-family="Segoe UI" font-size="11px" fill="#000" opacity="0">2025-09-29</text><text text-anchor="end" transform="translate(834.5333333333333,7) rotate(315) translate(0,9)" font-family="Segoe UI" font-size="11px" fill="#000" opacity="1">2025-09-30</text><text text-anchor="end" transform="translate(872.4666666666667,7) rotate(315) translate(0,9)" font-family="Segoe UI" font-size="11px" fill="#000" opacity="0">2025-10-01</text><text text-anchor="end" transform="translate(910.4000000000001,7) rotate(315) translate(0,9)" font-family="Segoe UI" font-size="11px" fill="#000" opacity="1">2025-10-02</text><text text-anchor="end" transform="translate(948.3333333333334,7) rotate(315) translate(0,9)" font-family="Segoe UI" font-size="11px" fill="#000" opacity="0">2025-10-03</text><text text-anchor="end" transform="translate(986.2666666666667,7) rotate(315) translate(0,9)" font-family="Segoe UI" font-size="11px" fill="#000" opacity="1">2025-10-04</text><text text-anchor="end" transform="translate(1024.2,7) rotate(315) translate(0,9)" font-family="Segoe UI" font-size="11px" fill="#000" opacity="0">2025-10-05</text><text text-anchor="end" transform="translate(1062.1333333333334,7) rotate(315) translate(0,9)" font-family="Segoe UI" font-size="11px" fill="#000" opacity="1">2025-10-06</text><text text-anchor="end" transform="translate(1100.0666666666666,7) rotate(315) translate(0,9)" font-family="Segoe UI" font-size="11px" fill="#000" opacity="0">2025-10-07</text><text text-anchor="end" transform="translate(1138,7) rotate(315) translate(0,9)" font-family="Segoe UI" font-size="11px" fill="#000" opacity="1">2025-10-08</text><text text-anchor="end" transform="translate(1175.9333333333334,7) rotate(315) translate(0,9)" font-family="Segoe UI" font-size="11px" fill="#000" opacity="0">2025-10-09</text><text text-anchor="end" transform="translate(1213.8666666666666,7) rotate(315) translate(0,9)" font-family="Segoe UI" font-size="11px" fill="#000" opacity="1">2025-10-10</text><text text-anchor="end" transform="translate(1251.8000000000002,7) rotate(315) translate(0,9)" font-family="Segoe UI" font-size="11px" fill="#000" opacity="0">2025-10-11</text><text text-anchor="end" transform="translate(1289.7333333333333,7) rotate(315) translate(0,9)" font-family="Segoe UI" font-size="11px" fill="#000" opacity="1">2025-10-12</text><text text-anchor="end" transform="translate(1327.6666666666667,7) rotate(315) translate(0,9)" font-family="Segoe UI" font-size="11px" fill="#000" opacity="0">2025-10-13</text><text text-anchor="end" transform="translate(1365.6,7) rotate(315) translate(0,9)" font-family="Segoe UI" font-size="11px" fill="#000" opacity="1">2025-10-14</text><text text-anchor="end" transform="translate(1403.5333333333333,7) rotate(315) translate(0,9)" font-family="Segoe UI" font-size="11px" fill="#000" opacity="0">2025-10-15</text><text text-anchor="end" transform="translate(1441.4666666666667,7) rotate(315) translate(0,9)" font-family="Segoe UI" font-size="11px" fill="#000" opacity="1">2025-10-16</text><text text-anchor="end" transform="translate(1479.4,7) rotate(315) translate(0,9)" font-family="Segoe UI" font-size="11px" fill="#000" opacity="0">2025-10-17</text><text text-anchor="end" transform="translate(1517.3333333333333,7) rotate(315) translate(0,9)" font-family="Segoe UI" font-size="11px" fill="#000" opacity="1">2025-10-18</text><text text-anchor="end" transform="translate(1555.2666666666667,7) rotate(315) translate(0,9)" font-family="Segoe UI" font-size="11px" fill="#000" opacity="0">2025-10-19</text><text text-anchor="end" transform="translate(1593.1999999999998,7) rotate(315) translate(0,9)" font-family="Segoe UI" font-size="11px" fill="#000" opacity="1">2025-10-20</text><text text-anchor="end" transform="translate(1631.1333333333334,7) rotate(315) translate(0,9)" font-family="Segoe UI" font-size="11px" fill="#000" opacity="0">2025-10-21</text><text text-anchor="end" transform="translate(1669.0666666666666,7) rotate(315) translate(0,9)" font-family="Segoe UI" font-size="11px" fill="#000" opacity="1">2025-10-22</text><text text-anchor="end" transform="translate(1707,7) rotate(315) translate(0,9)" font-family="Segoe UI" font-size="11px" fill="#000" opacity="0">2025-10-23</text><text text-anchor="end" transform="translate(1744.9333333333334,7) rotate(315) translate(0,9)" font-family="Segoe UI" font-size="11px" fill="#000" opacity="1">2025-10-24</text><text text-anchor="end" transform="translate(1782.8666666666666,7) rotate(315) translate(0,9)" font-family="Segoe UI" font-size="11px" fill="#000" opacity="0">2025-10-25</text><text text-anchor="end" transform="translate(1820.8000000000002,7) rotate(315) translate(0,9)" font-family="Segoe UI" font-size="11px" fill="#000" opacity="1">2025-10-26</text><text text-anchor="end" transform="translate(1858.7333333333333,7) rotate(315) translate(0,9)" font-family="Segoe UI" font-size="11px" fill="#000" opacity="0">2025-10-27</text><text text-anchor="end" transform="translate(1896.6666666666667,7) rotate(315) translate(0,9)" font-family="Segoe UI" font-size="11px" fill="#000" opacity="1">2025-10-28</text><text text-anchor="end" transform="translate(1934.6,7) rotate(315) translate(0,9)" font-family="Segoe UI" font-size="11px" fill="#000" opacity="0">2025-10-29</text><text text-anchor="end" transform="translate(1972.5333333333333,7) rotate(315) translate(0,9)" font-family="Segoe UI" font-size="11px" fill="#000" opacity="1">2025-10-30</text><text text-anchor="end" transform="translate(2010.4666666666667,7) rotate(315) translate(0,9)" font-family="Segoe UI" font-size="11px" fill="#000" opacity="0">2025-10-31</text><text text-anchor="end" transform="translate(2048.4,7) rotate(315) translate(0,9)" font-family="Segoe UI" font-size="11px" fill="#000" opacity="1">2025-11-01</text><text text-anchor="end" transform="translate(2086.333333333333,7) rotate(315) translate(0,9)" font-family="Segoe UI" font-size="11px" fill="#000" opacity="0">2025-11-02</text><text text-anchor="end" transform="translate(2124.266666666667,7) rotate(315) translate(0,9)" font-family="Segoe UI" font-size="11px" fill="#000" opacity="1">2025-11-03</text><text text-anchor="end" transform="translate(2162.2,7) rotate(315) translate(0,9)" font-family="Segoe UI" font-size="11px" fill="#000" opacity="0">2025-11-04</text><text text-anchor="end" transform="translate(2200.133333333333,7) rotate(315) translate(0,9)" font-family="Segoe UI" font-size="11px" fill="#000" opacity="1">2025-11-05</text><text text-anchor="end" transform="translate(2238.0666666666666,7) rotate(315) translate(0,9)" font-family="Segoe UI" font-size="11px" fill="#000" opacity="0">2025-11-06</text><text text-anchor="end" transform="translate(2276,7) rotate(315) translate(0,9)" font-family="Segoe UI" font-size="11px" fill="#000" opacity="1">2025-11-07</text></g><g class="mark-rule role-axis-domain" pointer-events="none"><line transform="translate(0,0)" x2="2276" y2="0" stroke="#888" stroke-width="1" opacity="1"/></g><g class="mark-text role-axis-title" pointer-events="none"><text text-anchor="middle" transform="translate(1138,73.9777658717112)" font-family="Segoe UI" font-size="13px" font-weight="bold" fill="#000" opacity="1">Date</text></g></g><path class="foreground" aria-hidden="true" d="" pointer-events="none" display="none"/></g></g><g class="mark-group role-axis" role="graphics-symbol" aria-roledescription="axis" aria-label="Y-axis titled 'Unique server names' for a linear scale with values from 0 to 55"><g transform="translate(0.5,0.5)"><path class="background" aria-hidden="true" d="M0,0h0v0h0Z" pointer-events="none"/><g><g class="mark-rule role-axis-tick" pointer-events="none"><line transform="translate(0,480)" x2="-5" y2="0" stroke="#bbb" stroke-width="1" opacity="1"/><line transform="translate(0,436)" x2="-5" y2="0" stroke="#bbb" stroke-width="1" opacity="1"/><line transform="translate(0,393)" x2="-5" y2="0" stroke="#bbb" stroke-width="1" opacity="1"/><line transform="translate(0,349)" x2="-5" y2="0" stroke="#bbb" stroke-width="1" opacity="1"/><line transform="translate(0,305)" x2="-5" y2="0" stroke="#bbb" stroke-width="1" opacity="1"/><line transform="translate(0,262)" x2="-5" y2="0" stroke="#bbb" stroke-width="1" opacity="1"/><line transform="translate(0,218)" x2="-5" y2="0" stroke="#bbb" stroke-width="1" opacity="1"/><line transform="translate(0,175)" x2="-5" y2="0" stroke="#bbb" stroke-width="1" opacity="1"/><line transform="translate(0,131)" x2="-5" y2="0" stroke="#bbb" stroke-width="1" opacity="1"/><line transform="translate(0,87)" x2="-5" y2="0" stroke="#bbb" stroke-width="1" opacity="1"/><line transform="translate(0,44)" x2="-5" y2="0" stroke="#bbb" stroke-width="1" opacity="1"/><line transform="translate(0,0)" x2="-5" y2="0" stroke="#bbb" stroke-width="1" opacity="1"/></g><g class="mark-text role-axis-label" pointer-events="none"><text text-anchor="end" transform="translate(-7,483)" font-family="Segoe UI" font-size="11px" fill="#000" opacity="1">0</text><text text-anchor="end" transform="translate(-7,439.3636363636364)" font-family="Segoe UI" font-size="11px" fill="#000" opacity="1">5</text><text text-anchor="end" transform="translate(-7,395.7272727272727)" font-family="Segoe UI" font-size="11px" fill="#000" opacity="1">10</text><text text-anchor="end" transform="translate(-7,352.0909090909091)" font-family="Segoe UI" font-size="11px" fill="#000" opacity="1">15</text><text text-anchor="end" transform="translate(-7,308.45454545454544)" font-family="Segoe UI" font-size="11px" fill="#000" opacity="1">20</text><text text-anchor="end" transform="translate(-7,264.8181818181818)" font-family="Segoe UI" font-size="11px" fill="#000" opacity="1">25</text><text text-anchor="end" transform="translate(-7,221.1818181818182)" font-family="Segoe UI" font-size="11px" fill="#000" opacity="1">30</text><text text-anchor="end" transform="translate(-7,177.54545454545456)" font-family="Segoe UI" font-size="11px" fill="#000" opacity="1">35</text><text text-anchor="end" transform="translate(-7,133.9090909090909)" font-family="Segoe UI" font-size="11px" fill="#000" opacity="1">40</text><text text-anchor="end" transform="translate(-7,90.27272727272725)" font-family="Segoe UI" font-size="11px" fill="#000" opacity="1">45</text><text text-anchor="end" transform="translate(-7,46.636363636363654)" font-family="Segoe UI" font-size="11px" fill="#000" opacity="1">50</text><text text-anchor="end" transform="translate(-7,3)" font-family="Segoe UI" font-size="11px" fill="#000" opacity="1">55</text></g><g class="mark-rule role-axis-domain" pointer-events="none"><line transform="translate(0,480)" x2="0" y2="-480" stroke="#888" stroke-width="1" opacity="1"/></g><g class="mark-text role-axis-title" pointer-events="none"><text text-anchor="middle" transform="translate(-24.99609375,240) rotate(-90) translate(0,-3)" font-family="Segoe UI" font-size="13px" font-weight="bold" fill="#000" opacity="1">Unique server names</text></g></g><path class="foreground" aria-hidden="true" d="" pointer-events="none" display="none"/></g></g><g class="mark-area role-mark layer_0_marks" role="graphics-object" aria-roledescription="area mark container" pointer-events="none"><path aria-label="date: 2025-09-08; count: 1" role="graphics-symbol" aria-roledescription="area mark" d="M0,471.273C12.644,240,25.289,8.727,37.933,8.727C50.578,8.727,63.222,17.455,75.867,34.909C88.511,52.364,101.156,142.545,113.8,165.818C126.444,189.091,139.089,177.455,151.733,200.727C164.378,224,177.022,293.818,189.667,305.455C202.311,317.091,214.956,322.909,227.6,322.909C240.244,322.909,252.889,273.455,265.533,261.818C278.178,250.182,290.822,256,303.467,244.364C316.111,232.727,328.756,151.273,341.4,139.636C354.044,128,366.689,122.182,379.333,122.182C391.978,122.182,404.622,212.364,417.267,235.636C429.911,258.909,442.556,251.636,455.2,270.545C467.844,289.455,480.489,349.091,493.133,349.091C505.778,349.091,518.422,343.273,531.067,340.364C543.711,337.455,556.356,334.545,569,331.636C581.644,328.727,594.289,322.909,606.933,322.909C619.578,322.909,632.222,384,644.867,384C657.511,384,670.156,261.818,682.8,261.818C695.444,261.818,708.089,418.909,720.733,418.909C733.378,418.909,746.022,398.545,758.667,357.818C771.311,317.091,783.956,148.364,796.6,148.364C809.244,148.364,821.889,202.182,834.533,244.364C847.178,286.545,859.822,401.455,872.467,401.455C885.111,401.455,897.756,165.818,910.4,165.818C923.044,165.818,935.689,253.091,948.333,253.091C960.978,253.091,973.622,253.091,986.267,253.091C998.911,253.091,1011.556,340.364,1024.2,340.364C1036.844,340.364,1049.489,327.273,1062.133,305.455C1074.778,283.636,1087.422,209.455,1100.067,209.455C1112.711,209.455,1125.356,229.818,1138,253.091C1150.644,276.364,1163.289,349.091,1175.933,349.091C1188.578,349.091,1201.222,314.182,1213.867,314.182C1226.511,314.182,1239.156,401.455,1251.8,401.455C1264.444,401.455,1277.089,349.091,1289.733,349.091C1302.378,349.091,1315.022,349.091,1327.667,349.091C1340.311,349.091,1352.956,366.545,1365.6,366.545C1378.244,366.545,1390.889,314.182,1403.533,314.182C1416.178,314.182,1428.822,330.182,1441.467,340.364C1454.111,350.545,1466.756,356.364,1479.4,375.273C1492.044,394.182,1504.689,453.818,1517.333,453.818C1529.978,453.818,1542.622,442.182,1555.267,427.636C1567.911,413.091,1580.556,366.545,1593.2,366.545C1605.844,366.545,1618.489,392.727,1631.133,392.727C1643.778,392.727,1656.422,331.636,1669.067,331.636C1681.711,331.636,1694.356,375.273,1707,375.273C1719.644,375.273,1732.289,370.909,1744.933,366.545C1757.578,362.182,1770.222,349.091,1782.867,349.091C1795.511,349.091,1808.156,392.727,1820.8,392.727C1833.444,392.727,1846.089,375.273,1858.733,349.091C1871.378,322.909,1884.022,235.636,1896.667,235.636C1909.311,235.636,1921.956,392.727,1934.6,392.727C1947.244,392.727,1959.889,359.273,1972.533,349.091C1985.178,338.909,1997.822,331.636,2010.467,331.636C2023.111,331.636,2035.756,436.364,2048.4,436.364C2061.044,436.364,2073.689,386.909,2086.333,375.273C2098.978,363.636,2111.622,357.818,2124.267,357.818C2136.911,357.818,2149.556,386.909,2162.2,392.727C2174.844,398.545,2187.489,401.455,2200.133,401.455C2212.778,401.455,2225.422,401.455,2238.067,401.455C2250.711,401.455,2263.356,423.273,2276,445.091L2276,480C2263.356,480,2250.711,480,2238.067,480C2225.422,480,2212.778,480,2200.133,480C2187.489,480,2174.844,480,2162.2,480C2149.556,480,2136.911,480,2124.267,480C2111.622,480,2098.978,480,2086.333,480C2073.689,480,2061.044,480,2048.4,480C2035.756,480,2023.111,480,2010.467,480C1997.822,480,1985.178,480,1972.533,480C1959.889,480,1947.244,480,1934.6,480C1921.956,480,1909.311,480,1896.667,480C1884.022,480,1871.378,480,1858.733,480C1846.089,480,1833.444,480,1820.8,480C1808.156,480,1795.511,480,1782.867,480C1770.222,480,1757.578,480,1744.933,480C1732.289,480,1719.644,480,1707,480C1694.356,480,1681.711,480,1669.067,480C1656.422,480,1643.778,480,1631.133,480C1618.489,480,1605.844,480,1593.2,480C1580.556,480,1567.911,480,1555.267,480C1542.622,480,1529.978,480,1517.333,480C1504.689,480,1492.044,480,1479.4,480C1466.756,480,1454.111,480,1441.467,480C1428.822,480,1416.178,480,1403.533,480C1390.889,480,1378.244,480,1365.6,480C1352.956,480,1340.311,480,1327.667,480C1315.022,480,1302.378,480,1289.733,480C1277.089,480,1264.444,480,1251.8,480C1239.156,480,1226.511,480,1213.867,480C1201.222,480,1188.578,480,1175.933,480C1163.289,480,1150.644,480,1138,480C1125.356,480,1112.711,480,1100.067,480C1087.422,480,1074.778,480,1062.133,480C1049.489,480,1036.844,480,1024.2,480C1011.556,480,998.911,480,986.267,480C973.622,480,960.978,480,948.333,480C935.689,480,923.044,480,910.4,480C897.756,480,885.111,480,872.467,480C859.822,480,847.178,480,834.533,480C821.889,480,809.244,480,796.6,480C783.956,480,771.311,480,758.667,480C746.022,480,733.378,480,720.733,480C708.089,480,695.444,480,682.8,480C670.156,480,657.511,480,644.867,480C632.222,480,619.578,480,606.933,480C594.289,480,581.644,480,569,480C556.356,480,543.711,480,531.067,480C518.422,480,505.778,480,493.133,480C480.489,480,467.844,480,455.2,480C442.556,480,429.911,480,417.267,480C404.622,480,391.978,480,379.333,480C366.689,480,354.044,480,341.4,480C328.756,480,316.111,480,303.467,480C290.822,480,278.178,480,265.533,480C252.889,480,240.244,480,227.6,480C214.956,480,202.311,480,189.667,480C177.022,480,164.378,480,151.733,480C139.089,480,126.444,480,113.8,480C101.156,480,88.511,480,75.867,480C63.222,480,50.578,480,37.933,480C25.289,480,12.644,480,0,480Z" fill="#4e79a7" opacity="0.18"/></g><g class="mark-line role-mark layer_1_marks" role="graphics-object" aria-roledescription="line mark container" pointer-events="none"><path aria-label="date: Sep 08, 2025; count: 1" role="graphics-symbol" aria-roledescription="line mark" d="M0,471.273C12.644,240,25.289,8.727,37.933,8.727C50.578,8.727,63.222,17.455,75.867,34.909C88.511,52.364,101.156,142.545,113.8,165.818C126.444,189.091,139.089,177.455,151.733,200.727C164.378,224,177.022,293.818,189.667,305.455C202.311,317.091,214.956,322.909,227.6,322.909C240.244,322.909,252.889,273.455,265.533,261.818C278.178,250.182,290.822,256,303.467,244.364C316.111,232.727,328.756,151.273,341.4,139.636C354.044,128,366.689,122.182,379.333,122.182C391.978,122.182,404.622,212.364,417.267,235.636C429.911,258.909,442.556,251.636,455.2,270.545C467.844,289.455,480.489,349.091,493.133,349.091C505.778,349.091,518.422,343.273,531.067,340.364C543.711,337.455,556.356,334.545,569,331.636C581.644,328.727,594.289,322.909,606.933,322.909C619.578,322.909,632.222,384,644.867,384C657.511,384,670.156,261.818,682.8,261.818C695.444,261.818,708.089,418.909,720.733,418.909C733.378,418.909,746.022,398.545,758.667,357.818C771.311,317.091,783.956,148.364,796.6,148.364C809.244,148.364,821.889,202.182,834.533,244.364C847.178,286.545,859.822,401.455,872.467,401.455C885.111,401.455,897.756,165.818,910.4,165.818C923.044,165.818,935.689,253.091,948.333,253.091C960.978,253.091,973.622,253.091,986.267,253.091C998.911,253.091,1011.556,340.364,1024.2,340.364C1036.844,340.364,1049.489,327.273,1062.133,305.455C1074.778,283.636,1087.422,209.455,1100.067,209.455C1112.711,209.455,1125.356,229.818,1138,253.091C1150.644,276.364,1163.289,349.091,1175.933,349.091C1188.578,349.091,1201.222,314.182,1213.867,314.182C1226.511,314.182,1239.156,401.455,1251.8,401.455C1264.444,401.455,1277.089,349.091,1289.733,349.091C1302.378,349.091,1315.022,349.091,1327.667,349.091C1340.311,349.091,1352.956,366.545,1365.6,366.545C1378.244,366.545,1390.889,314.182,1403.533,314.182C1416.178,314.182,1428.822,330.182,1441.467,340.364C1454.111,350.545,1466.756,356.364,1479.4,375.273C1492.044,394.182,1504.689,453.818,1517.333,453.818C1529.978,453.818,1542.622,442.182,1555.267,427.636C1567.911,413.091,1580.556,366.545,1593.2,366.545C1605.844,366.545,1618.489,392.727,1631.133,392.727C1643.778,392.727,1656.422,331.636,1669.067,331.636C1681.711,331.636,1694.356,375.273,1707,375.273C1719.644,375.273,1732.289,370.909,1744.933,366.545C1757.578,362.182,1770.222,349.091,1782.867,349.091C1795.511,349.091,1808.156,392.727,1820.8,392.727C1833.444,392.727,1846.089,375.273,1858.733,349.091C1871.378,322.909,1884.022,235.636,1896.667,235.636C1909.311,235.636,1921.956,392.727,1934.6,392.727C1947.244,392.727,1959.889,359.273,1972.533,349.091C1985.178,338.909,1997.822,331.636,2010.467,331.636C2023.111,331.636,2035.756,436.364,2048.4,436.364C2061.044,436.364,2073.689,386.909,2086.333,375.273C2098.978,363.636,2111.622,357.818,2124.267,357.818C2136.911,357.818,2149.556,386.909,2162.2,392.727C2174.844,398.545,2187.489,401.455,2200.133,401.455C2212.778,401.455,2225.422,401.455,2238.067,401.455C2250.711,401.455,2263.356,423.273,2276,445.091" stroke="#4e79a7" stroke-width="2"/></g><g class="mark-line role-mark layer_2_marks" role="graphics-object" aria-roledescription="line mark container" pointer-events="none"><path aria-label="date: Sep 08, 2025; ma7: 1" role="graphics-symbol" aria-roledescription="line mark" d="M0,471.273C12.644,378.424,25.289,285.576,37.933,240C50.578,194.424,63.222,172.606,75.867,171.636C88.511,170.667,101.156,170.182,113.8,170.182C126.444,170.182,139.089,172.218,151.733,176.291C164.378,180.364,177.022,191.252,189.667,197.818C202.311,204.384,214.956,215.688,227.6,215.688C240.244,215.688,252.889,185.766,265.533,185.766C278.178,185.766,290.822,211.325,303.467,219.429C316.111,227.532,328.756,234.39,341.4,234.39C354.044,234.39,366.689,228.156,379.333,228.156C391.978,228.156,404.622,233.143,417.267,233.143C429.911,233.143,442.556,228.156,455.2,228.156C467.844,228.156,480.489,229.403,493.133,231.896C505.778,234.39,518.422,239.169,531.067,243.117C543.711,247.065,556.356,249.143,569,255.584C581.644,262.026,594.289,271.169,606.933,281.766C619.578,292.364,632.222,316.675,644.867,319.169C657.511,321.662,670.156,320.416,682.8,322.909C695.444,325.403,708.089,343.273,720.733,344.104C733.378,344.935,746.022,345.351,758.667,345.351C771.311,345.351,783.956,324.571,796.6,317.922C809.244,311.273,821.889,305.455,834.533,305.455C847.178,305.455,859.822,316.675,872.467,316.675C885.111,316.675,897.756,286.338,910.4,285.506C923.044,284.675,935.689,285.091,948.333,284.26C960.978,283.429,973.622,262.234,986.267,260.571C998.911,258.909,1011.556,258.078,1024.2,258.078C1036.844,258.078,1049.489,280.519,1062.133,280.519C1074.778,280.519,1087.422,278.857,1100.067,275.532C1112.711,272.208,1125.356,254.338,1138,254.338C1150.644,254.338,1163.289,274.701,1175.933,280.519C1188.578,286.338,1201.222,284.26,1213.867,289.247C1226.511,294.234,1239.156,309.61,1251.8,310.442C1264.444,311.273,1277.089,310.857,1289.733,311.688C1302.378,312.519,1315.022,313.766,1327.667,317.922C1340.311,322.078,1352.956,335.169,1365.6,340.364C1378.244,345.558,1390.889,349.091,1403.533,349.091C1416.178,349.091,1428.822,347.844,1441.467,347.844C1454.111,347.844,1466.756,353.87,1479.4,356.571C1492.044,359.273,1504.689,360.935,1517.333,364.052C1529.978,367.169,1542.622,373.61,1555.267,375.273C1567.911,376.935,1580.556,376.727,1593.2,377.766C1605.844,378.805,1618.489,380.468,1631.133,381.506C1643.778,382.545,1656.422,382.753,1669.067,384C1681.711,385.247,1694.356,388.987,1707,388.987C1719.644,388.987,1732.289,388.571,1744.933,387.74C1757.578,386.909,1770.222,376.104,1782.867,372.779C1795.511,369.455,1808.156,369.039,1820.8,367.792C1833.444,366.545,1846.089,366.961,1858.733,365.299C1871.378,363.636,1884.022,342.857,1896.667,342.857C1909.311,342.857,1921.956,351.584,1934.6,351.584C1947.244,351.584,1959.889,349.299,1972.533,347.844C1985.178,346.39,1997.822,342.857,2010.467,342.857C2023.111,342.857,2035.756,355.325,2048.4,355.325C2061.044,355.325,2073.689,352.831,2086.333,352.831C2098.978,352.831,2111.622,353.247,2124.267,354.078C2136.911,354.909,2149.556,375.688,2162.2,376.519C2174.844,377.351,2187.489,376.935,2200.133,377.766C2212.778,378.597,2225.422,381.299,2238.067,385.247C2250.711,389.195,2263.356,395.325,2276,401.455" stroke="#d62728" stroke-width="2" stroke-dasharray="6,4"/></g><g class="mark-symbol role-mark layer_3_marks" role="graphics-object" aria-roledescription="symbol mark container"><path aria-label="date: Sep 08, 2025; count: 1; Date: Sep 08, 2025; Daily unique: 1; 7d avg: 1" role="graphics-symbol" aria-roledescription="point" transform="translate(0,471.27272727272725)" d="M3.536,0A3.536,3.536,0,1,1,-3.536,0A3.536,3.536,0,1,1,3.536,0" fill="#4e79a7" stroke-width="2" opacity="0.55"/><path aria-label="date: Sep 09, 2025; count: 54; Date: Sep 09, 2025; Daily unique: 54; 7d avg: 27.5" role="graphics-symbol" aria-roledescription="point" transform="translate(37.93333333333333,8.72727272727273)" d="M3.536,0A3.536,3.536,0,1,1,-3.536,0A3.536,3.536,0,1,1,3.536,0" fill="#4e79a7" stroke-width="2" opacity="0.55"/><path aria-label="date: Sep 10, 2025; count: 51; Date: Sep 10, 2025; Daily unique: 51; 7d avg: 35.3333333333" role="graphics-symbol" aria-roledescription="point" transform="translate(75.86666666666666,34.90909090909092)" d="M3.536,0A3.536,3.536,0,1,1,-3.536,0A3.536,3.536,0,1,1,3.536,0" fill="#4e79a7" stroke-width="2" opacity="0.55"/><path aria-label="date: Sep 11, 2025; count: 36; Date: Sep 11, 2025; Daily unique: 36; 7d avg: 35.5" role="graphics-symbol" aria-roledescription="point" transform="translate(113.80000000000001,165.8181818181818)" d="M3.536,0A3.536,3.536,0,1,1,-3.536,0A3.536,3.536,0,1,1,3.536,0" fill="#4e79a7" stroke-width="2" opacity="0.55"/><path aria-label="date: Sep 12, 2025; count: 32; Date: Sep 12, 2025; Daily unique: 32; 7d avg: 34.8" role="graphics-symbol" aria-roledescription="point" transform="translate(151.73333333333332,200.72727272727275)" d="M3.536,0A3.536,3.536,0,1,1,-3.536,0A3.536,3.536,0,1,1,3.536,0" fill="#4e79a7" stroke-width="2" opacity="0.55"/><path aria-label="date: Sep 13, 2025; count: 20; Date: Sep 13, 2025; Daily unique: 20; 7d avg: 32.3333333333" role="graphics-symbol" aria-roledescription="point" transform="translate(189.66666666666666,305.45454545454544)" d="M3.536,0A3.536,3.536,0,1,1,-3.536,0A3.536,3.536,0,1,1,3.536,0" fill="#4e79a7" stroke-width="2" opacity="0.55"/><path aria-label="date: Sep 14, 2025; count: 18; Date: Sep 14, 2025; Daily unique: 18; 7d avg: 30.2857142857" role="graphics-symbol" aria-roledescription="point" transform="translate(227.60000000000002,322.90909090909093)" d="M3.536,0A3.536,3.536,0,1,1,-3.536,0A3.536,3.536,0,1,1,3.536,0" fill="#4e79a7" stroke-width="2" opacity="0.55"/><path aria-label="date: Sep 15, 2025; count: 25; Date: Sep 15, 2025; Daily unique: 25; 7d avg: 33.7142857143" role="graphics-symbol" aria-roledescription="point" transform="translate(265.53333333333336,261.8181818181818)" d="M3.536,0A3.536,3.536,0,1,1,-3.536,0A3.536,3.536,0,1,1,3.536,0" fill="#4e79a7" stroke-width="2" opacity="0.55"/><path aria-label="date: Sep 16, 2025; count: 27; Date: Sep 16, 2025; Daily unique: 27; 7d avg: 29.8571428571" role="graphics-symbol" aria-roledescription="point" transform="translate(303.46666666666664,244.36363636363635)" d="M3.536,0A3.536,3.536,0,1,1,-3.536,0A3.536,3.536,0,1,1,3.536,0" fill="#4e79a7" stroke-width="2" opacity="0.55"/><path aria-label="date: Sep 17, 2025; count: 39; Date: Sep 17, 2025; Daily unique: 39; 7d avg: 28.1428571429" role="graphics-symbol" aria-roledescription="point" transform="translate(341.4,139.63636363636363)" d="M3.536,0A3.536,3.536,0,1,1,-3.536,0A3.536,3.536,0,1,1,3.536,0" fill="#4e79a7" stroke-width="2" opacity="0.55"/><path aria-label="date: Sep 18, 2025; count: 41; Date: Sep 18, 2025; Daily unique: 41; 7d avg: 28.8571428571" role="graphics-symbol" aria-roledescription="point" transform="translate(379.3333333333333,122.18181818181817)" d="M3.536,0A3.536,3.536,0,1,1,-3.536,0A3.536,3.536,0,1,1,3.536,0" fill="#4e79a7" stroke-width="2" opacity="0.55"/><path aria-label="date: Sep 19, 2025; count: 28; Date: Sep 19, 2025; Daily unique: 28; 7d avg: 28.2857142857" role="graphics-symbol" aria-roledescription="point" transform="translate(417.26666666666665,235.63636363636365)" d="M3.536,0A3.536,3.536,0,1,1,-3.536,0A3.536,3.536,0,1,1,3.536,0" fill="#4e79a7" stroke-width="2" opacity="0.55"/><path aria-label="date: Sep 20, 2025; count: 24; Date: Sep 20, 2025; Daily unique: 24; 7d avg: 28.8571428571" role="graphics-symbol" aria-roledescription="point" transform="translate(455.20000000000005,270.54545454545456)" d="M3.536,0A3.536,3.536,0,1,1,-3.536,0A3.536,3.536,0,1,1,3.536,0" fill="#4e79a7" stroke-width="2" opacity="0.55"/><path aria-label="date: Sep 21, 2025; count: 15; Date: Sep 21, 2025; Daily unique: 15; 7d avg: 28.4285714286" role="graphics-symbol" aria-roledescription="point" transform="translate(493.1333333333333,349.0909090909091)" d="M3.536,0A3.536,3.536,0,1,1,-3.536,0A3.536,3.536,0,1,1,3.536,0" fill="#4e79a7" stroke-width="2" opacity="0.55"/><path aria-label="date: Sep 22, 2025; count: 16; Date: Sep 22, 2025; Daily unique: 16; 7d avg: 27.1428571429" role="graphics-symbol" aria-roledescription="point" transform="translate(531.0666666666667,340.3636363636364)" d="M3.536,0A3.536,3.536,0,1,1,-3.536,0A3.536,3.536,0,1,1,3.536,0" fill="#4e79a7" stroke-width="2" opacity="0.55"/><path aria-label="date: Sep 23, 2025; count: 17; Date: Sep 23, 2025; Daily unique: 17; 7d avg: 25.7142857143" role="graphics-symbol" aria-roledescription="point" transform="translate(569,331.6363636363636)" d="M3.536,0A3.536,3.536,0,1,1,-3.536,0A3.536,3.536,0,1,1,3.536,0" fill="#4e79a7" stroke-width="2" opacity="0.55"/><path aria-label="date: Sep 24, 2025; count: 18; Date: Sep 24, 2025; Daily unique: 18; 7d avg: 22.7142857143" role="graphics-symbol" aria-roledescription="point" transform="translate(606.9333333333333,322.90909090909093)" d="M3.536,0A3.536,3.536,0,1,1,-3.536,0A3.536,3.536,0,1,1,3.536,0" fill="#4e79a7" stroke-width="2" opacity="0.55"/><path aria-label="date: Sep 25, 2025; count: 11; Date: Sep 25, 2025; Daily unique: 11; 7d avg: 18.4285714286" role="graphics-symbol" aria-roledescription="point" transform="translate(644.8666666666667,384)" d="M3.536,0A3.536,3.536,0,1,1,-3.536,0A3.536,3.536,0,1,1,3.536,0" fill="#4e79a7" stroke-width="2" opacity="0.55"/><path aria-label="date: Sep 26, 2025; count: 25; Date: Sep 26, 2025; Daily unique: 25; 7d avg: 18" role="graphics-symbol" aria-roledescription="point" transform="translate(682.8,261.8181818181818)" d="M3.536,0A3.536,3.536,0,1,1,-3.536,0A3.536,3.536,0,1,1,3.536,0" fill="#4e79a7" stroke-width="2" opacity="0.55"/><path aria-label="date: Sep 27, 2025; count: 7; Date: Sep 27, 2025; Daily unique: 7; 7d avg: 15.5714285714" role="graphics-symbol" aria-roledescription="point" transform="translate(720.7333333333333,418.90909090909093)" d="M3.536,0A3.536,3.536,0,1,1,-3.536,0A3.536,3.536,0,1,1,3.536,0" fill="#4e79a7" stroke-width="2" opacity="0.55"/><path aria-label="date: Sep 28, 2025; count: 14; Date: Sep 28, 2025; Daily unique: 14; 7d avg: 15.4285714286" role="graphics-symbol" aria-roledescription="point" transform="translate(758.6666666666666,357.8181818181818)" d="M3.536,0A3.536,3.536,0,1,1,-3.536,0A3.536,3.536,0,1,1,3.536,0" fill="#4e79a7" stroke-width="2" opacity="0.55"/><path aria-label="date: Sep 29, 2025; count: 38; Date: Sep 29, 2025; Daily unique: 38; 7d avg: 18.5714285714" role="graphics-symbol" aria-roledescription="point" transform="translate(796.5999999999999,148.36363636363637)" d="M3.536,0A3.536,3.536,0,1,1,-3.536,0A3.536,3.536,0,1,1,3.536,0" fill="#4e79a7" stroke-width="2" opacity="0.55"/><path aria-label="date: Sep 30, 2025; count: 27; Date: Sep 30, 2025; Daily unique: 27; 7d avg: 20" role="graphics-symbol" aria-roledescription="point" transform="translate(834.5333333333333,244.36363636363635)" d="M3.536,0A3.536,3.536,0,1,1,-3.536,0A3.536,3.536,0,1,1,3.536,0" fill="#4e79a7" stroke-width="2" opacity="0.55"/><path aria-label="date: Oct 01, 2025; count: 9; Date: Oct 01, 2025; Daily unique: 9; 7d avg: 18.7142857143" role="graphics-symbol" aria-roledescription="point" transform="translate(872.4666666666667,401.4545454545455)" d="M3.536,0A3.536,3.536,0,1,1,-3.536,0A3.536,3.536,0,1,1,3.536,0" fill="#4e79a7" stroke-width="2" opacity="0.55"/><path aria-label="date: Oct 02, 2025; count: 36; Date: Oct 02, 2025; Daily unique: 36; 7d avg: 22.2857142857" role="graphics-symbol" aria-roledescription="point" transform="translate(910.4000000000001,165.8181818181818)" d="M3.536,0A3.536,3.536,0,1,1,-3.536,0A3.536,3.536,0,1,1,3.536,0" fill="#4e79a7" stroke-width="2" opacity="0.55"/><path aria-label="date: Oct 03, 2025; count: 26; Date: Oct 03, 2025; Daily unique: 26; 7d avg: 22.4285714286" role="graphics-symbol" aria-roledescription="point" transform="translate(948.3333333333334,253.09090909090912)" d="M3.536,0A3.536,3.536,0,1,1,-3.536,0A3.536,3.536,0,1,1,3.536,0" fill="#4e79a7" stroke-width="2" opacity="0.55"/><path aria-label="date: Oct 04, 2025; count: 26; Date: Oct 04, 2025; Daily unique: 26; 7d avg: 25.1428571429" role="graphics-symbol" aria-roledescription="point" transform="translate(986.2666666666667,253.09090909090912)" d="M3.536,0A3.536,3.536,0,1,1,-3.536,0A3.536,3.536,0,1,1,3.536,0" fill="#4e79a7" stroke-width="2" opacity="0.55"/><path aria-label="date: Oct 05, 2025; count: 16; Date: Oct 05, 2025; Daily unique: 16; 7d avg: 25.4285714286" role="graphics-symbol" aria-roledescription="point" transform="translate(1024.2,340.3636363636364)" d="M3.536,0A3.536,3.536,0,1,1,-3.536,0A3.536,3.536,0,1,1,3.536,0" fill="#4e79a7" stroke-width="2" opacity="0.55"/><path aria-label="date: Oct 06, 2025; count: 20; Date: Oct 06, 2025; Daily unique: 20; 7d avg: 22.8571428571" role="graphics-symbol" aria-roledescription="point" transform="translate(1062.1333333333334,305.45454545454544)" d="M3.536,0A3.536,3.536,0,1,1,-3.536,0A3.536,3.536,0,1,1,3.536,0" fill="#4e79a7" stroke-width="2" opacity="0.55"/><path aria-label="date: Oct 07, 2025; count: 31; Date: Oct 07, 2025; Daily unique: 31; 7d avg: 23.4285714286" role="graphics-symbol" aria-roledescription="point" transform="translate(1100.0666666666666,209.45454545454547)" d="M3.536,0A3.536,3.536,0,1,1,-3.536,0A3.536,3.536,0,1,1,3.536,0" fill="#4e79a7" stroke-width="2" opacity="0.55"/><path aria-label="date: Oct 08, 2025; count: 26; Date: Oct 08, 2025; Daily unique: 26; 7d avg: 25.8571428571" role="graphics-symbol" aria-roledescription="point" transform="translate(1138,253.09090909090912)" d="M3.536,0A3.536,3.536,0,1,1,-3.536,0A3.536,3.536,0,1,1,3.536,0" fill="#4e79a7" stroke-width="2" opacity="0.55"/><path aria-label="date: Oct 09, 2025; count: 15; Date: Oct 09, 2025; Daily unique: 15; 7d avg: 22.8571428571" role="graphics-symbol" aria-roledescription="point" transform="translate(1175.9333333333334,349.0909090909091)" d="M3.536,0A3.536,3.536,0,1,1,-3.536,0A3.536,3.536,0,1,1,3.536,0" fill="#4e79a7" stroke-width="2" opacity="0.55"/><path aria-label="date: Oct 10, 2025; count: 19; Date: Oct 10, 2025; Daily unique: 19; 7d avg: 21.8571428571" role="graphics-symbol" aria-roledescription="point" transform="translate(1213.8666666666666,314.1818181818182)" d="M3.536,0A3.536,3.536,0,1,1,-3.536,0A3.536,3.536,0,1,1,3.536,0" fill="#4e79a7" stroke-width="2" opacity="0.55"/><path aria-label="date: Oct 11, 2025; count: 9; Date: Oct 11, 2025; Daily unique: 9; 7d avg: 19.4285714286" role="graphics-symbol" aria-roledescription="point" transform="translate(1251.8000000000002,401.4545454545455)" d="M3.536,0A3.536,3.536,0,1,1,-3.536,0A3.536,3.536,0,1,1,3.536,0" fill="#4e79a7" stroke-width="2" opacity="0.55"/><path aria-label="date: Oct 12, 2025; count: 15; Date: Oct 12, 2025; Daily unique: 15; 7d avg: 19.2857142857" role="graphics-symbol" aria-roledescription="point" transform="translate(1289.7333333333333,349.0909090909091)" d="M3.536,0A3.536,3.536,0,1,1,-3.536,0A3.536,3.536,0,1,1,3.536,0" fill="#4e79a7" stroke-width="2" opacity="0.55"/><path aria-label="date: Oct 13, 2025; count: 15; Date: Oct 13, 2025; Daily unique: 15; 7d avg: 18.5714285714" role="graphics-symbol" aria-roledescription="point" transform="translate(1327.6666666666667,349.0909090909091)" d="M3.536,0A3.536,3.536,0,1,1,-3.536,0A3.536,3.536,0,1,1,3.536,0" fill="#4e79a7" stroke-width="2" opacity="0.55"/><path aria-label="date: Oct 14, 2025; count: 13; Date: Oct 14, 2025; Daily unique: 13; 7d avg: 16" role="graphics-symbol" aria-roledescription="point" transform="translate(1365.6,366.54545454545456)" d="M3.536,0A3.536,3.536,0,1,1,-3.536,0A3.536,3.536,0,1,1,3.536,0" fill="#4e79a7" stroke-width="2" opacity="0.55"/><path aria-label="date: Oct 15, 2025; count: 19; Date: Oct 15, 2025; Daily unique: 19; 7d avg: 15" role="graphics-symbol" aria-roledescription="point" transform="translate(1403.5333333333333,314.1818181818182)" d="M3.536,0A3.536,3.536,0,1,1,-3.536,0A3.536,3.536,0,1,1,3.536,0" fill="#4e79a7" stroke-width="2" opacity="0.55"/><path aria-label="date: Oct 16, 2025; count: 16; Date: Oct 16, 2025; Daily unique: 16; 7d avg: 15.1428571429" role="graphics-symbol" aria-roledescription="point" transform="translate(1441.4666666666667,340.3636363636364)" d="M3.536,0A3.536,3.536,0,1,1,-3.536,0A3.536,3.536,0,1,1,3.536,0" fill="#4e79a7" stroke-width="2" opacity="0.55"/><path aria-label="date: Oct 17, 2025; count: 12; Date: Oct 17, 2025; Daily unique: 12; 7d avg: 14.1428571429" role="graphics-symbol" aria-roledescription="point" transform="translate(1479.4,375.2727272727273)" d="M3.536,0A3.536,3.536,0,1,1,-3.536,0A3.536,3.536,0,1,1,3.536,0" fill="#4e79a7" stroke-width="2" opacity="0.55"/><path aria-label="date: Oct 18, 2025; count: 3; Date: Oct 18, 2025; Daily unique: 3; 7d avg: 13.2857142857" role="graphics-symbol" aria-roledescription="point" transform="translate(1517.3333333333333,453.8181818181818)" d="M3.536,0A3.536,3.536,0,1,1,-3.536,0A3.536,3.536,0,1,1,3.536,0" fill="#4e79a7" stroke-width="2" opacity="0.55"/><path aria-label="date: Oct 19, 2025; count: 6; Date: Oct 19, 2025; Daily unique: 6; 7d avg: 12" role="graphics-symbol" aria-roledescription="point" transform="translate(1555.2666666666667,427.6363636363636)" d="M3.536,0A3.536,3.536,0,1,1,-3.536,0A3.536,3.536,0,1,1,3.536,0" fill="#4e79a7" stroke-width="2" opacity="0.55"/><path aria-label="date: Oct 20, 2025; count: 13; Date: Oct 20, 2025; Daily unique: 13; 7d avg: 11.7142857143" role="graphics-symbol" aria-roledescription="point" transform="translate(1593.1999999999998,366.54545454545456)" d="M3.536,0A3.536,3.536,0,1,1,-3.536,0A3.536,3.536,0,1,1,3.536,0" fill="#4e79a7" stroke-width="2" opacity="0.55"/><path aria-label="date: Oct 21, 2025; count: 10; Date: Oct 21, 2025; Daily unique: 10; 7d avg: 11.2857142857" role="graphics-symbol" aria-roledescription="point" transform="translate(1631.1333333333334,392.7272727272727)" d="M3.536,0A3.536,3.536,0,1,1,-3.536,0A3.536,3.536,0,1,1,3.536,0" fill="#4e79a7" stroke-width="2" opacity="0.55"/><path aria-label="date: Oct 22, 2025; count: 17; Date: Oct 22, 2025; Daily unique: 17; 7d avg: 11" role="graphics-symbol" aria-roledescription="point" transform="translate(1669.0666666666666,331.6363636363636)" d="M3.536,0A3.536,3.536,0,1,1,-3.536,0A3.536,3.536,0,1,1,3.536,0" fill="#4e79a7" stroke-width="2" opacity="0.55"/><path aria-label="date: Oct 23, 2025; count: 12; Date: Oct 23, 2025; Daily unique: 12; 7d avg: 10.4285714286" role="graphics-symbol" aria-roledescription="point" transform="translate(1707,375.2727272727273)" d="M3.536,0A3.536,3.536,0,1,1,-3.536,0A3.536,3.536,0,1,1,3.536,0" fill="#4e79a7" stroke-width="2" opacity="0.55"/><path aria-label="date: Oct 24, 2025; count: 13; Date: Oct 24, 2025; Daily unique: 13; 7d avg: 10.5714285714" role="graphics-symbol" aria-roledescription="point" transform="translate(1744.9333333333334,366.54545454545456)" d="M3.536,0A3.536,3.536,0,1,1,-3.536,0A3.536,3.536,0,1,1,3.536,0" fill="#4e79a7" stroke-width="2" opacity="0.55"/><path aria-label="date: Oct 25, 2025; count: 15; Date: Oct 25, 2025; Daily unique: 15; 7d avg: 12.2857142857" role="graphics-symbol" aria-roledescription="point" transform="translate(1782.8666666666666,349.0909090909091)" d="M3.536,0A3.536,3.536,0,1,1,-3.536,0A3.536,3.536,0,1,1,3.536,0" fill="#4e79a7" stroke-width="2" opacity="0.55"/><path aria-label="date: Oct 26, 2025; count: 10; Date: Oct 26, 2025; Daily unique: 10; 7d avg: 12.8571428571" role="graphics-symbol" aria-roledescription="point" transform="translate(1820.8000000000002,392.7272727272727)" d="M3.536,0A3.536,3.536,0,1,1,-3.536,0A3.536,3.536,0,1,1,3.536,0" fill="#4e79a7" stroke-width="2" opacity="0.55"/><path aria-label="date: Oct 27, 2025; count: 15; Date: Oct 27, 2025; Daily unique: 15; 7d avg: 13.1428571429" role="graphics-symbol" aria-roledescription="point" transform="translate(1858.7333333333333,349.0909090909091)" d="M3.536,0A3.536,3.536,0,1,1,-3.536,0A3.536,3.536,0,1,1,3.536,0" fill="#4e79a7" stroke-width="2" opacity="0.55"/><path aria-label="date: Oct 28, 2025; count: 28; Date: Oct 28, 2025; Daily unique: 28; 7d avg: 15.7142857143" role="graphics-symbol" aria-roledescription="point" transform="translate(1896.6666666666667,235.63636363636365)" d="M3.536,0A3.536,3.536,0,1,1,-3.536,0A3.536,3.536,0,1,1,3.536,0" fill="#4e79a7" stroke-width="2" opacity="0.55"/><path aria-label="date: Oct 29, 2025; count: 10; Date: Oct 29, 2025; Daily unique: 10; 7d avg: 14.7142857143" role="graphics-symbol" aria-roledescription="point" transform="translate(1934.6,392.7272727272727)" d="M3.536,0A3.536,3.536,0,1,1,-3.536,0A3.536,3.536,0,1,1,3.536,0" fill="#4e79a7" stroke-width="2" opacity="0.55"/><path aria-label="date: Oct 30, 2025; count: 15; Date: Oct 30, 2025; Daily unique: 15; 7d avg: 15.1428571429" role="graphics-symbol" aria-roledescription="point" transform="translate(1972.5333333333333,349.0909090909091)" d="M3.536,0A3.536,3.536,0,1,1,-3.536,0A3.536,3.536,0,1,1,3.536,0" fill="#4e79a7" stroke-width="2" opacity="0.55"/><path aria-label="date: Oct 31, 2025; count: 17; Date: Oct 31, 2025; Daily unique: 17; 7d avg: 15.7142857143" role="graphics-symbol" aria-roledescription="point" transform="translate(2010.4666666666667,331.6363636363636)" d="M3.536,0A3.536,3.536,0,1,1,-3.536,0A3.536,3.536,0,1,1,3.536,0" fill="#4e79a7" stroke-width="2" opacity="0.55"/><path aria-label="date: Nov 01, 2025; count: 5; Date: Nov 01, 2025; Daily unique: 5; 7d avg: 14.2857142857" role="graphics-symbol" aria-roledescription="point" transform="translate(2048.4,436.3636363636364)" d="M3.536,0A3.536,3.536,0,1,1,-3.536,0A3.536,3.536,0,1,1,3.536,0" fill="#4e79a7" stroke-width="2" opacity="0.55"/><path aria-label="date: Nov 02, 2025; count: 12; Date: Nov 02, 2025; Daily unique: 12; 7d avg: 14.5714285714" role="graphics-symbol" aria-roledescription="point" transform="translate(2086.333333333333,375.2727272727273)" d="M3.536,0A3.536,3.536,0,1,1,-3.536,0A3.536,3.536,0,1,1,3.536,0" fill="#4e79a7" stroke-width="2" opacity="0.55"/><path aria-label="date: Nov 03, 2025; count: 14; Date: Nov 03, 2025; Daily unique: 14; 7d avg: 14.4285714286" role="graphics-symbol" aria-roledescription="point" transform="translate(2124.266666666667,357.8181818181818)" d="M3.536,0A3.536,3.536,0,1,1,-3.536,0A3.536,3.536,0,1,1,3.536,0" fill="#4e79a7" stroke-width="2" opacity="0.55"/><path aria-label="date: Nov 04, 2025; count: 10; Date: Nov 04, 2025; Daily unique: 10; 7d avg: 11.8571428571" role="graphics-symbol" aria-roledescription="point" transform="translate(2162.2,392.7272727272727)" d="M3.536,0A3.536,3.536,0,1,1,-3.536,0A3.536,3.536,0,1,1,3.536,0" fill="#4e79a7" stroke-width="2" opacity="0.55"/><path aria-label="date: Nov 05, 2025; count: 9; Date: Nov 05, 2025; Daily unique: 9; 7d avg: 11.7142857143" role="graphics-symbol" aria-roledescription="point" transform="translate(2200.133333333333,401.4545454545455)" d="M3.536,0A3.536,3.536,0,1,1,-3.536,0A3.536,3.536,0,1,1,3.536,0" fill="#4e79a7" stroke-width="2" opacity="0.55"/><path aria-label="date: Nov 06, 2025; count: 9; Date: Nov 06, 2025; Daily unique: 9; 7d avg: 10.8571428571" role="graphics-symbol" aria-roledescription="point" transform="translate(2238.0666666666666,401.4545454545455)" d="M3.536,0A3.536,3.536,0,1,1,-3.536,0A3.536,3.536,0,1,1,3.536,0" fill="#4e79a7" stroke-width="2" opacity="0.55"/><path aria-label="date: Nov 07, 2025; count: 4; Date: Nov 07, 2025; Daily unique: 4; 7d avg: 9" role="graphics-symbol" aria-roledescription="point" transform="translate(2276,445.09090909090907)" d="M3.536,0A3.536,3.536,0,1,1,-3.536,0A3.536,3.536,0,1,1,3.536,0" fill="#4e79a7" stroke-width="2" opacity="0.55"/></g><g class="mark-path role-mark layer_3_voronoi" aria-hidden="true"><path transform="translate(0,0)" d="M0,297.3468176406926L20.692562591235372,305.056028906082L23.259231530531622,306.4955254016963L147.0284108167415,448.0655716649251L167.84522941509678,480L0,480Z" stroke-width="0.35"/><path transform="translate(0,0)" d="M71.95904225188463,0L0,104.2573253367003L0,0Z" stroke-width="0.35"/><path transform="translate(0,0)" d="M243.05400133764087,0L217.48789762292637,64.82220497990657L0,127.8433508698092L0,104.2573253367003L71.95904225188463,0Z" stroke-width="0.35"/><path transform="translate(0,0)" d="M220.18631987446497,88.27973952487852L20.692562591235372,305.056028906082L0,297.3468176406926L0,127.8433508698092L217.48789762292637,64.82220497990657Z" stroke-width="0.35"/><path transform="translate(0,0)" d="M244.0788053454773,165.24498640248652L203.24989023955976,241.30099225008706L23.259231530531622,306.4955254016963L20.692562591235372,305.056028906082L220.18631987446497,88.27973952487852L244.502261315461,163.77253589352645Z" stroke-width="0.35"/><path transform="translate(0,0)" d="M224.87135524171794,278.8923115413393L147.0284108167415,448.0655716649251L23.259231530531622,306.4955254016963L203.24989023955976,241.30099225008706Z" stroke-width="0.35"/><path transform="translate(0,0)" d="M356.8344248208798,371.8236370345971L346.1681411148898,480L167.84522941509678,480L147.0284108167415,448.0655716649251L224.87135524171794,278.8923115413393L324.9725243164995,341.04838468013475Z" stroke-width="0.35"/><path transform="translate(0,0)" d="M244.0788053454773,165.24498640248652L324.9725243164995,341.04838468013475L224.87135524171794,278.8923115413393L203.24989023955976,241.30099225008706Z" stroke-width="0.35"/><path transform="translate(0,0)" d="M360.8552935563422,364.5416296806448L356.8344248208798,371.8236370345971L324.9725243164995,341.04838468013475L244.0788053454773,165.24498640248652L244.502261315461,163.77253589352645L357.66420271000237,204.76099603174603L367.12927439498776,328.1815870240872Z" stroke-width="0.35"/><path transform="translate(0,0)" d="M300.1304976591284,0L384.5661603735066,183.50097671156004L357.66420271000237,204.76099603174603L244.502261315461,163.77253589352645L220.18631987446497,88.27973952487852L217.48789762292637,64.82220497990657L243.05400133764087,0Z" stroke-width="0.35"/><path transform="translate(0,0)" d="M551.7014322271549,127.61958426861214L384.5661603735066,183.50097671156004L300.1304976591284,0L596.4544904813653,0L592.829455102993,57.77316221424782L563.4563721201841,121.6086227661227Z" stroke-width="0.35"/><path transform="translate(0,0)" d="M551.7014322271549,127.61958426861214L367.12927439498776,328.1815870240872L357.66420271000237,204.76099603174603L384.5661603735066,183.50097671156004Z" stroke-width="0.35"/><path transform="translate(0,0)" d="M560.9901348361391,210.0184823232323L533.0312908926297,262.10015025252534L501.0783263857621,296.82126220538726L360.8552935563422,364.5416296806448L367.12927439498776,328.1815870240872L551.7014322271549,127.61958426861214L563.4563721201841,121.6086227661227L566.2607996242986,194.74575505050512Z" stroke-width="0.35"/><path transform="translate(0,0)" d="M501.0783263857621,296.82126220538726L543.0598403753141,479.2950789141414L542.8976600967335,480L346.1681411148898,480L356.8344248208798,371.8236370345971L360.8552935563422,364.5416296806448Z" stroke-width="0.35"/><path transform="translate(0,0)" d="M533.0312908926297,262.10015025252534L568.0230938963045,414.19299400252515L543.0598403753141,479.2950789141414L501.0783263857621,296.82126220538726Z" stroke-width="0.35"/><path transform="translate(0,0)" d="M560.9901348361391,210.0184823232323L597.9789981214929,370.79160406144786L568.0230938963045,414.19299400252515L533.0312908926297,262.10015025252534Z" stroke-width="0.35"/><path transform="translate(0,0)" d="M560.9901348361391,210.0184823232323L566.2607996242986,194.74575505050512L671.3396920152152,325.2395620891454L597.9789981214929,370.79160406144786Z" stroke-width="0.35"/><path transform="translate(0,0)" d="M700.1294798116974,363.7930127665545L646.658298595477,480L542.8976600967335,480L543.0598403753141,479.2950789141414L568.0230938963045,414.19299400252515L597.9789981214929,370.79160406144786L671.3396920152152,325.2395620891454L692.7918332985116,331.89972837347835Z" stroke-width="0.35"/><path transform="translate(0,0)" d="M761.4873417833875,277.6111945847362L692.7918332985116,331.89972837347835L671.3396920152152,325.2395620891454L566.2607996242986,194.74575505050512L563.4563721201841,121.6086227661227L592.829455102993,57.77316221424782L754.8987158202333,220.33590305226176Z" stroke-width="0.35"/><path transform="translate(0,0)" d="M646.658298595477,480L700.1294798116974,363.7930127665545L798.274018057354,424.73415015540013L804.6314892010051,480Z" stroke-width="0.35"/><path transform="translate(0,0)" d="M835.667455013204,327.21518269428987L798.274018057354,424.73415015540013L700.1294798116974,363.7930127665545L692.7918332985116,331.89972837347835L761.4873417833875,277.6111945847362Z" stroke-width="0.35"/><path transform="translate(0,0)" d="M877.5944676030151,0L849.5350744819932,182.94139744216352L754.8987158202333,220.33590305226176L592.829455102993,57.77316221424782L596.4544904813653,0Z" stroke-width="0.35"/><path transform="translate(0,0)" d="M893.2409512705049,225.15668800069665L886.3527460011614,314.97601462740613L835.667455013204,327.21518269428987L761.4873417833875,277.6111945847362L754.8987158202333,220.33590305226176L849.5350744819932,182.94139744216352Z" stroke-width="0.35"/><path transform="translate(0,0)" d="M936.0441231114289,340.3860088539719L992.25553990133,480L804.6314892010051,480L798.274018057354,424.73415015540013L835.667455013204,327.21518269428987L886.3527460011614,314.97601462740613Z" stroke-width="0.35"/><path transform="translate(0,0)" d="M967.3000000000001,192.96671675084184L893.2409512705049,225.15668800069665L849.5350744819932,182.94139744216352L877.5944676030151,0L1048.4025877887357,0L1013.1837323950481,153.07973327020215Z" stroke-width="0.35"/><path transform="translate(0,0)" d="M967.3000000000001,192.96671675084184L967.3,313.21510143097646L936.0441231114289,340.3860088539719L886.3527460011614,314.97601462740613L893.2409512705049,225.15668800069665Z" stroke-width="0.35"/><path transform="translate(0,0)" d="M1048.2249617693378,244.4643393759019L1015.1182374264177,292.4307717051467L967.3,313.21510143097646L967.3000000000001,192.96671675084184L1013.1837323950481,153.07973327020215Z" stroke-width="0.35"/><path transform="translate(0,0)" d="M1015.1182374264177,292.4307717051467L1097.9007091962262,382.38484997029116L1092.286161503193,480L992.25553990133,480L936.0441231114289,340.3860088539719L967.3,313.21510143097646Z" stroke-width="0.35"/><path transform="translate(0,0)" d="M1086.4729835703254,259.57762021254206L1124.0916284360046,314.08111516955273L1097.9007091962262,382.38484997029116L1015.1182374264177,292.4307717051467L1048.2249617693378,244.4643393759019Z" stroke-width="0.35"/><path transform="translate(0,0)" d="M1086.4729835703254,259.57762021254206L1048.2249617693378,244.4643393759019L1013.1837323950481,153.07973327020215L1048.4025877887357,0L1342.1542535113074,0L1323.7590422518847,53.30353114478092Z" stroke-width="0.35"/><path transform="translate(0,0)" d="M1086.4729835703254,259.57762021254206L1323.7590422518847,53.30353114478092L1308.7,118.75807659932676L1164.1702888285313,298.2444778338946L1124.0916284360046,314.08111516955273Z" stroke-width="0.35"/><path transform="translate(0,0)" d="M1124.0916284360046,314.08111516955273L1164.1702888285313,298.2444778338946L1222.9484292402492,362.11468284030786L1141.5832638576212,480L1092.286161503193,480L1097.9007091962262,382.38484997029116Z" stroke-width="0.35"/><path transform="translate(0,0)" d="M1164.1702888285313,298.2444778338946L1308.7,118.75807659932676L1308.6999999999998,207.97764835858578L1241.482624414782,354.05874342382157L1222.9484292402492,362.11468284030786Z" stroke-width="0.35"/><path transform="translate(0,0)" d="M1141.5832638576212,480L1222.9484292402492,362.11468284030786L1241.482624414782,354.05874342382157L1308.7,402.7524417789L1319.0544398127304,417.75439520202L1338.1487937370189,480Z" stroke-width="0.35"/><path transform="translate(0,0)" d="M1241.482624414782,354.05874342382157L1308.6999999999998,207.97764835858578L1308.7,207.97764835858615L1308.7,402.7524417789Z" stroke-width="0.35"/><path transform="translate(0,0)" d="M1308.7,402.7524417789L1308.7,207.97764835858615L1362.1402835674205,324.11748684764314L1319.0544398127304,417.75439520202Z" stroke-width="0.35"/><path transform="translate(0,0)" d="M1338.1487937370189,480L1319.0544398127304,417.75439520202L1362.1402835674205,324.11748684764314L1403.8319386548017,354.319809670782L1420.1467182243794,401.5949047291094L1416.1068876854624,454.27261169386156L1401.3092206616411,480Z" stroke-width="0.35"/><path transform="translate(0,0)" d="M1323.7590422518847,53.30353114478092L1342.1542535113074,0L1557.5260786026563,0L1547.9619148999602,145.49816121743734L1403.8319386548017,354.319809670782L1362.1402835674205,324.11748684764314L1308.7,207.97764835858615L1308.6999999999998,207.97764835858578L1308.7,118.75807659932676Z" stroke-width="0.35"/><path transform="translate(0,0)" d="M1403.8319386548017,354.319809670782L1547.9619148999602,145.49816121743734L1548.917298506129,170.41376951331497L1529.5373922716788,282.727503885004L1420.1467182243794,401.5949047291094Z" stroke-width="0.35"/><path transform="translate(0,0)" d="M1416.1068876854624,454.27261169386156L1420.1467182243794,401.5949047291094L1529.5373922716788,282.727503885004L1536.5115992485971,373.6682569444446L1513.2635286399707,407.3510518378227Z" stroke-width="0.35"/><path transform="translate(0,0)" d="M1401.3092206616411,480L1416.1068876854624,454.27261169386156L1513.2635286399707,407.3510518378227L1563.4062760533923,480Z" stroke-width="0.35"/><path transform="translate(0,0)" d="M1563.4062760533923,480L1513.2635286399707,407.3510518378227L1536.5115992485971,373.6682569444446L1592.3536030056114,408.34237415824924L1625.3259568040203,480Z" stroke-width="0.35"/><path transform="translate(0,0)" d="M1529.5373922716788,282.727503885004L1548.917298506129,170.41376951331497L1631.9797303277219,350.930353114478L1592.3536030056114,408.34237415824924L1536.5115992485971,373.6682569444446Z" stroke-width="0.35"/><path transform="translate(0,0)" d="M1625.3259568040203,480L1592.3536030056114,408.34237415824924L1631.9797303277219,350.930353114478L1666.3714835687117,372.28531179854093L1691.1532619694308,480Z" stroke-width="0.35"/><path transform="translate(0,0)" d="M1547.9619148999602,145.49816121743734L1557.5260786026563,0L1663.2309421100283,0L1747.520571976354,199.83666414141402L1733.4421276997487,291.62518781565666L1716.2979906106923,328.88392185746346L1666.3714835687117,372.28531179854093L1631.9797303277219,350.930353114478L1548.917298506129,170.41376951331497Z" stroke-width="0.35"/><path transform="translate(0,0)" d="M1749.1756031314908,480L1691.1532619694308,480L1666.3714835687117,372.28531179854093L1716.2979906106923,328.88392185746346L1749.9313900468176,475.0724267676771Z" stroke-width="0.35"/><path transform="translate(0,0)" d="M1749.9313900468176,475.0724267676771L1716.2979906106923,328.88392185746346L1733.4421276997487,291.62518781565666L1779.0406787386337,390.7228721741223Z" stroke-width="0.35"/><path transform="translate(0,0)" d="M1733.4421276997487,291.62518781565666L1747.520571976354,199.83666414141402L1820.8,273.3392186285936L1820.8,354.4212622053871L1779.0406787386337,390.7228721741223Z" stroke-width="0.35"/><path transform="translate(0,0)" d="M1749.1756031314908,480L1749.9313900468176,475.0724267676771L1779.0406787386337,390.7228721741223L1820.8,354.4212622053871L1877.7,403.8847483164982L1877.7,480Z" stroke-width="0.35"/><path transform="translate(0,0)" d="M1820.8,354.4212622053871L1820.8,273.3392186285936L1915.6333333333332,305.04658152033153L1915.6333333333332,337.93343350168345L1877.7,403.8847483164982Z" stroke-width="0.35"/><path transform="translate(0,0)" d="M2169.757869153268,0L2129.367437556585,75.23919981060612L1961.2220153567098,274.56158571004164L1915.6333333333332,305.04658152033153L1820.8,273.3392186285936L1747.520571976354,199.83666414141402L1663.2309421100283,0Z" stroke-width="0.35"/><path transform="translate(0,0)" d="M1877.7,480L1877.7,403.8847483164982L1915.6333333333332,337.93343350168345L1994.565868543237,406.5499248737375L1966.401596246859,480Z" stroke-width="0.35"/><path transform="translate(0,0)" d="M1915.6333333333332,305.04658152033153L1961.2220153567098,274.56158571004164L2014.1293816212014,389.5432542688793L1994.565868543237,406.5499248737375L1915.6333333333332,337.93343350168345Z" stroke-width="0.35"/><path transform="translate(0,0)" d="M2014.1293816212014,389.5432542688793L1961.2220153567098,274.56158571004164L2129.367437556585,75.23919981060612L2076.6646572773593,304.3132982603813L2031.1989552779241,383.36047293106515Z" stroke-width="0.35"/><path transform="translate(0,0)" d="M1966.401596246859,480L1994.565868543237,406.5499248737375L2014.1293816212014,389.5432542688793L2031.1989552779241,383.36047293106515L2112.7619460098667,434.00558791035326L2130.398403753141,480Z" stroke-width="0.35"/><path transform="translate(0,0)" d="M2031.1989552779241,383.36047293106515L2076.6646572773593,304.3132982603813L2120.6216075114457,399.8433508698092L2112.7619460098667,434.00558791035326Z" stroke-width="0.35"/><path transform="translate(0,0)" d="M2129.367437556585,75.23919981060612L2169.757869153268,0L2276,0L2276,132.31893308080942L2219.1,280.7093914141422L2200.5040187786153,313.0405709876551L2120.6216075114457,399.8433508698092L2076.6646572773593,304.3132982603813Z" stroke-width="0.35"/><path transform="translate(0,0)" d="M2120.6216075114457,399.8433508698092L2200.5040187786153,313.0405709876551L2162.0918798142793,480L2130.398403753141,480L2112.7619460098667,434.00558791035326Z" stroke-width="0.35"/><path transform="translate(0,0)" d="M2162.0918798142793,480L2200.5040187786153,313.0405709876551L2219.1,280.7093914141422L2219.1,456.24838468013485L2205.4387417875837,480Z" stroke-width="0.35"/><path transform="translate(0,0)" d="M2276,406.7848985690235L2219.1,456.24838468013485L2219.1,280.7093914141422L2276,132.31893308080942Z" stroke-width="0.35"/><path transform="translate(0,0)" d="M2276,480L2205.4387417875837,480L2219.1,456.24838468013485L2276,406.7848985690235Z" stroke-width="0.35"/></g><g class="mark-symbol role-mark layer_4_marks" role="graphics-object" aria-roledescription="symbol mark container"><path aria-label="date: Sep 08, 2025; count: 1; Peak date: Sep 08, 2025; Peak unique count: 1" role="graphics-symbol" aria-roledescription="point" transform="translate(0,471.27272727272725)" d="M-5.916,0L0,-5.916L5.916,0L0,5.916Z" fill="#ff9900" stroke="#b36b00" stroke-width="1.5" opacity="0"/><path aria-label="date: Sep 09, 2025; count: 54; Peak date: Sep 09, 2025; Peak unique count: 54" role="graphics-symbol" aria-roledescription="point" transform="translate(37.93333333333333,8.72727272727273)" d="M-5.916,0L0,-5.916L5.916,0L0,5.916Z" fill="#ff9900" stroke="#b36b00" stroke-width="1.5" opacity="1"/><path aria-label="date: Sep 10, 2025; count: 51; Peak date: Sep 10, 2025; Peak unique count: 51" role="graphics-symbol" aria-roledescription="point" transform="translate(75.86666666666666,34.90909090909092)" d="M-5.916,0L0,-5.916L5.916,0L0,5.916Z" fill="#ff9900" stroke="#b36b00" stroke-width="1.5" opacity="0"/><path aria-label="date: Sep 11, 2025; count: 36; Peak date: Sep 11, 2025; Peak unique count: 36" role="graphics-symbol" aria-roledescription="point" transform="translate(113.80000000000001,165.8181818181818)" d="M-5.916,0L0,-5.916L5.916,0L0,5.916Z" fill="#ff9900" stroke="#b36b00" stroke-width="1.5" opacity="0"/><path aria-label="date: Sep 12, 2025; count: 32; Peak date: Sep 12, 2025; Peak unique count: 32" role="graphics-symbol" aria-roledescription="point" transform="translate(151.73333333333332,200.72727272727275)" d="M-5.916,0L0,-5.916L5.916,0L0,5.916Z" fill="#ff9900" stroke="#b36b00" stroke-width="1.5" opacity="0"/><path aria-label="date: Sep 13, 2025; count: 20; Peak date: Sep 13, 2025; Peak unique count: 20" role="graphics-symbol" aria-roledescription="point" transform="translate(189.66666666666666,305.45454545454544)" d="M-5.916,0L0,-5.916L5.916,0L0,5.916Z" fill="#ff9900" stroke="#b36b00" stroke-width="1.5" opacity="0"/><path aria-label="date: Sep 14, 2025; count: 18; Peak date: Sep 14, 2025; Peak unique count: 18" role="graphics-symbol" aria-roledescription="point" transform="translate(227.60000000000002,322.90909090909093)" d="M-5.916,0L0,-5.916L5.916,0L0,5.916Z" fill="#ff9900" stroke="#b36b00" stroke-width="1.5" opacity="0"/><path aria-label="date: Sep 15, 2025; count: 25; Peak date: Sep 15, 2025; Peak unique count: 25" role="graphics-symbol" aria-roledescription="point" transform="translate(265.53333333333336,261.8181818181818)" d="M-5.916,0L0,-5.916L5.916,0L0,5.916Z" fill="#ff9900" stroke="#b36b00" stroke-width="1.5" opacity="0"/><path aria-label="date: Sep 16, 2025; count: 27; Peak date: Sep 16, 2025; Peak unique count: 27" role="graphics-symbol" aria-roledescription="point" transform="translate(303.46666666666664,244.36363636363635)" d="M-5.916,0L0,-5.916L5.916,0L0,5.916Z" fill="#ff9900" stroke="#b36b00" stroke-width="1.5" opacity="0"/><path aria-label="date: Sep 17, 2025; count: 39; Peak date: Sep 17, 2025; Peak unique count: 39" role="graphics-symbol" aria-roledescription="point" transform="translate(341.4,139.63636363636363)" d="M-5.916,0L0,-5.916L5.916,0L0,5.916Z" fill="#ff9900" stroke="#b36b00" stroke-width="1.5" opacity="0"/><path aria-label="date: Sep 18, 2025; count: 41; Peak date: Sep 18, 2025; Peak unique count: 41" role="graphics-symbol" aria-roledescription="point" transform="translate(379.3333333333333,122.18181818181817)" d="M-5.916,0L0,-5.916L5.916,0L0,5.916Z" fill="#ff9900" stroke="#b36b00" stroke-width="1.5" opacity="0"/><path aria-label="date: Sep 19, 2025; count: 28; Peak date: Sep 19, 2025; Peak unique count: 28" role="graphics-symbol" aria-roledescription="point" transform="translate(417.26666666666665,235.63636363636365)" d="M-5.916,0L0,-5.916L5.916,0L0,5.916Z" fill="#ff9900" stroke="#b36b00" stroke-width="1.5" opacity="0"/><path aria-label="date: Sep 20, 2025; count: 24; Peak date: Sep 20, 2025; Peak unique count: 24" role="graphics-symbol" aria-roledescription="point" transform="translate(455.20000000000005,270.54545454545456)" d="M-5.916,0L0,-5.916L5.916,0L0,5.916Z" fill="#ff9900" stroke="#b36b00" stroke-width="1.5" opacity="0"/><path aria-label="date: Sep 21, 2025; count: 15; Peak date: Sep 21, 2025; Peak unique count: 15" role="graphics-symbol" aria-roledescription="point" transform="translate(493.1333333333333,349.0909090909091)" d="M-5.916,0L0,-5.916L5.916,0L0,5.916Z" fill="#ff9900" stroke="#b36b00" stroke-width="1.5" opacity="0"/><path aria-label="date: Sep 22, 2025; count: 16; Peak date: Sep 22, 2025; Peak unique count: 16" role="graphics-symbol" aria-roledescription="point" transform="translate(531.0666666666667,340.3636363636364)" d="M-5.916,0L0,-5.916L5.916,0L0,5.916Z" fill="#ff9900" stroke="#b36b00" stroke-width="1.5" opacity="0"/><path aria-label="date: Sep 23, 2025; count: 17; Peak date: Sep 23, 2025; Peak unique count: 17" role="graphics-symbol" aria-roledescription="point" transform="translate(569,331.6363636363636)" d="M-5.916,0L0,-5.916L5.916,0L0,5.916Z" fill="#ff9900" stroke="#b36b00" stroke-width="1.5" opacity="0"/><path aria-label="date: Sep 24, 2025; count: 18; Peak date: Sep 24, 2025; Peak unique count: 18" role="graphics-symbol" aria-roledescription="point" transform="translate(606.9333333333333,322.90909090909093)" d="M-5.916,0L0,-5.916L5.916,0L0,5.916Z" fill="#ff9900" stroke="#b36b00" stroke-width="1.5" opacity="0"/><path aria-label="date: Sep 25, 2025; count: 11; Peak date: Sep 25, 2025; Peak unique count: 11" role="graphics-symbol" aria-roledescription="point" transform="translate(644.8666666666667,384)" d="M-5.916,0L0,-5.916L5.916,0L0,5.916Z" fill="#ff9900" stroke="#b36b00" stroke-width="1.5" opacity="0"/><path aria-label="date: Sep 26, 2025; count: 25; Peak date: Sep 26, 2025; Peak unique count: 25" role="graphics-symbol" aria-roledescription="point" transform="translate(682.8,261.8181818181818)" d="M-5.916,0L0,-5.916L5.916,0L0,5.916Z" fill="#ff9900" stroke="#b36b00" stroke-width="1.5" opacity="0"/><path aria-label="date: Sep 27, 2025; count: 7; Peak date: Sep 27, 2025; Peak unique count: 7" role="graphics-symbol" aria-roledescription="point" transform="translate(720.7333333333333,418.90909090909093)" d="M-5.916,0L0,-5.916L5.916,0L0,5.916Z" fill="#ff9900" stroke="#b36b00" stroke-width="1.5" opacity="0"/><path aria-label="date: Sep 28, 2025; count: 14; Peak date: Sep 28, 2025; Peak unique count: 14" role="graphics-symbol" aria-roledescription="point" transform="translate(758.6666666666666,357.8181818181818)" d="M-5.916,0L0,-5.916L5.916,0L0,5.916Z" fill="#ff9900" stroke="#b36b00" stroke-width="1.5" opacity="0"/><path aria-label="date: Sep 29, 2025; count: 38; Peak date: Sep 29, 2025; Peak unique count: 38" role="graphics-symbol" aria-roledescription="point" transform="translate(796.5999999999999,148.36363636363637)" d="M-5.916,0L0,-5.916L5.916,0L0,5.916Z" fill="#ff9900" stroke="#b36b00" stroke-width="1.5" opacity="0"/><path aria-label="date: Sep 30, 2025; count: 27; Peak date: Sep 30, 2025; Peak unique count: 27" role="graphics-symbol" aria-roledescription="point" transform="translate(834.5333333333333,244.36363636363635)" d="M-5.916,0L0,-5.916L5.916,0L0,5.916Z" fill="#ff9900" stroke="#b36b00" stroke-width="1.5" opacity="0"/><path aria-label="date: Oct 01, 2025; count: 9; Peak date: Oct 01, 2025; Peak unique count: 9" role="graphics-symbol" aria-roledescription="point" transform="translate(872.4666666666667,401.4545454545455)" d="M-5.916,0L0,-5.916L5.916,0L0,5.916Z" fill="#ff9900" stroke="#b36b00" stroke-width="1.5" opacity="0"/><path aria-label="date: Oct 02, 2025; count: 36; Peak date: Oct 02, 2025; Peak unique count: 36" role="graphics-symbol" aria-roledescription="point" transform="translate(910.4000000000001,165.8181818181818)" d="M-5.916,0L0,-5.916L5.916,0L0,5.916Z" fill="#ff9900" stroke="#b36b00" stroke-width="1.5" opacity="0"/><path aria-label="date: Oct 03, 2025; count: 26; Peak date: Oct 03, 2025; Peak unique count: 26" role="graphics-symbol" aria-roledescription="point" transform="translate(948.3333333333334,253.09090909090912)" d="M-5.916,0L0,-5.916L5.916,0L0,5.916Z" fill="#ff9900" stroke="#b36b00" stroke-width="1.5" opacity="0"/><path aria-label="date: Oct 04, 2025; count: 26; Peak date: Oct 04, 2025; Peak unique count: 26" role="graphics-symbol" aria-roledescription="point" transform="translate(986.2666666666667,253.09090909090912)" d="M-5.916,0L0,-5.916L5.916,0L0,5.916Z" fill="#ff9900" stroke="#b36b00" stroke-width="1.5" opacity="0"/><path aria-label="date: Oct 05, 2025; count: 16; Peak date: Oct 05, 2025; Peak unique count: 16" role="graphics-symbol" aria-roledescription="point" transform="translate(1024.2,340.3636363636364)" d="M-5.916,0L0,-5.916L5.916,0L0,5.916Z" fill="#ff9900" stroke="#b36b00" stroke-width="1.5" opacity="0"/><path aria-label="date: Oct 06, 2025; count: 20; Peak date: Oct 06, 2025; Peak unique count: 20" role="graphics-symbol" aria-roledescription="point" transform="translate(1062.1333333333334,305.45454545454544)" d="M-5.916,0L0,-5.916L5.916,0L0,5.916Z" fill="#ff9900" stroke="#b36b00" stroke-width="1.5" opacity="0"/><path aria-label="date: Oct 07, 2025; count: 31; Peak date: Oct 07, 2025; Peak unique count: 31" role="graphics-symbol" aria-roledescription="point" transform="translate(1100.0666666666666,209.45454545454547)" d="M-5.916,0L0,-5.916L5.916,0L0,5.916Z" fill="#ff9900" stroke="#b36b00" stroke-width="1.5" opacity="0"/><path aria-label="date: Oct 08, 2025; count: 26; Peak date: Oct 08, 2025; Peak unique count: 26" role="graphics-symbol" aria-roledescription="point" transform="translate(1138,253.09090909090912)" d="M-5.916,0L0,-5.916L5.916,0L0,5.916Z" fill="#ff9900" stroke="#b36b00" stroke-width="1.5" opacity="0"/><path aria-label="date: Oct 09, 2025; count: 15; Peak date: Oct 09, 2025; Peak unique count: 15" role="graphics-symbol" aria-roledescription="point" transform="translate(1175.9333333333334,349.0909090909091)" d="M-5.916,0L0,-5.916L5.916,0L0,5.916Z" fill="#ff9900" stroke="#b36b00" stroke-width="1.5" opacity="0"/><path aria-label="date: Oct 10, 2025; count: 19; Peak date: Oct 10, 2025; Peak unique count: 19" role="graphics-symbol" aria-roledescription="point" transform="translate(1213.8666666666666,314.1818181818182)" d="M-5.916,0L0,-5.916L5.916,0L0,5.916Z" fill="#ff9900" stroke="#b36b00" stroke-width="1.5" opacity="0"/><path aria-label="date: Oct 11, 2025; count: 9; Peak date: Oct 11, 2025; Peak unique count: 9" role="graphics-symbol" aria-roledescription="point" transform="translate(1251.8000000000002,401.4545454545455)" d="M-5.916,0L0,-5.916L5.916,0L0,5.916Z" fill="#ff9900" stroke="#b36b00" stroke-width="1.5" opacity="0"/><path aria-label="date: Oct 12, 2025; count: 15; Peak date: Oct 12, 2025; Peak unique count: 15" role="graphics-symbol" aria-roledescription="point" transform="translate(1289.7333333333333,349.0909090909091)" d="M-5.916,0L0,-5.916L5.916,0L0,5.916Z" fill="#ff9900" stroke="#b36b00" stroke-width="1.5" opacity="0"/><path aria-label="date: Oct 13, 2025; count: 15; Peak date: Oct 13, 2025; Peak unique count: 15" role="graphics-symbol" aria-roledescription="point" transform="translate(1327.6666666666667,349.0909090909091)" d="M-5.916,0L0,-5.916L5.916,0L0,5.916Z" fill="#ff9900" stroke="#b36b00" stroke-width="1.5" opacity="0"/><path aria-label="date: Oct 14, 2025; count: 13; Peak date: Oct 14, 2025; Peak unique count: 13" role="graphics-symbol" aria-roledescription="point" transform="translate(1365.6,366.54545454545456)" d="M-5.916,0L0,-5.916L5.916,0L0,5.916Z" fill="#ff9900" stroke="#b36b00" stroke-width="1.5" opacity="0"/><path aria-label="date: Oct 15, 2025; count: 19; Peak date: Oct 15, 2025; Peak unique count: 19" role="graphics-symbol" aria-roledescription="point" transform="translate(1403.5333333333333,314.1818181818182)" d="M-5.916,0L0,-5.916L5.916,0L0,5.916Z" fill="#ff9900" stroke="#b36b00" stroke-width="1.5" opacity="0"/><path aria-label="date: Oct 16, 2025; count: 16; Peak date: Oct 16, 2025; Peak unique count: 16" role="graphics-symbol" aria-roledescription="point" transform="translate(1441.4666666666667,340.3636363636364)" d="M-5.916,0L0,-5.916L5.916,0L0,5.916Z" fill="#ff9900" stroke="#b36b00" stroke-width="1.5" opacity="0"/><path aria-label="date: Oct 17, 2025; count: 12; Peak date: Oct 17, 2025; Peak unique count: 12" role="graphics-symbol" aria-roledescription="point" transform="translate(1479.4,375.2727272727273)" d="M-5.916,0L0,-5.916L5.916,0L0,5.916Z" fill="#ff9900" stroke="#b36b00" stroke-width="1.5" opacity="0"/><path aria-label="date: Oct 18, 2025; count: 3; Peak date: Oct 18, 2025; Peak unique count: 3" role="graphics-symbol" aria-roledescription="point" transform="translate(1517.3333333333333,453.8181818181818)" d="M-5.916,0L0,-5.916L5.916,0L0,5.916Z" fill="#ff9900" stroke="#b36b00" stroke-width="1.5" opacity="0"/><path aria-label="date: Oct 19, 2025; count: 6; Peak date: Oct 19, 2025; Peak unique count: 6" role="graphics-symbol" aria-roledescription="point" transform="translate(1555.2666666666667,427.6363636363636)" d="M-5.916,0L0,-5.916L5.916,0L0,5.916Z" fill="#ff9900" stroke="#b36b00" stroke-width="1.5" opacity="0"/><path aria-label="date: Oct 20, 2025; count: 13; Peak date: Oct 20, 2025; Peak unique count: 13" role="graphics-symbol" aria-roledescription="point" transform="translate(1593.1999999999998,366.54545454545456)" d="M-5.916,0L0,-5.916L5.916,0L0,5.916Z" fill="#ff9900" stroke="#b36b00" stroke-width="1.5" opacity="0"/><path aria-label="date: Oct 21, 2025; count: 10; Peak date: Oct 21, 2025; Peak unique count: 10" role="graphics-symbol" aria-roledescription="point" transform="translate(1631.1333333333334,392.7272727272727)" d="M-5.916,0L0,-5.916L5.916,0L0,5.916Z" fill="#ff9900" stroke="#b36b00" stroke-width="1.5" opacity="0"/><path aria-label="date: Oct 22, 2025; count: 17; Peak date: Oct 22, 2025; Peak unique count: 17" role="graphics-symbol" aria-roledescription="point" transform="translate(1669.0666666666666,331.6363636363636)" d="M-5.916,0L0,-5.916L5.916,0L0,5.916Z" fill="#ff9900" stroke="#b36b00" stroke-width="1.5" opacity="0"/><path aria-label="date: Oct 23, 2025; count: 12; Peak date: Oct 23, 2025; Peak unique count: 12" role="graphics-symbol" aria-roledescription="point" transform="translate(1707,375.2727272727273)" d="M-5.916,0L0,-5.916L5.916,0L0,5.916Z" fill="#ff9900" stroke="#b36b00" stroke-width="1.5" opacity="0"/><path aria-label="date: Oct 24, 2025; count: 13; Peak date: Oct 24, 2025; Peak unique count: 13" role="graphics-symbol" aria-roledescription="point" transform="translate(1744.9333333333334,366.54545454545456)" d="M-5.916,0L0,-5.916L5.916,0L0,5.916Z" fill="#ff9900" stroke="#b36b00" stroke-width="1.5" opacity="0"/><path aria-label="date: Oct 25, 2025; count: 15; Peak date: Oct 25, 2025; Peak unique count: 15" role="graphics-symbol" aria-roledescription="point" transform="translate(1782.8666666666666,349.0909090909091)" d="M-5.916,0L0,-5.916L5.916,0L0,5.916Z" fill="#ff9900" stroke="#b36b00" stroke-width="1.5" opacity="0"/><path aria-label="date: Oct 26, 2025; count: 10; Peak date: Oct 26, 2025; Peak unique count: 10" role="graphics-symbol" aria-roledescription="point" transform="translate(1820.8000000000002,392.7272727272727)" d="M-5.916,0L0,-5.916L5.916,0L0,5.916Z" fill="#ff9900" stroke="#b36b00" stroke-width="1.5" opacity="0"/><path aria-label="date: Oct 27, 2025; count: 15; Peak date: Oct 27, 2025; Peak unique count: 15" role="graphics-symbol" aria-roledescription="point" transform="translate(1858.7333333333333,349.0909090909091)" d="M-5.916,0L0,-5.916L5.916,0L0,5.916Z" fill="#ff9900" stroke="#b36b00" stroke-width="1.5" opacity="0"/><path aria-label="date: Oct 28, 2025; count: 28; Peak date: Oct 28, 2025; Peak unique count: 28" role="graphics-symbol" aria-roledescription="point" transform="translate(1896.6666666666667,235.63636363636365)" d="M-5.916,0L0,-5.916L5.916,0L0,5.916Z" fill="#ff9900" stroke="#b36b00" stroke-width="1.5" opacity="0"/><path aria-label="date: Oct 29, 2025; count: 10; Peak date: Oct 29, 2025; Peak unique count: 10" role="graphics-symbol" aria-roledescription="point" transform="translate(1934.6,392.7272727272727)" d="M-5.916,0L0,-5.916L5.916,0L0,5.916Z" fill="#ff9900" stroke="#b36b00" stroke-width="1.5" opacity="0"/><path aria-label="date: Oct 30, 2025; count: 15; Peak date: Oct 30, 2025; Peak unique count: 15" role="graphics-symbol" aria-roledescription="point" transform="translate(1972.5333333333333,349.0909090909091)" d="M-5.916,0L0,-5.916L5.916,0L0,5.916Z" fill="#ff9900" stroke="#b36b00" stroke-width="1.5" opacity="0"/><path aria-label="date: Oct 31, 2025; count: 17; Peak date: Oct 31, 2025; Peak unique count: 17" role="graphics-symbol" aria-roledescription="point" transform="translate(2010.4666666666667,331.6363636363636)" d="M-5.916,0L0,-5.916L5.916,0L0,5.916Z" fill="#ff9900" stroke="#b36b00" stroke-width="1.5" opacity="0"/><path aria-label="date: Nov 01, 2025; count: 5; Peak date: Nov 01, 2025; Peak unique count: 5" role="graphics-symbol" aria-roledescription="point" transform="translate(2048.4,436.3636363636364)" d="M-5.916,0L0,-5.916L5.916,0L0,5.916Z" fill="#ff9900" stroke="#b36b00" stroke-width="1.5" opacity="0"/><path aria-label="date: Nov 02, 2025; count: 12; Peak date: Nov 02, 2025; Peak unique count: 12" role="graphics-symbol" aria-roledescription="point" transform="translate(2086.333333333333,375.2727272727273)" d="M-5.916,0L0,-5.916L5.916,0L0,5.916Z" fill="#ff9900" stroke="#b36b00" stroke-width="1.5" opacity="0"/><path aria-label="date: Nov 03, 2025; count: 14; Peak date: Nov 03, 2025; Peak unique count: 14" role="graphics-symbol" aria-roledescription="point" transform="translate(2124.266666666667,357.8181818181818)" d="M-5.916,0L0,-5.916L5.916,0L0,5.916Z" fill="#ff9900" stroke="#b36b00" stroke-width="1.5" opacity="0"/><path aria-label="date: Nov 04, 2025; count: 10; Peak date: Nov 04, 2025; Peak unique count: 10" role="graphics-symbol" aria-roledescription="point" transform="translate(2162.2,392.7272727272727)" d="M-5.916,0L0,-5.916L5.916,0L0,5.916Z" fill="#ff9900" stroke="#b36b00" stroke-width="1.5" opacity="0"/><path aria-label="date: Nov 05, 2025; count: 9; Peak date: Nov 05, 2025; Peak unique count: 9" role="graphics-symbol" aria-roledescription="point" transform="translate(2200.133333333333,401.4545454545455)" d="M-5.916,0L0,-5.916L5.916,0L0,5.916Z" fill="#ff9900" stroke="#b36b00" stroke-width="1.5" opacity="0"/><path aria-label="date: Nov 06, 2025; count: 9; Peak date: Nov 06, 2025; Peak unique count: 9" role="graphics-symbol" aria-roledescription="point" transform="translate(2238.0666666666666,401.4545454545455)" d="M-5.916,0L0,-5.916L5.916,0L0,5.916Z" fill="#ff9900" stroke="#b36b00" stroke-width="1.5" opacity="0"/><path aria-label="date: Nov 07, 2025; count: 4; Peak date: Nov 07, 2025; Peak unique count: 4" role="graphics-symbol" aria-roledescription="point" transform="translate(2276,445.09090909090907)" d="M-5.916,0L0,-5.916L5.916,0L0,5.916Z" fill="#ff9900" stroke="#b36b00" stroke-width="1.5" opacity="0"/></g><g class="mark-rule role-mark layer_5_marks" role="graphics-symbol" aria-roledescription="rule mark container" pointer-events="none"><line transform="translate(2276,314.87999999999994)" x2="-2276" y2="0" stroke="#d62728" stroke-width="1.5" stroke-dasharray="4,4"/><line transform="translate(2276,314.87999999999994)" x2="-2276" y2="0" stroke="#d62728" stroke-width="1.5" stroke-dasharray="4,4"/><line transform="translate(2276,314.87999999999994)" x2="-2276" y2="0" stroke="#d62728" stroke-width="1.5" stroke-dasharray="4,4"/><line transform="translate(2276,314.87999999999994)" x2="-2276" y2="0" stroke="#d62728" stroke-width="1.5" stroke-dasharray="4,4"/><line transform="translate(2276,314.87999999999994)" x2="-2276" y2="0" stroke="#d62728" stroke-width="1.5" stroke-dasharray="4,4"/><line transform="translate(2276,314.87999999999994)" x2="-2276" y2="0" stroke="#d62728" stroke-width="1.5" stroke-dasharray="4,4"/><line transform="translate(2276,314.87999999999994)" x2="-2276" y2="0" stroke="#d62728" stroke-width="1.5" stroke-dasharray="4,4"/><line transform="translate(2276,314.87999999999994)" x2="-2276" y2="0" stroke="#d62728" stroke-width="1.5" stroke-dasharray="4,4"/><line transform="translate(2276,314.87999999999994)" x2="-2276" y2="0" stroke="#d62728" stroke-width="1.5" stroke-dasharray="4,4"/><line transform="translate(2276,314.87999999999994)" x2="-2276" y2="0" stroke="#d62728" stroke-width="1.5" stroke-dasharray="4,4"/><line transform="translate(2276,314.87999999999994)" x2="-2276" y2="0" stroke="#d62728" stroke-width="1.5" stroke-dasharray="4,4"/><line transform="translate(2276,314.87999999999994)" x2="-2276" y2="0" stroke="#d62728" stroke-width="1.5" stroke-dasharray="4,4"/><line transform="translate(2276,314.87999999999994)" x2="-2276" y2="0" stroke="#d62728" stroke-width="1.5" stroke-dasharray="4,4"/><line transform="translate(2276,314.87999999999994)" x2="-2276" y2="0" stroke="#d62728" stroke-width="1.5" stroke-dasharray="4,4"/><line transform="translate(2276,314.87999999999994)" x2="-2276" y2="0" stroke="#d62728" stroke-width="1.5" stroke-dasharray="4,4"/><line transform="translate(2276,314.87999999999994)" x2="-2276" y2="0" stroke="#d62728" stroke-width="1.5" stroke-dasharray="4,4"/><line transform="translate(2276,314.87999999999994)" x2="-2276" y2="0" stroke="#d62728" stroke-width="1.5" stroke-dasharray="4,4"/><line transform="translate(2276,314.87999999999994)" x2="-2276" y2="0" stroke="#d62728" stroke-width="1.5" stroke-dasharray="4,4"/><line transform="translate(2276,314.87999999999994)" x2="-2276" y2="0" stroke="#d62728" stroke-width="1.5" stroke-dasharray="4,4"/><line transform="translate(2276,314.87999999999994)" x2="-2276" y2="0" stroke="#d62728" stroke-width="1.5" stroke-dasharray="4,4"/><line transform="translate(2276,314.87999999999994)" x2="-2276" y2="0" stroke="#d62728" stroke-width="1.5" stroke-dasharray="4,4"/><line transform="translate(2276,314.87999999999994)" x2="-2276" y2="0" stroke="#d62728" stroke-width="1.5" stroke-dasharray="4,4"/><line transform="translate(2276,314.87999999999994)" x2="-2276" y2="0" stroke="#d62728" stroke-width="1.5" stroke-dasharray="4,4"/><line transform="translate(2276,314.87999999999994)" x2="-2276" y2="0" stroke="#d62728" stroke-width="1.5" stroke-dasharray="4,4"/><line transform="translate(2276,314.87999999999994)" x2="-2276" y2="0" stroke="#d62728" stroke-width="1.5" stroke-dasharray="4,4"/><line transform="translate(2276,314.87999999999994)" x2="-2276" y2="0" stroke="#d62728" stroke-width="1.5" stroke-dasharray="4,4"/><line transform="translate(2276,314.87999999999994)" x2="-2276" y2="0" stroke="#d62728" stroke-width="1.5" stroke-dasharray="4,4"/><line transform="translate(2276,314.87999999999994)" x2="-2276" y2="0" stroke="#d62728" stroke-width="1.5" stroke-dasharray="4,4"/><line transform="translate(2276,314.87999999999994)" x2="-2276" y2="0" stroke="#d62728" stroke-width="1.5" stroke-dasharray="4,4"/><line transform="translate(2276,314.87999999999994)" x2="-2276" y2="0" stroke="#d62728" stroke-width="1.5" stroke-dasharray="4,4"/><line transform="translate(2276,314.87999999999994)" x2="-2276" y2="0" stroke="#d62728" stroke-width="1.5" stroke-dasharray="4,4"/><line transform="translate(2276,314.87999999999994)" x2="-2276" y2="0" stroke="#d62728" stroke-width="1.5" stroke-dasharray="4,4"/><line transform="translate(2276,314.87999999999994)" x2="-2276" y2="0" stroke="#d62728" stroke-width="1.5" stroke-dasharray="4,4"/><line transform="translate(2276,314.87999999999994)" x2="-2276" y2="0" stroke="#d62728" stroke-width="1.5" stroke-dasharray="4,4"/><line transform="translate(2276,314.87999999999994)" x2="-2276" y2="0" stroke="#d62728" stroke-width="1.5" stroke-dasharray="4,4"/><line transform="translate(2276,314.87999999999994)" x2="-2276" y2="0" stroke="#d62728" stroke-width="1.5" stroke-dasharray="4,4"/><line transform="translate(2276,314.87999999999994)" x2="-2276" y2="0" stroke="#d62728" stroke-width="1.5" stroke-dasharray="4,4"/><line transform="translate(2276,314.87999999999994)" x2="-2276" y2="0" stroke="#d62728" stroke-width="1.5" stroke-dasharray="4,4"/><line transform="translate(2276,314.87999999999994)" x2="-2276" y2="0" stroke="#d62728" stroke-width="1.5" stroke-dasharray="4,4"/><line transform="translate(2276,314.87999999999994)" x2="-2276" y2="0" stroke="#d62728" stroke-width="1.5" stroke-dasharray="4,4"/><line transform="translate(2276,314.87999999999994)" x2="-2276" y2="0" stroke="#d62728" stroke-width="1.5" stroke-dasharray="4,4"/><line transform="translate(2276,314.87999999999994)" x2="-2276" y2="0" stroke="#d62728" stroke-width="1.5" stroke-dasharray="4,4"/><line transform="translate(2276,314.87999999999994)" x2="-2276" y2="0" stroke="#d62728" stroke-width="1.5" stroke-dasharray="4,4"/><line transform="translate(2276,314.87999999999994)" x2="-2276" y2="0" stroke="#d62728" stroke-width="1.5" stroke-dasharray="4,4"/><line transform="translate(2276,314.87999999999994)" x2="-2276" y2="0" stroke="#d62728" stroke-width="1.5" stroke-dasharray="4,4"/><line transform="translate(2276,314.87999999999994)" x2="-2276" y2="0" stroke="#d62728" stroke-width="1.5" stroke-dasharray="4,4"/><line transform="translate(2276,314.87999999999994)" x2="-2276" y2="0" stroke="#d62728" stroke-width="1.5" stroke-dasharray="4,4"/><line transform="translate(2276,314.87999999999994)" x2="-2276" y2="0" stroke="#d62728" stroke-width="1.5" stroke-dasharray="4,4"/><line transform="translate(2276,314.87999999999994)" x2="-2276" y2="0" stroke="#d62728" stroke-width="1.5" stroke-dasharray="4,4"/><line transform="translate(2276,314.87999999999994)" x2="-2276" y2="0" stroke="#d62728" stroke-width="1.5" stroke-dasharray="4,4"/><line transform="translate(2276,314.87999999999994)" x2="-2276" y2="0" stroke="#d62728" stroke-width="1.5" stroke-dasharray="4,4"/><line transform="translate(2276,314.87999999999994)" x2="-2276" y2="0" stroke="#d62728" stroke-width="1.5" stroke-dasharray="4,4"/><line transform="translate(2276,314.87999999999994)" x2="-2276" y2="0" stroke="#d62728" stroke-width="1.5" stroke-dasharray="4,4"/><line transform="translate(2276,314.87999999999994)" x2="-2276" y2="0" stroke="#d62728" stroke-width="1.5" stroke-dasharray="4,4"/><line transform="translate(2276,314.87999999999994)" x2="-2276" y2="0" stroke="#d62728" stroke-width="1.5" stroke-dasharray="4,4"/><line transform="translate(2276,314.87999999999994)" x2="-2276" y2="0" stroke="#d62728" stroke-width="1.5" stroke-dasharray="4,4"/><line transform="translate(2276,314.87999999999994)" x2="-2276" y2="0" stroke="#d62728" stroke-width="1.5" stroke-dasharray="4,4"/><line transform="translate(2276,314.87999999999994)" x2="-2276" y2="0" stroke="#d62728" stroke-width="1.5" stroke-dasharray="4,4"/><line transform="translate(2276,314.87999999999994)" x2="-2276" y2="0" stroke="#d62728" stroke-width="1.5" stroke-dasharray="4,4"/><line transform="translate(2276,314.87999999999994)" x2="-2276" y2="0" stroke="#d62728" stroke-width="1.5" stroke-dasharray="4,4"/><line transform="translate(2276,314.87999999999994)" x2="-2276" y2="0" stroke="#d62728" stroke-width="1.5" stroke-dasharray="4,4"/></g><g class="mark-text role-mark layer_6_marks" role="graphics-object" aria-roledescription="text mark container" pointer-events="none"><text aria-label="date: Nov 07, 2025" role="graphics-symbol" aria-roledescription="text mark" text-anchor="start" transform="translate(2282,312.87999999999994)" font-family="sans-serif" font-size="12px" fill="#d62728">Avg: 18.92</text></g></g><path class="foreground" aria-hidden="true" d="" display="none"/></g></g></g></svg>
