<svg xmlns="http://www.w3.org/2000/svg" xmlns:xlink="http://www.w3.org/1999/xlink" version="1.1" class="marks" width="2151" height="573" viewBox="0 0 2151 573"><rect width="2151" height="573" fill="white"/><g fill="none" stroke-miterlimit="10" transform="translate(51,11)"><g class="mark-group role-frame root" role="graphics-object" aria-roledescription="group mark container"><g transform="translate(0,0)"><path class="background" aria-hidden="true" d="M0.5,0.5h2024v480h-2024Z"/><g><g class="mark-group role-axis" aria-hidden="true"><g transform="translate(0.5,0.5)"><path class="background" aria-hidden="true" d="M0,0h0v0h0Z" pointer-events="none"/><g><g class="mark-rule role-axis-grid" pointer-events="none"><line transform="translate(0,480)" x2="2024" y2="0" stroke="#ddd" stroke-width="1" opacity="1"/><line transform="translate(0,436)" x2="2024" y2="0" stroke="#ddd" stroke-width="1" opacity="1"/><line transform="translate(0,393)" x2="2024" y2="0" stroke="#ddd" stroke-width="1" opacity="1"/><line transform="translate(0,349)" x2="2024" y2="0" stroke="#ddd" stroke-width="1" opacity="1"/><line transform="translate(0,305)" x2="2024" y2="0" stroke="#ddd" stroke-width="1" opacity="1"/><line transform="translate(0,262)" x2="2024" y2="0" stroke="#ddd" stroke-width="1" opacity="1"/><line transform="translate(0,218)" x2="2024" y2="0" stroke="#ddd" stroke-width="1" opacity="1"/><line transform="translate(0,175)" x2="2024" y2="0" stroke="#ddd" stroke-width="1" opacity="1"/><line transform="translate(0,131)" x2="2024" y2="0" stroke="#ddd" stroke-width="1" opacity="1"/><line transform="translate(0,87)" x2="2024" y2="0" stroke="#ddd" stroke-width="1" opacity="1"/><line transform="translate(0,44)" x2="2024" y2="0" stroke="#ddd" stroke-width="1" opacity="1"/><line transform="translate(0,0)" x2="2024" y2="0" stroke="#ddd" stroke-width="1" opacity="1"/></g></g><path class="foreground" aria-hidden="true" d="" pointer-events="none" display="none"/></g></g><g class="mark-group role-axis" role="graphics-symbol" aria-roledescription="axis" aria-label="X-axis titled 'Date' for a time scale with values from 2025-09-08 to 2025-10-31"><g transform="translate(0.5,480.5)"><path class="background" aria-hidden="true" d="M0,0h0v0h0Z" pointer-events="none"/><g><g class="mark-rule role-axis-tick" pointer-events="none"><line transform="translate(0,0)" x2="0" y2="5" stroke="#bbb" stroke-width="1" opacity="1"/><line transform="translate(38,0)" x2="0" y2="5" stroke="#bbb" stroke-width="1" opacity="1"/><line transform="translate(76,0)" x2="0" y2="5" stroke="#bbb" stroke-width="1" opacity="1"/><line transform="translate(115,0)" x2="0" y2="5" stroke="#bbb" stroke-width="1" opacity="1"/><line transform="translate(153,0)" x2="0" y2="5" stroke="#bbb" stroke-width="1" opacity="1"/><line transform="translate(191,0)" x2="0" y2="5" stroke="#bbb" stroke-width="1" opacity="1"/><line transform="translate(229,0)" x2="0" y2="5" stroke="#bbb" stroke-width="1" opacity="1"/><line transform="translate(267,0)" x2="0" y2="5" stroke="#bbb" stroke-width="1" opacity="1"/><line transform="translate(306,0)" x2="0" y2="5" stroke="#bbb" stroke-width="1" opacity="1"/><line transform="translate(344,0)" x2="0" y2="5" stroke="#bbb" stroke-width="1" opacity="1"/><line transform="translate(382,0)" x2="0" y2="5" stroke="#bbb" stroke-width="1" opacity="1"/><line transform="translate(420,0)" x2="0" y2="5" stroke="#bbb" stroke-width="1" opacity="1"/><line transform="translate(458,0)" x2="0" y2="5" stroke="#bbb" stroke-width="1" opacity="1"/><line transform="translate(496,0)" x2="0" y2="5" stroke="#bbb" stroke-width="1" opacity="1"/><line transform="translate(535,0)" x2="0" y2="5" stroke="#bbb" stroke-width="1" opacity="1"/><line transform="translate(573,0)" x2="0" y2="5" stroke="#bbb" stroke-width="1" opacity="1"/><line transform="translate(611,0)" x2="0" y2="5" stroke="#bbb" stroke-width="1" opacity="1"/><line transform="translate(649,0)" x2="0" y2="5" stroke="#bbb" stroke-width="1" opacity="1"/><line transform="translate(687,0)" x2="0" y2="5" stroke="#bbb" stroke-width="1" opacity="1"/><line transform="translate(726,0)" x2="0" y2="5" stroke="#bbb" stroke-width="1" opacity="1"/><line transform="translate(764,0)" x2="0" y2="5" stroke="#bbb" stroke-width="1" opacity="1"/><line transform="translate(802,0)" x2="0" y2="5" stroke="#bbb" stroke-width="1" opacity="1"/><line transform="translate(840,0)" x2="0" y2="5" stroke="#bbb" stroke-width="1" opacity="1"/><line transform="translate(878,0)" x2="0" y2="5" stroke="#bbb" stroke-width="1" opacity="1"/><line transform="translate(917,0)" x2="0" y2="5" stroke="#bbb" stroke-width="1" opacity="1"/><line transform="translate(955,0)" x2="0" y2="5" stroke="#bbb" stroke-width="1" opacity="1"/><line transform="translate(993,0)" x2="0" y2="5" stroke="#bbb" stroke-width="1" opacity="1"/><line transform="translate(1031,0)" x2="0" y2="5" stroke="#bbb" stroke-width="1" opacity="1"/><line transform="translate(1069,0)" x2="0" y2="5" stroke="#bbb" stroke-width="1" opacity="1"/><line transform="translate(1107,0)" x2="0" y2="5" stroke="#bbb" stroke-width="1" opacity="1"/><line transform="translate(1146,0)" x2="0" y2="5" stroke="#bbb" stroke-width="1" opacity="1"/><line transform="translate(1184,0)" x2="0" y2="5" stroke="#bbb" stroke-width="1" opacity="1"/><line transform="translate(1222,0)" x2="0" y2="5" stroke="#bbb" stroke-width="1" opacity="1"/><line transform="translate(1260,0)" x2="0" y2="5" stroke="#bbb" stroke-width="1" opacity="1"/><line transform="translate(1298,0)" x2="0" y2="5" stroke="#bbb" stroke-width="1" opacity="1"/><line transform="translate(1337,0)" x2="0" y2="5" stroke="#bbb" stroke-width="1" opacity="1"/><line transform="translate(1375,0)" x2="0" y2="5" stroke="#bbb" stroke-width="1" opacity="1"/><line transform="translate(1413,0)" x2="0" y2="5" stroke="#bbb" stroke-width="1" opacity="1"/><line transform="translate(1451,0)" x2="0" y2="5" stroke="#bbb" stroke-width="1" opacity="1"/><line transform="translate(1489,0)" x2="0" y2="5" stroke="#bbb" stroke-width="1" opacity="1"/><line transform="translate(1528,0)" x2="0" y2="5" stroke="#bbb" stroke-width="1" opacity="1"/><line transform="translate(1566,0)" x2="0" y2="5" stroke="#bbb" stroke-width="1" opacity="1"/><line transform="translate(1604,0)" x2="0" y2="5" stroke="#bbb" stroke-width="1" opacity="1"/><line transform="translate(1642,0)" x2="0" y2="5" stroke="#bbb" stroke-width="1" opacity="1"/><line transform="translate(1680,0)" x2="0" y2="5" stroke="#bbb" stroke-width="1" opacity="1"/><line transform="translate(1718,0)" x2="0" y2="5" stroke="#bbb" stroke-width="1" opacity="1"/><line transform="translate(1757,0)" x2="0" y2="5" stroke="#bbb" stroke-width="1" opacity="1"/><line transform="translate(1795,0)" x2="0" y2="5" stroke="#bbb" stroke-width="1" opacity="1"/><line transform="translate(1833,0)" x2="0" y2="5" stroke="#bbb" stroke-width="1" opacity="1"/><line transform="translate(1871,0)" x2="0" y2="5" stroke="#bbb" stroke-width="1" opacity="1"/><line transform="translate(1909,0)" x2="0" y2="5" stroke="#bbb" stroke-width="1" opacity="1"/><line transform="translate(1948,0)" x2="0" y2="5" stroke="#bbb" stroke-width="1" opacity="1"/><line transform="translate(1986,0)" x2="0" y2="5" stroke="#bbb" stroke-width="1" opacity="1"/><line transform="translate(2024,0)" x2="0" y2="5" stroke="#bbb" stroke-width="1" opacity="1"/></g><g class="mark-text role-axis-label" pointer-events="none"><text text-anchor="end" transform="translate(0,7) rotate(315) translate(0,9)" font-family="Segoe UI" font-size="11px" fill="#000" opacity="1">2025-09-08</text><text text-anchor="end" transform="translate(38.18867924528302,7) rotate(315) translate(0,9)" font-family="Segoe UI" font-size="11px" fill="#000" opacity="0">2025-09-09</text><text text-anchor="end" transform="translate(76.37735849056604,7) rotate(315) translate(0,9)" font-family="Segoe UI" font-size="11px" fill="#000" opacity="1">2025-09-10</text><text text-anchor="end" transform="translate(114.56603773584906,7) rotate(315) translate(0,9)" font-family="Segoe UI" font-size="11px" fill="#000" opacity="0">2025-09-11</text><text text-anchor="end" transform="translate(152.75471698113208,7) rotate(315) translate(0,9)" font-family="Segoe UI" font-size="11px" fill="#000" opacity="1">2025-09-12</text><text text-anchor="end" transform="translate(190.9433962264151,7) rotate(315) translate(0,9)" font-family="Segoe UI" font-size="11px" fill="#000" opacity="0">2025-09-13</text><text text-anchor="end" transform="translate(229.13207547169813,7) rotate(315) translate(0,9)" font-family="Segoe UI" font-size="11px" fill="#000" opacity="1">2025-09-14</text><text text-anchor="end" transform="translate(267.3207547169811,7) rotate(315) translate(0,9)" font-family="Segoe UI" font-size="11px" fill="#000" opacity="0">2025-09-15</text><text text-anchor="end" transform="translate(305.50943396226415,7) rotate(315) translate(0,9)" font-family="Segoe UI" font-size="11px" fill="#000" opacity="1">2025-09-16</text><text text-anchor="end" transform="translate(343.6981132075471,7) rotate(315) translate(0,9)" font-family="Segoe UI" font-size="11px" fill="#000" opacity="0">2025-09-17</text><text text-anchor="end" transform="translate(381.8867924528302,7) rotate(315) translate(0,9)" font-family="Segoe UI" font-size="11px" fill="#000" opacity="1">2025-09-18</text><text text-anchor="end" transform="translate(420.07547169811323,7) rotate(315) translate(0,9)" font-family="Segoe UI" font-size="11px" fill="#000" opacity="0">2025-09-19</text><text text-anchor="end" transform="translate(458.26415094339626,7) rotate(315) translate(0,9)" font-family="Segoe UI" font-size="11px" fill="#000" opacity="1">2025-09-20</text><text text-anchor="end" transform="translate(496.45283018867923,7) rotate(315) translate(0,9)" font-family="Segoe UI" font-size="11px" fill="#000" opacity="0">2025-09-21</text><text text-anchor="end" transform="translate(534.6415094339623,7) rotate(315) translate(0,9)" font-family="Segoe UI" font-size="11px" fill="#000" opacity="1">2025-09-22</text><text text-anchor="end" transform="translate(572.8301886792452,7) rotate(315) translate(0,9)" font-family="Segoe UI" font-size="11px" fill="#000" opacity="0">2025-09-23</text><text text-anchor="end" transform="translate(611.0188679245283,7) rotate(315) translate(0,9)" font-family="Segoe UI" font-size="11px" fill="#000" opacity="1">2025-09-24</text><text text-anchor="end" transform="translate(649.2075471698113,7) rotate(315) translate(0,9)" font-family="Segoe UI" font-size="11px" fill="#000" opacity="0">2025-09-25</text><text text-anchor="end" transform="translate(687.3962264150942,7) rotate(315) translate(0,9)" font-family="Segoe UI" font-size="11px" fill="#000" opacity="1">2025-09-26</text><text text-anchor="end" transform="translate(725.5849056603773,7) rotate(315) translate(0,9)" font-family="Segoe UI" font-size="11px" fill="#000" opacity="0">2025-09-27</text><text text-anchor="end" transform="translate(763.7735849056604,7) rotate(315) translate(0,9)" font-family="Segoe UI" font-size="11px" fill="#000" opacity="1">2025-09-28</text><text text-anchor="end" transform="translate(801.9622641509435,7) rotate(315) translate(0,9)" font-family="Segoe UI" font-size="11px" fill="#000" opacity="0">2025-09-29</text><text text-anchor="end" transform="translate(840.1509433962265,7) rotate(315) translate(0,9)" font-family="Segoe UI" font-size="11px" fill="#000" opacity="1">2025-09-30</text><text text-anchor="end" transform="translate(878.3396226415094,7) rotate(315) translate(0,9)" font-family="Segoe UI" font-size="11px" fill="#000" opacity="0">2025-10-01</text><text text-anchor="end" transform="translate(916.5283018867925,7) rotate(315) translate(0,9)" font-family="Segoe UI" font-size="11px" fill="#000" opacity="1">2025-10-02</text><text text-anchor="end" transform="translate(954.7169811320755,7) rotate(315) translate(0,9)" font-family="Segoe UI" font-size="11px" fill="#000" opacity="0">2025-10-03</text><text text-anchor="end" transform="translate(992.9056603773585,7) rotate(315) translate(0,9)" font-family="Segoe UI" font-size="11px" fill="#000" opacity="1">2025-10-04</text><text text-anchor="end" transform="translate(1031.0943396226414,7) rotate(315) translate(0,9)" font-family="Segoe UI" font-size="11px" fill="#000" opacity="0">2025-10-05</text><text text-anchor="end" transform="translate(1069.2830188679245,7) rotate(315) translate(0,9)" font-family="Segoe UI" font-size="11px" fill="#000" opacity="1">2025-10-06</text><text text-anchor="end" transform="translate(1107.4716981132076,7) rotate(315) translate(0,9)" font-family="Segoe UI" font-size="11px" fill="#000" opacity="0">2025-10-07</text><text text-anchor="end" transform="translate(1145.6603773584905,7) rotate(315) translate(0,9)" font-family="Segoe UI" font-size="11px" fill="#000" opacity="1">2025-10-08</text><text text-anchor="end" transform="translate(1183.8490566037735,7) rotate(315) translate(0,9)" font-family="Segoe UI" font-size="11px" fill="#000" opacity="0">2025-10-09</text><text text-anchor="end" transform="translate(1222.0377358490566,7) rotate(315) translate(0,9)" font-family="Segoe UI" font-size="11px" fill="#000" opacity="1">2025-10-10</text><text text-anchor="end" transform="translate(1260.2264150943395,7) rotate(315) translate(0,9)" font-family="Segoe UI" font-size="11px" fill="#000" opacity="0">2025-10-11</text><text text-anchor="end" transform="translate(1298.4150943396226,7) rotate(315) translate(0,9)" font-family="Segoe UI" font-size="11px" fill="#000" opacity="1">2025-10-12</text><text text-anchor="end" transform="translate(1336.6037735849056,7) rotate(315) translate(0,9)" font-family="Segoe UI" font-size="11px" fill="#000" opacity="0">2025-10-13</text><text text-anchor="end" transform="translate(1374.7924528301885,7) rotate(315) translate(0,9)" font-family="Segoe UI" font-size="11px" fill="#000" opacity="1">2025-10-14</text><text text-anchor="end" transform="translate(1412.9811320754716,7) rotate(315) translate(0,9)" font-family="Segoe UI" font-size="11px" fill="#000" opacity="0">2025-10-15</text><text text-anchor="end" transform="translate(1451.1698113207547,7) rotate(315) translate(0,9)" font-family="Segoe UI" font-size="11px" fill="#000" opacity="1">2025-10-16</text><text text-anchor="end" transform="translate(1489.3584905660375,7) rotate(315) translate(0,9)" font-family="Segoe UI" font-size="11px" fill="#000" opacity="0">2025-10-17</text><text text-anchor="end" transform="translate(1527.5471698113208,7) rotate(315) translate(0,9)" font-family="Segoe UI" font-size="11px" fill="#000" opacity="1">2025-10-18</text><text text-anchor="end" transform="translate(1565.735849056604,7) rotate(315) translate(0,9)" font-family="Segoe UI" font-size="11px" fill="#000" opacity="0">2025-10-19</text><text text-anchor="end" transform="translate(1603.924528301887,7) rotate(315) translate(0,9)" font-family="Segoe UI" font-size="11px" fill="#000" opacity="1">2025-10-20</text><text text-anchor="end" transform="translate(1642.1132075471698,7) rotate(315) translate(0,9)" font-family="Segoe UI" font-size="11px" fill="#000" opacity="0">2025-10-21</text><text text-anchor="end" transform="translate(1680.301886792453,7) rotate(315) translate(0,9)" font-family="Segoe UI" font-size="11px" fill="#000" opacity="1">2025-10-22</text><text text-anchor="end" transform="translate(1718.490566037736,7) rotate(315) translate(0,9)" font-family="Segoe UI" font-size="11px" fill="#000" opacity="0">2025-10-23</text><text text-anchor="end" transform="translate(1756.6792452830189,7) rotate(315) translate(0,9)" font-family="Segoe UI" font-size="11px" fill="#000" opacity="1">2025-10-24</text><text text-anchor="end" transform="translate(1794.867924528302,7) rotate(315) translate(0,9)" font-family="Segoe UI" font-size="11px" fill="#000" opacity="0">2025-10-25</text><text text-anchor="end" transform="translate(1833.056603773585,7) rotate(315) translate(0,9)" font-family="Segoe UI" font-size="11px" fill="#000" opacity="1">2025-10-26</text><text text-anchor="end" transform="translate(1871.245283018868,7) rotate(315) translate(0,9)" font-family="Segoe UI" font-size="11px" fill="#000" opacity="0">2025-10-27</text><text text-anchor="end" transform="translate(1909.433962264151,7) rotate(315) translate(0,9)" font-family="Segoe UI" font-size="11px" fill="#000" opacity="1">2025-10-28</text><text text-anchor="end" transform="translate(1947.622641509434,7) rotate(315) translate(0,9)" font-family="Segoe UI" font-size="11px" fill="#000" opacity="0">2025-10-29</text><text text-anchor="end" transform="translate(1985.811320754717,7) rotate(315) translate(0,9)" font-family="Segoe UI" font-size="11px" fill="#000" opacity="1">2025-10-30</text><text text-anchor="end" transform="translate(2024,7) rotate(315) translate(0,9)" font-family="Segoe UI" font-size="11px" fill="#000" opacity="0">2025-10-31</text></g><g class="mark-rule role-axis-domain" pointer-events="none"><line transform="translate(0,0)" x2="2024" y2="0" stroke="#888" stroke-width="1" opacity="1"/></g><g class="mark-text role-axis-title" pointer-events="none"><text text-anchor="middle" transform="translate(1012,73.97776587171109)" font-family="Segoe UI" font-size="13px" font-weight="bold" fill="#000" opacity="1">Date</text></g></g><path class="foreground" aria-hidden="true" d="" pointer-events="none" display="none"/></g></g><g class="mark-group role-axis" role="graphics-symbol" aria-roledescription="axis" aria-label="Y-axis titled 'Unique server names' for a linear scale with values from 0 to 55"><g transform="translate(0.5,0.5)"><path class="background" aria-hidden="true" d="M0,0h0v0h0Z" pointer-events="none"/><g><g class="mark-rule role-axis-tick" pointer-events="none"><line transform="translate(0,480)" x2="-5" y2="0" stroke="#bbb" stroke-width="1" opacity="1"/><line transform="translate(0,436)" x2="-5" y2="0" stroke="#bbb" stroke-width="1" opacity="1"/><line transform="translate(0,393)" x2="-5" y2="0" stroke="#bbb" stroke-width="1" opacity="1"/><line transform="translate(0,349)" x2="-5" y2="0" stroke="#bbb" stroke-width="1" opacity="1"/><line transform="translate(0,305)" x2="-5" y2="0" stroke="#bbb" stroke-width="1" opacity="1"/><line transform="translate(0,262)" x2="-5" y2="0" stroke="#bbb" stroke-width="1" opacity="1"/><line transform="translate(0,218)" x2="-5" y2="0" stroke="#bbb" stroke-width="1" opacity="1"/><line transform="translate(0,175)" x2="-5" y2="0" stroke="#bbb" stroke-width="1" opacity="1"/><line transform="translate(0,131)" x2="-5" y2="0" stroke="#bbb" stroke-width="1" opacity="1"/><line transform="translate(0,87)" x2="-5" y2="0" stroke="#bbb" stroke-width="1" opacity="1"/><line transform="translate(0,44)" x2="-5" y2="0" stroke="#bbb" stroke-width="1" opacity="1"/><line transform="translate(0,0)" x2="-5" y2="0" stroke="#bbb" stroke-width="1" opacity="1"/></g><g class="mark-text role-axis-label" pointer-events="none"><text text-anchor="end" transform="translate(-7,483)" font-family="Segoe UI" font-size="11px" fill="#000" opacity="1">0</text><text text-anchor="end" transform="translate(-7,439.3636363636364)" font-family="Segoe UI" font-size="11px" fill="#000" opacity="1">5</text><text text-anchor="end" transform="translate(-7,395.7272727272727)" font-family="Segoe UI" font-size="11px" fill="#000" opacity="1">10</text><text text-anchor="end" transform="translate(-7,352.0909090909091)" font-family="Segoe UI" font-size="11px" fill="#000" opacity="1">15</text><text text-anchor="end" transform="translate(-7,308.45454545454544)" font-family="Segoe UI" font-size="11px" fill="#000" opacity="1">20</text><text text-anchor="end" transform="translate(-7,264.8181818181818)" font-family="Segoe UI" font-size="11px" fill="#000" opacity="1">25</text><text text-anchor="end" transform="translate(-7,221.1818181818182)" font-family="Segoe UI" font-size="11px" fill="#000" opacity="1">30</text><text text-anchor="end" transform="translate(-7,177.54545454545456)" font-family="Segoe UI" font-size="11px" fill="#000" opacity="1">35</text><text text-anchor="end" transform="translate(-7,133.9090909090909)" font-family="Segoe UI" font-size="11px" fill="#000" opacity="1">40</text><text text-anchor="end" transform="translate(-7,90.27272727272725)" font-family="Segoe UI" font-size="11px" fill="#000" opacity="1">45</text><text text-anchor="end" transform="translate(-7,46.636363636363654)" font-family="Segoe UI" font-size="11px" fill="#000" opacity="1">50</text><text text-anchor="end" transform="translate(-7,3)" font-family="Segoe UI" font-size="11px" fill="#000" opacity="1">55</text></g><g class="mark-rule role-axis-domain" pointer-events="none"><line transform="translate(0,480)" x2="0" y2="-480" stroke="#888" stroke-width="1" opacity="1"/></g><g class="mark-text role-axis-title" pointer-events="none"><text text-anchor="middle" transform="translate(-24.99609375,240) rotate(-90) translate(0,-3)" font-family="Segoe UI" font-size="13px" font-weight="bold" fill="#000" opacity="1">Unique server names</text></g></g><path class="foreground" aria-hidden="true" d="" pointer-events="none" display="none"/></g></g><g class="mark-area role-mark layer_0_marks" role="graphics-object" aria-roledescription="area mark container" pointer-events="none"><path aria-label="date: 2025-09-08; count: 1" role="graphics-symbol" aria-roledescription="area mark" d="M0,471.273C12.73,240,25.459,8.727,38.189,8.727C50.918,8.727,63.648,17.455,76.377,34.909C89.107,52.364,101.836,142.545,114.566,165.818C127.296,189.091,140.025,177.455,152.755,200.727C165.484,224,178.214,293.818,190.943,305.455C203.673,317.091,216.403,322.909,229.132,322.909C241.862,322.909,254.591,273.455,267.321,261.818C280.05,250.182,292.78,256,305.509,244.364C318.239,232.727,330.969,151.273,343.698,139.636C356.428,128,369.157,122.182,381.887,122.182C394.616,122.182,407.346,212.364,420.075,235.636C432.805,258.909,445.535,251.636,458.264,270.545C470.994,289.455,483.723,349.091,496.453,349.091C509.182,349.091,521.912,343.273,534.642,340.364C547.371,337.455,560.101,334.545,572.83,331.636C585.56,328.727,598.289,322.909,611.019,322.909C623.748,322.909,636.478,384,649.208,384C661.937,384,674.667,261.818,687.396,261.818C700.126,261.818,712.855,418.909,725.585,418.909C738.314,418.909,751.044,398.545,763.774,357.818C776.503,317.091,789.233,148.364,801.962,148.364C814.692,148.364,827.421,202.182,840.151,244.364C852.881,286.545,865.61,401.455,878.34,401.455C891.069,401.455,903.799,165.818,916.528,165.818C929.258,165.818,941.987,253.091,954.717,253.091C967.447,253.091,980.176,253.091,992.906,253.091C1005.635,253.091,1018.365,340.364,1031.094,340.364C1043.824,340.364,1056.553,327.273,1069.283,305.455C1082.013,283.636,1094.742,209.455,1107.472,209.455C1120.201,209.455,1132.931,229.818,1145.66,253.091C1158.39,276.364,1171.119,349.091,1183.849,349.091C1196.579,349.091,1209.308,314.182,1222.038,314.182C1234.767,314.182,1247.497,401.455,1260.226,401.455C1272.956,401.455,1285.686,349.091,1298.415,349.091C1311.145,349.091,1323.874,349.091,1336.604,349.091C1349.333,349.091,1362.063,366.545,1374.792,366.545C1387.522,366.545,1400.252,314.182,1412.981,314.182C1425.711,314.182,1438.44,330.182,1451.17,340.364C1463.899,350.545,1476.629,356.364,1489.358,375.273C1502.088,394.182,1514.818,453.818,1527.547,453.818C1540.277,453.818,1553.006,442.182,1565.736,427.636C1578.465,413.091,1591.195,366.545,1603.925,366.545C1616.654,366.545,1629.384,392.727,1642.113,392.727C1654.843,392.727,1667.572,331.636,1680.302,331.636C1693.031,331.636,1705.761,375.273,1718.491,375.273C1731.22,375.273,1743.95,370.909,1756.679,366.545C1769.409,362.182,1782.138,349.091,1794.868,349.091C1807.597,349.091,1820.327,392.727,1833.057,392.727C1845.786,392.727,1858.516,375.273,1871.245,349.091C1883.975,322.909,1896.704,235.636,1909.434,235.636C1922.164,235.636,1934.893,392.727,1947.623,392.727C1960.352,392.727,1973.082,349.091,1985.811,349.091C1998.541,349.091,2011.27,405.818,2024,462.545L2024,480C2011.27,480,1998.541,480,1985.811,480C1973.082,480,1960.352,480,1947.623,480C1934.893,480,1922.164,480,1909.434,480C1896.704,480,1883.975,480,1871.245,480C1858.516,480,1845.786,480,1833.057,480C1820.327,480,1807.597,480,1794.868,480C1782.138,480,1769.409,480,1756.679,480C1743.95,480,1731.22,480,1718.491,480C1705.761,480,1693.031,480,1680.302,480C1667.572,480,1654.843,480,1642.113,480C1629.384,480,1616.654,480,1603.925,480C1591.195,480,1578.465,480,1565.736,480C1553.006,480,1540.277,480,1527.547,480C1514.818,480,1502.088,480,1489.358,480C1476.629,480,1463.899,480,1451.17,480C1438.44,480,1425.711,480,1412.981,480C1400.252,480,1387.522,480,1374.792,480C1362.063,480,1349.333,480,1336.604,480C1323.874,480,1311.145,480,1298.415,480C1285.686,480,1272.956,480,1260.226,480C1247.497,480,1234.767,480,1222.038,480C1209.308,480,1196.579,480,1183.849,480C1171.119,480,1158.39,480,1145.66,480C1132.931,480,1120.201,480,1107.472,480C1094.742,480,1082.013,480,1069.283,480C1056.553,480,1043.824,480,1031.094,480C1018.365,480,1005.635,480,992.906,480C980.176,480,967.447,480,954.717,480C941.987,480,929.258,480,916.528,480C903.799,480,891.069,480,878.34,480C865.61,480,852.881,480,840.151,480C827.421,480,814.692,480,801.962,480C789.233,480,776.503,480,763.774,480C751.044,480,738.314,480,725.585,480C712.855,480,700.126,480,687.396,480C674.667,480,661.937,480,649.208,480C636.478,480,623.748,480,611.019,480C598.289,480,585.56,480,572.83,480C560.101,480,547.371,480,534.642,480C521.912,480,509.182,480,496.453,480C483.723,480,470.994,480,458.264,480C445.535,480,432.805,480,420.075,480C407.346,480,394.616,480,381.887,480C369.157,480,356.428,480,343.698,480C330.969,480,318.239,480,305.509,480C292.78,480,280.05,480,267.321,480C254.591,480,241.862,480,229.132,480C216.403,480,203.673,480,190.943,480C178.214,480,165.484,480,152.755,480C140.025,480,127.296,480,114.566,480C101.836,480,89.107,480,76.377,480C63.648,480,50.918,480,38.189,480C25.459,480,12.73,480,0,480Z" fill="#4e79a7" opacity="0.18"/></g><g class="mark-line role-mark layer_1_marks" role="graphics-object" aria-roledescription="line mark container" pointer-events="none"><path aria-label="date: Sep 08, 2025; count: 1" role="graphics-symbol" aria-roledescription="line mark" d="M0,471.273C12.73,240,25.459,8.727,38.189,8.727C50.918,8.727,63.648,17.455,76.377,34.909C89.107,52.364,101.836,142.545,114.566,165.818C127.296,189.091,140.025,177.455,152.755,200.727C165.484,224,178.214,293.818,190.943,305.455C203.673,317.091,216.403,322.909,229.132,322.909C241.862,322.909,254.591,273.455,267.321,261.818C280.05,250.182,292.78,256,305.509,244.364C318.239,232.727,330.969,151.273,343.698,139.636C356.428,128,369.157,122.182,381.887,122.182C394.616,122.182,407.346,212.364,420.075,235.636C432.805,258.909,445.535,251.636,458.264,270.545C470.994,289.455,483.723,349.091,496.453,349.091C509.182,349.091,521.912,343.273,534.642,340.364C547.371,337.455,560.101,334.545,572.83,331.636C585.56,328.727,598.289,322.909,611.019,322.909C623.748,322.909,636.478,384,649.208,384C661.937,384,674.667,261.818,687.396,261.818C700.126,261.818,712.855,418.909,725.585,418.909C738.314,418.909,751.044,398.545,763.774,357.818C776.503,317.091,789.233,148.364,801.962,148.364C814.692,148.364,827.421,202.182,840.151,244.364C852.881,286.545,865.61,401.455,878.34,401.455C891.069,401.455,903.799,165.818,916.528,165.818C929.258,165.818,941.987,253.091,954.717,253.091C967.447,253.091,980.176,253.091,992.906,253.091C1005.635,253.091,1018.365,340.364,1031.094,340.364C1043.824,340.364,1056.553,327.273,1069.283,305.455C1082.013,283.636,1094.742,209.455,1107.472,209.455C1120.201,209.455,1132.931,229.818,1145.66,253.091C1158.39,276.364,1171.119,349.091,1183.849,349.091C1196.579,349.091,1209.308,314.182,1222.038,314.182C1234.767,314.182,1247.497,401.455,1260.226,401.455C1272.956,401.455,1285.686,349.091,1298.415,349.091C1311.145,349.091,1323.874,349.091,1336.604,349.091C1349.333,349.091,1362.063,366.545,1374.792,366.545C1387.522,366.545,1400.252,314.182,1412.981,314.182C1425.711,314.182,1438.44,330.182,1451.17,340.364C1463.899,350.545,1476.629,356.364,1489.358,375.273C1502.088,394.182,1514.818,453.818,1527.547,453.818C1540.277,453.818,1553.006,442.182,1565.736,427.636C1578.465,413.091,1591.195,366.545,1603.925,366.545C1616.654,366.545,1629.384,392.727,1642.113,392.727C1654.843,392.727,1667.572,331.636,1680.302,331.636C1693.031,331.636,1705.761,375.273,1718.491,375.273C1731.22,375.273,1743.95,370.909,1756.679,366.545C1769.409,362.182,1782.138,349.091,1794.868,349.091C1807.597,349.091,1820.327,392.727,1833.057,392.727C1845.786,392.727,1858.516,375.273,1871.245,349.091C1883.975,322.909,1896.704,235.636,1909.434,235.636C1922.164,235.636,1934.893,392.727,1947.623,392.727C1960.352,392.727,1973.082,349.091,1985.811,349.091C1998.541,349.091,2011.27,405.818,2024,462.545" stroke="#4e79a7" stroke-width="2"/></g><g class="mark-line role-mark layer_2_marks" role="graphics-object" aria-roledescription="line mark container" pointer-events="none"><path aria-label="date: Sep 08, 2025; ma7: 1" role="graphics-symbol" aria-roledescription="line mark" d="M0,471.273C12.73,378.424,25.459,285.576,38.189,240C50.918,194.424,63.648,172.606,76.377,171.636C89.107,170.667,101.836,170.182,114.566,170.182C127.296,170.182,140.025,172.218,152.755,176.291C165.484,180.364,178.214,191.252,190.943,197.818C203.673,204.384,216.403,215.688,229.132,215.688C241.862,215.688,254.591,185.766,267.321,185.766C280.05,185.766,292.78,211.325,305.509,219.429C318.239,227.532,330.969,234.39,343.698,234.39C356.428,234.39,369.157,228.156,381.887,228.156C394.616,228.156,407.346,233.143,420.075,233.143C432.805,233.143,445.535,228.156,458.264,228.156C470.994,228.156,483.723,229.403,496.453,231.896C509.182,234.39,521.912,239.169,534.642,243.117C547.371,247.065,560.101,249.143,572.83,255.584C585.56,262.026,598.289,271.169,611.019,281.766C623.748,292.364,636.478,316.675,649.208,319.169C661.937,321.662,674.667,320.416,687.396,322.909C700.126,325.403,712.855,343.273,725.585,344.104C738.314,344.935,751.044,345.351,763.774,345.351C776.503,345.351,789.233,324.571,801.962,317.922C814.692,311.273,827.421,305.455,840.151,305.455C852.881,305.455,865.61,316.675,878.34,316.675C891.069,316.675,903.799,286.338,916.528,285.506C929.258,284.675,941.987,285.091,954.717,284.26C967.447,283.429,980.176,262.234,992.906,260.571C1005.635,258.909,1018.365,258.078,1031.094,258.078C1043.824,258.078,1056.553,280.519,1069.283,280.519C1082.013,280.519,1094.742,278.857,1107.472,275.532C1120.201,272.208,1132.931,254.338,1145.66,254.338C1158.39,254.338,1171.119,274.701,1183.849,280.519C1196.579,286.338,1209.308,284.26,1222.038,289.247C1234.767,294.234,1247.497,309.61,1260.226,310.442C1272.956,311.273,1285.686,310.857,1298.415,311.688C1311.145,312.519,1323.874,313.766,1336.604,317.922C1349.333,322.078,1362.063,335.169,1374.792,340.364C1387.522,345.558,1400.252,349.091,1412.981,349.091C1425.711,349.091,1438.44,347.844,1451.17,347.844C1463.899,347.844,1476.629,353.87,1489.358,356.571C1502.088,359.273,1514.818,360.935,1527.547,364.052C1540.277,367.169,1553.006,373.61,1565.736,375.273C1578.465,376.935,1591.195,376.727,1603.925,377.766C1616.654,378.805,1629.384,380.468,1642.113,381.506C1654.843,382.545,1667.572,382.753,1680.302,384C1693.031,385.247,1705.761,388.987,1718.491,388.987C1731.22,388.987,1743.95,388.571,1756.679,387.74C1769.409,386.909,1782.138,376.104,1794.868,372.779C1807.597,369.455,1820.327,369.039,1833.057,367.792C1845.786,366.545,1858.516,366.961,1871.245,365.299C1883.975,363.636,1896.704,342.857,1909.434,342.857C1922.164,342.857,1934.893,351.584,1947.623,351.584C1960.352,351.584,1973.082,347.844,1985.811,347.844C1998.541,347.844,2011.27,354.701,2024,361.558" stroke="#d62728" stroke-width="2" stroke-dasharray="6,4"/></g><g class="mark-symbol role-mark layer_3_marks" role="graphics-object" aria-roledescription="symbol mark container"><path aria-label="date: Sep 08, 2025; count: 1; Date: Sep 08, 2025; Daily unique: 1; 7d avg: 1" role="graphics-symbol" aria-roledescription="point" transform="translate(0,471.27272727272725)" d="M3.536,0A3.536,3.536,0,1,1,-3.536,0A3.536,3.536,0,1,1,3.536,0" fill="#4e79a7" stroke-width="2" opacity="0.55"/><path aria-label="date: Sep 09, 2025; count: 54; Date: Sep 09, 2025; Daily unique: 54; 7d avg: 27.5" role="graphics-symbol" aria-roledescription="point" transform="translate(38.18867924528302,8.72727272727273)" d="M3.536,0A3.536,3.536,0,1,1,-3.536,0A3.536,3.536,0,1,1,3.536,0" fill="#4e79a7" stroke-width="2" opacity="0.55"/><path aria-label="date: Sep 10, 2025; count: 51; Date: Sep 10, 2025; Daily unique: 51; 7d avg: 35.3333333333" role="graphics-symbol" aria-roledescription="point" transform="translate(76.37735849056604,34.90909090909092)" d="M3.536,0A3.536,3.536,0,1,1,-3.536,0A3.536,3.536,0,1,1,3.536,0" fill="#4e79a7" stroke-width="2" opacity="0.55"/><path aria-label="date: Sep 11, 2025; count: 36; Date: Sep 11, 2025; Daily unique: 36; 7d avg: 35.5" role="graphics-symbol" aria-roledescription="point" transform="translate(114.56603773584906,165.8181818181818)" d="M3.536,0A3.536,3.536,0,1,1,-3.536,0A3.536,3.536,0,1,1,3.536,0" fill="#4e79a7" stroke-width="2" opacity="0.55"/><path aria-label="date: Sep 12, 2025; count: 32; Date: Sep 12, 2025; Daily unique: 32; 7d avg: 34.8" role="graphics-symbol" aria-roledescription="point" transform="translate(152.75471698113208,200.72727272727275)" d="M3.536,0A3.536,3.536,0,1,1,-3.536,0A3.536,3.536,0,1,1,3.536,0" fill="#4e79a7" stroke-width="2" opacity="0.55"/><path aria-label="date: Sep 13, 2025; count: 20; Date: Sep 13, 2025; Daily unique: 20; 7d avg: 32.3333333333" role="graphics-symbol" aria-roledescription="point" transform="translate(190.9433962264151,305.45454545454544)" d="M3.536,0A3.536,3.536,0,1,1,-3.536,0A3.536,3.536,0,1,1,3.536,0" fill="#4e79a7" stroke-width="2" opacity="0.55"/><path aria-label="date: Sep 14, 2025; count: 18; Date: Sep 14, 2025; Daily unique: 18; 7d avg: 30.2857142857" role="graphics-symbol" aria-roledescription="point" transform="translate(229.13207547169813,322.90909090909093)" d="M3.536,0A3.536,3.536,0,1,1,-3.536,0A3.536,3.536,0,1,1,3.536,0" fill="#4e79a7" stroke-width="2" opacity="0.55"/><path aria-label="date: Sep 15, 2025; count: 25; Date: Sep 15, 2025; Daily unique: 25; 7d avg: 33.7142857143" role="graphics-symbol" aria-roledescription="point" transform="translate(267.3207547169811,261.8181818181818)" d="M3.536,0A3.536,3.536,0,1,1,-3.536,0A3.536,3.536,0,1,1,3.536,0" fill="#4e79a7" stroke-width="2" opacity="0.55"/><path aria-label="date: Sep 16, 2025; count: 27; Date: Sep 16, 2025; Daily unique: 27; 7d avg: 29.8571428571" role="graphics-symbol" aria-roledescription="point" transform="translate(305.50943396226415,244.36363636363635)" d="M3.536,0A3.536,3.536,0,1,1,-3.536,0A3.536,3.536,0,1,1,3.536,0" fill="#4e79a7" stroke-width="2" opacity="0.55"/><path aria-label="date: Sep 17, 2025; count: 39; Date: Sep 17, 2025; Daily unique: 39; 7d avg: 28.1428571429" role="graphics-symbol" aria-roledescription="point" transform="translate(343.6981132075471,139.63636363636363)" d="M3.536,0A3.536,3.536,0,1,1,-3.536,0A3.536,3.536,0,1,1,3.536,0" fill="#4e79a7" stroke-width="2" opacity="0.55"/><path aria-label="date: Sep 18, 2025; count: 41; Date: Sep 18, 2025; Daily unique: 41; 7d avg: 28.8571428571" role="graphics-symbol" aria-roledescription="point" transform="translate(381.8867924528302,122.18181818181817)" d="M3.536,0A3.536,3.536,0,1,1,-3.536,0A3.536,3.536,0,1,1,3.536,0" fill="#4e79a7" stroke-width="2" opacity="0.55"/><path aria-label="date: Sep 19, 2025; count: 28; Date: Sep 19, 2025; Daily unique: 28; 7d avg: 28.2857142857" role="graphics-symbol" aria-roledescription="point" transform="translate(420.07547169811323,235.63636363636365)" d="M3.536,0A3.536,3.536,0,1,1,-3.536,0A3.536,3.536,0,1,1,3.536,0" fill="#4e79a7" stroke-width="2" opacity="0.55"/><path aria-label="date: Sep 20, 2025; count: 24; Date: Sep 20, 2025; Daily unique: 24; 7d avg: 28.8571428571" role="graphics-symbol" aria-roledescription="point" transform="translate(458.26415094339626,270.54545454545456)" d="M3.536,0A3.536,3.536,0,1,1,-3.536,0A3.536,3.536,0,1,1,3.536,0" fill="#4e79a7" stroke-width="2" opacity="0.55"/><path aria-label="date: Sep 21, 2025; count: 15; Date: Sep 21, 2025; Daily unique: 15; 7d avg: 28.4285714286" role="graphics-symbol" aria-roledescription="point" transform="translate(496.45283018867923,349.0909090909091)" d="M3.536,0A3.536,3.536,0,1,1,-3.536,0A3.536,3.536,0,1,1,3.536,0" fill="#4e79a7" stroke-width="2" opacity="0.55"/><path aria-label="date: Sep 22, 2025; count: 16; Date: Sep 22, 2025; Daily unique: 16; 7d avg: 27.1428571429" role="graphics-symbol" aria-roledescription="point" transform="translate(534.6415094339623,340.3636363636364)" d="M3.536,0A3.536,3.536,0,1,1,-3.536,0A3.536,3.536,0,1,1,3.536,0" fill="#4e79a7" stroke-width="2" opacity="0.55"/><path aria-label="date: Sep 23, 2025; count: 17; Date: Sep 23, 2025; Daily unique: 17; 7d avg: 25.7142857143" role="graphics-symbol" aria-roledescription="point" transform="translate(572.8301886792452,331.6363636363636)" d="M3.536,0A3.536,3.536,0,1,1,-3.536,0A3.536,3.536,0,1,1,3.536,0" fill="#4e79a7" stroke-width="2" opacity="0.55"/><path aria-label="date: Sep 24, 2025; count: 18; Date: Sep 24, 2025; Daily unique: 18; 7d avg: 22.7142857143" role="graphics-symbol" aria-roledescription="point" transform="translate(611.0188679245283,322.90909090909093)" d="M3.536,0A3.536,3.536,0,1,1,-3.536,0A3.536,3.536,0,1,1,3.536,0" fill="#4e79a7" stroke-width="2" opacity="0.55"/><path aria-label="date: Sep 25, 2025; count: 11; Date: Sep 25, 2025; Daily unique: 11; 7d avg: 18.4285714286" role="graphics-symbol" aria-roledescription="point" transform="translate(649.2075471698113,384)" d="M3.536,0A3.536,3.536,0,1,1,-3.536,0A3.536,3.536,0,1,1,3.536,0" fill="#4e79a7" stroke-width="2" opacity="0.55"/><path aria-label="date: Sep 26, 2025; count: 25; Date: Sep 26, 2025; Daily unique: 25; 7d avg: 18" role="graphics-symbol" aria-roledescription="point" transform="translate(687.3962264150942,261.8181818181818)" d="M3.536,0A3.536,3.536,0,1,1,-3.536,0A3.536,3.536,0,1,1,3.536,0" fill="#4e79a7" stroke-width="2" opacity="0.55"/><path aria-label="date: Sep 27, 2025; count: 7; Date: Sep 27, 2025; Daily unique: 7; 7d avg: 15.5714285714" role="graphics-symbol" aria-roledescription="point" transform="translate(725.5849056603773,418.90909090909093)" d="M3.536,0A3.536,3.536,0,1,1,-3.536,0A3.536,3.536,0,1,1,3.536,0" fill="#4e79a7" stroke-width="2" opacity="0.55"/><path aria-label="date: Sep 28, 2025; count: 14; Date: Sep 28, 2025; Daily unique: 14; 7d avg: 15.4285714286" role="graphics-symbol" aria-roledescription="point" transform="translate(763.7735849056604,357.8181818181818)" d="M3.536,0A3.536,3.536,0,1,1,-3.536,0A3.536,3.536,0,1,1,3.536,0" fill="#4e79a7" stroke-width="2" opacity="0.55"/><path aria-label="date: Sep 29, 2025; count: 38; Date: Sep 29, 2025; Daily unique: 38; 7d avg: 18.5714285714" role="graphics-symbol" aria-roledescription="point" transform="translate(801.9622641509435,148.36363636363637)" d="M3.536,0A3.536,3.536,0,1,1,-3.536,0A3.536,3.536,0,1,1,3.536,0" fill="#4e79a7" stroke-width="2" opacity="0.55"/><path aria-label="date: Sep 30, 2025; count: 27; Date: Sep 30, 2025; Daily unique: 27; 7d avg: 20" role="graphics-symbol" aria-roledescription="point" transform="translate(840.1509433962265,244.36363636363635)" d="M3.536,0A3.536,3.536,0,1,1,-3.536,0A3.536,3.536,0,1,1,3.536,0" fill="#4e79a7" stroke-width="2" opacity="0.55"/><path aria-label="date: Oct 01, 2025; count: 9; Date: Oct 01, 2025; Daily unique: 9; 7d avg: 18.7142857143" role="graphics-symbol" aria-roledescription="point" transform="translate(878.3396226415094,401.4545454545455)" d="M3.536,0A3.536,3.536,0,1,1,-3.536,0A3.536,3.536,0,1,1,3.536,0" fill="#4e79a7" stroke-width="2" opacity="0.55"/><path aria-label="date: Oct 02, 2025; count: 36; Date: Oct 02, 2025; Daily unique: 36; 7d avg: 22.2857142857" role="graphics-symbol" aria-roledescription="point" transform="translate(916.5283018867925,165.8181818181818)" d="M3.536,0A3.536,3.536,0,1,1,-3.536,0A3.536,3.536,0,1,1,3.536,0" fill="#4e79a7" stroke-width="2" opacity="0.55"/><path aria-label="date: Oct 03, 2025; count: 26; Date: Oct 03, 2025; Daily unique: 26; 7d avg: 22.4285714286" role="graphics-symbol" aria-roledescription="point" transform="translate(954.7169811320755,253.09090909090912)" d="M3.536,0A3.536,3.536,0,1,1,-3.536,0A3.536,3.536,0,1,1,3.536,0" fill="#4e79a7" stroke-width="2" opacity="0.55"/><path aria-label="date: Oct 04, 2025; count: 26; Date: Oct 04, 2025; Daily unique: 26; 7d avg: 25.1428571429" role="graphics-symbol" aria-roledescription="point" transform="translate(992.9056603773585,253.09090909090912)" d="M3.536,0A3.536,3.536,0,1,1,-3.536,0A3.536,3.536,0,1,1,3.536,0" fill="#4e79a7" stroke-width="2" opacity="0.55"/><path aria-label="date: Oct 05, 2025; count: 16; Date: Oct 05, 2025; Daily unique: 16; 7d avg: 25.4285714286" role="graphics-symbol" aria-roledescription="point" transform="translate(1031.0943396226414,340.3636363636364)" d="M3.536,0A3.536,3.536,0,1,1,-3.536,0A3.536,3.536,0,1,1,3.536,0" fill="#4e79a7" stroke-width="2" opacity="0.55"/><path aria-label="date: Oct 06, 2025; count: 20; Date: Oct 06, 2025; Daily unique: 20; 7d avg: 22.8571428571" role="graphics-symbol" aria-roledescription="point" transform="translate(1069.2830188679245,305.45454545454544)" d="M3.536,0A3.536,3.536,0,1,1,-3.536,0A3.536,3.536,0,1,1,3.536,0" fill="#4e79a7" stroke-width="2" opacity="0.55"/><path aria-label="date: Oct 07, 2025; count: 31; Date: Oct 07, 2025; Daily unique: 31; 7d avg: 23.4285714286" role="graphics-symbol" aria-roledescription="point" transform="translate(1107.4716981132076,209.45454545454547)" d="M3.536,0A3.536,3.536,0,1,1,-3.536,0A3.536,3.536,0,1,1,3.536,0" fill="#4e79a7" stroke-width="2" opacity="0.55"/><path aria-label="date: Oct 08, 2025; count: 26; Date: Oct 08, 2025; Daily unique: 26; 7d avg: 25.8571428571" role="graphics-symbol" aria-roledescription="point" transform="translate(1145.6603773584905,253.09090909090912)" d="M3.536,0A3.536,3.536,0,1,1,-3.536,0A3.536,3.536,0,1,1,3.536,0" fill="#4e79a7" stroke-width="2" opacity="0.55"/><path aria-label="date: Oct 09, 2025; count: 15; Date: Oct 09, 2025; Daily unique: 15; 7d avg: 22.8571428571" role="graphics-symbol" aria-roledescription="point" transform="translate(1183.8490566037735,349.0909090909091)" d="M3.536,0A3.536,3.536,0,1,1,-3.536,0A3.536,3.536,0,1,1,3.536,0" fill="#4e79a7" stroke-width="2" opacity="0.55"/><path aria-label="date: Oct 10, 2025; count: 19; Date: Oct 10, 2025; Daily unique: 19; 7d avg: 21.8571428571" role="graphics-symbol" aria-roledescription="point" transform="translate(1222.0377358490566,314.1818181818182)" d="M3.536,0A3.536,3.536,0,1,1,-3.536,0A3.536,3.536,0,1,1,3.536,0" fill="#4e79a7" stroke-width="2" opacity="0.55"/><path aria-label="date: Oct 11, 2025; count: 9; Date: Oct 11, 2025; Daily unique: 9; 7d avg: 19.4285714286" role="graphics-symbol" aria-roledescription="point" transform="translate(1260.2264150943395,401.4545454545455)" d="M3.536,0A3.536,3.536,0,1,1,-3.536,0A3.536,3.536,0,1,1,3.536,0" fill="#4e79a7" stroke-width="2" opacity="0.55"/><path aria-label="date: Oct 12, 2025; count: 15; Date: Oct 12, 2025; Daily unique: 15; 7d avg: 19.2857142857" role="graphics-symbol" aria-roledescription="point" transform="translate(1298.4150943396226,349.0909090909091)" d="M3.536,0A3.536,3.536,0,1,1,-3.536,0A3.536,3.536,0,1,1,3.536,0" fill="#4e79a7" stroke-width="2" opacity="0.55"/><path aria-label="date: Oct 13, 2025; count: 15; Date: Oct 13, 2025; Daily unique: 15; 7d avg: 18.5714285714" role="graphics-symbol" aria-roledescription="point" transform="translate(1336.6037735849056,349.0909090909091)" d="M3.536,0A3.536,3.536,0,1,1,-3.536,0A3.536,3.536,0,1,1,3.536,0" fill="#4e79a7" stroke-width="2" opacity="0.55"/><path aria-label="date: Oct 14, 2025; count: 13; Date: Oct 14, 2025; Daily unique: 13; 7d avg: 16" role="graphics-symbol" aria-roledescription="point" transform="translate(1374.7924528301885,366.54545454545456)" d="M3.536,0A3.536,3.536,0,1,1,-3.536,0A3.536,3.536,0,1,1,3.536,0" fill="#4e79a7" stroke-width="2" opacity="0.55"/><path aria-label="date: Oct 15, 2025; count: 19; Date: Oct 15, 2025; Daily unique: 19; 7d avg: 15" role="graphics-symbol" aria-roledescription="point" transform="translate(1412.9811320754716,314.1818181818182)" d="M3.536,0A3.536,3.536,0,1,1,-3.536,0A3.536,3.536,0,1,1,3.536,0" fill="#4e79a7" stroke-width="2" opacity="0.55"/><path aria-label="date: Oct 16, 2025; count: 16; Date: Oct 16, 2025; Daily unique: 16; 7d avg: 15.1428571429" role="graphics-symbol" aria-roledescription="point" transform="translate(1451.1698113207547,340.3636363636364)" d="M3.536,0A3.536,3.536,0,1,1,-3.536,0A3.536,3.536,0,1,1,3.536,0" fill="#4e79a7" stroke-width="2" opacity="0.55"/><path aria-label="date: Oct 17, 2025; count: 12; Date: Oct 17, 2025; Daily unique: 12; 7d avg: 14.1428571429" role="graphics-symbol" aria-roledescription="point" transform="translate(1489.3584905660375,375.2727272727273)" d="M3.536,0A3.536,3.536,0,1,1,-3.536,0A3.536,3.536,0,1,1,3.536,0" fill="#4e79a7" stroke-width="2" opacity="0.55"/><path aria-label="date: Oct 18, 2025; count: 3; Date: Oct 18, 2025; Daily unique: 3; 7d avg: 13.2857142857" role="graphics-symbol" aria-roledescription="point" transform="translate(1527.5471698113208,453.8181818181818)" d="M3.536,0A3.536,3.536,0,1,1,-3.536,0A3.536,3.536,0,1,1,3.536,0" fill="#4e79a7" stroke-width="2" opacity="0.55"/><path aria-label="date: Oct 19, 2025; count: 6; Date: Oct 19, 2025; Daily unique: 6; 7d avg: 12" role="graphics-symbol" aria-roledescription="point" transform="translate(1565.735849056604,427.6363636363636)" d="M3.536,0A3.536,3.536,0,1,1,-3.536,0A3.536,3.536,0,1,1,3.536,0" fill="#4e79a7" stroke-width="2" opacity="0.55"/><path aria-label="date: Oct 20, 2025; count: 13; Date: Oct 20, 2025; Daily unique: 13; 7d avg: 11.7142857143" role="graphics-symbol" aria-roledescription="point" transform="translate(1603.924528301887,366.54545454545456)" d="M3.536,0A3.536,3.536,0,1,1,-3.536,0A3.536,3.536,0,1,1,3.536,0" fill="#4e79a7" stroke-width="2" opacity="0.55"/><path aria-label="date: Oct 21, 2025; count: 10; Date: Oct 21, 2025; Daily unique: 10; 7d avg: 11.2857142857" role="graphics-symbol" aria-roledescription="point" transform="translate(1642.1132075471698,392.7272727272727)" d="M3.536,0A3.536,3.536,0,1,1,-3.536,0A3.536,3.536,0,1,1,3.536,0" fill="#4e79a7" stroke-width="2" opacity="0.55"/><path aria-label="date: Oct 22, 2025; count: 17; Date: Oct 22, 2025; Daily unique: 17; 7d avg: 11" role="graphics-symbol" aria-roledescription="point" transform="translate(1680.301886792453,331.6363636363636)" d="M3.536,0A3.536,3.536,0,1,1,-3.536,0A3.536,3.536,0,1,1,3.536,0" fill="#4e79a7" stroke-width="2" opacity="0.55"/><path aria-label="date: Oct 23, 2025; count: 12; Date: Oct 23, 2025; Daily unique: 12; 7d avg: 10.4285714286" role="graphics-symbol" aria-roledescription="point" transform="translate(1718.490566037736,375.2727272727273)" d="M3.536,0A3.536,3.536,0,1,1,-3.536,0A3.536,3.536,0,1,1,3.536,0" fill="#4e79a7" stroke-width="2" opacity="0.55"/><path aria-label="date: Oct 24, 2025; count: 13; Date: Oct 24, 2025; Daily unique: 13; 7d avg: 10.5714285714" role="graphics-symbol" aria-roledescription="point" transform="translate(1756.6792452830189,366.54545454545456)" d="M3.536,0A3.536,3.536,0,1,1,-3.536,0A3.536,3.536,0,1,1,3.536,0" fill="#4e79a7" stroke-width="2" opacity="0.55"/><path aria-label="date: Oct 25, 2025; count: 15; Date: Oct 25, 2025; Daily unique: 15; 7d avg: 12.2857142857" role="graphics-symbol" aria-roledescription="point" transform="translate(1794.867924528302,349.0909090909091)" d="M3.536,0A3.536,3.536,0,1,1,-3.536,0A3.536,3.536,0,1,1,3.536,0" fill="#4e79a7" stroke-width="2" opacity="0.55"/><path aria-label="date: Oct 26, 2025; count: 10; Date: Oct 26, 2025; Daily unique: 10; 7d avg: 12.8571428571" role="graphics-symbol" aria-roledescription="point" transform="translate(1833.056603773585,392.7272727272727)" d="M3.536,0A3.536,3.536,0,1,1,-3.536,0A3.536,3.536,0,1,1,3.536,0" fill="#4e79a7" stroke-width="2" opacity="0.55"/><path aria-label="date: Oct 27, 2025; count: 15; Date: Oct 27, 2025; Daily unique: 15; 7d avg: 13.1428571429" role="graphics-symbol" aria-roledescription="point" transform="translate(1871.245283018868,349.0909090909091)" d="M3.536,0A3.536,3.536,0,1,1,-3.536,0A3.536,3.536,0,1,1,3.536,0" fill="#4e79a7" stroke-width="2" opacity="0.55"/><path aria-label="date: Oct 28, 2025; count: 28; Date: Oct 28, 2025; Daily unique: 28; 7d avg: 15.7142857143" role="graphics-symbol" aria-roledescription="point" transform="translate(1909.433962264151,235.63636363636365)" d="M3.536,0A3.536,3.536,0,1,1,-3.536,0A3.536,3.536,0,1,1,3.536,0" fill="#4e79a7" stroke-width="2" opacity="0.55"/><path aria-label="date: Oct 29, 2025; count: 10; Date: Oct 29, 2025; Daily unique: 10; 7d avg: 14.7142857143" role="graphics-symbol" aria-roledescription="point" transform="translate(1947.622641509434,392.7272727272727)" d="M3.536,0A3.536,3.536,0,1,1,-3.536,0A3.536,3.536,0,1,1,3.536,0" fill="#4e79a7" stroke-width="2" opacity="0.55"/><path aria-label="date: Oct 30, 2025; count: 15; Date: Oct 30, 2025; Daily unique: 15; 7d avg: 15.1428571429" role="graphics-symbol" aria-roledescription="point" transform="translate(1985.811320754717,349.0909090909091)" d="M3.536,0A3.536,3.536,0,1,1,-3.536,0A3.536,3.536,0,1,1,3.536,0" fill="#4e79a7" stroke-width="2" opacity="0.55"/><path aria-label="date: Oct 31, 2025; count: 2; Date: Oct 31, 2025; Daily unique: 2; 7d avg: 13.5714285714" role="graphics-symbol" aria-roledescription="point" transform="translate(2024,462.54545454545456)" d="M3.536,0A3.536,3.536,0,1,1,-3.536,0A3.536,3.536,0,1,1,3.536,0" fill="#4e79a7" stroke-width="2" opacity="0.55"/></g><g class="mark-path role-mark layer_3_voronoi" aria-hidden="true"><path transform="translate(0,0)" d="M0,297.0604624282802L22.07574191598944,305.3403532304633L24.62099947064459,306.7774503646903L148.31819464436722,449.2175753930212L168.24989753397404,480L0,480Z" stroke-width="0.35"/><path transform="translate(0,0)" d="M72.24136989526585,0L0,105.37092894052664L0,0Z" stroke-width="0.35"/><path transform="translate(0,0)" d="M244.22825248297963,0L219.03012096567915,64.31928722333987L0,128.21455207108465L0,105.37092894052664L72.24136989526585,0Z" stroke-width="0.35"/><path transform="translate(0,0)" d="M221.62658182034585,87.04240218729372L22.07574191598944,305.3403532304633L0,297.0604624282802L0,128.21455207108465L219.03012096567915,64.31928722333987Z" stroke-width="0.35"/><path transform="translate(0,0)" d="M245.79434133416194,164.217044614339L204.8131470887609,241.07059150446784L24.62099947064459,306.7774503646903L22.07574191598944,305.3403532304633L221.62658182034585,87.04240218729372L246.04136451569047,163.35230811849766Z" stroke-width="0.35"/><path transform="translate(0,0)" d="M204.8131470887609,241.07059150446784L226.28029102885208,278.6448440738224L148.31819464436722,449.2175753930212L24.62099947064459,306.7774503646903Z" stroke-width="0.35"/><path transform="translate(0,0)" d="M359.17318027238184,372.95337982108754L348.6888647186954,480L168.24989753397404,480L148.31819464436722,449.2175753930212L226.28029102885208,278.6448440738224L326.8205957636693,341.49382612166517Z" stroke-width="0.35"/><path transform="translate(0,0)" d="M245.79434133416194,164.217044614339L326.8205957636693,341.49382612166517L226.28029102885208,278.6448440738224L204.8131470887609,241.07059150446784Z" stroke-width="0.35"/><path transform="translate(0,0)" d="M363.41662649736975,365.216540955691L359.17318027238184,372.95337982108754L326.8205957636693,341.49382612166517L245.79434133416194,164.217044614339L246.04136451569047,163.35230811849766L360.12260112175096,204.95189950668768L369.5881481619148,329.20952881223445Z" stroke-width="0.35"/><path transform="translate(0,0)" d="M302.9590487208235,0L386.8980029243136,183.64945719207026L360.12260112175096,204.95189950668768L246.04136451569047,163.35230811849766L221.62658182034585,87.04240218729372L219.03012096567915,64.31928722333987L244.22825248297963,0Z" stroke-width="0.35"/><path transform="translate(0,0)" d="M554.0920562310266,127.3721168010951L386.8980029243136,183.64945719207026L302.9590487208235,0L600.3555988809338,0L596.8753509998658,55.8390085865492L567.2844752248409,120.5806809779754Z" stroke-width="0.35"/><path transform="translate(0,0)" d="M554.0920562310266,127.3721168010951L369.5881481619148,329.20952881223445L360.12260112175096,204.95189950668768L386.8980029243136,183.64945719207026Z" stroke-width="0.35"/><path transform="translate(0,0)" d="M564.8229824670615,208.68215799864058L536.6947942328113,261.4319880902296L504.5482933936686,296.598541484622L363.41662649736975,365.216540955691L369.5881481619148,329.20952881223445L554.0920562310266,127.3721168010951L567.2844752248409,120.5806809779754L570.0584053266308,193.40943072591364Z" stroke-width="0.35"/><path transform="translate(0,0)" d="M504.5482933936686,296.598541484622L546.4610952678263,480L348.6888647186954,480L359.17318027238184,372.95337982108754L363.41662649736975,365.216540955691Z" stroke-width="0.35"/><path transform="translate(0,0)" d="M536.6947942328113,261.4319880902296L571.7961915304203,415.02819670539486L547.0494752198628,480L546.4610952678263,480L504.5482933936686,296.598541484622Z" stroke-width="0.35"/><path transform="translate(0,0)" d="M564.8229824670615,208.68215799864058L601.9335360671165,371.0700049624044L571.7961915304203,415.02819670539486L536.6947942328113,261.4319880902296Z" stroke-width="0.35"/><path transform="translate(0,0)" d="M675.4187317551408,325.13350460306674L601.9335360671165,371.0700049624044L564.8229824670615,208.68215799864058L570.0584053266308,193.40943072591364Z" stroke-width="0.35"/><path transform="translate(0,0)" d="M704.7794953720282,363.421811565279L651.4961839494752,480L547.0494752198628,480L571.7961915304203,415.02819670539486L601.9335360671165,371.0700049624044L675.4187317551408,325.13350460306674L697.6148949119342,332.0710520048363Z" stroke-width="0.35"/><path transform="translate(0,0)" d="M766.532984404414,277.2399933834607L697.6148949119342,332.0710520048363L675.4187317551408,325.13350460306674L570.0584053266308,193.40943072591364L567.2844752248409,120.5806809779754L596.8753509998658,55.8390085865492L760.0640228364113,220.62640834021644Z" stroke-width="0.35"/><path transform="translate(0,0)" d="M651.4961839494752,480L704.7794953720282,363.421811565279L803.6838179820302,425.24812104947387L809.9400513655254,480Z" stroke-width="0.35"/><path transform="translate(0,0)" d="M840.9710524247321,327.35154231924815L803.6838179820302,425.24812104947387L704.7794953720282,363.421811565279L697.6148949119342,332.0710520048363L766.532984404414,277.2399933834607Z" stroke-width="0.35"/><path transform="translate(0,0)" d="M883.178644662614,0L855.3397064036958,182.72586126077783L760.0640228364113,220.62640834021644L596.8753509998658,55.8390085865492L600.3555988809338,0Z" stroke-width="0.35"/><path transform="translate(0,0)" d="M899.2119425027291,225.38708874631584L892.3969494016513,314.8499462948975L840.9710524247321,327.35154231924815L766.532984404414,277.2399933834607L760.0640228364113,220.62640834021644L855.3397064036958,182.72586126077783Z" stroke-width="0.35"/><path transform="translate(0,0)" d="M942.6419007851288,340.71596547732776L998.345504961821,480L809.9400513655254,480L803.6838179820302,425.24812104947387L840.9710524247321,327.35154231924815L892.3969494016513,314.8499462948975Z" stroke-width="0.35"/><path transform="translate(0,0)" d="M899.2119425027291,225.38708874631584L855.3397064036958,182.72586126077783L883.178644662614,0L1054.8806062783783,0L1020.0881084555889,152.24453056733236L973.8113207547169,192.74399603007657Z" stroke-width="0.35"/><path transform="translate(0,0)" d="M973.8113207547169,313.43782215174167L942.6419007851288,340.71596547732776L892.3969494016513,314.8499462948975L899.2119425027291,225.38708874631584L973.8113207547169,192.74399603007657Z" stroke-width="0.35"/><path transform="translate(0,0)" d="M973.8113207547169,313.43782215174167L973.8113207547169,192.74399603007657L1020.0881084555889,152.24453056733236L1055.1222623301078,244.22571003222475L1022.1823697153835,292.27168547602867Z" stroke-width="0.35"/><path transform="translate(0,0)" d="M973.8113207547169,313.43782215174167L1022.1823697153835,292.27168547602867L1105.2753127701799,383.1709231024039L1099.743216749081,480L998.345504961821,480L942.6419007851288,340.71596547732776Z" stroke-width="0.35"/><path transform="translate(0,0)" d="M1022.1823697153835,292.27168547602867L1055.1222623301078,244.22571003222475L1094.0643428091037,259.7168206630203L1131.4996208206737,314.31974451322975L1105.2753127701799,383.1709231024039Z" stroke-width="0.35"/><path transform="translate(0,0)" d="M1020.0881084555889,152.24453056733236L1054.8806062783783,0L1349.9765212583877,0L1332.4677849896052,51.07632393712967L1094.0643428091037,259.7168206630203L1055.1222623301078,244.22571003222475Z" stroke-width="0.35"/><path transform="translate(0,0)" d="M1131.4996208206737,314.31974451322975L1094.0643428091037,259.7168206630203L1332.4677849896052,51.07632393712967L1317.5094339622642,116.53086939167366L1172.2834279102458,298.09599735338435Z" stroke-width="0.35"/><path transform="translate(0,0)" d="M1131.4996208206737,314.31974451322975L1172.2834279102458,298.09599735338435L1230.9497057563146,362.2737690694259L1150.2376509178182,480L1099.743216749081,480L1105.2753127701799,383.1709231024039Z" stroke-width="0.35"/><path transform="translate(0,0)" d="M1172.2834279102458,298.09599735338435L1317.5094339622642,116.53086939167366L1317.5094339622642,206.30724295284668L1317.509433962264,206.3072429528467L1250.0416489726585,353.9195429733433L1230.9497057563146,362.2737690694259Z" stroke-width="0.35"/><path transform="translate(0,0)" d="M1150.2376509178182,480L1230.9497057563146,362.2737690694259L1250.0416489726585,353.9195429733433L1317.5094339622642,403.1236429801757L1327.998233331628,418.422557364316L1346.7613204157315,480Z" stroke-width="0.35"/><path transform="translate(0,0)" d="M1250.0416489726585,353.9195429733433L1317.509433962264,206.3072429528467L1317.5094339622642,403.1236429801757Z" stroke-width="0.35"/><path transform="translate(0,0)" d="M1317.5094339622642,403.1236429801757L1317.509433962264,206.3072429528467L1317.5094339622642,206.30724295284668L1371.2286234298044,323.83908594668657L1327.998233331628,418.422557364316Z" stroke-width="0.35"/><path transform="translate(0,0)" d="M1346.7613204157315,480L1327.998233331628,418.422557364316L1371.2286234298044,323.83908594668657L1413.3625715387489,354.56727713829895L1429.6916536596211,402.2023248766508L1425.6859538267818,454.7865825879358L1411.2808752478447,480Z" stroke-width="0.35"/><path transform="translate(0,0)" d="M1332.4677849896052,51.07632393712967L1349.9765212583877,0L1567.7256613582147,0L1558.386179700318,143.03651114582104L1413.3625715387489,354.56727713829895L1371.2286234298044,323.83908594668657L1317.5094339622642,206.30724295284668L1317.5094339622642,116.53086939167366Z" stroke-width="0.35"/><path transform="translate(0,0)" d="M1413.3625715387489,354.56727713829895L1558.386179700318,143.03651114582104L1559.3363928675465,167.9840889231485L1539.845814102236,281.69956209685677L1429.6916536596211,402.2023248766508Z" stroke-width="0.35"/><path transform="translate(0,0)" d="M1425.6859538267818,454.7865825879358L1429.6916536596211,402.2023248766508L1539.845814102236,281.69956209685677L1546.8262446155259,373.33417586329637L1523.6318236980344,407.1654512371848Z" stroke-width="0.35"/><path transform="translate(0,0)" d="M1411.2808752478447,480L1425.6859538267818,454.7865825879358L1523.6318236980344,407.1654512371848L1573.5665412831768,480Z" stroke-width="0.35"/><path transform="translate(0,0)" d="M1573.5665412831768,480L1523.6318236980344,407.1654512371848L1546.8262446155259,373.33417586329637L1603.1855875756323,408.5650948790144L1635.835677160215,480Z" stroke-width="0.35"/><path transform="translate(0,0)" d="M1539.845814102236,281.69956209685677L1559.3363928675465,167.9840889231485L1642.8521482734245,350.70763239371286L1603.1855875756323,408.5650948790144L1546.8262446155259,373.33417586329637Z" stroke-width="0.35"/><path transform="translate(0,0)" d="M1635.835677160215,480L1603.1855875756323,408.5650948790144L1642.8521482734245,350.70763239371286L1677.6671402189272,372.4709123991787L1702.2408016325535,480Z" stroke-width="0.35"/><path transform="translate(0,0)" d="M1558.386179700318,143.03651114582104L1567.7256613582147,0L1676.0321358110903,0L1759.1982860900753,198.5003398168227L1745.1376286680527,290.78998511278684L1727.8960477800877,328.51272065618815L1677.6671402189272,372.4709123991787L1642.8521482734245,350.70763239371286L1559.3363928675465,167.9840889231485Z" stroke-width="0.35"/><path transform="translate(0,0)" d="M1761.147641678927,480L1702.2408016325535,480L1677.6671402189272,372.4709123991787L1727.8960477800877,328.51272065618815L1761.6947812897347,476.40875109226823Z" stroke-width="0.35"/><path transform="translate(0,0)" d="M1761.6947812897347,476.40875109226823L1727.8960477800877,328.51272065618815L1745.1376286680527,290.78998511278684L1790.9584506978388,391.04104463235836Z" stroke-width="0.35"/><path transform="translate(0,0)" d="M1745.1376286680527,290.78998511278684L1759.1982860900753,198.5003398168227L1833.0566037735848,273.08223318155683L1833.056603773585,354.19854148462196L1790.9584506978388,391.04104463235836Z" stroke-width="0.35"/><path transform="translate(0,0)" d="M1761.147641678927,480L1761.6947812897347,476.40875109226823L1790.9584506978388,391.04104463235836L1833.056603773585,354.19854148462196L1890.3396226415095,404.3301897580288L1890.3396226415095,480Z" stroke-width="0.35"/><path transform="translate(0,0)" d="M1833.056603773585,354.19854148462196L1833.0566037735848,273.08223318155683L1928.5283018867924,305.2179051516895L1928.5283018867924,337.487992060153L1890.3396226415095,404.3301897580288Z" stroke-width="0.35"/><path transform="translate(0,0)" d="M2024,240.94656121142427L1928.5283018867924,305.2179051516895L1833.0566037735848,273.08223318155683L1759.1982860900753,198.5003398168227L1676.0321358110903,0L2024,0Z" stroke-width="0.35"/><path transform="translate(0,0)" d="M1890.3396226415095,480L1890.3396226415095,404.3301897580288L1928.5283018867924,337.487992060153L2006.133623641756,405.4048506903615L1937.9445974672246,480Z" stroke-width="0.35"/><path transform="translate(0,0)" d="M2024,399.39104742415526L2006.133623641756,405.4048506903615L1928.5283018867924,337.487992060153L1928.5283018867924,305.2179051516895L2024,240.94656121142427Z" stroke-width="0.35"/><path transform="translate(0,0)" d="M2024,480L1937.9445974672246,480L2006.133623641756,405.4048506903615L2024,399.39104742415526Z" stroke-width="0.35"/></g><g class="mark-symbol role-mark layer_4_marks" role="graphics-object" aria-roledescription="symbol mark container"><path aria-label="date: Sep 08, 2025; count: 1; Peak date: Sep 08, 2025; Peak unique count: 1" role="graphics-symbol" aria-roledescription="point" transform="translate(0,471.27272727272725)" d="M-5.916,0L0,-5.916L5.916,0L0,5.916Z" fill="#ff9900" stroke="#b36b00" stroke-width="1.5" opacity="0"/><path aria-label="date: Sep 09, 2025; count: 54; Peak date: Sep 09, 2025; Peak unique count: 54" role="graphics-symbol" aria-roledescription="point" transform="translate(38.18867924528302,8.72727272727273)" d="M-5.916,0L0,-5.916L5.916,0L0,5.916Z" fill="#ff9900" stroke="#b36b00" stroke-width="1.5" opacity="1"/><path aria-label="date: Sep 10, 2025; count: 51; Peak date: Sep 10, 2025; Peak unique count: 51" role="graphics-symbol" aria-roledescription="point" transform="translate(76.37735849056604,34.90909090909092)" d="M-5.916,0L0,-5.916L5.916,0L0,5.916Z" fill="#ff9900" stroke="#b36b00" stroke-width="1.5" opacity="0"/><path aria-label="date: Sep 11, 2025; count: 36; Peak date: Sep 11, 2025; Peak unique count: 36" role="graphics-symbol" aria-roledescription="point" transform="translate(114.56603773584906,165.8181818181818)" d="M-5.916,0L0,-5.916L5.916,0L0,5.916Z" fill="#ff9900" stroke="#b36b00" stroke-width="1.5" opacity="0"/><path aria-label="date: Sep 12, 2025; count: 32; Peak date: Sep 12, 2025; Peak unique count: 32" role="graphics-symbol" aria-roledescription="point" transform="translate(152.75471698113208,200.72727272727275)" d="M-5.916,0L0,-5.916L5.916,0L0,5.916Z" fill="#ff9900" stroke="#b36b00" stroke-width="1.5" opacity="0"/><path aria-label="date: Sep 13, 2025; count: 20; Peak date: Sep 13, 2025; Peak unique count: 20" role="graphics-symbol" aria-roledescription="point" transform="translate(190.9433962264151,305.45454545454544)" d="M-5.916,0L0,-5.916L5.916,0L0,5.916Z" fill="#ff9900" stroke="#b36b00" stroke-width="1.5" opacity="0"/><path aria-label="date: Sep 14, 2025; count: 18; Peak date: Sep 14, 2025; Peak unique count: 18" role="graphics-symbol" aria-roledescription="point" transform="translate(229.13207547169813,322.90909090909093)" d="M-5.916,0L0,-5.916L5.916,0L0,5.916Z" fill="#ff9900" stroke="#b36b00" stroke-width="1.5" opacity="0"/><path aria-label="date: Sep 15, 2025; count: 25; Peak date: Sep 15, 2025; Peak unique count: 25" role="graphics-symbol" aria-roledescription="point" transform="translate(267.3207547169811,261.8181818181818)" d="M-5.916,0L0,-5.916L5.916,0L0,5.916Z" fill="#ff9900" stroke="#b36b00" stroke-width="1.5" opacity="0"/><path aria-label="date: Sep 16, 2025; count: 27; Peak date: Sep 16, 2025; Peak unique count: 27" role="graphics-symbol" aria-roledescription="point" transform="translate(305.50943396226415,244.36363636363635)" d="M-5.916,0L0,-5.916L5.916,0L0,5.916Z" fill="#ff9900" stroke="#b36b00" stroke-width="1.5" opacity="0"/><path aria-label="date: Sep 17, 2025; count: 39; Peak date: Sep 17, 2025; Peak unique count: 39" role="graphics-symbol" aria-roledescription="point" transform="translate(343.6981132075471,139.63636363636363)" d="M-5.916,0L0,-5.916L5.916,0L0,5.916Z" fill="#ff9900" stroke="#b36b00" stroke-width="1.5" opacity="0"/><path aria-label="date: Sep 18, 2025; count: 41; Peak date: Sep 18, 2025; Peak unique count: 41" role="graphics-symbol" aria-roledescription="point" transform="translate(381.8867924528302,122.18181818181817)" d="M-5.916,0L0,-5.916L5.916,0L0,5.916Z" fill="#ff9900" stroke="#b36b00" stroke-width="1.5" opacity="0"/><path aria-label="date: Sep 19, 2025; count: 28; Peak date: Sep 19, 2025; Peak unique count: 28" role="graphics-symbol" aria-roledescription="point" transform="translate(420.07547169811323,235.63636363636365)" d="M-5.916,0L0,-5.916L5.916,0L0,5.916Z" fill="#ff9900" stroke="#b36b00" stroke-width="1.5" opacity="0"/><path aria-label="date: Sep 20, 2025; count: 24; Peak date: Sep 20, 2025; Peak unique count: 24" role="graphics-symbol" aria-roledescription="point" transform="translate(458.26415094339626,270.54545454545456)" d="M-5.916,0L0,-5.916L5.916,0L0,5.916Z" fill="#ff9900" stroke="#b36b00" stroke-width="1.5" opacity="0"/><path aria-label="date: Sep 21, 2025; count: 15; Peak date: Sep 21, 2025; Peak unique count: 15" role="graphics-symbol" aria-roledescription="point" transform="translate(496.45283018867923,349.0909090909091)" d="M-5.916,0L0,-5.916L5.916,0L0,5.916Z" fill="#ff9900" stroke="#b36b00" stroke-width="1.5" opacity="0"/><path aria-label="date: Sep 22, 2025; count: 16; Peak date: Sep 22, 2025; Peak unique count: 16" role="graphics-symbol" aria-roledescription="point" transform="translate(534.6415094339623,340.3636363636364)" d="M-5.916,0L0,-5.916L5.916,0L0,5.916Z" fill="#ff9900" stroke="#b36b00" stroke-width="1.5" opacity="0"/><path aria-label="date: Sep 23, 2025; count: 17; Peak date: Sep 23, 2025; Peak unique count: 17" role="graphics-symbol" aria-roledescription="point" transform="translate(572.8301886792452,331.6363636363636)" d="M-5.916,0L0,-5.916L5.916,0L0,5.916Z" fill="#ff9900" stroke="#b36b00" stroke-width="1.5" opacity="0"/><path aria-label="date: Sep 24, 2025; count: 18; Peak date: Sep 24, 2025; Peak unique count: 18" role="graphics-symbol" aria-roledescription="point" transform="translate(611.0188679245283,322.90909090909093)" d="M-5.916,0L0,-5.916L5.916,0L0,5.916Z" fill="#ff9900" stroke="#b36b00" stroke-width="1.5" opacity="0"/><path aria-label="date: Sep 25, 2025; count: 11; Peak date: Sep 25, 2025; Peak unique count: 11" role="graphics-symbol" aria-roledescription="point" transform="translate(649.2075471698113,384)" d="M-5.916,0L0,-5.916L5.916,0L0,5.916Z" fill="#ff9900" stroke="#b36b00" stroke-width="1.5" opacity="0"/><path aria-label="date: Sep 26, 2025; count: 25; Peak date: Sep 26, 2025; Peak unique count: 25" role="graphics-symbol" aria-roledescription="point" transform="translate(687.3962264150942,261.8181818181818)" d="M-5.916,0L0,-5.916L5.916,0L0,5.916Z" fill="#ff9900" stroke="#b36b00" stroke-width="1.5" opacity="0"/><path aria-label="date: Sep 27, 2025; count: 7; Peak date: Sep 27, 2025; Peak unique count: 7" role="graphics-symbol" aria-roledescription="point" transform="translate(725.5849056603773,418.90909090909093)" d="M-5.916,0L0,-5.916L5.916,0L0,5.916Z" fill="#ff9900" stroke="#b36b00" stroke-width="1.5" opacity="0"/><path aria-label="date: Sep 28, 2025; count: 14; Peak date: Sep 28, 2025; Peak unique count: 14" role="graphics-symbol" aria-roledescription="point" transform="translate(763.7735849056604,357.8181818181818)" d="M-5.916,0L0,-5.916L5.916,0L0,5.916Z" fill="#ff9900" stroke="#b36b00" stroke-width="1.5" opacity="0"/><path aria-label="date: Sep 29, 2025; count: 38; Peak date: Sep 29, 2025; Peak unique count: 38" role="graphics-symbol" aria-roledescription="point" transform="translate(801.9622641509435,148.36363636363637)" d="M-5.916,0L0,-5.916L5.916,0L0,5.916Z" fill="#ff9900" stroke="#b36b00" stroke-width="1.5" opacity="0"/><path aria-label="date: Sep 30, 2025; count: 27; Peak date: Sep 30, 2025; Peak unique count: 27" role="graphics-symbol" aria-roledescription="point" transform="translate(840.1509433962265,244.36363636363635)" d="M-5.916,0L0,-5.916L5.916,0L0,5.916Z" fill="#ff9900" stroke="#b36b00" stroke-width="1.5" opacity="0"/><path aria-label="date: Oct 01, 2025; count: 9; Peak date: Oct 01, 2025; Peak unique count: 9" role="graphics-symbol" aria-roledescription="point" transform="translate(878.3396226415094,401.4545454545455)" d="M-5.916,0L0,-5.916L5.916,0L0,5.916Z" fill="#ff9900" stroke="#b36b00" stroke-width="1.5" opacity="0"/><path aria-label="date: Oct 02, 2025; count: 36; Peak date: Oct 02, 2025; Peak unique count: 36" role="graphics-symbol" aria-roledescription="point" transform="translate(916.5283018867925,165.8181818181818)" d="M-5.916,0L0,-5.916L5.916,0L0,5.916Z" fill="#ff9900" stroke="#b36b00" stroke-width="1.5" opacity="0"/><path aria-label="date: Oct 03, 2025; count: 26; Peak date: Oct 03, 2025; Peak unique count: 26" role="graphics-symbol" aria-roledescription="point" transform="translate(954.7169811320755,253.09090909090912)" d="M-5.916,0L0,-5.916L5.916,0L0,5.916Z" fill="#ff9900" stroke="#b36b00" stroke-width="1.5" opacity="0"/><path aria-label="date: Oct 04, 2025; count: 26; Peak date: Oct 04, 2025; Peak unique count: 26" role="graphics-symbol" aria-roledescription="point" transform="translate(992.9056603773585,253.09090909090912)" d="M-5.916,0L0,-5.916L5.916,0L0,5.916Z" fill="#ff9900" stroke="#b36b00" stroke-width="1.5" opacity="0"/><path aria-label="date: Oct 05, 2025; count: 16; Peak date: Oct 05, 2025; Peak unique count: 16" role="graphics-symbol" aria-roledescription="point" transform="translate(1031.0943396226414,340.3636363636364)" d="M-5.916,0L0,-5.916L5.916,0L0,5.916Z" fill="#ff9900" stroke="#b36b00" stroke-width="1.5" opacity="0"/><path aria-label="date: Oct 06, 2025; count: 20; Peak date: Oct 06, 2025; Peak unique count: 20" role="graphics-symbol" aria-roledescription="point" transform="translate(1069.2830188679245,305.45454545454544)" d="M-5.916,0L0,-5.916L5.916,0L0,5.916Z" fill="#ff9900" stroke="#b36b00" stroke-width="1.5" opacity="0"/><path aria-label="date: Oct 07, 2025; count: 31; Peak date: Oct 07, 2025; Peak unique count: 31" role="graphics-symbol" aria-roledescription="point" transform="translate(1107.4716981132076,209.45454545454547)" d="M-5.916,0L0,-5.916L5.916,0L0,5.916Z" fill="#ff9900" stroke="#b36b00" stroke-width="1.5" opacity="0"/><path aria-label="date: Oct 08, 2025; count: 26; Peak date: Oct 08, 2025; Peak unique count: 26" role="graphics-symbol" aria-roledescription="point" transform="translate(1145.6603773584905,253.09090909090912)" d="M-5.916,0L0,-5.916L5.916,0L0,5.916Z" fill="#ff9900" stroke="#b36b00" stroke-width="1.5" opacity="0"/><path aria-label="date: Oct 09, 2025; count: 15; Peak date: Oct 09, 2025; Peak unique count: 15" role="graphics-symbol" aria-roledescription="point" transform="translate(1183.8490566037735,349.0909090909091)" d="M-5.916,0L0,-5.916L5.916,0L0,5.916Z" fill="#ff9900" stroke="#b36b00" stroke-width="1.5" opacity="0"/><path aria-label="date: Oct 10, 2025; count: 19; Peak date: Oct 10, 2025; Peak unique count: 19" role="graphics-symbol" aria-roledescription="point" transform="translate(1222.0377358490566,314.1818181818182)" d="M-5.916,0L0,-5.916L5.916,0L0,5.916Z" fill="#ff9900" stroke="#b36b00" stroke-width="1.5" opacity="0"/><path aria-label="date: Oct 11, 2025; count: 9; Peak date: Oct 11, 2025; Peak unique count: 9" role="graphics-symbol" aria-roledescription="point" transform="translate(1260.2264150943395,401.4545454545455)" d="M-5.916,0L0,-5.916L5.916,0L0,5.916Z" fill="#ff9900" stroke="#b36b00" stroke-width="1.5" opacity="0"/><path aria-label="date: Oct 12, 2025; count: 15; Peak date: Oct 12, 2025; Peak unique count: 15" role="graphics-symbol" aria-roledescription="point" transform="translate(1298.4150943396226,349.0909090909091)" d="M-5.916,0L0,-5.916L5.916,0L0,5.916Z" fill="#ff9900" stroke="#b36b00" stroke-width="1.5" opacity="0"/><path aria-label="date: Oct 13, 2025; count: 15; Peak date: Oct 13, 2025; Peak unique count: 15" role="graphics-symbol" aria-roledescription="point" transform="translate(1336.6037735849056,349.0909090909091)" d="M-5.916,0L0,-5.916L5.916,0L0,5.916Z" fill="#ff9900" stroke="#b36b00" stroke-width="1.5" opacity="0"/><path aria-label="date: Oct 14, 2025; count: 13; Peak date: Oct 14, 2025; Peak unique count: 13" role="graphics-symbol" aria-roledescription="point" transform="translate(1374.7924528301885,366.54545454545456)" d="M-5.916,0L0,-5.916L5.916,0L0,5.916Z" fill="#ff9900" stroke="#b36b00" stroke-width="1.5" opacity="0"/><path aria-label="date: Oct 15, 2025; count: 19; Peak date: Oct 15, 2025; Peak unique count: 19" role="graphics-symbol" aria-roledescription="point" transform="translate(1412.9811320754716,314.1818181818182)" d="M-5.916,0L0,-5.916L5.916,0L0,5.916Z" fill="#ff9900" stroke="#b36b00" stroke-width="1.5" opacity="0"/><path aria-label="date: Oct 16, 2025; count: 16; Peak date: Oct 16, 2025; Peak unique count: 16" role="graphics-symbol" aria-roledescription="point" transform="translate(1451.1698113207547,340.3636363636364)" d="M-5.916,0L0,-5.916L5.916,0L0,5.916Z" fill="#ff9900" stroke="#b36b00" stroke-width="1.5" opacity="0"/><path aria-label="date: Oct 17, 2025; count: 12; Peak date: Oct 17, 2025; Peak unique count: 12" role="graphics-symbol" aria-roledescription="point" transform="translate(1489.3584905660375,375.2727272727273)" d="M-5.916,0L0,-5.916L5.916,0L0,5.916Z" fill="#ff9900" stroke="#b36b00" stroke-width="1.5" opacity="0"/><path aria-label="date: Oct 18, 2025; count: 3; Peak date: Oct 18, 2025; Peak unique count: 3" role="graphics-symbol" aria-roledescription="point" transform="translate(1527.5471698113208,453.8181818181818)" d="M-5.916,0L0,-5.916L5.916,0L0,5.916Z" fill="#ff9900" stroke="#b36b00" stroke-width="1.5" opacity="0"/><path aria-label="date: Oct 19, 2025; count: 6; Peak date: Oct 19, 2025; Peak unique count: 6" role="graphics-symbol" aria-roledescription="point" transform="translate(1565.735849056604,427.6363636363636)" d="M-5.916,0L0,-5.916L5.916,0L0,5.916Z" fill="#ff9900" stroke="#b36b00" stroke-width="1.5" opacity="0"/><path aria-label="date: Oct 20, 2025; count: 13; Peak date: Oct 20, 2025; Peak unique count: 13" role="graphics-symbol" aria-roledescription="point" transform="translate(1603.924528301887,366.54545454545456)" d="M-5.916,0L0,-5.916L5.916,0L0,5.916Z" fill="#ff9900" stroke="#b36b00" stroke-width="1.5" opacity="0"/><path aria-label="date: Oct 21, 2025; count: 10; Peak date: Oct 21, 2025; Peak unique count: 10" role="graphics-symbol" aria-roledescription="point" transform="translate(1642.1132075471698,392.7272727272727)" d="M-5.916,0L0,-5.916L5.916,0L0,5.916Z" fill="#ff9900" stroke="#b36b00" stroke-width="1.5" opacity="0"/><path aria-label="date: Oct 22, 2025; count: 17; Peak date: Oct 22, 2025; Peak unique count: 17" role="graphics-symbol" aria-roledescription="point" transform="translate(1680.301886792453,331.6363636363636)" d="M-5.916,0L0,-5.916L5.916,0L0,5.916Z" fill="#ff9900" stroke="#b36b00" stroke-width="1.5" opacity="0"/><path aria-label="date: Oct 23, 2025; count: 12; Peak date: Oct 23, 2025; Peak unique count: 12" role="graphics-symbol" aria-roledescription="point" transform="translate(1718.490566037736,375.2727272727273)" d="M-5.916,0L0,-5.916L5.916,0L0,5.916Z" fill="#ff9900" stroke="#b36b00" stroke-width="1.5" opacity="0"/><path aria-label="date: Oct 24, 2025; count: 13; Peak date: Oct 24, 2025; Peak unique count: 13" role="graphics-symbol" aria-roledescription="point" transform="translate(1756.6792452830189,366.54545454545456)" d="M-5.916,0L0,-5.916L5.916,0L0,5.916Z" fill="#ff9900" stroke="#b36b00" stroke-width="1.5" opacity="0"/><path aria-label="date: Oct 25, 2025; count: 15; Peak date: Oct 25, 2025; Peak unique count: 15" role="graphics-symbol" aria-roledescription="point" transform="translate(1794.867924528302,349.0909090909091)" d="M-5.916,0L0,-5.916L5.916,0L0,5.916Z" fill="#ff9900" stroke="#b36b00" stroke-width="1.5" opacity="0"/><path aria-label="date: Oct 26, 2025; count: 10; Peak date: Oct 26, 2025; Peak unique count: 10" role="graphics-symbol" aria-roledescription="point" transform="translate(1833.056603773585,392.7272727272727)" d="M-5.916,0L0,-5.916L5.916,0L0,5.916Z" fill="#ff9900" stroke="#b36b00" stroke-width="1.5" opacity="0"/><path aria-label="date: Oct 27, 2025; count: 15; Peak date: Oct 27, 2025; Peak unique count: 15" role="graphics-symbol" aria-roledescription="point" transform="translate(1871.245283018868,349.0909090909091)" d="M-5.916,0L0,-5.916L5.916,0L0,5.916Z" fill="#ff9900" stroke="#b36b00" stroke-width="1.5" opacity="0"/><path aria-label="date: Oct 28, 2025; count: 28; Peak date: Oct 28, 2025; Peak unique count: 28" role="graphics-symbol" aria-roledescription="point" transform="translate(1909.433962264151,235.63636363636365)" d="M-5.916,0L0,-5.916L5.916,0L0,5.916Z" fill="#ff9900" stroke="#b36b00" stroke-width="1.5" opacity="0"/><path aria-label="date: Oct 29, 2025; count: 10; Peak date: Oct 29, 2025; Peak unique count: 10" role="graphics-symbol" aria-roledescription="point" transform="translate(1947.622641509434,392.7272727272727)" d="M-5.916,0L0,-5.916L5.916,0L0,5.916Z" fill="#ff9900" stroke="#b36b00" stroke-width="1.5" opacity="0"/><path aria-label="date: Oct 30, 2025; count: 15; Peak date: Oct 30, 2025; Peak unique count: 15" role="graphics-symbol" aria-roledescription="point" transform="translate(1985.811320754717,349.0909090909091)" d="M-5.916,0L0,-5.916L5.916,0L0,5.916Z" fill="#ff9900" stroke="#b36b00" stroke-width="1.5" opacity="0"/><path aria-label="date: Oct 31, 2025; count: 2; Peak date: Oct 31, 2025; Peak unique count: 2" role="graphics-symbol" aria-roledescription="point" transform="translate(2024,462.54545454545456)" d="M-5.916,0L0,-5.916L5.916,0L0,5.916Z" fill="#ff9900" stroke="#b36b00" stroke-width="1.5" opacity="0"/></g><g class="mark-rule role-mark layer_5_marks" role="graphics-symbol" aria-roledescription="rule mark container" pointer-events="none"><line transform="translate(2024,306.06545454545454)" x2="-2024" y2="0" stroke="#d62728" stroke-width="1.5" stroke-dasharray="4,4"/><line transform="translate(2024,306.06545454545454)" x2="-2024" y2="0" stroke="#d62728" stroke-width="1.5" stroke-dasharray="4,4"/><line transform="translate(2024,306.06545454545454)" x2="-2024" y2="0" stroke="#d62728" stroke-width="1.5" stroke-dasharray="4,4"/><line transform="translate(2024,306.06545454545454)" x2="-2024" y2="0" stroke="#d62728" stroke-width="1.5" stroke-dasharray="4,4"/><line transform="translate(2024,306.06545454545454)" x2="-2024" y2="0" stroke="#d62728" stroke-width="1.5" stroke-dasharray="4,4"/><line transform="translate(2024,306.06545454545454)" x2="-2024" y2="0" stroke="#d62728" stroke-width="1.5" stroke-dasharray="4,4"/><line transform="translate(2024,306.06545454545454)" x2="-2024" y2="0" stroke="#d62728" stroke-width="1.5" stroke-dasharray="4,4"/><line transform="translate(2024,306.06545454545454)" x2="-2024" y2="0" stroke="#d62728" stroke-width="1.5" stroke-dasharray="4,4"/><line transform="translate(2024,306.06545454545454)" x2="-2024" y2="0" stroke="#d62728" stroke-width="1.5" stroke-dasharray="4,4"/><line transform="translate(2024,306.06545454545454)" x2="-2024" y2="0" stroke="#d62728" stroke-width="1.5" stroke-dasharray="4,4"/><line transform="translate(2024,306.06545454545454)" x2="-2024" y2="0" stroke="#d62728" stroke-width="1.5" stroke-dasharray="4,4"/><line transform="translate(2024,306.06545454545454)" x2="-2024" y2="0" stroke="#d62728" stroke-width="1.5" stroke-dasharray="4,4"/><line transform="translate(2024,306.06545454545454)" x2="-2024" y2="0" stroke="#d62728" stroke-width="1.5" stroke-dasharray="4,4"/><line transform="translate(2024,306.06545454545454)" x2="-2024" y2="0" stroke="#d62728" stroke-width="1.5" stroke-dasharray="4,4"/><line transform="translate(2024,306.06545454545454)" x2="-2024" y2="0" stroke="#d62728" stroke-width="1.5" stroke-dasharray="4,4"/><line transform="translate(2024,306.06545454545454)" x2="-2024" y2="0" stroke="#d62728" stroke-width="1.5" stroke-dasharray="4,4"/><line transform="translate(2024,306.06545454545454)" x2="-2024" y2="0" stroke="#d62728" stroke-width="1.5" stroke-dasharray="4,4"/><line transform="translate(2024,306.06545454545454)" x2="-2024" y2="0" stroke="#d62728" stroke-width="1.5" stroke-dasharray="4,4"/><line transform="translate(2024,306.06545454545454)" x2="-2024" y2="0" stroke="#d62728" stroke-width="1.5" stroke-dasharray="4,4"/><line transform="translate(2024,306.06545454545454)" x2="-2024" y2="0" stroke="#d62728" stroke-width="1.5" stroke-dasharray="4,4"/><line transform="translate(2024,306.06545454545454)" x2="-2024" y2="0" stroke="#d62728" stroke-width="1.5" stroke-dasharray="4,4"/><line transform="translate(2024,306.06545454545454)" x2="-2024" y2="0" stroke="#d62728" stroke-width="1.5" stroke-dasharray="4,4"/><line transform="translate(2024,306.06545454545454)" x2="-2024" y2="0" stroke="#d62728" stroke-width="1.5" stroke-dasharray="4,4"/><line transform="translate(2024,306.06545454545454)" x2="-2024" y2="0" stroke="#d62728" stroke-width="1.5" stroke-dasharray="4,4"/><line transform="translate(2024,306.06545454545454)" x2="-2024" y2="0" stroke="#d62728" stroke-width="1.5" stroke-dasharray="4,4"/><line transform="translate(2024,306.06545454545454)" x2="-2024" y2="0" stroke="#d62728" stroke-width="1.5" stroke-dasharray="4,4"/><line transform="translate(2024,306.06545454545454)" x2="-2024" y2="0" stroke="#d62728" stroke-width="1.5" stroke-dasharray="4,4"/><line transform="translate(2024,306.06545454545454)" x2="-2024" y2="0" stroke="#d62728" stroke-width="1.5" stroke-dasharray="4,4"/><line transform="translate(2024,306.06545454545454)" x2="-2024" y2="0" stroke="#d62728" stroke-width="1.5" stroke-dasharray="4,4"/><line transform="translate(2024,306.06545454545454)" x2="-2024" y2="0" stroke="#d62728" stroke-width="1.5" stroke-dasharray="4,4"/><line transform="translate(2024,306.06545454545454)" x2="-2024" y2="0" stroke="#d62728" stroke-width="1.5" stroke-dasharray="4,4"/><line transform="translate(2024,306.06545454545454)" x2="-2024" y2="0" stroke="#d62728" stroke-width="1.5" stroke-dasharray="4,4"/><line transform="translate(2024,306.06545454545454)" x2="-2024" y2="0" stroke="#d62728" stroke-width="1.5" stroke-dasharray="4,4"/><line transform="translate(2024,306.06545454545454)" x2="-2024" y2="0" stroke="#d62728" stroke-width="1.5" stroke-dasharray="4,4"/><line transform="translate(2024,306.06545454545454)" x2="-2024" y2="0" stroke="#d62728" stroke-width="1.5" stroke-dasharray="4,4"/><line transform="translate(2024,306.06545454545454)" x2="-2024" y2="0" stroke="#d62728" stroke-width="1.5" stroke-dasharray="4,4"/><line transform="translate(2024,306.06545454545454)" x2="-2024" y2="0" stroke="#d62728" stroke-width="1.5" stroke-dasharray="4,4"/><line transform="translate(2024,306.06545454545454)" x2="-2024" y2="0" stroke="#d62728" stroke-width="1.5" stroke-dasharray="4,4"/><line transform="translate(2024,306.06545454545454)" x2="-2024" y2="0" stroke="#d62728" stroke-width="1.5" stroke-dasharray="4,4"/><line transform="translate(2024,306.06545454545454)" x2="-2024" y2="0" stroke="#d62728" stroke-width="1.5" stroke-dasharray="4,4"/><line transform="translate(2024,306.06545454545454)" x2="-2024" y2="0" stroke="#d62728" stroke-width="1.5" stroke-dasharray="4,4"/><line transform="translate(2024,306.06545454545454)" x2="-2024" y2="0" stroke="#d62728" stroke-width="1.5" stroke-dasharray="4,4"/><line transform="translate(2024,306.06545454545454)" x2="-2024" y2="0" stroke="#d62728" stroke-width="1.5" stroke-dasharray="4,4"/><line transform="translate(2024,306.06545454545454)" x2="-2024" y2="0" stroke="#d62728" stroke-width="1.5" stroke-dasharray="4,4"/><line transform="translate(2024,306.06545454545454)" x2="-2024" y2="0" stroke="#d62728" stroke-width="1.5" stroke-dasharray="4,4"/><line transform="translate(2024,306.06545454545454)" x2="-2024" y2="0" stroke="#d62728" stroke-width="1.5" stroke-dasharray="4,4"/><line transform="translate(2024,306.06545454545454)" x2="-2024" y2="0" stroke="#d62728" stroke-width="1.5" stroke-dasharray="4,4"/><line transform="translate(2024,306.06545454545454)" x2="-2024" y2="0" stroke="#d62728" stroke-width="1.5" stroke-dasharray="4,4"/><line transform="translate(2024,306.06545454545454)" x2="-2024" y2="0" stroke="#d62728" stroke-width="1.5" stroke-dasharray="4,4"/><line transform="translate(2024,306.06545454545454)" x2="-2024" y2="0" stroke="#d62728" stroke-width="1.5" stroke-dasharray="4,4"/><line transform="translate(2024,306.06545454545454)" x2="-2024" y2="0" stroke="#d62728" stroke-width="1.5" stroke-dasharray="4,4"/><line transform="translate(2024,306.06545454545454)" x2="-2024" y2="0" stroke="#d62728" stroke-width="1.5" stroke-dasharray="4,4"/><line transform="translate(2024,306.06545454545454)" x2="-2024" y2="0" stroke="#d62728" stroke-width="1.5" stroke-dasharray="4,4"/><line transform="translate(2024,306.06545454545454)" x2="-2024" y2="0" stroke="#d62728" stroke-width="1.5" stroke-dasharray="4,4"/></g><g class="mark-text role-mark layer_6_marks" role="graphics-object" aria-roledescription="text mark container" pointer-events="none"><text aria-label="date: Oct 31, 2025" role="graphics-symbol" aria-roledescription="text mark" text-anchor="start" transform="translate(2030,304.06545454545454)" font-family="sans-serif" font-size="12px" fill="#d62728">Avg: 19.93</text></g></g><path class="foreground" aria-hidden="true" d="" display="none"/></g></g></g></svg>
