<svg xmlns="http://www.w3.org/2000/svg" xmlns:xlink="http://www.w3.org/1999/xlink" version="1.1" class="marks" width="2079" height="573" viewBox="0 0 2079 573"><rect width="2079" height="573" fill="white"/><g fill="none" stroke-miterlimit="10" transform="translate(51,11)"><g class="mark-group role-frame root" role="graphics-object" aria-roledescription="group mark container"><g transform="translate(0,0)"><path class="background" aria-hidden="true" d="M0.5,0.5h1952v480h-1952Z"/><g><g class="mark-group role-axis" aria-hidden="true"><g transform="translate(0.5,0.5)"><path class="background" aria-hidden="true" d="M0,0h0v0h0Z" pointer-events="none"/><g><g class="mark-rule role-axis-grid" pointer-events="none"><line transform="translate(0,480)" x2="1952" y2="0" stroke="#ddd" stroke-width="1" opacity="1"/><line transform="translate(0,436)" x2="1952" y2="0" stroke="#ddd" stroke-width="1" opacity="1"/><line transform="translate(0,393)" x2="1952" y2="0" stroke="#ddd" stroke-width="1" opacity="1"/><line transform="translate(0,349)" x2="1952" y2="0" stroke="#ddd" stroke-width="1" opacity="1"/><line transform="translate(0,305)" x2="1952" y2="0" stroke="#ddd" stroke-width="1" opacity="1"/><line transform="translate(0,262)" x2="1952" y2="0" stroke="#ddd" stroke-width="1" opacity="1"/><line transform="translate(0,218)" x2="1952" y2="0" stroke="#ddd" stroke-width="1" opacity="1"/><line transform="translate(0,175)" x2="1952" y2="0" stroke="#ddd" stroke-width="1" opacity="1"/><line transform="translate(0,131)" x2="1952" y2="0" stroke="#ddd" stroke-width="1" opacity="1"/><line transform="translate(0,87)" x2="1952" y2="0" stroke="#ddd" stroke-width="1" opacity="1"/><line transform="translate(0,44)" x2="1952" y2="0" stroke="#ddd" stroke-width="1" opacity="1"/><line transform="translate(0,0)" x2="1952" y2="0" stroke="#ddd" stroke-width="1" opacity="1"/></g></g><path class="foreground" aria-hidden="true" d="" pointer-events="none" display="none"/></g></g><g class="mark-group role-axis" role="graphics-symbol" aria-roledescription="axis" aria-label="X-axis titled 'Date' for a time scale with values from 2025-09-08 to 2025-10-29"><g transform="translate(0.5,480.5)"><path class="background" aria-hidden="true" d="M0,0h0v0h0Z" pointer-events="none"/><g><g class="mark-rule role-axis-tick" pointer-events="none"><line transform="translate(0,0)" x2="0" y2="5" stroke="#bbb" stroke-width="1" opacity="1"/><line transform="translate(38,0)" x2="0" y2="5" stroke="#bbb" stroke-width="1" opacity="1"/><line transform="translate(77,0)" x2="0" y2="5" stroke="#bbb" stroke-width="1" opacity="1"/><line transform="translate(115,0)" x2="0" y2="5" stroke="#bbb" stroke-width="1" opacity="1"/><line transform="translate(153,0)" x2="0" y2="5" stroke="#bbb" stroke-width="1" opacity="1"/><line transform="translate(191,0)" x2="0" y2="5" stroke="#bbb" stroke-width="1" opacity="1"/><line transform="translate(230,0)" x2="0" y2="5" stroke="#bbb" stroke-width="1" opacity="1"/><line transform="translate(268,0)" x2="0" y2="5" stroke="#bbb" stroke-width="1" opacity="1"/><line transform="translate(306,0)" x2="0" y2="5" stroke="#bbb" stroke-width="1" opacity="1"/><line transform="translate(344,0)" x2="0" y2="5" stroke="#bbb" stroke-width="1" opacity="1"/><line transform="translate(383,0)" x2="0" y2="5" stroke="#bbb" stroke-width="1" opacity="1"/><line transform="translate(421,0)" x2="0" y2="5" stroke="#bbb" stroke-width="1" opacity="1"/><line transform="translate(459,0)" x2="0" y2="5" stroke="#bbb" stroke-width="1" opacity="1"/><line transform="translate(498,0)" x2="0" y2="5" stroke="#bbb" stroke-width="1" opacity="1"/><line transform="translate(536,0)" x2="0" y2="5" stroke="#bbb" stroke-width="1" opacity="1"/><line transform="translate(574,0)" x2="0" y2="5" stroke="#bbb" stroke-width="1" opacity="1"/><line transform="translate(612,0)" x2="0" y2="5" stroke="#bbb" stroke-width="1" opacity="1"/><line transform="translate(651,0)" x2="0" y2="5" stroke="#bbb" stroke-width="1" opacity="1"/><line transform="translate(689,0)" x2="0" y2="5" stroke="#bbb" stroke-width="1" opacity="1"/><line transform="translate(727,0)" x2="0" y2="5" stroke="#bbb" stroke-width="1" opacity="1"/><line transform="translate(765,0)" x2="0" y2="5" stroke="#bbb" stroke-width="1" opacity="1"/><line transform="translate(804,0)" x2="0" y2="5" stroke="#bbb" stroke-width="1" opacity="1"/><line transform="translate(842,0)" x2="0" y2="5" stroke="#bbb" stroke-width="1" opacity="1"/><line transform="translate(880,0)" x2="0" y2="5" stroke="#bbb" stroke-width="1" opacity="1"/><line transform="translate(919,0)" x2="0" y2="5" stroke="#bbb" stroke-width="1" opacity="1"/><line transform="translate(957,0)" x2="0" y2="5" stroke="#bbb" stroke-width="1" opacity="1"/><line transform="translate(995,0)" x2="0" y2="5" stroke="#bbb" stroke-width="1" opacity="1"/><line transform="translate(1033,0)" x2="0" y2="5" stroke="#bbb" stroke-width="1" opacity="1"/><line transform="translate(1072,0)" x2="0" y2="5" stroke="#bbb" stroke-width="1" opacity="1"/><line transform="translate(1110,0)" x2="0" y2="5" stroke="#bbb" stroke-width="1" opacity="1"/><line transform="translate(1148,0)" x2="0" y2="5" stroke="#bbb" stroke-width="1" opacity="1"/><line transform="translate(1187,0)" x2="0" y2="5" stroke="#bbb" stroke-width="1" opacity="1"/><line transform="translate(1225,0)" x2="0" y2="5" stroke="#bbb" stroke-width="1" opacity="1"/><line transform="translate(1263,0)" x2="0" y2="5" stroke="#bbb" stroke-width="1" opacity="1"/><line transform="translate(1301,0)" x2="0" y2="5" stroke="#bbb" stroke-width="1" opacity="1"/><line transform="translate(1340,0)" x2="0" y2="5" stroke="#bbb" stroke-width="1" opacity="1"/><line transform="translate(1378,0)" x2="0" y2="5" stroke="#bbb" stroke-width="1" opacity="1"/><line transform="translate(1416,0)" x2="0" y2="5" stroke="#bbb" stroke-width="1" opacity="1"/><line transform="translate(1454,0)" x2="0" y2="5" stroke="#bbb" stroke-width="1" opacity="1"/><line transform="translate(1493,0)" x2="0" y2="5" stroke="#bbb" stroke-width="1" opacity="1"/><line transform="translate(1531,0)" x2="0" y2="5" stroke="#bbb" stroke-width="1" opacity="1"/><line transform="translate(1569,0)" x2="0" y2="5" stroke="#bbb" stroke-width="1" opacity="1"/><line transform="translate(1608,0)" x2="0" y2="5" stroke="#bbb" stroke-width="1" opacity="1"/><line transform="translate(1646,0)" x2="0" y2="5" stroke="#bbb" stroke-width="1" opacity="1"/><line transform="translate(1684,0)" x2="0" y2="5" stroke="#bbb" stroke-width="1" opacity="1"/><line transform="translate(1722,0)" x2="0" y2="5" stroke="#bbb" stroke-width="1" opacity="1"/><line transform="translate(1761,0)" x2="0" y2="5" stroke="#bbb" stroke-width="1" opacity="1"/><line transform="translate(1799,0)" x2="0" y2="5" stroke="#bbb" stroke-width="1" opacity="1"/><line transform="translate(1837,0)" x2="0" y2="5" stroke="#bbb" stroke-width="1" opacity="1"/><line transform="translate(1875,0)" x2="0" y2="5" stroke="#bbb" stroke-width="1" opacity="1"/><line transform="translate(1914,0)" x2="0" y2="5" stroke="#bbb" stroke-width="1" opacity="1"/><line transform="translate(1952,0)" x2="0" y2="5" stroke="#bbb" stroke-width="1" opacity="1"/></g><g class="mark-text role-axis-label" pointer-events="none"><text text-anchor="end" transform="translate(0,7) rotate(315) translate(0,9)" font-family="Segoe UI" font-size="11px" fill="#000" opacity="1">2025-09-08</text><text text-anchor="end" transform="translate(38.27450980392157,7) rotate(315) translate(0,9)" font-family="Segoe UI" font-size="11px" fill="#000" opacity="0">2025-09-09</text><text text-anchor="end" transform="translate(76.54901960784314,7) rotate(315) translate(0,9)" font-family="Segoe UI" font-size="11px" fill="#000" opacity="1">2025-09-10</text><text text-anchor="end" transform="translate(114.82352941176471,7) rotate(315) translate(0,9)" font-family="Segoe UI" font-size="11px" fill="#000" opacity="0">2025-09-11</text><text text-anchor="end" transform="translate(153.09803921568627,7) rotate(315) translate(0,9)" font-family="Segoe UI" font-size="11px" fill="#000" opacity="1">2025-09-12</text><text text-anchor="end" transform="translate(191.37254901960785,7) rotate(315) translate(0,9)" font-family="Segoe UI" font-size="11px" fill="#000" opacity="0">2025-09-13</text><text text-anchor="end" transform="translate(229.64705882352942,7) rotate(315) translate(0,9)" font-family="Segoe UI" font-size="11px" fill="#000" opacity="1">2025-09-14</text><text text-anchor="end" transform="translate(267.921568627451,7) rotate(315) translate(0,9)" font-family="Segoe UI" font-size="11px" fill="#000" opacity="0">2025-09-15</text><text text-anchor="end" transform="translate(306.19607843137254,7) rotate(315) translate(0,9)" font-family="Segoe UI" font-size="11px" fill="#000" opacity="1">2025-09-16</text><text text-anchor="end" transform="translate(344.47058823529414,7) rotate(315) translate(0,9)" font-family="Segoe UI" font-size="11px" fill="#000" opacity="0">2025-09-17</text><text text-anchor="end" transform="translate(382.7450980392157,7) rotate(315) translate(0,9)" font-family="Segoe UI" font-size="11px" fill="#000" opacity="1">2025-09-18</text><text text-anchor="end" transform="translate(421.0196078431373,7) rotate(315) translate(0,9)" font-family="Segoe UI" font-size="11px" fill="#000" opacity="0">2025-09-19</text><text text-anchor="end" transform="translate(459.29411764705884,7) rotate(315) translate(0,9)" font-family="Segoe UI" font-size="11px" fill="#000" opacity="1">2025-09-20</text><text text-anchor="end" transform="translate(497.56862745098033,7) rotate(315) translate(0,9)" font-family="Segoe UI" font-size="11px" fill="#000" opacity="0">2025-09-21</text><text text-anchor="end" transform="translate(535.843137254902,7) rotate(315) translate(0,9)" font-family="Segoe UI" font-size="11px" fill="#000" opacity="1">2025-09-22</text><text text-anchor="end" transform="translate(574.1176470588235,7) rotate(315) translate(0,9)" font-family="Segoe UI" font-size="11px" fill="#000" opacity="0">2025-09-23</text><text text-anchor="end" transform="translate(612.3921568627451,7) rotate(315) translate(0,9)" font-family="Segoe UI" font-size="11px" fill="#000" opacity="1">2025-09-24</text><text text-anchor="end" transform="translate(650.6666666666666,7) rotate(315) translate(0,9)" font-family="Segoe UI" font-size="11px" fill="#000" opacity="0">2025-09-25</text><text text-anchor="end" transform="translate(688.9411764705883,7) rotate(315) translate(0,9)" font-family="Segoe UI" font-size="11px" fill="#000" opacity="1">2025-09-26</text><text text-anchor="end" transform="translate(727.2156862745098,7) rotate(315) translate(0,9)" font-family="Segoe UI" font-size="11px" fill="#000" opacity="0">2025-09-27</text><text text-anchor="end" transform="translate(765.4901960784314,7) rotate(315) translate(0,9)" font-family="Segoe UI" font-size="11px" fill="#000" opacity="1">2025-09-28</text><text text-anchor="end" transform="translate(803.7647058823529,7) rotate(315) translate(0,9)" font-family="Segoe UI" font-size="11px" fill="#000" opacity="0">2025-09-29</text><text text-anchor="end" transform="translate(842.0392156862746,7) rotate(315) translate(0,9)" font-family="Segoe UI" font-size="11px" fill="#000" opacity="1">2025-09-30</text><text text-anchor="end" transform="translate(880.3137254901961,7) rotate(315) translate(0,9)" font-family="Segoe UI" font-size="11px" fill="#000" opacity="0">2025-10-01</text><text text-anchor="end" transform="translate(918.5882352941177,7) rotate(315) translate(0,9)" font-family="Segoe UI" font-size="11px" fill="#000" opacity="1">2025-10-02</text><text text-anchor="end" transform="translate(956.8627450980392,7) rotate(315) translate(0,9)" font-family="Segoe UI" font-size="11px" fill="#000" opacity="0">2025-10-03</text><text text-anchor="end" transform="translate(995.1372549019607,7) rotate(315) translate(0,9)" font-family="Segoe UI" font-size="11px" fill="#000" opacity="1">2025-10-04</text><text text-anchor="end" transform="translate(1033.4117647058824,7) rotate(315) translate(0,9)" font-family="Segoe UI" font-size="11px" fill="#000" opacity="0">2025-10-05</text><text text-anchor="end" transform="translate(1071.686274509804,7) rotate(315) translate(0,9)" font-family="Segoe UI" font-size="11px" fill="#000" opacity="1">2025-10-06</text><text text-anchor="end" transform="translate(1109.9607843137255,7) rotate(315) translate(0,9)" font-family="Segoe UI" font-size="11px" fill="#000" opacity="0">2025-10-07</text><text text-anchor="end" transform="translate(1148.235294117647,7) rotate(315) translate(0,9)" font-family="Segoe UI" font-size="11px" fill="#000" opacity="1">2025-10-08</text><text text-anchor="end" transform="translate(1186.5098039215686,7) rotate(315) translate(0,9)" font-family="Segoe UI" font-size="11px" fill="#000" opacity="0">2025-10-09</text><text text-anchor="end" transform="translate(1224.7843137254902,7) rotate(315) translate(0,9)" font-family="Segoe UI" font-size="11px" fill="#000" opacity="1">2025-10-10</text><text text-anchor="end" transform="translate(1263.058823529412,7) rotate(315) translate(0,9)" font-family="Segoe UI" font-size="11px" fill="#000" opacity="0">2025-10-11</text><text text-anchor="end" transform="translate(1301.3333333333333,7) rotate(315) translate(0,9)" font-family="Segoe UI" font-size="11px" fill="#000" opacity="1">2025-10-12</text><text text-anchor="end" transform="translate(1339.6078431372548,7) rotate(315) translate(0,9)" font-family="Segoe UI" font-size="11px" fill="#000" opacity="0">2025-10-13</text><text text-anchor="end" transform="translate(1377.8823529411766,7) rotate(315) translate(0,9)" font-family="Segoe UI" font-size="11px" fill="#000" opacity="1">2025-10-14</text><text text-anchor="end" transform="translate(1416.156862745098,7) rotate(315) translate(0,9)" font-family="Segoe UI" font-size="11px" fill="#000" opacity="0">2025-10-15</text><text text-anchor="end" transform="translate(1454.4313725490197,7) rotate(315) translate(0,9)" font-family="Segoe UI" font-size="11px" fill="#000" opacity="1">2025-10-16</text><text text-anchor="end" transform="translate(1492.705882352941,7) rotate(315) translate(0,9)" font-family="Segoe UI" font-size="11px" fill="#000" opacity="0">2025-10-17</text><text text-anchor="end" transform="translate(1530.9803921568628,7) rotate(315) translate(0,9)" font-family="Segoe UI" font-size="11px" fill="#000" opacity="1">2025-10-18</text><text text-anchor="end" transform="translate(1569.2549019607843,7) rotate(315) translate(0,9)" font-family="Segoe UI" font-size="11px" fill="#000" opacity="0">2025-10-19</text><text text-anchor="end" transform="translate(1607.5294117647059,7) rotate(315) translate(0,9)" font-family="Segoe UI" font-size="11px" fill="#000" opacity="1">2025-10-20</text><text text-anchor="end" transform="translate(1645.8039215686274,7) rotate(315) translate(0,9)" font-family="Segoe UI" font-size="11px" fill="#000" opacity="0">2025-10-21</text><text text-anchor="end" transform="translate(1684.0784313725492,7) rotate(315) translate(0,9)" font-family="Segoe UI" font-size="11px" fill="#000" opacity="1">2025-10-22</text><text text-anchor="end" transform="translate(1722.3529411764705,7) rotate(315) translate(0,9)" font-family="Segoe UI" font-size="11px" fill="#000" opacity="0">2025-10-23</text><text text-anchor="end" transform="translate(1760.6274509803923,7) rotate(315) translate(0,9)" font-family="Segoe UI" font-size="11px" fill="#000" opacity="1">2025-10-24</text><text text-anchor="end" transform="translate(1798.9019607843136,7) rotate(315) translate(0,9)" font-family="Segoe UI" font-size="11px" fill="#000" opacity="0">2025-10-25</text><text text-anchor="end" transform="translate(1837.1764705882354,7) rotate(315) translate(0,9)" font-family="Segoe UI" font-size="11px" fill="#000" opacity="1">2025-10-26</text><text text-anchor="end" transform="translate(1875.450980392157,7) rotate(315) translate(0,9)" font-family="Segoe UI" font-size="11px" fill="#000" opacity="0">2025-10-27</text><text text-anchor="end" transform="translate(1913.7254901960785,7) rotate(315) translate(0,9)" font-family="Segoe UI" font-size="11px" fill="#000" opacity="1">2025-10-28</text><text text-anchor="end" transform="translate(1952,7) rotate(315) translate(0,9)" font-family="Segoe UI" font-size="11px" fill="#000" opacity="0">2025-10-29</text></g><g class="mark-rule role-axis-domain" pointer-events="none"><line transform="translate(0,0)" x2="1952" y2="0" stroke="#888" stroke-width="1" opacity="1"/></g><g class="mark-text role-axis-title" pointer-events="none"><text text-anchor="middle" transform="translate(976,73.9777658717112)" font-family="Segoe UI" font-size="13px" font-weight="bold" fill="#000" opacity="1">Date</text></g></g><path class="foreground" aria-hidden="true" d="" pointer-events="none" display="none"/></g></g><g class="mark-group role-axis" role="graphics-symbol" aria-roledescription="axis" aria-label="Y-axis titled 'Unique server names' for a linear scale with values from 0 to 55"><g transform="translate(0.5,0.5)"><path class="background" aria-hidden="true" d="M0,0h0v0h0Z" pointer-events="none"/><g><g class="mark-rule role-axis-tick" pointer-events="none"><line transform="translate(0,480)" x2="-5" y2="0" stroke="#bbb" stroke-width="1" opacity="1"/><line transform="translate(0,436)" x2="-5" y2="0" stroke="#bbb" stroke-width="1" opacity="1"/><line transform="translate(0,393)" x2="-5" y2="0" stroke="#bbb" stroke-width="1" opacity="1"/><line transform="translate(0,349)" x2="-5" y2="0" stroke="#bbb" stroke-width="1" opacity="1"/><line transform="translate(0,305)" x2="-5" y2="0" stroke="#bbb" stroke-width="1" opacity="1"/><line transform="translate(0,262)" x2="-5" y2="0" stroke="#bbb" stroke-width="1" opacity="1"/><line transform="translate(0,218)" x2="-5" y2="0" stroke="#bbb" stroke-width="1" opacity="1"/><line transform="translate(0,175)" x2="-5" y2="0" stroke="#bbb" stroke-width="1" opacity="1"/><line transform="translate(0,131)" x2="-5" y2="0" stroke="#bbb" stroke-width="1" opacity="1"/><line transform="translate(0,87)" x2="-5" y2="0" stroke="#bbb" stroke-width="1" opacity="1"/><line transform="translate(0,44)" x2="-5" y2="0" stroke="#bbb" stroke-width="1" opacity="1"/><line transform="translate(0,0)" x2="-5" y2="0" stroke="#bbb" stroke-width="1" opacity="1"/></g><g class="mark-text role-axis-label" pointer-events="none"><text text-anchor="end" transform="translate(-7,483)" font-family="Segoe UI" font-size="11px" fill="#000" opacity="1">0</text><text text-anchor="end" transform="translate(-7,439.3636363636364)" font-family="Segoe UI" font-size="11px" fill="#000" opacity="1">5</text><text text-anchor="end" transform="translate(-7,395.7272727272727)" font-family="Segoe UI" font-size="11px" fill="#000" opacity="1">10</text><text text-anchor="end" transform="translate(-7,352.0909090909091)" font-family="Segoe UI" font-size="11px" fill="#000" opacity="1">15</text><text text-anchor="end" transform="translate(-7,308.45454545454544)" font-family="Segoe UI" font-size="11px" fill="#000" opacity="1">20</text><text text-anchor="end" transform="translate(-7,264.8181818181818)" font-family="Segoe UI" font-size="11px" fill="#000" opacity="1">25</text><text text-anchor="end" transform="translate(-7,221.1818181818182)" font-family="Segoe UI" font-size="11px" fill="#000" opacity="1">30</text><text text-anchor="end" transform="translate(-7,177.54545454545456)" font-family="Segoe UI" font-size="11px" fill="#000" opacity="1">35</text><text text-anchor="end" transform="translate(-7,133.9090909090909)" font-family="Segoe UI" font-size="11px" fill="#000" opacity="1">40</text><text text-anchor="end" transform="translate(-7,90.27272727272725)" font-family="Segoe UI" font-size="11px" fill="#000" opacity="1">45</text><text text-anchor="end" transform="translate(-7,46.636363636363654)" font-family="Segoe UI" font-size="11px" fill="#000" opacity="1">50</text><text text-anchor="end" transform="translate(-7,3)" font-family="Segoe UI" font-size="11px" fill="#000" opacity="1">55</text></g><g class="mark-rule role-axis-domain" pointer-events="none"><line transform="translate(0,480)" x2="0" y2="-480" stroke="#888" stroke-width="1" opacity="1"/></g><g class="mark-text role-axis-title" pointer-events="none"><text text-anchor="middle" transform="translate(-24.99609375,240) rotate(-90) translate(0,-3)" font-family="Segoe UI" font-size="13px" font-weight="bold" fill="#000" opacity="1">Unique server names</text></g></g><path class="foreground" aria-hidden="true" d="" pointer-events="none" display="none"/></g></g><g class="mark-area role-mark layer_0_marks" role="graphics-object" aria-roledescription="area mark container" pointer-events="none"><path aria-label="date: 2025-09-08; count: 1" role="graphics-symbol" aria-roledescription="area mark" d="M0,471.273C12.758,240,25.516,8.727,38.275,8.727C51.033,8.727,63.791,17.455,76.549,34.909C89.307,52.364,102.065,142.545,114.824,165.818C127.582,189.091,140.34,177.455,153.098,200.727C165.856,224,178.614,293.818,191.373,305.455C204.131,317.091,216.889,322.909,229.647,322.909C242.405,322.909,255.163,273.455,267.922,261.818C280.68,250.182,293.438,256,306.196,244.364C318.954,232.727,331.712,151.273,344.471,139.636C357.229,128,369.987,122.182,382.745,122.182C395.503,122.182,408.261,212.364,421.02,235.636C433.778,258.909,446.536,251.636,459.294,270.545C472.052,289.455,484.81,349.091,497.569,349.091C510.327,349.091,523.085,343.273,535.843,340.364C548.601,337.455,561.359,334.545,574.118,331.636C586.876,328.727,599.634,322.909,612.392,322.909C625.15,322.909,637.908,384,650.667,384C663.425,384,676.183,261.818,688.941,261.818C701.699,261.818,714.458,418.909,727.216,418.909C739.974,418.909,752.732,398.545,765.49,357.818C778.248,317.091,791.007,148.364,803.765,148.364C816.523,148.364,829.281,202.182,842.039,244.364C854.797,286.545,867.556,401.455,880.314,401.455C893.072,401.455,905.83,165.818,918.588,165.818C931.346,165.818,944.105,253.091,956.863,253.091C969.621,253.091,982.379,253.091,995.137,253.091C1007.895,253.091,1020.654,340.364,1033.412,340.364C1046.17,340.364,1058.928,327.273,1071.686,305.455C1084.444,283.636,1097.203,209.455,1109.961,209.455C1122.719,209.455,1135.477,229.818,1148.235,253.091C1160.993,276.364,1173.752,349.091,1186.51,349.091C1199.268,349.091,1212.026,314.182,1224.784,314.182C1237.542,314.182,1250.301,401.455,1263.059,401.455C1275.817,401.455,1288.575,349.091,1301.333,349.091C1314.092,349.091,1326.85,349.091,1339.608,349.091C1352.366,349.091,1365.124,366.545,1377.882,366.545C1390.641,366.545,1403.399,314.182,1416.157,314.182C1428.915,314.182,1441.673,330.182,1454.431,340.364C1467.19,350.545,1479.948,356.364,1492.706,375.273C1505.464,394.182,1518.222,453.818,1530.98,453.818C1543.739,453.818,1556.497,442.182,1569.255,427.636C1582.013,413.091,1594.771,366.545,1607.529,366.545C1620.288,366.545,1633.046,392.727,1645.804,392.727C1658.562,392.727,1671.32,331.636,1684.078,331.636C1696.837,331.636,1709.595,375.273,1722.353,375.273C1735.111,375.273,1747.869,370.909,1760.627,366.545C1773.386,362.182,1786.144,349.091,1798.902,349.091C1811.66,349.091,1824.418,392.727,1837.176,392.727C1849.935,392.727,1862.693,375.273,1875.451,349.091C1888.209,322.909,1900.967,235.636,1913.725,235.636C1926.484,235.636,1939.242,322.909,1952,410.182L1952,480C1939.242,480,1926.484,480,1913.725,480C1900.967,480,1888.209,480,1875.451,480C1862.693,480,1849.935,480,1837.176,480C1824.418,480,1811.66,480,1798.902,480C1786.144,480,1773.386,480,1760.627,480C1747.869,480,1735.111,480,1722.353,480C1709.595,480,1696.837,480,1684.078,480C1671.32,480,1658.562,480,1645.804,480C1633.046,480,1620.288,480,1607.529,480C1594.771,480,1582.013,480,1569.255,480C1556.497,480,1543.739,480,1530.98,480C1518.222,480,1505.464,480,1492.706,480C1479.948,480,1467.19,480,1454.431,480C1441.673,480,1428.915,480,1416.157,480C1403.399,480,1390.641,480,1377.882,480C1365.124,480,1352.366,480,1339.608,480C1326.85,480,1314.092,480,1301.333,480C1288.575,480,1275.817,480,1263.059,480C1250.301,480,1237.542,480,1224.784,480C1212.026,480,1199.268,480,1186.51,480C1173.752,480,1160.993,480,1148.235,480C1135.477,480,1122.719,480,1109.961,480C1097.203,480,1084.444,480,1071.686,480C1058.928,480,1046.17,480,1033.412,480C1020.654,480,1007.895,480,995.137,480C982.379,480,969.621,480,956.863,480C944.105,480,931.346,480,918.588,480C905.83,480,893.072,480,880.314,480C867.556,480,854.797,480,842.039,480C829.281,480,816.523,480,803.765,480C791.007,480,778.248,480,765.49,480C752.732,480,739.974,480,727.216,480C714.458,480,701.699,480,688.941,480C676.183,480,663.425,480,650.667,480C637.908,480,625.15,480,612.392,480C599.634,480,586.876,480,574.118,480C561.359,480,548.601,480,535.843,480C523.085,480,510.327,480,497.569,480C484.81,480,472.052,480,459.294,480C446.536,480,433.778,480,421.02,480C408.261,480,395.503,480,382.745,480C369.987,480,357.229,480,344.471,480C331.712,480,318.954,480,306.196,480C293.438,480,280.68,480,267.922,480C255.163,480,242.405,480,229.647,480C216.889,480,204.131,480,191.373,480C178.614,480,165.856,480,153.098,480C140.34,480,127.582,480,114.824,480C102.065,480,89.307,480,76.549,480C63.791,480,51.033,480,38.275,480C25.516,480,12.758,480,0,480Z" fill="#4e79a7" opacity="0.18"/></g><g class="mark-line role-mark layer_1_marks" role="graphics-object" aria-roledescription="line mark container" pointer-events="none"><path aria-label="date: Sep 08, 2025; count: 1" role="graphics-symbol" aria-roledescription="line mark" d="M0,471.273C12.758,240,25.516,8.727,38.275,8.727C51.033,8.727,63.791,17.455,76.549,34.909C89.307,52.364,102.065,142.545,114.824,165.818C127.582,189.091,140.34,177.455,153.098,200.727C165.856,224,178.614,293.818,191.373,305.455C204.131,317.091,216.889,322.909,229.647,322.909C242.405,322.909,255.163,273.455,267.922,261.818C280.68,250.182,293.438,256,306.196,244.364C318.954,232.727,331.712,151.273,344.471,139.636C357.229,128,369.987,122.182,382.745,122.182C395.503,122.182,408.261,212.364,421.02,235.636C433.778,258.909,446.536,251.636,459.294,270.545C472.052,289.455,484.81,349.091,497.569,349.091C510.327,349.091,523.085,343.273,535.843,340.364C548.601,337.455,561.359,334.545,574.118,331.636C586.876,328.727,599.634,322.909,612.392,322.909C625.15,322.909,637.908,384,650.667,384C663.425,384,676.183,261.818,688.941,261.818C701.699,261.818,714.458,418.909,727.216,418.909C739.974,418.909,752.732,398.545,765.49,357.818C778.248,317.091,791.007,148.364,803.765,148.364C816.523,148.364,829.281,202.182,842.039,244.364C854.797,286.545,867.556,401.455,880.314,401.455C893.072,401.455,905.83,165.818,918.588,165.818C931.346,165.818,944.105,253.091,956.863,253.091C969.621,253.091,982.379,253.091,995.137,253.091C1007.895,253.091,1020.654,340.364,1033.412,340.364C1046.17,340.364,1058.928,327.273,1071.686,305.455C1084.444,283.636,1097.203,209.455,1109.961,209.455C1122.719,209.455,1135.477,229.818,1148.235,253.091C1160.993,276.364,1173.752,349.091,1186.51,349.091C1199.268,349.091,1212.026,314.182,1224.784,314.182C1237.542,314.182,1250.301,401.455,1263.059,401.455C1275.817,401.455,1288.575,349.091,1301.333,349.091C1314.092,349.091,1326.85,349.091,1339.608,349.091C1352.366,349.091,1365.124,366.545,1377.882,366.545C1390.641,366.545,1403.399,314.182,1416.157,314.182C1428.915,314.182,1441.673,330.182,1454.431,340.364C1467.19,350.545,1479.948,356.364,1492.706,375.273C1505.464,394.182,1518.222,453.818,1530.98,453.818C1543.739,453.818,1556.497,442.182,1569.255,427.636C1582.013,413.091,1594.771,366.545,1607.529,366.545C1620.288,366.545,1633.046,392.727,1645.804,392.727C1658.562,392.727,1671.32,331.636,1684.078,331.636C1696.837,331.636,1709.595,375.273,1722.353,375.273C1735.111,375.273,1747.869,370.909,1760.627,366.545C1773.386,362.182,1786.144,349.091,1798.902,349.091C1811.66,349.091,1824.418,392.727,1837.176,392.727C1849.935,392.727,1862.693,375.273,1875.451,349.091C1888.209,322.909,1900.967,235.636,1913.725,235.636C1926.484,235.636,1939.242,322.909,1952,410.182" stroke="#4e79a7" stroke-width="2"/></g><g class="mark-line role-mark layer_2_marks" role="graphics-object" aria-roledescription="line mark container" pointer-events="none"><path aria-label="date: Sep 08, 2025; ma7: 1" role="graphics-symbol" aria-roledescription="line mark" d="M0,471.273C12.758,378.424,25.516,285.576,38.275,240C51.033,194.424,63.791,172.606,76.549,171.636C89.307,170.667,102.065,170.182,114.824,170.182C127.582,170.182,140.34,172.218,153.098,176.291C165.856,180.364,178.614,191.252,191.373,197.818C204.131,204.384,216.889,215.688,229.647,215.688C242.405,215.688,255.163,185.766,267.922,185.766C280.68,185.766,293.438,211.325,306.196,219.429C318.954,227.532,331.712,234.39,344.471,234.39C357.229,234.39,369.987,228.156,382.745,228.156C395.503,228.156,408.261,233.143,421.02,233.143C433.778,233.143,446.536,228.156,459.294,228.156C472.052,228.156,484.81,229.403,497.569,231.896C510.327,234.39,523.085,239.169,535.843,243.117C548.601,247.065,561.359,249.143,574.118,255.584C586.876,262.026,599.634,271.169,612.392,281.766C625.15,292.364,637.908,316.675,650.667,319.169C663.425,321.662,676.183,320.416,688.941,322.909C701.699,325.403,714.458,343.273,727.216,344.104C739.974,344.935,752.732,345.351,765.49,345.351C778.248,345.351,791.007,324.571,803.765,317.922C816.523,311.273,829.281,305.455,842.039,305.455C854.797,305.455,867.556,316.675,880.314,316.675C893.072,316.675,905.83,286.338,918.588,285.506C931.346,284.675,944.105,285.091,956.863,284.26C969.621,283.429,982.379,262.234,995.137,260.571C1007.895,258.909,1020.654,258.078,1033.412,258.078C1046.17,258.078,1058.928,280.519,1071.686,280.519C1084.444,280.519,1097.203,278.857,1109.961,275.532C1122.719,272.208,1135.477,254.338,1148.235,254.338C1160.993,254.338,1173.752,274.701,1186.51,280.519C1199.268,286.338,1212.026,284.26,1224.784,289.247C1237.542,294.234,1250.301,309.61,1263.059,310.442C1275.817,311.273,1288.575,310.857,1301.333,311.688C1314.092,312.519,1326.85,313.766,1339.608,317.922C1352.366,322.078,1365.124,335.169,1377.882,340.364C1390.641,345.558,1403.399,349.091,1416.157,349.091C1428.915,349.091,1441.673,347.844,1454.431,347.844C1467.19,347.844,1479.948,353.87,1492.706,356.571C1505.464,359.273,1518.222,360.935,1530.98,364.052C1543.739,367.169,1556.497,373.61,1569.255,375.273C1582.013,376.935,1594.771,376.727,1607.529,377.766C1620.288,378.805,1633.046,380.468,1645.804,381.506C1658.562,382.545,1671.32,382.753,1684.078,384C1696.837,385.247,1709.595,388.987,1722.353,388.987C1735.111,388.987,1747.869,388.571,1760.627,387.74C1773.386,386.909,1786.144,376.104,1798.902,372.779C1811.66,369.455,1824.418,369.039,1837.176,367.792C1849.935,366.545,1862.693,366.961,1875.451,365.299C1888.209,363.636,1900.967,342.857,1913.725,342.857C1926.484,342.857,1939.242,348.468,1952,354.078" stroke="#d62728" stroke-width="2" stroke-dasharray="6,4"/></g><g class="mark-symbol role-mark layer_3_marks" role="graphics-object" aria-roledescription="symbol mark container"><path aria-label="date: Sep 08, 2025; count: 1; Date: Sep 08, 2025; Daily unique: 1; 7d avg: 1" role="graphics-symbol" aria-roledescription="point" transform="translate(0,471.27272727272725)" d="M3.536,0A3.536,3.536,0,1,1,-3.536,0A3.536,3.536,0,1,1,3.536,0" fill="#4e79a7" stroke-width="2" opacity="0.55"/><path aria-label="date: Sep 09, 2025; count: 54; Date: Sep 09, 2025; Daily unique: 54; 7d avg: 27.5" role="graphics-symbol" aria-roledescription="point" transform="translate(38.27450980392157,8.72727272727273)" d="M3.536,0A3.536,3.536,0,1,1,-3.536,0A3.536,3.536,0,1,1,3.536,0" fill="#4e79a7" stroke-width="2" opacity="0.55"/><path aria-label="date: Sep 10, 2025; count: 51; Date: Sep 10, 2025; Daily unique: 51; 7d avg: 35.3333333333" role="graphics-symbol" aria-roledescription="point" transform="translate(76.54901960784314,34.90909090909092)" d="M3.536,0A3.536,3.536,0,1,1,-3.536,0A3.536,3.536,0,1,1,3.536,0" fill="#4e79a7" stroke-width="2" opacity="0.55"/><path aria-label="date: Sep 11, 2025; count: 36; Date: Sep 11, 2025; Daily unique: 36; 7d avg: 35.5" role="graphics-symbol" aria-roledescription="point" transform="translate(114.82352941176471,165.8181818181818)" d="M3.536,0A3.536,3.536,0,1,1,-3.536,0A3.536,3.536,0,1,1,3.536,0" fill="#4e79a7" stroke-width="2" opacity="0.55"/><path aria-label="date: Sep 12, 2025; count: 32; Date: Sep 12, 2025; Daily unique: 32; 7d avg: 34.8" role="graphics-symbol" aria-roledescription="point" transform="translate(153.09803921568627,200.72727272727275)" d="M3.536,0A3.536,3.536,0,1,1,-3.536,0A3.536,3.536,0,1,1,3.536,0" fill="#4e79a7" stroke-width="2" opacity="0.55"/><path aria-label="date: Sep 13, 2025; count: 20; Date: Sep 13, 2025; Daily unique: 20; 7d avg: 32.3333333333" role="graphics-symbol" aria-roledescription="point" transform="translate(191.37254901960785,305.45454545454544)" d="M3.536,0A3.536,3.536,0,1,1,-3.536,0A3.536,3.536,0,1,1,3.536,0" fill="#4e79a7" stroke-width="2" opacity="0.55"/><path aria-label="date: Sep 14, 2025; count: 18; Date: Sep 14, 2025; Daily unique: 18; 7d avg: 30.2857142857" role="graphics-symbol" aria-roledescription="point" transform="translate(229.64705882352942,322.90909090909093)" d="M3.536,0A3.536,3.536,0,1,1,-3.536,0A3.536,3.536,0,1,1,3.536,0" fill="#4e79a7" stroke-width="2" opacity="0.55"/><path aria-label="date: Sep 15, 2025; count: 25; Date: Sep 15, 2025; Daily unique: 25; 7d avg: 33.7142857143" role="graphics-symbol" aria-roledescription="point" transform="translate(267.921568627451,261.8181818181818)" d="M3.536,0A3.536,3.536,0,1,1,-3.536,0A3.536,3.536,0,1,1,3.536,0" fill="#4e79a7" stroke-width="2" opacity="0.55"/><path aria-label="date: Sep 16, 2025; count: 27; Date: Sep 16, 2025; Daily unique: 27; 7d avg: 29.8571428571" role="graphics-symbol" aria-roledescription="point" transform="translate(306.19607843137254,244.36363636363635)" d="M3.536,0A3.536,3.536,0,1,1,-3.536,0A3.536,3.536,0,1,1,3.536,0" fill="#4e79a7" stroke-width="2" opacity="0.55"/><path aria-label="date: Sep 17, 2025; count: 39; Date: Sep 17, 2025; Daily unique: 39; 7d avg: 28.1428571429" role="graphics-symbol" aria-roledescription="point" transform="translate(344.47058823529414,139.63636363636363)" d="M3.536,0A3.536,3.536,0,1,1,-3.536,0A3.536,3.536,0,1,1,3.536,0" fill="#4e79a7" stroke-width="2" opacity="0.55"/><path aria-label="date: Sep 18, 2025; count: 41; Date: Sep 18, 2025; Daily unique: 41; 7d avg: 28.8571428571" role="graphics-symbol" aria-roledescription="point" transform="translate(382.7450980392157,122.18181818181817)" d="M3.536,0A3.536,3.536,0,1,1,-3.536,0A3.536,3.536,0,1,1,3.536,0" fill="#4e79a7" stroke-width="2" opacity="0.55"/><path aria-label="date: Sep 19, 2025; count: 28; Date: Sep 19, 2025; Daily unique: 28; 7d avg: 28.2857142857" role="graphics-symbol" aria-roledescription="point" transform="translate(421.0196078431373,235.63636363636365)" d="M3.536,0A3.536,3.536,0,1,1,-3.536,0A3.536,3.536,0,1,1,3.536,0" fill="#4e79a7" stroke-width="2" opacity="0.55"/><path aria-label="date: Sep 20, 2025; count: 24; Date: Sep 20, 2025; Daily unique: 24; 7d avg: 28.8571428571" role="graphics-symbol" aria-roledescription="point" transform="translate(459.29411764705884,270.54545454545456)" d="M3.536,0A3.536,3.536,0,1,1,-3.536,0A3.536,3.536,0,1,1,3.536,0" fill="#4e79a7" stroke-width="2" opacity="0.55"/><path aria-label="date: Sep 21, 2025; count: 15; Date: Sep 21, 2025; Daily unique: 15; 7d avg: 28.4285714286" role="graphics-symbol" aria-roledescription="point" transform="translate(497.56862745098033,349.0909090909091)" d="M3.536,0A3.536,3.536,0,1,1,-3.536,0A3.536,3.536,0,1,1,3.536,0" fill="#4e79a7" stroke-width="2" opacity="0.55"/><path aria-label="date: Sep 22, 2025; count: 16; Date: Sep 22, 2025; Daily unique: 16; 7d avg: 27.1428571429" role="graphics-symbol" aria-roledescription="point" transform="translate(535.843137254902,340.3636363636364)" d="M3.536,0A3.536,3.536,0,1,1,-3.536,0A3.536,3.536,0,1,1,3.536,0" fill="#4e79a7" stroke-width="2" opacity="0.55"/><path aria-label="date: Sep 23, 2025; count: 17; Date: Sep 23, 2025; Daily unique: 17; 7d avg: 25.7142857143" role="graphics-symbol" aria-roledescription="point" transform="translate(574.1176470588235,331.6363636363636)" d="M3.536,0A3.536,3.536,0,1,1,-3.536,0A3.536,3.536,0,1,1,3.536,0" fill="#4e79a7" stroke-width="2" opacity="0.55"/><path aria-label="date: Sep 24, 2025; count: 18; Date: Sep 24, 2025; Daily unique: 18; 7d avg: 22.7142857143" role="graphics-symbol" aria-roledescription="point" transform="translate(612.3921568627451,322.90909090909093)" d="M3.536,0A3.536,3.536,0,1,1,-3.536,0A3.536,3.536,0,1,1,3.536,0" fill="#4e79a7" stroke-width="2" opacity="0.55"/><path aria-label="date: Sep 25, 2025; count: 11; Date: Sep 25, 2025; Daily unique: 11; 7d avg: 18.4285714286" role="graphics-symbol" aria-roledescription="point" transform="translate(650.6666666666666,384)" d="M3.536,0A3.536,3.536,0,1,1,-3.536,0A3.536,3.536,0,1,1,3.536,0" fill="#4e79a7" stroke-width="2" opacity="0.55"/><path aria-label="date: Sep 26, 2025; count: 25; Date: Sep 26, 2025; Daily unique: 25; 7d avg: 18" role="graphics-symbol" aria-roledescription="point" transform="translate(688.9411764705883,261.8181818181818)" d="M3.536,0A3.536,3.536,0,1,1,-3.536,0A3.536,3.536,0,1,1,3.536,0" fill="#4e79a7" stroke-width="2" opacity="0.55"/><path aria-label="date: Sep 27, 2025; count: 7; Date: Sep 27, 2025; Daily unique: 7; 7d avg: 15.5714285714" role="graphics-symbol" aria-roledescription="point" transform="translate(727.2156862745098,418.90909090909093)" d="M3.536,0A3.536,3.536,0,1,1,-3.536,0A3.536,3.536,0,1,1,3.536,0" fill="#4e79a7" stroke-width="2" opacity="0.55"/><path aria-label="date: Sep 28, 2025; count: 14; Date: Sep 28, 2025; Daily unique: 14; 7d avg: 15.4285714286" role="graphics-symbol" aria-roledescription="point" transform="translate(765.4901960784314,357.8181818181818)" d="M3.536,0A3.536,3.536,0,1,1,-3.536,0A3.536,3.536,0,1,1,3.536,0" fill="#4e79a7" stroke-width="2" opacity="0.55"/><path aria-label="date: Sep 29, 2025; count: 38; Date: Sep 29, 2025; Daily unique: 38; 7d avg: 18.5714285714" role="graphics-symbol" aria-roledescription="point" transform="translate(803.7647058823529,148.36363636363637)" d="M3.536,0A3.536,3.536,0,1,1,-3.536,0A3.536,3.536,0,1,1,3.536,0" fill="#4e79a7" stroke-width="2" opacity="0.55"/><path aria-label="date: Sep 30, 2025; count: 27; Date: Sep 30, 2025; Daily unique: 27; 7d avg: 20" role="graphics-symbol" aria-roledescription="point" transform="translate(842.0392156862746,244.36363636363635)" d="M3.536,0A3.536,3.536,0,1,1,-3.536,0A3.536,3.536,0,1,1,3.536,0" fill="#4e79a7" stroke-width="2" opacity="0.55"/><path aria-label="date: Oct 01, 2025; count: 9; Date: Oct 01, 2025; Daily unique: 9; 7d avg: 18.7142857143" role="graphics-symbol" aria-roledescription="point" transform="translate(880.3137254901961,401.4545454545455)" d="M3.536,0A3.536,3.536,0,1,1,-3.536,0A3.536,3.536,0,1,1,3.536,0" fill="#4e79a7" stroke-width="2" opacity="0.55"/><path aria-label="date: Oct 02, 2025; count: 36; Date: Oct 02, 2025; Daily unique: 36; 7d avg: 22.2857142857" role="graphics-symbol" aria-roledescription="point" transform="translate(918.5882352941177,165.8181818181818)" d="M3.536,0A3.536,3.536,0,1,1,-3.536,0A3.536,3.536,0,1,1,3.536,0" fill="#4e79a7" stroke-width="2" opacity="0.55"/><path aria-label="date: Oct 03, 2025; count: 26; Date: Oct 03, 2025; Daily unique: 26; 7d avg: 22.4285714286" role="graphics-symbol" aria-roledescription="point" transform="translate(956.8627450980392,253.09090909090912)" d="M3.536,0A3.536,3.536,0,1,1,-3.536,0A3.536,3.536,0,1,1,3.536,0" fill="#4e79a7" stroke-width="2" opacity="0.55"/><path aria-label="date: Oct 04, 2025; count: 26; Date: Oct 04, 2025; Daily unique: 26; 7d avg: 25.1428571429" role="graphics-symbol" aria-roledescription="point" transform="translate(995.1372549019607,253.09090909090912)" d="M3.536,0A3.536,3.536,0,1,1,-3.536,0A3.536,3.536,0,1,1,3.536,0" fill="#4e79a7" stroke-width="2" opacity="0.55"/><path aria-label="date: Oct 05, 2025; count: 16; Date: Oct 05, 2025; Daily unique: 16; 7d avg: 25.4285714286" role="graphics-symbol" aria-roledescription="point" transform="translate(1033.4117647058824,340.3636363636364)" d="M3.536,0A3.536,3.536,0,1,1,-3.536,0A3.536,3.536,0,1,1,3.536,0" fill="#4e79a7" stroke-width="2" opacity="0.55"/><path aria-label="date: Oct 06, 2025; count: 20; Date: Oct 06, 2025; Daily unique: 20; 7d avg: 22.8571428571" role="graphics-symbol" aria-roledescription="point" transform="translate(1071.686274509804,305.45454545454544)" d="M3.536,0A3.536,3.536,0,1,1,-3.536,0A3.536,3.536,0,1,1,3.536,0" fill="#4e79a7" stroke-width="2" opacity="0.55"/><path aria-label="date: Oct 07, 2025; count: 31; Date: Oct 07, 2025; Daily unique: 31; 7d avg: 23.4285714286" role="graphics-symbol" aria-roledescription="point" transform="translate(1109.9607843137255,209.45454545454547)" d="M3.536,0A3.536,3.536,0,1,1,-3.536,0A3.536,3.536,0,1,1,3.536,0" fill="#4e79a7" stroke-width="2" opacity="0.55"/><path aria-label="date: Oct 08, 2025; count: 26; Date: Oct 08, 2025; Daily unique: 26; 7d avg: 25.8571428571" role="graphics-symbol" aria-roledescription="point" transform="translate(1148.235294117647,253.09090909090912)" d="M3.536,0A3.536,3.536,0,1,1,-3.536,0A3.536,3.536,0,1,1,3.536,0" fill="#4e79a7" stroke-width="2" opacity="0.55"/><path aria-label="date: Oct 09, 2025; count: 15; Date: Oct 09, 2025; Daily unique: 15; 7d avg: 22.8571428571" role="graphics-symbol" aria-roledescription="point" transform="translate(1186.5098039215686,349.0909090909091)" d="M3.536,0A3.536,3.536,0,1,1,-3.536,0A3.536,3.536,0,1,1,3.536,0" fill="#4e79a7" stroke-width="2" opacity="0.55"/><path aria-label="date: Oct 10, 2025; count: 19; Date: Oct 10, 2025; Daily unique: 19; 7d avg: 21.8571428571" role="graphics-symbol" aria-roledescription="point" transform="translate(1224.7843137254902,314.1818181818182)" d="M3.536,0A3.536,3.536,0,1,1,-3.536,0A3.536,3.536,0,1,1,3.536,0" fill="#4e79a7" stroke-width="2" opacity="0.55"/><path aria-label="date: Oct 11, 2025; count: 9; Date: Oct 11, 2025; Daily unique: 9; 7d avg: 19.4285714286" role="graphics-symbol" aria-roledescription="point" transform="translate(1263.058823529412,401.4545454545455)" d="M3.536,0A3.536,3.536,0,1,1,-3.536,0A3.536,3.536,0,1,1,3.536,0" fill="#4e79a7" stroke-width="2" opacity="0.55"/><path aria-label="date: Oct 12, 2025; count: 15; Date: Oct 12, 2025; Daily unique: 15; 7d avg: 19.2857142857" role="graphics-symbol" aria-roledescription="point" transform="translate(1301.3333333333333,349.0909090909091)" d="M3.536,0A3.536,3.536,0,1,1,-3.536,0A3.536,3.536,0,1,1,3.536,0" fill="#4e79a7" stroke-width="2" opacity="0.55"/><path aria-label="date: Oct 13, 2025; count: 15; Date: Oct 13, 2025; Daily unique: 15; 7d avg: 18.5714285714" role="graphics-symbol" aria-roledescription="point" transform="translate(1339.6078431372548,349.0909090909091)" d="M3.536,0A3.536,3.536,0,1,1,-3.536,0A3.536,3.536,0,1,1,3.536,0" fill="#4e79a7" stroke-width="2" opacity="0.55"/><path aria-label="date: Oct 14, 2025; count: 13; Date: Oct 14, 2025; Daily unique: 13; 7d avg: 16" role="graphics-symbol" aria-roledescription="point" transform="translate(1377.8823529411766,366.54545454545456)" d="M3.536,0A3.536,3.536,0,1,1,-3.536,0A3.536,3.536,0,1,1,3.536,0" fill="#4e79a7" stroke-width="2" opacity="0.55"/><path aria-label="date: Oct 15, 2025; count: 19; Date: Oct 15, 2025; Daily unique: 19; 7d avg: 15" role="graphics-symbol" aria-roledescription="point" transform="translate(1416.156862745098,314.1818181818182)" d="M3.536,0A3.536,3.536,0,1,1,-3.536,0A3.536,3.536,0,1,1,3.536,0" fill="#4e79a7" stroke-width="2" opacity="0.55"/><path aria-label="date: Oct 16, 2025; count: 16; Date: Oct 16, 2025; Daily unique: 16; 7d avg: 15.1428571429" role="graphics-symbol" aria-roledescription="point" transform="translate(1454.4313725490197,340.3636363636364)" d="M3.536,0A3.536,3.536,0,1,1,-3.536,0A3.536,3.536,0,1,1,3.536,0" fill="#4e79a7" stroke-width="2" opacity="0.55"/><path aria-label="date: Oct 17, 2025; count: 12; Date: Oct 17, 2025; Daily unique: 12; 7d avg: 14.1428571429" role="graphics-symbol" aria-roledescription="point" transform="translate(1492.705882352941,375.2727272727273)" d="M3.536,0A3.536,3.536,0,1,1,-3.536,0A3.536,3.536,0,1,1,3.536,0" fill="#4e79a7" stroke-width="2" opacity="0.55"/><path aria-label="date: Oct 18, 2025; count: 3; Date: Oct 18, 2025; Daily unique: 3; 7d avg: 13.2857142857" role="graphics-symbol" aria-roledescription="point" transform="translate(1530.9803921568628,453.8181818181818)" d="M3.536,0A3.536,3.536,0,1,1,-3.536,0A3.536,3.536,0,1,1,3.536,0" fill="#4e79a7" stroke-width="2" opacity="0.55"/><path aria-label="date: Oct 19, 2025; count: 6; Date: Oct 19, 2025; Daily unique: 6; 7d avg: 12" role="graphics-symbol" aria-roledescription="point" transform="translate(1569.2549019607843,427.6363636363636)" d="M3.536,0A3.536,3.536,0,1,1,-3.536,0A3.536,3.536,0,1,1,3.536,0" fill="#4e79a7" stroke-width="2" opacity="0.55"/><path aria-label="date: Oct 20, 2025; count: 13; Date: Oct 20, 2025; Daily unique: 13; 7d avg: 11.7142857143" role="graphics-symbol" aria-roledescription="point" transform="translate(1607.5294117647059,366.54545454545456)" d="M3.536,0A3.536,3.536,0,1,1,-3.536,0A3.536,3.536,0,1,1,3.536,0" fill="#4e79a7" stroke-width="2" opacity="0.55"/><path aria-label="date: Oct 21, 2025; count: 10; Date: Oct 21, 2025; Daily unique: 10; 7d avg: 11.2857142857" role="graphics-symbol" aria-roledescription="point" transform="translate(1645.8039215686274,392.7272727272727)" d="M3.536,0A3.536,3.536,0,1,1,-3.536,0A3.536,3.536,0,1,1,3.536,0" fill="#4e79a7" stroke-width="2" opacity="0.55"/><path aria-label="date: Oct 22, 2025; count: 17; Date: Oct 22, 2025; Daily unique: 17; 7d avg: 11" role="graphics-symbol" aria-roledescription="point" transform="translate(1684.0784313725492,331.6363636363636)" d="M3.536,0A3.536,3.536,0,1,1,-3.536,0A3.536,3.536,0,1,1,3.536,0" fill="#4e79a7" stroke-width="2" opacity="0.55"/><path aria-label="date: Oct 23, 2025; count: 12; Date: Oct 23, 2025; Daily unique: 12; 7d avg: 10.4285714286" role="graphics-symbol" aria-roledescription="point" transform="translate(1722.3529411764705,375.2727272727273)" d="M3.536,0A3.536,3.536,0,1,1,-3.536,0A3.536,3.536,0,1,1,3.536,0" fill="#4e79a7" stroke-width="2" opacity="0.55"/><path aria-label="date: Oct 24, 2025; count: 13; Date: Oct 24, 2025; Daily unique: 13; 7d avg: 10.5714285714" role="graphics-symbol" aria-roledescription="point" transform="translate(1760.6274509803923,366.54545454545456)" d="M3.536,0A3.536,3.536,0,1,1,-3.536,0A3.536,3.536,0,1,1,3.536,0" fill="#4e79a7" stroke-width="2" opacity="0.55"/><path aria-label="date: Oct 25, 2025; count: 15; Date: Oct 25, 2025; Daily unique: 15; 7d avg: 12.2857142857" role="graphics-symbol" aria-roledescription="point" transform="translate(1798.9019607843136,349.0909090909091)" d="M3.536,0A3.536,3.536,0,1,1,-3.536,0A3.536,3.536,0,1,1,3.536,0" fill="#4e79a7" stroke-width="2" opacity="0.55"/><path aria-label="date: Oct 26, 2025; count: 10; Date: Oct 26, 2025; Daily unique: 10; 7d avg: 12.8571428571" role="graphics-symbol" aria-roledescription="point" transform="translate(1837.1764705882354,392.7272727272727)" d="M3.536,0A3.536,3.536,0,1,1,-3.536,0A3.536,3.536,0,1,1,3.536,0" fill="#4e79a7" stroke-width="2" opacity="0.55"/><path aria-label="date: Oct 27, 2025; count: 15; Date: Oct 27, 2025; Daily unique: 15; 7d avg: 13.1428571429" role="graphics-symbol" aria-roledescription="point" transform="translate(1875.450980392157,349.0909090909091)" d="M3.536,0A3.536,3.536,0,1,1,-3.536,0A3.536,3.536,0,1,1,3.536,0" fill="#4e79a7" stroke-width="2" opacity="0.55"/><path aria-label="date: Oct 28, 2025; count: 28; Date: Oct 28, 2025; Daily unique: 28; 7d avg: 15.7142857143" role="graphics-symbol" aria-roledescription="point" transform="translate(1913.7254901960785,235.63636363636365)" d="M3.536,0A3.536,3.536,0,1,1,-3.536,0A3.536,3.536,0,1,1,3.536,0" fill="#4e79a7" stroke-width="2" opacity="0.55"/><path aria-label="date: Oct 29, 2025; count: 8; Date: Oct 29, 2025; Daily unique: 8; 7d avg: 14.4285714286" role="graphics-symbol" aria-roledescription="point" transform="translate(1952,410.18181818181813)" d="M3.536,0A3.536,3.536,0,1,1,-3.536,0A3.536,3.536,0,1,1,3.536,0" fill="#4e79a7" stroke-width="2" opacity="0.55"/></g><g class="mark-path role-mark layer_3_voronoi" aria-hidden="true"><path transform="translate(0,0)" d="M0,296.96377716862145L22.538818874267918,305.43635277906054L25.076937091602787,306.87263979051465L148.7512873861848,449.60653908130337L168.38700319580474,480L0,480Z" stroke-width="0.35"/><path transform="translate(0,0)" d="M72.33657164261177,0L0,105.7469271725327L0,0Z" stroke-width="0.35"/><path transform="translate(0,0)" d="M244.6236483483788,0L219.54839857983654,64.14948157017584L0,128.3398848150867L0,105.7469271725327L72.33657164261177,0Z" stroke-width="0.35"/><path transform="translate(0,0)" d="M222.11076605746547,86.62462637395363L22.538818874267918,305.43635277906054L0,296.96377716862145L0,128.3398848150867L219.54839857983654,64.14948157017584Z" stroke-width="0.35"/><path transform="translate(0,0)" d="M246.37088378440177,163.86996932325656L205.33832028015578,240.9927987668114L25.076937091602787,306.87263979051465L22.538818874267918,305.43635277906054L222.11076605746547,86.62462637395363L246.55886951744344,163.21042199321232Z" stroke-width="0.35"/><path transform="translate(0,0)" d="M205.33832028015578,240.9927987668114L226.7540393266702,278.5612889111544L148.7512873861848,449.60653908130337L25.076937091602787,306.87263979051465Z" stroke-width="0.35"/><path transform="translate(0,0)" d="M359.9594110035525,373.3348273028329L349.5358823111957,480L168.38700319580474,480L148.7512873861848,449.60653908130337L226.7540393266702,278.5612889111544L327.44230310468595,341.64422541446766Z" stroke-width="0.35"/><path transform="translate(0,0)" d="M246.37088378440177,163.86996932325656L327.44230310468595,341.64422541446766L226.7540393266702,278.5612889111544L205.33832028015578,240.9927987668114Z" stroke-width="0.35"/><path transform="translate(0,0)" d="M364.27738127064697,365.4444186720583L359.9594110035525,373.3348273028329L327.44230310468595,341.64422541446766L246.37088378440177,163.86996932325656L246.55886951744344,163.21042199321232L360.948877673275,205.01635634646016L370.41467891858,329.55660410331694Z" stroke-width="0.35"/><path transform="translate(0,0)" d="M303.90861539033716,0L387.6821990395761,183.69959028967102L360.948877673275,205.01635634646016L246.55886951744344,163.21042199321232L222.11076605746547,86.62462637395363L219.54839857983654,64.14948157017584L244.6236483483788,0Z" stroke-width="0.35"/><path transform="translate(0,0)" d="M554.8976028954991,127.28856163842701L387.6821990395761,183.69959028967102L303.90861539033716,0L601.6670658705773,0L598.235233436924,55.18595902569683L568.5711799669896,120.23360568689287Z" stroke-width="0.35"/><path transform="translate(0,0)" d="M554.8976028954991,127.28856163842701L370.41467891858,329.55660410331694L360.948877673275,205.01635634646016L387.6821990395761,183.69959028967102Z" stroke-width="0.35"/><path transform="translate(0,0)" d="M566.1112501361472,208.23096012023336L537.9261112926406,261.20638915102586L505.71452404291887,296.5233418382208L364.27738127064697,365.4444186720583L370.41467891858,329.55660410331694L554.8976028954991,127.28856163842701L568.5711799669896,120.23360568689287L571.3349325640024,192.9582328475062Z" stroke-width="0.35"/><path transform="translate(0,0)" d="M505.71452404291887,296.5233418382208L547.5504833555153,480L349.5358823111957,480L359.9594110035525,373.3348273028329L364.27738127064697,365.4444186720583Z" stroke-width="0.35"/><path transform="translate(0,0)" d="M537.9261112926406,261.20638915102586L573.0645350675157,415.3101953793994L548.480481150596,480L547.5504833555153,480L505.71452404291887,296.5233418382208Z" stroke-width="0.35"/><path transform="translate(0,0)" d="M566.1112501361472,208.23096012023336L603.2628981141298,371.1640045204059L573.0645350675157,415.3101953793994L537.9261112926406,261.20638915102586Z" stroke-width="0.35"/><path transform="translate(0,0)" d="M566.1112501361472,208.23096012023336L571.3349325640024,192.9582328475062L676.7904945837794,325.0976952476376L603.2628981141298,371.1640045204059Z" stroke-width="0.35"/><path transform="translate(0,0)" d="M706.3426196744334,363.296478821277L653.1216398224376,480L548.480481150596,480L573.0645350675157,415.3101953793994L603.2628981141298,371.1640045204059L676.7904945837794,325.0976952476376L699.2358538279464,332.1288978866834Z" stroke-width="0.35"/><path transform="translate(0,0)" d="M768.2291185724166,277.1146606394588L699.2358538279464,332.1288978866834L676.7904945837794,325.0976952476376L571.3349325640024,192.9582328475062L568.5711799669896,120.23360568689287L598.235233436924,55.18595902569683L761.8001354367965,220.72449483552242Z" stroke-width="0.35"/><path transform="translate(0,0)" d="M653.1216398224376,480L706.3426196744334,363.296478821277L805.5021839736489,425.4216586950151L811.7246029152753,480Z" stroke-width="0.35"/><path transform="translate(0,0)" d="M842.7542544995238,327.39758291908566L805.5021839736489,425.4216586950151L706.3426196744334,363.296478821277L699.2358538279464,332.1288978866834L768.2291185724166,277.1146606394588Z" stroke-width="0.35"/><path transform="translate(0,0)" d="M885.0561616870023,0L857.2907147186552,182.6530874094218L761.8001354367965,220.72449483552242L598.235233436924,55.18595902569683L601.6670658705773,0Z" stroke-width="0.35"/><path transform="translate(0,0)" d="M901.2190607996209,225.46488148397228L894.4284982845086,314.807380457312L842.7542544995238,327.39758291908566L768.2291185724166,277.1146606394588L761.8001354367965,220.72449483552242L857.2907147186552,182.6530874094218Z" stroke-width="0.35"/><path transform="translate(0,0)" d="M944.8591979426263,340.8273723608852L1000.3934319968334,480L811.7246029152753,480L805.5021839736489,425.4216586950151L842.7542544995238,327.39758291908566L894.4284982845086,314.807380457312Z" stroke-width="0.35"/><path transform="translate(0,0)" d="M976,192.66879638367536L901.2190607996209,225.46488148397228L857.2907147186552,182.6530874094218L885.0561616870023,0L1057.0589563558792,0L1022.4087814234216,151.96253189332782Z" stroke-width="0.35"/><path transform="translate(0,0)" d="M976,192.66879638367536L976,313.51302179814303L944.8591979426263,340.8273723608852L894.4284982845086,314.807380457312L901.2190607996209,225.46488148397228Z" stroke-width="0.35"/><path transform="translate(0,0)" d="M976,192.66879638367536L1022.4087814234216,151.96253189332782L1057.4409197360017,244.14513898250917L1024.5565231647463,292.2179714428849L976,313.51302179814303Z" stroke-width="0.35"/><path transform="translate(0,0)" d="M1024.5565231647463,292.2179714428849L1107.7541947770446,383.4363336191139L1102.249634063082,480L1000.3934319968334,480L944.8591979426263,340.8273723608852L976,313.51302179814303Z" stroke-width="0.35"/><path transform="translate(0,0)" d="M1024.5565231647463,292.2179714428849L1057.4409197360017,244.14513898250917L1096.6156453639578,259.76382044202114L1133.989939343845,314.4003155629453L1107.7541947770446,383.4363336191139Z" stroke-width="0.35"/><path transform="translate(0,0)" d="M1022.4087814234216,151.96253189332782L1057.0589563558792,0L1352.6076651497883,0L1335.3953951720234,50.32432747311674L1096.6156453639578,259.76382044202114L1057.4409197360017,244.14513898250917Z" stroke-width="0.35"/><path transform="translate(0,0)" d="M1096.6156453639578,259.76382044202114L1335.3953951720234,50.32432747311674L1320.4705882352941,115.77887292766198L1175.0101204913162,298.04586425578356L1133.989939343845,314.4003155629453Z" stroke-width="0.35"/><path transform="translate(0,0)" d="M1133.989939343845,314.4003155629453L1175.0101204913162,298.04586425578356L1233.6395552666263,362.32748310256966L1153.145240429189,480L1102.249634063082,480L1107.7541947770446,383.4363336191139Z" stroke-width="0.35"/><path transform="translate(0,0)" d="M1175.0101204913162,298.04586425578356L1320.4705882352941,115.77887292766198L1320.470588235294,205.74324560483754L1252.9183303181724,353.8725431943426L1233.6395552666263,362.32748310256966Z" stroke-width="0.35"/><path transform="translate(0,0)" d="M1153.145240429189,480L1233.6395552666263,362.32748310256966L1252.9183303181724,353.8725431943426L1320.4705882352941,403.2489757241773L1331.0044539371095,418.6481563035197L1349.6568773560095,480Z" stroke-width="0.35"/><path transform="translate(0,0)" d="M1252.9183303181724,353.8725431943426L1320.470588235294,205.74324560483754L1320.4705882352941,403.2489757241773Z" stroke-width="0.35"/><path transform="translate(0,0)" d="M1320.4705882352941,403.2489757241773L1320.470588235294,205.74324560483754L1374.2836482648877,323.7450863886851L1331.0044539371095,418.6481563035197Z" stroke-width="0.35"/><path transform="translate(0,0)" d="M1349.6568773560095,480L1331.0044539371095,418.6481563035197L1374.2836482648877,323.7450863886851L1416.5660249377265,354.65083230096684L1432.9000572602827,402.4074148213811L1428.9057383690504,454.9601202334769L1414.631887384408,480Z" stroke-width="0.35"/><path transform="translate(0,0)" d="M1335.3953951720234,50.32432747311674L1352.6076651497883,0L1571.1545177886896,0L1561.8901279034992,142.20535715928074L1416.5660249377265,354.65083230096684L1374.2836482648877,323.7450863886851L1320.470588235294,205.74324560483754L1320.4705882352941,115.77887292766198Z" stroke-width="0.35"/><path transform="translate(0,0)" d="M1416.5660249377265,354.65083230096684L1561.8901279034992,142.20535715928074L1562.838620430498,167.16372914422587L1543.3108112774983,281.35248680577456L1432.9000572602827,402.4074148213811Z" stroke-width="0.35"/><path transform="translate(0,0)" d="M1428.9057383690504,454.9601202334769L1432.9000572602827,402.4074148213811L1543.3108112774983,281.35248680577456L1550.2933945397695,373.2213763936947L1527.1166933647867,407.1027848651839Z" stroke-width="0.35"/><path transform="translate(0,0)" d="M1414.631887384408,480L1428.9057383690504,454.9601202334769L1527.1166933647867,407.1027848651839L1576.9822995449367,480Z" stroke-width="0.35"/><path transform="translate(0,0)" d="M1576.9822995449367,480L1527.1166933647867,407.1027848651839L1550.2933945397695,373.2213763936947L1606.8264218409217,408.64029452541564L1639.3689998963955,480Z" stroke-width="0.35"/><path transform="translate(0,0)" d="M1543.3108112774983,281.35248680577456L1562.838620430498,167.16372914422587L1646.5069114924117,350.6324327473115L1606.8264218409217,408.64029452541564L1550.2933945397695,373.2213763936947Z" stroke-width="0.35"/><path transform="translate(0,0)" d="M1639.3689998963955,480L1606.8264218409217,408.64029452541564L1646.5069114924117,350.6324327473115L1681.4638822697032,372.53357877117963L1705.9681482130854,480Z" stroke-width="0.35"/><path transform="translate(0,0)" d="M1561.8901279034992,142.20535715928074L1571.1545177886896,0L1680.3326612314077,0L1763.1236959761552,198.04914193841537L1749.068849271181,290.5079864387827L1731.7944873473934,328.3873879121862L1681.4638822697032,372.53357877117963L1646.5069114924117,350.6324327473115L1562.838620430498,167.16372914422587Z" stroke-width="0.35"/><path transform="translate(0,0)" d="M1765.1715613219953,480L1705.9681482130854,480L1681.4638822697032,372.53357877117963L1731.7944873473934,328.3873879121862L1765.6488865157228,476.859948970676Z" stroke-width="0.35"/><path transform="translate(0,0)" d="M1765.6488865157228,476.859948970676L1731.7944873473934,328.3873879121862L1749.068849271181,290.5079864387827L1794.9645106653961,391.1484726986458Z" stroke-width="0.35"/><path transform="translate(0,0)" d="M1749.068849271181,290.5079864387827L1763.1236959761552,198.04914193841537L1837.1764705882351,272.9954643587862L1837.1764705882354,354.1233418382206L1794.9645106653961,391.1484726986458Z" stroke-width="0.35"/><path transform="translate(0,0)" d="M1765.1715613219953,480L1765.6488865157228,476.859948970676L1794.9645106653961,391.1484726986458L1837.1764705882354,354.1233418382206L1894.1823576135428,404.12458392185647L1882.648389744734,480Z" stroke-width="0.35"/><path transform="translate(0,0)" d="M1837.1764705882354,354.1233418382206L1837.1764705882351,272.9954643587862L1952,311.73180836848655L1952,331.6770805767345L1894.1823576135428,404.12458392185647Z" stroke-width="0.35"/><path transform="translate(0,0)" d="M1952,311.73180836848655L1837.1764705882351,272.9954643587862L1763.1236959761552,198.04914193841537L1680.3326612314077,0L1952,0Z" stroke-width="0.35"/><path transform="translate(0,0)" d="M1952,480L1882.648389744734,480L1894.1823576135428,404.12458392185647L1952,331.6770805767345Z" stroke-width="0.35"/></g><g class="mark-symbol role-mark layer_4_marks" role="graphics-object" aria-roledescription="symbol mark container"><path aria-label="date: Sep 08, 2025; count: 1; Peak date: Sep 08, 2025; Peak unique count: 1" role="graphics-symbol" aria-roledescription="point" transform="translate(0,471.27272727272725)" d="M-5.916,0L0,-5.916L5.916,0L0,5.916Z" fill="#ff9900" stroke="#b36b00" stroke-width="1.5" opacity="0"/><path aria-label="date: Sep 09, 2025; count: 54; Peak date: Sep 09, 2025; Peak unique count: 54" role="graphics-symbol" aria-roledescription="point" transform="translate(38.27450980392157,8.72727272727273)" d="M-5.916,0L0,-5.916L5.916,0L0,5.916Z" fill="#ff9900" stroke="#b36b00" stroke-width="1.5" opacity="1"/><path aria-label="date: Sep 10, 2025; count: 51; Peak date: Sep 10, 2025; Peak unique count: 51" role="graphics-symbol" aria-roledescription="point" transform="translate(76.54901960784314,34.90909090909092)" d="M-5.916,0L0,-5.916L5.916,0L0,5.916Z" fill="#ff9900" stroke="#b36b00" stroke-width="1.5" opacity="0"/><path aria-label="date: Sep 11, 2025; count: 36; Peak date: Sep 11, 2025; Peak unique count: 36" role="graphics-symbol" aria-roledescription="point" transform="translate(114.82352941176471,165.8181818181818)" d="M-5.916,0L0,-5.916L5.916,0L0,5.916Z" fill="#ff9900" stroke="#b36b00" stroke-width="1.5" opacity="0"/><path aria-label="date: Sep 12, 2025; count: 32; Peak date: Sep 12, 2025; Peak unique count: 32" role="graphics-symbol" aria-roledescription="point" transform="translate(153.09803921568627,200.72727272727275)" d="M-5.916,0L0,-5.916L5.916,0L0,5.916Z" fill="#ff9900" stroke="#b36b00" stroke-width="1.5" opacity="0"/><path aria-label="date: Sep 13, 2025; count: 20; Peak date: Sep 13, 2025; Peak unique count: 20" role="graphics-symbol" aria-roledescription="point" transform="translate(191.37254901960785,305.45454545454544)" d="M-5.916,0L0,-5.916L5.916,0L0,5.916Z" fill="#ff9900" stroke="#b36b00" stroke-width="1.5" opacity="0"/><path aria-label="date: Sep 14, 2025; count: 18; Peak date: Sep 14, 2025; Peak unique count: 18" role="graphics-symbol" aria-roledescription="point" transform="translate(229.64705882352942,322.90909090909093)" d="M-5.916,0L0,-5.916L5.916,0L0,5.916Z" fill="#ff9900" stroke="#b36b00" stroke-width="1.5" opacity="0"/><path aria-label="date: Sep 15, 2025; count: 25; Peak date: Sep 15, 2025; Peak unique count: 25" role="graphics-symbol" aria-roledescription="point" transform="translate(267.921568627451,261.8181818181818)" d="M-5.916,0L0,-5.916L5.916,0L0,5.916Z" fill="#ff9900" stroke="#b36b00" stroke-width="1.5" opacity="0"/><path aria-label="date: Sep 16, 2025; count: 27; Peak date: Sep 16, 2025; Peak unique count: 27" role="graphics-symbol" aria-roledescription="point" transform="translate(306.19607843137254,244.36363636363635)" d="M-5.916,0L0,-5.916L5.916,0L0,5.916Z" fill="#ff9900" stroke="#b36b00" stroke-width="1.5" opacity="0"/><path aria-label="date: Sep 17, 2025; count: 39; Peak date: Sep 17, 2025; Peak unique count: 39" role="graphics-symbol" aria-roledescription="point" transform="translate(344.47058823529414,139.63636363636363)" d="M-5.916,0L0,-5.916L5.916,0L0,5.916Z" fill="#ff9900" stroke="#b36b00" stroke-width="1.5" opacity="0"/><path aria-label="date: Sep 18, 2025; count: 41; Peak date: Sep 18, 2025; Peak unique count: 41" role="graphics-symbol" aria-roledescription="point" transform="translate(382.7450980392157,122.18181818181817)" d="M-5.916,0L0,-5.916L5.916,0L0,5.916Z" fill="#ff9900" stroke="#b36b00" stroke-width="1.5" opacity="0"/><path aria-label="date: Sep 19, 2025; count: 28; Peak date: Sep 19, 2025; Peak unique count: 28" role="graphics-symbol" aria-roledescription="point" transform="translate(421.0196078431373,235.63636363636365)" d="M-5.916,0L0,-5.916L5.916,0L0,5.916Z" fill="#ff9900" stroke="#b36b00" stroke-width="1.5" opacity="0"/><path aria-label="date: Sep 20, 2025; count: 24; Peak date: Sep 20, 2025; Peak unique count: 24" role="graphics-symbol" aria-roledescription="point" transform="translate(459.29411764705884,270.54545454545456)" d="M-5.916,0L0,-5.916L5.916,0L0,5.916Z" fill="#ff9900" stroke="#b36b00" stroke-width="1.5" opacity="0"/><path aria-label="date: Sep 21, 2025; count: 15; Peak date: Sep 21, 2025; Peak unique count: 15" role="graphics-symbol" aria-roledescription="point" transform="translate(497.56862745098033,349.0909090909091)" d="M-5.916,0L0,-5.916L5.916,0L0,5.916Z" fill="#ff9900" stroke="#b36b00" stroke-width="1.5" opacity="0"/><path aria-label="date: Sep 22, 2025; count: 16; Peak date: Sep 22, 2025; Peak unique count: 16" role="graphics-symbol" aria-roledescription="point" transform="translate(535.843137254902,340.3636363636364)" d="M-5.916,0L0,-5.916L5.916,0L0,5.916Z" fill="#ff9900" stroke="#b36b00" stroke-width="1.5" opacity="0"/><path aria-label="date: Sep 23, 2025; count: 17; Peak date: Sep 23, 2025; Peak unique count: 17" role="graphics-symbol" aria-roledescription="point" transform="translate(574.1176470588235,331.6363636363636)" d="M-5.916,0L0,-5.916L5.916,0L0,5.916Z" fill="#ff9900" stroke="#b36b00" stroke-width="1.5" opacity="0"/><path aria-label="date: Sep 24, 2025; count: 18; Peak date: Sep 24, 2025; Peak unique count: 18" role="graphics-symbol" aria-roledescription="point" transform="translate(612.3921568627451,322.90909090909093)" d="M-5.916,0L0,-5.916L5.916,0L0,5.916Z" fill="#ff9900" stroke="#b36b00" stroke-width="1.5" opacity="0"/><path aria-label="date: Sep 25, 2025; count: 11; Peak date: Sep 25, 2025; Peak unique count: 11" role="graphics-symbol" aria-roledescription="point" transform="translate(650.6666666666666,384)" d="M-5.916,0L0,-5.916L5.916,0L0,5.916Z" fill="#ff9900" stroke="#b36b00" stroke-width="1.5" opacity="0"/><path aria-label="date: Sep 26, 2025; count: 25; Peak date: Sep 26, 2025; Peak unique count: 25" role="graphics-symbol" aria-roledescription="point" transform="translate(688.9411764705883,261.8181818181818)" d="M-5.916,0L0,-5.916L5.916,0L0,5.916Z" fill="#ff9900" stroke="#b36b00" stroke-width="1.5" opacity="0"/><path aria-label="date: Sep 27, 2025; count: 7; Peak date: Sep 27, 2025; Peak unique count: 7" role="graphics-symbol" aria-roledescription="point" transform="translate(727.2156862745098,418.90909090909093)" d="M-5.916,0L0,-5.916L5.916,0L0,5.916Z" fill="#ff9900" stroke="#b36b00" stroke-width="1.5" opacity="0"/><path aria-label="date: Sep 28, 2025; count: 14; Peak date: Sep 28, 2025; Peak unique count: 14" role="graphics-symbol" aria-roledescription="point" transform="translate(765.4901960784314,357.8181818181818)" d="M-5.916,0L0,-5.916L5.916,0L0,5.916Z" fill="#ff9900" stroke="#b36b00" stroke-width="1.5" opacity="0"/><path aria-label="date: Sep 29, 2025; count: 38; Peak date: Sep 29, 2025; Peak unique count: 38" role="graphics-symbol" aria-roledescription="point" transform="translate(803.7647058823529,148.36363636363637)" d="M-5.916,0L0,-5.916L5.916,0L0,5.916Z" fill="#ff9900" stroke="#b36b00" stroke-width="1.5" opacity="0"/><path aria-label="date: Sep 30, 2025; count: 27; Peak date: Sep 30, 2025; Peak unique count: 27" role="graphics-symbol" aria-roledescription="point" transform="translate(842.0392156862746,244.36363636363635)" d="M-5.916,0L0,-5.916L5.916,0L0,5.916Z" fill="#ff9900" stroke="#b36b00" stroke-width="1.5" opacity="0"/><path aria-label="date: Oct 01, 2025; count: 9; Peak date: Oct 01, 2025; Peak unique count: 9" role="graphics-symbol" aria-roledescription="point" transform="translate(880.3137254901961,401.4545454545455)" d="M-5.916,0L0,-5.916L5.916,0L0,5.916Z" fill="#ff9900" stroke="#b36b00" stroke-width="1.5" opacity="0"/><path aria-label="date: Oct 02, 2025; count: 36; Peak date: Oct 02, 2025; Peak unique count: 36" role="graphics-symbol" aria-roledescription="point" transform="translate(918.5882352941177,165.8181818181818)" d="M-5.916,0L0,-5.916L5.916,0L0,5.916Z" fill="#ff9900" stroke="#b36b00" stroke-width="1.5" opacity="0"/><path aria-label="date: Oct 03, 2025; count: 26; Peak date: Oct 03, 2025; Peak unique count: 26" role="graphics-symbol" aria-roledescription="point" transform="translate(956.8627450980392,253.09090909090912)" d="M-5.916,0L0,-5.916L5.916,0L0,5.916Z" fill="#ff9900" stroke="#b36b00" stroke-width="1.5" opacity="0"/><path aria-label="date: Oct 04, 2025; count: 26; Peak date: Oct 04, 2025; Peak unique count: 26" role="graphics-symbol" aria-roledescription="point" transform="translate(995.1372549019607,253.09090909090912)" d="M-5.916,0L0,-5.916L5.916,0L0,5.916Z" fill="#ff9900" stroke="#b36b00" stroke-width="1.5" opacity="0"/><path aria-label="date: Oct 05, 2025; count: 16; Peak date: Oct 05, 2025; Peak unique count: 16" role="graphics-symbol" aria-roledescription="point" transform="translate(1033.4117647058824,340.3636363636364)" d="M-5.916,0L0,-5.916L5.916,0L0,5.916Z" fill="#ff9900" stroke="#b36b00" stroke-width="1.5" opacity="0"/><path aria-label="date: Oct 06, 2025; count: 20; Peak date: Oct 06, 2025; Peak unique count: 20" role="graphics-symbol" aria-roledescription="point" transform="translate(1071.686274509804,305.45454545454544)" d="M-5.916,0L0,-5.916L5.916,0L0,5.916Z" fill="#ff9900" stroke="#b36b00" stroke-width="1.5" opacity="0"/><path aria-label="date: Oct 07, 2025; count: 31; Peak date: Oct 07, 2025; Peak unique count: 31" role="graphics-symbol" aria-roledescription="point" transform="translate(1109.9607843137255,209.45454545454547)" d="M-5.916,0L0,-5.916L5.916,0L0,5.916Z" fill="#ff9900" stroke="#b36b00" stroke-width="1.5" opacity="0"/><path aria-label="date: Oct 08, 2025; count: 26; Peak date: Oct 08, 2025; Peak unique count: 26" role="graphics-symbol" aria-roledescription="point" transform="translate(1148.235294117647,253.09090909090912)" d="M-5.916,0L0,-5.916L5.916,0L0,5.916Z" fill="#ff9900" stroke="#b36b00" stroke-width="1.5" opacity="0"/><path aria-label="date: Oct 09, 2025; count: 15; Peak date: Oct 09, 2025; Peak unique count: 15" role="graphics-symbol" aria-roledescription="point" transform="translate(1186.5098039215686,349.0909090909091)" d="M-5.916,0L0,-5.916L5.916,0L0,5.916Z" fill="#ff9900" stroke="#b36b00" stroke-width="1.5" opacity="0"/><path aria-label="date: Oct 10, 2025; count: 19; Peak date: Oct 10, 2025; Peak unique count: 19" role="graphics-symbol" aria-roledescription="point" transform="translate(1224.7843137254902,314.1818181818182)" d="M-5.916,0L0,-5.916L5.916,0L0,5.916Z" fill="#ff9900" stroke="#b36b00" stroke-width="1.5" opacity="0"/><path aria-label="date: Oct 11, 2025; count: 9; Peak date: Oct 11, 2025; Peak unique count: 9" role="graphics-symbol" aria-roledescription="point" transform="translate(1263.058823529412,401.4545454545455)" d="M-5.916,0L0,-5.916L5.916,0L0,5.916Z" fill="#ff9900" stroke="#b36b00" stroke-width="1.5" opacity="0"/><path aria-label="date: Oct 12, 2025; count: 15; Peak date: Oct 12, 2025; Peak unique count: 15" role="graphics-symbol" aria-roledescription="point" transform="translate(1301.3333333333333,349.0909090909091)" d="M-5.916,0L0,-5.916L5.916,0L0,5.916Z" fill="#ff9900" stroke="#b36b00" stroke-width="1.5" opacity="0"/><path aria-label="date: Oct 13, 2025; count: 15; Peak date: Oct 13, 2025; Peak unique count: 15" role="graphics-symbol" aria-roledescription="point" transform="translate(1339.6078431372548,349.0909090909091)" d="M-5.916,0L0,-5.916L5.916,0L0,5.916Z" fill="#ff9900" stroke="#b36b00" stroke-width="1.5" opacity="0"/><path aria-label="date: Oct 14, 2025; count: 13; Peak date: Oct 14, 2025; Peak unique count: 13" role="graphics-symbol" aria-roledescription="point" transform="translate(1377.8823529411766,366.54545454545456)" d="M-5.916,0L0,-5.916L5.916,0L0,5.916Z" fill="#ff9900" stroke="#b36b00" stroke-width="1.5" opacity="0"/><path aria-label="date: Oct 15, 2025; count: 19; Peak date: Oct 15, 2025; Peak unique count: 19" role="graphics-symbol" aria-roledescription="point" transform="translate(1416.156862745098,314.1818181818182)" d="M-5.916,0L0,-5.916L5.916,0L0,5.916Z" fill="#ff9900" stroke="#b36b00" stroke-width="1.5" opacity="0"/><path aria-label="date: Oct 16, 2025; count: 16; Peak date: Oct 16, 2025; Peak unique count: 16" role="graphics-symbol" aria-roledescription="point" transform="translate(1454.4313725490197,340.3636363636364)" d="M-5.916,0L0,-5.916L5.916,0L0,5.916Z" fill="#ff9900" stroke="#b36b00" stroke-width="1.5" opacity="0"/><path aria-label="date: Oct 17, 2025; count: 12; Peak date: Oct 17, 2025; Peak unique count: 12" role="graphics-symbol" aria-roledescription="point" transform="translate(1492.705882352941,375.2727272727273)" d="M-5.916,0L0,-5.916L5.916,0L0,5.916Z" fill="#ff9900" stroke="#b36b00" stroke-width="1.5" opacity="0"/><path aria-label="date: Oct 18, 2025; count: 3; Peak date: Oct 18, 2025; Peak unique count: 3" role="graphics-symbol" aria-roledescription="point" transform="translate(1530.9803921568628,453.8181818181818)" d="M-5.916,0L0,-5.916L5.916,0L0,5.916Z" fill="#ff9900" stroke="#b36b00" stroke-width="1.5" opacity="0"/><path aria-label="date: Oct 19, 2025; count: 6; Peak date: Oct 19, 2025; Peak unique count: 6" role="graphics-symbol" aria-roledescription="point" transform="translate(1569.2549019607843,427.6363636363636)" d="M-5.916,0L0,-5.916L5.916,0L0,5.916Z" fill="#ff9900" stroke="#b36b00" stroke-width="1.5" opacity="0"/><path aria-label="date: Oct 20, 2025; count: 13; Peak date: Oct 20, 2025; Peak unique count: 13" role="graphics-symbol" aria-roledescription="point" transform="translate(1607.5294117647059,366.54545454545456)" d="M-5.916,0L0,-5.916L5.916,0L0,5.916Z" fill="#ff9900" stroke="#b36b00" stroke-width="1.5" opacity="0"/><path aria-label="date: Oct 21, 2025; count: 10; Peak date: Oct 21, 2025; Peak unique count: 10" role="graphics-symbol" aria-roledescription="point" transform="translate(1645.8039215686274,392.7272727272727)" d="M-5.916,0L0,-5.916L5.916,0L0,5.916Z" fill="#ff9900" stroke="#b36b00" stroke-width="1.5" opacity="0"/><path aria-label="date: Oct 22, 2025; count: 17; Peak date: Oct 22, 2025; Peak unique count: 17" role="graphics-symbol" aria-roledescription="point" transform="translate(1684.0784313725492,331.6363636363636)" d="M-5.916,0L0,-5.916L5.916,0L0,5.916Z" fill="#ff9900" stroke="#b36b00" stroke-width="1.5" opacity="0"/><path aria-label="date: Oct 23, 2025; count: 12; Peak date: Oct 23, 2025; Peak unique count: 12" role="graphics-symbol" aria-roledescription="point" transform="translate(1722.3529411764705,375.2727272727273)" d="M-5.916,0L0,-5.916L5.916,0L0,5.916Z" fill="#ff9900" stroke="#b36b00" stroke-width="1.5" opacity="0"/><path aria-label="date: Oct 24, 2025; count: 13; Peak date: Oct 24, 2025; Peak unique count: 13" role="graphics-symbol" aria-roledescription="point" transform="translate(1760.6274509803923,366.54545454545456)" d="M-5.916,0L0,-5.916L5.916,0L0,5.916Z" fill="#ff9900" stroke="#b36b00" stroke-width="1.5" opacity="0"/><path aria-label="date: Oct 25, 2025; count: 15; Peak date: Oct 25, 2025; Peak unique count: 15" role="graphics-symbol" aria-roledescription="point" transform="translate(1798.9019607843136,349.0909090909091)" d="M-5.916,0L0,-5.916L5.916,0L0,5.916Z" fill="#ff9900" stroke="#b36b00" stroke-width="1.5" opacity="0"/><path aria-label="date: Oct 26, 2025; count: 10; Peak date: Oct 26, 2025; Peak unique count: 10" role="graphics-symbol" aria-roledescription="point" transform="translate(1837.1764705882354,392.7272727272727)" d="M-5.916,0L0,-5.916L5.916,0L0,5.916Z" fill="#ff9900" stroke="#b36b00" stroke-width="1.5" opacity="0"/><path aria-label="date: Oct 27, 2025; count: 15; Peak date: Oct 27, 2025; Peak unique count: 15" role="graphics-symbol" aria-roledescription="point" transform="translate(1875.450980392157,349.0909090909091)" d="M-5.916,0L0,-5.916L5.916,0L0,5.916Z" fill="#ff9900" stroke="#b36b00" stroke-width="1.5" opacity="0"/><path aria-label="date: Oct 28, 2025; count: 28; Peak date: Oct 28, 2025; Peak unique count: 28" role="graphics-symbol" aria-roledescription="point" transform="translate(1913.7254901960785,235.63636363636365)" d="M-5.916,0L0,-5.916L5.916,0L0,5.916Z" fill="#ff9900" stroke="#b36b00" stroke-width="1.5" opacity="0"/><path aria-label="date: Oct 29, 2025; count: 8; Peak date: Oct 29, 2025; Peak unique count: 8" role="graphics-symbol" aria-roledescription="point" transform="translate(1952,410.18181818181813)" d="M-5.916,0L0,-5.916L5.916,0L0,5.916Z" fill="#ff9900" stroke="#b36b00" stroke-width="1.5" opacity="0"/></g><g class="mark-rule role-mark layer_5_marks" role="graphics-symbol" aria-roledescription="rule mark container" pointer-events="none"><line transform="translate(1952,302.5745454545455)" x2="-1952" y2="0" stroke="#d62728" stroke-width="1.5" stroke-dasharray="4,4"/><line transform="translate(1952,302.5745454545455)" x2="-1952" y2="0" stroke="#d62728" stroke-width="1.5" stroke-dasharray="4,4"/><line transform="translate(1952,302.5745454545455)" x2="-1952" y2="0" stroke="#d62728" stroke-width="1.5" stroke-dasharray="4,4"/><line transform="translate(1952,302.5745454545455)" x2="-1952" y2="0" stroke="#d62728" stroke-width="1.5" stroke-dasharray="4,4"/><line transform="translate(1952,302.5745454545455)" x2="-1952" y2="0" stroke="#d62728" stroke-width="1.5" stroke-dasharray="4,4"/><line transform="translate(1952,302.5745454545455)" x2="-1952" y2="0" stroke="#d62728" stroke-width="1.5" stroke-dasharray="4,4"/><line transform="translate(1952,302.5745454545455)" x2="-1952" y2="0" stroke="#d62728" stroke-width="1.5" stroke-dasharray="4,4"/><line transform="translate(1952,302.5745454545455)" x2="-1952" y2="0" stroke="#d62728" stroke-width="1.5" stroke-dasharray="4,4"/><line transform="translate(1952,302.5745454545455)" x2="-1952" y2="0" stroke="#d62728" stroke-width="1.5" stroke-dasharray="4,4"/><line transform="translate(1952,302.5745454545455)" x2="-1952" y2="0" stroke="#d62728" stroke-width="1.5" stroke-dasharray="4,4"/><line transform="translate(1952,302.5745454545455)" x2="-1952" y2="0" stroke="#d62728" stroke-width="1.5" stroke-dasharray="4,4"/><line transform="translate(1952,302.5745454545455)" x2="-1952" y2="0" stroke="#d62728" stroke-width="1.5" stroke-dasharray="4,4"/><line transform="translate(1952,302.5745454545455)" x2="-1952" y2="0" stroke="#d62728" stroke-width="1.5" stroke-dasharray="4,4"/><line transform="translate(1952,302.5745454545455)" x2="-1952" y2="0" stroke="#d62728" stroke-width="1.5" stroke-dasharray="4,4"/><line transform="translate(1952,302.5745454545455)" x2="-1952" y2="0" stroke="#d62728" stroke-width="1.5" stroke-dasharray="4,4"/><line transform="translate(1952,302.5745454545455)" x2="-1952" y2="0" stroke="#d62728" stroke-width="1.5" stroke-dasharray="4,4"/><line transform="translate(1952,302.5745454545455)" x2="-1952" y2="0" stroke="#d62728" stroke-width="1.5" stroke-dasharray="4,4"/><line transform="translate(1952,302.5745454545455)" x2="-1952" y2="0" stroke="#d62728" stroke-width="1.5" stroke-dasharray="4,4"/><line transform="translate(1952,302.5745454545455)" x2="-1952" y2="0" stroke="#d62728" stroke-width="1.5" stroke-dasharray="4,4"/><line transform="translate(1952,302.5745454545455)" x2="-1952" y2="0" stroke="#d62728" stroke-width="1.5" stroke-dasharray="4,4"/><line transform="translate(1952,302.5745454545455)" x2="-1952" y2="0" stroke="#d62728" stroke-width="1.5" stroke-dasharray="4,4"/><line transform="translate(1952,302.5745454545455)" x2="-1952" y2="0" stroke="#d62728" stroke-width="1.5" stroke-dasharray="4,4"/><line transform="translate(1952,302.5745454545455)" x2="-1952" y2="0" stroke="#d62728" stroke-width="1.5" stroke-dasharray="4,4"/><line transform="translate(1952,302.5745454545455)" x2="-1952" y2="0" stroke="#d62728" stroke-width="1.5" stroke-dasharray="4,4"/><line transform="translate(1952,302.5745454545455)" x2="-1952" y2="0" stroke="#d62728" stroke-width="1.5" stroke-dasharray="4,4"/><line transform="translate(1952,302.5745454545455)" x2="-1952" y2="0" stroke="#d62728" stroke-width="1.5" stroke-dasharray="4,4"/><line transform="translate(1952,302.5745454545455)" x2="-1952" y2="0" stroke="#d62728" stroke-width="1.5" stroke-dasharray="4,4"/><line transform="translate(1952,302.5745454545455)" x2="-1952" y2="0" stroke="#d62728" stroke-width="1.5" stroke-dasharray="4,4"/><line transform="translate(1952,302.5745454545455)" x2="-1952" y2="0" stroke="#d62728" stroke-width="1.5" stroke-dasharray="4,4"/><line transform="translate(1952,302.5745454545455)" x2="-1952" y2="0" stroke="#d62728" stroke-width="1.5" stroke-dasharray="4,4"/><line transform="translate(1952,302.5745454545455)" x2="-1952" y2="0" stroke="#d62728" stroke-width="1.5" stroke-dasharray="4,4"/><line transform="translate(1952,302.5745454545455)" x2="-1952" y2="0" stroke="#d62728" stroke-width="1.5" stroke-dasharray="4,4"/><line transform="translate(1952,302.5745454545455)" x2="-1952" y2="0" stroke="#d62728" stroke-width="1.5" stroke-dasharray="4,4"/><line transform="translate(1952,302.5745454545455)" x2="-1952" y2="0" stroke="#d62728" stroke-width="1.5" stroke-dasharray="4,4"/><line transform="translate(1952,302.5745454545455)" x2="-1952" y2="0" stroke="#d62728" stroke-width="1.5" stroke-dasharray="4,4"/><line transform="translate(1952,302.5745454545455)" x2="-1952" y2="0" stroke="#d62728" stroke-width="1.5" stroke-dasharray="4,4"/><line transform="translate(1952,302.5745454545455)" x2="-1952" y2="0" stroke="#d62728" stroke-width="1.5" stroke-dasharray="4,4"/><line transform="translate(1952,302.5745454545455)" x2="-1952" y2="0" stroke="#d62728" stroke-width="1.5" stroke-dasharray="4,4"/><line transform="translate(1952,302.5745454545455)" x2="-1952" y2="0" stroke="#d62728" stroke-width="1.5" stroke-dasharray="4,4"/><line transform="translate(1952,302.5745454545455)" x2="-1952" y2="0" stroke="#d62728" stroke-width="1.5" stroke-dasharray="4,4"/><line transform="translate(1952,302.5745454545455)" x2="-1952" y2="0" stroke="#d62728" stroke-width="1.5" stroke-dasharray="4,4"/><line transform="translate(1952,302.5745454545455)" x2="-1952" y2="0" stroke="#d62728" stroke-width="1.5" stroke-dasharray="4,4"/><line transform="translate(1952,302.5745454545455)" x2="-1952" y2="0" stroke="#d62728" stroke-width="1.5" stroke-dasharray="4,4"/><line transform="translate(1952,302.5745454545455)" x2="-1952" y2="0" stroke="#d62728" stroke-width="1.5" stroke-dasharray="4,4"/><line transform="translate(1952,302.5745454545455)" x2="-1952" y2="0" stroke="#d62728" stroke-width="1.5" stroke-dasharray="4,4"/><line transform="translate(1952,302.5745454545455)" x2="-1952" y2="0" stroke="#d62728" stroke-width="1.5" stroke-dasharray="4,4"/><line transform="translate(1952,302.5745454545455)" x2="-1952" y2="0" stroke="#d62728" stroke-width="1.5" stroke-dasharray="4,4"/><line transform="translate(1952,302.5745454545455)" x2="-1952" y2="0" stroke="#d62728" stroke-width="1.5" stroke-dasharray="4,4"/><line transform="translate(1952,302.5745454545455)" x2="-1952" y2="0" stroke="#d62728" stroke-width="1.5" stroke-dasharray="4,4"/><line transform="translate(1952,302.5745454545455)" x2="-1952" y2="0" stroke="#d62728" stroke-width="1.5" stroke-dasharray="4,4"/><line transform="translate(1952,302.5745454545455)" x2="-1952" y2="0" stroke="#d62728" stroke-width="1.5" stroke-dasharray="4,4"/><line transform="translate(1952,302.5745454545455)" x2="-1952" y2="0" stroke="#d62728" stroke-width="1.5" stroke-dasharray="4,4"/></g><g class="mark-text role-mark layer_6_marks" role="graphics-object" aria-roledescription="text mark container" pointer-events="none"><text aria-label="date: Oct 29, 2025" role="graphics-symbol" aria-roledescription="text mark" text-anchor="start" transform="translate(1958,300.5745454545455)" font-family="sans-serif" font-size="12px" fill="#d62728">Avg: 20.33</text></g></g><path class="foreground" aria-hidden="true" d="" display="none"/></g></g></g></svg>
