<svg xmlns="http://www.w3.org/2000/svg" xmlns:xlink="http://www.w3.org/1999/xlink" version="1.1" class="marks" width="2331" height="573" viewBox="0 0 2331 573"><rect width="2331" height="573" fill="white"/><g fill="none" stroke-miterlimit="10" transform="translate(51,11)"><g class="mark-group role-frame root" role="graphics-object" aria-roledescription="group mark container"><g transform="translate(0,0)"><path class="background" aria-hidden="true" d="M0.5,0.5h2204v480h-2204Z"/><g><g class="mark-group role-axis" aria-hidden="true"><g transform="translate(0.5,0.5)"><path class="background" aria-hidden="true" d="M0,0h0v0h0Z" pointer-events="none"/><g><g class="mark-rule role-axis-grid" pointer-events="none"><line transform="translate(0,480)" x2="2204" y2="0" stroke="#ddd" stroke-width="1" opacity="1"/><line transform="translate(0,436)" x2="2204" y2="0" stroke="#ddd" stroke-width="1" opacity="1"/><line transform="translate(0,393)" x2="2204" y2="0" stroke="#ddd" stroke-width="1" opacity="1"/><line transform="translate(0,349)" x2="2204" y2="0" stroke="#ddd" stroke-width="1" opacity="1"/><line transform="translate(0,305)" x2="2204" y2="0" stroke="#ddd" stroke-width="1" opacity="1"/><line transform="translate(0,262)" x2="2204" y2="0" stroke="#ddd" stroke-width="1" opacity="1"/><line transform="translate(0,218)" x2="2204" y2="0" stroke="#ddd" stroke-width="1" opacity="1"/><line transform="translate(0,175)" x2="2204" y2="0" stroke="#ddd" stroke-width="1" opacity="1"/><line transform="translate(0,131)" x2="2204" y2="0" stroke="#ddd" stroke-width="1" opacity="1"/><line transform="translate(0,87)" x2="2204" y2="0" stroke="#ddd" stroke-width="1" opacity="1"/><line transform="translate(0,44)" x2="2204" y2="0" stroke="#ddd" stroke-width="1" opacity="1"/><line transform="translate(0,0)" x2="2204" y2="0" stroke="#ddd" stroke-width="1" opacity="1"/></g></g><path class="foreground" aria-hidden="true" d="" pointer-events="none" display="none"/></g></g><g class="mark-group role-axis" role="graphics-symbol" aria-roledescription="axis" aria-label="X-axis titled 'Date' for a time scale with values from 2025-09-08 to 2025-11-05"><g transform="translate(0.5,480.5)"><path class="background" aria-hidden="true" d="M0,0h0v0h0Z" pointer-events="none"/><g><g class="mark-rule role-axis-tick" pointer-events="none"><line transform="translate(0,0)" x2="0" y2="5" stroke="#bbb" stroke-width="1" opacity="1"/><line transform="translate(38,0)" x2="0" y2="5" stroke="#bbb" stroke-width="1" opacity="1"/><line transform="translate(76,0)" x2="0" y2="5" stroke="#bbb" stroke-width="1" opacity="1"/><line transform="translate(114,0)" x2="0" y2="5" stroke="#bbb" stroke-width="1" opacity="1"/><line transform="translate(152,0)" x2="0" y2="5" stroke="#bbb" stroke-width="1" opacity="1"/><line transform="translate(190,0)" x2="0" y2="5" stroke="#bbb" stroke-width="1" opacity="1"/><line transform="translate(228,0)" x2="0" y2="5" stroke="#bbb" stroke-width="1" opacity="1"/><line transform="translate(266,0)" x2="0" y2="5" stroke="#bbb" stroke-width="1" opacity="1"/><line transform="translate(304,0)" x2="0" y2="5" stroke="#bbb" stroke-width="1" opacity="1"/><line transform="translate(342,0)" x2="0" y2="5" stroke="#bbb" stroke-width="1" opacity="1"/><line transform="translate(380,0)" x2="0" y2="5" stroke="#bbb" stroke-width="1" opacity="1"/><line transform="translate(418,0)" x2="0" y2="5" stroke="#bbb" stroke-width="1" opacity="1"/><line transform="translate(456,0)" x2="0" y2="5" stroke="#bbb" stroke-width="1" opacity="1"/><line transform="translate(494,0)" x2="0" y2="5" stroke="#bbb" stroke-width="1" opacity="1"/><line transform="translate(532,0)" x2="0" y2="5" stroke="#bbb" stroke-width="1" opacity="1"/><line transform="translate(570,0)" x2="0" y2="5" stroke="#bbb" stroke-width="1" opacity="1"/><line transform="translate(608,0)" x2="0" y2="5" stroke="#bbb" stroke-width="1" opacity="1"/><line transform="translate(646,0)" x2="0" y2="5" stroke="#bbb" stroke-width="1" opacity="1"/><line transform="translate(684,0)" x2="0" y2="5" stroke="#bbb" stroke-width="1" opacity="1"/><line transform="translate(722,0)" x2="0" y2="5" stroke="#bbb" stroke-width="1" opacity="1"/><line transform="translate(760,0)" x2="0" y2="5" stroke="#bbb" stroke-width="1" opacity="1"/><line transform="translate(798,0)" x2="0" y2="5" stroke="#bbb" stroke-width="1" opacity="1"/><line transform="translate(836,0)" x2="0" y2="5" stroke="#bbb" stroke-width="1" opacity="1"/><line transform="translate(874,0)" x2="0" y2="5" stroke="#bbb" stroke-width="1" opacity="1"/><line transform="translate(912,0)" x2="0" y2="5" stroke="#bbb" stroke-width="1" opacity="1"/><line transform="translate(950,0)" x2="0" y2="5" stroke="#bbb" stroke-width="1" opacity="1"/><line transform="translate(988,0)" x2="0" y2="5" stroke="#bbb" stroke-width="1" opacity="1"/><line transform="translate(1026,0)" x2="0" y2="5" stroke="#bbb" stroke-width="1" opacity="1"/><line transform="translate(1064,0)" x2="0" y2="5" stroke="#bbb" stroke-width="1" opacity="1"/><line transform="translate(1102,0)" x2="0" y2="5" stroke="#bbb" stroke-width="1" opacity="1"/><line transform="translate(1140,0)" x2="0" y2="5" stroke="#bbb" stroke-width="1" opacity="1"/><line transform="translate(1178,0)" x2="0" y2="5" stroke="#bbb" stroke-width="1" opacity="1"/><line transform="translate(1216,0)" x2="0" y2="5" stroke="#bbb" stroke-width="1" opacity="1"/><line transform="translate(1254,0)" x2="0" y2="5" stroke="#bbb" stroke-width="1" opacity="1"/><line transform="translate(1292,0)" x2="0" y2="5" stroke="#bbb" stroke-width="1" opacity="1"/><line transform="translate(1330,0)" x2="0" y2="5" stroke="#bbb" stroke-width="1" opacity="1"/><line transform="translate(1368,0)" x2="0" y2="5" stroke="#bbb" stroke-width="1" opacity="1"/><line transform="translate(1406,0)" x2="0" y2="5" stroke="#bbb" stroke-width="1" opacity="1"/><line transform="translate(1444,0)" x2="0" y2="5" stroke="#bbb" stroke-width="1" opacity="1"/><line transform="translate(1482,0)" x2="0" y2="5" stroke="#bbb" stroke-width="1" opacity="1"/><line transform="translate(1520,0)" x2="0" y2="5" stroke="#bbb" stroke-width="1" opacity="1"/><line transform="translate(1558,0)" x2="0" y2="5" stroke="#bbb" stroke-width="1" opacity="1"/><line transform="translate(1596,0)" x2="0" y2="5" stroke="#bbb" stroke-width="1" opacity="1"/><line transform="translate(1634,0)" x2="0" y2="5" stroke="#bbb" stroke-width="1" opacity="1"/><line transform="translate(1672,0)" x2="0" y2="5" stroke="#bbb" stroke-width="1" opacity="1"/><line transform="translate(1710,0)" x2="0" y2="5" stroke="#bbb" stroke-width="1" opacity="1"/><line transform="translate(1748,0)" x2="0" y2="5" stroke="#bbb" stroke-width="1" opacity="1"/><line transform="translate(1786,0)" x2="0" y2="5" stroke="#bbb" stroke-width="1" opacity="1"/><line transform="translate(1824,0)" x2="0" y2="5" stroke="#bbb" stroke-width="1" opacity="1"/><line transform="translate(1862,0)" x2="0" y2="5" stroke="#bbb" stroke-width="1" opacity="1"/><line transform="translate(1900,0)" x2="0" y2="5" stroke="#bbb" stroke-width="1" opacity="1"/><line transform="translate(1938,0)" x2="0" y2="5" stroke="#bbb" stroke-width="1" opacity="1"/><line transform="translate(1976,0)" x2="0" y2="5" stroke="#bbb" stroke-width="1" opacity="1"/><line transform="translate(2014,0)" x2="0" y2="5" stroke="#bbb" stroke-width="1" opacity="1"/><line transform="translate(2052,0)" x2="0" y2="5" stroke="#bbb" stroke-width="1" opacity="1"/><line transform="translate(2090,0)" x2="0" y2="5" stroke="#bbb" stroke-width="1" opacity="1"/><line transform="translate(2128,0)" x2="0" y2="5" stroke="#bbb" stroke-width="1" opacity="1"/><line transform="translate(2166,0)" x2="0" y2="5" stroke="#bbb" stroke-width="1" opacity="1"/><line transform="translate(2204,0)" x2="0" y2="5" stroke="#bbb" stroke-width="1" opacity="1"/></g><g class="mark-text role-axis-label" pointer-events="none"><text text-anchor="end" transform="translate(0,7) rotate(315) translate(0,9)" font-family="Segoe UI" font-size="11px" fill="#000" opacity="1">2025-09-08</text><text text-anchor="end" transform="translate(38,7) rotate(315) translate(0,9)" font-family="Segoe UI" font-size="11px" fill="#000" opacity="0">2025-09-09</text><text text-anchor="end" transform="translate(76,7) rotate(315) translate(0,9)" font-family="Segoe UI" font-size="11px" fill="#000" opacity="1">2025-09-10</text><text text-anchor="end" transform="translate(114,7) rotate(315) translate(0,9)" font-family="Segoe UI" font-size="11px" fill="#000" opacity="0">2025-09-11</text><text text-anchor="end" transform="translate(152,7) rotate(315) translate(0,9)" font-family="Segoe UI" font-size="11px" fill="#000" opacity="1">2025-09-12</text><text text-anchor="end" transform="translate(190,7) rotate(315) translate(0,9)" font-family="Segoe UI" font-size="11px" fill="#000" opacity="0">2025-09-13</text><text text-anchor="end" transform="translate(228,7) rotate(315) translate(0,9)" font-family="Segoe UI" font-size="11px" fill="#000" opacity="1">2025-09-14</text><text text-anchor="end" transform="translate(266,7) rotate(315) translate(0,9)" font-family="Segoe UI" font-size="11px" fill="#000" opacity="0">2025-09-15</text><text text-anchor="end" transform="translate(304,7) rotate(315) translate(0,9)" font-family="Segoe UI" font-size="11px" fill="#000" opacity="1">2025-09-16</text><text text-anchor="end" transform="translate(342,7) rotate(315) translate(0,9)" font-family="Segoe UI" font-size="11px" fill="#000" opacity="0">2025-09-17</text><text text-anchor="end" transform="translate(380,7) rotate(315) translate(0,9)" font-family="Segoe UI" font-size="11px" fill="#000" opacity="1">2025-09-18</text><text text-anchor="end" transform="translate(418,7) rotate(315) translate(0,9)" font-family="Segoe UI" font-size="11px" fill="#000" opacity="0">2025-09-19</text><text text-anchor="end" transform="translate(456,7) rotate(315) translate(0,9)" font-family="Segoe UI" font-size="11px" fill="#000" opacity="1">2025-09-20</text><text text-anchor="end" transform="translate(494,7) rotate(315) translate(0,9)" font-family="Segoe UI" font-size="11px" fill="#000" opacity="0">2025-09-21</text><text text-anchor="end" transform="translate(532,7) rotate(315) translate(0,9)" font-family="Segoe UI" font-size="11px" fill="#000" opacity="1">2025-09-22</text><text text-anchor="end" transform="translate(570,7) rotate(315) translate(0,9)" font-family="Segoe UI" font-size="11px" fill="#000" opacity="0">2025-09-23</text><text text-anchor="end" transform="translate(608,7) rotate(315) translate(0,9)" font-family="Segoe UI" font-size="11px" fill="#000" opacity="1">2025-09-24</text><text text-anchor="end" transform="translate(646,7) rotate(315) translate(0,9)" font-family="Segoe UI" font-size="11px" fill="#000" opacity="0">2025-09-25</text><text text-anchor="end" transform="translate(684,7) rotate(315) translate(0,9)" font-family="Segoe UI" font-size="11px" fill="#000" opacity="1">2025-09-26</text><text text-anchor="end" transform="translate(722,7) rotate(315) translate(0,9)" font-family="Segoe UI" font-size="11px" fill="#000" opacity="0">2025-09-27</text><text text-anchor="end" transform="translate(760,7) rotate(315) translate(0,9)" font-family="Segoe UI" font-size="11px" fill="#000" opacity="1">2025-09-28</text><text text-anchor="end" transform="translate(798,7) rotate(315) translate(0,9)" font-family="Segoe UI" font-size="11px" fill="#000" opacity="0">2025-09-29</text><text text-anchor="end" transform="translate(836,7) rotate(315) translate(0,9)" font-family="Segoe UI" font-size="11px" fill="#000" opacity="1">2025-09-30</text><text text-anchor="end" transform="translate(874,7) rotate(315) translate(0,9)" font-family="Segoe UI" font-size="11px" fill="#000" opacity="0">2025-10-01</text><text text-anchor="end" transform="translate(912,7) rotate(315) translate(0,9)" font-family="Segoe UI" font-size="11px" fill="#000" opacity="1">2025-10-02</text><text text-anchor="end" transform="translate(949.9999999999999,7) rotate(315) translate(0,9)" font-family="Segoe UI" font-size="11px" fill="#000" opacity="0">2025-10-03</text><text text-anchor="end" transform="translate(988,7) rotate(315) translate(0,9)" font-family="Segoe UI" font-size="11px" fill="#000" opacity="1">2025-10-04</text><text text-anchor="end" transform="translate(1026,7) rotate(315) translate(0,9)" font-family="Segoe UI" font-size="11px" fill="#000" opacity="0">2025-10-05</text><text text-anchor="end" transform="translate(1064,7) rotate(315) translate(0,9)" font-family="Segoe UI" font-size="11px" fill="#000" opacity="1">2025-10-06</text><text text-anchor="end" transform="translate(1102,7) rotate(315) translate(0,9)" font-family="Segoe UI" font-size="11px" fill="#000" opacity="0">2025-10-07</text><text text-anchor="end" transform="translate(1140,7) rotate(315) translate(0,9)" font-family="Segoe UI" font-size="11px" fill="#000" opacity="1">2025-10-08</text><text text-anchor="end" transform="translate(1178,7) rotate(315) translate(0,9)" font-family="Segoe UI" font-size="11px" fill="#000" opacity="0">2025-10-09</text><text text-anchor="end" transform="translate(1216,7) rotate(315) translate(0,9)" font-family="Segoe UI" font-size="11px" fill="#000" opacity="1">2025-10-10</text><text text-anchor="end" transform="translate(1254,7) rotate(315) translate(0,9)" font-family="Segoe UI" font-size="11px" fill="#000" opacity="0">2025-10-11</text><text text-anchor="end" transform="translate(1292,7) rotate(315) translate(0,9)" font-family="Segoe UI" font-size="11px" fill="#000" opacity="1">2025-10-12</text><text text-anchor="end" transform="translate(1330,7) rotate(315) translate(0,9)" font-family="Segoe UI" font-size="11px" fill="#000" opacity="0">2025-10-13</text><text text-anchor="end" transform="translate(1368,7) rotate(315) translate(0,9)" font-family="Segoe UI" font-size="11px" fill="#000" opacity="1">2025-10-14</text><text text-anchor="end" transform="translate(1406.0000000000002,7) rotate(315) translate(0,9)" font-family="Segoe UI" font-size="11px" fill="#000" opacity="0">2025-10-15</text><text text-anchor="end" transform="translate(1444,7) rotate(315) translate(0,9)" font-family="Segoe UI" font-size="11px" fill="#000" opacity="1">2025-10-16</text><text text-anchor="end" transform="translate(1482,7) rotate(315) translate(0,9)" font-family="Segoe UI" font-size="11px" fill="#000" opacity="0">2025-10-17</text><text text-anchor="end" transform="translate(1520,7) rotate(315) translate(0,9)" font-family="Segoe UI" font-size="11px" fill="#000" opacity="1">2025-10-18</text><text text-anchor="end" transform="translate(1558,7) rotate(315) translate(0,9)" font-family="Segoe UI" font-size="11px" fill="#000" opacity="0">2025-10-19</text><text text-anchor="end" transform="translate(1596,7) rotate(315) translate(0,9)" font-family="Segoe UI" font-size="11px" fill="#000" opacity="1">2025-10-20</text><text text-anchor="end" transform="translate(1634,7) rotate(315) translate(0,9)" font-family="Segoe UI" font-size="11px" fill="#000" opacity="0">2025-10-21</text><text text-anchor="end" transform="translate(1672,7) rotate(315) translate(0,9)" font-family="Segoe UI" font-size="11px" fill="#000" opacity="1">2025-10-22</text><text text-anchor="end" transform="translate(1710,7) rotate(315) translate(0,9)" font-family="Segoe UI" font-size="11px" fill="#000" opacity="0">2025-10-23</text><text text-anchor="end" transform="translate(1748,7) rotate(315) translate(0,9)" font-family="Segoe UI" font-size="11px" fill="#000" opacity="1">2025-10-24</text><text text-anchor="end" transform="translate(1786,7) rotate(315) translate(0,9)" font-family="Segoe UI" font-size="11px" fill="#000" opacity="0">2025-10-25</text><text text-anchor="end" transform="translate(1824,7) rotate(315) translate(0,9)" font-family="Segoe UI" font-size="11px" fill="#000" opacity="1">2025-10-26</text><text text-anchor="end" transform="translate(1862,7) rotate(315) translate(0,9)" font-family="Segoe UI" font-size="11px" fill="#000" opacity="0">2025-10-27</text><text text-anchor="end" transform="translate(1899.9999999999998,7) rotate(315) translate(0,9)" font-family="Segoe UI" font-size="11px" fill="#000" opacity="1">2025-10-28</text><text text-anchor="end" transform="translate(1938,7) rotate(315) translate(0,9)" font-family="Segoe UI" font-size="11px" fill="#000" opacity="0">2025-10-29</text><text text-anchor="end" transform="translate(1976,7) rotate(315) translate(0,9)" font-family="Segoe UI" font-size="11px" fill="#000" opacity="1">2025-10-30</text><text text-anchor="end" transform="translate(2014,7) rotate(315) translate(0,9)" font-family="Segoe UI" font-size="11px" fill="#000" opacity="0">2025-10-31</text><text text-anchor="end" transform="translate(2052,7) rotate(315) translate(0,9)" font-family="Segoe UI" font-size="11px" fill="#000" opacity="1">2025-11-01</text><text text-anchor="end" transform="translate(2090,7) rotate(315) translate(0,9)" font-family="Segoe UI" font-size="11px" fill="#000" opacity="0">2025-11-02</text><text text-anchor="end" transform="translate(2128,7) rotate(315) translate(0,9)" font-family="Segoe UI" font-size="11px" fill="#000" opacity="1">2025-11-03</text><text text-anchor="end" transform="translate(2166,7) rotate(315) translate(0,9)" font-family="Segoe UI" font-size="11px" fill="#000" opacity="0">2025-11-04</text><text text-anchor="end" transform="translate(2204,7) rotate(315) translate(0,9)" font-family="Segoe UI" font-size="11px" fill="#000" opacity="1">2025-11-05</text></g><g class="mark-rule role-axis-domain" pointer-events="none"><line transform="translate(0,0)" x2="2204" y2="0" stroke="#888" stroke-width="1" opacity="1"/></g><g class="mark-text role-axis-title" pointer-events="none"><text text-anchor="middle" transform="translate(1102,73.9777658717112)" font-family="Segoe UI" font-size="13px" font-weight="bold" fill="#000" opacity="1">Date</text></g></g><path class="foreground" aria-hidden="true" d="" pointer-events="none" display="none"/></g></g><g class="mark-group role-axis" role="graphics-symbol" aria-roledescription="axis" aria-label="Y-axis titled 'Unique server names' for a linear scale with values from 0 to 55"><g transform="translate(0.5,0.5)"><path class="background" aria-hidden="true" d="M0,0h0v0h0Z" pointer-events="none"/><g><g class="mark-rule role-axis-tick" pointer-events="none"><line transform="translate(0,480)" x2="-5" y2="0" stroke="#bbb" stroke-width="1" opacity="1"/><line transform="translate(0,436)" x2="-5" y2="0" stroke="#bbb" stroke-width="1" opacity="1"/><line transform="translate(0,393)" x2="-5" y2="0" stroke="#bbb" stroke-width="1" opacity="1"/><line transform="translate(0,349)" x2="-5" y2="0" stroke="#bbb" stroke-width="1" opacity="1"/><line transform="translate(0,305)" x2="-5" y2="0" stroke="#bbb" stroke-width="1" opacity="1"/><line transform="translate(0,262)" x2="-5" y2="0" stroke="#bbb" stroke-width="1" opacity="1"/><line transform="translate(0,218)" x2="-5" y2="0" stroke="#bbb" stroke-width="1" opacity="1"/><line transform="translate(0,175)" x2="-5" y2="0" stroke="#bbb" stroke-width="1" opacity="1"/><line transform="translate(0,131)" x2="-5" y2="0" stroke="#bbb" stroke-width="1" opacity="1"/><line transform="translate(0,87)" x2="-5" y2="0" stroke="#bbb" stroke-width="1" opacity="1"/><line transform="translate(0,44)" x2="-5" y2="0" stroke="#bbb" stroke-width="1" opacity="1"/><line transform="translate(0,0)" x2="-5" y2="0" stroke="#bbb" stroke-width="1" opacity="1"/></g><g class="mark-text role-axis-label" pointer-events="none"><text text-anchor="end" transform="translate(-7,483)" font-family="Segoe UI" font-size="11px" fill="#000" opacity="1">0</text><text text-anchor="end" transform="translate(-7,439.3636363636364)" font-family="Segoe UI" font-size="11px" fill="#000" opacity="1">5</text><text text-anchor="end" transform="translate(-7,395.7272727272727)" font-family="Segoe UI" font-size="11px" fill="#000" opacity="1">10</text><text text-anchor="end" transform="translate(-7,352.0909090909091)" font-family="Segoe UI" font-size="11px" fill="#000" opacity="1">15</text><text text-anchor="end" transform="translate(-7,308.45454545454544)" font-family="Segoe UI" font-size="11px" fill="#000" opacity="1">20</text><text text-anchor="end" transform="translate(-7,264.8181818181818)" font-family="Segoe UI" font-size="11px" fill="#000" opacity="1">25</text><text text-anchor="end" transform="translate(-7,221.1818181818182)" font-family="Segoe UI" font-size="11px" fill="#000" opacity="1">30</text><text text-anchor="end" transform="translate(-7,177.54545454545456)" font-family="Segoe UI" font-size="11px" fill="#000" opacity="1">35</text><text text-anchor="end" transform="translate(-7,133.9090909090909)" font-family="Segoe UI" font-size="11px" fill="#000" opacity="1">40</text><text text-anchor="end" transform="translate(-7,90.27272727272725)" font-family="Segoe UI" font-size="11px" fill="#000" opacity="1">45</text><text text-anchor="end" transform="translate(-7,46.636363636363654)" font-family="Segoe UI" font-size="11px" fill="#000" opacity="1">50</text><text text-anchor="end" transform="translate(-7,3)" font-family="Segoe UI" font-size="11px" fill="#000" opacity="1">55</text></g><g class="mark-rule role-axis-domain" pointer-events="none"><line transform="translate(0,480)" x2="0" y2="-480" stroke="#888" stroke-width="1" opacity="1"/></g><g class="mark-text role-axis-title" pointer-events="none"><text text-anchor="middle" transform="translate(-24.99609375,240) rotate(-90) translate(0,-3)" font-family="Segoe UI" font-size="13px" font-weight="bold" fill="#000" opacity="1">Unique server names</text></g></g><path class="foreground" aria-hidden="true" d="" pointer-events="none" display="none"/></g></g><g class="mark-area role-mark layer_0_marks" role="graphics-object" aria-roledescription="area mark container" pointer-events="none"><path aria-label="date: 2025-09-08; count: 1" role="graphics-symbol" aria-roledescription="area mark" d="M0,471.273C12.667,240,25.333,8.727,38,8.727C50.667,8.727,63.333,17.455,76,34.909C88.667,52.364,101.333,142.545,114,165.818C126.667,189.091,139.333,177.455,152,200.727C164.667,224,177.333,293.818,190,305.455C202.667,317.091,215.333,322.909,228,322.909C240.667,322.909,253.333,273.455,266,261.818C278.667,250.182,291.333,256,304,244.364C316.667,232.727,329.333,151.273,342,139.636C354.667,128,367.333,122.182,380,122.182C392.667,122.182,405.333,212.364,418,235.636C430.667,258.909,443.333,251.636,456,270.545C468.667,289.455,481.333,349.091,494,349.091C506.667,349.091,519.333,343.273,532,340.364C544.667,337.455,557.333,334.545,570,331.636C582.667,328.727,595.333,322.909,608,322.909C620.667,322.909,633.333,384,646,384C658.667,384,671.333,261.818,684,261.818C696.667,261.818,709.333,418.909,722,418.909C734.667,418.909,747.333,398.545,760,357.818C772.667,317.091,785.333,148.364,798,148.364C810.667,148.364,823.333,202.182,836,244.364C848.667,286.545,861.333,401.455,874,401.455C886.667,401.455,899.333,165.818,912,165.818C924.667,165.818,937.333,253.091,950,253.091C962.667,253.091,975.333,253.091,988,253.091C1000.667,253.091,1013.333,340.364,1026,340.364C1038.667,340.364,1051.333,327.273,1064,305.455C1076.667,283.636,1089.333,209.455,1102,209.455C1114.667,209.455,1127.333,229.818,1140,253.091C1152.667,276.364,1165.333,349.091,1178,349.091C1190.667,349.091,1203.333,314.182,1216,314.182C1228.667,314.182,1241.333,401.455,1254,401.455C1266.667,401.455,1279.333,349.091,1292,349.091C1304.667,349.091,1317.333,349.091,1330,349.091C1342.667,349.091,1355.333,366.545,1368,366.545C1380.667,366.545,1393.333,314.182,1406,314.182C1418.667,314.182,1431.333,330.182,1444,340.364C1456.667,350.545,1469.333,356.364,1482,375.273C1494.667,394.182,1507.333,453.818,1520,453.818C1532.667,453.818,1545.333,442.182,1558,427.636C1570.667,413.091,1583.333,366.545,1596,366.545C1608.667,366.545,1621.333,392.727,1634,392.727C1646.667,392.727,1659.333,331.636,1672,331.636C1684.667,331.636,1697.333,375.273,1710,375.273C1722.667,375.273,1735.333,370.909,1748,366.545C1760.667,362.182,1773.333,349.091,1786,349.091C1798.667,349.091,1811.333,392.727,1824,392.727C1836.667,392.727,1849.333,375.273,1862,349.091C1874.667,322.909,1887.333,235.636,1900,235.636C1912.667,235.636,1925.333,392.727,1938,392.727C1950.667,392.727,1963.333,359.273,1976,349.091C1988.667,338.909,2001.333,331.636,2014,331.636C2026.667,331.636,2039.333,436.364,2052,436.364C2064.667,436.364,2077.333,386.909,2090,375.273C2102.667,363.636,2115.333,357.818,2128,357.818C2140.667,357.818,2153.333,386.909,2166,392.727C2178.667,398.545,2191.333,400,2204,401.455L2204,480C2191.333,480,2178.667,480,2166,480C2153.333,480,2140.667,480,2128,480C2115.333,480,2102.667,480,2090,480C2077.333,480,2064.667,480,2052,480C2039.333,480,2026.667,480,2014,480C2001.333,480,1988.667,480,1976,480C1963.333,480,1950.667,480,1938,480C1925.333,480,1912.667,480,1900,480C1887.333,480,1874.667,480,1862,480C1849.333,480,1836.667,480,1824,480C1811.333,480,1798.667,480,1786,480C1773.333,480,1760.667,480,1748,480C1735.333,480,1722.667,480,1710,480C1697.333,480,1684.667,480,1672,480C1659.333,480,1646.667,480,1634,480C1621.333,480,1608.667,480,1596,480C1583.333,480,1570.667,480,1558,480C1545.333,480,1532.667,480,1520,480C1507.333,480,1494.667,480,1482,480C1469.333,480,1456.667,480,1444,480C1431.333,480,1418.667,480,1406,480C1393.333,480,1380.667,480,1368,480C1355.333,480,1342.667,480,1330,480C1317.333,480,1304.667,480,1292,480C1279.333,480,1266.667,480,1254,480C1241.333,480,1228.667,480,1216,480C1203.333,480,1190.667,480,1178,480C1165.333,480,1152.667,480,1140,480C1127.333,480,1114.667,480,1102,480C1089.333,480,1076.667,480,1064,480C1051.333,480,1038.667,480,1026,480C1013.333,480,1000.667,480,988,480C975.333,480,962.667,480,950,480C937.333,480,924.667,480,912,480C899.333,480,886.667,480,874,480C861.333,480,848.667,480,836,480C823.333,480,810.667,480,798,480C785.333,480,772.667,480,760,480C747.333,480,734.667,480,722,480C709.333,480,696.667,480,684,480C671.333,480,658.667,480,646,480C633.333,480,620.667,480,608,480C595.333,480,582.667,480,570,480C557.333,480,544.667,480,532,480C519.333,480,506.667,480,494,480C481.333,480,468.667,480,456,480C443.333,480,430.667,480,418,480C405.333,480,392.667,480,380,480C367.333,480,354.667,480,342,480C329.333,480,316.667,480,304,480C291.333,480,278.667,480,266,480C253.333,480,240.667,480,228,480C215.333,480,202.667,480,190,480C177.333,480,164.667,480,152,480C139.333,480,126.667,480,114,480C101.333,480,88.667,480,76,480C63.333,480,50.667,480,38,480C25.333,480,12.667,480,0,480Z" fill="#4e79a7" opacity="0.18"/></g><g class="mark-line role-mark layer_1_marks" role="graphics-object" aria-roledescription="line mark container" pointer-events="none"><path aria-label="date: Sep 08, 2025; count: 1" role="graphics-symbol" aria-roledescription="line mark" d="M0,471.273C12.667,240,25.333,8.727,38,8.727C50.667,8.727,63.333,17.455,76,34.909C88.667,52.364,101.333,142.545,114,165.818C126.667,189.091,139.333,177.455,152,200.727C164.667,224,177.333,293.818,190,305.455C202.667,317.091,215.333,322.909,228,322.909C240.667,322.909,253.333,273.455,266,261.818C278.667,250.182,291.333,256,304,244.364C316.667,232.727,329.333,151.273,342,139.636C354.667,128,367.333,122.182,380,122.182C392.667,122.182,405.333,212.364,418,235.636C430.667,258.909,443.333,251.636,456,270.545C468.667,289.455,481.333,349.091,494,349.091C506.667,349.091,519.333,343.273,532,340.364C544.667,337.455,557.333,334.545,570,331.636C582.667,328.727,595.333,322.909,608,322.909C620.667,322.909,633.333,384,646,384C658.667,384,671.333,261.818,684,261.818C696.667,261.818,709.333,418.909,722,418.909C734.667,418.909,747.333,398.545,760,357.818C772.667,317.091,785.333,148.364,798,148.364C810.667,148.364,823.333,202.182,836,244.364C848.667,286.545,861.333,401.455,874,401.455C886.667,401.455,899.333,165.818,912,165.818C924.667,165.818,937.333,253.091,950,253.091C962.667,253.091,975.333,253.091,988,253.091C1000.667,253.091,1013.333,340.364,1026,340.364C1038.667,340.364,1051.333,327.273,1064,305.455C1076.667,283.636,1089.333,209.455,1102,209.455C1114.667,209.455,1127.333,229.818,1140,253.091C1152.667,276.364,1165.333,349.091,1178,349.091C1190.667,349.091,1203.333,314.182,1216,314.182C1228.667,314.182,1241.333,401.455,1254,401.455C1266.667,401.455,1279.333,349.091,1292,349.091C1304.667,349.091,1317.333,349.091,1330,349.091C1342.667,349.091,1355.333,366.545,1368,366.545C1380.667,366.545,1393.333,314.182,1406,314.182C1418.667,314.182,1431.333,330.182,1444,340.364C1456.667,350.545,1469.333,356.364,1482,375.273C1494.667,394.182,1507.333,453.818,1520,453.818C1532.667,453.818,1545.333,442.182,1558,427.636C1570.667,413.091,1583.333,366.545,1596,366.545C1608.667,366.545,1621.333,392.727,1634,392.727C1646.667,392.727,1659.333,331.636,1672,331.636C1684.667,331.636,1697.333,375.273,1710,375.273C1722.667,375.273,1735.333,370.909,1748,366.545C1760.667,362.182,1773.333,349.091,1786,349.091C1798.667,349.091,1811.333,392.727,1824,392.727C1836.667,392.727,1849.333,375.273,1862,349.091C1874.667,322.909,1887.333,235.636,1900,235.636C1912.667,235.636,1925.333,392.727,1938,392.727C1950.667,392.727,1963.333,359.273,1976,349.091C1988.667,338.909,2001.333,331.636,2014,331.636C2026.667,331.636,2039.333,436.364,2052,436.364C2064.667,436.364,2077.333,386.909,2090,375.273C2102.667,363.636,2115.333,357.818,2128,357.818C2140.667,357.818,2153.333,386.909,2166,392.727C2178.667,398.545,2191.333,400,2204,401.455" stroke="#4e79a7" stroke-width="2"/></g><g class="mark-line role-mark layer_2_marks" role="graphics-object" aria-roledescription="line mark container" pointer-events="none"><path aria-label="date: Sep 08, 2025; ma7: 1" role="graphics-symbol" aria-roledescription="line mark" d="M0,471.273C12.667,378.424,25.333,285.576,38,240C50.667,194.424,63.333,172.606,76,171.636C88.667,170.667,101.333,170.182,114,170.182C126.667,170.182,139.333,172.218,152,176.291C164.667,180.364,177.333,191.252,190,197.818C202.667,204.384,215.333,215.688,228,215.688C240.667,215.688,253.333,185.766,266,185.766C278.667,185.766,291.333,211.325,304,219.429C316.667,227.532,329.333,234.39,342,234.39C354.667,234.39,367.333,228.156,380,228.156C392.667,228.156,405.333,233.143,418,233.143C430.667,233.143,443.333,228.156,456,228.156C468.667,228.156,481.333,229.403,494,231.896C506.667,234.39,519.333,239.169,532,243.117C544.667,247.065,557.333,249.143,570,255.584C582.667,262.026,595.333,271.169,608,281.766C620.667,292.364,633.333,316.675,646,319.169C658.667,321.662,671.333,320.416,684,322.909C696.667,325.403,709.333,343.273,722,344.104C734.667,344.935,747.333,345.351,760,345.351C772.667,345.351,785.333,324.571,798,317.922C810.667,311.273,823.333,305.455,836,305.455C848.667,305.455,861.333,316.675,874,316.675C886.667,316.675,899.333,286.338,912,285.506C924.667,284.675,937.333,285.091,950,284.26C962.667,283.429,975.333,262.234,988,260.571C1000.667,258.909,1013.333,258.078,1026,258.078C1038.667,258.078,1051.333,280.519,1064,280.519C1076.667,280.519,1089.333,278.857,1102,275.532C1114.667,272.208,1127.333,254.338,1140,254.338C1152.667,254.338,1165.333,274.701,1178,280.519C1190.667,286.338,1203.333,284.26,1216,289.247C1228.667,294.234,1241.333,309.61,1254,310.442C1266.667,311.273,1279.333,310.857,1292,311.688C1304.667,312.519,1317.333,313.766,1330,317.922C1342.667,322.078,1355.333,335.169,1368,340.364C1380.667,345.558,1393.333,349.091,1406,349.091C1418.667,349.091,1431.333,347.844,1444,347.844C1456.667,347.844,1469.333,353.87,1482,356.571C1494.667,359.273,1507.333,360.935,1520,364.052C1532.667,367.169,1545.333,373.61,1558,375.273C1570.667,376.935,1583.333,376.727,1596,377.766C1608.667,378.805,1621.333,380.468,1634,381.506C1646.667,382.545,1659.333,382.753,1672,384C1684.667,385.247,1697.333,388.987,1710,388.987C1722.667,388.987,1735.333,388.571,1748,387.74C1760.667,386.909,1773.333,376.104,1786,372.779C1798.667,369.455,1811.333,369.039,1824,367.792C1836.667,366.545,1849.333,366.961,1862,365.299C1874.667,363.636,1887.333,342.857,1900,342.857C1912.667,342.857,1925.333,351.584,1938,351.584C1950.667,351.584,1963.333,349.299,1976,347.844C1988.667,346.39,2001.333,342.857,2014,342.857C2026.667,342.857,2039.333,355.325,2052,355.325C2064.667,355.325,2077.333,352.831,2090,352.831C2102.667,352.831,2115.333,353.247,2128,354.078C2140.667,354.909,2153.333,375.688,2166,376.519C2178.667,377.351,2191.333,377.558,2204,377.766" stroke="#d62728" stroke-width="2" stroke-dasharray="6,4"/></g><g class="mark-symbol role-mark layer_3_marks" role="graphics-object" aria-roledescription="symbol mark container"><path aria-label="date: Sep 08, 2025; count: 1; Date: Sep 08, 2025; Daily unique: 1; 7d avg: 1" role="graphics-symbol" aria-roledescription="point" transform="translate(0,471.27272727272725)" d="M3.536,0A3.536,3.536,0,1,1,-3.536,0A3.536,3.536,0,1,1,3.536,0" fill="#4e79a7" stroke-width="2" opacity="0.55"/><path aria-label="date: Sep 09, 2025; count: 54; Date: Sep 09, 2025; Daily unique: 54; 7d avg: 27.5" role="graphics-symbol" aria-roledescription="point" transform="translate(38,8.72727272727273)" d="M3.536,0A3.536,3.536,0,1,1,-3.536,0A3.536,3.536,0,1,1,3.536,0" fill="#4e79a7" stroke-width="2" opacity="0.55"/><path aria-label="date: Sep 10, 2025; count: 51; Date: Sep 10, 2025; Daily unique: 51; 7d avg: 35.3333333333" role="graphics-symbol" aria-roledescription="point" transform="translate(76,34.90909090909092)" d="M3.536,0A3.536,3.536,0,1,1,-3.536,0A3.536,3.536,0,1,1,3.536,0" fill="#4e79a7" stroke-width="2" opacity="0.55"/><path aria-label="date: Sep 11, 2025; count: 36; Date: Sep 11, 2025; Daily unique: 36; 7d avg: 35.5" role="graphics-symbol" aria-roledescription="point" transform="translate(114,165.8181818181818)" d="M3.536,0A3.536,3.536,0,1,1,-3.536,0A3.536,3.536,0,1,1,3.536,0" fill="#4e79a7" stroke-width="2" opacity="0.55"/><path aria-label="date: Sep 12, 2025; count: 32; Date: Sep 12, 2025; Daily unique: 32; 7d avg: 34.8" role="graphics-symbol" aria-roledescription="point" transform="translate(152,200.72727272727275)" d="M3.536,0A3.536,3.536,0,1,1,-3.536,0A3.536,3.536,0,1,1,3.536,0" fill="#4e79a7" stroke-width="2" opacity="0.55"/><path aria-label="date: Sep 13, 2025; count: 20; Date: Sep 13, 2025; Daily unique: 20; 7d avg: 32.3333333333" role="graphics-symbol" aria-roledescription="point" transform="translate(190,305.45454545454544)" d="M3.536,0A3.536,3.536,0,1,1,-3.536,0A3.536,3.536,0,1,1,3.536,0" fill="#4e79a7" stroke-width="2" opacity="0.55"/><path aria-label="date: Sep 14, 2025; count: 18; Date: Sep 14, 2025; Daily unique: 18; 7d avg: 30.2857142857" role="graphics-symbol" aria-roledescription="point" transform="translate(228,322.90909090909093)" d="M3.536,0A3.536,3.536,0,1,1,-3.536,0A3.536,3.536,0,1,1,3.536,0" fill="#4e79a7" stroke-width="2" opacity="0.55"/><path aria-label="date: Sep 15, 2025; count: 25; Date: Sep 15, 2025; Daily unique: 25; 7d avg: 33.7142857143" role="graphics-symbol" aria-roledescription="point" transform="translate(266,261.8181818181818)" d="M3.536,0A3.536,3.536,0,1,1,-3.536,0A3.536,3.536,0,1,1,3.536,0" fill="#4e79a7" stroke-width="2" opacity="0.55"/><path aria-label="date: Sep 16, 2025; count: 27; Date: Sep 16, 2025; Daily unique: 27; 7d avg: 29.8571428571" role="graphics-symbol" aria-roledescription="point" transform="translate(304,244.36363636363635)" d="M3.536,0A3.536,3.536,0,1,1,-3.536,0A3.536,3.536,0,1,1,3.536,0" fill="#4e79a7" stroke-width="2" opacity="0.55"/><path aria-label="date: Sep 17, 2025; count: 39; Date: Sep 17, 2025; Daily unique: 39; 7d avg: 28.1428571429" role="graphics-symbol" aria-roledescription="point" transform="translate(342,139.63636363636363)" d="M3.536,0A3.536,3.536,0,1,1,-3.536,0A3.536,3.536,0,1,1,3.536,0" fill="#4e79a7" stroke-width="2" opacity="0.55"/><path aria-label="date: Sep 18, 2025; count: 41; Date: Sep 18, 2025; Daily unique: 41; 7d avg: 28.8571428571" role="graphics-symbol" aria-roledescription="point" transform="translate(380,122.18181818181817)" d="M3.536,0A3.536,3.536,0,1,1,-3.536,0A3.536,3.536,0,1,1,3.536,0" fill="#4e79a7" stroke-width="2" opacity="0.55"/><path aria-label="date: Sep 19, 2025; count: 28; Date: Sep 19, 2025; Daily unique: 28; 7d avg: 28.2857142857" role="graphics-symbol" aria-roledescription="point" transform="translate(418,235.63636363636365)" d="M3.536,0A3.536,3.536,0,1,1,-3.536,0A3.536,3.536,0,1,1,3.536,0" fill="#4e79a7" stroke-width="2" opacity="0.55"/><path aria-label="date: Sep 20, 2025; count: 24; Date: Sep 20, 2025; Daily unique: 24; 7d avg: 28.8571428571" role="graphics-symbol" aria-roledescription="point" transform="translate(456,270.54545454545456)" d="M3.536,0A3.536,3.536,0,1,1,-3.536,0A3.536,3.536,0,1,1,3.536,0" fill="#4e79a7" stroke-width="2" opacity="0.55"/><path aria-label="date: Sep 21, 2025; count: 15; Date: Sep 21, 2025; Daily unique: 15; 7d avg: 28.4285714286" role="graphics-symbol" aria-roledescription="point" transform="translate(494,349.0909090909091)" d="M3.536,0A3.536,3.536,0,1,1,-3.536,0A3.536,3.536,0,1,1,3.536,0" fill="#4e79a7" stroke-width="2" opacity="0.55"/><path aria-label="date: Sep 22, 2025; count: 16; Date: Sep 22, 2025; Daily unique: 16; 7d avg: 27.1428571429" role="graphics-symbol" aria-roledescription="point" transform="translate(532,340.3636363636364)" d="M3.536,0A3.536,3.536,0,1,1,-3.536,0A3.536,3.536,0,1,1,3.536,0" fill="#4e79a7" stroke-width="2" opacity="0.55"/><path aria-label="date: Sep 23, 2025; count: 17; Date: Sep 23, 2025; Daily unique: 17; 7d avg: 25.7142857143" role="graphics-symbol" aria-roledescription="point" transform="translate(570,331.6363636363636)" d="M3.536,0A3.536,3.536,0,1,1,-3.536,0A3.536,3.536,0,1,1,3.536,0" fill="#4e79a7" stroke-width="2" opacity="0.55"/><path aria-label="date: Sep 24, 2025; count: 18; Date: Sep 24, 2025; Daily unique: 18; 7d avg: 22.7142857143" role="graphics-symbol" aria-roledescription="point" transform="translate(608,322.90909090909093)" d="M3.536,0A3.536,3.536,0,1,1,-3.536,0A3.536,3.536,0,1,1,3.536,0" fill="#4e79a7" stroke-width="2" opacity="0.55"/><path aria-label="date: Sep 25, 2025; count: 11; Date: Sep 25, 2025; Daily unique: 11; 7d avg: 18.4285714286" role="graphics-symbol" aria-roledescription="point" transform="translate(646,384)" d="M3.536,0A3.536,3.536,0,1,1,-3.536,0A3.536,3.536,0,1,1,3.536,0" fill="#4e79a7" stroke-width="2" opacity="0.55"/><path aria-label="date: Sep 26, 2025; count: 25; Date: Sep 26, 2025; Daily unique: 25; 7d avg: 18" role="graphics-symbol" aria-roledescription="point" transform="translate(684,261.8181818181818)" d="M3.536,0A3.536,3.536,0,1,1,-3.536,0A3.536,3.536,0,1,1,3.536,0" fill="#4e79a7" stroke-width="2" opacity="0.55"/><path aria-label="date: Sep 27, 2025; count: 7; Date: Sep 27, 2025; Daily unique: 7; 7d avg: 15.5714285714" role="graphics-symbol" aria-roledescription="point" transform="translate(722,418.90909090909093)" d="M3.536,0A3.536,3.536,0,1,1,-3.536,0A3.536,3.536,0,1,1,3.536,0" fill="#4e79a7" stroke-width="2" opacity="0.55"/><path aria-label="date: Sep 28, 2025; count: 14; Date: Sep 28, 2025; Daily unique: 14; 7d avg: 15.4285714286" role="graphics-symbol" aria-roledescription="point" transform="translate(760,357.8181818181818)" d="M3.536,0A3.536,3.536,0,1,1,-3.536,0A3.536,3.536,0,1,1,3.536,0" fill="#4e79a7" stroke-width="2" opacity="0.55"/><path aria-label="date: Sep 29, 2025; count: 38; Date: Sep 29, 2025; Daily unique: 38; 7d avg: 18.5714285714" role="graphics-symbol" aria-roledescription="point" transform="translate(798,148.36363636363637)" d="M3.536,0A3.536,3.536,0,1,1,-3.536,0A3.536,3.536,0,1,1,3.536,0" fill="#4e79a7" stroke-width="2" opacity="0.55"/><path aria-label="date: Sep 30, 2025; count: 27; Date: Sep 30, 2025; Daily unique: 27; 7d avg: 20" role="graphics-symbol" aria-roledescription="point" transform="translate(836,244.36363636363635)" d="M3.536,0A3.536,3.536,0,1,1,-3.536,0A3.536,3.536,0,1,1,3.536,0" fill="#4e79a7" stroke-width="2" opacity="0.55"/><path aria-label="date: Oct 01, 2025; count: 9; Date: Oct 01, 2025; Daily unique: 9; 7d avg: 18.7142857143" role="graphics-symbol" aria-roledescription="point" transform="translate(874,401.4545454545455)" d="M3.536,0A3.536,3.536,0,1,1,-3.536,0A3.536,3.536,0,1,1,3.536,0" fill="#4e79a7" stroke-width="2" opacity="0.55"/><path aria-label="date: Oct 02, 2025; count: 36; Date: Oct 02, 2025; Daily unique: 36; 7d avg: 22.2857142857" role="graphics-symbol" aria-roledescription="point" transform="translate(912,165.8181818181818)" d="M3.536,0A3.536,3.536,0,1,1,-3.536,0A3.536,3.536,0,1,1,3.536,0" fill="#4e79a7" stroke-width="2" opacity="0.55"/><path aria-label="date: Oct 03, 2025; count: 26; Date: Oct 03, 2025; Daily unique: 26; 7d avg: 22.4285714286" role="graphics-symbol" aria-roledescription="point" transform="translate(949.9999999999999,253.09090909090912)" d="M3.536,0A3.536,3.536,0,1,1,-3.536,0A3.536,3.536,0,1,1,3.536,0" fill="#4e79a7" stroke-width="2" opacity="0.55"/><path aria-label="date: Oct 04, 2025; count: 26; Date: Oct 04, 2025; Daily unique: 26; 7d avg: 25.1428571429" role="graphics-symbol" aria-roledescription="point" transform="translate(988,253.09090909090912)" d="M3.536,0A3.536,3.536,0,1,1,-3.536,0A3.536,3.536,0,1,1,3.536,0" fill="#4e79a7" stroke-width="2" opacity="0.55"/><path aria-label="date: Oct 05, 2025; count: 16; Date: Oct 05, 2025; Daily unique: 16; 7d avg: 25.4285714286" role="graphics-symbol" aria-roledescription="point" transform="translate(1026,340.3636363636364)" d="M3.536,0A3.536,3.536,0,1,1,-3.536,0A3.536,3.536,0,1,1,3.536,0" fill="#4e79a7" stroke-width="2" opacity="0.55"/><path aria-label="date: Oct 06, 2025; count: 20; Date: Oct 06, 2025; Daily unique: 20; 7d avg: 22.8571428571" role="graphics-symbol" aria-roledescription="point" transform="translate(1064,305.45454545454544)" d="M3.536,0A3.536,3.536,0,1,1,-3.536,0A3.536,3.536,0,1,1,3.536,0" fill="#4e79a7" stroke-width="2" opacity="0.55"/><path aria-label="date: Oct 07, 2025; count: 31; Date: Oct 07, 2025; Daily unique: 31; 7d avg: 23.4285714286" role="graphics-symbol" aria-roledescription="point" transform="translate(1102,209.45454545454547)" d="M3.536,0A3.536,3.536,0,1,1,-3.536,0A3.536,3.536,0,1,1,3.536,0" fill="#4e79a7" stroke-width="2" opacity="0.55"/><path aria-label="date: Oct 08, 2025; count: 26; Date: Oct 08, 2025; Daily unique: 26; 7d avg: 25.8571428571" role="graphics-symbol" aria-roledescription="point" transform="translate(1140,253.09090909090912)" d="M3.536,0A3.536,3.536,0,1,1,-3.536,0A3.536,3.536,0,1,1,3.536,0" fill="#4e79a7" stroke-width="2" opacity="0.55"/><path aria-label="date: Oct 09, 2025; count: 15; Date: Oct 09, 2025; Daily unique: 15; 7d avg: 22.8571428571" role="graphics-symbol" aria-roledescription="point" transform="translate(1178,349.0909090909091)" d="M3.536,0A3.536,3.536,0,1,1,-3.536,0A3.536,3.536,0,1,1,3.536,0" fill="#4e79a7" stroke-width="2" opacity="0.55"/><path aria-label="date: Oct 10, 2025; count: 19; Date: Oct 10, 2025; Daily unique: 19; 7d avg: 21.8571428571" role="graphics-symbol" aria-roledescription="point" transform="translate(1216,314.1818181818182)" d="M3.536,0A3.536,3.536,0,1,1,-3.536,0A3.536,3.536,0,1,1,3.536,0" fill="#4e79a7" stroke-width="2" opacity="0.55"/><path aria-label="date: Oct 11, 2025; count: 9; Date: Oct 11, 2025; Daily unique: 9; 7d avg: 19.4285714286" role="graphics-symbol" aria-roledescription="point" transform="translate(1254,401.4545454545455)" d="M3.536,0A3.536,3.536,0,1,1,-3.536,0A3.536,3.536,0,1,1,3.536,0" fill="#4e79a7" stroke-width="2" opacity="0.55"/><path aria-label="date: Oct 12, 2025; count: 15; Date: Oct 12, 2025; Daily unique: 15; 7d avg: 19.2857142857" role="graphics-symbol" aria-roledescription="point" transform="translate(1292,349.0909090909091)" d="M3.536,0A3.536,3.536,0,1,1,-3.536,0A3.536,3.536,0,1,1,3.536,0" fill="#4e79a7" stroke-width="2" opacity="0.55"/><path aria-label="date: Oct 13, 2025; count: 15; Date: Oct 13, 2025; Daily unique: 15; 7d avg: 18.5714285714" role="graphics-symbol" aria-roledescription="point" transform="translate(1330,349.0909090909091)" d="M3.536,0A3.536,3.536,0,1,1,-3.536,0A3.536,3.536,0,1,1,3.536,0" fill="#4e79a7" stroke-width="2" opacity="0.55"/><path aria-label="date: Oct 14, 2025; count: 13; Date: Oct 14, 2025; Daily unique: 13; 7d avg: 16" role="graphics-symbol" aria-roledescription="point" transform="translate(1368,366.54545454545456)" d="M3.536,0A3.536,3.536,0,1,1,-3.536,0A3.536,3.536,0,1,1,3.536,0" fill="#4e79a7" stroke-width="2" opacity="0.55"/><path aria-label="date: Oct 15, 2025; count: 19; Date: Oct 15, 2025; Daily unique: 19; 7d avg: 15" role="graphics-symbol" aria-roledescription="point" transform="translate(1406.0000000000002,314.1818181818182)" d="M3.536,0A3.536,3.536,0,1,1,-3.536,0A3.536,3.536,0,1,1,3.536,0" fill="#4e79a7" stroke-width="2" opacity="0.55"/><path aria-label="date: Oct 16, 2025; count: 16; Date: Oct 16, 2025; Daily unique: 16; 7d avg: 15.1428571429" role="graphics-symbol" aria-roledescription="point" transform="translate(1444,340.3636363636364)" d="M3.536,0A3.536,3.536,0,1,1,-3.536,0A3.536,3.536,0,1,1,3.536,0" fill="#4e79a7" stroke-width="2" opacity="0.55"/><path aria-label="date: Oct 17, 2025; count: 12; Date: Oct 17, 2025; Daily unique: 12; 7d avg: 14.1428571429" role="graphics-symbol" aria-roledescription="point" transform="translate(1482,375.2727272727273)" d="M3.536,0A3.536,3.536,0,1,1,-3.536,0A3.536,3.536,0,1,1,3.536,0" fill="#4e79a7" stroke-width="2" opacity="0.55"/><path aria-label="date: Oct 18, 2025; count: 3; Date: Oct 18, 2025; Daily unique: 3; 7d avg: 13.2857142857" role="graphics-symbol" aria-roledescription="point" transform="translate(1520,453.8181818181818)" d="M3.536,0A3.536,3.536,0,1,1,-3.536,0A3.536,3.536,0,1,1,3.536,0" fill="#4e79a7" stroke-width="2" opacity="0.55"/><path aria-label="date: Oct 19, 2025; count: 6; Date: Oct 19, 2025; Daily unique: 6; 7d avg: 12" role="graphics-symbol" aria-roledescription="point" transform="translate(1558,427.6363636363636)" d="M3.536,0A3.536,3.536,0,1,1,-3.536,0A3.536,3.536,0,1,1,3.536,0" fill="#4e79a7" stroke-width="2" opacity="0.55"/><path aria-label="date: Oct 20, 2025; count: 13; Date: Oct 20, 2025; Daily unique: 13; 7d avg: 11.7142857143" role="graphics-symbol" aria-roledescription="point" transform="translate(1596,366.54545454545456)" d="M3.536,0A3.536,3.536,0,1,1,-3.536,0A3.536,3.536,0,1,1,3.536,0" fill="#4e79a7" stroke-width="2" opacity="0.55"/><path aria-label="date: Oct 21, 2025; count: 10; Date: Oct 21, 2025; Daily unique: 10; 7d avg: 11.2857142857" role="graphics-symbol" aria-roledescription="point" transform="translate(1634,392.7272727272727)" d="M3.536,0A3.536,3.536,0,1,1,-3.536,0A3.536,3.536,0,1,1,3.536,0" fill="#4e79a7" stroke-width="2" opacity="0.55"/><path aria-label="date: Oct 22, 2025; count: 17; Date: Oct 22, 2025; Daily unique: 17; 7d avg: 11" role="graphics-symbol" aria-roledescription="point" transform="translate(1672,331.6363636363636)" d="M3.536,0A3.536,3.536,0,1,1,-3.536,0A3.536,3.536,0,1,1,3.536,0" fill="#4e79a7" stroke-width="2" opacity="0.55"/><path aria-label="date: Oct 23, 2025; count: 12; Date: Oct 23, 2025; Daily unique: 12; 7d avg: 10.4285714286" role="graphics-symbol" aria-roledescription="point" transform="translate(1710,375.2727272727273)" d="M3.536,0A3.536,3.536,0,1,1,-3.536,0A3.536,3.536,0,1,1,3.536,0" fill="#4e79a7" stroke-width="2" opacity="0.55"/><path aria-label="date: Oct 24, 2025; count: 13; Date: Oct 24, 2025; Daily unique: 13; 7d avg: 10.5714285714" role="graphics-symbol" aria-roledescription="point" transform="translate(1748,366.54545454545456)" d="M3.536,0A3.536,3.536,0,1,1,-3.536,0A3.536,3.536,0,1,1,3.536,0" fill="#4e79a7" stroke-width="2" opacity="0.55"/><path aria-label="date: Oct 25, 2025; count: 15; Date: Oct 25, 2025; Daily unique: 15; 7d avg: 12.2857142857" role="graphics-symbol" aria-roledescription="point" transform="translate(1786,349.0909090909091)" d="M3.536,0A3.536,3.536,0,1,1,-3.536,0A3.536,3.536,0,1,1,3.536,0" fill="#4e79a7" stroke-width="2" opacity="0.55"/><path aria-label="date: Oct 26, 2025; count: 10; Date: Oct 26, 2025; Daily unique: 10; 7d avg: 12.8571428571" role="graphics-symbol" aria-roledescription="point" transform="translate(1824,392.7272727272727)" d="M3.536,0A3.536,3.536,0,1,1,-3.536,0A3.536,3.536,0,1,1,3.536,0" fill="#4e79a7" stroke-width="2" opacity="0.55"/><path aria-label="date: Oct 27, 2025; count: 15; Date: Oct 27, 2025; Daily unique: 15; 7d avg: 13.1428571429" role="graphics-symbol" aria-roledescription="point" transform="translate(1862,349.0909090909091)" d="M3.536,0A3.536,3.536,0,1,1,-3.536,0A3.536,3.536,0,1,1,3.536,0" fill="#4e79a7" stroke-width="2" opacity="0.55"/><path aria-label="date: Oct 28, 2025; count: 28; Date: Oct 28, 2025; Daily unique: 28; 7d avg: 15.7142857143" role="graphics-symbol" aria-roledescription="point" transform="translate(1899.9999999999998,235.63636363636365)" d="M3.536,0A3.536,3.536,0,1,1,-3.536,0A3.536,3.536,0,1,1,3.536,0" fill="#4e79a7" stroke-width="2" opacity="0.55"/><path aria-label="date: Oct 29, 2025; count: 10; Date: Oct 29, 2025; Daily unique: 10; 7d avg: 14.7142857143" role="graphics-symbol" aria-roledescription="point" transform="translate(1938,392.7272727272727)" d="M3.536,0A3.536,3.536,0,1,1,-3.536,0A3.536,3.536,0,1,1,3.536,0" fill="#4e79a7" stroke-width="2" opacity="0.55"/><path aria-label="date: Oct 30, 2025; count: 15; Date: Oct 30, 2025; Daily unique: 15; 7d avg: 15.1428571429" role="graphics-symbol" aria-roledescription="point" transform="translate(1976,349.0909090909091)" d="M3.536,0A3.536,3.536,0,1,1,-3.536,0A3.536,3.536,0,1,1,3.536,0" fill="#4e79a7" stroke-width="2" opacity="0.55"/><path aria-label="date: Oct 31, 2025; count: 17; Date: Oct 31, 2025; Daily unique: 17; 7d avg: 15.7142857143" role="graphics-symbol" aria-roledescription="point" transform="translate(2014,331.6363636363636)" d="M3.536,0A3.536,3.536,0,1,1,-3.536,0A3.536,3.536,0,1,1,3.536,0" fill="#4e79a7" stroke-width="2" opacity="0.55"/><path aria-label="date: Nov 01, 2025; count: 5; Date: Nov 01, 2025; Daily unique: 5; 7d avg: 14.2857142857" role="graphics-symbol" aria-roledescription="point" transform="translate(2052,436.3636363636364)" d="M3.536,0A3.536,3.536,0,1,1,-3.536,0A3.536,3.536,0,1,1,3.536,0" fill="#4e79a7" stroke-width="2" opacity="0.55"/><path aria-label="date: Nov 02, 2025; count: 12; Date: Nov 02, 2025; Daily unique: 12; 7d avg: 14.5714285714" role="graphics-symbol" aria-roledescription="point" transform="translate(2090,375.2727272727273)" d="M3.536,0A3.536,3.536,0,1,1,-3.536,0A3.536,3.536,0,1,1,3.536,0" fill="#4e79a7" stroke-width="2" opacity="0.55"/><path aria-label="date: Nov 03, 2025; count: 14; Date: Nov 03, 2025; Daily unique: 14; 7d avg: 14.4285714286" role="graphics-symbol" aria-roledescription="point" transform="translate(2128,357.8181818181818)" d="M3.536,0A3.536,3.536,0,1,1,-3.536,0A3.536,3.536,0,1,1,3.536,0" fill="#4e79a7" stroke-width="2" opacity="0.55"/><path aria-label="date: Nov 04, 2025; count: 10; Date: Nov 04, 2025; Daily unique: 10; 7d avg: 11.8571428571" role="graphics-symbol" aria-roledescription="point" transform="translate(2166,392.7272727272727)" d="M3.536,0A3.536,3.536,0,1,1,-3.536,0A3.536,3.536,0,1,1,3.536,0" fill="#4e79a7" stroke-width="2" opacity="0.55"/><path aria-label="date: Nov 05, 2025; count: 9; Date: Nov 05, 2025; Daily unique: 9; 7d avg: 11.7142857143" role="graphics-symbol" aria-roledescription="point" transform="translate(2204,401.4545454545455)" d="M3.536,0A3.536,3.536,0,1,1,-3.536,0A3.536,3.536,0,1,1,3.536,0" fill="#4e79a7" stroke-width="2" opacity="0.55"/></g><g class="mark-path role-mark layer_3_voronoi" aria-hidden="true"><path transform="translate(0,0)" d="M0,297.2722402597402L21.054491777183372,305.13007736943905L23.61554555915893,306.56894898350595L147.3653462524935,448.36559561128513L167.95041322314052,480L0,480Z" stroke-width="0.35"/><path transform="translate(0,0)" d="M72.03262287951281,0L0,104.54734848484844L0,0Z" stroke-width="0.35"/><path transform="translate(0,0)" d="M243.36028086745787,0L217.8905975950273,64.69122678396872L0,127.94002525252526L0,104.54734848484844L72.03262287951281,0Z" stroke-width="0.35"/><path transform="translate(0,0)" d="M220.56232178241748,87.95749158249166L21.054491777183372,305.13007736943905L0,297.2722402597402L0,127.94002525252526L217.8905975950273,64.69122678396872Z" stroke-width="0.35"/><path transform="translate(0,0)" d="M244.5267507612005,164.97727272727275L203.65815721978072,241.24098746081503L23.61554555915893,306.56894898350595L21.054491777183372,305.13007736943905L220.56232178241748,87.95749158249166L244.9040271816294,163.66309319611204Z" stroke-width="0.35"/><path transform="translate(0,0)" d="M203.65815721978072,241.24098746081503L225.23913778937705,278.827861952862L147.3653462524935,448.36559561128513L23.61554555915893,306.56894898350595Z" stroke-width="0.35"/><path transform="translate(0,0)" d="M357.4449949883692,372.11786341677646L346.8263841421736,480L167.95041322314052,480L147.3653462524935,448.36559561128513L225.23913778937705,278.827861952862L325.45480643758157,341.16439393939396Z" stroke-width="0.35"/><path transform="translate(0,0)" d="M244.5267507612005,164.97727272727275L325.45480643758157,341.16439393939396L225.23913778937705,278.827861952862L203.65815721978072,241.24098746081503Z" stroke-width="0.35"/><path transform="translate(0,0)" d="M361.5241013879552,364.7174012855831L357.4449949883692,372.11786341677646L325.45480643758157,341.16439393939396L244.5267507612005,164.97727272727275L244.9040271816294,163.66309319611204L358.3060833902939,204.81071428571428L367.7712383310469,328.44930069930075Z" stroke-width="0.35"/><path transform="translate(0,0)" d="M300.8695084819487,0L385.1748006379585,183.53964646464647L358.3060833902939,204.81071428571428L244.9040271816294,163.66309319611204L220.56232178241748,87.95749158249166L217.8905975950273,64.69122678396872L243.36028086745787,0Z" stroke-width="0.35"/><path transform="translate(0,0)" d="M552.3247305591804,127.55513468013469L385.1748006379585,183.53964646464647L300.8695084819487,0L597.4729328957254,0L593.8858084750807,57.26943779904305L564.4558503697259,121.34090909090911Z" stroke-width="0.35"/><path transform="translate(0,0)" d="M552.3247305591804,127.55513468013469L367.7712383310469,328.44930069930075L358.3060833902939,204.81071428571428L385.1748006379585,183.53964646464647Z" stroke-width="0.35"/><path transform="translate(0,0)" d="M561.9908655937364,209.6704545454544L533.9878207916485,261.92613636363643L501.9843410178338,296.7632575757576L361.5241013879552,364.7174012855831L367.7712383310469,328.44930069930075L552.3247305591804,127.55513468013469L564.4558503697259,121.34090909090911L567.2522836015659,194.39772727272734Z" stroke-width="0.35"/><path transform="translate(0,0)" d="M501.9843410178338,296.7632575757576L544.0054371465856,479.73011363636357L543.9434536755111,480L346.8263841421736,480L357.4449949883692,372.11786341677646L361.5241013879552,364.7174012855831Z" stroke-width="0.35"/><path transform="translate(0,0)" d="M533.9878207916485,261.92613636363643L569.0081557198782,414.4105113636363L544.0054371465856,479.73011363636357L501.9843410178338,296.7632575757576Z" stroke-width="0.35"/><path transform="translate(0,0)" d="M561.9908655937364,209.6704545454544L599.0114180078294,370.8641098484849L569.0081557198782,414.4105113636363L533.9878207916485,261.92613636363643Z" stroke-width="0.35"/><path transform="translate(0,0)" d="M561.9908655937364,209.6704545454544L567.2522836015659,194.39772727272734L672.4043787153835,325.2119408369408L599.0114180078294,370.8641098484849Z" stroke-width="0.35"/><path transform="translate(0,0)" d="M701.3434826736262,363.6963383838384L647.9217050891691,480L543.9434536755111,480L544.0054371465856,479.73011363636357L569.0081557198782,414.4105113636363L599.0114180078294,370.8641098484849L672.4043787153835,325.2119408369408L694.0511593669488,331.94434731934734Z" stroke-width="0.35"/><path transform="translate(0,0)" d="M762.804625199362,277.5145202020202L694.0511593669488,331.94434731934734L672.4043787153835,325.2119408369408L567.2522836015659,194.39772727272734L564.4558503697259,121.34090909090911L593.8858084750807,57.26943779904305L756.247347618057,220.41156126482213Z" stroke-width="0.35"/><path transform="translate(0,0)" d="M647.9217050891691,480L701.3434826736262,363.6963383838384L799.6864523036771,424.868006993007L806.0173988690734,480Z" stroke-width="0.35"/><path transform="translate(0,0)" d="M837.051930298,327.2506957328386L799.6864523036771,424.868006993007L701.3434826736262,363.6963383838384L694.0511593669488,331.94434731934734L762.804625199362,277.5145202020202Z" stroke-width="0.35"/><path transform="translate(0,0)" d="M879.0521966072206,0L851.0506250964655,182.88526392961876L756.247347618057,220.41156126482213L593.8858084750807,57.26943779904305L597.4729328957254,0Z" stroke-width="0.35"/><path transform="translate(0,0)" d="M894.7998530095543,225.21669278996862L887.9308394954327,314.94318181818187L837.051930298,327.2506957328386L762.804625199362,277.5145202020202L756.247347618057,220.41156126482213L851.0506250964655,182.88526392961876Z" stroke-width="0.35"/><path transform="translate(0,0)" d="M937.7668873745429,340.4719416386083L993.8451500652458,480L806.0173988690734,480L799.6864523036771,424.868006993007L837.051930298,327.2506957328386L887.9308394954327,314.94318181818187Z" stroke-width="0.35"/><path transform="translate(0,0)" d="M969,192.9087121212122L894.7998530095543,225.21669278996862L851.0506250964655,182.88526392961876L879.0521966072206,0L1050.09351892127,0L1014.9864071335363,152.86221590909093Z" stroke-width="0.35"/><path transform="translate(0,0)" d="M969,192.9087121212122L969,313.2731060606061L937.7668873745429,340.4719416386083L887.9308394954327,314.94318181818187L894.7998530095543,225.21669278996862Z" stroke-width="0.35"/><path transform="translate(0,0)" d="M1050.0256322624743,244.40219155844153L1016.9627167091282,292.38933982683983L969,313.2731060606061L969,192.9087121212122L1014.9864071335363,152.86221590909093Z" stroke-width="0.35"/><path transform="translate(0,0)" d="M1016.9627167091282,292.38933982683983L1099.8260880689813,382.58957219251334L1094.233144845585,480L993.8451500652458,480L937.7668873745429,340.4719416386083L969,313.2731060606061Z" stroke-width="0.35"/><path transform="translate(0,0)" d="M1088.45514354067,259.6138731060606L1126.0256322624743,314.14326298701303L1099.8260880689813,382.58957219251334L1016.9627167091282,292.38933982683983L1050.0256322624743,244.40219155844153Z" stroke-width="0.35"/><path transform="translate(0,0)" d="M1088.45514354067,259.6138731060606L1050.0256322624743,244.40219155844153L1014.9864071335363,152.86221590909093L1050.09351892127,0L1344.1957372770771,0L1326.032622879513,52.72348484848496Z" stroke-width="0.35"/><path transform="translate(0,0)" d="M1088.45514354067,259.6138731060606L1326.032622879513,52.72348484848496L1311,118.17803030303014L1166.2886762360447,298.20580808080814L1126.0256322624743,314.14326298701303Z" stroke-width="0.35"/><path transform="translate(0,0)" d="M1126.0256322624743,314.14326298701303L1166.2886762360447,298.20580808080814L1225.0372832908718,362.15611471861473L1143.8434101783384,480L1094.233144845585,480L1099.8260880689813,382.58957219251334Z" stroke-width="0.35"/><path transform="translate(0,0)" d="M1166.2886762360447,298.20580808080814L1311,118.17803030303014L1311,207.54261363636374L1243.717377120487,354.02249053030306L1225.0372832908718,362.15611471861473Z" stroke-width="0.35"/><path transform="translate(0,0)" d="M1143.8434101783384,480L1225.0372832908718,362.15611471861473L1243.717377120487,354.02249053030306L1311,402.84911616161617L1321.3895606785559,417.92840909090916L1340.3971291866028,480Z" stroke-width="0.35"/><path transform="translate(0,0)" d="M1243.717377120487,354.02249053030306L1311,207.54261363636374L1311,402.84911616161617Z" stroke-width="0.35"/><path transform="translate(0,0)" d="M1311,402.84911616161617L1311,207.54261363636337L1364.5130491518053,324.04498106060595L1321.3895606785559,417.92840909090916Z" stroke-width="0.35"/><path transform="translate(0,0)" d="M1340.3971291866028,480L1321.3895606785559,417.92840909090916L1364.5130491518053,324.04498106060595L1406.3202841815282,354.3842592592593L1422.6387362094192,401.7530991735537L1418.607856258574,454.4064685314686L1403.9130056546326,480Z" stroke-width="0.35"/><path transform="translate(0,0)" d="M1326.032622879513,52.72348484848496L1344.1957372770771,0L1560.1888398682659,0L1550.6835237288524,144.8570574162692L1406.3202841815282,354.3842592592593L1364.5130491518053,324.04498106060595L1311,207.54261363636337L1311,118.17803030303014Z" stroke-width="0.35"/><path transform="translate(0,0)" d="M1406.3202841815282,354.3842592592593L1550.6835237288524,144.8570574162692L1551.6375499228914,169.7809917355373L1532.228761668953,282.4597902097903L1422.6387362094192,401.7530991735537Z" stroke-width="0.35"/><path transform="translate(0,0)" d="M1418.607856258574,454.4064685314686L1422.6387362094192,401.7530991735537L1532.228761668953,282.4597902097903L1539.2045672031318,373.58125L1515.9706394084385,407.30271464646466Z" stroke-width="0.35"/><path transform="translate(0,0)" d="M1403.9130056546326,480L1418.607856258574,454.4064685314686L1515.9706394084385,407.30271464646466L1566.058721183123,480Z" stroke-width="0.35"/><path transform="translate(0,0)" d="M1566.058721183123,480L1515.9706394084385,407.30271464646466L1539.2045672031318,373.58125L1595.181731187473,408.4003787878788L1628.0695954762941,480Z" stroke-width="0.35"/><path transform="translate(0,0)" d="M1532.228761668953,282.4597902097903L1551.6375499228914,169.7809917355373L1634.818268812527,350.87234848484843L1595.181731187473,408.4003787878788L1539.2045672031318,373.58125Z" stroke-width="0.35"/><path transform="translate(0,0)" d="M1628.0695954762941,480L1595.181731187473,408.4003787878788L1634.818268812527,350.87234848484843L1669.3206466579672,372.33364898989896L1694.047846889952,480Z" stroke-width="0.35"/><path transform="translate(0,0)" d="M1550.6835237288524,144.8570574162692L1560.1888398682659,0L1666.5741626794256,0L1750.5693779904307,199.4886363636367L1736.4956502827317,291.40767045454544L1719.3260838045526,328.7872474747475L1669.3206466579672,372.33364898989896L1634.818268812527,350.87234848484843L1551.6375499228914,169.7809917355373Z" stroke-width="0.35"/><path transform="translate(0,0)" d="M1752.3014354066986,480L1694.047846889952,480L1669.3206466579672,372.33364898989896L1719.3260838045526,328.7872474747475L1753.002609830361,475.42045454545456Z" stroke-width="0.35"/><path transform="translate(0,0)" d="M1753.002609830361,475.42045454545456L1719.3260838045526,328.7872474747475L1736.4956502827317,291.40767045454544L1782.152177965575,390.805735930736Z" stroke-width="0.35"/><path transform="translate(0,0)" d="M1736.4956502827317,291.40767045454544L1750.5693779904307,199.4886363636367L1824,273.2722902097904L1824,354.36325757575753L1782.152177965575,390.805735930736Z" stroke-width="0.35"/><path transform="translate(0,0)" d="M1752.3014354066986,480L1753.002609830361,475.42045454545456L1782.152177965575,390.805735930736L1824,354.36325757575753L1881,404.00075757575763L1881,480Z" stroke-width="0.35"/><path transform="translate(0,0)" d="M1824,354.36325757575753L1824,273.2722902097904L1919,305.09120046620046L1919,337.8174242424242L1881,404.00075757575763Z" stroke-width="0.35"/><path transform="translate(0,0)" d="M2173.011744236624,0L2133.0418660287082,74.58664772727184L1964.728117084154,274.45922459893046L1919,305.09120046620046L1824,273.2722902097904L1750.5693779904307,199.4886363636367L1666.5741626794256,0Z" stroke-width="0.35"/><path transform="translate(0,0)" d="M1881,480L1881,404.00075757575763L1919,337.8174242424242L1998.0271857329274,406.63693181818184L1969.9456285341453,480Z" stroke-width="0.35"/><path transform="translate(0,0)" d="M1919,305.09120046620046L1964.728117084154,274.45922459893046L2017.6087118623004,389.5846861471861L1998.0271857329274,406.63693181818184L1919,337.8174242424242Z" stroke-width="0.35"/><path transform="translate(0,0)" d="M2017.6087118623004,389.5846861471861L1964.728117084154,274.45922459893046L2133.0418660287082,74.58664772727184L2080.3260838045526,304.1199494949496L2034.8466610196654,383.3299441786284Z" stroke-width="0.35"/><path transform="translate(0,0)" d="M1969.9456285341453,480L1998.0271857329274,406.63693181818184L2017.6087118623004,389.5846861471861L2034.8466610196654,383.3299441786284L2116.4904849934755,434.1143465909091L2134.0543714658547,480Z" stroke-width="0.35"/><path transform="translate(0,0)" d="M2034.8466610196654,383.3299441786284L2080.3260838045526,304.1199494949496L2124.339132956358,399.94002525252523L2116.4904849934755,434.1143465909091Z" stroke-width="0.35"/><path transform="translate(0,0)" d="M2204,0L2204,313.2258522727272L2124.339132956358,399.94002525252523L2080.3260838045526,304.1199494949496L2133.0418660287082,74.58664772727184L2173.011744236624,0Z" stroke-width="0.35"/><path transform="translate(0,0)" d="M2124.339132956358,399.94002525252523L2204,313.2258522727272L2204,314.3617424242432L2165.95867768595,480L2134.0543714658547,480L2116.4904849934755,434.1143465909091Z" stroke-width="0.35"/><path transform="translate(0,0)" d="M2204,480L2165.95867768595,480L2204,314.3617424242432Z" stroke-width="0.35"/></g><g class="mark-symbol role-mark layer_4_marks" role="graphics-object" aria-roledescription="symbol mark container"><path aria-label="date: Sep 08, 2025; count: 1; Peak date: Sep 08, 2025; Peak unique count: 1" role="graphics-symbol" aria-roledescription="point" transform="translate(0,471.27272727272725)" d="M-5.916,0L0,-5.916L5.916,0L0,5.916Z" fill="#ff9900" stroke="#b36b00" stroke-width="1.5" opacity="0"/><path aria-label="date: Sep 09, 2025; count: 54; Peak date: Sep 09, 2025; Peak unique count: 54" role="graphics-symbol" aria-roledescription="point" transform="translate(38,8.72727272727273)" d="M-5.916,0L0,-5.916L5.916,0L0,5.916Z" fill="#ff9900" stroke="#b36b00" stroke-width="1.5" opacity="1"/><path aria-label="date: Sep 10, 2025; count: 51; Peak date: Sep 10, 2025; Peak unique count: 51" role="graphics-symbol" aria-roledescription="point" transform="translate(76,34.90909090909092)" d="M-5.916,0L0,-5.916L5.916,0L0,5.916Z" fill="#ff9900" stroke="#b36b00" stroke-width="1.5" opacity="0"/><path aria-label="date: Sep 11, 2025; count: 36; Peak date: Sep 11, 2025; Peak unique count: 36" role="graphics-symbol" aria-roledescription="point" transform="translate(114,165.8181818181818)" d="M-5.916,0L0,-5.916L5.916,0L0,5.916Z" fill="#ff9900" stroke="#b36b00" stroke-width="1.5" opacity="0"/><path aria-label="date: Sep 12, 2025; count: 32; Peak date: Sep 12, 2025; Peak unique count: 32" role="graphics-symbol" aria-roledescription="point" transform="translate(152,200.72727272727275)" d="M-5.916,0L0,-5.916L5.916,0L0,5.916Z" fill="#ff9900" stroke="#b36b00" stroke-width="1.5" opacity="0"/><path aria-label="date: Sep 13, 2025; count: 20; Peak date: Sep 13, 2025; Peak unique count: 20" role="graphics-symbol" aria-roledescription="point" transform="translate(190,305.45454545454544)" d="M-5.916,0L0,-5.916L5.916,0L0,5.916Z" fill="#ff9900" stroke="#b36b00" stroke-width="1.5" opacity="0"/><path aria-label="date: Sep 14, 2025; count: 18; Peak date: Sep 14, 2025; Peak unique count: 18" role="graphics-symbol" aria-roledescription="point" transform="translate(228,322.90909090909093)" d="M-5.916,0L0,-5.916L5.916,0L0,5.916Z" fill="#ff9900" stroke="#b36b00" stroke-width="1.5" opacity="0"/><path aria-label="date: Sep 15, 2025; count: 25; Peak date: Sep 15, 2025; Peak unique count: 25" role="graphics-symbol" aria-roledescription="point" transform="translate(266,261.8181818181818)" d="M-5.916,0L0,-5.916L5.916,0L0,5.916Z" fill="#ff9900" stroke="#b36b00" stroke-width="1.5" opacity="0"/><path aria-label="date: Sep 16, 2025; count: 27; Peak date: Sep 16, 2025; Peak unique count: 27" role="graphics-symbol" aria-roledescription="point" transform="translate(304,244.36363636363635)" d="M-5.916,0L0,-5.916L5.916,0L0,5.916Z" fill="#ff9900" stroke="#b36b00" stroke-width="1.5" opacity="0"/><path aria-label="date: Sep 17, 2025; count: 39; Peak date: Sep 17, 2025; Peak unique count: 39" role="graphics-symbol" aria-roledescription="point" transform="translate(342,139.63636363636363)" d="M-5.916,0L0,-5.916L5.916,0L0,5.916Z" fill="#ff9900" stroke="#b36b00" stroke-width="1.5" opacity="0"/><path aria-label="date: Sep 18, 2025; count: 41; Peak date: Sep 18, 2025; Peak unique count: 41" role="graphics-symbol" aria-roledescription="point" transform="translate(380,122.18181818181817)" d="M-5.916,0L0,-5.916L5.916,0L0,5.916Z" fill="#ff9900" stroke="#b36b00" stroke-width="1.5" opacity="0"/><path aria-label="date: Sep 19, 2025; count: 28; Peak date: Sep 19, 2025; Peak unique count: 28" role="graphics-symbol" aria-roledescription="point" transform="translate(418,235.63636363636365)" d="M-5.916,0L0,-5.916L5.916,0L0,5.916Z" fill="#ff9900" stroke="#b36b00" stroke-width="1.5" opacity="0"/><path aria-label="date: Sep 20, 2025; count: 24; Peak date: Sep 20, 2025; Peak unique count: 24" role="graphics-symbol" aria-roledescription="point" transform="translate(456,270.54545454545456)" d="M-5.916,0L0,-5.916L5.916,0L0,5.916Z" fill="#ff9900" stroke="#b36b00" stroke-width="1.5" opacity="0"/><path aria-label="date: Sep 21, 2025; count: 15; Peak date: Sep 21, 2025; Peak unique count: 15" role="graphics-symbol" aria-roledescription="point" transform="translate(494,349.0909090909091)" d="M-5.916,0L0,-5.916L5.916,0L0,5.916Z" fill="#ff9900" stroke="#b36b00" stroke-width="1.5" opacity="0"/><path aria-label="date: Sep 22, 2025; count: 16; Peak date: Sep 22, 2025; Peak unique count: 16" role="graphics-symbol" aria-roledescription="point" transform="translate(532,340.3636363636364)" d="M-5.916,0L0,-5.916L5.916,0L0,5.916Z" fill="#ff9900" stroke="#b36b00" stroke-width="1.5" opacity="0"/><path aria-label="date: Sep 23, 2025; count: 17; Peak date: Sep 23, 2025; Peak unique count: 17" role="graphics-symbol" aria-roledescription="point" transform="translate(570,331.6363636363636)" d="M-5.916,0L0,-5.916L5.916,0L0,5.916Z" fill="#ff9900" stroke="#b36b00" stroke-width="1.5" opacity="0"/><path aria-label="date: Sep 24, 2025; count: 18; Peak date: Sep 24, 2025; Peak unique count: 18" role="graphics-symbol" aria-roledescription="point" transform="translate(608,322.90909090909093)" d="M-5.916,0L0,-5.916L5.916,0L0,5.916Z" fill="#ff9900" stroke="#b36b00" stroke-width="1.5" opacity="0"/><path aria-label="date: Sep 25, 2025; count: 11; Peak date: Sep 25, 2025; Peak unique count: 11" role="graphics-symbol" aria-roledescription="point" transform="translate(646,384)" d="M-5.916,0L0,-5.916L5.916,0L0,5.916Z" fill="#ff9900" stroke="#b36b00" stroke-width="1.5" opacity="0"/><path aria-label="date: Sep 26, 2025; count: 25; Peak date: Sep 26, 2025; Peak unique count: 25" role="graphics-symbol" aria-roledescription="point" transform="translate(684,261.8181818181818)" d="M-5.916,0L0,-5.916L5.916,0L0,5.916Z" fill="#ff9900" stroke="#b36b00" stroke-width="1.5" opacity="0"/><path aria-label="date: Sep 27, 2025; count: 7; Peak date: Sep 27, 2025; Peak unique count: 7" role="graphics-symbol" aria-roledescription="point" transform="translate(722,418.90909090909093)" d="M-5.916,0L0,-5.916L5.916,0L0,5.916Z" fill="#ff9900" stroke="#b36b00" stroke-width="1.5" opacity="0"/><path aria-label="date: Sep 28, 2025; count: 14; Peak date: Sep 28, 2025; Peak unique count: 14" role="graphics-symbol" aria-roledescription="point" transform="translate(760,357.8181818181818)" d="M-5.916,0L0,-5.916L5.916,0L0,5.916Z" fill="#ff9900" stroke="#b36b00" stroke-width="1.5" opacity="0"/><path aria-label="date: Sep 29, 2025; count: 38; Peak date: Sep 29, 2025; Peak unique count: 38" role="graphics-symbol" aria-roledescription="point" transform="translate(798,148.36363636363637)" d="M-5.916,0L0,-5.916L5.916,0L0,5.916Z" fill="#ff9900" stroke="#b36b00" stroke-width="1.5" opacity="0"/><path aria-label="date: Sep 30, 2025; count: 27; Peak date: Sep 30, 2025; Peak unique count: 27" role="graphics-symbol" aria-roledescription="point" transform="translate(836,244.36363636363635)" d="M-5.916,0L0,-5.916L5.916,0L0,5.916Z" fill="#ff9900" stroke="#b36b00" stroke-width="1.5" opacity="0"/><path aria-label="date: Oct 01, 2025; count: 9; Peak date: Oct 01, 2025; Peak unique count: 9" role="graphics-symbol" aria-roledescription="point" transform="translate(874,401.4545454545455)" d="M-5.916,0L0,-5.916L5.916,0L0,5.916Z" fill="#ff9900" stroke="#b36b00" stroke-width="1.5" opacity="0"/><path aria-label="date: Oct 02, 2025; count: 36; Peak date: Oct 02, 2025; Peak unique count: 36" role="graphics-symbol" aria-roledescription="point" transform="translate(912,165.8181818181818)" d="M-5.916,0L0,-5.916L5.916,0L0,5.916Z" fill="#ff9900" stroke="#b36b00" stroke-width="1.5" opacity="0"/><path aria-label="date: Oct 03, 2025; count: 26; Peak date: Oct 03, 2025; Peak unique count: 26" role="graphics-symbol" aria-roledescription="point" transform="translate(949.9999999999999,253.09090909090912)" d="M-5.916,0L0,-5.916L5.916,0L0,5.916Z" fill="#ff9900" stroke="#b36b00" stroke-width="1.5" opacity="0"/><path aria-label="date: Oct 04, 2025; count: 26; Peak date: Oct 04, 2025; Peak unique count: 26" role="graphics-symbol" aria-roledescription="point" transform="translate(988,253.09090909090912)" d="M-5.916,0L0,-5.916L5.916,0L0,5.916Z" fill="#ff9900" stroke="#b36b00" stroke-width="1.5" opacity="0"/><path aria-label="date: Oct 05, 2025; count: 16; Peak date: Oct 05, 2025; Peak unique count: 16" role="graphics-symbol" aria-roledescription="point" transform="translate(1026,340.3636363636364)" d="M-5.916,0L0,-5.916L5.916,0L0,5.916Z" fill="#ff9900" stroke="#b36b00" stroke-width="1.5" opacity="0"/><path aria-label="date: Oct 06, 2025; count: 20; Peak date: Oct 06, 2025; Peak unique count: 20" role="graphics-symbol" aria-roledescription="point" transform="translate(1064,305.45454545454544)" d="M-5.916,0L0,-5.916L5.916,0L0,5.916Z" fill="#ff9900" stroke="#b36b00" stroke-width="1.5" opacity="0"/><path aria-label="date: Oct 07, 2025; count: 31; Peak date: Oct 07, 2025; Peak unique count: 31" role="graphics-symbol" aria-roledescription="point" transform="translate(1102,209.45454545454547)" d="M-5.916,0L0,-5.916L5.916,0L0,5.916Z" fill="#ff9900" stroke="#b36b00" stroke-width="1.5" opacity="0"/><path aria-label="date: Oct 08, 2025; count: 26; Peak date: Oct 08, 2025; Peak unique count: 26" role="graphics-symbol" aria-roledescription="point" transform="translate(1140,253.09090909090912)" d="M-5.916,0L0,-5.916L5.916,0L0,5.916Z" fill="#ff9900" stroke="#b36b00" stroke-width="1.5" opacity="0"/><path aria-label="date: Oct 09, 2025; count: 15; Peak date: Oct 09, 2025; Peak unique count: 15" role="graphics-symbol" aria-roledescription="point" transform="translate(1178,349.0909090909091)" d="M-5.916,0L0,-5.916L5.916,0L0,5.916Z" fill="#ff9900" stroke="#b36b00" stroke-width="1.5" opacity="0"/><path aria-label="date: Oct 10, 2025; count: 19; Peak date: Oct 10, 2025; Peak unique count: 19" role="graphics-symbol" aria-roledescription="point" transform="translate(1216,314.1818181818182)" d="M-5.916,0L0,-5.916L5.916,0L0,5.916Z" fill="#ff9900" stroke="#b36b00" stroke-width="1.5" opacity="0"/><path aria-label="date: Oct 11, 2025; count: 9; Peak date: Oct 11, 2025; Peak unique count: 9" role="graphics-symbol" aria-roledescription="point" transform="translate(1254,401.4545454545455)" d="M-5.916,0L0,-5.916L5.916,0L0,5.916Z" fill="#ff9900" stroke="#b36b00" stroke-width="1.5" opacity="0"/><path aria-label="date: Oct 12, 2025; count: 15; Peak date: Oct 12, 2025; Peak unique count: 15" role="graphics-symbol" aria-roledescription="point" transform="translate(1292,349.0909090909091)" d="M-5.916,0L0,-5.916L5.916,0L0,5.916Z" fill="#ff9900" stroke="#b36b00" stroke-width="1.5" opacity="0"/><path aria-label="date: Oct 13, 2025; count: 15; Peak date: Oct 13, 2025; Peak unique count: 15" role="graphics-symbol" aria-roledescription="point" transform="translate(1330,349.0909090909091)" d="M-5.916,0L0,-5.916L5.916,0L0,5.916Z" fill="#ff9900" stroke="#b36b00" stroke-width="1.5" opacity="0"/><path aria-label="date: Oct 14, 2025; count: 13; Peak date: Oct 14, 2025; Peak unique count: 13" role="graphics-symbol" aria-roledescription="point" transform="translate(1368,366.54545454545456)" d="M-5.916,0L0,-5.916L5.916,0L0,5.916Z" fill="#ff9900" stroke="#b36b00" stroke-width="1.5" opacity="0"/><path aria-label="date: Oct 15, 2025; count: 19; Peak date: Oct 15, 2025; Peak unique count: 19" role="graphics-symbol" aria-roledescription="point" transform="translate(1406.0000000000002,314.1818181818182)" d="M-5.916,0L0,-5.916L5.916,0L0,5.916Z" fill="#ff9900" stroke="#b36b00" stroke-width="1.5" opacity="0"/><path aria-label="date: Oct 16, 2025; count: 16; Peak date: Oct 16, 2025; Peak unique count: 16" role="graphics-symbol" aria-roledescription="point" transform="translate(1444,340.3636363636364)" d="M-5.916,0L0,-5.916L5.916,0L0,5.916Z" fill="#ff9900" stroke="#b36b00" stroke-width="1.5" opacity="0"/><path aria-label="date: Oct 17, 2025; count: 12; Peak date: Oct 17, 2025; Peak unique count: 12" role="graphics-symbol" aria-roledescription="point" transform="translate(1482,375.2727272727273)" d="M-5.916,0L0,-5.916L5.916,0L0,5.916Z" fill="#ff9900" stroke="#b36b00" stroke-width="1.5" opacity="0"/><path aria-label="date: Oct 18, 2025; count: 3; Peak date: Oct 18, 2025; Peak unique count: 3" role="graphics-symbol" aria-roledescription="point" transform="translate(1520,453.8181818181818)" d="M-5.916,0L0,-5.916L5.916,0L0,5.916Z" fill="#ff9900" stroke="#b36b00" stroke-width="1.5" opacity="0"/><path aria-label="date: Oct 19, 2025; count: 6; Peak date: Oct 19, 2025; Peak unique count: 6" role="graphics-symbol" aria-roledescription="point" transform="translate(1558,427.6363636363636)" d="M-5.916,0L0,-5.916L5.916,0L0,5.916Z" fill="#ff9900" stroke="#b36b00" stroke-width="1.5" opacity="0"/><path aria-label="date: Oct 20, 2025; count: 13; Peak date: Oct 20, 2025; Peak unique count: 13" role="graphics-symbol" aria-roledescription="point" transform="translate(1596,366.54545454545456)" d="M-5.916,0L0,-5.916L5.916,0L0,5.916Z" fill="#ff9900" stroke="#b36b00" stroke-width="1.5" opacity="0"/><path aria-label="date: Oct 21, 2025; count: 10; Peak date: Oct 21, 2025; Peak unique count: 10" role="graphics-symbol" aria-roledescription="point" transform="translate(1634,392.7272727272727)" d="M-5.916,0L0,-5.916L5.916,0L0,5.916Z" fill="#ff9900" stroke="#b36b00" stroke-width="1.5" opacity="0"/><path aria-label="date: Oct 22, 2025; count: 17; Peak date: Oct 22, 2025; Peak unique count: 17" role="graphics-symbol" aria-roledescription="point" transform="translate(1672,331.6363636363636)" d="M-5.916,0L0,-5.916L5.916,0L0,5.916Z" fill="#ff9900" stroke="#b36b00" stroke-width="1.5" opacity="0"/><path aria-label="date: Oct 23, 2025; count: 12; Peak date: Oct 23, 2025; Peak unique count: 12" role="graphics-symbol" aria-roledescription="point" transform="translate(1710,375.2727272727273)" d="M-5.916,0L0,-5.916L5.916,0L0,5.916Z" fill="#ff9900" stroke="#b36b00" stroke-width="1.5" opacity="0"/><path aria-label="date: Oct 24, 2025; count: 13; Peak date: Oct 24, 2025; Peak unique count: 13" role="graphics-symbol" aria-roledescription="point" transform="translate(1748,366.54545454545456)" d="M-5.916,0L0,-5.916L5.916,0L0,5.916Z" fill="#ff9900" stroke="#b36b00" stroke-width="1.5" opacity="0"/><path aria-label="date: Oct 25, 2025; count: 15; Peak date: Oct 25, 2025; Peak unique count: 15" role="graphics-symbol" aria-roledescription="point" transform="translate(1786,349.0909090909091)" d="M-5.916,0L0,-5.916L5.916,0L0,5.916Z" fill="#ff9900" stroke="#b36b00" stroke-width="1.5" opacity="0"/><path aria-label="date: Oct 26, 2025; count: 10; Peak date: Oct 26, 2025; Peak unique count: 10" role="graphics-symbol" aria-roledescription="point" transform="translate(1824,392.7272727272727)" d="M-5.916,0L0,-5.916L5.916,0L0,5.916Z" fill="#ff9900" stroke="#b36b00" stroke-width="1.5" opacity="0"/><path aria-label="date: Oct 27, 2025; count: 15; Peak date: Oct 27, 2025; Peak unique count: 15" role="graphics-symbol" aria-roledescription="point" transform="translate(1862,349.0909090909091)" d="M-5.916,0L0,-5.916L5.916,0L0,5.916Z" fill="#ff9900" stroke="#b36b00" stroke-width="1.5" opacity="0"/><path aria-label="date: Oct 28, 2025; count: 28; Peak date: Oct 28, 2025; Peak unique count: 28" role="graphics-symbol" aria-roledescription="point" transform="translate(1899.9999999999998,235.63636363636365)" d="M-5.916,0L0,-5.916L5.916,0L0,5.916Z" fill="#ff9900" stroke="#b36b00" stroke-width="1.5" opacity="0"/><path aria-label="date: Oct 29, 2025; count: 10; Peak date: Oct 29, 2025; Peak unique count: 10" role="graphics-symbol" aria-roledescription="point" transform="translate(1938,392.7272727272727)" d="M-5.916,0L0,-5.916L5.916,0L0,5.916Z" fill="#ff9900" stroke="#b36b00" stroke-width="1.5" opacity="0"/><path aria-label="date: Oct 30, 2025; count: 15; Peak date: Oct 30, 2025; Peak unique count: 15" role="graphics-symbol" aria-roledescription="point" transform="translate(1976,349.0909090909091)" d="M-5.916,0L0,-5.916L5.916,0L0,5.916Z" fill="#ff9900" stroke="#b36b00" stroke-width="1.5" opacity="0"/><path aria-label="date: Oct 31, 2025; count: 17; Peak date: Oct 31, 2025; Peak unique count: 17" role="graphics-symbol" aria-roledescription="point" transform="translate(2014,331.6363636363636)" d="M-5.916,0L0,-5.916L5.916,0L0,5.916Z" fill="#ff9900" stroke="#b36b00" stroke-width="1.5" opacity="0"/><path aria-label="date: Nov 01, 2025; count: 5; Peak date: Nov 01, 2025; Peak unique count: 5" role="graphics-symbol" aria-roledescription="point" transform="translate(2052,436.3636363636364)" d="M-5.916,0L0,-5.916L5.916,0L0,5.916Z" fill="#ff9900" stroke="#b36b00" stroke-width="1.5" opacity="0"/><path aria-label="date: Nov 02, 2025; count: 12; Peak date: Nov 02, 2025; Peak unique count: 12" role="graphics-symbol" aria-roledescription="point" transform="translate(2090,375.2727272727273)" d="M-5.916,0L0,-5.916L5.916,0L0,5.916Z" fill="#ff9900" stroke="#b36b00" stroke-width="1.5" opacity="0"/><path aria-label="date: Nov 03, 2025; count: 14; Peak date: Nov 03, 2025; Peak unique count: 14" role="graphics-symbol" aria-roledescription="point" transform="translate(2128,357.8181818181818)" d="M-5.916,0L0,-5.916L5.916,0L0,5.916Z" fill="#ff9900" stroke="#b36b00" stroke-width="1.5" opacity="0"/><path aria-label="date: Nov 04, 2025; count: 10; Peak date: Nov 04, 2025; Peak unique count: 10" role="graphics-symbol" aria-roledescription="point" transform="translate(2166,392.7272727272727)" d="M-5.916,0L0,-5.916L5.916,0L0,5.916Z" fill="#ff9900" stroke="#b36b00" stroke-width="1.5" opacity="0"/><path aria-label="date: Nov 05, 2025; count: 9; Peak date: Nov 05, 2025; Peak unique count: 9" role="graphics-symbol" aria-roledescription="point" transform="translate(2204,401.4545454545455)" d="M-5.916,0L0,-5.916L5.916,0L0,5.916Z" fill="#ff9900" stroke="#b36b00" stroke-width="1.5" opacity="0"/></g><g class="mark-rule role-mark layer_5_marks" role="graphics-symbol" aria-roledescription="rule mark container" pointer-events="none"><line transform="translate(2204,311.21454545454543)" x2="-2204" y2="0" stroke="#d62728" stroke-width="1.5" stroke-dasharray="4,4"/><line transform="translate(2204,311.21454545454543)" x2="-2204" y2="0" stroke="#d62728" stroke-width="1.5" stroke-dasharray="4,4"/><line transform="translate(2204,311.21454545454543)" x2="-2204" y2="0" stroke="#d62728" stroke-width="1.5" stroke-dasharray="4,4"/><line transform="translate(2204,311.21454545454543)" x2="-2204" y2="0" stroke="#d62728" stroke-width="1.5" stroke-dasharray="4,4"/><line transform="translate(2204,311.21454545454543)" x2="-2204" y2="0" stroke="#d62728" stroke-width="1.5" stroke-dasharray="4,4"/><line transform="translate(2204,311.21454545454543)" x2="-2204" y2="0" stroke="#d62728" stroke-width="1.5" stroke-dasharray="4,4"/><line transform="translate(2204,311.21454545454543)" x2="-2204" y2="0" stroke="#d62728" stroke-width="1.5" stroke-dasharray="4,4"/><line transform="translate(2204,311.21454545454543)" x2="-2204" y2="0" stroke="#d62728" stroke-width="1.5" stroke-dasharray="4,4"/><line transform="translate(2204,311.21454545454543)" x2="-2204" y2="0" stroke="#d62728" stroke-width="1.5" stroke-dasharray="4,4"/><line transform="translate(2204,311.21454545454543)" x2="-2204" y2="0" stroke="#d62728" stroke-width="1.5" stroke-dasharray="4,4"/><line transform="translate(2204,311.21454545454543)" x2="-2204" y2="0" stroke="#d62728" stroke-width="1.5" stroke-dasharray="4,4"/><line transform="translate(2204,311.21454545454543)" x2="-2204" y2="0" stroke="#d62728" stroke-width="1.5" stroke-dasharray="4,4"/><line transform="translate(2204,311.21454545454543)" x2="-2204" y2="0" stroke="#d62728" stroke-width="1.5" stroke-dasharray="4,4"/><line transform="translate(2204,311.21454545454543)" x2="-2204" y2="0" stroke="#d62728" stroke-width="1.5" stroke-dasharray="4,4"/><line transform="translate(2204,311.21454545454543)" x2="-2204" y2="0" stroke="#d62728" stroke-width="1.5" stroke-dasharray="4,4"/><line transform="translate(2204,311.21454545454543)" x2="-2204" y2="0" stroke="#d62728" stroke-width="1.5" stroke-dasharray="4,4"/><line transform="translate(2204,311.21454545454543)" x2="-2204" y2="0" stroke="#d62728" stroke-width="1.5" stroke-dasharray="4,4"/><line transform="translate(2204,311.21454545454543)" x2="-2204" y2="0" stroke="#d62728" stroke-width="1.5" stroke-dasharray="4,4"/><line transform="translate(2204,311.21454545454543)" x2="-2204" y2="0" stroke="#d62728" stroke-width="1.5" stroke-dasharray="4,4"/><line transform="translate(2204,311.21454545454543)" x2="-2204" y2="0" stroke="#d62728" stroke-width="1.5" stroke-dasharray="4,4"/><line transform="translate(2204,311.21454545454543)" x2="-2204" y2="0" stroke="#d62728" stroke-width="1.5" stroke-dasharray="4,4"/><line transform="translate(2204,311.21454545454543)" x2="-2204" y2="0" stroke="#d62728" stroke-width="1.5" stroke-dasharray="4,4"/><line transform="translate(2204,311.21454545454543)" x2="-2204" y2="0" stroke="#d62728" stroke-width="1.5" stroke-dasharray="4,4"/><line transform="translate(2204,311.21454545454543)" x2="-2204" y2="0" stroke="#d62728" stroke-width="1.5" stroke-dasharray="4,4"/><line transform="translate(2204,311.21454545454543)" x2="-2204" y2="0" stroke="#d62728" stroke-width="1.5" stroke-dasharray="4,4"/><line transform="translate(2204,311.21454545454543)" x2="-2204" y2="0" stroke="#d62728" stroke-width="1.5" stroke-dasharray="4,4"/><line transform="translate(2204,311.21454545454543)" x2="-2204" y2="0" stroke="#d62728" stroke-width="1.5" stroke-dasharray="4,4"/><line transform="translate(2204,311.21454545454543)" x2="-2204" y2="0" stroke="#d62728" stroke-width="1.5" stroke-dasharray="4,4"/><line transform="translate(2204,311.21454545454543)" x2="-2204" y2="0" stroke="#d62728" stroke-width="1.5" stroke-dasharray="4,4"/><line transform="translate(2204,311.21454545454543)" x2="-2204" y2="0" stroke="#d62728" stroke-width="1.5" stroke-dasharray="4,4"/><line transform="translate(2204,311.21454545454543)" x2="-2204" y2="0" stroke="#d62728" stroke-width="1.5" stroke-dasharray="4,4"/><line transform="translate(2204,311.21454545454543)" x2="-2204" y2="0" stroke="#d62728" stroke-width="1.5" stroke-dasharray="4,4"/><line transform="translate(2204,311.21454545454543)" x2="-2204" y2="0" stroke="#d62728" stroke-width="1.5" stroke-dasharray="4,4"/><line transform="translate(2204,311.21454545454543)" x2="-2204" y2="0" stroke="#d62728" stroke-width="1.5" stroke-dasharray="4,4"/><line transform="translate(2204,311.21454545454543)" x2="-2204" y2="0" stroke="#d62728" stroke-width="1.5" stroke-dasharray="4,4"/><line transform="translate(2204,311.21454545454543)" x2="-2204" y2="0" stroke="#d62728" stroke-width="1.5" stroke-dasharray="4,4"/><line transform="translate(2204,311.21454545454543)" x2="-2204" y2="0" stroke="#d62728" stroke-width="1.5" stroke-dasharray="4,4"/><line transform="translate(2204,311.21454545454543)" x2="-2204" y2="0" stroke="#d62728" stroke-width="1.5" stroke-dasharray="4,4"/><line transform="translate(2204,311.21454545454543)" x2="-2204" y2="0" stroke="#d62728" stroke-width="1.5" stroke-dasharray="4,4"/><line transform="translate(2204,311.21454545454543)" x2="-2204" y2="0" stroke="#d62728" stroke-width="1.5" stroke-dasharray="4,4"/><line transform="translate(2204,311.21454545454543)" x2="-2204" y2="0" stroke="#d62728" stroke-width="1.5" stroke-dasharray="4,4"/><line transform="translate(2204,311.21454545454543)" x2="-2204" y2="0" stroke="#d62728" stroke-width="1.5" stroke-dasharray="4,4"/><line transform="translate(2204,311.21454545454543)" x2="-2204" y2="0" stroke="#d62728" stroke-width="1.5" stroke-dasharray="4,4"/><line transform="translate(2204,311.21454545454543)" x2="-2204" y2="0" stroke="#d62728" stroke-width="1.5" stroke-dasharray="4,4"/><line transform="translate(2204,311.21454545454543)" x2="-2204" y2="0" stroke="#d62728" stroke-width="1.5" stroke-dasharray="4,4"/><line transform="translate(2204,311.21454545454543)" x2="-2204" y2="0" stroke="#d62728" stroke-width="1.5" stroke-dasharray="4,4"/><line transform="translate(2204,311.21454545454543)" x2="-2204" y2="0" stroke="#d62728" stroke-width="1.5" stroke-dasharray="4,4"/><line transform="translate(2204,311.21454545454543)" x2="-2204" y2="0" stroke="#d62728" stroke-width="1.5" stroke-dasharray="4,4"/><line transform="translate(2204,311.21454545454543)" x2="-2204" y2="0" stroke="#d62728" stroke-width="1.5" stroke-dasharray="4,4"/><line transform="translate(2204,311.21454545454543)" x2="-2204" y2="0" stroke="#d62728" stroke-width="1.5" stroke-dasharray="4,4"/><line transform="translate(2204,311.21454545454543)" x2="-2204" y2="0" stroke="#d62728" stroke-width="1.5" stroke-dasharray="4,4"/><line transform="translate(2204,311.21454545454543)" x2="-2204" y2="0" stroke="#d62728" stroke-width="1.5" stroke-dasharray="4,4"/><line transform="translate(2204,311.21454545454543)" x2="-2204" y2="0" stroke="#d62728" stroke-width="1.5" stroke-dasharray="4,4"/><line transform="translate(2204,311.21454545454543)" x2="-2204" y2="0" stroke="#d62728" stroke-width="1.5" stroke-dasharray="4,4"/><line transform="translate(2204,311.21454545454543)" x2="-2204" y2="0" stroke="#d62728" stroke-width="1.5" stroke-dasharray="4,4"/><line transform="translate(2204,311.21454545454543)" x2="-2204" y2="0" stroke="#d62728" stroke-width="1.5" stroke-dasharray="4,4"/><line transform="translate(2204,311.21454545454543)" x2="-2204" y2="0" stroke="#d62728" stroke-width="1.5" stroke-dasharray="4,4"/><line transform="translate(2204,311.21454545454543)" x2="-2204" y2="0" stroke="#d62728" stroke-width="1.5" stroke-dasharray="4,4"/><line transform="translate(2204,311.21454545454543)" x2="-2204" y2="0" stroke="#d62728" stroke-width="1.5" stroke-dasharray="4,4"/></g><g class="mark-text role-mark layer_6_marks" role="graphics-object" aria-roledescription="text mark container" pointer-events="none"><text aria-label="date: Nov 05, 2025" role="graphics-symbol" aria-roledescription="text mark" text-anchor="start" transform="translate(2210,309.21454545454543)" font-family="sans-serif" font-size="12px" fill="#d62728">Avg: 19.34</text></g></g><path class="foreground" aria-hidden="true" d="" display="none"/></g></g></g></svg>
