<svg xmlns="http://www.w3.org/2000/svg" xmlns:xlink="http://www.w3.org/1999/xlink" version="1.1" class="marks" width="875" height="593" viewBox="0 0 875 593"><rect width="875" height="593" fill="white"/><g fill="none" stroke-miterlimit="10" transform="translate(68,13)"><g class="mark-group role-frame root" role="graphics-object" aria-roledescription="group mark container"><g transform="translate(0,0)"><path class="background" aria-hidden="true" d="M0.5,0.5h700v480h-700Z"/><g><g class="mark-group role-axis" aria-hidden="true"><g transform="translate(0.5,0.5)"><path class="background" aria-hidden="true" d="M0,0h0v0h0Z" pointer-events="none"/><g><g class="mark-rule role-axis-grid" pointer-events="none"><line transform="translate(0,480)" x2="700" y2="0" stroke="#ddd" stroke-width="1" opacity="1"/><line transform="translate(0,436)" x2="700" y2="0" stroke="#ddd" stroke-width="1" opacity="1"/><line transform="translate(0,393)" x2="700" y2="0" stroke="#ddd" stroke-width="1" opacity="1"/><line transform="translate(0,349)" x2="700" y2="0" stroke="#ddd" stroke-width="1" opacity="1"/><line transform="translate(0,305)" x2="700" y2="0" stroke="#ddd" stroke-width="1" opacity="1"/><line transform="translate(0,262)" x2="700" y2="0" stroke="#ddd" stroke-width="1" opacity="1"/><line transform="translate(0,218)" x2="700" y2="0" stroke="#ddd" stroke-width="1" opacity="1"/><line transform="translate(0,175)" x2="700" y2="0" stroke="#ddd" stroke-width="1" opacity="1"/><line transform="translate(0,131)" x2="700" y2="0" stroke="#ddd" stroke-width="1" opacity="1"/><line transform="translate(0,87)" x2="700" y2="0" stroke="#ddd" stroke-width="1" opacity="1"/><line transform="translate(0,44)" x2="700" y2="0" stroke="#ddd" stroke-width="1" opacity="1"/><line transform="translate(0,0)" x2="700" y2="0" stroke="#ddd" stroke-width="1" opacity="1"/></g></g><path class="foreground" aria-hidden="true" d="" pointer-events="none" display="none"/></g></g><g class="mark-group role-axis" role="graphics-symbol" aria-roledescription="axis" aria-label="X-axis titled 'Date' for a time scale with values from 2025-09-08 to 2025-09-16"><g transform="translate(0.5,480.5)"><path class="background" aria-hidden="true" d="M0,0h0v0h0Z" pointer-events="none"/><g><g class="mark-rule role-axis-tick" pointer-events="none"><line transform="translate(0,0)" x2="0" y2="5" stroke="#bbb" stroke-width="1" opacity="1"/><line transform="translate(44,0)" x2="0" y2="5" stroke="#bbb" stroke-width="1" opacity="1"/><line transform="translate(88,0)" x2="0" y2="5" stroke="#bbb" stroke-width="1" opacity="1"/><line transform="translate(131,0)" x2="0" y2="5" stroke="#bbb" stroke-width="1" opacity="1"/><line transform="translate(175,0)" x2="0" y2="5" stroke="#bbb" stroke-width="1" opacity="1"/><line transform="translate(219,0)" x2="0" y2="5" stroke="#bbb" stroke-width="1" opacity="1"/><line transform="translate(263,0)" x2="0" y2="5" stroke="#bbb" stroke-width="1" opacity="1"/><line transform="translate(306,0)" x2="0" y2="5" stroke="#bbb" stroke-width="1" opacity="1"/><line transform="translate(350,0)" x2="0" y2="5" stroke="#bbb" stroke-width="1" opacity="1"/><line transform="translate(394,0)" x2="0" y2="5" stroke="#bbb" stroke-width="1" opacity="1"/><line transform="translate(438,0)" x2="0" y2="5" stroke="#bbb" stroke-width="1" opacity="1"/><line transform="translate(481,0)" x2="0" y2="5" stroke="#bbb" stroke-width="1" opacity="1"/><line transform="translate(525,0)" x2="0" y2="5" stroke="#bbb" stroke-width="1" opacity="1"/><line transform="translate(569,0)" x2="0" y2="5" stroke="#bbb" stroke-width="1" opacity="1"/><line transform="translate(613,0)" x2="0" y2="5" stroke="#bbb" stroke-width="1" opacity="1"/><line transform="translate(656,0)" x2="0" y2="5" stroke="#bbb" stroke-width="1" opacity="1"/><line transform="translate(700,0)" x2="0" y2="5" stroke="#bbb" stroke-width="1" opacity="1"/></g><g class="mark-text role-axis-label" pointer-events="none"><text text-anchor="end" transform="translate(0,7) rotate(315) translate(0,9)" font-family="Segoe UI" font-size="11px" fill="#000" opacity="1">2025-09-08</text><text text-anchor="end" transform="translate(43.75,7) rotate(315) translate(0,9)" font-family="Segoe UI" font-size="11px" fill="#000" opacity="0">2025-09-08</text><text text-anchor="end" transform="translate(87.5,7) rotate(315) translate(0,9)" font-family="Segoe UI" font-size="11px" fill="#000" opacity="1">2025-09-09</text><text text-anchor="end" transform="translate(131.25,7) rotate(315) translate(0,9)" font-family="Segoe UI" font-size="11px" fill="#000" opacity="0">2025-09-09</text><text text-anchor="end" transform="translate(175,7) rotate(315) translate(0,9)" font-family="Segoe UI" font-size="11px" fill="#000" opacity="1">2025-09-10</text><text text-anchor="end" transform="translate(218.75,7) rotate(315) translate(0,9)" font-family="Segoe UI" font-size="11px" fill="#000" opacity="0">2025-09-10</text><text text-anchor="end" transform="translate(262.5,7) rotate(315) translate(0,9)" font-family="Segoe UI" font-size="11px" fill="#000" opacity="1">2025-09-11</text><text text-anchor="end" transform="translate(306.25,7) rotate(315) translate(0,9)" font-family="Segoe UI" font-size="11px" fill="#000" opacity="0">2025-09-11</text><text text-anchor="end" transform="translate(350,7) rotate(315) translate(0,9)" font-family="Segoe UI" font-size="11px" fill="#000" opacity="1">2025-09-12</text><text text-anchor="end" transform="translate(393.75,7) rotate(315) translate(0,9)" font-family="Segoe UI" font-size="11px" fill="#000" opacity="0">2025-09-12</text><text text-anchor="end" transform="translate(437.5,7) rotate(315) translate(0,9)" font-family="Segoe UI" font-size="11px" fill="#000" opacity="1">2025-09-13</text><text text-anchor="end" transform="translate(481.25,7) rotate(315) translate(0,9)" font-family="Segoe UI" font-size="11px" fill="#000" opacity="0">2025-09-13</text><text text-anchor="end" transform="translate(525,7) rotate(315) translate(0,9)" font-family="Segoe UI" font-size="11px" fill="#000" opacity="1">2025-09-14</text><text text-anchor="end" transform="translate(568.75,7) rotate(315) translate(0,9)" font-family="Segoe UI" font-size="11px" fill="#000" opacity="0">2025-09-14</text><text text-anchor="end" transform="translate(612.5,7) rotate(315) translate(0,9)" font-family="Segoe UI" font-size="11px" fill="#000" opacity="1">2025-09-15</text><text text-anchor="end" transform="translate(656.25,7) rotate(315) translate(0,9)" font-family="Segoe UI" font-size="11px" fill="#000" opacity="0">2025-09-15</text><text text-anchor="end" transform="translate(700,7) rotate(315) translate(0,9)" font-family="Segoe UI" font-size="11px" fill="#000" opacity="1">2025-09-16</text></g><g class="mark-rule role-axis-domain" pointer-events="none"><line transform="translate(0,0)" x2="700" y2="0" stroke="#888" stroke-width="1" opacity="1"/></g><g class="mark-text role-axis-title" pointer-events="none"><text text-anchor="middle" transform="translate(350,91.00357133746826)" font-family="Segoe UI" font-size="13px" font-weight="bold" fill="#000" opacity="1">Date</text></g></g><path class="foreground" aria-hidden="true" d="" pointer-events="none" display="none"/></g></g><g class="mark-group role-axis" role="graphics-symbol" aria-roledescription="axis" aria-label="Y-axis titled 'Unique server names' for a linear scale with values from 0 to 55"><g transform="translate(0.5,0.5)"><path class="background" aria-hidden="true" d="M0,0h0v0h0Z" pointer-events="none"/><g><g class="mark-rule role-axis-tick" pointer-events="none"><line transform="translate(0,480)" x2="-5" y2="0" stroke="#bbb" stroke-width="1" opacity="1"/><line transform="translate(0,436)" x2="-5" y2="0" stroke="#bbb" stroke-width="1" opacity="1"/><line transform="translate(0,393)" x2="-5" y2="0" stroke="#bbb" stroke-width="1" opacity="1"/><line transform="translate(0,349)" x2="-5" y2="0" stroke="#bbb" stroke-width="1" opacity="1"/><line transform="translate(0,305)" x2="-5" y2="0" stroke="#bbb" stroke-width="1" opacity="1"/><line transform="translate(0,262)" x2="-5" y2="0" stroke="#bbb" stroke-width="1" opacity="1"/><line transform="translate(0,218)" x2="-5" y2="0" stroke="#bbb" stroke-width="1" opacity="1"/><line transform="translate(0,175)" x2="-5" y2="0" stroke="#bbb" stroke-width="1" opacity="1"/><line transform="translate(0,131)" x2="-5" y2="0" stroke="#bbb" stroke-width="1" opacity="1"/><line transform="translate(0,87)" x2="-5" y2="0" stroke="#bbb" stroke-width="1" opacity="1"/><line transform="translate(0,44)" x2="-5" y2="0" stroke="#bbb" stroke-width="1" opacity="1"/><line transform="translate(0,0)" x2="-5" y2="0" stroke="#bbb" stroke-width="1" opacity="1"/></g><g class="mark-text role-axis-label" pointer-events="none"><text text-anchor="end" transform="translate(-7,483)" font-family="Segoe UI" font-size="11px" fill="#000" opacity="1">0</text><text text-anchor="end" transform="translate(-7,439.3636363636364)" font-family="Segoe UI" font-size="11px" fill="#000" opacity="1">5</text><text text-anchor="end" transform="translate(-7,395.7272727272727)" font-family="Segoe UI" font-size="11px" fill="#000" opacity="1">10</text><text text-anchor="end" transform="translate(-7,352.0909090909091)" font-family="Segoe UI" font-size="11px" fill="#000" opacity="1">15</text><text text-anchor="end" transform="translate(-7,308.45454545454544)" font-family="Segoe UI" font-size="11px" fill="#000" opacity="1">20</text><text text-anchor="end" transform="translate(-7,264.8181818181818)" font-family="Segoe UI" font-size="11px" fill="#000" opacity="1">25</text><text text-anchor="end" transform="translate(-7,221.1818181818182)" font-family="Segoe UI" font-size="11px" fill="#000" opacity="1">30</text><text text-anchor="end" transform="translate(-7,177.54545454545456)" font-family="Segoe UI" font-size="11px" fill="#000" opacity="1">35</text><text text-anchor="end" transform="translate(-7,133.9090909090909)" font-family="Segoe UI" font-size="11px" fill="#000" opacity="1">40</text><text text-anchor="end" transform="translate(-7,90.27272727272725)" font-family="Segoe UI" font-size="11px" fill="#000" opacity="1">45</text><text text-anchor="end" transform="translate(-7,46.636363636363654)" font-family="Segoe UI" font-size="11px" fill="#000" opacity="1">50</text><text text-anchor="end" transform="translate(-7,3)" font-family="Segoe UI" font-size="11px" fill="#000" opacity="1">55</text></g><g class="mark-rule role-axis-domain" pointer-events="none"><line transform="translate(0,480)" x2="0" y2="-480" stroke="#888" stroke-width="1" opacity="1"/></g><g class="mark-text role-axis-title" pointer-events="none"><text text-anchor="middle" transform="translate(-28,240) rotate(-90) translate(0,-3)" font-family="Segoe UI" font-size="13px" font-weight="bold" fill="#000" opacity="1">Unique server names</text></g></g><path class="foreground" aria-hidden="true" d="" pointer-events="none" display="none"/></g></g><g class="mark-area role-mark layer_0_marks" role="graphics-object" aria-roledescription="area mark container" pointer-events="none"><path aria-label="date: 2025-09-08; count: 1" role="graphics-symbol" aria-roledescription="area mark" d="M0,471.273C29.167,235.636,58.333,0,87.5,0C116.667,0,145.833,11.636,175,34.909C204.167,58.182,233.333,148.364,262.5,165.818C291.667,183.273,320.833,174.545,350,192C379.167,209.455,408.333,293.818,437.5,305.455C466.667,317.091,495.833,322.909,525,322.909C554.167,322.909,583.333,261.818,612.5,261.818C641.667,261.818,670.833,327.273,700,392.727L700,480C670.833,480,641.667,480,612.5,480C583.333,480,554.167,480,525,480C495.833,480,466.667,480,437.5,480C408.333,480,379.167,480,350,480C320.833,480,291.667,480,262.5,480C233.333,480,204.167,480,175,480C145.833,480,116.667,480,87.5,480C58.333,480,29.167,480,0,480Z" fill="#4e79a7" opacity="0.18"/></g><g class="mark-line role-mark layer_1_marks" role="graphics-object" aria-roledescription="line mark container" pointer-events="none"><path aria-label="date: Sep 08, 2025; count: 1" role="graphics-symbol" aria-roledescription="line mark" d="M0,471.273C29.167,235.636,58.333,0,87.5,0C116.667,0,145.833,11.636,175,34.909C204.167,58.182,233.333,148.364,262.5,165.818C291.667,183.273,320.833,174.545,350,192C379.167,209.455,408.333,293.818,437.5,305.455C466.667,317.091,495.833,322.909,525,322.909C554.167,322.909,583.333,261.818,612.5,261.818C641.667,261.818,670.833,327.273,700,392.727" stroke="#4e79a7" stroke-width="2"/></g><g class="mark-line role-mark layer_2_marks" role="graphics-object" aria-roledescription="line mark container" pointer-events="none"><path aria-label="date: Sep 08, 2025; ma7: 1" role="graphics-symbol" aria-roledescription="line mark" d="M0,471.273C29.167,375.758,58.333,280.242,87.5,235.636C116.667,191.03,145.833,169.212,175,168.727C204.167,168.242,233.333,168,262.5,168C291.667,168,320.833,169.6,350,172.8C379.167,176,408.333,188.177,437.5,194.909C466.667,201.642,495.833,213.195,525,213.195C554.167,213.195,583.333,183.273,612.5,183.273C641.667,183.273,670.833,211.325,700,239.377" stroke="#d62728" stroke-width="2" stroke-dasharray="6,4"/></g><g class="mark-symbol role-mark layer_3_marks" role="graphics-object" aria-roledescription="symbol mark container"><path aria-label="date: Sep 08, 2025; count: 1; Date: Sep 08, 2025; Daily unique: 1; 7d avg: 1" role="graphics-symbol" aria-roledescription="point" transform="translate(0,471.27272727272725)" d="M3.536,0A3.536,3.536,0,1,1,-3.536,0A3.536,3.536,0,1,1,3.536,0" fill="#4e79a7" stroke-width="2" opacity="0.55"/><path aria-label="date: Sep 09, 2025; count: 55; Date: Sep 09, 2025; Daily unique: 55; 7d avg: 28" role="graphics-symbol" aria-roledescription="point" transform="translate(87.5,0)" d="M3.536,0A3.536,3.536,0,1,1,-3.536,0A3.536,3.536,0,1,1,3.536,0" fill="#4e79a7" stroke-width="2" opacity="0.55"/><path aria-label="date: Sep 10, 2025; count: 51; Date: Sep 10, 2025; Daily unique: 51; 7d avg: 35.6666666667" role="graphics-symbol" aria-roledescription="point" transform="translate(175,34.90909090909092)" d="M3.536,0A3.536,3.536,0,1,1,-3.536,0A3.536,3.536,0,1,1,3.536,0" fill="#4e79a7" stroke-width="2" opacity="0.55"/><path aria-label="date: Sep 11, 2025; count: 36; Date: Sep 11, 2025; Daily unique: 36; 7d avg: 35.75" role="graphics-symbol" aria-roledescription="point" transform="translate(262.5,165.8181818181818)" d="M3.536,0A3.536,3.536,0,1,1,-3.536,0A3.536,3.536,0,1,1,3.536,0" fill="#4e79a7" stroke-width="2" opacity="0.55"/><path aria-label="date: Sep 12, 2025; count: 33; Date: Sep 12, 2025; Daily unique: 33; 7d avg: 35.2" role="graphics-symbol" aria-roledescription="point" transform="translate(350,192)" d="M3.536,0A3.536,3.536,0,1,1,-3.536,0A3.536,3.536,0,1,1,3.536,0" fill="#4e79a7" stroke-width="2" opacity="0.55"/><path aria-label="date: Sep 13, 2025; count: 20; Date: Sep 13, 2025; Daily unique: 20; 7d avg: 32.6666666667" role="graphics-symbol" aria-roledescription="point" transform="translate(437.5,305.45454545454544)" d="M3.536,0A3.536,3.536,0,1,1,-3.536,0A3.536,3.536,0,1,1,3.536,0" fill="#4e79a7" stroke-width="2" opacity="0.55"/><path aria-label="date: Sep 14, 2025; count: 18; Date: Sep 14, 2025; Daily unique: 18; 7d avg: 30.5714285714" role="graphics-symbol" aria-roledescription="point" transform="translate(525,322.90909090909093)" d="M3.536,0A3.536,3.536,0,1,1,-3.536,0A3.536,3.536,0,1,1,3.536,0" fill="#4e79a7" stroke-width="2" opacity="0.55"/><path aria-label="date: Sep 15, 2025; count: 25; Date: Sep 15, 2025; Daily unique: 25; 7d avg: 34" role="graphics-symbol" aria-roledescription="point" transform="translate(612.5,261.8181818181818)" d="M3.536,0A3.536,3.536,0,1,1,-3.536,0A3.536,3.536,0,1,1,3.536,0" fill="#4e79a7" stroke-width="2" opacity="0.55"/><path aria-label="date: Sep 16, 2025; count: 10; Date: Sep 16, 2025; Daily unique: 10; 7d avg: 27.5714285714" role="graphics-symbol" aria-roledescription="point" transform="translate(700,392.7272727272727)" d="M3.536,0A3.536,3.536,0,1,1,-3.536,0A3.536,3.536,0,1,1,3.536,0" fill="#4e79a7" stroke-width="2" opacity="0.55"/></g><g class="mark-path role-mark layer_3_voronoi" aria-hidden="true"><path transform="translate(0,0)" d="M0,480L0,227.51341321198092L32.30025704431574,233.5105191929134L221.77246112900966,396.3381945781972L253.48137190082645,480Z" stroke-width="0.35"/><path transform="translate(0,0)" d="M0,0L138.21368358913816,0L54.32614038853704,210.26500086088163L32.30025704431574,233.5105191929134L0,227.51341321198092Z" stroke-width="0.35"/><path transform="translate(0,0)" d="M364.34387249114525,0L357.50304014167654,7.6207189078282624L54.32614038853704,210.26500086088163L138.21368358913816,0Z" stroke-width="0.35"/><path transform="translate(0,0)" d="M357.50304014167654,7.6207189078282624L252.84163400236125,357.4005918560606L221.77246112900966,396.3381945781972L32.30025704431574,233.5105191929134L54.32614038853704,210.26500086088163Z" stroke-width="0.35"/><path transform="translate(0,0)" d="M357.50304014167654,7.6207189078282624L364.34387249114525,0L541.6019244391971,0L496.5300091404197,169.4598377932551L252.84163400236125,357.4005918560606Z" stroke-width="0.35"/><path transform="translate(0,0)" d="M252.84163400236125,357.4005918560606L496.5300091404197,169.4598377932551L504.0795684113866,199.7367161195287L448.17250295159374,480L253.48137190082645,480L221.77246112900966,396.3381945781972Z" stroke-width="0.35"/><path transform="translate(0,0)" d="M448.17250295159374,480L504.0795684113866,199.7367161195287L613.2087903831706,356.0415913395317L563.7542148760331,480Z" stroke-width="0.35"/><path transform="translate(0,0)" d="M700,0L700,298.03010574494954L613.2087903831706,356.0415913395317L504.0795684113866,199.7367161195287L496.5300091404197,169.4598377932551L541.6019244391971,0Z" stroke-width="0.35"/><path transform="translate(0,0)" d="M700,480L563.7542148760331,480L613.2087903831706,356.0415913395317L700,298.03010574494954Z" stroke-width="0.35"/></g><g class="mark-symbol role-mark layer_4_marks" role="graphics-object" aria-roledescription="symbol mark container"><path aria-label="date: Sep 08, 2025; count: 1; Peak date: Sep 08, 2025; Peak unique count: 1" role="graphics-symbol" aria-roledescription="point" transform="translate(0,471.27272727272725)" d="M-5.916,0L0,-5.916L5.916,0L0,5.916Z" fill="#ff9900" stroke="#b36b00" stroke-width="1.5" opacity="0"/><path aria-label="date: Sep 09, 2025; count: 55; Peak date: Sep 09, 2025; Peak unique count: 55" role="graphics-symbol" aria-roledescription="point" transform="translate(87.5,0)" d="M-5.916,0L0,-5.916L5.916,0L0,5.916Z" fill="#ff9900" stroke="#b36b00" stroke-width="1.5" opacity="1"/><path aria-label="date: Sep 10, 2025; count: 51; Peak date: Sep 10, 2025; Peak unique count: 51" role="graphics-symbol" aria-roledescription="point" transform="translate(175,34.90909090909092)" d="M-5.916,0L0,-5.916L5.916,0L0,5.916Z" fill="#ff9900" stroke="#b36b00" stroke-width="1.5" opacity="0"/><path aria-label="date: Sep 11, 2025; count: 36; Peak date: Sep 11, 2025; Peak unique count: 36" role="graphics-symbol" aria-roledescription="point" transform="translate(262.5,165.8181818181818)" d="M-5.916,0L0,-5.916L5.916,0L0,5.916Z" fill="#ff9900" stroke="#b36b00" stroke-width="1.5" opacity="0"/><path aria-label="date: Sep 12, 2025; count: 33; Peak date: Sep 12, 2025; Peak unique count: 33" role="graphics-symbol" aria-roledescription="point" transform="translate(350,192)" d="M-5.916,0L0,-5.916L5.916,0L0,5.916Z" fill="#ff9900" stroke="#b36b00" stroke-width="1.5" opacity="0"/><path aria-label="date: Sep 13, 2025; count: 20; Peak date: Sep 13, 2025; Peak unique count: 20" role="graphics-symbol" aria-roledescription="point" transform="translate(437.5,305.45454545454544)" d="M-5.916,0L0,-5.916L5.916,0L0,5.916Z" fill="#ff9900" stroke="#b36b00" stroke-width="1.5" opacity="0"/><path aria-label="date: Sep 14, 2025; count: 18; Peak date: Sep 14, 2025; Peak unique count: 18" role="graphics-symbol" aria-roledescription="point" transform="translate(525,322.90909090909093)" d="M-5.916,0L0,-5.916L5.916,0L0,5.916Z" fill="#ff9900" stroke="#b36b00" stroke-width="1.5" opacity="0"/><path aria-label="date: Sep 15, 2025; count: 25; Peak date: Sep 15, 2025; Peak unique count: 25" role="graphics-symbol" aria-roledescription="point" transform="translate(612.5,261.8181818181818)" d="M-5.916,0L0,-5.916L5.916,0L0,5.916Z" fill="#ff9900" stroke="#b36b00" stroke-width="1.5" opacity="0"/><path aria-label="date: Sep 16, 2025; count: 10; Peak date: Sep 16, 2025; Peak unique count: 10" role="graphics-symbol" aria-roledescription="point" transform="translate(700,392.7272727272727)" d="M-5.916,0L0,-5.916L5.916,0L0,5.916Z" fill="#ff9900" stroke="#b36b00" stroke-width="1.5" opacity="0"/></g><g class="mark-rule role-mark layer_5_marks" role="graphics-symbol" aria-roledescription="rule mark container" pointer-events="none"><line transform="translate(700,238.51636363636362)" x2="-700" y2="0" stroke="#d62728" stroke-width="1.5" stroke-dasharray="4,4"/><line transform="translate(700,238.51636363636362)" x2="-700" y2="0" stroke="#d62728" stroke-width="1.5" stroke-dasharray="4,4"/><line transform="translate(700,238.51636363636362)" x2="-700" y2="0" stroke="#d62728" stroke-width="1.5" stroke-dasharray="4,4"/><line transform="translate(700,238.51636363636362)" x2="-700" y2="0" stroke="#d62728" stroke-width="1.5" stroke-dasharray="4,4"/><line transform="translate(700,238.51636363636362)" x2="-700" y2="0" stroke="#d62728" stroke-width="1.5" stroke-dasharray="4,4"/><line transform="translate(700,238.51636363636362)" x2="-700" y2="0" stroke="#d62728" stroke-width="1.5" stroke-dasharray="4,4"/><line transform="translate(700,238.51636363636362)" x2="-700" y2="0" stroke="#d62728" stroke-width="1.5" stroke-dasharray="4,4"/><line transform="translate(700,238.51636363636362)" x2="-700" y2="0" stroke="#d62728" stroke-width="1.5" stroke-dasharray="4,4"/><line transform="translate(700,238.51636363636362)" x2="-700" y2="0" stroke="#d62728" stroke-width="1.5" stroke-dasharray="4,4"/></g><g class="mark-text role-mark layer_6_marks" role="graphics-object" aria-roledescription="text mark container" pointer-events="none"><text aria-label="date: Sep 16, 2025" role="graphics-symbol" aria-roledescription="text mark" text-anchor="start" transform="translate(706,236.51636363636362)" font-family="sans-serif" font-size="12px" fill="#d62728">Avg: 27.67</text></g></g><path class="foreground" aria-hidden="true" d="" display="none"/></g></g></g></svg>