<svg xmlns="http://www.w3.org/2000/svg" xmlns:xlink="http://www.w3.org/1999/xlink" version="1.1" class="marks" width="2439" height="573" viewBox="0 0 2439 573"><rect width="2439" height="573" fill="white"/><g fill="none" stroke-miterlimit="10" transform="translate(51,11)"><g class="mark-group role-frame root" role="graphics-object" aria-roledescription="group mark container"><g transform="translate(0,0)"><path class="background" aria-hidden="true" d="M0.5,0.5h2312v480h-2312Z"/><g><g class="mark-group role-axis" aria-hidden="true"><g transform="translate(0.5,0.5)"><path class="background" aria-hidden="true" d="M0,0h0v0h0Z" pointer-events="none"/><g><g class="mark-rule role-axis-grid" pointer-events="none"><line transform="translate(0,480)" x2="2312" y2="0" stroke="#ddd" stroke-width="1" opacity="1"/><line transform="translate(0,436)" x2="2312" y2="0" stroke="#ddd" stroke-width="1" opacity="1"/><line transform="translate(0,393)" x2="2312" y2="0" stroke="#ddd" stroke-width="1" opacity="1"/><line transform="translate(0,349)" x2="2312" y2="0" stroke="#ddd" stroke-width="1" opacity="1"/><line transform="translate(0,305)" x2="2312" y2="0" stroke="#ddd" stroke-width="1" opacity="1"/><line transform="translate(0,262)" x2="2312" y2="0" stroke="#ddd" stroke-width="1" opacity="1"/><line transform="translate(0,218)" x2="2312" y2="0" stroke="#ddd" stroke-width="1" opacity="1"/><line transform="translate(0,175)" x2="2312" y2="0" stroke="#ddd" stroke-width="1" opacity="1"/><line transform="translate(0,131)" x2="2312" y2="0" stroke="#ddd" stroke-width="1" opacity="1"/><line transform="translate(0,87)" x2="2312" y2="0" stroke="#ddd" stroke-width="1" opacity="1"/><line transform="translate(0,44)" x2="2312" y2="0" stroke="#ddd" stroke-width="1" opacity="1"/><line transform="translate(0,0)" x2="2312" y2="0" stroke="#ddd" stroke-width="1" opacity="1"/></g></g><path class="foreground" aria-hidden="true" d="" pointer-events="none" display="none"/></g></g><g class="mark-group role-axis" role="graphics-symbol" aria-roledescription="axis" aria-label="X-axis titled 'Date' for a time scale with values from 2025-09-08 to 2025-11-08"><g transform="translate(0.5,480.5)"><path class="background" aria-hidden="true" d="M0,0h0v0h0Z" pointer-events="none"/><g><g class="mark-rule role-axis-tick" pointer-events="none"><line transform="translate(0,0)" x2="0" y2="5" stroke="#bbb" stroke-width="1" opacity="1"/><line transform="translate(38,0)" x2="0" y2="5" stroke="#bbb" stroke-width="1" opacity="1"/><line transform="translate(76,0)" x2="0" y2="5" stroke="#bbb" stroke-width="1" opacity="1"/><line transform="translate(114,0)" x2="0" y2="5" stroke="#bbb" stroke-width="1" opacity="1"/><line transform="translate(152,0)" x2="0" y2="5" stroke="#bbb" stroke-width="1" opacity="1"/><line transform="translate(190,0)" x2="0" y2="5" stroke="#bbb" stroke-width="1" opacity="1"/><line transform="translate(227,0)" x2="0" y2="5" stroke="#bbb" stroke-width="1" opacity="1"/><line transform="translate(265,0)" x2="0" y2="5" stroke="#bbb" stroke-width="1" opacity="1"/><line transform="translate(303,0)" x2="0" y2="5" stroke="#bbb" stroke-width="1" opacity="1"/><line transform="translate(341,0)" x2="0" y2="5" stroke="#bbb" stroke-width="1" opacity="1"/><line transform="translate(379,0)" x2="0" y2="5" stroke="#bbb" stroke-width="1" opacity="1"/><line transform="translate(417,0)" x2="0" y2="5" stroke="#bbb" stroke-width="1" opacity="1"/><line transform="translate(455,0)" x2="0" y2="5" stroke="#bbb" stroke-width="1" opacity="1"/><line transform="translate(493,0)" x2="0" y2="5" stroke="#bbb" stroke-width="1" opacity="1"/><line transform="translate(531,0)" x2="0" y2="5" stroke="#bbb" stroke-width="1" opacity="1"/><line transform="translate(569,0)" x2="0" y2="5" stroke="#bbb" stroke-width="1" opacity="1"/><line transform="translate(606,0)" x2="0" y2="5" stroke="#bbb" stroke-width="1" opacity="1"/><line transform="translate(644,0)" x2="0" y2="5" stroke="#bbb" stroke-width="1" opacity="1"/><line transform="translate(682,0)" x2="0" y2="5" stroke="#bbb" stroke-width="1" opacity="1"/><line transform="translate(720,0)" x2="0" y2="5" stroke="#bbb" stroke-width="1" opacity="1"/><line transform="translate(758,0)" x2="0" y2="5" stroke="#bbb" stroke-width="1" opacity="1"/><line transform="translate(796,0)" x2="0" y2="5" stroke="#bbb" stroke-width="1" opacity="1"/><line transform="translate(834,0)" x2="0" y2="5" stroke="#bbb" stroke-width="1" opacity="1"/><line transform="translate(872,0)" x2="0" y2="5" stroke="#bbb" stroke-width="1" opacity="1"/><line transform="translate(910,0)" x2="0" y2="5" stroke="#bbb" stroke-width="1" opacity="1"/><line transform="translate(948,0)" x2="0" y2="5" stroke="#bbb" stroke-width="1" opacity="1"/><line transform="translate(985,0)" x2="0" y2="5" stroke="#bbb" stroke-width="1" opacity="1"/><line transform="translate(1023,0)" x2="0" y2="5" stroke="#bbb" stroke-width="1" opacity="1"/><line transform="translate(1061,0)" x2="0" y2="5" stroke="#bbb" stroke-width="1" opacity="1"/><line transform="translate(1099,0)" x2="0" y2="5" stroke="#bbb" stroke-width="1" opacity="1"/><line transform="translate(1137,0)" x2="0" y2="5" stroke="#bbb" stroke-width="1" opacity="1"/><line transform="translate(1175,0)" x2="0" y2="5" stroke="#bbb" stroke-width="1" opacity="1"/><line transform="translate(1213,0)" x2="0" y2="5" stroke="#bbb" stroke-width="1" opacity="1"/><line transform="translate(1251,0)" x2="0" y2="5" stroke="#bbb" stroke-width="1" opacity="1"/><line transform="translate(1289,0)" x2="0" y2="5" stroke="#bbb" stroke-width="1" opacity="1"/><line transform="translate(1327,0)" x2="0" y2="5" stroke="#bbb" stroke-width="1" opacity="1"/><line transform="translate(1364,0)" x2="0" y2="5" stroke="#bbb" stroke-width="1" opacity="1"/><line transform="translate(1402,0)" x2="0" y2="5" stroke="#bbb" stroke-width="1" opacity="1"/><line transform="translate(1440,0)" x2="0" y2="5" stroke="#bbb" stroke-width="1" opacity="1"/><line transform="translate(1478,0)" x2="0" y2="5" stroke="#bbb" stroke-width="1" opacity="1"/><line transform="translate(1516,0)" x2="0" y2="5" stroke="#bbb" stroke-width="1" opacity="1"/><line transform="translate(1554,0)" x2="0" y2="5" stroke="#bbb" stroke-width="1" opacity="1"/><line transform="translate(1592,0)" x2="0" y2="5" stroke="#bbb" stroke-width="1" opacity="1"/><line transform="translate(1630,0)" x2="0" y2="5" stroke="#bbb" stroke-width="1" opacity="1"/><line transform="translate(1668,0)" x2="0" y2="5" stroke="#bbb" stroke-width="1" opacity="1"/><line transform="translate(1706,0)" x2="0" y2="5" stroke="#bbb" stroke-width="1" opacity="1"/><line transform="translate(1743,0)" x2="0" y2="5" stroke="#bbb" stroke-width="1" opacity="1"/><line transform="translate(1781,0)" x2="0" y2="5" stroke="#bbb" stroke-width="1" opacity="1"/><line transform="translate(1819,0)" x2="0" y2="5" stroke="#bbb" stroke-width="1" opacity="1"/><line transform="translate(1857,0)" x2="0" y2="5" stroke="#bbb" stroke-width="1" opacity="1"/><line transform="translate(1895,0)" x2="0" y2="5" stroke="#bbb" stroke-width="1" opacity="1"/><line transform="translate(1933,0)" x2="0" y2="5" stroke="#bbb" stroke-width="1" opacity="1"/><line transform="translate(1971,0)" x2="0" y2="5" stroke="#bbb" stroke-width="1" opacity="1"/><line transform="translate(2009,0)" x2="0" y2="5" stroke="#bbb" stroke-width="1" opacity="1"/><line transform="translate(2047,0)" x2="0" y2="5" stroke="#bbb" stroke-width="1" opacity="1"/><line transform="translate(2085,0)" x2="0" y2="5" stroke="#bbb" stroke-width="1" opacity="1"/><line transform="translate(2122,0)" x2="0" y2="5" stroke="#bbb" stroke-width="1" opacity="1"/><line transform="translate(2160,0)" x2="0" y2="5" stroke="#bbb" stroke-width="1" opacity="1"/><line transform="translate(2198,0)" x2="0" y2="5" stroke="#bbb" stroke-width="1" opacity="1"/><line transform="translate(2236,0)" x2="0" y2="5" stroke="#bbb" stroke-width="1" opacity="1"/><line transform="translate(2274,0)" x2="0" y2="5" stroke="#bbb" stroke-width="1" opacity="1"/><line transform="translate(2312,0)" x2="0" y2="5" stroke="#bbb" stroke-width="1" opacity="1"/></g><g class="mark-text role-axis-label" pointer-events="none"><text text-anchor="end" transform="translate(0,7) rotate(315) translate(0,9)" font-family="Segoe UI" font-size="11px" fill="#000" opacity="1">2025-09-08</text><text text-anchor="end" transform="translate(37.9016393442623,7) rotate(315) translate(0,9)" font-family="Segoe UI" font-size="11px" fill="#000" opacity="0">2025-09-09</text><text text-anchor="end" transform="translate(75.8032786885246,7) rotate(315) translate(0,9)" font-family="Segoe UI" font-size="11px" fill="#000" opacity="1">2025-09-10</text><text text-anchor="end" transform="translate(113.70491803278688,7) rotate(315) translate(0,9)" font-family="Segoe UI" font-size="11px" fill="#000" opacity="0">2025-09-11</text><text text-anchor="end" transform="translate(151.6065573770492,7) rotate(315) translate(0,9)" font-family="Segoe UI" font-size="11px" fill="#000" opacity="1">2025-09-12</text><text text-anchor="end" transform="translate(189.50819672131146,7) rotate(315) translate(0,9)" font-family="Segoe UI" font-size="11px" fill="#000" opacity="0">2025-09-13</text><text text-anchor="end" transform="translate(227.40983606557376,7) rotate(315) translate(0,9)" font-family="Segoe UI" font-size="11px" fill="#000" opacity="1">2025-09-14</text><text text-anchor="end" transform="translate(265.3114754098361,7) rotate(315) translate(0,9)" font-family="Segoe UI" font-size="11px" fill="#000" opacity="0">2025-09-15</text><text text-anchor="end" transform="translate(303.2131147540984,7) rotate(315) translate(0,9)" font-family="Segoe UI" font-size="11px" fill="#000" opacity="1">2025-09-16</text><text text-anchor="end" transform="translate(341.11475409836066,7) rotate(315) translate(0,9)" font-family="Segoe UI" font-size="11px" fill="#000" opacity="0">2025-09-17</text><text text-anchor="end" transform="translate(379.0163934426229,7) rotate(315) translate(0,9)" font-family="Segoe UI" font-size="11px" fill="#000" opacity="1">2025-09-18</text><text text-anchor="end" transform="translate(416.91803278688525,7) rotate(315) translate(0,9)" font-family="Segoe UI" font-size="11px" fill="#000" opacity="0">2025-09-19</text><text text-anchor="end" transform="translate(454.8196721311475,7) rotate(315) translate(0,9)" font-family="Segoe UI" font-size="11px" fill="#000" opacity="1">2025-09-20</text><text text-anchor="end" transform="translate(492.7213114754098,7) rotate(315) translate(0,9)" font-family="Segoe UI" font-size="11px" fill="#000" opacity="0">2025-09-21</text><text text-anchor="end" transform="translate(530.6229508196722,7) rotate(315) translate(0,9)" font-family="Segoe UI" font-size="11px" fill="#000" opacity="1">2025-09-22</text><text text-anchor="end" transform="translate(568.5245901639344,7) rotate(315) translate(0,9)" font-family="Segoe UI" font-size="11px" fill="#000" opacity="0">2025-09-23</text><text text-anchor="end" transform="translate(606.4262295081968,7) rotate(315) translate(0,9)" font-family="Segoe UI" font-size="11px" fill="#000" opacity="1">2025-09-24</text><text text-anchor="end" transform="translate(644.327868852459,7) rotate(315) translate(0,9)" font-family="Segoe UI" font-size="11px" fill="#000" opacity="0">2025-09-25</text><text text-anchor="end" transform="translate(682.2295081967213,7) rotate(315) translate(0,9)" font-family="Segoe UI" font-size="11px" fill="#000" opacity="1">2025-09-26</text><text text-anchor="end" transform="translate(720.1311475409836,7) rotate(315) translate(0,9)" font-family="Segoe UI" font-size="11px" fill="#000" opacity="0">2025-09-27</text><text text-anchor="end" transform="translate(758.0327868852459,7) rotate(315) translate(0,9)" font-family="Segoe UI" font-size="11px" fill="#000" opacity="1">2025-09-28</text><text text-anchor="end" transform="translate(795.9344262295082,7) rotate(315) translate(0,9)" font-family="Segoe UI" font-size="11px" fill="#000" opacity="0">2025-09-29</text><text text-anchor="end" transform="translate(833.8360655737705,7) rotate(315) translate(0,9)" font-family="Segoe UI" font-size="11px" fill="#000" opacity="1">2025-09-30</text><text text-anchor="end" transform="translate(871.7377049180327,7) rotate(315) translate(0,9)" font-family="Segoe UI" font-size="11px" fill="#000" opacity="0">2025-10-01</text><text text-anchor="end" transform="translate(909.639344262295,7) rotate(315) translate(0,9)" font-family="Segoe UI" font-size="11px" fill="#000" opacity="1">2025-10-02</text><text text-anchor="end" transform="translate(947.5409836065573,7) rotate(315) translate(0,9)" font-family="Segoe UI" font-size="11px" fill="#000" opacity="0">2025-10-03</text><text text-anchor="end" transform="translate(985.4426229508196,7) rotate(315) translate(0,9)" font-family="Segoe UI" font-size="11px" fill="#000" opacity="1">2025-10-04</text><text text-anchor="end" transform="translate(1023.344262295082,7) rotate(315) translate(0,9)" font-family="Segoe UI" font-size="11px" fill="#000" opacity="0">2025-10-05</text><text text-anchor="end" transform="translate(1061.2459016393443,7) rotate(315) translate(0,9)" font-family="Segoe UI" font-size="11px" fill="#000" opacity="1">2025-10-06</text><text text-anchor="end" transform="translate(1099.1475409836064,7) rotate(315) translate(0,9)" font-family="Segoe UI" font-size="11px" fill="#000" opacity="0">2025-10-07</text><text text-anchor="end" transform="translate(1137.0491803278687,7) rotate(315) translate(0,9)" font-family="Segoe UI" font-size="11px" fill="#000" opacity="1">2025-10-08</text><text text-anchor="end" transform="translate(1174.9508196721313,7) rotate(315) translate(0,9)" font-family="Segoe UI" font-size="11px" fill="#000" opacity="0">2025-10-09</text><text text-anchor="end" transform="translate(1212.8524590163936,7) rotate(315) translate(0,9)" font-family="Segoe UI" font-size="11px" fill="#000" opacity="1">2025-10-10</text><text text-anchor="end" transform="translate(1250.754098360656,7) rotate(315) translate(0,9)" font-family="Segoe UI" font-size="11px" fill="#000" opacity="0">2025-10-11</text><text text-anchor="end" transform="translate(1288.655737704918,7) rotate(315) translate(0,9)" font-family="Segoe UI" font-size="11px" fill="#000" opacity="1">2025-10-12</text><text text-anchor="end" transform="translate(1326.5573770491803,7) rotate(315) translate(0,9)" font-family="Segoe UI" font-size="11px" fill="#000" opacity="0">2025-10-13</text><text text-anchor="end" transform="translate(1364.4590163934427,7) rotate(315) translate(0,9)" font-family="Segoe UI" font-size="11px" fill="#000" opacity="1">2025-10-14</text><text text-anchor="end" transform="translate(1402.360655737705,7) rotate(315) translate(0,9)" font-family="Segoe UI" font-size="11px" fill="#000" opacity="0">2025-10-15</text><text text-anchor="end" transform="translate(1440.2622950819673,7) rotate(315) translate(0,9)" font-family="Segoe UI" font-size="11px" fill="#000" opacity="1">2025-10-16</text><text text-anchor="end" transform="translate(1478.1639344262296,7) rotate(315) translate(0,9)" font-family="Segoe UI" font-size="11px" fill="#000" opacity="0">2025-10-17</text><text text-anchor="end" transform="translate(1516.0655737704917,7) rotate(315) translate(0,9)" font-family="Segoe UI" font-size="11px" fill="#000" opacity="1">2025-10-18</text><text text-anchor="end" transform="translate(1553.967213114754,7) rotate(315) translate(0,9)" font-family="Segoe UI" font-size="11px" fill="#000" opacity="0">2025-10-19</text><text text-anchor="end" transform="translate(1591.8688524590164,7) rotate(315) translate(0,9)" font-family="Segoe UI" font-size="11px" fill="#000" opacity="1">2025-10-20</text><text text-anchor="end" transform="translate(1629.7704918032787,7) rotate(315) translate(0,9)" font-family="Segoe UI" font-size="11px" fill="#000" opacity="0">2025-10-21</text><text text-anchor="end" transform="translate(1667.672131147541,7) rotate(315) translate(0,9)" font-family="Segoe UI" font-size="11px" fill="#000" opacity="1">2025-10-22</text><text text-anchor="end" transform="translate(1705.5737704918033,7) rotate(315) translate(0,9)" font-family="Segoe UI" font-size="11px" fill="#000" opacity="0">2025-10-23</text><text text-anchor="end" transform="translate(1743.4754098360654,7) rotate(315) translate(0,9)" font-family="Segoe UI" font-size="11px" fill="#000" opacity="1">2025-10-24</text><text text-anchor="end" transform="translate(1781.3770491803277,7) rotate(315) translate(0,9)" font-family="Segoe UI" font-size="11px" fill="#000" opacity="0">2025-10-25</text><text text-anchor="end" transform="translate(1819.27868852459,7) rotate(315) translate(0,9)" font-family="Segoe UI" font-size="11px" fill="#000" opacity="1">2025-10-26</text><text text-anchor="end" transform="translate(1857.1803278688524,7) rotate(315) translate(0,9)" font-family="Segoe UI" font-size="11px" fill="#000" opacity="0">2025-10-27</text><text text-anchor="end" transform="translate(1895.0819672131147,7) rotate(315) translate(0,9)" font-family="Segoe UI" font-size="11px" fill="#000" opacity="1">2025-10-28</text><text text-anchor="end" transform="translate(1932.9836065573772,7) rotate(315) translate(0,9)" font-family="Segoe UI" font-size="11px" fill="#000" opacity="0">2025-10-29</text><text text-anchor="end" transform="translate(1970.885245901639,7) rotate(315) translate(0,9)" font-family="Segoe UI" font-size="11px" fill="#000" opacity="1">2025-10-30</text><text text-anchor="end" transform="translate(2008.7868852459017,7) rotate(315) translate(0,9)" font-family="Segoe UI" font-size="11px" fill="#000" opacity="0">2025-10-31</text><text text-anchor="end" transform="translate(2046.688524590164,7) rotate(315) translate(0,9)" font-family="Segoe UI" font-size="11px" fill="#000" opacity="1">2025-11-01</text><text text-anchor="end" transform="translate(2084.590163934426,7) rotate(315) translate(0,9)" font-family="Segoe UI" font-size="11px" fill="#000" opacity="0">2025-11-02</text><text text-anchor="end" transform="translate(2122.4918032786886,7) rotate(315) translate(0,9)" font-family="Segoe UI" font-size="11px" fill="#000" opacity="1">2025-11-03</text><text text-anchor="end" transform="translate(2160.3934426229507,7) rotate(315) translate(0,9)" font-family="Segoe UI" font-size="11px" fill="#000" opacity="0">2025-11-04</text><text text-anchor="end" transform="translate(2198.295081967213,7) rotate(315) translate(0,9)" font-family="Segoe UI" font-size="11px" fill="#000" opacity="1">2025-11-05</text><text text-anchor="end" transform="translate(2236.1967213114754,7) rotate(315) translate(0,9)" font-family="Segoe UI" font-size="11px" fill="#000" opacity="0">2025-11-06</text><text text-anchor="end" transform="translate(2274.0983606557375,7) rotate(315) translate(0,9)" font-family="Segoe UI" font-size="11px" fill="#000" opacity="1">2025-11-07</text><text text-anchor="end" transform="translate(2312,7) rotate(315) translate(0,9)" font-family="Segoe UI" font-size="11px" fill="#000" opacity="0">2025-11-08</text></g><g class="mark-rule role-axis-domain" pointer-events="none"><line transform="translate(0,0)" x2="2312" y2="0" stroke="#888" stroke-width="1" opacity="1"/></g><g class="mark-text role-axis-title" pointer-events="none"><text text-anchor="middle" transform="translate(1156,73.9777658717112)" font-family="Segoe UI" font-size="13px" font-weight="bold" fill="#000" opacity="1">Date</text></g></g><path class="foreground" aria-hidden="true" d="" pointer-events="none" display="none"/></g></g><g class="mark-group role-axis" role="graphics-symbol" aria-roledescription="axis" aria-label="Y-axis titled 'Unique server names' for a linear scale with values from 0 to 55"><g transform="translate(0.5,0.5)"><path class="background" aria-hidden="true" d="M0,0h0v0h0Z" pointer-events="none"/><g><g class="mark-rule role-axis-tick" pointer-events="none"><line transform="translate(0,480)" x2="-5" y2="0" stroke="#bbb" stroke-width="1" opacity="1"/><line transform="translate(0,436)" x2="-5" y2="0" stroke="#bbb" stroke-width="1" opacity="1"/><line transform="translate(0,393)" x2="-5" y2="0" stroke="#bbb" stroke-width="1" opacity="1"/><line transform="translate(0,349)" x2="-5" y2="0" stroke="#bbb" stroke-width="1" opacity="1"/><line transform="translate(0,305)" x2="-5" y2="0" stroke="#bbb" stroke-width="1" opacity="1"/><line transform="translate(0,262)" x2="-5" y2="0" stroke="#bbb" stroke-width="1" opacity="1"/><line transform="translate(0,218)" x2="-5" y2="0" stroke="#bbb" stroke-width="1" opacity="1"/><line transform="translate(0,175)" x2="-5" y2="0" stroke="#bbb" stroke-width="1" opacity="1"/><line transform="translate(0,131)" x2="-5" y2="0" stroke="#bbb" stroke-width="1" opacity="1"/><line transform="translate(0,87)" x2="-5" y2="0" stroke="#bbb" stroke-width="1" opacity="1"/><line transform="translate(0,44)" x2="-5" y2="0" stroke="#bbb" stroke-width="1" opacity="1"/><line transform="translate(0,0)" x2="-5" y2="0" stroke="#bbb" stroke-width="1" opacity="1"/></g><g class="mark-text role-axis-label" pointer-events="none"><text text-anchor="end" transform="translate(-7,483)" font-family="Segoe UI" font-size="11px" fill="#000" opacity="1">0</text><text text-anchor="end" transform="translate(-7,439.3636363636364)" font-family="Segoe UI" font-size="11px" fill="#000" opacity="1">5</text><text text-anchor="end" transform="translate(-7,395.7272727272727)" font-family="Segoe UI" font-size="11px" fill="#000" opacity="1">10</text><text text-anchor="end" transform="translate(-7,352.0909090909091)" font-family="Segoe UI" font-size="11px" fill="#000" opacity="1">15</text><text text-anchor="end" transform="translate(-7,308.45454545454544)" font-family="Segoe UI" font-size="11px" fill="#000" opacity="1">20</text><text text-anchor="end" transform="translate(-7,264.8181818181818)" font-family="Segoe UI" font-size="11px" fill="#000" opacity="1">25</text><text text-anchor="end" transform="translate(-7,221.1818181818182)" font-family="Segoe UI" font-size="11px" fill="#000" opacity="1">30</text><text text-anchor="end" transform="translate(-7,177.54545454545456)" font-family="Segoe UI" font-size="11px" fill="#000" opacity="1">35</text><text text-anchor="end" transform="translate(-7,133.9090909090909)" font-family="Segoe UI" font-size="11px" fill="#000" opacity="1">40</text><text text-anchor="end" transform="translate(-7,90.27272727272725)" font-family="Segoe UI" font-size="11px" fill="#000" opacity="1">45</text><text text-anchor="end" transform="translate(-7,46.636363636363654)" font-family="Segoe UI" font-size="11px" fill="#000" opacity="1">50</text><text text-anchor="end" transform="translate(-7,3)" font-family="Segoe UI" font-size="11px" fill="#000" opacity="1">55</text></g><g class="mark-rule role-axis-domain" pointer-events="none"><line transform="translate(0,480)" x2="0" y2="-480" stroke="#888" stroke-width="1" opacity="1"/></g><g class="mark-text role-axis-title" pointer-events="none"><text text-anchor="middle" transform="translate(-24.99609375,240) rotate(-90) translate(0,-3)" font-family="Segoe UI" font-size="13px" font-weight="bold" fill="#000" opacity="1">Unique server names</text></g></g><path class="foreground" aria-hidden="true" d="" pointer-events="none" display="none"/></g></g><g class="mark-area role-mark layer_0_marks" role="graphics-object" aria-roledescription="area mark container" pointer-events="none"><path aria-label="date: 2025-09-08; count: 1" role="graphics-symbol" aria-roledescription="area mark" d="M0,471.273C12.634,240,25.268,8.727,37.902,8.727C50.536,8.727,63.169,17.455,75.803,34.909C88.437,52.364,101.071,142.545,113.705,165.818C126.339,189.091,138.973,177.455,151.607,200.727C164.24,224,176.874,293.818,189.508,305.455C202.142,317.091,214.776,322.909,227.41,322.909C240.044,322.909,252.678,273.455,265.311,261.818C277.945,250.182,290.579,256,303.213,244.364C315.847,232.727,328.481,151.273,341.115,139.636C353.749,128,366.383,122.182,379.016,122.182C391.65,122.182,404.284,212.364,416.918,235.636C429.552,258.909,442.186,251.636,454.82,270.545C467.454,289.455,480.087,349.091,492.721,349.091C505.355,349.091,517.989,343.273,530.623,340.364C543.257,337.455,555.891,334.545,568.525,331.636C581.158,328.727,593.792,322.909,606.426,322.909C619.06,322.909,631.694,384,644.328,384C656.962,384,669.596,261.818,682.23,261.818C694.863,261.818,707.497,418.909,720.131,418.909C732.765,418.909,745.399,398.545,758.033,357.818C770.667,317.091,783.301,148.364,795.934,148.364C808.568,148.364,821.202,202.182,833.836,244.364C846.47,286.545,859.104,401.455,871.738,401.455C884.372,401.455,897.005,165.818,909.639,165.818C922.273,165.818,934.907,253.091,947.541,253.091C960.175,253.091,972.809,253.091,985.443,253.091C998.077,253.091,1010.71,340.364,1023.344,340.364C1035.978,340.364,1048.612,327.273,1061.246,305.455C1073.88,283.636,1086.514,209.455,1099.148,209.455C1111.781,209.455,1124.415,229.818,1137.049,253.091C1149.683,276.364,1162.317,349.091,1174.951,349.091C1187.585,349.091,1200.219,314.182,1212.852,314.182C1225.486,314.182,1238.12,401.455,1250.754,401.455C1263.388,401.455,1276.022,349.091,1288.656,349.091C1301.29,349.091,1313.923,349.091,1326.557,349.091C1339.191,349.091,1351.825,366.545,1364.459,366.545C1377.093,366.545,1389.727,314.182,1402.361,314.182C1414.995,314.182,1427.628,330.182,1440.262,340.364C1452.896,350.545,1465.53,356.364,1478.164,375.273C1490.798,394.182,1503.432,453.818,1516.066,453.818C1528.699,453.818,1541.333,442.182,1553.967,427.636C1566.601,413.091,1579.235,366.545,1591.869,366.545C1604.503,366.545,1617.137,392.727,1629.77,392.727C1642.404,392.727,1655.038,331.636,1667.672,331.636C1680.306,331.636,1692.94,375.273,1705.574,375.273C1718.208,375.273,1730.842,370.909,1743.475,366.545C1756.109,362.182,1768.743,349.091,1781.377,349.091C1794.011,349.091,1806.645,392.727,1819.279,392.727C1831.913,392.727,1844.546,375.273,1857.18,349.091C1869.814,322.909,1882.448,235.636,1895.082,235.636C1907.716,235.636,1920.35,392.727,1932.984,392.727C1945.617,392.727,1958.251,359.273,1970.885,349.091C1983.519,338.909,1996.153,331.636,2008.787,331.636C2021.421,331.636,2034.055,436.364,2046.689,436.364C2059.322,436.364,2071.956,386.909,2084.59,375.273C2097.224,363.636,2109.858,357.818,2122.492,357.818C2135.126,357.818,2147.76,386.909,2160.393,392.727C2173.027,398.545,2185.661,401.455,2198.295,401.455C2210.929,401.455,2223.563,401.455,2236.197,401.455C2248.831,401.455,2261.464,288,2274.098,288C2286.732,288,2299.366,366.545,2312,445.091L2312,480C2299.366,480,2286.732,480,2274.098,480C2261.464,480,2248.831,480,2236.197,480C2223.563,480,2210.929,480,2198.295,480C2185.661,480,2173.027,480,2160.393,480C2147.76,480,2135.126,480,2122.492,480C2109.858,480,2097.224,480,2084.59,480C2071.956,480,2059.322,480,2046.689,480C2034.055,480,2021.421,480,2008.787,480C1996.153,480,1983.519,480,1970.885,480C1958.251,480,1945.617,480,1932.984,480C1920.35,480,1907.716,480,1895.082,480C1882.448,480,1869.814,480,1857.18,480C1844.546,480,1831.913,480,1819.279,480C1806.645,480,1794.011,480,1781.377,480C1768.743,480,1756.109,480,1743.475,480C1730.842,480,1718.208,480,1705.574,480C1692.94,480,1680.306,480,1667.672,480C1655.038,480,1642.404,480,1629.77,480C1617.137,480,1604.503,480,1591.869,480C1579.235,480,1566.601,480,1553.967,480C1541.333,480,1528.699,480,1516.066,480C1503.432,480,1490.798,480,1478.164,480C1465.53,480,1452.896,480,1440.262,480C1427.628,480,1414.995,480,1402.361,480C1389.727,480,1377.093,480,1364.459,480C1351.825,480,1339.191,480,1326.557,480C1313.923,480,1301.29,480,1288.656,480C1276.022,480,1263.388,480,1250.754,480C1238.12,480,1225.486,480,1212.852,480C1200.219,480,1187.585,480,1174.951,480C1162.317,480,1149.683,480,1137.049,480C1124.415,480,1111.781,480,1099.148,480C1086.514,480,1073.88,480,1061.246,480C1048.612,480,1035.978,480,1023.344,480C1010.71,480,998.077,480,985.443,480C972.809,480,960.175,480,947.541,480C934.907,480,922.273,480,909.639,480C897.005,480,884.372,480,871.738,480C859.104,480,846.47,480,833.836,480C821.202,480,808.568,480,795.934,480C783.301,480,770.667,480,758.033,480C745.399,480,732.765,480,720.131,480C707.497,480,694.863,480,682.23,480C669.596,480,656.962,480,644.328,480C631.694,480,619.06,480,606.426,480C593.792,480,581.158,480,568.525,480C555.891,480,543.257,480,530.623,480C517.989,480,505.355,480,492.721,480C480.087,480,467.454,480,454.82,480C442.186,480,429.552,480,416.918,480C404.284,480,391.65,480,379.016,480C366.383,480,353.749,480,341.115,480C328.481,480,315.847,480,303.213,480C290.579,480,277.945,480,265.311,480C252.678,480,240.044,480,227.41,480C214.776,480,202.142,480,189.508,480C176.874,480,164.24,480,151.607,480C138.973,480,126.339,480,113.705,480C101.071,480,88.437,480,75.803,480C63.169,480,50.536,480,37.902,480C25.268,480,12.634,480,0,480Z" fill="#4e79a7" opacity="0.18"/></g><g class="mark-line role-mark layer_1_marks" role="graphics-object" aria-roledescription="line mark container" pointer-events="none"><path aria-label="date: Sep 08, 2025; count: 1" role="graphics-symbol" aria-roledescription="line mark" d="M0,471.273C12.634,240,25.268,8.727,37.902,8.727C50.536,8.727,63.169,17.455,75.803,34.909C88.437,52.364,101.071,142.545,113.705,165.818C126.339,189.091,138.973,177.455,151.607,200.727C164.24,224,176.874,293.818,189.508,305.455C202.142,317.091,214.776,322.909,227.41,322.909C240.044,322.909,252.678,273.455,265.311,261.818C277.945,250.182,290.579,256,303.213,244.364C315.847,232.727,328.481,151.273,341.115,139.636C353.749,128,366.383,122.182,379.016,122.182C391.65,122.182,404.284,212.364,416.918,235.636C429.552,258.909,442.186,251.636,454.82,270.545C467.454,289.455,480.087,349.091,492.721,349.091C505.355,349.091,517.989,343.273,530.623,340.364C543.257,337.455,555.891,334.545,568.525,331.636C581.158,328.727,593.792,322.909,606.426,322.909C619.06,322.909,631.694,384,644.328,384C656.962,384,669.596,261.818,682.23,261.818C694.863,261.818,707.497,418.909,720.131,418.909C732.765,418.909,745.399,398.545,758.033,357.818C770.667,317.091,783.301,148.364,795.934,148.364C808.568,148.364,821.202,202.182,833.836,244.364C846.47,286.545,859.104,401.455,871.738,401.455C884.372,401.455,897.005,165.818,909.639,165.818C922.273,165.818,934.907,253.091,947.541,253.091C960.175,253.091,972.809,253.091,985.443,253.091C998.077,253.091,1010.71,340.364,1023.344,340.364C1035.978,340.364,1048.612,327.273,1061.246,305.455C1073.88,283.636,1086.514,209.455,1099.148,209.455C1111.781,209.455,1124.415,229.818,1137.049,253.091C1149.683,276.364,1162.317,349.091,1174.951,349.091C1187.585,349.091,1200.219,314.182,1212.852,314.182C1225.486,314.182,1238.12,401.455,1250.754,401.455C1263.388,401.455,1276.022,349.091,1288.656,349.091C1301.29,349.091,1313.923,349.091,1326.557,349.091C1339.191,349.091,1351.825,366.545,1364.459,366.545C1377.093,366.545,1389.727,314.182,1402.361,314.182C1414.995,314.182,1427.628,330.182,1440.262,340.364C1452.896,350.545,1465.53,356.364,1478.164,375.273C1490.798,394.182,1503.432,453.818,1516.066,453.818C1528.699,453.818,1541.333,442.182,1553.967,427.636C1566.601,413.091,1579.235,366.545,1591.869,366.545C1604.503,366.545,1617.137,392.727,1629.77,392.727C1642.404,392.727,1655.038,331.636,1667.672,331.636C1680.306,331.636,1692.94,375.273,1705.574,375.273C1718.208,375.273,1730.842,370.909,1743.475,366.545C1756.109,362.182,1768.743,349.091,1781.377,349.091C1794.011,349.091,1806.645,392.727,1819.279,392.727C1831.913,392.727,1844.546,375.273,1857.18,349.091C1869.814,322.909,1882.448,235.636,1895.082,235.636C1907.716,235.636,1920.35,392.727,1932.984,392.727C1945.617,392.727,1958.251,359.273,1970.885,349.091C1983.519,338.909,1996.153,331.636,2008.787,331.636C2021.421,331.636,2034.055,436.364,2046.689,436.364C2059.322,436.364,2071.956,386.909,2084.59,375.273C2097.224,363.636,2109.858,357.818,2122.492,357.818C2135.126,357.818,2147.76,386.909,2160.393,392.727C2173.027,398.545,2185.661,401.455,2198.295,401.455C2210.929,401.455,2223.563,401.455,2236.197,401.455C2248.831,401.455,2261.464,288,2274.098,288C2286.732,288,2299.366,366.545,2312,445.091" stroke="#4e79a7" stroke-width="2"/></g><g class="mark-line role-mark layer_2_marks" role="graphics-object" aria-roledescription="line mark container" pointer-events="none"><path aria-label="date: Sep 08, 2025; ma7: 1" role="graphics-symbol" aria-roledescription="line mark" d="M0,471.273C12.634,378.424,25.268,285.576,37.902,240C50.536,194.424,63.169,172.606,75.803,171.636C88.437,170.667,101.071,170.182,113.705,170.182C126.339,170.182,138.973,172.218,151.607,176.291C164.24,180.364,176.874,191.252,189.508,197.818C202.142,204.384,214.776,215.688,227.41,215.688C240.044,215.688,252.678,185.766,265.311,185.766C277.945,185.766,290.579,211.325,303.213,219.429C315.847,227.532,328.481,234.39,341.115,234.39C353.749,234.39,366.383,228.156,379.016,228.156C391.65,228.156,404.284,233.143,416.918,233.143C429.552,233.143,442.186,228.156,454.82,228.156C467.454,228.156,480.087,229.403,492.721,231.896C505.355,234.39,517.989,239.169,530.623,243.117C543.257,247.065,555.891,249.143,568.525,255.584C581.158,262.026,593.792,271.169,606.426,281.766C619.06,292.364,631.694,316.675,644.328,319.169C656.962,321.662,669.596,320.416,682.23,322.909C694.863,325.403,707.497,343.273,720.131,344.104C732.765,344.935,745.399,345.351,758.033,345.351C770.667,345.351,783.301,324.571,795.934,317.922C808.568,311.273,821.202,305.455,833.836,305.455C846.47,305.455,859.104,316.675,871.738,316.675C884.372,316.675,897.005,286.338,909.639,285.506C922.273,284.675,934.907,285.091,947.541,284.26C960.175,283.429,972.809,262.234,985.443,260.571C998.077,258.909,1010.71,258.078,1023.344,258.078C1035.978,258.078,1048.612,280.519,1061.246,280.519C1073.88,280.519,1086.514,278.857,1099.148,275.532C1111.781,272.208,1124.415,254.338,1137.049,254.338C1149.683,254.338,1162.317,274.701,1174.951,280.519C1187.585,286.338,1200.219,284.26,1212.852,289.247C1225.486,294.234,1238.12,309.61,1250.754,310.442C1263.388,311.273,1276.022,310.857,1288.656,311.688C1301.29,312.519,1313.923,313.766,1326.557,317.922C1339.191,322.078,1351.825,335.169,1364.459,340.364C1377.093,345.558,1389.727,349.091,1402.361,349.091C1414.995,349.091,1427.628,347.844,1440.262,347.844C1452.896,347.844,1465.53,353.87,1478.164,356.571C1490.798,359.273,1503.432,360.935,1516.066,364.052C1528.699,367.169,1541.333,373.61,1553.967,375.273C1566.601,376.935,1579.235,376.727,1591.869,377.766C1604.503,378.805,1617.137,380.468,1629.77,381.506C1642.404,382.545,1655.038,382.753,1667.672,384C1680.306,385.247,1692.94,388.987,1705.574,388.987C1718.208,388.987,1730.842,388.571,1743.475,387.74C1756.109,386.909,1768.743,376.104,1781.377,372.779C1794.011,369.455,1806.645,369.039,1819.279,367.792C1831.913,366.545,1844.546,366.961,1857.18,365.299C1869.814,363.636,1882.448,342.857,1895.082,342.857C1907.716,342.857,1920.35,351.584,1932.984,351.584C1945.617,351.584,1958.251,349.299,1970.885,347.844C1983.519,346.39,1996.153,342.857,2008.787,342.857C2021.421,342.857,2034.055,355.325,2046.689,355.325C2059.322,355.325,2071.956,352.831,2084.59,352.831C2097.224,352.831,2109.858,353.247,2122.492,354.078C2135.126,354.909,2147.76,375.688,2160.393,376.519C2173.027,377.351,2185.661,376.935,2198.295,377.766C2210.929,378.597,2223.563,385.247,2236.197,385.247C2248.831,385.247,2261.464,379.013,2274.098,379.013C2286.732,379.013,2299.366,379.636,2312,380.26" stroke="#d62728" stroke-width="2" stroke-dasharray="6,4"/></g><g class="mark-symbol role-mark layer_3_marks" role="graphics-object" aria-roledescription="symbol mark container"><path aria-label="date: Sep 08, 2025; count: 1; Date: Sep 08, 2025; Daily unique: 1; 7d avg: 1" role="graphics-symbol" aria-roledescription="point" transform="translate(0,471.27272727272725)" d="M3.536,0A3.536,3.536,0,1,1,-3.536,0A3.536,3.536,0,1,1,3.536,0" fill="#4e79a7" stroke-width="2" opacity="0.55"/><path aria-label="date: Sep 09, 2025; count: 54; Date: Sep 09, 2025; Daily unique: 54; 7d avg: 27.5" role="graphics-symbol" aria-roledescription="point" transform="translate(37.9016393442623,8.72727272727273)" d="M3.536,0A3.536,3.536,0,1,1,-3.536,0A3.536,3.536,0,1,1,3.536,0" fill="#4e79a7" stroke-width="2" opacity="0.55"/><path aria-label="date: Sep 10, 2025; count: 51; Date: Sep 10, 2025; Daily unique: 51; 7d avg: 35.3333333333" role="graphics-symbol" aria-roledescription="point" transform="translate(75.8032786885246,34.90909090909092)" d="M3.536,0A3.536,3.536,0,1,1,-3.536,0A3.536,3.536,0,1,1,3.536,0" fill="#4e79a7" stroke-width="2" opacity="0.55"/><path aria-label="date: Sep 11, 2025; count: 36; Date: Sep 11, 2025; Daily unique: 36; 7d avg: 35.5" role="graphics-symbol" aria-roledescription="point" transform="translate(113.70491803278688,165.8181818181818)" d="M3.536,0A3.536,3.536,0,1,1,-3.536,0A3.536,3.536,0,1,1,3.536,0" fill="#4e79a7" stroke-width="2" opacity="0.55"/><path aria-label="date: Sep 12, 2025; count: 32; Date: Sep 12, 2025; Daily unique: 32; 7d avg: 34.8" role="graphics-symbol" aria-roledescription="point" transform="translate(151.6065573770492,200.72727272727275)" d="M3.536,0A3.536,3.536,0,1,1,-3.536,0A3.536,3.536,0,1,1,3.536,0" fill="#4e79a7" stroke-width="2" opacity="0.55"/><path aria-label="date: Sep 13, 2025; count: 20; Date: Sep 13, 2025; Daily unique: 20; 7d avg: 32.3333333333" role="graphics-symbol" aria-roledescription="point" transform="translate(189.50819672131146,305.45454545454544)" d="M3.536,0A3.536,3.536,0,1,1,-3.536,0A3.536,3.536,0,1,1,3.536,0" fill="#4e79a7" stroke-width="2" opacity="0.55"/><path aria-label="date: Sep 14, 2025; count: 18; Date: Sep 14, 2025; Daily unique: 18; 7d avg: 30.2857142857" role="graphics-symbol" aria-roledescription="point" transform="translate(227.40983606557376,322.90909090909093)" d="M3.536,0A3.536,3.536,0,1,1,-3.536,0A3.536,3.536,0,1,1,3.536,0" fill="#4e79a7" stroke-width="2" opacity="0.55"/><path aria-label="date: Sep 15, 2025; count: 25; Date: Sep 15, 2025; Daily unique: 25; 7d avg: 33.7142857143" role="graphics-symbol" aria-roledescription="point" transform="translate(265.3114754098361,261.8181818181818)" d="M3.536,0A3.536,3.536,0,1,1,-3.536,0A3.536,3.536,0,1,1,3.536,0" fill="#4e79a7" stroke-width="2" opacity="0.55"/><path aria-label="date: Sep 16, 2025; count: 27; Date: Sep 16, 2025; Daily unique: 27; 7d avg: 29.8571428571" role="graphics-symbol" aria-roledescription="point" transform="translate(303.2131147540984,244.36363636363635)" d="M3.536,0A3.536,3.536,0,1,1,-3.536,0A3.536,3.536,0,1,1,3.536,0" fill="#4e79a7" stroke-width="2" opacity="0.55"/><path aria-label="date: Sep 17, 2025; count: 39; Date: Sep 17, 2025; Daily unique: 39; 7d avg: 28.1428571429" role="graphics-symbol" aria-roledescription="point" transform="translate(341.11475409836066,139.63636363636363)" d="M3.536,0A3.536,3.536,0,1,1,-3.536,0A3.536,3.536,0,1,1,3.536,0" fill="#4e79a7" stroke-width="2" opacity="0.55"/><path aria-label="date: Sep 18, 2025; count: 41; Date: Sep 18, 2025; Daily unique: 41; 7d avg: 28.8571428571" role="graphics-symbol" aria-roledescription="point" transform="translate(379.0163934426229,122.18181818181817)" d="M3.536,0A3.536,3.536,0,1,1,-3.536,0A3.536,3.536,0,1,1,3.536,0" fill="#4e79a7" stroke-width="2" opacity="0.55"/><path aria-label="date: Sep 19, 2025; count: 28; Date: Sep 19, 2025; Daily unique: 28; 7d avg: 28.2857142857" role="graphics-symbol" aria-roledescription="point" transform="translate(416.91803278688525,235.63636363636365)" d="M3.536,0A3.536,3.536,0,1,1,-3.536,0A3.536,3.536,0,1,1,3.536,0" fill="#4e79a7" stroke-width="2" opacity="0.55"/><path aria-label="date: Sep 20, 2025; count: 24; Date: Sep 20, 2025; Daily unique: 24; 7d avg: 28.8571428571" role="graphics-symbol" aria-roledescription="point" transform="translate(454.8196721311475,270.54545454545456)" d="M3.536,0A3.536,3.536,0,1,1,-3.536,0A3.536,3.536,0,1,1,3.536,0" fill="#4e79a7" stroke-width="2" opacity="0.55"/><path aria-label="date: Sep 21, 2025; count: 15; Date: Sep 21, 2025; Daily unique: 15; 7d avg: 28.4285714286" role="graphics-symbol" aria-roledescription="point" transform="translate(492.7213114754098,349.0909090909091)" d="M3.536,0A3.536,3.536,0,1,1,-3.536,0A3.536,3.536,0,1,1,3.536,0" fill="#4e79a7" stroke-width="2" opacity="0.55"/><path aria-label="date: Sep 22, 2025; count: 16; Date: Sep 22, 2025; Daily unique: 16; 7d avg: 27.1428571429" role="graphics-symbol" aria-roledescription="point" transform="translate(530.6229508196722,340.3636363636364)" d="M3.536,0A3.536,3.536,0,1,1,-3.536,0A3.536,3.536,0,1,1,3.536,0" fill="#4e79a7" stroke-width="2" opacity="0.55"/><path aria-label="date: Sep 23, 2025; count: 17; Date: Sep 23, 2025; Daily unique: 17; 7d avg: 25.7142857143" role="graphics-symbol" aria-roledescription="point" transform="translate(568.5245901639344,331.6363636363636)" d="M3.536,0A3.536,3.536,0,1,1,-3.536,0A3.536,3.536,0,1,1,3.536,0" fill="#4e79a7" stroke-width="2" opacity="0.55"/><path aria-label="date: Sep 24, 2025; count: 18; Date: Sep 24, 2025; Daily unique: 18; 7d avg: 22.7142857143" role="graphics-symbol" aria-roledescription="point" transform="translate(606.4262295081968,322.90909090909093)" d="M3.536,0A3.536,3.536,0,1,1,-3.536,0A3.536,3.536,0,1,1,3.536,0" fill="#4e79a7" stroke-width="2" opacity="0.55"/><path aria-label="date: Sep 25, 2025; count: 11; Date: Sep 25, 2025; Daily unique: 11; 7d avg: 18.4285714286" role="graphics-symbol" aria-roledescription="point" transform="translate(644.327868852459,384)" d="M3.536,0A3.536,3.536,0,1,1,-3.536,0A3.536,3.536,0,1,1,3.536,0" fill="#4e79a7" stroke-width="2" opacity="0.55"/><path aria-label="date: Sep 26, 2025; count: 25; Date: Sep 26, 2025; Daily unique: 25; 7d avg: 18" role="graphics-symbol" aria-roledescription="point" transform="translate(682.2295081967213,261.8181818181818)" d="M3.536,0A3.536,3.536,0,1,1,-3.536,0A3.536,3.536,0,1,1,3.536,0" fill="#4e79a7" stroke-width="2" opacity="0.55"/><path aria-label="date: Sep 27, 2025; count: 7; Date: Sep 27, 2025; Daily unique: 7; 7d avg: 15.5714285714" role="graphics-symbol" aria-roledescription="point" transform="translate(720.1311475409836,418.90909090909093)" d="M3.536,0A3.536,3.536,0,1,1,-3.536,0A3.536,3.536,0,1,1,3.536,0" fill="#4e79a7" stroke-width="2" opacity="0.55"/><path aria-label="date: Sep 28, 2025; count: 14; Date: Sep 28, 2025; Daily unique: 14; 7d avg: 15.4285714286" role="graphics-symbol" aria-roledescription="point" transform="translate(758.0327868852459,357.8181818181818)" d="M3.536,0A3.536,3.536,0,1,1,-3.536,0A3.536,3.536,0,1,1,3.536,0" fill="#4e79a7" stroke-width="2" opacity="0.55"/><path aria-label="date: Sep 29, 2025; count: 38; Date: Sep 29, 2025; Daily unique: 38; 7d avg: 18.5714285714" role="graphics-symbol" aria-roledescription="point" transform="translate(795.9344262295082,148.36363636363637)" d="M3.536,0A3.536,3.536,0,1,1,-3.536,0A3.536,3.536,0,1,1,3.536,0" fill="#4e79a7" stroke-width="2" opacity="0.55"/><path aria-label="date: Sep 30, 2025; count: 27; Date: Sep 30, 2025; Daily unique: 27; 7d avg: 20" role="graphics-symbol" aria-roledescription="point" transform="translate(833.8360655737705,244.36363636363635)" d="M3.536,0A3.536,3.536,0,1,1,-3.536,0A3.536,3.536,0,1,1,3.536,0" fill="#4e79a7" stroke-width="2" opacity="0.55"/><path aria-label="date: Oct 01, 2025; count: 9; Date: Oct 01, 2025; Daily unique: 9; 7d avg: 18.7142857143" role="graphics-symbol" aria-roledescription="point" transform="translate(871.7377049180327,401.4545454545455)" d="M3.536,0A3.536,3.536,0,1,1,-3.536,0A3.536,3.536,0,1,1,3.536,0" fill="#4e79a7" stroke-width="2" opacity="0.55"/><path aria-label="date: Oct 02, 2025; count: 36; Date: Oct 02, 2025; Daily unique: 36; 7d avg: 22.2857142857" role="graphics-symbol" aria-roledescription="point" transform="translate(909.639344262295,165.8181818181818)" d="M3.536,0A3.536,3.536,0,1,1,-3.536,0A3.536,3.536,0,1,1,3.536,0" fill="#4e79a7" stroke-width="2" opacity="0.55"/><path aria-label="date: Oct 03, 2025; count: 26; Date: Oct 03, 2025; Daily unique: 26; 7d avg: 22.4285714286" role="graphics-symbol" aria-roledescription="point" transform="translate(947.5409836065573,253.09090909090912)" d="M3.536,0A3.536,3.536,0,1,1,-3.536,0A3.536,3.536,0,1,1,3.536,0" fill="#4e79a7" stroke-width="2" opacity="0.55"/><path aria-label="date: Oct 04, 2025; count: 26; Date: Oct 04, 2025; Daily unique: 26; 7d avg: 25.1428571429" role="graphics-symbol" aria-roledescription="point" transform="translate(985.4426229508196,253.09090909090912)" d="M3.536,0A3.536,3.536,0,1,1,-3.536,0A3.536,3.536,0,1,1,3.536,0" fill="#4e79a7" stroke-width="2" opacity="0.55"/><path aria-label="date: Oct 05, 2025; count: 16; Date: Oct 05, 2025; Daily unique: 16; 7d avg: 25.4285714286" role="graphics-symbol" aria-roledescription="point" transform="translate(1023.344262295082,340.3636363636364)" d="M3.536,0A3.536,3.536,0,1,1,-3.536,0A3.536,3.536,0,1,1,3.536,0" fill="#4e79a7" stroke-width="2" opacity="0.55"/><path aria-label="date: Oct 06, 2025; count: 20; Date: Oct 06, 2025; Daily unique: 20; 7d avg: 22.8571428571" role="graphics-symbol" aria-roledescription="point" transform="translate(1061.2459016393443,305.45454545454544)" d="M3.536,0A3.536,3.536,0,1,1,-3.536,0A3.536,3.536,0,1,1,3.536,0" fill="#4e79a7" stroke-width="2" opacity="0.55"/><path aria-label="date: Oct 07, 2025; count: 31; Date: Oct 07, 2025; Daily unique: 31; 7d avg: 23.4285714286" role="graphics-symbol" aria-roledescription="point" transform="translate(1099.1475409836064,209.45454545454547)" d="M3.536,0A3.536,3.536,0,1,1,-3.536,0A3.536,3.536,0,1,1,3.536,0" fill="#4e79a7" stroke-width="2" opacity="0.55"/><path aria-label="date: Oct 08, 2025; count: 26; Date: Oct 08, 2025; Daily unique: 26; 7d avg: 25.8571428571" role="graphics-symbol" aria-roledescription="point" transform="translate(1137.0491803278687,253.09090909090912)" d="M3.536,0A3.536,3.536,0,1,1,-3.536,0A3.536,3.536,0,1,1,3.536,0" fill="#4e79a7" stroke-width="2" opacity="0.55"/><path aria-label="date: Oct 09, 2025; count: 15; Date: Oct 09, 2025; Daily unique: 15; 7d avg: 22.8571428571" role="graphics-symbol" aria-roledescription="point" transform="translate(1174.9508196721313,349.0909090909091)" d="M3.536,0A3.536,3.536,0,1,1,-3.536,0A3.536,3.536,0,1,1,3.536,0" fill="#4e79a7" stroke-width="2" opacity="0.55"/><path aria-label="date: Oct 10, 2025; count: 19; Date: Oct 10, 2025; Daily unique: 19; 7d avg: 21.8571428571" role="graphics-symbol" aria-roledescription="point" transform="translate(1212.8524590163936,314.1818181818182)" d="M3.536,0A3.536,3.536,0,1,1,-3.536,0A3.536,3.536,0,1,1,3.536,0" fill="#4e79a7" stroke-width="2" opacity="0.55"/><path aria-label="date: Oct 11, 2025; count: 9; Date: Oct 11, 2025; Daily unique: 9; 7d avg: 19.4285714286" role="graphics-symbol" aria-roledescription="point" transform="translate(1250.754098360656,401.4545454545455)" d="M3.536,0A3.536,3.536,0,1,1,-3.536,0A3.536,3.536,0,1,1,3.536,0" fill="#4e79a7" stroke-width="2" opacity="0.55"/><path aria-label="date: Oct 12, 2025; count: 15; Date: Oct 12, 2025; Daily unique: 15; 7d avg: 19.2857142857" role="graphics-symbol" aria-roledescription="point" transform="translate(1288.655737704918,349.0909090909091)" d="M3.536,0A3.536,3.536,0,1,1,-3.536,0A3.536,3.536,0,1,1,3.536,0" fill="#4e79a7" stroke-width="2" opacity="0.55"/><path aria-label="date: Oct 13, 2025; count: 15; Date: Oct 13, 2025; Daily unique: 15; 7d avg: 18.5714285714" role="graphics-symbol" aria-roledescription="point" transform="translate(1326.5573770491803,349.0909090909091)" d="M3.536,0A3.536,3.536,0,1,1,-3.536,0A3.536,3.536,0,1,1,3.536,0" fill="#4e79a7" stroke-width="2" opacity="0.55"/><path aria-label="date: Oct 14, 2025; count: 13; Date: Oct 14, 2025; Daily unique: 13; 7d avg: 16" role="graphics-symbol" aria-roledescription="point" transform="translate(1364.4590163934427,366.54545454545456)" d="M3.536,0A3.536,3.536,0,1,1,-3.536,0A3.536,3.536,0,1,1,3.536,0" fill="#4e79a7" stroke-width="2" opacity="0.55"/><path aria-label="date: Oct 15, 2025; count: 19; Date: Oct 15, 2025; Daily unique: 19; 7d avg: 15" role="graphics-symbol" aria-roledescription="point" transform="translate(1402.360655737705,314.1818181818182)" d="M3.536,0A3.536,3.536,0,1,1,-3.536,0A3.536,3.536,0,1,1,3.536,0" fill="#4e79a7" stroke-width="2" opacity="0.55"/><path aria-label="date: Oct 16, 2025; count: 16; Date: Oct 16, 2025; Daily unique: 16; 7d avg: 15.1428571429" role="graphics-symbol" aria-roledescription="point" transform="translate(1440.2622950819673,340.3636363636364)" d="M3.536,0A3.536,3.536,0,1,1,-3.536,0A3.536,3.536,0,1,1,3.536,0" fill="#4e79a7" stroke-width="2" opacity="0.55"/><path aria-label="date: Oct 17, 2025; count: 12; Date: Oct 17, 2025; Daily unique: 12; 7d avg: 14.1428571429" role="graphics-symbol" aria-roledescription="point" transform="translate(1478.1639344262296,375.2727272727273)" d="M3.536,0A3.536,3.536,0,1,1,-3.536,0A3.536,3.536,0,1,1,3.536,0" fill="#4e79a7" stroke-width="2" opacity="0.55"/><path aria-label="date: Oct 18, 2025; count: 3; Date: Oct 18, 2025; Daily unique: 3; 7d avg: 13.2857142857" role="graphics-symbol" aria-roledescription="point" transform="translate(1516.0655737704917,453.8181818181818)" d="M3.536,0A3.536,3.536,0,1,1,-3.536,0A3.536,3.536,0,1,1,3.536,0" fill="#4e79a7" stroke-width="2" opacity="0.55"/><path aria-label="date: Oct 19, 2025; count: 6; Date: Oct 19, 2025; Daily unique: 6; 7d avg: 12" role="graphics-symbol" aria-roledescription="point" transform="translate(1553.967213114754,427.6363636363636)" d="M3.536,0A3.536,3.536,0,1,1,-3.536,0A3.536,3.536,0,1,1,3.536,0" fill="#4e79a7" stroke-width="2" opacity="0.55"/><path aria-label="date: Oct 20, 2025; count: 13; Date: Oct 20, 2025; Daily unique: 13; 7d avg: 11.7142857143" role="graphics-symbol" aria-roledescription="point" transform="translate(1591.8688524590164,366.54545454545456)" d="M3.536,0A3.536,3.536,0,1,1,-3.536,0A3.536,3.536,0,1,1,3.536,0" fill="#4e79a7" stroke-width="2" opacity="0.55"/><path aria-label="date: Oct 21, 2025; count: 10; Date: Oct 21, 2025; Daily unique: 10; 7d avg: 11.2857142857" role="graphics-symbol" aria-roledescription="point" transform="translate(1629.7704918032787,392.7272727272727)" d="M3.536,0A3.536,3.536,0,1,1,-3.536,0A3.536,3.536,0,1,1,3.536,0" fill="#4e79a7" stroke-width="2" opacity="0.55"/><path aria-label="date: Oct 22, 2025; count: 17; Date: Oct 22, 2025; Daily unique: 17; 7d avg: 11" role="graphics-symbol" aria-roledescription="point" transform="translate(1667.672131147541,331.6363636363636)" d="M3.536,0A3.536,3.536,0,1,1,-3.536,0A3.536,3.536,0,1,1,3.536,0" fill="#4e79a7" stroke-width="2" opacity="0.55"/><path aria-label="date: Oct 23, 2025; count: 12; Date: Oct 23, 2025; Daily unique: 12; 7d avg: 10.4285714286" role="graphics-symbol" aria-roledescription="point" transform="translate(1705.5737704918033,375.2727272727273)" d="M3.536,0A3.536,3.536,0,1,1,-3.536,0A3.536,3.536,0,1,1,3.536,0" fill="#4e79a7" stroke-width="2" opacity="0.55"/><path aria-label="date: Oct 24, 2025; count: 13; Date: Oct 24, 2025; Daily unique: 13; 7d avg: 10.5714285714" role="graphics-symbol" aria-roledescription="point" transform="translate(1743.4754098360654,366.54545454545456)" d="M3.536,0A3.536,3.536,0,1,1,-3.536,0A3.536,3.536,0,1,1,3.536,0" fill="#4e79a7" stroke-width="2" opacity="0.55"/><path aria-label="date: Oct 25, 2025; count: 15; Date: Oct 25, 2025; Daily unique: 15; 7d avg: 12.2857142857" role="graphics-symbol" aria-roledescription="point" transform="translate(1781.3770491803277,349.0909090909091)" d="M3.536,0A3.536,3.536,0,1,1,-3.536,0A3.536,3.536,0,1,1,3.536,0" fill="#4e79a7" stroke-width="2" opacity="0.55"/><path aria-label="date: Oct 26, 2025; count: 10; Date: Oct 26, 2025; Daily unique: 10; 7d avg: 12.8571428571" role="graphics-symbol" aria-roledescription="point" transform="translate(1819.27868852459,392.7272727272727)" d="M3.536,0A3.536,3.536,0,1,1,-3.536,0A3.536,3.536,0,1,1,3.536,0" fill="#4e79a7" stroke-width="2" opacity="0.55"/><path aria-label="date: Oct 27, 2025; count: 15; Date: Oct 27, 2025; Daily unique: 15; 7d avg: 13.1428571429" role="graphics-symbol" aria-roledescription="point" transform="translate(1857.1803278688524,349.0909090909091)" d="M3.536,0A3.536,3.536,0,1,1,-3.536,0A3.536,3.536,0,1,1,3.536,0" fill="#4e79a7" stroke-width="2" opacity="0.55"/><path aria-label="date: Oct 28, 2025; count: 28; Date: Oct 28, 2025; Daily unique: 28; 7d avg: 15.7142857143" role="graphics-symbol" aria-roledescription="point" transform="translate(1895.0819672131147,235.63636363636365)" d="M3.536,0A3.536,3.536,0,1,1,-3.536,0A3.536,3.536,0,1,1,3.536,0" fill="#4e79a7" stroke-width="2" opacity="0.55"/><path aria-label="date: Oct 29, 2025; count: 10; Date: Oct 29, 2025; Daily unique: 10; 7d avg: 14.7142857143" role="graphics-symbol" aria-roledescription="point" transform="translate(1932.9836065573772,392.7272727272727)" d="M3.536,0A3.536,3.536,0,1,1,-3.536,0A3.536,3.536,0,1,1,3.536,0" fill="#4e79a7" stroke-width="2" opacity="0.55"/><path aria-label="date: Oct 30, 2025; count: 15; Date: Oct 30, 2025; Daily unique: 15; 7d avg: 15.1428571429" role="graphics-symbol" aria-roledescription="point" transform="translate(1970.885245901639,349.0909090909091)" d="M3.536,0A3.536,3.536,0,1,1,-3.536,0A3.536,3.536,0,1,1,3.536,0" fill="#4e79a7" stroke-width="2" opacity="0.55"/><path aria-label="date: Oct 31, 2025; count: 17; Date: Oct 31, 2025; Daily unique: 17; 7d avg: 15.7142857143" role="graphics-symbol" aria-roledescription="point" transform="translate(2008.7868852459017,331.6363636363636)" d="M3.536,0A3.536,3.536,0,1,1,-3.536,0A3.536,3.536,0,1,1,3.536,0" fill="#4e79a7" stroke-width="2" opacity="0.55"/><path aria-label="date: Nov 01, 2025; count: 5; Date: Nov 01, 2025; Daily unique: 5; 7d avg: 14.2857142857" role="graphics-symbol" aria-roledescription="point" transform="translate(2046.688524590164,436.3636363636364)" d="M3.536,0A3.536,3.536,0,1,1,-3.536,0A3.536,3.536,0,1,1,3.536,0" fill="#4e79a7" stroke-width="2" opacity="0.55"/><path aria-label="date: Nov 02, 2025; count: 12; Date: Nov 02, 2025; Daily unique: 12; 7d avg: 14.5714285714" role="graphics-symbol" aria-roledescription="point" transform="translate(2084.590163934426,375.2727272727273)" d="M3.536,0A3.536,3.536,0,1,1,-3.536,0A3.536,3.536,0,1,1,3.536,0" fill="#4e79a7" stroke-width="2" opacity="0.55"/><path aria-label="date: Nov 03, 2025; count: 14; Date: Nov 03, 2025; Daily unique: 14; 7d avg: 14.4285714286" role="graphics-symbol" aria-roledescription="point" transform="translate(2122.4918032786886,357.8181818181818)" d="M3.536,0A3.536,3.536,0,1,1,-3.536,0A3.536,3.536,0,1,1,3.536,0" fill="#4e79a7" stroke-width="2" opacity="0.55"/><path aria-label="date: Nov 04, 2025; count: 10; Date: Nov 04, 2025; Daily unique: 10; 7d avg: 11.8571428571" role="graphics-symbol" aria-roledescription="point" transform="translate(2160.3934426229507,392.7272727272727)" d="M3.536,0A3.536,3.536,0,1,1,-3.536,0A3.536,3.536,0,1,1,3.536,0" fill="#4e79a7" stroke-width="2" opacity="0.55"/><path aria-label="date: Nov 05, 2025; count: 9; Date: Nov 05, 2025; Daily unique: 9; 7d avg: 11.7142857143" role="graphics-symbol" aria-roledescription="point" transform="translate(2198.295081967213,401.4545454545455)" d="M3.536,0A3.536,3.536,0,1,1,-3.536,0A3.536,3.536,0,1,1,3.536,0" fill="#4e79a7" stroke-width="2" opacity="0.55"/><path aria-label="date: Nov 06, 2025; count: 9; Date: Nov 06, 2025; Daily unique: 9; 7d avg: 10.8571428571" role="graphics-symbol" aria-roledescription="point" transform="translate(2236.1967213114754,401.4545454545455)" d="M3.536,0A3.536,3.536,0,1,1,-3.536,0A3.536,3.536,0,1,1,3.536,0" fill="#4e79a7" stroke-width="2" opacity="0.55"/><path aria-label="date: Nov 07, 2025; count: 22; Date: Nov 07, 2025; Daily unique: 22; 7d avg: 11.5714285714" role="graphics-symbol" aria-roledescription="point" transform="translate(2274.0983606557375,288)" d="M3.536,0A3.536,3.536,0,1,1,-3.536,0A3.536,3.536,0,1,1,3.536,0" fill="#4e79a7" stroke-width="2" opacity="0.55"/><path aria-label="date: Nov 08, 2025; count: 4; Date: Nov 08, 2025; Daily unique: 4; 7d avg: 11.4285714286" role="graphics-symbol" aria-roledescription="point" transform="translate(2312,445.09090909090907)" d="M3.536,0A3.536,3.536,0,1,1,-3.536,0A3.536,3.536,0,1,1,3.536,0" fill="#4e79a7" stroke-width="2" opacity="0.55"/></g><g class="mark-path role-mark layer_3_voronoi" aria-hidden="true"><path transform="translate(0,0)" d="M0,297.38222653455114L20.52029723910232,305.02087113913035L23.089641920474634,306.460664324761L146.86817999067273,447.92312209193085L167.79534097882478,480L0,480Z" stroke-width="0.35"/><path transform="translate(0,0)" d="M71.92409389299843,0L0,104.11962408280603L0,0Z" stroke-width="0.35"/><path transform="translate(0,0)" d="M242.9084675399683,0L217.29643747769705,64.88439264295563L0,127.79745045184445L0,104.11962408280603L71.92409389299843,0Z" stroke-width="0.35"/><path transform="translate(0,0)" d="M220.0075716295375,88.43274091809434L20.52029723910232,305.02087113913035L0,297.38222653455114L0,127.79745045184445L217.29643747769705,64.88439264295563Z" stroke-width="0.35"/><path transform="translate(0,0)" d="M243.8658359879695,165.372095252235L203.0557646301632,241.32948216468588L23.089641920474634,306.460664324761L20.52029723910232,305.02087113913035L220.0075716295375,88.43274091809434L244.31127509101185,163.82449863084508Z" stroke-width="0.35"/><path transform="translate(0,0)" d="M224.69652470225907,278.9229118199825L146.86817999067273,447.92312209193085L23.089641920474634,306.460664324761L203.0557646301632,241.32948216468588Z" stroke-width="0.35"/><path transform="translate(0,0)" d="M356.54416396137196,371.68394011035656L345.85517517254993,480L167.79534097882478,480L146.86817999067273,447.92312209193085L224.69652470225907,278.9229118199825L324.7432974123686,340.993304178577Z" stroke-width="0.35"/><path transform="translate(0,0)" d="M243.8658359879695,165.372095252235L324.7432974123686,340.993304178577L224.69652470225907,278.9229118199825L203.0557646301632,241.32948216468588Z" stroke-width="0.35"/><path transform="translate(0,0)" d="M360.5373143996946,364.4581743752543L356.54416396137196,371.68394011035656L324.7432974123686,340.993304178577L243.8658359879695,165.372095252235L244.31127509101185,163.82449863084508L357.3590381256386,204.737390102507L366.82408043124633,328.0544781743384Z" stroke-width="0.35"/><path transform="translate(0,0)" d="M299.7790342640718,0L384.2768482373225,183.48261654437414L357.3590381256386,204.737390102507L244.31127509101185,163.82449863084508L220.0075716295375,88.43274091809434L217.29643747769705,64.88439264295563L242.9084675399683,0Z" stroke-width="0.35"/><path transform="translate(0,0)" d="M551.405323507717,127.65018454725514L384.2768482373225,183.48261654437414L299.7790342640718,0L595.9703313119702,0L592.3272453987411,58.012327549958925L562.9812046461473,121.73573161587136Z" stroke-width="0.35"/><path transform="translate(0,0)" d="M551.405323507717,127.65018454725514L366.82408043124633,328.0544781743384L357.3590381256386,204.737390102507L384.2768482373225,183.48261654437414Z" stroke-width="0.35"/><path transform="translate(0,0)" d="M560.514368464059,210.1837238279051L532.5765350012587,262.1827710048619L500.64758247234437,296.8488024561661L360.5373143996946,364.4581743752543L366.82408043124633,328.0544781743384L551.405323507717,127.65018454725514L562.9812046461473,121.73573161587136L565.7894406708706,194.91099655517834Z" stroke-width="0.35"/><path transform="translate(0,0)" d="M500.64758247234437,296.8488024561661L542.6102998018386,479.08852703329995L542.4004230444858,480L345.85517517254993,480L356.54416396137196,371.68394011035656L360.5373143996946,364.4581743752543Z" stroke-width="0.35"/><path transform="translate(0,0)" d="M532.5765350012587,262.1827710048619L567.5547939650529,414.08971806210445L542.6102998018386,479.08852703329995L500.64758247234437,296.8488024561661Z" stroke-width="0.35"/><path transform="translate(0,0)" d="M560.514368464059,210.1837238279051L597.4881869609101,370.75717874797425L567.5547939650529,414.08971806210445L532.5765350012587,262.1827710048619Z" stroke-width="0.35"/><path transform="translate(0,0)" d="M560.514368464059,210.1837238279051L565.7894406708706,194.91099655517834L670.8336004707996,325.25267649427826L597.4881869609101,370.75717874797425Z" stroke-width="0.35"/><path transform="translate(0,0)" d="M699.5523410508636,363.8389131845193L646.0575844928694,480L542.4004230444858,480L542.6102998018386,479.08852703329995L567.5547939650529,414.08971806210445L597.4881869609101,370.75717874797425L670.8336004707996,325.25267649427826L692.1931115568872,331.87854356518693Z" stroke-width="0.35"/><path transform="translate(0,0)" d="M760.8611052380977,277.657095002701L692.1931115568872,331.87854356518693L670.8336004707996,325.25267649427826L565.7894406708706,194.91099655517834L562.9812046461473,121.73573161587136L592.3272453987411,58.012327549958925L754.2575494878297,220.29998098602846Z" stroke-width="0.35"/><path transform="translate(0,0)" d="M646.0575844928694,480L699.5523410508636,363.8389131845193L797.6025270734299,424.67059573052575L803.9726314970309,480Z" stroke-width="0.35"/><path transform="translate(0,0)" d="M835.0093137313103,327.19832131626197L797.6025270734299,424.67059573052575L699.5523410508636,363.8389131845193L692.1931115568872,331.87854356518693L760.8611052380977,277.657095002701Z" stroke-width="0.35"/><path transform="translate(0,0)" d="M876.9015010484695,0L848.8145529335577,182.968049297756L754.2575494878297,220.29998098602846L592.3272453987411,58.012327549958925L595.9703313119702,0Z" stroke-width="0.35"/><path transform="translate(0,0)" d="M892.4998407941421,225.1281980860978L885.6024922856643,314.9916034486017L835.0093137313103,327.19832131626197L760.8611052380977,277.657095002701L754.2575494878297,220.29998098602846L848.8145529335577,182.968049297756Z" stroke-width="0.35"/><path transform="translate(0,0)" d="M935.2250561486995,340.3452084824477L991.4999186633219,480L803.9726314970309,480L797.6025270734299,424.67059573052575L835.0093137313103,327.19832131626197L885.6024922856643,314.9916034486017Z" stroke-width="0.35"/><path transform="translate(0,0)" d="M966.4918032786884,192.99425700162067L892.4998407941421,225.1281980860978L848.8145529335577,182.968049297756L876.9015010484695,0L1047.598795935885,0L1012.3267095117969,153.18300921062286Z" stroke-width="0.35"/><path transform="translate(0,0)" d="M966.4918032786884,192.99425700162067L966.4918032786884,313.1875611801977L935.2250561486995,340.3452084824477L885.6024922856643,314.9916034486017L892.4998407941421,225.1281980860978Z" stroke-width="0.35"/><path transform="translate(0,0)" d="M1047.3689309159272,244.49384678745068L1014.2413165813039,292.4504433128459L966.4918032786884,313.1875611801977L966.4918032786884,192.99425700162067L1012.3267095117969,153.18300921062286Z" stroke-width="0.35"/><path transform="translate(0,0)" d="M1014.2413165813039,292.4504433128459L1096.9853676984544,382.2876490851893L1091.360529630694,480L991.4999186633219,480L935.2250561486995,340.3452084824477L966.4918032786884,313.1875611801977Z" stroke-width="0.35"/><path transform="translate(0,0)" d="M1085.5306004053239,259.5604075558053L1123.172209604452,314.05160775800397L1096.9853676984544,382.2876490851893L1014.2413165813039,292.4504433128459L1047.3689309159272,244.49384678745068Z" stroke-width="0.35"/><path transform="translate(0,0)" d="M1085.5306004053239,259.5604075558053L1047.3689309159272,244.49384678745068L1012.3267095117969,153.18300921062286L1047.598795935885,0L1341.1839076202855,0L1322.678192253654,53.5789336525697Z" stroke-width="0.35"/><path transform="translate(0,0)" d="M1085.5306004053239,259.5604075558053L1322.678192253654,53.5789336525697L1307.6065573770493,119.03347910711443L1163.1631419991509,298.2628380010804L1123.172209604452,314.05160775800397Z" stroke-width="0.35"/><path transform="translate(0,0)" d="M1123.172209604452,314.05160775800397L1163.1631419991509,298.2628380010804L1221.9554047301717,362.09501123260867L1140.5086116086895,480L1091.360529630694,480L1096.9853676984544,382.2876490851893Z" stroke-width="0.35"/><path transform="translate(0,0)" d="M1163.1631419991509,298.2628380010804L1307.6065573770493,119.03347910711443L1307.6065573770493,208.1842002394279L1240.4201684020836,354.0759560805584L1221.9554047301717,362.09501123260867Z" stroke-width="0.35"/><path transform="translate(0,0)" d="M1140.5086116086895,480L1221.9554047301717,362.09501123260867L1240.4201684020836,354.0759560805584L1307.6065573770493,402.70654136093515L1317.9442899542405,417.67177444968354L1337.079976691299,480Z" stroke-width="0.35"/><path transform="translate(0,0)" d="M1240.4201684020836,354.0759560805584L1307.6065573770493,208.1842002394279L1307.6065573770493,402.70654136093515Z" stroke-width="0.35"/><path transform="translate(0,0)" d="M1307.6065573770493,402.70654136093515L1307.6065573770493,208.1842002394275L1361.0122605080192,324.1519121611167L1317.9442899542405,417.67177444968354Z" stroke-width="0.35"/><path transform="translate(0,0)" d="M1337.079976691299,480L1317.9442899542405,417.67177444968354L1361.0122605080192,324.1519121611167L1402.6489416777733,354.28920939213873L1418.9619907332017,401.51979495425786L1414.9178951041379,454.2090572689872L1400.0712687443538,480Z" stroke-width="0.35"/><path transform="translate(0,0)" d="M1322.678192253654,53.5789336525697L1341.1839076202855,0L1556.2602216496473,0L1546.6680346065668,145.80255346288808L1402.6489416777733,354.28920939213873L1361.0122605080192,324.1519121611167L1307.6065573770493,208.1842002394275L1307.6065573770493,119.03347910711443Z" stroke-width="0.35"/><path transform="translate(0,0)" d="M1402.6489416777733,354.28920939213873L1546.6680346065668,145.80255346288808L1547.6240654113103,170.71420861272082L1528.2578867818684,282.8546127347526L1418.9619907332017,401.51979495425786Z" stroke-width="0.35"/><path transform="translate(0,0)" d="M1414.9178951041379,454.2090572689872L1418.9619907332017,401.51979495425786L1528.2578867818684,282.8546127347526L1535.2313403581345,373.7095673206128L1511.976512217613,407.3740020468051Z" stroke-width="0.35"/><path transform="translate(0,0)" d="M1400.0712687443538,480L1414.9178951041379,454.2090572689872L1511.976512217613,407.3740020468051L1562.1453362205118,480Z" stroke-width="0.35"/><path transform="translate(0,0)" d="M1562.1453362205118,480L1511.976512217613,407.3740020468051L1535.2313403581345,373.7095673206128L1591.00906479697,408.3148339074703L1624.021673529107,480Z" stroke-width="0.35"/><path transform="translate(0,0)" d="M1528.2578867818684,282.8546127347526L1547.6240654113103,170.71420861272082L1630.630279465325,350.9578933652569L1591.00906479697,408.3148339074703L1535.2313403581345,373.7095673206128Z" stroke-width="0.35"/><path transform="translate(0,0)" d="M1624.021673529107,480L1591.00906479697,408.3148339074703L1630.630279465325,350.9578933652569L1664.9694097519944,372.26236158955857L1689.7771956332283,480Z" stroke-width="0.35"/><path transform="translate(0,0)" d="M1546.6680346065668,145.80255346288808L1556.2602216496473,0L1661.6412832161882,0L1746.071153419727,200.0019056460874L1731.9904486831192,291.7284637560774L1714.8583980784229,328.9298222754284L1664.9694097519944,372.26236158955857L1630.630279465325,350.9578933652569L1547.6240654113103,170.71420861272082Z" stroke-width="0.35"/><path transform="translate(0,0)" d="M1747.6895198510717,480L1689.7771956332283,480L1664.9694097519944,372.26236158955857L1714.8583980784229,328.9298222754284L1748.4713045606202,474.9071852630033Z" stroke-width="0.35"/><path transform="translate(0,0)" d="M1748.4713045606202,474.9071852630033L1714.8583980784229,328.9298222754284L1731.9904486831192,291.7284637560774L1777.5614507141586,390.68352895872385Z" stroke-width="0.35"/><path transform="translate(0,0)" d="M1731.9904486831192,291.7284637560774L1746.071153419727,200.0019056460874L1819.27868852459,273.3709958410308L1819.27868852459,354.448802456166L1777.5614507141586,390.68352895872385Z" stroke-width="0.35"/><path transform="translate(0,0)" d="M1747.6895198510717,480L1748.4713045606202,474.9071852630033L1777.5614507141586,390.68352895872385L1819.27868852459,354.448802456166L1876.1311475409836,403.82966781494076L1876.1311475409836,480Z" stroke-width="0.35"/><path transform="translate(0,0)" d="M1819.27868852459,354.448802456166L1819.27868852459,273.3709958410308L1914.0327868852457,305.0253967120401L1914.0327868852457,337.98851400324145L1876.1311475409836,403.82966781494076Z" stroke-width="0.35"/><path transform="translate(0,0)" d="M2120.762087638278,0L2106.9404607975043,100.04315056197439L1959.5551435514465,274.6101861525925L1914.0327868852457,305.0253967120401L1819.27868852459,273.3709958410308L1746.071153419727,200.0019056460874L1661.6412832161882,0Z" stroke-width="0.35"/><path transform="translate(0,0)" d="M1876.1311475409836,480L1876.1311475409836,403.82966781494076L1914.0327868852457,337.98851400324145L1992.9203514682092,406.5086144975689L1964.7166741127621,480Z" stroke-width="0.35"/><path transform="translate(0,0)" d="M1914.0327868852457,305.0253967120401L1959.5551435514465,274.6101861525925L2012.4753110533563,389.52358266118017L1992.9203514682092,406.5086144975689L1914.0327868852457,337.98851400324145Z" stroke-width="0.35"/><path transform="translate(0,0)" d="M2012.4753110533563,389.52358266118017L1959.5551435514465,274.6101861525925L2106.9404607975043,100.04315056197439L2113.2071756920686,138.14511956436215L2074.923971848915,304.40509909631106L2029.464752054149,383.37496779989607Z" stroke-width="0.35"/><path transform="translate(0,0)" d="M1964.7166741127621,480L1992.9203514682092,406.5086144975689L2012.4753110533563,389.52358266118017L2029.464752054149,383.37496779989607L2110.9893523959627,433.95394994014305L2128.660375067566,480Z" stroke-width="0.35"/><path transform="translate(0,0)" d="M2029.464752054149,383.37496779989607L2074.923971848915,304.40509909631106L2118.854265143819,399.79745045184444L2110.9893523959627,433.95394994014305Z" stroke-width="0.35"/><path transform="translate(0,0)" d="M2118.854265143819,399.79745045184444L2074.923971848915,304.40509909631106L2113.2071756920686,138.14511956436215L2195.4206728301274,316.66746068586997Z" stroke-width="0.35"/><path transform="translate(0,0)" d="M2118.854265143819,399.79745045184444L2195.4206728301274,316.66746068586997L2197.374257011714,318.7885140032414L2160.253524784715,480L2128.660375067566,480L2110.9893523959627,433.95394994014305Z" stroke-width="0.35"/><path transform="translate(0,0)" d="M2160.253524784715,480L2197.374257011714,318.7885140032414L2217.245901639344,332.0655123788691L2217.245901639344,480Z" stroke-width="0.35"/><path transform="translate(0,0)" d="M2241.443151756427,480L2217.245901639344,480L2217.245901639344,332.0655123788691L2308.963954914271,362.7056648968379Z" stroke-width="0.35"/><path transform="translate(0,0)" d="M2312,0L2312,361.9731521974199L2308.963954914271,362.7056648968379L2217.245901639344,332.0655123788691L2197.374257011714,318.7885140032414L2195.4206728301274,316.66746068586997L2113.2071756920686,138.14511956436215L2106.9404607975043,100.04315056197439L2120.762087638278,0Z" stroke-width="0.35"/><path transform="translate(0,0)" d="M2312,480L2241.443151756427,480L2308.963954914271,362.7056648968379L2312,361.9731521974199Z" stroke-width="0.35"/></g><g class="mark-symbol role-mark layer_4_marks" role="graphics-object" aria-roledescription="symbol mark container"><path aria-label="date: Sep 08, 2025; count: 1; Peak date: Sep 08, 2025; Peak unique count: 1" role="graphics-symbol" aria-roledescription="point" transform="translate(0,471.27272727272725)" d="M-5.916,0L0,-5.916L5.916,0L0,5.916Z" fill="#ff9900" stroke="#b36b00" stroke-width="1.5" opacity="0"/><path aria-label="date: Sep 09, 2025; count: 54; Peak date: Sep 09, 2025; Peak unique count: 54" role="graphics-symbol" aria-roledescription="point" transform="translate(37.9016393442623,8.72727272727273)" d="M-5.916,0L0,-5.916L5.916,0L0,5.916Z" fill="#ff9900" stroke="#b36b00" stroke-width="1.5" opacity="1"/><path aria-label="date: Sep 10, 2025; count: 51; Peak date: Sep 10, 2025; Peak unique count: 51" role="graphics-symbol" aria-roledescription="point" transform="translate(75.8032786885246,34.90909090909092)" d="M-5.916,0L0,-5.916L5.916,0L0,5.916Z" fill="#ff9900" stroke="#b36b00" stroke-width="1.5" opacity="0"/><path aria-label="date: Sep 11, 2025; count: 36; Peak date: Sep 11, 2025; Peak unique count: 36" role="graphics-symbol" aria-roledescription="point" transform="translate(113.70491803278688,165.8181818181818)" d="M-5.916,0L0,-5.916L5.916,0L0,5.916Z" fill="#ff9900" stroke="#b36b00" stroke-width="1.5" opacity="0"/><path aria-label="date: Sep 12, 2025; count: 32; Peak date: Sep 12, 2025; Peak unique count: 32" role="graphics-symbol" aria-roledescription="point" transform="translate(151.6065573770492,200.72727272727275)" d="M-5.916,0L0,-5.916L5.916,0L0,5.916Z" fill="#ff9900" stroke="#b36b00" stroke-width="1.5" opacity="0"/><path aria-label="date: Sep 13, 2025; count: 20; Peak date: Sep 13, 2025; Peak unique count: 20" role="graphics-symbol" aria-roledescription="point" transform="translate(189.50819672131146,305.45454545454544)" d="M-5.916,0L0,-5.916L5.916,0L0,5.916Z" fill="#ff9900" stroke="#b36b00" stroke-width="1.5" opacity="0"/><path aria-label="date: Sep 14, 2025; count: 18; Peak date: Sep 14, 2025; Peak unique count: 18" role="graphics-symbol" aria-roledescription="point" transform="translate(227.40983606557376,322.90909090909093)" d="M-5.916,0L0,-5.916L5.916,0L0,5.916Z" fill="#ff9900" stroke="#b36b00" stroke-width="1.5" opacity="0"/><path aria-label="date: Sep 15, 2025; count: 25; Peak date: Sep 15, 2025; Peak unique count: 25" role="graphics-symbol" aria-roledescription="point" transform="translate(265.3114754098361,261.8181818181818)" d="M-5.916,0L0,-5.916L5.916,0L0,5.916Z" fill="#ff9900" stroke="#b36b00" stroke-width="1.5" opacity="0"/><path aria-label="date: Sep 16, 2025; count: 27; Peak date: Sep 16, 2025; Peak unique count: 27" role="graphics-symbol" aria-roledescription="point" transform="translate(303.2131147540984,244.36363636363635)" d="M-5.916,0L0,-5.916L5.916,0L0,5.916Z" fill="#ff9900" stroke="#b36b00" stroke-width="1.5" opacity="0"/><path aria-label="date: Sep 17, 2025; count: 39; Peak date: Sep 17, 2025; Peak unique count: 39" role="graphics-symbol" aria-roledescription="point" transform="translate(341.11475409836066,139.63636363636363)" d="M-5.916,0L0,-5.916L5.916,0L0,5.916Z" fill="#ff9900" stroke="#b36b00" stroke-width="1.5" opacity="0"/><path aria-label="date: Sep 18, 2025; count: 41; Peak date: Sep 18, 2025; Peak unique count: 41" role="graphics-symbol" aria-roledescription="point" transform="translate(379.0163934426229,122.18181818181817)" d="M-5.916,0L0,-5.916L5.916,0L0,5.916Z" fill="#ff9900" stroke="#b36b00" stroke-width="1.5" opacity="0"/><path aria-label="date: Sep 19, 2025; count: 28; Peak date: Sep 19, 2025; Peak unique count: 28" role="graphics-symbol" aria-roledescription="point" transform="translate(416.91803278688525,235.63636363636365)" d="M-5.916,0L0,-5.916L5.916,0L0,5.916Z" fill="#ff9900" stroke="#b36b00" stroke-width="1.5" opacity="0"/><path aria-label="date: Sep 20, 2025; count: 24; Peak date: Sep 20, 2025; Peak unique count: 24" role="graphics-symbol" aria-roledescription="point" transform="translate(454.8196721311475,270.54545454545456)" d="M-5.916,0L0,-5.916L5.916,0L0,5.916Z" fill="#ff9900" stroke="#b36b00" stroke-width="1.5" opacity="0"/><path aria-label="date: Sep 21, 2025; count: 15; Peak date: Sep 21, 2025; Peak unique count: 15" role="graphics-symbol" aria-roledescription="point" transform="translate(492.7213114754098,349.0909090909091)" d="M-5.916,0L0,-5.916L5.916,0L0,5.916Z" fill="#ff9900" stroke="#b36b00" stroke-width="1.5" opacity="0"/><path aria-label="date: Sep 22, 2025; count: 16; Peak date: Sep 22, 2025; Peak unique count: 16" role="graphics-symbol" aria-roledescription="point" transform="translate(530.6229508196722,340.3636363636364)" d="M-5.916,0L0,-5.916L5.916,0L0,5.916Z" fill="#ff9900" stroke="#b36b00" stroke-width="1.5" opacity="0"/><path aria-label="date: Sep 23, 2025; count: 17; Peak date: Sep 23, 2025; Peak unique count: 17" role="graphics-symbol" aria-roledescription="point" transform="translate(568.5245901639344,331.6363636363636)" d="M-5.916,0L0,-5.916L5.916,0L0,5.916Z" fill="#ff9900" stroke="#b36b00" stroke-width="1.5" opacity="0"/><path aria-label="date: Sep 24, 2025; count: 18; Peak date: Sep 24, 2025; Peak unique count: 18" role="graphics-symbol" aria-roledescription="point" transform="translate(606.4262295081968,322.90909090909093)" d="M-5.916,0L0,-5.916L5.916,0L0,5.916Z" fill="#ff9900" stroke="#b36b00" stroke-width="1.5" opacity="0"/><path aria-label="date: Sep 25, 2025; count: 11; Peak date: Sep 25, 2025; Peak unique count: 11" role="graphics-symbol" aria-roledescription="point" transform="translate(644.327868852459,384)" d="M-5.916,0L0,-5.916L5.916,0L0,5.916Z" fill="#ff9900" stroke="#b36b00" stroke-width="1.5" opacity="0"/><path aria-label="date: Sep 26, 2025; count: 25; Peak date: Sep 26, 2025; Peak unique count: 25" role="graphics-symbol" aria-roledescription="point" transform="translate(682.2295081967213,261.8181818181818)" d="M-5.916,0L0,-5.916L5.916,0L0,5.916Z" fill="#ff9900" stroke="#b36b00" stroke-width="1.5" opacity="0"/><path aria-label="date: Sep 27, 2025; count: 7; Peak date: Sep 27, 2025; Peak unique count: 7" role="graphics-symbol" aria-roledescription="point" transform="translate(720.1311475409836,418.90909090909093)" d="M-5.916,0L0,-5.916L5.916,0L0,5.916Z" fill="#ff9900" stroke="#b36b00" stroke-width="1.5" opacity="0"/><path aria-label="date: Sep 28, 2025; count: 14; Peak date: Sep 28, 2025; Peak unique count: 14" role="graphics-symbol" aria-roledescription="point" transform="translate(758.0327868852459,357.8181818181818)" d="M-5.916,0L0,-5.916L5.916,0L0,5.916Z" fill="#ff9900" stroke="#b36b00" stroke-width="1.5" opacity="0"/><path aria-label="date: Sep 29, 2025; count: 38; Peak date: Sep 29, 2025; Peak unique count: 38" role="graphics-symbol" aria-roledescription="point" transform="translate(795.9344262295082,148.36363636363637)" d="M-5.916,0L0,-5.916L5.916,0L0,5.916Z" fill="#ff9900" stroke="#b36b00" stroke-width="1.5" opacity="0"/><path aria-label="date: Sep 30, 2025; count: 27; Peak date: Sep 30, 2025; Peak unique count: 27" role="graphics-symbol" aria-roledescription="point" transform="translate(833.8360655737705,244.36363636363635)" d="M-5.916,0L0,-5.916L5.916,0L0,5.916Z" fill="#ff9900" stroke="#b36b00" stroke-width="1.5" opacity="0"/><path aria-label="date: Oct 01, 2025; count: 9; Peak date: Oct 01, 2025; Peak unique count: 9" role="graphics-symbol" aria-roledescription="point" transform="translate(871.7377049180327,401.4545454545455)" d="M-5.916,0L0,-5.916L5.916,0L0,5.916Z" fill="#ff9900" stroke="#b36b00" stroke-width="1.5" opacity="0"/><path aria-label="date: Oct 02, 2025; count: 36; Peak date: Oct 02, 2025; Peak unique count: 36" role="graphics-symbol" aria-roledescription="point" transform="translate(909.639344262295,165.8181818181818)" d="M-5.916,0L0,-5.916L5.916,0L0,5.916Z" fill="#ff9900" stroke="#b36b00" stroke-width="1.5" opacity="0"/><path aria-label="date: Oct 03, 2025; count: 26; Peak date: Oct 03, 2025; Peak unique count: 26" role="graphics-symbol" aria-roledescription="point" transform="translate(947.5409836065573,253.09090909090912)" d="M-5.916,0L0,-5.916L5.916,0L0,5.916Z" fill="#ff9900" stroke="#b36b00" stroke-width="1.5" opacity="0"/><path aria-label="date: Oct 04, 2025; count: 26; Peak date: Oct 04, 2025; Peak unique count: 26" role="graphics-symbol" aria-roledescription="point" transform="translate(985.4426229508196,253.09090909090912)" d="M-5.916,0L0,-5.916L5.916,0L0,5.916Z" fill="#ff9900" stroke="#b36b00" stroke-width="1.5" opacity="0"/><path aria-label="date: Oct 05, 2025; count: 16; Peak date: Oct 05, 2025; Peak unique count: 16" role="graphics-symbol" aria-roledescription="point" transform="translate(1023.344262295082,340.3636363636364)" d="M-5.916,0L0,-5.916L5.916,0L0,5.916Z" fill="#ff9900" stroke="#b36b00" stroke-width="1.5" opacity="0"/><path aria-label="date: Oct 06, 2025; count: 20; Peak date: Oct 06, 2025; Peak unique count: 20" role="graphics-symbol" aria-roledescription="point" transform="translate(1061.2459016393443,305.45454545454544)" d="M-5.916,0L0,-5.916L5.916,0L0,5.916Z" fill="#ff9900" stroke="#b36b00" stroke-width="1.5" opacity="0"/><path aria-label="date: Oct 07, 2025; count: 31; Peak date: Oct 07, 2025; Peak unique count: 31" role="graphics-symbol" aria-roledescription="point" transform="translate(1099.1475409836064,209.45454545454547)" d="M-5.916,0L0,-5.916L5.916,0L0,5.916Z" fill="#ff9900" stroke="#b36b00" stroke-width="1.5" opacity="0"/><path aria-label="date: Oct 08, 2025; count: 26; Peak date: Oct 08, 2025; Peak unique count: 26" role="graphics-symbol" aria-roledescription="point" transform="translate(1137.0491803278687,253.09090909090912)" d="M-5.916,0L0,-5.916L5.916,0L0,5.916Z" fill="#ff9900" stroke="#b36b00" stroke-width="1.5" opacity="0"/><path aria-label="date: Oct 09, 2025; count: 15; Peak date: Oct 09, 2025; Peak unique count: 15" role="graphics-symbol" aria-roledescription="point" transform="translate(1174.9508196721313,349.0909090909091)" d="M-5.916,0L0,-5.916L5.916,0L0,5.916Z" fill="#ff9900" stroke="#b36b00" stroke-width="1.5" opacity="0"/><path aria-label="date: Oct 10, 2025; count: 19; Peak date: Oct 10, 2025; Peak unique count: 19" role="graphics-symbol" aria-roledescription="point" transform="translate(1212.8524590163936,314.1818181818182)" d="M-5.916,0L0,-5.916L5.916,0L0,5.916Z" fill="#ff9900" stroke="#b36b00" stroke-width="1.5" opacity="0"/><path aria-label="date: Oct 11, 2025; count: 9; Peak date: Oct 11, 2025; Peak unique count: 9" role="graphics-symbol" aria-roledescription="point" transform="translate(1250.754098360656,401.4545454545455)" d="M-5.916,0L0,-5.916L5.916,0L0,5.916Z" fill="#ff9900" stroke="#b36b00" stroke-width="1.5" opacity="0"/><path aria-label="date: Oct 12, 2025; count: 15; Peak date: Oct 12, 2025; Peak unique count: 15" role="graphics-symbol" aria-roledescription="point" transform="translate(1288.655737704918,349.0909090909091)" d="M-5.916,0L0,-5.916L5.916,0L0,5.916Z" fill="#ff9900" stroke="#b36b00" stroke-width="1.5" opacity="0"/><path aria-label="date: Oct 13, 2025; count: 15; Peak date: Oct 13, 2025; Peak unique count: 15" role="graphics-symbol" aria-roledescription="point" transform="translate(1326.5573770491803,349.0909090909091)" d="M-5.916,0L0,-5.916L5.916,0L0,5.916Z" fill="#ff9900" stroke="#b36b00" stroke-width="1.5" opacity="0"/><path aria-label="date: Oct 14, 2025; count: 13; Peak date: Oct 14, 2025; Peak unique count: 13" role="graphics-symbol" aria-roledescription="point" transform="translate(1364.4590163934427,366.54545454545456)" d="M-5.916,0L0,-5.916L5.916,0L0,5.916Z" fill="#ff9900" stroke="#b36b00" stroke-width="1.5" opacity="0"/><path aria-label="date: Oct 15, 2025; count: 19; Peak date: Oct 15, 2025; Peak unique count: 19" role="graphics-symbol" aria-roledescription="point" transform="translate(1402.360655737705,314.1818181818182)" d="M-5.916,0L0,-5.916L5.916,0L0,5.916Z" fill="#ff9900" stroke="#b36b00" stroke-width="1.5" opacity="0"/><path aria-label="date: Oct 16, 2025; count: 16; Peak date: Oct 16, 2025; Peak unique count: 16" role="graphics-symbol" aria-roledescription="point" transform="translate(1440.2622950819673,340.3636363636364)" d="M-5.916,0L0,-5.916L5.916,0L0,5.916Z" fill="#ff9900" stroke="#b36b00" stroke-width="1.5" opacity="0"/><path aria-label="date: Oct 17, 2025; count: 12; Peak date: Oct 17, 2025; Peak unique count: 12" role="graphics-symbol" aria-roledescription="point" transform="translate(1478.1639344262296,375.2727272727273)" d="M-5.916,0L0,-5.916L5.916,0L0,5.916Z" fill="#ff9900" stroke="#b36b00" stroke-width="1.5" opacity="0"/><path aria-label="date: Oct 18, 2025; count: 3; Peak date: Oct 18, 2025; Peak unique count: 3" role="graphics-symbol" aria-roledescription="point" transform="translate(1516.0655737704917,453.8181818181818)" d="M-5.916,0L0,-5.916L5.916,0L0,5.916Z" fill="#ff9900" stroke="#b36b00" stroke-width="1.5" opacity="0"/><path aria-label="date: Oct 19, 2025; count: 6; Peak date: Oct 19, 2025; Peak unique count: 6" role="graphics-symbol" aria-roledescription="point" transform="translate(1553.967213114754,427.6363636363636)" d="M-5.916,0L0,-5.916L5.916,0L0,5.916Z" fill="#ff9900" stroke="#b36b00" stroke-width="1.5" opacity="0"/><path aria-label="date: Oct 20, 2025; count: 13; Peak date: Oct 20, 2025; Peak unique count: 13" role="graphics-symbol" aria-roledescription="point" transform="translate(1591.8688524590164,366.54545454545456)" d="M-5.916,0L0,-5.916L5.916,0L0,5.916Z" fill="#ff9900" stroke="#b36b00" stroke-width="1.5" opacity="0"/><path aria-label="date: Oct 21, 2025; count: 10; Peak date: Oct 21, 2025; Peak unique count: 10" role="graphics-symbol" aria-roledescription="point" transform="translate(1629.7704918032787,392.7272727272727)" d="M-5.916,0L0,-5.916L5.916,0L0,5.916Z" fill="#ff9900" stroke="#b36b00" stroke-width="1.5" opacity="0"/><path aria-label="date: Oct 22, 2025; count: 17; Peak date: Oct 22, 2025; Peak unique count: 17" role="graphics-symbol" aria-roledescription="point" transform="translate(1667.672131147541,331.6363636363636)" d="M-5.916,0L0,-5.916L5.916,0L0,5.916Z" fill="#ff9900" stroke="#b36b00" stroke-width="1.5" opacity="0"/><path aria-label="date: Oct 23, 2025; count: 12; Peak date: Oct 23, 2025; Peak unique count: 12" role="graphics-symbol" aria-roledescription="point" transform="translate(1705.5737704918033,375.2727272727273)" d="M-5.916,0L0,-5.916L5.916,0L0,5.916Z" fill="#ff9900" stroke="#b36b00" stroke-width="1.5" opacity="0"/><path aria-label="date: Oct 24, 2025; count: 13; Peak date: Oct 24, 2025; Peak unique count: 13" role="graphics-symbol" aria-roledescription="point" transform="translate(1743.4754098360654,366.54545454545456)" d="M-5.916,0L0,-5.916L5.916,0L0,5.916Z" fill="#ff9900" stroke="#b36b00" stroke-width="1.5" opacity="0"/><path aria-label="date: Oct 25, 2025; count: 15; Peak date: Oct 25, 2025; Peak unique count: 15" role="graphics-symbol" aria-roledescription="point" transform="translate(1781.3770491803277,349.0909090909091)" d="M-5.916,0L0,-5.916L5.916,0L0,5.916Z" fill="#ff9900" stroke="#b36b00" stroke-width="1.5" opacity="0"/><path aria-label="date: Oct 26, 2025; count: 10; Peak date: Oct 26, 2025; Peak unique count: 10" role="graphics-symbol" aria-roledescription="point" transform="translate(1819.27868852459,392.7272727272727)" d="M-5.916,0L0,-5.916L5.916,0L0,5.916Z" fill="#ff9900" stroke="#b36b00" stroke-width="1.5" opacity="0"/><path aria-label="date: Oct 27, 2025; count: 15; Peak date: Oct 27, 2025; Peak unique count: 15" role="graphics-symbol" aria-roledescription="point" transform="translate(1857.1803278688524,349.0909090909091)" d="M-5.916,0L0,-5.916L5.916,0L0,5.916Z" fill="#ff9900" stroke="#b36b00" stroke-width="1.5" opacity="0"/><path aria-label="date: Oct 28, 2025; count: 28; Peak date: Oct 28, 2025; Peak unique count: 28" role="graphics-symbol" aria-roledescription="point" transform="translate(1895.0819672131147,235.63636363636365)" d="M-5.916,0L0,-5.916L5.916,0L0,5.916Z" fill="#ff9900" stroke="#b36b00" stroke-width="1.5" opacity="0"/><path aria-label="date: Oct 29, 2025; count: 10; Peak date: Oct 29, 2025; Peak unique count: 10" role="graphics-symbol" aria-roledescription="point" transform="translate(1932.9836065573772,392.7272727272727)" d="M-5.916,0L0,-5.916L5.916,0L0,5.916Z" fill="#ff9900" stroke="#b36b00" stroke-width="1.5" opacity="0"/><path aria-label="date: Oct 30, 2025; count: 15; Peak date: Oct 30, 2025; Peak unique count: 15" role="graphics-symbol" aria-roledescription="point" transform="translate(1970.885245901639,349.0909090909091)" d="M-5.916,0L0,-5.916L5.916,0L0,5.916Z" fill="#ff9900" stroke="#b36b00" stroke-width="1.5" opacity="0"/><path aria-label="date: Oct 31, 2025; count: 17; Peak date: Oct 31, 2025; Peak unique count: 17" role="graphics-symbol" aria-roledescription="point" transform="translate(2008.7868852459017,331.6363636363636)" d="M-5.916,0L0,-5.916L5.916,0L0,5.916Z" fill="#ff9900" stroke="#b36b00" stroke-width="1.5" opacity="0"/><path aria-label="date: Nov 01, 2025; count: 5; Peak date: Nov 01, 2025; Peak unique count: 5" role="graphics-symbol" aria-roledescription="point" transform="translate(2046.688524590164,436.3636363636364)" d="M-5.916,0L0,-5.916L5.916,0L0,5.916Z" fill="#ff9900" stroke="#b36b00" stroke-width="1.5" opacity="0"/><path aria-label="date: Nov 02, 2025; count: 12; Peak date: Nov 02, 2025; Peak unique count: 12" role="graphics-symbol" aria-roledescription="point" transform="translate(2084.590163934426,375.2727272727273)" d="M-5.916,0L0,-5.916L5.916,0L0,5.916Z" fill="#ff9900" stroke="#b36b00" stroke-width="1.5" opacity="0"/><path aria-label="date: Nov 03, 2025; count: 14; Peak date: Nov 03, 2025; Peak unique count: 14" role="graphics-symbol" aria-roledescription="point" transform="translate(2122.4918032786886,357.8181818181818)" d="M-5.916,0L0,-5.916L5.916,0L0,5.916Z" fill="#ff9900" stroke="#b36b00" stroke-width="1.5" opacity="0"/><path aria-label="date: Nov 04, 2025; count: 10; Peak date: Nov 04, 2025; Peak unique count: 10" role="graphics-symbol" aria-roledescription="point" transform="translate(2160.3934426229507,392.7272727272727)" d="M-5.916,0L0,-5.916L5.916,0L0,5.916Z" fill="#ff9900" stroke="#b36b00" stroke-width="1.5" opacity="0"/><path aria-label="date: Nov 05, 2025; count: 9; Peak date: Nov 05, 2025; Peak unique count: 9" role="graphics-symbol" aria-roledescription="point" transform="translate(2198.295081967213,401.4545454545455)" d="M-5.916,0L0,-5.916L5.916,0L0,5.916Z" fill="#ff9900" stroke="#b36b00" stroke-width="1.5" opacity="0"/><path aria-label="date: Nov 06, 2025; count: 9; Peak date: Nov 06, 2025; Peak unique count: 9" role="graphics-symbol" aria-roledescription="point" transform="translate(2236.1967213114754,401.4545454545455)" d="M-5.916,0L0,-5.916L5.916,0L0,5.916Z" fill="#ff9900" stroke="#b36b00" stroke-width="1.5" opacity="0"/><path aria-label="date: Nov 07, 2025; count: 22; Peak date: Nov 07, 2025; Peak unique count: 22" role="graphics-symbol" aria-roledescription="point" transform="translate(2274.0983606557375,288)" d="M-5.916,0L0,-5.916L5.916,0L0,5.916Z" fill="#ff9900" stroke="#b36b00" stroke-width="1.5" opacity="0"/><path aria-label="date: Nov 08, 2025; count: 4; Peak date: Nov 08, 2025; Peak unique count: 4" role="graphics-symbol" aria-roledescription="point" transform="translate(2312,445.09090909090907)" d="M-5.916,0L0,-5.916L5.916,0L0,5.916Z" fill="#ff9900" stroke="#b36b00" stroke-width="1.5" opacity="0"/></g><g class="mark-rule role-mark layer_5_marks" role="graphics-symbol" aria-roledescription="rule mark container" pointer-events="none"><line transform="translate(2312,314.4436363636364)" x2="-2312" y2="0" stroke="#d62728" stroke-width="1.5" stroke-dasharray="4,4"/><line transform="translate(2312,314.4436363636364)" x2="-2312" y2="0" stroke="#d62728" stroke-width="1.5" stroke-dasharray="4,4"/><line transform="translate(2312,314.4436363636364)" x2="-2312" y2="0" stroke="#d62728" stroke-width="1.5" stroke-dasharray="4,4"/><line transform="translate(2312,314.4436363636364)" x2="-2312" y2="0" stroke="#d62728" stroke-width="1.5" stroke-dasharray="4,4"/><line transform="translate(2312,314.4436363636364)" x2="-2312" y2="0" stroke="#d62728" stroke-width="1.5" stroke-dasharray="4,4"/><line transform="translate(2312,314.4436363636364)" x2="-2312" y2="0" stroke="#d62728" stroke-width="1.5" stroke-dasharray="4,4"/><line transform="translate(2312,314.4436363636364)" x2="-2312" y2="0" stroke="#d62728" stroke-width="1.5" stroke-dasharray="4,4"/><line transform="translate(2312,314.4436363636364)" x2="-2312" y2="0" stroke="#d62728" stroke-width="1.5" stroke-dasharray="4,4"/><line transform="translate(2312,314.4436363636364)" x2="-2312" y2="0" stroke="#d62728" stroke-width="1.5" stroke-dasharray="4,4"/><line transform="translate(2312,314.4436363636364)" x2="-2312" y2="0" stroke="#d62728" stroke-width="1.5" stroke-dasharray="4,4"/><line transform="translate(2312,314.4436363636364)" x2="-2312" y2="0" stroke="#d62728" stroke-width="1.5" stroke-dasharray="4,4"/><line transform="translate(2312,314.4436363636364)" x2="-2312" y2="0" stroke="#d62728" stroke-width="1.5" stroke-dasharray="4,4"/><line transform="translate(2312,314.4436363636364)" x2="-2312" y2="0" stroke="#d62728" stroke-width="1.5" stroke-dasharray="4,4"/><line transform="translate(2312,314.4436363636364)" x2="-2312" y2="0" stroke="#d62728" stroke-width="1.5" stroke-dasharray="4,4"/><line transform="translate(2312,314.4436363636364)" x2="-2312" y2="0" stroke="#d62728" stroke-width="1.5" stroke-dasharray="4,4"/><line transform="translate(2312,314.4436363636364)" x2="-2312" y2="0" stroke="#d62728" stroke-width="1.5" stroke-dasharray="4,4"/><line transform="translate(2312,314.4436363636364)" x2="-2312" y2="0" stroke="#d62728" stroke-width="1.5" stroke-dasharray="4,4"/><line transform="translate(2312,314.4436363636364)" x2="-2312" y2="0" stroke="#d62728" stroke-width="1.5" stroke-dasharray="4,4"/><line transform="translate(2312,314.4436363636364)" x2="-2312" y2="0" stroke="#d62728" stroke-width="1.5" stroke-dasharray="4,4"/><line transform="translate(2312,314.4436363636364)" x2="-2312" y2="0" stroke="#d62728" stroke-width="1.5" stroke-dasharray="4,4"/><line transform="translate(2312,314.4436363636364)" x2="-2312" y2="0" stroke="#d62728" stroke-width="1.5" stroke-dasharray="4,4"/><line transform="translate(2312,314.4436363636364)" x2="-2312" y2="0" stroke="#d62728" stroke-width="1.5" stroke-dasharray="4,4"/><line transform="translate(2312,314.4436363636364)" x2="-2312" y2="0" stroke="#d62728" stroke-width="1.5" stroke-dasharray="4,4"/><line transform="translate(2312,314.4436363636364)" x2="-2312" y2="0" stroke="#d62728" stroke-width="1.5" stroke-dasharray="4,4"/><line transform="translate(2312,314.4436363636364)" x2="-2312" y2="0" stroke="#d62728" stroke-width="1.5" stroke-dasharray="4,4"/><line transform="translate(2312,314.4436363636364)" x2="-2312" y2="0" stroke="#d62728" stroke-width="1.5" stroke-dasharray="4,4"/><line transform="translate(2312,314.4436363636364)" x2="-2312" y2="0" stroke="#d62728" stroke-width="1.5" stroke-dasharray="4,4"/><line transform="translate(2312,314.4436363636364)" x2="-2312" y2="0" stroke="#d62728" stroke-width="1.5" stroke-dasharray="4,4"/><line transform="translate(2312,314.4436363636364)" x2="-2312" y2="0" stroke="#d62728" stroke-width="1.5" stroke-dasharray="4,4"/><line transform="translate(2312,314.4436363636364)" x2="-2312" y2="0" stroke="#d62728" stroke-width="1.5" stroke-dasharray="4,4"/><line transform="translate(2312,314.4436363636364)" x2="-2312" y2="0" stroke="#d62728" stroke-width="1.5" stroke-dasharray="4,4"/><line transform="translate(2312,314.4436363636364)" x2="-2312" y2="0" stroke="#d62728" stroke-width="1.5" stroke-dasharray="4,4"/><line transform="translate(2312,314.4436363636364)" x2="-2312" y2="0" stroke="#d62728" stroke-width="1.5" stroke-dasharray="4,4"/><line transform="translate(2312,314.4436363636364)" x2="-2312" y2="0" stroke="#d62728" stroke-width="1.5" stroke-dasharray="4,4"/><line transform="translate(2312,314.4436363636364)" x2="-2312" y2="0" stroke="#d62728" stroke-width="1.5" stroke-dasharray="4,4"/><line transform="translate(2312,314.4436363636364)" x2="-2312" y2="0" stroke="#d62728" stroke-width="1.5" stroke-dasharray="4,4"/><line transform="translate(2312,314.4436363636364)" x2="-2312" y2="0" stroke="#d62728" stroke-width="1.5" stroke-dasharray="4,4"/><line transform="translate(2312,314.4436363636364)" x2="-2312" y2="0" stroke="#d62728" stroke-width="1.5" stroke-dasharray="4,4"/><line transform="translate(2312,314.4436363636364)" x2="-2312" y2="0" stroke="#d62728" stroke-width="1.5" stroke-dasharray="4,4"/><line transform="translate(2312,314.4436363636364)" x2="-2312" y2="0" stroke="#d62728" stroke-width="1.5" stroke-dasharray="4,4"/><line transform="translate(2312,314.4436363636364)" x2="-2312" y2="0" stroke="#d62728" stroke-width="1.5" stroke-dasharray="4,4"/><line transform="translate(2312,314.4436363636364)" x2="-2312" y2="0" stroke="#d62728" stroke-width="1.5" stroke-dasharray="4,4"/><line transform="translate(2312,314.4436363636364)" x2="-2312" y2="0" stroke="#d62728" stroke-width="1.5" stroke-dasharray="4,4"/><line transform="translate(2312,314.4436363636364)" x2="-2312" y2="0" stroke="#d62728" stroke-width="1.5" stroke-dasharray="4,4"/><line transform="translate(2312,314.4436363636364)" x2="-2312" y2="0" stroke="#d62728" stroke-width="1.5" stroke-dasharray="4,4"/><line transform="translate(2312,314.4436363636364)" x2="-2312" y2="0" stroke="#d62728" stroke-width="1.5" stroke-dasharray="4,4"/><line transform="translate(2312,314.4436363636364)" x2="-2312" y2="0" stroke="#d62728" stroke-width="1.5" stroke-dasharray="4,4"/><line transform="translate(2312,314.4436363636364)" x2="-2312" y2="0" stroke="#d62728" stroke-width="1.5" stroke-dasharray="4,4"/><line transform="translate(2312,314.4436363636364)" x2="-2312" y2="0" stroke="#d62728" stroke-width="1.5" stroke-dasharray="4,4"/><line transform="translate(2312,314.4436363636364)" x2="-2312" y2="0" stroke="#d62728" stroke-width="1.5" stroke-dasharray="4,4"/><line transform="translate(2312,314.4436363636364)" x2="-2312" y2="0" stroke="#d62728" stroke-width="1.5" stroke-dasharray="4,4"/><line transform="translate(2312,314.4436363636364)" x2="-2312" y2="0" stroke="#d62728" stroke-width="1.5" stroke-dasharray="4,4"/><line transform="translate(2312,314.4436363636364)" x2="-2312" y2="0" stroke="#d62728" stroke-width="1.5" stroke-dasharray="4,4"/><line transform="translate(2312,314.4436363636364)" x2="-2312" y2="0" stroke="#d62728" stroke-width="1.5" stroke-dasharray="4,4"/><line transform="translate(2312,314.4436363636364)" x2="-2312" y2="0" stroke="#d62728" stroke-width="1.5" stroke-dasharray="4,4"/><line transform="translate(2312,314.4436363636364)" x2="-2312" y2="0" stroke="#d62728" stroke-width="1.5" stroke-dasharray="4,4"/><line transform="translate(2312,314.4436363636364)" x2="-2312" y2="0" stroke="#d62728" stroke-width="1.5" stroke-dasharray="4,4"/><line transform="translate(2312,314.4436363636364)" x2="-2312" y2="0" stroke="#d62728" stroke-width="1.5" stroke-dasharray="4,4"/><line transform="translate(2312,314.4436363636364)" x2="-2312" y2="0" stroke="#d62728" stroke-width="1.5" stroke-dasharray="4,4"/><line transform="translate(2312,314.4436363636364)" x2="-2312" y2="0" stroke="#d62728" stroke-width="1.5" stroke-dasharray="4,4"/><line transform="translate(2312,314.4436363636364)" x2="-2312" y2="0" stroke="#d62728" stroke-width="1.5" stroke-dasharray="4,4"/><line transform="translate(2312,314.4436363636364)" x2="-2312" y2="0" stroke="#d62728" stroke-width="1.5" stroke-dasharray="4,4"/></g><g class="mark-text role-mark layer_6_marks" role="graphics-object" aria-roledescription="text mark container" pointer-events="none"><text aria-label="date: Nov 08, 2025" role="graphics-symbol" aria-roledescription="text mark" text-anchor="start" transform="translate(2318,312.4436363636364)" font-family="sans-serif" font-size="12px" fill="#d62728">Avg: 18.97</text></g></g><path class="foreground" aria-hidden="true" d="" display="none"/></g></g></g></svg>
