<svg xmlns="http://www.w3.org/2000/svg" xmlns:xlink="http://www.w3.org/1999/xlink" version="1.1" class="marks" width="2259" height="573" viewBox="0 0 2259 573"><rect width="2259" height="573" fill="white"/><g fill="none" stroke-miterlimit="10" transform="translate(51,11)"><g class="mark-group role-frame root" role="graphics-object" aria-roledescription="group mark container"><g transform="translate(0,0)"><path class="background" aria-hidden="true" d="M0.5,0.5h2132v480h-2132Z"/><g><g class="mark-group role-axis" aria-hidden="true"><g transform="translate(0.5,0.5)"><path class="background" aria-hidden="true" d="M0,0h0v0h0Z" pointer-events="none"/><g><g class="mark-rule role-axis-grid" pointer-events="none"><line transform="translate(0,480)" x2="2132" y2="0" stroke="#ddd" stroke-width="1" opacity="1"/><line transform="translate(0,436)" x2="2132" y2="0" stroke="#ddd" stroke-width="1" opacity="1"/><line transform="translate(0,393)" x2="2132" y2="0" stroke="#ddd" stroke-width="1" opacity="1"/><line transform="translate(0,349)" x2="2132" y2="0" stroke="#ddd" stroke-width="1" opacity="1"/><line transform="translate(0,305)" x2="2132" y2="0" stroke="#ddd" stroke-width="1" opacity="1"/><line transform="translate(0,262)" x2="2132" y2="0" stroke="#ddd" stroke-width="1" opacity="1"/><line transform="translate(0,218)" x2="2132" y2="0" stroke="#ddd" stroke-width="1" opacity="1"/><line transform="translate(0,175)" x2="2132" y2="0" stroke="#ddd" stroke-width="1" opacity="1"/><line transform="translate(0,131)" x2="2132" y2="0" stroke="#ddd" stroke-width="1" opacity="1"/><line transform="translate(0,87)" x2="2132" y2="0" stroke="#ddd" stroke-width="1" opacity="1"/><line transform="translate(0,44)" x2="2132" y2="0" stroke="#ddd" stroke-width="1" opacity="1"/><line transform="translate(0,0)" x2="2132" y2="0" stroke="#ddd" stroke-width="1" opacity="1"/></g></g><path class="foreground" aria-hidden="true" d="" pointer-events="none" display="none"/></g></g><g class="mark-group role-axis" role="graphics-symbol" aria-roledescription="axis" aria-label="X-axis titled 'Date' for a time scale with values from 2025-09-08 to 2025-11-03"><g transform="translate(0.5,480.5)"><path class="background" aria-hidden="true" d="M0,0h0v0h0Z" pointer-events="none"/><g><g class="mark-rule role-axis-tick" pointer-events="none"><line transform="translate(0,0)" x2="0" y2="5" stroke="#bbb" stroke-width="1" opacity="1"/><line transform="translate(38,0)" x2="0" y2="5" stroke="#bbb" stroke-width="1" opacity="1"/><line transform="translate(76,0)" x2="0" y2="5" stroke="#bbb" stroke-width="1" opacity="1"/><line transform="translate(114,0)" x2="0" y2="5" stroke="#bbb" stroke-width="1" opacity="1"/><line transform="translate(152,0)" x2="0" y2="5" stroke="#bbb" stroke-width="1" opacity="1"/><line transform="translate(190,0)" x2="0" y2="5" stroke="#bbb" stroke-width="1" opacity="1"/><line transform="translate(228,0)" x2="0" y2="5" stroke="#bbb" stroke-width="1" opacity="1"/><line transform="translate(267,0)" x2="0" y2="5" stroke="#bbb" stroke-width="1" opacity="1"/><line transform="translate(305,0)" x2="0" y2="5" stroke="#bbb" stroke-width="1" opacity="1"/><line transform="translate(343,0)" x2="0" y2="5" stroke="#bbb" stroke-width="1" opacity="1"/><line transform="translate(381,0)" x2="0" y2="5" stroke="#bbb" stroke-width="1" opacity="1"/><line transform="translate(419,0)" x2="0" y2="5" stroke="#bbb" stroke-width="1" opacity="1"/><line transform="translate(457,0)" x2="0" y2="5" stroke="#bbb" stroke-width="1" opacity="1"/><line transform="translate(495,0)" x2="0" y2="5" stroke="#bbb" stroke-width="1" opacity="1"/><line transform="translate(533,0)" x2="0" y2="5" stroke="#bbb" stroke-width="1" opacity="1"/><line transform="translate(571,0)" x2="0" y2="5" stroke="#bbb" stroke-width="1" opacity="1"/><line transform="translate(609,0)" x2="0" y2="5" stroke="#bbb" stroke-width="1" opacity="1"/><line transform="translate(647,0)" x2="0" y2="5" stroke="#bbb" stroke-width="1" opacity="1"/><line transform="translate(685,0)" x2="0" y2="5" stroke="#bbb" stroke-width="1" opacity="1"/><line transform="translate(723,0)" x2="0" y2="5" stroke="#bbb" stroke-width="1" opacity="1"/><line transform="translate(761,0)" x2="0" y2="5" stroke="#bbb" stroke-width="1" opacity="1"/><line transform="translate(800,0)" x2="0" y2="5" stroke="#bbb" stroke-width="1" opacity="1"/><line transform="translate(838,0)" x2="0" y2="5" stroke="#bbb" stroke-width="1" opacity="1"/><line transform="translate(876,0)" x2="0" y2="5" stroke="#bbb" stroke-width="1" opacity="1"/><line transform="translate(914,0)" x2="0" y2="5" stroke="#bbb" stroke-width="1" opacity="1"/><line transform="translate(952,0)" x2="0" y2="5" stroke="#bbb" stroke-width="1" opacity="1"/><line transform="translate(990,0)" x2="0" y2="5" stroke="#bbb" stroke-width="1" opacity="1"/><line transform="translate(1028,0)" x2="0" y2="5" stroke="#bbb" stroke-width="1" opacity="1"/><line transform="translate(1066,0)" x2="0" y2="5" stroke="#bbb" stroke-width="1" opacity="1"/><line transform="translate(1104,0)" x2="0" y2="5" stroke="#bbb" stroke-width="1" opacity="1"/><line transform="translate(1142,0)" x2="0" y2="5" stroke="#bbb" stroke-width="1" opacity="1"/><line transform="translate(1180,0)" x2="0" y2="5" stroke="#bbb" stroke-width="1" opacity="1"/><line transform="translate(1218,0)" x2="0" y2="5" stroke="#bbb" stroke-width="1" opacity="1"/><line transform="translate(1256,0)" x2="0" y2="5" stroke="#bbb" stroke-width="1" opacity="1"/><line transform="translate(1294,0)" x2="0" y2="5" stroke="#bbb" stroke-width="1" opacity="1"/><line transform="translate(1333,0)" x2="0" y2="5" stroke="#bbb" stroke-width="1" opacity="1"/><line transform="translate(1371,0)" x2="0" y2="5" stroke="#bbb" stroke-width="1" opacity="1"/><line transform="translate(1409,0)" x2="0" y2="5" stroke="#bbb" stroke-width="1" opacity="1"/><line transform="translate(1447,0)" x2="0" y2="5" stroke="#bbb" stroke-width="1" opacity="1"/><line transform="translate(1485,0)" x2="0" y2="5" stroke="#bbb" stroke-width="1" opacity="1"/><line transform="translate(1523,0)" x2="0" y2="5" stroke="#bbb" stroke-width="1" opacity="1"/><line transform="translate(1561,0)" x2="0" y2="5" stroke="#bbb" stroke-width="1" opacity="1"/><line transform="translate(1599,0)" x2="0" y2="5" stroke="#bbb" stroke-width="1" opacity="1"/><line transform="translate(1637,0)" x2="0" y2="5" stroke="#bbb" stroke-width="1" opacity="1"/><line transform="translate(1675,0)" x2="0" y2="5" stroke="#bbb" stroke-width="1" opacity="1"/><line transform="translate(1713,0)" x2="0" y2="5" stroke="#bbb" stroke-width="1" opacity="1"/><line transform="translate(1751,0)" x2="0" y2="5" stroke="#bbb" stroke-width="1" opacity="1"/><line transform="translate(1789,0)" x2="0" y2="5" stroke="#bbb" stroke-width="1" opacity="1"/><line transform="translate(1827,0)" x2="0" y2="5" stroke="#bbb" stroke-width="1" opacity="1"/><line transform="translate(1866,0)" x2="0" y2="5" stroke="#bbb" stroke-width="1" opacity="1"/><line transform="translate(1904,0)" x2="0" y2="5" stroke="#bbb" stroke-width="1" opacity="1"/><line transform="translate(1942,0)" x2="0" y2="5" stroke="#bbb" stroke-width="1" opacity="1"/><line transform="translate(1980,0)" x2="0" y2="5" stroke="#bbb" stroke-width="1" opacity="1"/><line transform="translate(2018,0)" x2="0" y2="5" stroke="#bbb" stroke-width="1" opacity="1"/><line transform="translate(2056,0)" x2="0" y2="5" stroke="#bbb" stroke-width="1" opacity="1"/><line transform="translate(2094,0)" x2="0" y2="5" stroke="#bbb" stroke-width="1" opacity="1"/><line transform="translate(2132,0)" x2="0" y2="5" stroke="#bbb" stroke-width="1" opacity="1"/></g><g class="mark-text role-axis-label" pointer-events="none"><text text-anchor="end" transform="translate(0,7) rotate(315) translate(0,9)" font-family="Segoe UI" font-size="11px" fill="#000" opacity="1">2025-09-08</text><text text-anchor="end" transform="translate(38.07142857142857,7) rotate(315) translate(0,9)" font-family="Segoe UI" font-size="11px" fill="#000" opacity="0">2025-09-09</text><text text-anchor="end" transform="translate(76.14285714285714,7) rotate(315) translate(0,9)" font-family="Segoe UI" font-size="11px" fill="#000" opacity="1">2025-09-10</text><text text-anchor="end" transform="translate(114.21428571428571,7) rotate(315) translate(0,9)" font-family="Segoe UI" font-size="11px" fill="#000" opacity="0">2025-09-11</text><text text-anchor="end" transform="translate(152.28571428571428,7) rotate(315) translate(0,9)" font-family="Segoe UI" font-size="11px" fill="#000" opacity="1">2025-09-12</text><text text-anchor="end" transform="translate(190.35714285714286,7) rotate(315) translate(0,9)" font-family="Segoe UI" font-size="11px" fill="#000" opacity="0">2025-09-13</text><text text-anchor="end" transform="translate(228.42857142857142,7) rotate(315) translate(0,9)" font-family="Segoe UI" font-size="11px" fill="#000" opacity="1">2025-09-14</text><text text-anchor="end" transform="translate(266.5,7) rotate(315) translate(0,9)" font-family="Segoe UI" font-size="11px" fill="#000" opacity="0">2025-09-15</text><text text-anchor="end" transform="translate(304.57142857142856,7) rotate(315) translate(0,9)" font-family="Segoe UI" font-size="11px" fill="#000" opacity="1">2025-09-16</text><text text-anchor="end" transform="translate(342.64285714285717,7) rotate(315) translate(0,9)" font-family="Segoe UI" font-size="11px" fill="#000" opacity="0">2025-09-17</text><text text-anchor="end" transform="translate(380.7142857142857,7) rotate(315) translate(0,9)" font-family="Segoe UI" font-size="11px" fill="#000" opacity="1">2025-09-18</text><text text-anchor="end" transform="translate(418.7857142857143,7) rotate(315) translate(0,9)" font-family="Segoe UI" font-size="11px" fill="#000" opacity="0">2025-09-19</text><text text-anchor="end" transform="translate(456.85714285714283,7) rotate(315) translate(0,9)" font-family="Segoe UI" font-size="11px" fill="#000" opacity="1">2025-09-20</text><text text-anchor="end" transform="translate(494.92857142857144,7) rotate(315) translate(0,9)" font-family="Segoe UI" font-size="11px" fill="#000" opacity="0">2025-09-21</text><text text-anchor="end" transform="translate(533,7) rotate(315) translate(0,9)" font-family="Segoe UI" font-size="11px" fill="#000" opacity="1">2025-09-22</text><text text-anchor="end" transform="translate(571.0714285714286,7) rotate(315) translate(0,9)" font-family="Segoe UI" font-size="11px" fill="#000" opacity="0">2025-09-23</text><text text-anchor="end" transform="translate(609.1428571428571,7) rotate(315) translate(0,9)" font-family="Segoe UI" font-size="11px" fill="#000" opacity="1">2025-09-24</text><text text-anchor="end" transform="translate(647.2142857142857,7) rotate(315) translate(0,9)" font-family="Segoe UI" font-size="11px" fill="#000" opacity="0">2025-09-25</text><text text-anchor="end" transform="translate(685.2857142857143,7) rotate(315) translate(0,9)" font-family="Segoe UI" font-size="11px" fill="#000" opacity="1">2025-09-26</text><text text-anchor="end" transform="translate(723.3571428571429,7) rotate(315) translate(0,9)" font-family="Segoe UI" font-size="11px" fill="#000" opacity="0">2025-09-27</text><text text-anchor="end" transform="translate(761.4285714285714,7) rotate(315) translate(0,9)" font-family="Segoe UI" font-size="11px" fill="#000" opacity="1">2025-09-28</text><text text-anchor="end" transform="translate(799.5,7) rotate(315) translate(0,9)" font-family="Segoe UI" font-size="11px" fill="#000" opacity="0">2025-09-29</text><text text-anchor="end" transform="translate(837.5714285714286,7) rotate(315) translate(0,9)" font-family="Segoe UI" font-size="11px" fill="#000" opacity="1">2025-09-30</text><text text-anchor="end" transform="translate(875.6428571428571,7) rotate(315) translate(0,9)" font-family="Segoe UI" font-size="11px" fill="#000" opacity="0">2025-10-01</text><text text-anchor="end" transform="translate(913.7142857142857,7) rotate(315) translate(0,9)" font-family="Segoe UI" font-size="11px" fill="#000" opacity="1">2025-10-02</text><text text-anchor="end" transform="translate(951.7857142857143,7) rotate(315) translate(0,9)" font-family="Segoe UI" font-size="11px" fill="#000" opacity="0">2025-10-03</text><text text-anchor="end" transform="translate(989.8571428571429,7) rotate(315) translate(0,9)" font-family="Segoe UI" font-size="11px" fill="#000" opacity="1">2025-10-04</text><text text-anchor="end" transform="translate(1027.9285714285716,7) rotate(315) translate(0,9)" font-family="Segoe UI" font-size="11px" fill="#000" opacity="0">2025-10-05</text><text text-anchor="end" transform="translate(1066,7) rotate(315) translate(0,9)" font-family="Segoe UI" font-size="11px" fill="#000" opacity="1">2025-10-06</text><text text-anchor="end" transform="translate(1104.0714285714287,7) rotate(315) translate(0,9)" font-family="Segoe UI" font-size="11px" fill="#000" opacity="0">2025-10-07</text><text text-anchor="end" transform="translate(1142.142857142857,7) rotate(315) translate(0,9)" font-family="Segoe UI" font-size="11px" fill="#000" opacity="1">2025-10-08</text><text text-anchor="end" transform="translate(1180.2142857142858,7) rotate(315) translate(0,9)" font-family="Segoe UI" font-size="11px" fill="#000" opacity="0">2025-10-09</text><text text-anchor="end" transform="translate(1218.2857142857142,7) rotate(315) translate(0,9)" font-family="Segoe UI" font-size="11px" fill="#000" opacity="1">2025-10-10</text><text text-anchor="end" transform="translate(1256.357142857143,7) rotate(315) translate(0,9)" font-family="Segoe UI" font-size="11px" fill="#000" opacity="0">2025-10-11</text><text text-anchor="end" transform="translate(1294.4285714285713,7) rotate(315) translate(0,9)" font-family="Segoe UI" font-size="11px" fill="#000" opacity="1">2025-10-12</text><text text-anchor="end" transform="translate(1332.5,7) rotate(315) translate(0,9)" font-family="Segoe UI" font-size="11px" fill="#000" opacity="0">2025-10-13</text><text text-anchor="end" transform="translate(1370.5714285714287,7) rotate(315) translate(0,9)" font-family="Segoe UI" font-size="11px" fill="#000" opacity="1">2025-10-14</text><text text-anchor="end" transform="translate(1408.642857142857,7) rotate(315) translate(0,9)" font-family="Segoe UI" font-size="11px" fill="#000" opacity="0">2025-10-15</text><text text-anchor="end" transform="translate(1446.7142857142858,7) rotate(315) translate(0,9)" font-family="Segoe UI" font-size="11px" fill="#000" opacity="1">2025-10-16</text><text text-anchor="end" transform="translate(1484.7857142857142,7) rotate(315) translate(0,9)" font-family="Segoe UI" font-size="11px" fill="#000" opacity="0">2025-10-17</text><text text-anchor="end" transform="translate(1522.857142857143,7) rotate(315) translate(0,9)" font-family="Segoe UI" font-size="11px" fill="#000" opacity="1">2025-10-18</text><text text-anchor="end" transform="translate(1560.9285714285713,7) rotate(315) translate(0,9)" font-family="Segoe UI" font-size="11px" fill="#000" opacity="0">2025-10-19</text><text text-anchor="end" transform="translate(1599,7) rotate(315) translate(0,9)" font-family="Segoe UI" font-size="11px" fill="#000" opacity="1">2025-10-20</text><text text-anchor="end" transform="translate(1637.0714285714287,7) rotate(315) translate(0,9)" font-family="Segoe UI" font-size="11px" fill="#000" opacity="0">2025-10-21</text><text text-anchor="end" transform="translate(1675.142857142857,7) rotate(315) translate(0,9)" font-family="Segoe UI" font-size="11px" fill="#000" opacity="1">2025-10-22</text><text text-anchor="end" transform="translate(1713.2142857142858,7) rotate(315) translate(0,9)" font-family="Segoe UI" font-size="11px" fill="#000" opacity="0">2025-10-23</text><text text-anchor="end" transform="translate(1751.2857142857142,7) rotate(315) translate(0,9)" font-family="Segoe UI" font-size="11px" fill="#000" opacity="1">2025-10-24</text><text text-anchor="end" transform="translate(1789.357142857143,7) rotate(315) translate(0,9)" font-family="Segoe UI" font-size="11px" fill="#000" opacity="0">2025-10-25</text><text text-anchor="end" transform="translate(1827.4285714285713,7) rotate(315) translate(0,9)" font-family="Segoe UI" font-size="11px" fill="#000" opacity="1">2025-10-26</text><text text-anchor="end" transform="translate(1865.5,7) rotate(315) translate(0,9)" font-family="Segoe UI" font-size="11px" fill="#000" opacity="0">2025-10-27</text><text text-anchor="end" transform="translate(1903.5714285714287,7) rotate(315) translate(0,9)" font-family="Segoe UI" font-size="11px" fill="#000" opacity="1">2025-10-28</text><text text-anchor="end" transform="translate(1941.642857142857,7) rotate(315) translate(0,9)" font-family="Segoe UI" font-size="11px" fill="#000" opacity="0">2025-10-29</text><text text-anchor="end" transform="translate(1979.7142857142858,7) rotate(315) translate(0,9)" font-family="Segoe UI" font-size="11px" fill="#000" opacity="1">2025-10-30</text><text text-anchor="end" transform="translate(2017.7857142857142,7) rotate(315) translate(0,9)" font-family="Segoe UI" font-size="11px" fill="#000" opacity="0">2025-10-31</text><text text-anchor="end" transform="translate(2055.857142857143,7) rotate(315) translate(0,9)" font-family="Segoe UI" font-size="11px" fill="#000" opacity="1">2025-11-01</text><text text-anchor="end" transform="translate(2093.928571428571,7) rotate(315) translate(0,9)" font-family="Segoe UI" font-size="11px" fill="#000" opacity="0">2025-11-02</text><text text-anchor="end" transform="translate(2132,7) rotate(315) translate(0,9)" font-family="Segoe UI" font-size="11px" fill="#000" opacity="1">2025-11-03</text></g><g class="mark-rule role-axis-domain" pointer-events="none"><line transform="translate(0,0)" x2="2132" y2="0" stroke="#888" stroke-width="1" opacity="1"/></g><g class="mark-text role-axis-title" pointer-events="none"><text text-anchor="middle" transform="translate(1066,73.9777658717112)" font-family="Segoe UI" font-size="13px" font-weight="bold" fill="#000" opacity="1">Date</text></g></g><path class="foreground" aria-hidden="true" d="" pointer-events="none" display="none"/></g></g><g class="mark-group role-axis" role="graphics-symbol" aria-roledescription="axis" aria-label="Y-axis titled 'Unique server names' for a linear scale with values from 0 to 55"><g transform="translate(0.5,0.5)"><path class="background" aria-hidden="true" d="M0,0h0v0h0Z" pointer-events="none"/><g><g class="mark-rule role-axis-tick" pointer-events="none"><line transform="translate(0,480)" x2="-5" y2="0" stroke="#bbb" stroke-width="1" opacity="1"/><line transform="translate(0,436)" x2="-5" y2="0" stroke="#bbb" stroke-width="1" opacity="1"/><line transform="translate(0,393)" x2="-5" y2="0" stroke="#bbb" stroke-width="1" opacity="1"/><line transform="translate(0,349)" x2="-5" y2="0" stroke="#bbb" stroke-width="1" opacity="1"/><line transform="translate(0,305)" x2="-5" y2="0" stroke="#bbb" stroke-width="1" opacity="1"/><line transform="translate(0,262)" x2="-5" y2="0" stroke="#bbb" stroke-width="1" opacity="1"/><line transform="translate(0,218)" x2="-5" y2="0" stroke="#bbb" stroke-width="1" opacity="1"/><line transform="translate(0,175)" x2="-5" y2="0" stroke="#bbb" stroke-width="1" opacity="1"/><line transform="translate(0,131)" x2="-5" y2="0" stroke="#bbb" stroke-width="1" opacity="1"/><line transform="translate(0,87)" x2="-5" y2="0" stroke="#bbb" stroke-width="1" opacity="1"/><line transform="translate(0,44)" x2="-5" y2="0" stroke="#bbb" stroke-width="1" opacity="1"/><line transform="translate(0,0)" x2="-5" y2="0" stroke="#bbb" stroke-width="1" opacity="1"/></g><g class="mark-text role-axis-label" pointer-events="none"><text text-anchor="end" transform="translate(-7,483)" font-family="Segoe UI" font-size="11px" fill="#000" opacity="1">0</text><text text-anchor="end" transform="translate(-7,439.3636363636364)" font-family="Segoe UI" font-size="11px" fill="#000" opacity="1">5</text><text text-anchor="end" transform="translate(-7,395.7272727272727)" font-family="Segoe UI" font-size="11px" fill="#000" opacity="1">10</text><text text-anchor="end" transform="translate(-7,352.0909090909091)" font-family="Segoe UI" font-size="11px" fill="#000" opacity="1">15</text><text text-anchor="end" transform="translate(-7,308.45454545454544)" font-family="Segoe UI" font-size="11px" fill="#000" opacity="1">20</text><text text-anchor="end" transform="translate(-7,264.8181818181818)" font-family="Segoe UI" font-size="11px" fill="#000" opacity="1">25</text><text text-anchor="end" transform="translate(-7,221.1818181818182)" font-family="Segoe UI" font-size="11px" fill="#000" opacity="1">30</text><text text-anchor="end" transform="translate(-7,177.54545454545456)" font-family="Segoe UI" font-size="11px" fill="#000" opacity="1">35</text><text text-anchor="end" transform="translate(-7,133.9090909090909)" font-family="Segoe UI" font-size="11px" fill="#000" opacity="1">40</text><text text-anchor="end" transform="translate(-7,90.27272727272725)" font-family="Segoe UI" font-size="11px" fill="#000" opacity="1">45</text><text text-anchor="end" transform="translate(-7,46.636363636363654)" font-family="Segoe UI" font-size="11px" fill="#000" opacity="1">50</text><text text-anchor="end" transform="translate(-7,3)" font-family="Segoe UI" font-size="11px" fill="#000" opacity="1">55</text></g><g class="mark-rule role-axis-domain" pointer-events="none"><line transform="translate(0,480)" x2="0" y2="-480" stroke="#888" stroke-width="1" opacity="1"/></g><g class="mark-text role-axis-title" pointer-events="none"><text text-anchor="middle" transform="translate(-24.99609375,240) rotate(-90) translate(0,-3)" font-family="Segoe UI" font-size="13px" font-weight="bold" fill="#000" opacity="1">Unique server names</text></g></g><path class="foreground" aria-hidden="true" d="" pointer-events="none" display="none"/></g></g><g class="mark-area role-mark layer_0_marks" role="graphics-object" aria-roledescription="area mark container" pointer-events="none"><path aria-label="date: 2025-09-08; count: 1" role="graphics-symbol" aria-roledescription="area mark" d="M0,471.273C12.69,240,25.381,8.727,38.071,8.727C50.762,8.727,63.452,17.455,76.143,34.909C88.833,52.364,101.524,142.545,114.214,165.818C126.905,189.091,139.595,177.455,152.286,200.727C164.976,224,177.667,293.818,190.357,305.455C203.048,317.091,215.738,322.909,228.429,322.909C241.119,322.909,253.81,273.455,266.5,261.818C279.19,250.182,291.881,256,304.571,244.364C317.262,232.727,329.952,151.273,342.643,139.636C355.333,128,368.024,122.182,380.714,122.182C393.405,122.182,406.095,212.364,418.786,235.636C431.476,258.909,444.167,251.636,456.857,270.545C469.548,289.455,482.238,349.091,494.929,349.091C507.619,349.091,520.31,343.273,533,340.364C545.69,337.455,558.381,334.545,571.071,331.636C583.762,328.727,596.452,322.909,609.143,322.909C621.833,322.909,634.524,384,647.214,384C659.905,384,672.595,261.818,685.286,261.818C697.976,261.818,710.667,418.909,723.357,418.909C736.048,418.909,748.738,398.545,761.429,357.818C774.119,317.091,786.81,148.364,799.5,148.364C812.19,148.364,824.881,202.182,837.571,244.364C850.262,286.545,862.952,401.455,875.643,401.455C888.333,401.455,901.024,165.818,913.714,165.818C926.405,165.818,939.095,253.091,951.786,253.091C964.476,253.091,977.167,253.091,989.857,253.091C1002.548,253.091,1015.238,340.364,1027.929,340.364C1040.619,340.364,1053.31,327.273,1066,305.455C1078.69,283.636,1091.381,209.455,1104.071,209.455C1116.762,209.455,1129.452,229.818,1142.143,253.091C1154.833,276.364,1167.524,349.091,1180.214,349.091C1192.905,349.091,1205.595,314.182,1218.286,314.182C1230.976,314.182,1243.667,401.455,1256.357,401.455C1269.048,401.455,1281.738,349.091,1294.429,349.091C1307.119,349.091,1319.81,349.091,1332.5,349.091C1345.19,349.091,1357.881,366.545,1370.571,366.545C1383.262,366.545,1395.952,314.182,1408.643,314.182C1421.333,314.182,1434.024,330.182,1446.714,340.364C1459.405,350.545,1472.095,356.364,1484.786,375.273C1497.476,394.182,1510.167,453.818,1522.857,453.818C1535.548,453.818,1548.238,442.182,1560.929,427.636C1573.619,413.091,1586.31,366.545,1599,366.545C1611.69,366.545,1624.381,392.727,1637.071,392.727C1649.762,392.727,1662.452,331.636,1675.143,331.636C1687.833,331.636,1700.524,375.273,1713.214,375.273C1725.905,375.273,1738.595,370.909,1751.286,366.545C1763.976,362.182,1776.667,349.091,1789.357,349.091C1802.048,349.091,1814.738,392.727,1827.429,392.727C1840.119,392.727,1852.81,375.273,1865.5,349.091C1878.19,322.909,1890.881,235.636,1903.571,235.636C1916.262,235.636,1928.952,392.727,1941.643,392.727C1954.333,392.727,1967.024,359.273,1979.714,349.091C1992.405,338.909,2005.095,331.636,2017.786,331.636C2030.476,331.636,2043.167,436.364,2055.857,436.364C2068.548,436.364,2081.238,386.909,2093.929,375.273C2106.619,363.636,2119.31,360.727,2132,357.818L2132,480C2119.31,480,2106.619,480,2093.929,480C2081.238,480,2068.548,480,2055.857,480C2043.167,480,2030.476,480,2017.786,480C2005.095,480,1992.405,480,1979.714,480C1967.024,480,1954.333,480,1941.643,480C1928.952,480,1916.262,480,1903.571,480C1890.881,480,1878.19,480,1865.5,480C1852.81,480,1840.119,480,1827.429,480C1814.738,480,1802.048,480,1789.357,480C1776.667,480,1763.976,480,1751.286,480C1738.595,480,1725.905,480,1713.214,480C1700.524,480,1687.833,480,1675.143,480C1662.452,480,1649.762,480,1637.071,480C1624.381,480,1611.69,480,1599,480C1586.31,480,1573.619,480,1560.929,480C1548.238,480,1535.548,480,1522.857,480C1510.167,480,1497.476,480,1484.786,480C1472.095,480,1459.405,480,1446.714,480C1434.024,480,1421.333,480,1408.643,480C1395.952,480,1383.262,480,1370.571,480C1357.881,480,1345.19,480,1332.5,480C1319.81,480,1307.119,480,1294.429,480C1281.738,480,1269.048,480,1256.357,480C1243.667,480,1230.976,480,1218.286,480C1205.595,480,1192.905,480,1180.214,480C1167.524,480,1154.833,480,1142.143,480C1129.452,480,1116.762,480,1104.071,480C1091.381,480,1078.69,480,1066,480C1053.31,480,1040.619,480,1027.929,480C1015.238,480,1002.548,480,989.857,480C977.167,480,964.476,480,951.786,480C939.095,480,926.405,480,913.714,480C901.024,480,888.333,480,875.643,480C862.952,480,850.262,480,837.571,480C824.881,480,812.19,480,799.5,480C786.81,480,774.119,480,761.429,480C748.738,480,736.048,480,723.357,480C710.667,480,697.976,480,685.286,480C672.595,480,659.905,480,647.214,480C634.524,480,621.833,480,609.143,480C596.452,480,583.762,480,571.071,480C558.381,480,545.69,480,533,480C520.31,480,507.619,480,494.929,480C482.238,480,469.548,480,456.857,480C444.167,480,431.476,480,418.786,480C406.095,480,393.405,480,380.714,480C368.024,480,355.333,480,342.643,480C329.952,480,317.262,480,304.571,480C291.881,480,279.19,480,266.5,480C253.81,480,241.119,480,228.429,480C215.738,480,203.048,480,190.357,480C177.667,480,164.976,480,152.286,480C139.595,480,126.905,480,114.214,480C101.524,480,88.833,480,76.143,480C63.452,480,50.762,480,38.071,480C25.381,480,12.69,480,0,480Z" fill="#4e79a7" opacity="0.18"/></g><g class="mark-line role-mark layer_1_marks" role="graphics-object" aria-roledescription="line mark container" pointer-events="none"><path aria-label="date: Sep 08, 2025; count: 1" role="graphics-symbol" aria-roledescription="line mark" d="M0,471.273C12.69,240,25.381,8.727,38.071,8.727C50.762,8.727,63.452,17.455,76.143,34.909C88.833,52.364,101.524,142.545,114.214,165.818C126.905,189.091,139.595,177.455,152.286,200.727C164.976,224,177.667,293.818,190.357,305.455C203.048,317.091,215.738,322.909,228.429,322.909C241.119,322.909,253.81,273.455,266.5,261.818C279.19,250.182,291.881,256,304.571,244.364C317.262,232.727,329.952,151.273,342.643,139.636C355.333,128,368.024,122.182,380.714,122.182C393.405,122.182,406.095,212.364,418.786,235.636C431.476,258.909,444.167,251.636,456.857,270.545C469.548,289.455,482.238,349.091,494.929,349.091C507.619,349.091,520.31,343.273,533,340.364C545.69,337.455,558.381,334.545,571.071,331.636C583.762,328.727,596.452,322.909,609.143,322.909C621.833,322.909,634.524,384,647.214,384C659.905,384,672.595,261.818,685.286,261.818C697.976,261.818,710.667,418.909,723.357,418.909C736.048,418.909,748.738,398.545,761.429,357.818C774.119,317.091,786.81,148.364,799.5,148.364C812.19,148.364,824.881,202.182,837.571,244.364C850.262,286.545,862.952,401.455,875.643,401.455C888.333,401.455,901.024,165.818,913.714,165.818C926.405,165.818,939.095,253.091,951.786,253.091C964.476,253.091,977.167,253.091,989.857,253.091C1002.548,253.091,1015.238,340.364,1027.929,340.364C1040.619,340.364,1053.31,327.273,1066,305.455C1078.69,283.636,1091.381,209.455,1104.071,209.455C1116.762,209.455,1129.452,229.818,1142.143,253.091C1154.833,276.364,1167.524,349.091,1180.214,349.091C1192.905,349.091,1205.595,314.182,1218.286,314.182C1230.976,314.182,1243.667,401.455,1256.357,401.455C1269.048,401.455,1281.738,349.091,1294.429,349.091C1307.119,349.091,1319.81,349.091,1332.5,349.091C1345.19,349.091,1357.881,366.545,1370.571,366.545C1383.262,366.545,1395.952,314.182,1408.643,314.182C1421.333,314.182,1434.024,330.182,1446.714,340.364C1459.405,350.545,1472.095,356.364,1484.786,375.273C1497.476,394.182,1510.167,453.818,1522.857,453.818C1535.548,453.818,1548.238,442.182,1560.929,427.636C1573.619,413.091,1586.31,366.545,1599,366.545C1611.69,366.545,1624.381,392.727,1637.071,392.727C1649.762,392.727,1662.452,331.636,1675.143,331.636C1687.833,331.636,1700.524,375.273,1713.214,375.273C1725.905,375.273,1738.595,370.909,1751.286,366.545C1763.976,362.182,1776.667,349.091,1789.357,349.091C1802.048,349.091,1814.738,392.727,1827.429,392.727C1840.119,392.727,1852.81,375.273,1865.5,349.091C1878.19,322.909,1890.881,235.636,1903.571,235.636C1916.262,235.636,1928.952,392.727,1941.643,392.727C1954.333,392.727,1967.024,359.273,1979.714,349.091C1992.405,338.909,2005.095,331.636,2017.786,331.636C2030.476,331.636,2043.167,436.364,2055.857,436.364C2068.548,436.364,2081.238,386.909,2093.929,375.273C2106.619,363.636,2119.31,360.727,2132,357.818" stroke="#4e79a7" stroke-width="2"/></g><g class="mark-line role-mark layer_2_marks" role="graphics-object" aria-roledescription="line mark container" pointer-events="none"><path aria-label="date: Sep 08, 2025; ma7: 1" role="graphics-symbol" aria-roledescription="line mark" d="M0,471.273C12.69,378.424,25.381,285.576,38.071,240C50.762,194.424,63.452,172.606,76.143,171.636C88.833,170.667,101.524,170.182,114.214,170.182C126.905,170.182,139.595,172.218,152.286,176.291C164.976,180.364,177.667,191.252,190.357,197.818C203.048,204.384,215.738,215.688,228.429,215.688C241.119,215.688,253.81,185.766,266.5,185.766C279.19,185.766,291.881,211.325,304.571,219.429C317.262,227.532,329.952,234.39,342.643,234.39C355.333,234.39,368.024,228.156,380.714,228.156C393.405,228.156,406.095,233.143,418.786,233.143C431.476,233.143,444.167,228.156,456.857,228.156C469.548,228.156,482.238,229.403,494.929,231.896C507.619,234.39,520.31,239.169,533,243.117C545.69,247.065,558.381,249.143,571.071,255.584C583.762,262.026,596.452,271.169,609.143,281.766C621.833,292.364,634.524,316.675,647.214,319.169C659.905,321.662,672.595,320.416,685.286,322.909C697.976,325.403,710.667,343.273,723.357,344.104C736.048,344.935,748.738,345.351,761.429,345.351C774.119,345.351,786.81,324.571,799.5,317.922C812.19,311.273,824.881,305.455,837.571,305.455C850.262,305.455,862.952,316.675,875.643,316.675C888.333,316.675,901.024,286.338,913.714,285.506C926.405,284.675,939.095,285.091,951.786,284.26C964.476,283.429,977.167,262.234,989.857,260.571C1002.548,258.909,1015.238,258.078,1027.929,258.078C1040.619,258.078,1053.31,280.519,1066,280.519C1078.69,280.519,1091.381,278.857,1104.071,275.532C1116.762,272.208,1129.452,254.338,1142.143,254.338C1154.833,254.338,1167.524,274.701,1180.214,280.519C1192.905,286.338,1205.595,284.26,1218.286,289.247C1230.976,294.234,1243.667,309.61,1256.357,310.442C1269.048,311.273,1281.738,310.857,1294.429,311.688C1307.119,312.519,1319.81,313.766,1332.5,317.922C1345.19,322.078,1357.881,335.169,1370.571,340.364C1383.262,345.558,1395.952,349.091,1408.643,349.091C1421.333,349.091,1434.024,347.844,1446.714,347.844C1459.405,347.844,1472.095,353.87,1484.786,356.571C1497.476,359.273,1510.167,360.935,1522.857,364.052C1535.548,367.169,1548.238,373.61,1560.929,375.273C1573.619,376.935,1586.31,376.727,1599,377.766C1611.69,378.805,1624.381,380.468,1637.071,381.506C1649.762,382.545,1662.452,382.753,1675.143,384C1687.833,385.247,1700.524,388.987,1713.214,388.987C1725.905,388.987,1738.595,388.571,1751.286,387.74C1763.976,386.909,1776.667,376.104,1789.357,372.779C1802.048,369.455,1814.738,369.039,1827.429,367.792C1840.119,366.545,1852.81,366.961,1865.5,365.299C1878.19,363.636,1890.881,342.857,1903.571,342.857C1916.262,342.857,1928.952,351.584,1941.643,351.584C1954.333,351.584,1967.024,349.299,1979.714,347.844C1992.405,346.39,2005.095,342.857,2017.786,342.857C2030.476,342.857,2043.167,355.325,2055.857,355.325C2068.548,355.325,2081.238,352.831,2093.929,352.831C2106.619,352.831,2119.31,353.455,2132,354.078" stroke="#d62728" stroke-width="2" stroke-dasharray="6,4"/></g><g class="mark-symbol role-mark layer_3_marks" role="graphics-object" aria-roledescription="symbol mark container"><path aria-label="date: Sep 08, 2025; count: 1; Date: Sep 08, 2025; Daily unique: 1; 7d avg: 1" role="graphics-symbol" aria-roledescription="point" transform="translate(0,471.27272727272725)" d="M3.536,0A3.536,3.536,0,1,1,-3.536,0A3.536,3.536,0,1,1,3.536,0" fill="#4e79a7" stroke-width="2" opacity="0.55"/><path aria-label="date: Sep 09, 2025; count: 54; Date: Sep 09, 2025; Daily unique: 54; 7d avg: 27.5" role="graphics-symbol" aria-roledescription="point" transform="translate(38.07142857142857,8.72727272727273)" d="M3.536,0A3.536,3.536,0,1,1,-3.536,0A3.536,3.536,0,1,1,3.536,0" fill="#4e79a7" stroke-width="2" opacity="0.55"/><path aria-label="date: Sep 10, 2025; count: 51; Date: Sep 10, 2025; Daily unique: 51; 7d avg: 35.3333333333" role="graphics-symbol" aria-roledescription="point" transform="translate(76.14285714285714,34.90909090909092)" d="M3.536,0A3.536,3.536,0,1,1,-3.536,0A3.536,3.536,0,1,1,3.536,0" fill="#4e79a7" stroke-width="2" opacity="0.55"/><path aria-label="date: Sep 11, 2025; count: 36; Date: Sep 11, 2025; Daily unique: 36; 7d avg: 35.5" role="graphics-symbol" aria-roledescription="point" transform="translate(114.21428571428571,165.8181818181818)" d="M3.536,0A3.536,3.536,0,1,1,-3.536,0A3.536,3.536,0,1,1,3.536,0" fill="#4e79a7" stroke-width="2" opacity="0.55"/><path aria-label="date: Sep 12, 2025; count: 32; Date: Sep 12, 2025; Daily unique: 32; 7d avg: 34.8" role="graphics-symbol" aria-roledescription="point" transform="translate(152.28571428571428,200.72727272727275)" d="M3.536,0A3.536,3.536,0,1,1,-3.536,0A3.536,3.536,0,1,1,3.536,0" fill="#4e79a7" stroke-width="2" opacity="0.55"/><path aria-label="date: Sep 13, 2025; count: 20; Date: Sep 13, 2025; Daily unique: 20; 7d avg: 32.3333333333" role="graphics-symbol" aria-roledescription="point" transform="translate(190.35714285714286,305.45454545454544)" d="M3.536,0A3.536,3.536,0,1,1,-3.536,0A3.536,3.536,0,1,1,3.536,0" fill="#4e79a7" stroke-width="2" opacity="0.55"/><path aria-label="date: Sep 14, 2025; count: 18; Date: Sep 14, 2025; Daily unique: 18; 7d avg: 30.2857142857" role="graphics-symbol" aria-roledescription="point" transform="translate(228.42857142857142,322.90909090909093)" d="M3.536,0A3.536,3.536,0,1,1,-3.536,0A3.536,3.536,0,1,1,3.536,0" fill="#4e79a7" stroke-width="2" opacity="0.55"/><path aria-label="date: Sep 15, 2025; count: 25; Date: Sep 15, 2025; Daily unique: 25; 7d avg: 33.7142857143" role="graphics-symbol" aria-roledescription="point" transform="translate(266.5,261.8181818181818)" d="M3.536,0A3.536,3.536,0,1,1,-3.536,0A3.536,3.536,0,1,1,3.536,0" fill="#4e79a7" stroke-width="2" opacity="0.55"/><path aria-label="date: Sep 16, 2025; count: 27; Date: Sep 16, 2025; Daily unique: 27; 7d avg: 29.8571428571" role="graphics-symbol" aria-roledescription="point" transform="translate(304.57142857142856,244.36363636363635)" d="M3.536,0A3.536,3.536,0,1,1,-3.536,0A3.536,3.536,0,1,1,3.536,0" fill="#4e79a7" stroke-width="2" opacity="0.55"/><path aria-label="date: Sep 17, 2025; count: 39; Date: Sep 17, 2025; Daily unique: 39; 7d avg: 28.1428571429" role="graphics-symbol" aria-roledescription="point" transform="translate(342.64285714285717,139.63636363636363)" d="M3.536,0A3.536,3.536,0,1,1,-3.536,0A3.536,3.536,0,1,1,3.536,0" fill="#4e79a7" stroke-width="2" opacity="0.55"/><path aria-label="date: Sep 18, 2025; count: 41; Date: Sep 18, 2025; Daily unique: 41; 7d avg: 28.8571428571" role="graphics-symbol" aria-roledescription="point" transform="translate(380.7142857142857,122.18181818181817)" d="M3.536,0A3.536,3.536,0,1,1,-3.536,0A3.536,3.536,0,1,1,3.536,0" fill="#4e79a7" stroke-width="2" opacity="0.55"/><path aria-label="date: Sep 19, 2025; count: 28; Date: Sep 19, 2025; Daily unique: 28; 7d avg: 28.2857142857" role="graphics-symbol" aria-roledescription="point" transform="translate(418.7857142857143,235.63636363636365)" d="M3.536,0A3.536,3.536,0,1,1,-3.536,0A3.536,3.536,0,1,1,3.536,0" fill="#4e79a7" stroke-width="2" opacity="0.55"/><path aria-label="date: Sep 20, 2025; count: 24; Date: Sep 20, 2025; Daily unique: 24; 7d avg: 28.8571428571" role="graphics-symbol" aria-roledescription="point" transform="translate(456.85714285714283,270.54545454545456)" d="M3.536,0A3.536,3.536,0,1,1,-3.536,0A3.536,3.536,0,1,1,3.536,0" fill="#4e79a7" stroke-width="2" opacity="0.55"/><path aria-label="date: Sep 21, 2025; count: 15; Date: Sep 21, 2025; Daily unique: 15; 7d avg: 28.4285714286" role="graphics-symbol" aria-roledescription="point" transform="translate(494.92857142857144,349.0909090909091)" d="M3.536,0A3.536,3.536,0,1,1,-3.536,0A3.536,3.536,0,1,1,3.536,0" fill="#4e79a7" stroke-width="2" opacity="0.55"/><path aria-label="date: Sep 22, 2025; count: 16; Date: Sep 22, 2025; Daily unique: 16; 7d avg: 27.1428571429" role="graphics-symbol" aria-roledescription="point" transform="translate(533,340.3636363636364)" d="M3.536,0A3.536,3.536,0,1,1,-3.536,0A3.536,3.536,0,1,1,3.536,0" fill="#4e79a7" stroke-width="2" opacity="0.55"/><path aria-label="date: Sep 23, 2025; count: 17; Date: Sep 23, 2025; Daily unique: 17; 7d avg: 25.7142857143" role="graphics-symbol" aria-roledescription="point" transform="translate(571.0714285714286,331.6363636363636)" d="M3.536,0A3.536,3.536,0,1,1,-3.536,0A3.536,3.536,0,1,1,3.536,0" fill="#4e79a7" stroke-width="2" opacity="0.55"/><path aria-label="date: Sep 24, 2025; count: 18; Date: Sep 24, 2025; Daily unique: 18; 7d avg: 22.7142857143" role="graphics-symbol" aria-roledescription="point" transform="translate(609.1428571428571,322.90909090909093)" d="M3.536,0A3.536,3.536,0,1,1,-3.536,0A3.536,3.536,0,1,1,3.536,0" fill="#4e79a7" stroke-width="2" opacity="0.55"/><path aria-label="date: Sep 25, 2025; count: 11; Date: Sep 25, 2025; Daily unique: 11; 7d avg: 18.4285714286" role="graphics-symbol" aria-roledescription="point" transform="translate(647.2142857142857,384)" d="M3.536,0A3.536,3.536,0,1,1,-3.536,0A3.536,3.536,0,1,1,3.536,0" fill="#4e79a7" stroke-width="2" opacity="0.55"/><path aria-label="date: Sep 26, 2025; count: 25; Date: Sep 26, 2025; Daily unique: 25; 7d avg: 18" role="graphics-symbol" aria-roledescription="point" transform="translate(685.2857142857143,261.8181818181818)" d="M3.536,0A3.536,3.536,0,1,1,-3.536,0A3.536,3.536,0,1,1,3.536,0" fill="#4e79a7" stroke-width="2" opacity="0.55"/><path aria-label="date: Sep 27, 2025; count: 7; Date: Sep 27, 2025; Daily unique: 7; 7d avg: 15.5714285714" role="graphics-symbol" aria-roledescription="point" transform="translate(723.3571428571429,418.90909090909093)" d="M3.536,0A3.536,3.536,0,1,1,-3.536,0A3.536,3.536,0,1,1,3.536,0" fill="#4e79a7" stroke-width="2" opacity="0.55"/><path aria-label="date: Sep 28, 2025; count: 14; Date: Sep 28, 2025; Daily unique: 14; 7d avg: 15.4285714286" role="graphics-symbol" aria-roledescription="point" transform="translate(761.4285714285714,357.8181818181818)" d="M3.536,0A3.536,3.536,0,1,1,-3.536,0A3.536,3.536,0,1,1,3.536,0" fill="#4e79a7" stroke-width="2" opacity="0.55"/><path aria-label="date: Sep 29, 2025; count: 38; Date: Sep 29, 2025; Daily unique: 38; 7d avg: 18.5714285714" role="graphics-symbol" aria-roledescription="point" transform="translate(799.5,148.36363636363637)" d="M3.536,0A3.536,3.536,0,1,1,-3.536,0A3.536,3.536,0,1,1,3.536,0" fill="#4e79a7" stroke-width="2" opacity="0.55"/><path aria-label="date: Sep 30, 2025; count: 27; Date: Sep 30, 2025; Daily unique: 27; 7d avg: 20" role="graphics-symbol" aria-roledescription="point" transform="translate(837.5714285714286,244.36363636363635)" d="M3.536,0A3.536,3.536,0,1,1,-3.536,0A3.536,3.536,0,1,1,3.536,0" fill="#4e79a7" stroke-width="2" opacity="0.55"/><path aria-label="date: Oct 01, 2025; count: 9; Date: Oct 01, 2025; Daily unique: 9; 7d avg: 18.7142857143" role="graphics-symbol" aria-roledescription="point" transform="translate(875.6428571428571,401.4545454545455)" d="M3.536,0A3.536,3.536,0,1,1,-3.536,0A3.536,3.536,0,1,1,3.536,0" fill="#4e79a7" stroke-width="2" opacity="0.55"/><path aria-label="date: Oct 02, 2025; count: 36; Date: Oct 02, 2025; Daily unique: 36; 7d avg: 22.2857142857" role="graphics-symbol" aria-roledescription="point" transform="translate(913.7142857142857,165.8181818181818)" d="M3.536,0A3.536,3.536,0,1,1,-3.536,0A3.536,3.536,0,1,1,3.536,0" fill="#4e79a7" stroke-width="2" opacity="0.55"/><path aria-label="date: Oct 03, 2025; count: 26; Date: Oct 03, 2025; Daily unique: 26; 7d avg: 22.4285714286" role="graphics-symbol" aria-roledescription="point" transform="translate(951.7857142857143,253.09090909090912)" d="M3.536,0A3.536,3.536,0,1,1,-3.536,0A3.536,3.536,0,1,1,3.536,0" fill="#4e79a7" stroke-width="2" opacity="0.55"/><path aria-label="date: Oct 04, 2025; count: 26; Date: Oct 04, 2025; Daily unique: 26; 7d avg: 25.1428571429" role="graphics-symbol" aria-roledescription="point" transform="translate(989.8571428571429,253.09090909090912)" d="M3.536,0A3.536,3.536,0,1,1,-3.536,0A3.536,3.536,0,1,1,3.536,0" fill="#4e79a7" stroke-width="2" opacity="0.55"/><path aria-label="date: Oct 05, 2025; count: 16; Date: Oct 05, 2025; Daily unique: 16; 7d avg: 25.4285714286" role="graphics-symbol" aria-roledescription="point" transform="translate(1027.9285714285716,340.3636363636364)" d="M3.536,0A3.536,3.536,0,1,1,-3.536,0A3.536,3.536,0,1,1,3.536,0" fill="#4e79a7" stroke-width="2" opacity="0.55"/><path aria-label="date: Oct 06, 2025; count: 20; Date: Oct 06, 2025; Daily unique: 20; 7d avg: 22.8571428571" role="graphics-symbol" aria-roledescription="point" transform="translate(1066,305.45454545454544)" d="M3.536,0A3.536,3.536,0,1,1,-3.536,0A3.536,3.536,0,1,1,3.536,0" fill="#4e79a7" stroke-width="2" opacity="0.55"/><path aria-label="date: Oct 07, 2025; count: 31; Date: Oct 07, 2025; Daily unique: 31; 7d avg: 23.4285714286" role="graphics-symbol" aria-roledescription="point" transform="translate(1104.0714285714287,209.45454545454547)" d="M3.536,0A3.536,3.536,0,1,1,-3.536,0A3.536,3.536,0,1,1,3.536,0" fill="#4e79a7" stroke-width="2" opacity="0.55"/><path aria-label="date: Oct 08, 2025; count: 26; Date: Oct 08, 2025; Daily unique: 26; 7d avg: 25.8571428571" role="graphics-symbol" aria-roledescription="point" transform="translate(1142.142857142857,253.09090909090912)" d="M3.536,0A3.536,3.536,0,1,1,-3.536,0A3.536,3.536,0,1,1,3.536,0" fill="#4e79a7" stroke-width="2" opacity="0.55"/><path aria-label="date: Oct 09, 2025; count: 15; Date: Oct 09, 2025; Daily unique: 15; 7d avg: 22.8571428571" role="graphics-symbol" aria-roledescription="point" transform="translate(1180.2142857142858,349.0909090909091)" d="M3.536,0A3.536,3.536,0,1,1,-3.536,0A3.536,3.536,0,1,1,3.536,0" fill="#4e79a7" stroke-width="2" opacity="0.55"/><path aria-label="date: Oct 10, 2025; count: 19; Date: Oct 10, 2025; Daily unique: 19; 7d avg: 21.8571428571" role="graphics-symbol" aria-roledescription="point" transform="translate(1218.2857142857142,314.1818181818182)" d="M3.536,0A3.536,3.536,0,1,1,-3.536,0A3.536,3.536,0,1,1,3.536,0" fill="#4e79a7" stroke-width="2" opacity="0.55"/><path aria-label="date: Oct 11, 2025; count: 9; Date: Oct 11, 2025; Daily unique: 9; 7d avg: 19.4285714286" role="graphics-symbol" aria-roledescription="point" transform="translate(1256.357142857143,401.4545454545455)" d="M3.536,0A3.536,3.536,0,1,1,-3.536,0A3.536,3.536,0,1,1,3.536,0" fill="#4e79a7" stroke-width="2" opacity="0.55"/><path aria-label="date: Oct 12, 2025; count: 15; Date: Oct 12, 2025; Daily unique: 15; 7d avg: 19.2857142857" role="graphics-symbol" aria-roledescription="point" transform="translate(1294.4285714285713,349.0909090909091)" d="M3.536,0A3.536,3.536,0,1,1,-3.536,0A3.536,3.536,0,1,1,3.536,0" fill="#4e79a7" stroke-width="2" opacity="0.55"/><path aria-label="date: Oct 13, 2025; count: 15; Date: Oct 13, 2025; Daily unique: 15; 7d avg: 18.5714285714" role="graphics-symbol" aria-roledescription="point" transform="translate(1332.5,349.0909090909091)" d="M3.536,0A3.536,3.536,0,1,1,-3.536,0A3.536,3.536,0,1,1,3.536,0" fill="#4e79a7" stroke-width="2" opacity="0.55"/><path aria-label="date: Oct 14, 2025; count: 13; Date: Oct 14, 2025; Daily unique: 13; 7d avg: 16" role="graphics-symbol" aria-roledescription="point" transform="translate(1370.5714285714287,366.54545454545456)" d="M3.536,0A3.536,3.536,0,1,1,-3.536,0A3.536,3.536,0,1,1,3.536,0" fill="#4e79a7" stroke-width="2" opacity="0.55"/><path aria-label="date: Oct 15, 2025; count: 19; Date: Oct 15, 2025; Daily unique: 19; 7d avg: 15" role="graphics-symbol" aria-roledescription="point" transform="translate(1408.642857142857,314.1818181818182)" d="M3.536,0A3.536,3.536,0,1,1,-3.536,0A3.536,3.536,0,1,1,3.536,0" fill="#4e79a7" stroke-width="2" opacity="0.55"/><path aria-label="date: Oct 16, 2025; count: 16; Date: Oct 16, 2025; Daily unique: 16; 7d avg: 15.1428571429" role="graphics-symbol" aria-roledescription="point" transform="translate(1446.7142857142858,340.3636363636364)" d="M3.536,0A3.536,3.536,0,1,1,-3.536,0A3.536,3.536,0,1,1,3.536,0" fill="#4e79a7" stroke-width="2" opacity="0.55"/><path aria-label="date: Oct 17, 2025; count: 12; Date: Oct 17, 2025; Daily unique: 12; 7d avg: 14.1428571429" role="graphics-symbol" aria-roledescription="point" transform="translate(1484.7857142857142,375.2727272727273)" d="M3.536,0A3.536,3.536,0,1,1,-3.536,0A3.536,3.536,0,1,1,3.536,0" fill="#4e79a7" stroke-width="2" opacity="0.55"/><path aria-label="date: Oct 18, 2025; count: 3; Date: Oct 18, 2025; Daily unique: 3; 7d avg: 13.2857142857" role="graphics-symbol" aria-roledescription="point" transform="translate(1522.857142857143,453.8181818181818)" d="M3.536,0A3.536,3.536,0,1,1,-3.536,0A3.536,3.536,0,1,1,3.536,0" fill="#4e79a7" stroke-width="2" opacity="0.55"/><path aria-label="date: Oct 19, 2025; count: 6; Date: Oct 19, 2025; Daily unique: 6; 7d avg: 12" role="graphics-symbol" aria-roledescription="point" transform="translate(1560.9285714285713,427.6363636363636)" d="M3.536,0A3.536,3.536,0,1,1,-3.536,0A3.536,3.536,0,1,1,3.536,0" fill="#4e79a7" stroke-width="2" opacity="0.55"/><path aria-label="date: Oct 20, 2025; count: 13; Date: Oct 20, 2025; Daily unique: 13; 7d avg: 11.7142857143" role="graphics-symbol" aria-roledescription="point" transform="translate(1599,366.54545454545456)" d="M3.536,0A3.536,3.536,0,1,1,-3.536,0A3.536,3.536,0,1,1,3.536,0" fill="#4e79a7" stroke-width="2" opacity="0.55"/><path aria-label="date: Oct 21, 2025; count: 10; Date: Oct 21, 2025; Daily unique: 10; 7d avg: 11.2857142857" role="graphics-symbol" aria-roledescription="point" transform="translate(1637.0714285714287,392.7272727272727)" d="M3.536,0A3.536,3.536,0,1,1,-3.536,0A3.536,3.536,0,1,1,3.536,0" fill="#4e79a7" stroke-width="2" opacity="0.55"/><path aria-label="date: Oct 22, 2025; count: 17; Date: Oct 22, 2025; Daily unique: 17; 7d avg: 11" role="graphics-symbol" aria-roledescription="point" transform="translate(1675.142857142857,331.6363636363636)" d="M3.536,0A3.536,3.536,0,1,1,-3.536,0A3.536,3.536,0,1,1,3.536,0" fill="#4e79a7" stroke-width="2" opacity="0.55"/><path aria-label="date: Oct 23, 2025; count: 12; Date: Oct 23, 2025; Daily unique: 12; 7d avg: 10.4285714286" role="graphics-symbol" aria-roledescription="point" transform="translate(1713.2142857142858,375.2727272727273)" d="M3.536,0A3.536,3.536,0,1,1,-3.536,0A3.536,3.536,0,1,1,3.536,0" fill="#4e79a7" stroke-width="2" opacity="0.55"/><path aria-label="date: Oct 24, 2025; count: 13; Date: Oct 24, 2025; Daily unique: 13; 7d avg: 10.5714285714" role="graphics-symbol" aria-roledescription="point" transform="translate(1751.2857142857142,366.54545454545456)" d="M3.536,0A3.536,3.536,0,1,1,-3.536,0A3.536,3.536,0,1,1,3.536,0" fill="#4e79a7" stroke-width="2" opacity="0.55"/><path aria-label="date: Oct 25, 2025; count: 15; Date: Oct 25, 2025; Daily unique: 15; 7d avg: 12.2857142857" role="graphics-symbol" aria-roledescription="point" transform="translate(1789.357142857143,349.0909090909091)" d="M3.536,0A3.536,3.536,0,1,1,-3.536,0A3.536,3.536,0,1,1,3.536,0" fill="#4e79a7" stroke-width="2" opacity="0.55"/><path aria-label="date: Oct 26, 2025; count: 10; Date: Oct 26, 2025; Daily unique: 10; 7d avg: 12.8571428571" role="graphics-symbol" aria-roledescription="point" transform="translate(1827.4285714285713,392.7272727272727)" d="M3.536,0A3.536,3.536,0,1,1,-3.536,0A3.536,3.536,0,1,1,3.536,0" fill="#4e79a7" stroke-width="2" opacity="0.55"/><path aria-label="date: Oct 27, 2025; count: 15; Date: Oct 27, 2025; Daily unique: 15; 7d avg: 13.1428571429" role="graphics-symbol" aria-roledescription="point" transform="translate(1865.5,349.0909090909091)" d="M3.536,0A3.536,3.536,0,1,1,-3.536,0A3.536,3.536,0,1,1,3.536,0" fill="#4e79a7" stroke-width="2" opacity="0.55"/><path aria-label="date: Oct 28, 2025; count: 28; Date: Oct 28, 2025; Daily unique: 28; 7d avg: 15.7142857143" role="graphics-symbol" aria-roledescription="point" transform="translate(1903.5714285714287,235.63636363636365)" d="M3.536,0A3.536,3.536,0,1,1,-3.536,0A3.536,3.536,0,1,1,3.536,0" fill="#4e79a7" stroke-width="2" opacity="0.55"/><path aria-label="date: Oct 29, 2025; count: 10; Date: Oct 29, 2025; Daily unique: 10; 7d avg: 14.7142857143" role="graphics-symbol" aria-roledescription="point" transform="translate(1941.642857142857,392.7272727272727)" d="M3.536,0A3.536,3.536,0,1,1,-3.536,0A3.536,3.536,0,1,1,3.536,0" fill="#4e79a7" stroke-width="2" opacity="0.55"/><path aria-label="date: Oct 30, 2025; count: 15; Date: Oct 30, 2025; Daily unique: 15; 7d avg: 15.1428571429" role="graphics-symbol" aria-roledescription="point" transform="translate(1979.7142857142858,349.0909090909091)" d="M3.536,0A3.536,3.536,0,1,1,-3.536,0A3.536,3.536,0,1,1,3.536,0" fill="#4e79a7" stroke-width="2" opacity="0.55"/><path aria-label="date: Oct 31, 2025; count: 17; Date: Oct 31, 2025; Daily unique: 17; 7d avg: 15.7142857143" role="graphics-symbol" aria-roledescription="point" transform="translate(2017.7857142857142,331.6363636363636)" d="M3.536,0A3.536,3.536,0,1,1,-3.536,0A3.536,3.536,0,1,1,3.536,0" fill="#4e79a7" stroke-width="2" opacity="0.55"/><path aria-label="date: Nov 01, 2025; count: 5; Date: Nov 01, 2025; Daily unique: 5; 7d avg: 14.2857142857" role="graphics-symbol" aria-roledescription="point" transform="translate(2055.857142857143,436.3636363636364)" d="M3.536,0A3.536,3.536,0,1,1,-3.536,0A3.536,3.536,0,1,1,3.536,0" fill="#4e79a7" stroke-width="2" opacity="0.55"/><path aria-label="date: Nov 02, 2025; count: 12; Date: Nov 02, 2025; Daily unique: 12; 7d avg: 14.5714285714" role="graphics-symbol" aria-roledescription="point" transform="translate(2093.928571428571,375.2727272727273)" d="M3.536,0A3.536,3.536,0,1,1,-3.536,0A3.536,3.536,0,1,1,3.536,0" fill="#4e79a7" stroke-width="2" opacity="0.55"/><path aria-label="date: Nov 03, 2025; count: 14; Date: Nov 03, 2025; Daily unique: 14; 7d avg: 14.4285714286" role="graphics-symbol" aria-roledescription="point" transform="translate(2132,357.8181818181818)" d="M3.536,0A3.536,3.536,0,1,1,-3.536,0A3.536,3.536,0,1,1,3.536,0" fill="#4e79a7" stroke-width="2" opacity="0.55"/></g><g class="mark-path role-mark layer_3_voronoi" aria-hidden="true"><path transform="translate(0,0)" d="M0,297.1921906059502L21.441640976846372,305.2095592951881L23.99669817818662,306.6477601757044L147.72619602662027,448.6876344483717L168.06347864995314,480L0,480Z" stroke-width="0.35"/><path transform="translate(0,0)" d="M72.11156194138454,0L0,104.85865269403212L0,0Z" stroke-width="0.35"/><path transform="translate(0,0)" d="M243.68867219255245,0L218.32202210563915,64.55063778627286L0,128.04379332225315L0,104.85865269403212L72.11156194138454,0Z" stroke-width="0.35"/><path transform="translate(0,0)" d="M220.96520226509142,87.61159801673202L21.441640976846372,305.2095592951881L0,297.1921906059502L0,128.04379332225315L218.32202210563915,64.55063778627286Z" stroke-width="0.35"/><path transform="translate(0,0)" d="M245.00665542030882,164.68991499571857L204.0954869925548,241.17657969339774L23.99669817818662,306.6477601757044L21.441640976846372,305.2095592951881L220.96520226509142,87.61159801673202L245.33454485313038,163.5456199096276Z" stroke-width="0.35"/><path transform="translate(0,0)" d="M204.0954869925548,241.17657969339774L225.63324375796662,278.75868323971L147.72619602662027,448.6876344483717L23.99669817818662,306.6477601757044Z" stroke-width="0.35"/><path transform="translate(0,0)" d="M358.0992094524583,372.43367928116567L347.5315477205721,480L168.06347864995314,480L147.72619602662027,448.6876344483717L225.63324375796662,278.75868323971L325.97170977581186,341.28891562306745Z" stroke-width="0.35"/><path transform="translate(0,0)" d="M245.00665542030882,164.68991499571857L325.97170977581186,341.28891562306745L225.63324375796662,278.75868323971L204.0954869925548,241.17657969339774Z" stroke-width="0.35"/><path transform="translate(0,0)" d="M362.24061400200276,364.90607050327026L358.0992094524583,372.43367928116567L325.97170977581186,341.28891562306745L245.00665542030882,164.68991499571857L245.33454485313038,163.5456199096276L358.99378687514576,204.86408072157434L368.4590631524368,328.7366584308549Z" stroke-width="0.35"/><path transform="translate(0,0)" d="M301.66089509160463,0L385.82704571850917,183.5811536925376L358.99378687514576,204.86408072157434L245.33454485313038,163.5456199096276L220.96520226509142,87.61159801673202L218.32202210563915,64.55063778627286L243.68867219255245,0Z" stroke-width="0.35"/><path transform="translate(0,0)" d="M552.9932225325795,127.4859559669828L385.82704571850917,183.5811536925376L301.66089509160463,0L598.564179068261,0L595.0175875588993,56.72875154098725L565.5267020204765,121.05355135935498Z" stroke-width="0.35"/><path transform="translate(0,0)" d="M552.9932225325795,127.4859559669828L368.4590631524368,328.7366584308549L358.99378687514576,204.86408072157434L385.82704571850917,183.5811536925376Z" stroke-width="0.35"/><path transform="translate(0,0)" d="M563.0630483706981,209.29688949443397L535.0126359228354,261.7393538381262L502.9550216967068,296.7009967339209L362.24061400200276,364.90607050327026L368.4590631524368,328.7366584308549L552.9932225325795,127.4859559669828L565.5267020204765,121.05355135935498L568.3145950501826,194.02416222170683Z" stroke-width="0.35"/><path transform="translate(0,0)" d="M502.9550216967068,296.7009967339209L544.9734184883853,480L347.5315477205721,480L358.0992094524583,372.43367928116567L362.24061400200276,364.90607050327026Z" stroke-width="0.35"/><path transform="translate(0,0)" d="M535.0126359228354,261.7393538381262L570.0636047710605,414.64398952052403L545.0938856044177,480L544.9734184883853,480L502.9550216967068,296.7009967339209Z" stroke-width="0.35"/><path transform="translate(0,0)" d="M563.0630483706981,209.29688949443397L600.1176181080559,370.9419359007808L570.0636047710605,414.64398952052403L535.0126359228354,261.7393538381262Z" stroke-width="0.35"/><path transform="translate(0,0)" d="M563.0630483706981,209.29688949443397L568.3145950501826,194.02416222170683L673.545338069174,325.1822928170186L600.1176181080559,370.9419359007808Z" stroke-width="0.35"/><path transform="translate(0,0)" d="M702.6442319690657,363.5925703141105L649.2751084835343,480L545.0938856044177,480L570.0636047710605,414.64398952052403L600.1176181080559,370.9419359007808L673.545338069174,325.1822928170186L695.4003562103937,331.9922402746064Z" stroke-width="0.35"/><path transform="translate(0,0)" d="M764.2160410727485,277.4107521322923L695.4003562103937,331.9922402746064L673.545338069174,325.1822928170186L568.3145950501826,194.02416222170683L565.5267020204765,121.05355135935498L595.0175875588993,56.72875154098725L757.6922677004861,220.49277105852218Z" stroke-width="0.35"/><path transform="translate(0,0)" d="M649.2751084835343,480L702.6442319690657,363.5925703141105L801.199756281583,425.01168585878406L807.502356844929,480Z" stroke-width="0.35"/><path transform="translate(0,0)" d="M838.5354601166064,327.28881461559575L801.199756281583,425.01168585878406L702.6442319690657,363.5925703141105L695.4003562103937,331.9922402746064L764.2160410727485,277.4107521322923Z" stroke-width="0.35"/><path transform="translate(0,0)" d="M880.6142133919295,0L852.6743856065257,182.82501150203484L757.6922677004861,220.49277105852218L595.0175875588993,56.72875154098725L598.564179068261,0Z" stroke-width="0.35"/><path transform="translate(0,0)" d="M896.4701261159515,225.281100557386L889.6216144333431,314.90793983223654L838.5354601166064,327.28881461559575L764.2160410727485,277.4107521322923L757.6922677004861,220.49277105852218L852.6743856065257,182.82501150203484Z" stroke-width="0.35"/><path transform="translate(0,0)" d="M939.6125553841741,340.5641799228109L995.5486032814193,480L807.502356844929,480L801.199756281583,425.01168585878406L838.5354601166064,327.28881461559575L889.6216144333431,314.90793983223654Z" stroke-width="0.35"/><path transform="translate(0,0)" d="M970.8214285714287,192.84645127937534L896.4701261159515,225.281100557386L852.6743856065257,182.82501150203484L880.6142133919295,0L1051.9055251843502,0L1016.9178015720422,152.6287377522031Z" stroke-width="0.35"/><path transform="translate(0,0)" d="M970.8214285714287,192.84645127937534L970.8214285714287,313.3353669024429L939.6125553841741,340.5641799228109L889.6216144333431,314.90793983223654L896.4701261159515,225.281100557386Z" stroke-width="0.35"/><path transform="translate(0,0)" d="M1051.9550027498633,244.33548351361645L1018.9388271690299,292.34486779695646L970.8214285714287,313.3353669024429L970.8214285714287,192.84645127937534L1016.9178015720422,152.6287377522031Z" stroke-width="0.35"/><path transform="translate(0,0)" d="M1018.9388271690299,292.34486779695646L1101.8890020570275,382.80931634017224L1096.3191453779039,480L995.5486032814193,480L939.6125553841741,340.5641799228109L970.8214285714287,313.3353669024429Z" stroke-width="0.35"/><path transform="translate(0,0)" d="M1090.578745187739,259.6527861322085L1128.0978598927206,314.2099710318381L1101.8890020570275,382.80931634017224L1018.9388271690299,292.34486779695646L1051.9550027498633,244.33548351361645Z" stroke-width="0.35"/><path transform="translate(0,0)" d="M1090.578745187739,259.6527861322085L1051.9550027498633,244.33548351361645L1016.9178015720422,152.6287377522031L1051.9055251843502,0L1346.383657362593,0L1328.4687047985271,52.10087643011846Z" stroke-width="0.35"/><path transform="translate(0,0)" d="M1090.578745187739,259.6527861322085L1328.4687047985271,52.10087643011846L1313.4642857142856,117.55542188466296L1168.5582364789682,298.164300852917L1128.0978598927206,314.2099710318381Z" stroke-width="0.35"/><path transform="translate(0,0)" d="M1128.0978598927206,314.2099710318381L1168.5582364789682,298.164300852917L1227.275458545256,362.2005867484981L1146.264502681354,480L1096.3191453779039,480L1101.8890020570275,382.80931634017224Z" stroke-width="0.35"/><path transform="translate(0,0)" d="M1168.5582364789682,298.164300852917L1313.4642857142856,117.55542188466296L1313.4642857142858,207.07565732258823L1246.1116523443295,353.98357750415516L1227.275458545256,362.2005867484981Z" stroke-width="0.35"/><path transform="translate(0,0)" d="M1146.264502681354,480L1227.275458545256,362.2005867484981L1246.1116523443295,353.98357750415516L1313.4642857142858,402.952884231344L1323.8914430358998,418.11519161641945L1342.8062608123585,480Z" stroke-width="0.35"/><path transform="translate(0,0)" d="M1246.1116523443295,353.98357750415516L1313.4642857142858,207.07565732258823L1313.4642857142858,402.952884231344Z" stroke-width="0.35"/><path transform="translate(0,0)" d="M1313.4642857142858,402.952884231344L1313.4642857142858,207.0756573225882L1367.055339062268,323.9671550083102L1323.8914430358998,418.11519161641945Z" stroke-width="0.35"/><path transform="translate(0,0)" d="M1342.8062608123585,480L1323.8914430358998,418.11519161641945L1367.055339062268,323.9671550083102L1408.9863276043986,354.45343797241117L1425.3087629463864,401.92290146947187L1421.2874417497903,454.5501473972457L1406.7025014896412,480Z" stroke-width="0.35"/><path transform="translate(0,0)" d="M1328.4687047985271,52.10087643011846L1346.383657362593,0L1563.0419430901693,0L1553.5995310267979,144.16891126965103L1408.9863276043986,354.45343797241117L1367.055339062268,323.9671550083102L1313.4642857142858,207.0756573225882L1313.4642857142858,207.07565732258823L1313.4642857142856,117.55542188466296Z" stroke-width="0.35"/><path transform="translate(0,0)" d="M1408.9863276043986,354.45343797241117L1553.5995310267979,144.16891126965103L1554.5521087459206,169.10178255186395L1535.1123654189917,282.1724324782364L1425.3087629463864,401.92290146947187Z" stroke-width="0.35"/><path transform="translate(0,0)" d="M1421.2874417497903,454.5501473972457L1425.3087629463864,401.92290146947187L1535.1123654189917,282.1724324782364L1542.0899043860795,373.48785873724484L1518.8710228241823,407.25083061160075Z" stroke-width="0.35"/><path transform="translate(0,0)" d="M1406.7025014896412,480L1421.2874417497903,454.5501473972457L1518.8710228241823,407.25083061160075L1568.9008114944922,480Z" stroke-width="0.35"/><path transform="translate(0,0)" d="M1568.9008114944922,480L1518.8710228241823,407.25083061160075L1542.0899043860795,373.48785873724484L1598.2118110271103,408.4626396297156L1631.0094273797156,480Z" stroke-width="0.35"/><path transform="translate(0,0)" d="M1535.1123654189917,282.1724324782364L1554.5521087459206,169.10178255186395L1637.859617544318,350.81008764301174L1598.2118110271103,408.4626396297156L1542.0899043860795,373.48785873724484Z" stroke-width="0.35"/><path transform="translate(0,0)" d="M1631.0094273797156,480L1598.2118110271103,408.4626396297156L1637.859617544318,350.81008764301174L1672.4804243243823,372.38553302476294L1697.1493384664116,480Z" stroke-width="0.35"/><path transform="translate(0,0)" d="M1553.5995310267979,144.16891126965103L1563.0419430901693,0L1670.155369021223,0L1753.8359993664872,199.11507131261592L1739.767267931625,291.1741922976576L1722.570446552708,328.6834794050196L1672.4804243243823,372.38553302476294L1637.859617544318,350.81008764301174L1554.5521087459206,169.10178255186395Z" stroke-width="0.35"/><path transform="translate(0,0)" d="M1755.6504410223922,480L1697.1493384664116,480L1672.4804243243823,372.38553302476294L1722.570446552708,328.6834794050196L1756.2932106695964,475.7940195964747Z" stroke-width="0.35"/><path transform="translate(0,0)" d="M1756.2932106695964,475.7940195964747L1722.570446552708,328.6834794050196L1739.767267931625,291.1741922976576L1785.4859564730486,390.8946799905027Z" stroke-width="0.35"/><path transform="translate(0,0)" d="M1739.767267931625,291.1741922976576L1753.8359993664872,199.11507131261592L1827.4285714285713,273.2004507769016L1827.4285714285716,354.30099673392084L1785.4859564730486,390.8946799905027Z" stroke-width="0.35"/><path transform="translate(0,0)" d="M1755.6504410223922,480L1756.2932106695964,475.7940195964747L1785.4859564730486,390.8946799905027L1827.4285714285716,354.30099673392084L1884.5357142857142,404.1252792594312L1884.5357142857142,480Z" stroke-width="0.35"/><path transform="translate(0,0)" d="M1827.4285714285716,354.30099673392084L1827.4285714285713,273.2004507769016L1922.607142857143,305.13909342145956L1922.607142857143,337.69290255875063L1884.5357142857142,404.1252792594312Z" stroke-width="0.35"/><path transform="translate(0,0)" d="M2132,79.80975330473127L1968.4845394920717,274.3493525251011L1922.607142857143,305.13909342145956L1827.4285714285713,273.2004507769016L1753.8359993664872,199.11507131261592L1670.155369021223,0L2132,0Z" stroke-width="0.35"/><path transform="translate(0,0)" d="M1884.5357142857142,480L1884.5357142857142,404.1252792594312L1922.607142857143,337.69290255875063L2001.7358254273443,406.73032308093707L1973.7426348595973,480Z" stroke-width="0.35"/><path transform="translate(0,0)" d="M1922.607142857143,305.13909342145956L1968.4845394920717,274.3493525251011L2021.336683035052,389.6291581770696L2001.7358254273443,406.73032308093707L1922.607142857143,337.69290255875063Z" stroke-width="0.35"/><path transform="translate(0,0)" d="M2021.336683035052,389.6291581770696L1968.4845394920717,274.3493525251011L2132,79.80975330473127L2132,95.60586009972143L2084.2490179812794,303.91241335549364L2038.7547658608164,383.29717531450393Z" stroke-width="0.35"/><path transform="translate(0,0)" d="M1973.7426348595973,480L2001.7358254273443,406.73032308093707L2021.336683035052,389.6291581770696L2038.7547658608164,383.29717531450393L2132,441.40695505068857L2132,480Z" stroke-width="0.35"/><path transform="translate(0,0)" d="M2132,441.40695505068857L2038.7547658608164,383.29717531450393L2084.2490179812794,303.91241335549364L2132,408.0656899833803Z" stroke-width="0.35"/><path transform="translate(0,0)" d="M2132,408.0656899833803L2084.2490179812794,303.91241335549364L2132,95.60586009972143Z" stroke-width="0.35"/></g><g class="mark-symbol role-mark layer_4_marks" role="graphics-object" aria-roledescription="symbol mark container"><path aria-label="date: Sep 08, 2025; count: 1; Peak date: Sep 08, 2025; Peak unique count: 1" role="graphics-symbol" aria-roledescription="point" transform="translate(0,471.27272727272725)" d="M-5.916,0L0,-5.916L5.916,0L0,5.916Z" fill="#ff9900" stroke="#b36b00" stroke-width="1.5" opacity="0"/><path aria-label="date: Sep 09, 2025; count: 54; Peak date: Sep 09, 2025; Peak unique count: 54" role="graphics-symbol" aria-roledescription="point" transform="translate(38.07142857142857,8.72727272727273)" d="M-5.916,0L0,-5.916L5.916,0L0,5.916Z" fill="#ff9900" stroke="#b36b00" stroke-width="1.5" opacity="1"/><path aria-label="date: Sep 10, 2025; count: 51; Peak date: Sep 10, 2025; Peak unique count: 51" role="graphics-symbol" aria-roledescription="point" transform="translate(76.14285714285714,34.90909090909092)" d="M-5.916,0L0,-5.916L5.916,0L0,5.916Z" fill="#ff9900" stroke="#b36b00" stroke-width="1.5" opacity="0"/><path aria-label="date: Sep 11, 2025; count: 36; Peak date: Sep 11, 2025; Peak unique count: 36" role="graphics-symbol" aria-roledescription="point" transform="translate(114.21428571428571,165.8181818181818)" d="M-5.916,0L0,-5.916L5.916,0L0,5.916Z" fill="#ff9900" stroke="#b36b00" stroke-width="1.5" opacity="0"/><path aria-label="date: Sep 12, 2025; count: 32; Peak date: Sep 12, 2025; Peak unique count: 32" role="graphics-symbol" aria-roledescription="point" transform="translate(152.28571428571428,200.72727272727275)" d="M-5.916,0L0,-5.916L5.916,0L0,5.916Z" fill="#ff9900" stroke="#b36b00" stroke-width="1.5" opacity="0"/><path aria-label="date: Sep 13, 2025; count: 20; Peak date: Sep 13, 2025; Peak unique count: 20" role="graphics-symbol" aria-roledescription="point" transform="translate(190.35714285714286,305.45454545454544)" d="M-5.916,0L0,-5.916L5.916,0L0,5.916Z" fill="#ff9900" stroke="#b36b00" stroke-width="1.5" opacity="0"/><path aria-label="date: Sep 14, 2025; count: 18; Peak date: Sep 14, 2025; Peak unique count: 18" role="graphics-symbol" aria-roledescription="point" transform="translate(228.42857142857142,322.90909090909093)" d="M-5.916,0L0,-5.916L5.916,0L0,5.916Z" fill="#ff9900" stroke="#b36b00" stroke-width="1.5" opacity="0"/><path aria-label="date: Sep 15, 2025; count: 25; Peak date: Sep 15, 2025; Peak unique count: 25" role="graphics-symbol" aria-roledescription="point" transform="translate(266.5,261.8181818181818)" d="M-5.916,0L0,-5.916L5.916,0L0,5.916Z" fill="#ff9900" stroke="#b36b00" stroke-width="1.5" opacity="0"/><path aria-label="date: Sep 16, 2025; count: 27; Peak date: Sep 16, 2025; Peak unique count: 27" role="graphics-symbol" aria-roledescription="point" transform="translate(304.57142857142856,244.36363636363635)" d="M-5.916,0L0,-5.916L5.916,0L0,5.916Z" fill="#ff9900" stroke="#b36b00" stroke-width="1.5" opacity="0"/><path aria-label="date: Sep 17, 2025; count: 39; Peak date: Sep 17, 2025; Peak unique count: 39" role="graphics-symbol" aria-roledescription="point" transform="translate(342.64285714285717,139.63636363636363)" d="M-5.916,0L0,-5.916L5.916,0L0,5.916Z" fill="#ff9900" stroke="#b36b00" stroke-width="1.5" opacity="0"/><path aria-label="date: Sep 18, 2025; count: 41; Peak date: Sep 18, 2025; Peak unique count: 41" role="graphics-symbol" aria-roledescription="point" transform="translate(380.7142857142857,122.18181818181817)" d="M-5.916,0L0,-5.916L5.916,0L0,5.916Z" fill="#ff9900" stroke="#b36b00" stroke-width="1.5" opacity="0"/><path aria-label="date: Sep 19, 2025; count: 28; Peak date: Sep 19, 2025; Peak unique count: 28" role="graphics-symbol" aria-roledescription="point" transform="translate(418.7857142857143,235.63636363636365)" d="M-5.916,0L0,-5.916L5.916,0L0,5.916Z" fill="#ff9900" stroke="#b36b00" stroke-width="1.5" opacity="0"/><path aria-label="date: Sep 20, 2025; count: 24; Peak date: Sep 20, 2025; Peak unique count: 24" role="graphics-symbol" aria-roledescription="point" transform="translate(456.85714285714283,270.54545454545456)" d="M-5.916,0L0,-5.916L5.916,0L0,5.916Z" fill="#ff9900" stroke="#b36b00" stroke-width="1.5" opacity="0"/><path aria-label="date: Sep 21, 2025; count: 15; Peak date: Sep 21, 2025; Peak unique count: 15" role="graphics-symbol" aria-roledescription="point" transform="translate(494.92857142857144,349.0909090909091)" d="M-5.916,0L0,-5.916L5.916,0L0,5.916Z" fill="#ff9900" stroke="#b36b00" stroke-width="1.5" opacity="0"/><path aria-label="date: Sep 22, 2025; count: 16; Peak date: Sep 22, 2025; Peak unique count: 16" role="graphics-symbol" aria-roledescription="point" transform="translate(533,340.3636363636364)" d="M-5.916,0L0,-5.916L5.916,0L0,5.916Z" fill="#ff9900" stroke="#b36b00" stroke-width="1.5" opacity="0"/><path aria-label="date: Sep 23, 2025; count: 17; Peak date: Sep 23, 2025; Peak unique count: 17" role="graphics-symbol" aria-roledescription="point" transform="translate(571.0714285714286,331.6363636363636)" d="M-5.916,0L0,-5.916L5.916,0L0,5.916Z" fill="#ff9900" stroke="#b36b00" stroke-width="1.5" opacity="0"/><path aria-label="date: Sep 24, 2025; count: 18; Peak date: Sep 24, 2025; Peak unique count: 18" role="graphics-symbol" aria-roledescription="point" transform="translate(609.1428571428571,322.90909090909093)" d="M-5.916,0L0,-5.916L5.916,0L0,5.916Z" fill="#ff9900" stroke="#b36b00" stroke-width="1.5" opacity="0"/><path aria-label="date: Sep 25, 2025; count: 11; Peak date: Sep 25, 2025; Peak unique count: 11" role="graphics-symbol" aria-roledescription="point" transform="translate(647.2142857142857,384)" d="M-5.916,0L0,-5.916L5.916,0L0,5.916Z" fill="#ff9900" stroke="#b36b00" stroke-width="1.5" opacity="0"/><path aria-label="date: Sep 26, 2025; count: 25; Peak date: Sep 26, 2025; Peak unique count: 25" role="graphics-symbol" aria-roledescription="point" transform="translate(685.2857142857143,261.8181818181818)" d="M-5.916,0L0,-5.916L5.916,0L0,5.916Z" fill="#ff9900" stroke="#b36b00" stroke-width="1.5" opacity="0"/><path aria-label="date: Sep 27, 2025; count: 7; Peak date: Sep 27, 2025; Peak unique count: 7" role="graphics-symbol" aria-roledescription="point" transform="translate(723.3571428571429,418.90909090909093)" d="M-5.916,0L0,-5.916L5.916,0L0,5.916Z" fill="#ff9900" stroke="#b36b00" stroke-width="1.5" opacity="0"/><path aria-label="date: Sep 28, 2025; count: 14; Peak date: Sep 28, 2025; Peak unique count: 14" role="graphics-symbol" aria-roledescription="point" transform="translate(761.4285714285714,357.8181818181818)" d="M-5.916,0L0,-5.916L5.916,0L0,5.916Z" fill="#ff9900" stroke="#b36b00" stroke-width="1.5" opacity="0"/><path aria-label="date: Sep 29, 2025; count: 38; Peak date: Sep 29, 2025; Peak unique count: 38" role="graphics-symbol" aria-roledescription="point" transform="translate(799.5,148.36363636363637)" d="M-5.916,0L0,-5.916L5.916,0L0,5.916Z" fill="#ff9900" stroke="#b36b00" stroke-width="1.5" opacity="0"/><path aria-label="date: Sep 30, 2025; count: 27; Peak date: Sep 30, 2025; Peak unique count: 27" role="graphics-symbol" aria-roledescription="point" transform="translate(837.5714285714286,244.36363636363635)" d="M-5.916,0L0,-5.916L5.916,0L0,5.916Z" fill="#ff9900" stroke="#b36b00" stroke-width="1.5" opacity="0"/><path aria-label="date: Oct 01, 2025; count: 9; Peak date: Oct 01, 2025; Peak unique count: 9" role="graphics-symbol" aria-roledescription="point" transform="translate(875.6428571428571,401.4545454545455)" d="M-5.916,0L0,-5.916L5.916,0L0,5.916Z" fill="#ff9900" stroke="#b36b00" stroke-width="1.5" opacity="0"/><path aria-label="date: Oct 02, 2025; count: 36; Peak date: Oct 02, 2025; Peak unique count: 36" role="graphics-symbol" aria-roledescription="point" transform="translate(913.7142857142857,165.8181818181818)" d="M-5.916,0L0,-5.916L5.916,0L0,5.916Z" fill="#ff9900" stroke="#b36b00" stroke-width="1.5" opacity="0"/><path aria-label="date: Oct 03, 2025; count: 26; Peak date: Oct 03, 2025; Peak unique count: 26" role="graphics-symbol" aria-roledescription="point" transform="translate(951.7857142857143,253.09090909090912)" d="M-5.916,0L0,-5.916L5.916,0L0,5.916Z" fill="#ff9900" stroke="#b36b00" stroke-width="1.5" opacity="0"/><path aria-label="date: Oct 04, 2025; count: 26; Peak date: Oct 04, 2025; Peak unique count: 26" role="graphics-symbol" aria-roledescription="point" transform="translate(989.8571428571429,253.09090909090912)" d="M-5.916,0L0,-5.916L5.916,0L0,5.916Z" fill="#ff9900" stroke="#b36b00" stroke-width="1.5" opacity="0"/><path aria-label="date: Oct 05, 2025; count: 16; Peak date: Oct 05, 2025; Peak unique count: 16" role="graphics-symbol" aria-roledescription="point" transform="translate(1027.9285714285716,340.3636363636364)" d="M-5.916,0L0,-5.916L5.916,0L0,5.916Z" fill="#ff9900" stroke="#b36b00" stroke-width="1.5" opacity="0"/><path aria-label="date: Oct 06, 2025; count: 20; Peak date: Oct 06, 2025; Peak unique count: 20" role="graphics-symbol" aria-roledescription="point" transform="translate(1066,305.45454545454544)" d="M-5.916,0L0,-5.916L5.916,0L0,5.916Z" fill="#ff9900" stroke="#b36b00" stroke-width="1.5" opacity="0"/><path aria-label="date: Oct 07, 2025; count: 31; Peak date: Oct 07, 2025; Peak unique count: 31" role="graphics-symbol" aria-roledescription="point" transform="translate(1104.0714285714287,209.45454545454547)" d="M-5.916,0L0,-5.916L5.916,0L0,5.916Z" fill="#ff9900" stroke="#b36b00" stroke-width="1.5" opacity="0"/><path aria-label="date: Oct 08, 2025; count: 26; Peak date: Oct 08, 2025; Peak unique count: 26" role="graphics-symbol" aria-roledescription="point" transform="translate(1142.142857142857,253.09090909090912)" d="M-5.916,0L0,-5.916L5.916,0L0,5.916Z" fill="#ff9900" stroke="#b36b00" stroke-width="1.5" opacity="0"/><path aria-label="date: Oct 09, 2025; count: 15; Peak date: Oct 09, 2025; Peak unique count: 15" role="graphics-symbol" aria-roledescription="point" transform="translate(1180.2142857142858,349.0909090909091)" d="M-5.916,0L0,-5.916L5.916,0L0,5.916Z" fill="#ff9900" stroke="#b36b00" stroke-width="1.5" opacity="0"/><path aria-label="date: Oct 10, 2025; count: 19; Peak date: Oct 10, 2025; Peak unique count: 19" role="graphics-symbol" aria-roledescription="point" transform="translate(1218.2857142857142,314.1818181818182)" d="M-5.916,0L0,-5.916L5.916,0L0,5.916Z" fill="#ff9900" stroke="#b36b00" stroke-width="1.5" opacity="0"/><path aria-label="date: Oct 11, 2025; count: 9; Peak date: Oct 11, 2025; Peak unique count: 9" role="graphics-symbol" aria-roledescription="point" transform="translate(1256.357142857143,401.4545454545455)" d="M-5.916,0L0,-5.916L5.916,0L0,5.916Z" fill="#ff9900" stroke="#b36b00" stroke-width="1.5" opacity="0"/><path aria-label="date: Oct 12, 2025; count: 15; Peak date: Oct 12, 2025; Peak unique count: 15" role="graphics-symbol" aria-roledescription="point" transform="translate(1294.4285714285713,349.0909090909091)" d="M-5.916,0L0,-5.916L5.916,0L0,5.916Z" fill="#ff9900" stroke="#b36b00" stroke-width="1.5" opacity="0"/><path aria-label="date: Oct 13, 2025; count: 15; Peak date: Oct 13, 2025; Peak unique count: 15" role="graphics-symbol" aria-roledescription="point" transform="translate(1332.5,349.0909090909091)" d="M-5.916,0L0,-5.916L5.916,0L0,5.916Z" fill="#ff9900" stroke="#b36b00" stroke-width="1.5" opacity="0"/><path aria-label="date: Oct 14, 2025; count: 13; Peak date: Oct 14, 2025; Peak unique count: 13" role="graphics-symbol" aria-roledescription="point" transform="translate(1370.5714285714287,366.54545454545456)" d="M-5.916,0L0,-5.916L5.916,0L0,5.916Z" fill="#ff9900" stroke="#b36b00" stroke-width="1.5" opacity="0"/><path aria-label="date: Oct 15, 2025; count: 19; Peak date: Oct 15, 2025; Peak unique count: 19" role="graphics-symbol" aria-roledescription="point" transform="translate(1408.642857142857,314.1818181818182)" d="M-5.916,0L0,-5.916L5.916,0L0,5.916Z" fill="#ff9900" stroke="#b36b00" stroke-width="1.5" opacity="0"/><path aria-label="date: Oct 16, 2025; count: 16; Peak date: Oct 16, 2025; Peak unique count: 16" role="graphics-symbol" aria-roledescription="point" transform="translate(1446.7142857142858,340.3636363636364)" d="M-5.916,0L0,-5.916L5.916,0L0,5.916Z" fill="#ff9900" stroke="#b36b00" stroke-width="1.5" opacity="0"/><path aria-label="date: Oct 17, 2025; count: 12; Peak date: Oct 17, 2025; Peak unique count: 12" role="graphics-symbol" aria-roledescription="point" transform="translate(1484.7857142857142,375.2727272727273)" d="M-5.916,0L0,-5.916L5.916,0L0,5.916Z" fill="#ff9900" stroke="#b36b00" stroke-width="1.5" opacity="0"/><path aria-label="date: Oct 18, 2025; count: 3; Peak date: Oct 18, 2025; Peak unique count: 3" role="graphics-symbol" aria-roledescription="point" transform="translate(1522.857142857143,453.8181818181818)" d="M-5.916,0L0,-5.916L5.916,0L0,5.916Z" fill="#ff9900" stroke="#b36b00" stroke-width="1.5" opacity="0"/><path aria-label="date: Oct 19, 2025; count: 6; Peak date: Oct 19, 2025; Peak unique count: 6" role="graphics-symbol" aria-roledescription="point" transform="translate(1560.9285714285713,427.6363636363636)" d="M-5.916,0L0,-5.916L5.916,0L0,5.916Z" fill="#ff9900" stroke="#b36b00" stroke-width="1.5" opacity="0"/><path aria-label="date: Oct 20, 2025; count: 13; Peak date: Oct 20, 2025; Peak unique count: 13" role="graphics-symbol" aria-roledescription="point" transform="translate(1599,366.54545454545456)" d="M-5.916,0L0,-5.916L5.916,0L0,5.916Z" fill="#ff9900" stroke="#b36b00" stroke-width="1.5" opacity="0"/><path aria-label="date: Oct 21, 2025; count: 10; Peak date: Oct 21, 2025; Peak unique count: 10" role="graphics-symbol" aria-roledescription="point" transform="translate(1637.0714285714287,392.7272727272727)" d="M-5.916,0L0,-5.916L5.916,0L0,5.916Z" fill="#ff9900" stroke="#b36b00" stroke-width="1.5" opacity="0"/><path aria-label="date: Oct 22, 2025; count: 17; Peak date: Oct 22, 2025; Peak unique count: 17" role="graphics-symbol" aria-roledescription="point" transform="translate(1675.142857142857,331.6363636363636)" d="M-5.916,0L0,-5.916L5.916,0L0,5.916Z" fill="#ff9900" stroke="#b36b00" stroke-width="1.5" opacity="0"/><path aria-label="date: Oct 23, 2025; count: 12; Peak date: Oct 23, 2025; Peak unique count: 12" role="graphics-symbol" aria-roledescription="point" transform="translate(1713.2142857142858,375.2727272727273)" d="M-5.916,0L0,-5.916L5.916,0L0,5.916Z" fill="#ff9900" stroke="#b36b00" stroke-width="1.5" opacity="0"/><path aria-label="date: Oct 24, 2025; count: 13; Peak date: Oct 24, 2025; Peak unique count: 13" role="graphics-symbol" aria-roledescription="point" transform="translate(1751.2857142857142,366.54545454545456)" d="M-5.916,0L0,-5.916L5.916,0L0,5.916Z" fill="#ff9900" stroke="#b36b00" stroke-width="1.5" opacity="0"/><path aria-label="date: Oct 25, 2025; count: 15; Peak date: Oct 25, 2025; Peak unique count: 15" role="graphics-symbol" aria-roledescription="point" transform="translate(1789.357142857143,349.0909090909091)" d="M-5.916,0L0,-5.916L5.916,0L0,5.916Z" fill="#ff9900" stroke="#b36b00" stroke-width="1.5" opacity="0"/><path aria-label="date: Oct 26, 2025; count: 10; Peak date: Oct 26, 2025; Peak unique count: 10" role="graphics-symbol" aria-roledescription="point" transform="translate(1827.4285714285713,392.7272727272727)" d="M-5.916,0L0,-5.916L5.916,0L0,5.916Z" fill="#ff9900" stroke="#b36b00" stroke-width="1.5" opacity="0"/><path aria-label="date: Oct 27, 2025; count: 15; Peak date: Oct 27, 2025; Peak unique count: 15" role="graphics-symbol" aria-roledescription="point" transform="translate(1865.5,349.0909090909091)" d="M-5.916,0L0,-5.916L5.916,0L0,5.916Z" fill="#ff9900" stroke="#b36b00" stroke-width="1.5" opacity="0"/><path aria-label="date: Oct 28, 2025; count: 28; Peak date: Oct 28, 2025; Peak unique count: 28" role="graphics-symbol" aria-roledescription="point" transform="translate(1903.5714285714287,235.63636363636365)" d="M-5.916,0L0,-5.916L5.916,0L0,5.916Z" fill="#ff9900" stroke="#b36b00" stroke-width="1.5" opacity="0"/><path aria-label="date: Oct 29, 2025; count: 10; Peak date: Oct 29, 2025; Peak unique count: 10" role="graphics-symbol" aria-roledescription="point" transform="translate(1941.642857142857,392.7272727272727)" d="M-5.916,0L0,-5.916L5.916,0L0,5.916Z" fill="#ff9900" stroke="#b36b00" stroke-width="1.5" opacity="0"/><path aria-label="date: Oct 30, 2025; count: 15; Peak date: Oct 30, 2025; Peak unique count: 15" role="graphics-symbol" aria-roledescription="point" transform="translate(1979.7142857142858,349.0909090909091)" d="M-5.916,0L0,-5.916L5.916,0L0,5.916Z" fill="#ff9900" stroke="#b36b00" stroke-width="1.5" opacity="0"/><path aria-label="date: Oct 31, 2025; count: 17; Peak date: Oct 31, 2025; Peak unique count: 17" role="graphics-symbol" aria-roledescription="point" transform="translate(2017.7857142857142,331.6363636363636)" d="M-5.916,0L0,-5.916L5.916,0L0,5.916Z" fill="#ff9900" stroke="#b36b00" stroke-width="1.5" opacity="0"/><path aria-label="date: Nov 01, 2025; count: 5; Peak date: Nov 01, 2025; Peak unique count: 5" role="graphics-symbol" aria-roledescription="point" transform="translate(2055.857142857143,436.3636363636364)" d="M-5.916,0L0,-5.916L5.916,0L0,5.916Z" fill="#ff9900" stroke="#b36b00" stroke-width="1.5" opacity="0"/><path aria-label="date: Nov 02, 2025; count: 12; Peak date: Nov 02, 2025; Peak unique count: 12" role="graphics-symbol" aria-roledescription="point" transform="translate(2093.928571428571,375.2727272727273)" d="M-5.916,0L0,-5.916L5.916,0L0,5.916Z" fill="#ff9900" stroke="#b36b00" stroke-width="1.5" opacity="0"/><path aria-label="date: Nov 03, 2025; count: 14; Peak date: Nov 03, 2025; Peak unique count: 14" role="graphics-symbol" aria-roledescription="point" transform="translate(2132,357.8181818181818)" d="M-5.916,0L0,-5.916L5.916,0L0,5.916Z" fill="#ff9900" stroke="#b36b00" stroke-width="1.5" opacity="0"/></g><g class="mark-rule role-mark layer_5_marks" role="graphics-symbol" aria-roledescription="rule mark container" pointer-events="none"><line transform="translate(2132,308.24727272727273)" x2="-2132" y2="0" stroke="#d62728" stroke-width="1.5" stroke-dasharray="4,4"/><line transform="translate(2132,308.24727272727273)" x2="-2132" y2="0" stroke="#d62728" stroke-width="1.5" stroke-dasharray="4,4"/><line transform="translate(2132,308.24727272727273)" x2="-2132" y2="0" stroke="#d62728" stroke-width="1.5" stroke-dasharray="4,4"/><line transform="translate(2132,308.24727272727273)" x2="-2132" y2="0" stroke="#d62728" stroke-width="1.5" stroke-dasharray="4,4"/><line transform="translate(2132,308.24727272727273)" x2="-2132" y2="0" stroke="#d62728" stroke-width="1.5" stroke-dasharray="4,4"/><line transform="translate(2132,308.24727272727273)" x2="-2132" y2="0" stroke="#d62728" stroke-width="1.5" stroke-dasharray="4,4"/><line transform="translate(2132,308.24727272727273)" x2="-2132" y2="0" stroke="#d62728" stroke-width="1.5" stroke-dasharray="4,4"/><line transform="translate(2132,308.24727272727273)" x2="-2132" y2="0" stroke="#d62728" stroke-width="1.5" stroke-dasharray="4,4"/><line transform="translate(2132,308.24727272727273)" x2="-2132" y2="0" stroke="#d62728" stroke-width="1.5" stroke-dasharray="4,4"/><line transform="translate(2132,308.24727272727273)" x2="-2132" y2="0" stroke="#d62728" stroke-width="1.5" stroke-dasharray="4,4"/><line transform="translate(2132,308.24727272727273)" x2="-2132" y2="0" stroke="#d62728" stroke-width="1.5" stroke-dasharray="4,4"/><line transform="translate(2132,308.24727272727273)" x2="-2132" y2="0" stroke="#d62728" stroke-width="1.5" stroke-dasharray="4,4"/><line transform="translate(2132,308.24727272727273)" x2="-2132" y2="0" stroke="#d62728" stroke-width="1.5" stroke-dasharray="4,4"/><line transform="translate(2132,308.24727272727273)" x2="-2132" y2="0" stroke="#d62728" stroke-width="1.5" stroke-dasharray="4,4"/><line transform="translate(2132,308.24727272727273)" x2="-2132" y2="0" stroke="#d62728" stroke-width="1.5" stroke-dasharray="4,4"/><line transform="translate(2132,308.24727272727273)" x2="-2132" y2="0" stroke="#d62728" stroke-width="1.5" stroke-dasharray="4,4"/><line transform="translate(2132,308.24727272727273)" x2="-2132" y2="0" stroke="#d62728" stroke-width="1.5" stroke-dasharray="4,4"/><line transform="translate(2132,308.24727272727273)" x2="-2132" y2="0" stroke="#d62728" stroke-width="1.5" stroke-dasharray="4,4"/><line transform="translate(2132,308.24727272727273)" x2="-2132" y2="0" stroke="#d62728" stroke-width="1.5" stroke-dasharray="4,4"/><line transform="translate(2132,308.24727272727273)" x2="-2132" y2="0" stroke="#d62728" stroke-width="1.5" stroke-dasharray="4,4"/><line transform="translate(2132,308.24727272727273)" x2="-2132" y2="0" stroke="#d62728" stroke-width="1.5" stroke-dasharray="4,4"/><line transform="translate(2132,308.24727272727273)" x2="-2132" y2="0" stroke="#d62728" stroke-width="1.5" stroke-dasharray="4,4"/><line transform="translate(2132,308.24727272727273)" x2="-2132" y2="0" stroke="#d62728" stroke-width="1.5" stroke-dasharray="4,4"/><line transform="translate(2132,308.24727272727273)" x2="-2132" y2="0" stroke="#d62728" stroke-width="1.5" stroke-dasharray="4,4"/><line transform="translate(2132,308.24727272727273)" x2="-2132" y2="0" stroke="#d62728" stroke-width="1.5" stroke-dasharray="4,4"/><line transform="translate(2132,308.24727272727273)" x2="-2132" y2="0" stroke="#d62728" stroke-width="1.5" stroke-dasharray="4,4"/><line transform="translate(2132,308.24727272727273)" x2="-2132" y2="0" stroke="#d62728" stroke-width="1.5" stroke-dasharray="4,4"/><line transform="translate(2132,308.24727272727273)" x2="-2132" y2="0" stroke="#d62728" stroke-width="1.5" stroke-dasharray="4,4"/><line transform="translate(2132,308.24727272727273)" x2="-2132" y2="0" stroke="#d62728" stroke-width="1.5" stroke-dasharray="4,4"/><line transform="translate(2132,308.24727272727273)" x2="-2132" y2="0" stroke="#d62728" stroke-width="1.5" stroke-dasharray="4,4"/><line transform="translate(2132,308.24727272727273)" x2="-2132" y2="0" stroke="#d62728" stroke-width="1.5" stroke-dasharray="4,4"/><line transform="translate(2132,308.24727272727273)" x2="-2132" y2="0" stroke="#d62728" stroke-width="1.5" stroke-dasharray="4,4"/><line transform="translate(2132,308.24727272727273)" x2="-2132" y2="0" stroke="#d62728" stroke-width="1.5" stroke-dasharray="4,4"/><line transform="translate(2132,308.24727272727273)" x2="-2132" y2="0" stroke="#d62728" stroke-width="1.5" stroke-dasharray="4,4"/><line transform="translate(2132,308.24727272727273)" x2="-2132" y2="0" stroke="#d62728" stroke-width="1.5" stroke-dasharray="4,4"/><line transform="translate(2132,308.24727272727273)" x2="-2132" y2="0" stroke="#d62728" stroke-width="1.5" stroke-dasharray="4,4"/><line transform="translate(2132,308.24727272727273)" x2="-2132" y2="0" stroke="#d62728" stroke-width="1.5" stroke-dasharray="4,4"/><line transform="translate(2132,308.24727272727273)" x2="-2132" y2="0" stroke="#d62728" stroke-width="1.5" stroke-dasharray="4,4"/><line transform="translate(2132,308.24727272727273)" x2="-2132" y2="0" stroke="#d62728" stroke-width="1.5" stroke-dasharray="4,4"/><line transform="translate(2132,308.24727272727273)" x2="-2132" y2="0" stroke="#d62728" stroke-width="1.5" stroke-dasharray="4,4"/><line transform="translate(2132,308.24727272727273)" x2="-2132" y2="0" stroke="#d62728" stroke-width="1.5" stroke-dasharray="4,4"/><line transform="translate(2132,308.24727272727273)" x2="-2132" y2="0" stroke="#d62728" stroke-width="1.5" stroke-dasharray="4,4"/><line transform="translate(2132,308.24727272727273)" x2="-2132" y2="0" stroke="#d62728" stroke-width="1.5" stroke-dasharray="4,4"/><line transform="translate(2132,308.24727272727273)" x2="-2132" y2="0" stroke="#d62728" stroke-width="1.5" stroke-dasharray="4,4"/><line transform="translate(2132,308.24727272727273)" x2="-2132" y2="0" stroke="#d62728" stroke-width="1.5" stroke-dasharray="4,4"/><line transform="translate(2132,308.24727272727273)" x2="-2132" y2="0" stroke="#d62728" stroke-width="1.5" stroke-dasharray="4,4"/><line transform="translate(2132,308.24727272727273)" x2="-2132" y2="0" stroke="#d62728" stroke-width="1.5" stroke-dasharray="4,4"/><line transform="translate(2132,308.24727272727273)" x2="-2132" y2="0" stroke="#d62728" stroke-width="1.5" stroke-dasharray="4,4"/><line transform="translate(2132,308.24727272727273)" x2="-2132" y2="0" stroke="#d62728" stroke-width="1.5" stroke-dasharray="4,4"/><line transform="translate(2132,308.24727272727273)" x2="-2132" y2="0" stroke="#d62728" stroke-width="1.5" stroke-dasharray="4,4"/><line transform="translate(2132,308.24727272727273)" x2="-2132" y2="0" stroke="#d62728" stroke-width="1.5" stroke-dasharray="4,4"/><line transform="translate(2132,308.24727272727273)" x2="-2132" y2="0" stroke="#d62728" stroke-width="1.5" stroke-dasharray="4,4"/><line transform="translate(2132,308.24727272727273)" x2="-2132" y2="0" stroke="#d62728" stroke-width="1.5" stroke-dasharray="4,4"/><line transform="translate(2132,308.24727272727273)" x2="-2132" y2="0" stroke="#d62728" stroke-width="1.5" stroke-dasharray="4,4"/><line transform="translate(2132,308.24727272727273)" x2="-2132" y2="0" stroke="#d62728" stroke-width="1.5" stroke-dasharray="4,4"/><line transform="translate(2132,308.24727272727273)" x2="-2132" y2="0" stroke="#d62728" stroke-width="1.5" stroke-dasharray="4,4"/><line transform="translate(2132,308.24727272727273)" x2="-2132" y2="0" stroke="#d62728" stroke-width="1.5" stroke-dasharray="4,4"/></g><g class="mark-text role-mark layer_6_marks" role="graphics-object" aria-roledescription="text mark container" pointer-events="none"><text aria-label="date: Nov 03, 2025" role="graphics-symbol" aria-roledescription="text mark" text-anchor="start" transform="translate(2138,306.24727272727273)" font-family="sans-serif" font-size="12px" fill="#d62728">Avg: 19.68</text></g></g><path class="foreground" aria-hidden="true" d="" display="none"/></g></g></g></svg>
