<svg xmlns="http://www.w3.org/2000/svg" xmlns:xlink="http://www.w3.org/1999/xlink" version="1.1" class="marks" width="2115" height="573" viewBox="0 0 2115 573"><rect width="2115" height="573" fill="white"/><g fill="none" stroke-miterlimit="10" transform="translate(51,11)"><g class="mark-group role-frame root" role="graphics-object" aria-roledescription="group mark container"><g transform="translate(0,0)"><path class="background" aria-hidden="true" d="M0.5,0.5h1988v480h-1988Z"/><g><g class="mark-group role-axis" aria-hidden="true"><g transform="translate(0.5,0.5)"><path class="background" aria-hidden="true" d="M0,0h0v0h0Z" pointer-events="none"/><g><g class="mark-rule role-axis-grid" pointer-events="none"><line transform="translate(0,480)" x2="1988" y2="0" stroke="#ddd" stroke-width="1" opacity="1"/><line transform="translate(0,436)" x2="1988" y2="0" stroke="#ddd" stroke-width="1" opacity="1"/><line transform="translate(0,393)" x2="1988" y2="0" stroke="#ddd" stroke-width="1" opacity="1"/><line transform="translate(0,349)" x2="1988" y2="0" stroke="#ddd" stroke-width="1" opacity="1"/><line transform="translate(0,305)" x2="1988" y2="0" stroke="#ddd" stroke-width="1" opacity="1"/><line transform="translate(0,262)" x2="1988" y2="0" stroke="#ddd" stroke-width="1" opacity="1"/><line transform="translate(0,218)" x2="1988" y2="0" stroke="#ddd" stroke-width="1" opacity="1"/><line transform="translate(0,175)" x2="1988" y2="0" stroke="#ddd" stroke-width="1" opacity="1"/><line transform="translate(0,131)" x2="1988" y2="0" stroke="#ddd" stroke-width="1" opacity="1"/><line transform="translate(0,87)" x2="1988" y2="0" stroke="#ddd" stroke-width="1" opacity="1"/><line transform="translate(0,44)" x2="1988" y2="0" stroke="#ddd" stroke-width="1" opacity="1"/><line transform="translate(0,0)" x2="1988" y2="0" stroke="#ddd" stroke-width="1" opacity="1"/></g></g><path class="foreground" aria-hidden="true" d="" pointer-events="none" display="none"/></g></g><g class="mark-group role-axis" role="graphics-symbol" aria-roledescription="axis" aria-label="X-axis titled 'Date' for a time scale with values from 2025-09-08 to 2025-10-30"><g transform="translate(0.5,480.5)"><path class="background" aria-hidden="true" d="M0,0h0v0h0Z" pointer-events="none"/><g><g class="mark-rule role-axis-tick" pointer-events="none"><line transform="translate(0,0)" x2="0" y2="5" stroke="#bbb" stroke-width="1" opacity="1"/><line transform="translate(38,0)" x2="0" y2="5" stroke="#bbb" stroke-width="1" opacity="1"/><line transform="translate(76,0)" x2="0" y2="5" stroke="#bbb" stroke-width="1" opacity="1"/><line transform="translate(115,0)" x2="0" y2="5" stroke="#bbb" stroke-width="1" opacity="1"/><line transform="translate(153,0)" x2="0" y2="5" stroke="#bbb" stroke-width="1" opacity="1"/><line transform="translate(191,0)" x2="0" y2="5" stroke="#bbb" stroke-width="1" opacity="1"/><line transform="translate(229,0)" x2="0" y2="5" stroke="#bbb" stroke-width="1" opacity="1"/><line transform="translate(268,0)" x2="0" y2="5" stroke="#bbb" stroke-width="1" opacity="1"/><line transform="translate(306,0)" x2="0" y2="5" stroke="#bbb" stroke-width="1" opacity="1"/><line transform="translate(344,0)" x2="0" y2="5" stroke="#bbb" stroke-width="1" opacity="1"/><line transform="translate(382,0)" x2="0" y2="5" stroke="#bbb" stroke-width="1" opacity="1"/><line transform="translate(421,0)" x2="0" y2="5" stroke="#bbb" stroke-width="1" opacity="1"/><line transform="translate(459,0)" x2="0" y2="5" stroke="#bbb" stroke-width="1" opacity="1"/><line transform="translate(497,0)" x2="0" y2="5" stroke="#bbb" stroke-width="1" opacity="1"/><line transform="translate(535,0)" x2="0" y2="5" stroke="#bbb" stroke-width="1" opacity="1"/><line transform="translate(573,0)" x2="0" y2="5" stroke="#bbb" stroke-width="1" opacity="1"/><line transform="translate(612,0)" x2="0" y2="5" stroke="#bbb" stroke-width="1" opacity="1"/><line transform="translate(650,0)" x2="0" y2="5" stroke="#bbb" stroke-width="1" opacity="1"/><line transform="translate(688,0)" x2="0" y2="5" stroke="#bbb" stroke-width="1" opacity="1"/><line transform="translate(726,0)" x2="0" y2="5" stroke="#bbb" stroke-width="1" opacity="1"/><line transform="translate(765,0)" x2="0" y2="5" stroke="#bbb" stroke-width="1" opacity="1"/><line transform="translate(803,0)" x2="0" y2="5" stroke="#bbb" stroke-width="1" opacity="1"/><line transform="translate(841,0)" x2="0" y2="5" stroke="#bbb" stroke-width="1" opacity="1"/><line transform="translate(879,0)" x2="0" y2="5" stroke="#bbb" stroke-width="1" opacity="1"/><line transform="translate(918,0)" x2="0" y2="5" stroke="#bbb" stroke-width="1" opacity="1"/><line transform="translate(956,0)" x2="0" y2="5" stroke="#bbb" stroke-width="1" opacity="1"/><line transform="translate(994,0)" x2="0" y2="5" stroke="#bbb" stroke-width="1" opacity="1"/><line transform="translate(1032,0)" x2="0" y2="5" stroke="#bbb" stroke-width="1" opacity="1"/><line transform="translate(1070,0)" x2="0" y2="5" stroke="#bbb" stroke-width="1" opacity="1"/><line transform="translate(1109,0)" x2="0" y2="5" stroke="#bbb" stroke-width="1" opacity="1"/><line transform="translate(1147,0)" x2="0" y2="5" stroke="#bbb" stroke-width="1" opacity="1"/><line transform="translate(1185,0)" x2="0" y2="5" stroke="#bbb" stroke-width="1" opacity="1"/><line transform="translate(1223,0)" x2="0" y2="5" stroke="#bbb" stroke-width="1" opacity="1"/><line transform="translate(1262,0)" x2="0" y2="5" stroke="#bbb" stroke-width="1" opacity="1"/><line transform="translate(1300,0)" x2="0" y2="5" stroke="#bbb" stroke-width="1" opacity="1"/><line transform="translate(1338,0)" x2="0" y2="5" stroke="#bbb" stroke-width="1" opacity="1"/><line transform="translate(1376,0)" x2="0" y2="5" stroke="#bbb" stroke-width="1" opacity="1"/><line transform="translate(1415,0)" x2="0" y2="5" stroke="#bbb" stroke-width="1" opacity="1"/><line transform="translate(1453,0)" x2="0" y2="5" stroke="#bbb" stroke-width="1" opacity="1"/><line transform="translate(1491,0)" x2="0" y2="5" stroke="#bbb" stroke-width="1" opacity="1"/><line transform="translate(1529,0)" x2="0" y2="5" stroke="#bbb" stroke-width="1" opacity="1"/><line transform="translate(1567,0)" x2="0" y2="5" stroke="#bbb" stroke-width="1" opacity="1"/><line transform="translate(1606,0)" x2="0" y2="5" stroke="#bbb" stroke-width="1" opacity="1"/><line transform="translate(1644,0)" x2="0" y2="5" stroke="#bbb" stroke-width="1" opacity="1"/><line transform="translate(1682,0)" x2="0" y2="5" stroke="#bbb" stroke-width="1" opacity="1"/><line transform="translate(1720,0)" x2="0" y2="5" stroke="#bbb" stroke-width="1" opacity="1"/><line transform="translate(1759,0)" x2="0" y2="5" stroke="#bbb" stroke-width="1" opacity="1"/><line transform="translate(1797,0)" x2="0" y2="5" stroke="#bbb" stroke-width="1" opacity="1"/><line transform="translate(1835,0)" x2="0" y2="5" stroke="#bbb" stroke-width="1" opacity="1"/><line transform="translate(1873,0)" x2="0" y2="5" stroke="#bbb" stroke-width="1" opacity="1"/><line transform="translate(1912,0)" x2="0" y2="5" stroke="#bbb" stroke-width="1" opacity="1"/><line transform="translate(1950,0)" x2="0" y2="5" stroke="#bbb" stroke-width="1" opacity="1"/><line transform="translate(1988,0)" x2="0" y2="5" stroke="#bbb" stroke-width="1" opacity="1"/></g><g class="mark-text role-axis-label" pointer-events="none"><text text-anchor="end" transform="translate(0,7) rotate(315) translate(0,9)" font-family="Segoe UI" font-size="11px" fill="#000" opacity="1">2025-09-08</text><text text-anchor="end" transform="translate(38.23076923076923,7) rotate(315) translate(0,9)" font-family="Segoe UI" font-size="11px" fill="#000" opacity="0">2025-09-09</text><text text-anchor="end" transform="translate(76.46153846153847,7) rotate(315) translate(0,9)" font-family="Segoe UI" font-size="11px" fill="#000" opacity="1">2025-09-10</text><text text-anchor="end" transform="translate(114.6923076923077,7) rotate(315) translate(0,9)" font-family="Segoe UI" font-size="11px" fill="#000" opacity="0">2025-09-11</text><text text-anchor="end" transform="translate(152.92307692307693,7) rotate(315) translate(0,9)" font-family="Segoe UI" font-size="11px" fill="#000" opacity="1">2025-09-12</text><text text-anchor="end" transform="translate(191.15384615384616,7) rotate(315) translate(0,9)" font-family="Segoe UI" font-size="11px" fill="#000" opacity="0">2025-09-13</text><text text-anchor="end" transform="translate(229.3846153846154,7) rotate(315) translate(0,9)" font-family="Segoe UI" font-size="11px" fill="#000" opacity="1">2025-09-14</text><text text-anchor="end" transform="translate(267.6153846153846,7) rotate(315) translate(0,9)" font-family="Segoe UI" font-size="11px" fill="#000" opacity="0">2025-09-15</text><text text-anchor="end" transform="translate(305.84615384615387,7) rotate(315) translate(0,9)" font-family="Segoe UI" font-size="11px" fill="#000" opacity="1">2025-09-16</text><text text-anchor="end" transform="translate(344.0769230769231,7) rotate(315) translate(0,9)" font-family="Segoe UI" font-size="11px" fill="#000" opacity="0">2025-09-17</text><text text-anchor="end" transform="translate(382.3076923076923,7) rotate(315) translate(0,9)" font-family="Segoe UI" font-size="11px" fill="#000" opacity="1">2025-09-18</text><text text-anchor="end" transform="translate(420.53846153846155,7) rotate(315) translate(0,9)" font-family="Segoe UI" font-size="11px" fill="#000" opacity="0">2025-09-19</text><text text-anchor="end" transform="translate(458.7692307692308,7) rotate(315) translate(0,9)" font-family="Segoe UI" font-size="11px" fill="#000" opacity="1">2025-09-20</text><text text-anchor="end" transform="translate(497,7) rotate(315) translate(0,9)" font-family="Segoe UI" font-size="11px" fill="#000" opacity="0">2025-09-21</text><text text-anchor="end" transform="translate(535.2307692307692,7) rotate(315) translate(0,9)" font-family="Segoe UI" font-size="11px" fill="#000" opacity="1">2025-09-22</text><text text-anchor="end" transform="translate(573.4615384615385,7) rotate(315) translate(0,9)" font-family="Segoe UI" font-size="11px" fill="#000" opacity="0">2025-09-23</text><text text-anchor="end" transform="translate(611.6923076923077,7) rotate(315) translate(0,9)" font-family="Segoe UI" font-size="11px" fill="#000" opacity="1">2025-09-24</text><text text-anchor="end" transform="translate(649.9230769230769,7) rotate(315) translate(0,9)" font-family="Segoe UI" font-size="11px" fill="#000" opacity="0">2025-09-25</text><text text-anchor="end" transform="translate(688.1538461538462,7) rotate(315) translate(0,9)" font-family="Segoe UI" font-size="11px" fill="#000" opacity="1">2025-09-26</text><text text-anchor="end" transform="translate(726.3846153846154,7) rotate(315) translate(0,9)" font-family="Segoe UI" font-size="11px" fill="#000" opacity="0">2025-09-27</text><text text-anchor="end" transform="translate(764.6153846153846,7) rotate(315) translate(0,9)" font-family="Segoe UI" font-size="11px" fill="#000" opacity="1">2025-09-28</text><text text-anchor="end" transform="translate(802.8461538461538,7) rotate(315) translate(0,9)" font-family="Segoe UI" font-size="11px" fill="#000" opacity="0">2025-09-29</text><text text-anchor="end" transform="translate(841.0769230769231,7) rotate(315) translate(0,9)" font-family="Segoe UI" font-size="11px" fill="#000" opacity="1">2025-09-30</text><text text-anchor="end" transform="translate(879.3076923076923,7) rotate(315) translate(0,9)" font-family="Segoe UI" font-size="11px" fill="#000" opacity="0">2025-10-01</text><text text-anchor="end" transform="translate(917.5384615384615,7) rotate(315) translate(0,9)" font-family="Segoe UI" font-size="11px" fill="#000" opacity="1">2025-10-02</text><text text-anchor="end" transform="translate(955.7692307692308,7) rotate(315) translate(0,9)" font-family="Segoe UI" font-size="11px" fill="#000" opacity="0">2025-10-03</text><text text-anchor="end" transform="translate(994,7) rotate(315) translate(0,9)" font-family="Segoe UI" font-size="11px" fill="#000" opacity="1">2025-10-04</text><text text-anchor="end" transform="translate(1032.2307692307693,7) rotate(315) translate(0,9)" font-family="Segoe UI" font-size="11px" fill="#000" opacity="0">2025-10-05</text><text text-anchor="end" transform="translate(1070.4615384615383,7) rotate(315) translate(0,9)" font-family="Segoe UI" font-size="11px" fill="#000" opacity="1">2025-10-06</text><text text-anchor="end" transform="translate(1108.6923076923076,7) rotate(315) translate(0,9)" font-family="Segoe UI" font-size="11px" fill="#000" opacity="0">2025-10-07</text><text text-anchor="end" transform="translate(1146.923076923077,7) rotate(315) translate(0,9)" font-family="Segoe UI" font-size="11px" fill="#000" opacity="1">2025-10-08</text><text text-anchor="end" transform="translate(1185.1538461538462,7) rotate(315) translate(0,9)" font-family="Segoe UI" font-size="11px" fill="#000" opacity="0">2025-10-09</text><text text-anchor="end" transform="translate(1223.3846153846155,7) rotate(315) translate(0,9)" font-family="Segoe UI" font-size="11px" fill="#000" opacity="1">2025-10-10</text><text text-anchor="end" transform="translate(1261.6153846153845,7) rotate(315) translate(0,9)" font-family="Segoe UI" font-size="11px" fill="#000" opacity="0">2025-10-11</text><text text-anchor="end" transform="translate(1299.8461538461538,7) rotate(315) translate(0,9)" font-family="Segoe UI" font-size="11px" fill="#000" opacity="1">2025-10-12</text><text text-anchor="end" transform="translate(1338.076923076923,7) rotate(315) translate(0,9)" font-family="Segoe UI" font-size="11px" fill="#000" opacity="0">2025-10-13</text><text text-anchor="end" transform="translate(1376.3076923076924,7) rotate(315) translate(0,9)" font-family="Segoe UI" font-size="11px" fill="#000" opacity="1">2025-10-14</text><text text-anchor="end" transform="translate(1414.5384615384617,7) rotate(315) translate(0,9)" font-family="Segoe UI" font-size="11px" fill="#000" opacity="0">2025-10-15</text><text text-anchor="end" transform="translate(1452.7692307692307,7) rotate(315) translate(0,9)" font-family="Segoe UI" font-size="11px" fill="#000" opacity="1">2025-10-16</text><text text-anchor="end" transform="translate(1491,7) rotate(315) translate(0,9)" font-family="Segoe UI" font-size="11px" fill="#000" opacity="0">2025-10-17</text><text text-anchor="end" transform="translate(1529.2307692307693,7) rotate(315) translate(0,9)" font-family="Segoe UI" font-size="11px" fill="#000" opacity="1">2025-10-18</text><text text-anchor="end" transform="translate(1567.4615384615383,7) rotate(315) translate(0,9)" font-family="Segoe UI" font-size="11px" fill="#000" opacity="0">2025-10-19</text><text text-anchor="end" transform="translate(1605.6923076923076,7) rotate(315) translate(0,9)" font-family="Segoe UI" font-size="11px" fill="#000" opacity="1">2025-10-20</text><text text-anchor="end" transform="translate(1643.923076923077,7) rotate(315) translate(0,9)" font-family="Segoe UI" font-size="11px" fill="#000" opacity="0">2025-10-21</text><text text-anchor="end" transform="translate(1682.1538461538462,7) rotate(315) translate(0,9)" font-family="Segoe UI" font-size="11px" fill="#000" opacity="1">2025-10-22</text><text text-anchor="end" transform="translate(1720.3846153846155,7) rotate(315) translate(0,9)" font-family="Segoe UI" font-size="11px" fill="#000" opacity="0">2025-10-23</text><text text-anchor="end" transform="translate(1758.6153846153845,7) rotate(315) translate(0,9)" font-family="Segoe UI" font-size="11px" fill="#000" opacity="1">2025-10-24</text><text text-anchor="end" transform="translate(1796.8461538461538,7) rotate(315) translate(0,9)" font-family="Segoe UI" font-size="11px" fill="#000" opacity="0">2025-10-25</text><text text-anchor="end" transform="translate(1835.076923076923,7) rotate(315) translate(0,9)" font-family="Segoe UI" font-size="11px" fill="#000" opacity="1">2025-10-26</text><text text-anchor="end" transform="translate(1873.3076923076924,7) rotate(315) translate(0,9)" font-family="Segoe UI" font-size="11px" fill="#000" opacity="0">2025-10-27</text><text text-anchor="end" transform="translate(1911.5384615384617,7) rotate(315) translate(0,9)" font-family="Segoe UI" font-size="11px" fill="#000" opacity="1">2025-10-28</text><text text-anchor="end" transform="translate(1949.7692307692307,7) rotate(315) translate(0,9)" font-family="Segoe UI" font-size="11px" fill="#000" opacity="0">2025-10-29</text><text text-anchor="end" transform="translate(1988,7) rotate(315) translate(0,9)" font-family="Segoe UI" font-size="11px" fill="#000" opacity="1">2025-10-30</text></g><g class="mark-rule role-axis-domain" pointer-events="none"><line transform="translate(0,0)" x2="1988" y2="0" stroke="#888" stroke-width="1" opacity="1"/></g><g class="mark-text role-axis-title" pointer-events="none"><text text-anchor="middle" transform="translate(994,73.9777658717112)" font-family="Segoe UI" font-size="13px" font-weight="bold" fill="#000" opacity="1">Date</text></g></g><path class="foreground" aria-hidden="true" d="" pointer-events="none" display="none"/></g></g><g class="mark-group role-axis" role="graphics-symbol" aria-roledescription="axis" aria-label="Y-axis titled 'Unique server names' for a linear scale with values from 0 to 55"><g transform="translate(0.5,0.5)"><path class="background" aria-hidden="true" d="M0,0h0v0h0Z" pointer-events="none"/><g><g class="mark-rule role-axis-tick" pointer-events="none"><line transform="translate(0,480)" x2="-5" y2="0" stroke="#bbb" stroke-width="1" opacity="1"/><line transform="translate(0,436)" x2="-5" y2="0" stroke="#bbb" stroke-width="1" opacity="1"/><line transform="translate(0,393)" x2="-5" y2="0" stroke="#bbb" stroke-width="1" opacity="1"/><line transform="translate(0,349)" x2="-5" y2="0" stroke="#bbb" stroke-width="1" opacity="1"/><line transform="translate(0,305)" x2="-5" y2="0" stroke="#bbb" stroke-width="1" opacity="1"/><line transform="translate(0,262)" x2="-5" y2="0" stroke="#bbb" stroke-width="1" opacity="1"/><line transform="translate(0,218)" x2="-5" y2="0" stroke="#bbb" stroke-width="1" opacity="1"/><line transform="translate(0,175)" x2="-5" y2="0" stroke="#bbb" stroke-width="1" opacity="1"/><line transform="translate(0,131)" x2="-5" y2="0" stroke="#bbb" stroke-width="1" opacity="1"/><line transform="translate(0,87)" x2="-5" y2="0" stroke="#bbb" stroke-width="1" opacity="1"/><line transform="translate(0,44)" x2="-5" y2="0" stroke="#bbb" stroke-width="1" opacity="1"/><line transform="translate(0,0)" x2="-5" y2="0" stroke="#bbb" stroke-width="1" opacity="1"/></g><g class="mark-text role-axis-label" pointer-events="none"><text text-anchor="end" transform="translate(-7,483)" font-family="Segoe UI" font-size="11px" fill="#000" opacity="1">0</text><text text-anchor="end" transform="translate(-7,439.3636363636364)" font-family="Segoe UI" font-size="11px" fill="#000" opacity="1">5</text><text text-anchor="end" transform="translate(-7,395.7272727272727)" font-family="Segoe UI" font-size="11px" fill="#000" opacity="1">10</text><text text-anchor="end" transform="translate(-7,352.0909090909091)" font-family="Segoe UI" font-size="11px" fill="#000" opacity="1">15</text><text text-anchor="end" transform="translate(-7,308.45454545454544)" font-family="Segoe UI" font-size="11px" fill="#000" opacity="1">20</text><text text-anchor="end" transform="translate(-7,264.8181818181818)" font-family="Segoe UI" font-size="11px" fill="#000" opacity="1">25</text><text text-anchor="end" transform="translate(-7,221.1818181818182)" font-family="Segoe UI" font-size="11px" fill="#000" opacity="1">30</text><text text-anchor="end" transform="translate(-7,177.54545454545456)" font-family="Segoe UI" font-size="11px" fill="#000" opacity="1">35</text><text text-anchor="end" transform="translate(-7,133.9090909090909)" font-family="Segoe UI" font-size="11px" fill="#000" opacity="1">40</text><text text-anchor="end" transform="translate(-7,90.27272727272725)" font-family="Segoe UI" font-size="11px" fill="#000" opacity="1">45</text><text text-anchor="end" transform="translate(-7,46.636363636363654)" font-family="Segoe UI" font-size="11px" fill="#000" opacity="1">50</text><text text-anchor="end" transform="translate(-7,3)" font-family="Segoe UI" font-size="11px" fill="#000" opacity="1">55</text></g><g class="mark-rule role-axis-domain" pointer-events="none"><line transform="translate(0,480)" x2="0" y2="-480" stroke="#888" stroke-width="1" opacity="1"/></g><g class="mark-text role-axis-title" pointer-events="none"><text text-anchor="middle" transform="translate(-24.99609375,240) rotate(-90) translate(0,-3)" font-family="Segoe UI" font-size="13px" font-weight="bold" fill="#000" opacity="1">Unique server names</text></g></g><path class="foreground" aria-hidden="true" d="" pointer-events="none" display="none"/></g></g><g class="mark-area role-mark layer_0_marks" role="graphics-object" aria-roledescription="area mark container" pointer-events="none"><path aria-label="date: 2025-09-08; count: 1" role="graphics-symbol" aria-roledescription="area mark" d="M0,471.273C12.744,240,25.487,8.727,38.231,8.727C50.974,8.727,63.718,17.455,76.462,34.909C89.205,52.364,101.949,142.545,114.692,165.818C127.436,189.091,140.179,177.455,152.923,200.727C165.667,224,178.41,293.818,191.154,305.455C203.897,317.091,216.641,322.909,229.385,322.909C242.128,322.909,254.872,273.455,267.615,261.818C280.359,250.182,293.103,256,305.846,244.364C318.59,232.727,331.333,151.273,344.077,139.636C356.821,128,369.564,122.182,382.308,122.182C395.051,122.182,407.795,212.364,420.538,235.636C433.282,258.909,446.026,251.636,458.769,270.545C471.513,289.455,484.256,349.091,497,349.091C509.744,349.091,522.487,343.273,535.231,340.364C547.974,337.455,560.718,334.545,573.462,331.636C586.205,328.727,598.949,322.909,611.692,322.909C624.436,322.909,637.179,384,649.923,384C662.667,384,675.41,261.818,688.154,261.818C700.897,261.818,713.641,418.909,726.385,418.909C739.128,418.909,751.872,398.545,764.615,357.818C777.359,317.091,790.103,148.364,802.846,148.364C815.59,148.364,828.333,202.182,841.077,244.364C853.821,286.545,866.564,401.455,879.308,401.455C892.051,401.455,904.795,165.818,917.538,165.818C930.282,165.818,943.026,253.091,955.769,253.091C968.513,253.091,981.256,253.091,994,253.091C1006.744,253.091,1019.487,340.364,1032.231,340.364C1044.974,340.364,1057.718,327.273,1070.462,305.455C1083.205,283.636,1095.949,209.455,1108.692,209.455C1121.436,209.455,1134.179,229.818,1146.923,253.091C1159.667,276.364,1172.41,349.091,1185.154,349.091C1197.897,349.091,1210.641,314.182,1223.385,314.182C1236.128,314.182,1248.872,401.455,1261.615,401.455C1274.359,401.455,1287.103,349.091,1299.846,349.091C1312.59,349.091,1325.333,349.091,1338.077,349.091C1350.821,349.091,1363.564,366.545,1376.308,366.545C1389.051,366.545,1401.795,314.182,1414.538,314.182C1427.282,314.182,1440.026,330.182,1452.769,340.364C1465.513,350.545,1478.256,356.364,1491,375.273C1503.744,394.182,1516.487,453.818,1529.231,453.818C1541.974,453.818,1554.718,442.182,1567.462,427.636C1580.205,413.091,1592.949,366.545,1605.692,366.545C1618.436,366.545,1631.179,392.727,1643.923,392.727C1656.667,392.727,1669.41,331.636,1682.154,331.636C1694.897,331.636,1707.641,375.273,1720.385,375.273C1733.128,375.273,1745.872,370.909,1758.615,366.545C1771.359,362.182,1784.103,349.091,1796.846,349.091C1809.59,349.091,1822.333,392.727,1835.077,392.727C1847.821,392.727,1860.564,375.273,1873.308,349.091C1886.051,322.909,1898.795,235.636,1911.538,235.636C1924.282,235.636,1937.026,363.636,1949.769,392.727C1962.513,421.818,1975.256,429.091,1988,436.364L1988,480C1975.256,480,1962.513,480,1949.769,480C1937.026,480,1924.282,480,1911.538,480C1898.795,480,1886.051,480,1873.308,480C1860.564,480,1847.821,480,1835.077,480C1822.333,480,1809.59,480,1796.846,480C1784.103,480,1771.359,480,1758.615,480C1745.872,480,1733.128,480,1720.385,480C1707.641,480,1694.897,480,1682.154,480C1669.41,480,1656.667,480,1643.923,480C1631.179,480,1618.436,480,1605.692,480C1592.949,480,1580.205,480,1567.462,480C1554.718,480,1541.974,480,1529.231,480C1516.487,480,1503.744,480,1491,480C1478.256,480,1465.513,480,1452.769,480C1440.026,480,1427.282,480,1414.538,480C1401.795,480,1389.051,480,1376.308,480C1363.564,480,1350.821,480,1338.077,480C1325.333,480,1312.59,480,1299.846,480C1287.103,480,1274.359,480,1261.615,480C1248.872,480,1236.128,480,1223.385,480C1210.641,480,1197.897,480,1185.154,480C1172.41,480,1159.667,480,1146.923,480C1134.179,480,1121.436,480,1108.692,480C1095.949,480,1083.205,480,1070.462,480C1057.718,480,1044.974,480,1032.231,480C1019.487,480,1006.744,480,994,480C981.256,480,968.513,480,955.769,480C943.026,480,930.282,480,917.538,480C904.795,480,892.051,480,879.308,480C866.564,480,853.821,480,841.077,480C828.333,480,815.59,480,802.846,480C790.103,480,777.359,480,764.615,480C751.872,480,739.128,480,726.385,480C713.641,480,700.897,480,688.154,480C675.41,480,662.667,480,649.923,480C637.179,480,624.436,480,611.692,480C598.949,480,586.205,480,573.462,480C560.718,480,547.974,480,535.231,480C522.487,480,509.744,480,497,480C484.256,480,471.513,480,458.769,480C446.026,480,433.282,480,420.538,480C407.795,480,395.051,480,382.308,480C369.564,480,356.821,480,344.077,480C331.333,480,318.59,480,305.846,480C293.103,480,280.359,480,267.615,480C254.872,480,242.128,480,229.385,480C216.641,480,203.897,480,191.154,480C178.41,480,165.667,480,152.923,480C140.179,480,127.436,480,114.692,480C101.949,480,89.205,480,76.462,480C63.718,480,50.974,480,38.231,480C25.487,480,12.744,480,0,480Z" fill="#4e79a7" opacity="0.18"/></g><g class="mark-line role-mark layer_1_marks" role="graphics-object" aria-roledescription="line mark container" pointer-events="none"><path aria-label="date: Sep 08, 2025; count: 1" role="graphics-symbol" aria-roledescription="line mark" d="M0,471.273C12.744,240,25.487,8.727,38.231,8.727C50.974,8.727,63.718,17.455,76.462,34.909C89.205,52.364,101.949,142.545,114.692,165.818C127.436,189.091,140.179,177.455,152.923,200.727C165.667,224,178.41,293.818,191.154,305.455C203.897,317.091,216.641,322.909,229.385,322.909C242.128,322.909,254.872,273.455,267.615,261.818C280.359,250.182,293.103,256,305.846,244.364C318.59,232.727,331.333,151.273,344.077,139.636C356.821,128,369.564,122.182,382.308,122.182C395.051,122.182,407.795,212.364,420.538,235.636C433.282,258.909,446.026,251.636,458.769,270.545C471.513,289.455,484.256,349.091,497,349.091C509.744,349.091,522.487,343.273,535.231,340.364C547.974,337.455,560.718,334.545,573.462,331.636C586.205,328.727,598.949,322.909,611.692,322.909C624.436,322.909,637.179,384,649.923,384C662.667,384,675.41,261.818,688.154,261.818C700.897,261.818,713.641,418.909,726.385,418.909C739.128,418.909,751.872,398.545,764.615,357.818C777.359,317.091,790.103,148.364,802.846,148.364C815.59,148.364,828.333,202.182,841.077,244.364C853.821,286.545,866.564,401.455,879.308,401.455C892.051,401.455,904.795,165.818,917.538,165.818C930.282,165.818,943.026,253.091,955.769,253.091C968.513,253.091,981.256,253.091,994,253.091C1006.744,253.091,1019.487,340.364,1032.231,340.364C1044.974,340.364,1057.718,327.273,1070.462,305.455C1083.205,283.636,1095.949,209.455,1108.692,209.455C1121.436,209.455,1134.179,229.818,1146.923,253.091C1159.667,276.364,1172.41,349.091,1185.154,349.091C1197.897,349.091,1210.641,314.182,1223.385,314.182C1236.128,314.182,1248.872,401.455,1261.615,401.455C1274.359,401.455,1287.103,349.091,1299.846,349.091C1312.59,349.091,1325.333,349.091,1338.077,349.091C1350.821,349.091,1363.564,366.545,1376.308,366.545C1389.051,366.545,1401.795,314.182,1414.538,314.182C1427.282,314.182,1440.026,330.182,1452.769,340.364C1465.513,350.545,1478.256,356.364,1491,375.273C1503.744,394.182,1516.487,453.818,1529.231,453.818C1541.974,453.818,1554.718,442.182,1567.462,427.636C1580.205,413.091,1592.949,366.545,1605.692,366.545C1618.436,366.545,1631.179,392.727,1643.923,392.727C1656.667,392.727,1669.41,331.636,1682.154,331.636C1694.897,331.636,1707.641,375.273,1720.385,375.273C1733.128,375.273,1745.872,370.909,1758.615,366.545C1771.359,362.182,1784.103,349.091,1796.846,349.091C1809.59,349.091,1822.333,392.727,1835.077,392.727C1847.821,392.727,1860.564,375.273,1873.308,349.091C1886.051,322.909,1898.795,235.636,1911.538,235.636C1924.282,235.636,1937.026,363.636,1949.769,392.727C1962.513,421.818,1975.256,429.091,1988,436.364" stroke="#4e79a7" stroke-width="2"/></g><g class="mark-line role-mark layer_2_marks" role="graphics-object" aria-roledescription="line mark container" pointer-events="none"><path aria-label="date: Sep 08, 2025; ma7: 1" role="graphics-symbol" aria-roledescription="line mark" d="M0,471.273C12.744,378.424,25.487,285.576,38.231,240C50.974,194.424,63.718,172.606,76.462,171.636C89.205,170.667,101.949,170.182,114.692,170.182C127.436,170.182,140.179,172.218,152.923,176.291C165.667,180.364,178.41,191.252,191.154,197.818C203.897,204.384,216.641,215.688,229.385,215.688C242.128,215.688,254.872,185.766,267.615,185.766C280.359,185.766,293.103,211.325,305.846,219.429C318.59,227.532,331.333,234.39,344.077,234.39C356.821,234.39,369.564,228.156,382.308,228.156C395.051,228.156,407.795,233.143,420.538,233.143C433.282,233.143,446.026,228.156,458.769,228.156C471.513,228.156,484.256,229.403,497,231.896C509.744,234.39,522.487,239.169,535.231,243.117C547.974,247.065,560.718,249.143,573.462,255.584C586.205,262.026,598.949,271.169,611.692,281.766C624.436,292.364,637.179,316.675,649.923,319.169C662.667,321.662,675.41,320.416,688.154,322.909C700.897,325.403,713.641,343.273,726.385,344.104C739.128,344.935,751.872,345.351,764.615,345.351C777.359,345.351,790.103,324.571,802.846,317.922C815.59,311.273,828.333,305.455,841.077,305.455C853.821,305.455,866.564,316.675,879.308,316.675C892.051,316.675,904.795,286.338,917.538,285.506C930.282,284.675,943.026,285.091,955.769,284.26C968.513,283.429,981.256,262.234,994,260.571C1006.744,258.909,1019.487,258.078,1032.231,258.078C1044.974,258.078,1057.718,280.519,1070.462,280.519C1083.205,280.519,1095.949,278.857,1108.692,275.532C1121.436,272.208,1134.179,254.338,1146.923,254.338C1159.667,254.338,1172.41,274.701,1185.154,280.519C1197.897,286.338,1210.641,284.26,1223.385,289.247C1236.128,294.234,1248.872,309.61,1261.615,310.442C1274.359,311.273,1287.103,310.857,1299.846,311.688C1312.59,312.519,1325.333,313.766,1338.077,317.922C1350.821,322.078,1363.564,335.169,1376.308,340.364C1389.051,345.558,1401.795,349.091,1414.538,349.091C1427.282,349.091,1440.026,347.844,1452.769,347.844C1465.513,347.844,1478.256,353.87,1491,356.571C1503.744,359.273,1516.487,360.935,1529.231,364.052C1541.974,367.169,1554.718,373.61,1567.462,375.273C1580.205,376.935,1592.949,376.727,1605.692,377.766C1618.436,378.805,1631.179,380.468,1643.923,381.506C1656.667,382.545,1669.41,382.753,1682.154,384C1694.897,385.247,1707.641,388.987,1720.385,388.987C1733.128,388.987,1745.872,388.571,1758.615,387.74C1771.359,386.909,1784.103,376.104,1796.846,372.779C1809.59,369.455,1822.333,369.039,1835.077,367.792C1847.821,366.545,1860.564,366.961,1873.308,365.299C1886.051,363.636,1898.795,342.857,1911.538,342.857C1924.282,342.857,1937.026,348.675,1949.769,351.584C1962.513,354.494,1975.256,357.403,1988,360.312" stroke="#d62728" stroke-width="2" stroke-dasharray="6,4"/></g><g class="mark-symbol role-mark layer_3_marks" role="graphics-object" aria-roledescription="symbol mark container"><path aria-label="date: Sep 08, 2025; count: 1; Date: Sep 08, 2025; Daily unique: 1; 7d avg: 1" role="graphics-symbol" aria-roledescription="point" transform="translate(0,471.27272727272725)" d="M3.536,0A3.536,3.536,0,1,1,-3.536,0A3.536,3.536,0,1,1,3.536,0" fill="#4e79a7" stroke-width="2" opacity="0.55"/><path aria-label="date: Sep 09, 2025; count: 54; Date: Sep 09, 2025; Daily unique: 54; 7d avg: 27.5" role="graphics-symbol" aria-roledescription="point" transform="translate(38.23076923076923,8.72727272727273)" d="M3.536,0A3.536,3.536,0,1,1,-3.536,0A3.536,3.536,0,1,1,3.536,0" fill="#4e79a7" stroke-width="2" opacity="0.55"/><path aria-label="date: Sep 10, 2025; count: 51; Date: Sep 10, 2025; Daily unique: 51; 7d avg: 35.3333333333" role="graphics-symbol" aria-roledescription="point" transform="translate(76.46153846153847,34.90909090909092)" d="M3.536,0A3.536,3.536,0,1,1,-3.536,0A3.536,3.536,0,1,1,3.536,0" fill="#4e79a7" stroke-width="2" opacity="0.55"/><path aria-label="date: Sep 11, 2025; count: 36; Date: Sep 11, 2025; Daily unique: 36; 7d avg: 35.5" role="graphics-symbol" aria-roledescription="point" transform="translate(114.6923076923077,165.8181818181818)" d="M3.536,0A3.536,3.536,0,1,1,-3.536,0A3.536,3.536,0,1,1,3.536,0" fill="#4e79a7" stroke-width="2" opacity="0.55"/><path aria-label="date: Sep 12, 2025; count: 32; Date: Sep 12, 2025; Daily unique: 32; 7d avg: 34.8" role="graphics-symbol" aria-roledescription="point" transform="translate(152.92307692307693,200.72727272727275)" d="M3.536,0A3.536,3.536,0,1,1,-3.536,0A3.536,3.536,0,1,1,3.536,0" fill="#4e79a7" stroke-width="2" opacity="0.55"/><path aria-label="date: Sep 13, 2025; count: 20; Date: Sep 13, 2025; Daily unique: 20; 7d avg: 32.3333333333" role="graphics-symbol" aria-roledescription="point" transform="translate(191.15384615384616,305.45454545454544)" d="M3.536,0A3.536,3.536,0,1,1,-3.536,0A3.536,3.536,0,1,1,3.536,0" fill="#4e79a7" stroke-width="2" opacity="0.55"/><path aria-label="date: Sep 14, 2025; count: 18; Date: Sep 14, 2025; Daily unique: 18; 7d avg: 30.2857142857" role="graphics-symbol" aria-roledescription="point" transform="translate(229.3846153846154,322.90909090909093)" d="M3.536,0A3.536,3.536,0,1,1,-3.536,0A3.536,3.536,0,1,1,3.536,0" fill="#4e79a7" stroke-width="2" opacity="0.55"/><path aria-label="date: Sep 15, 2025; count: 25; Date: Sep 15, 2025; Daily unique: 25; 7d avg: 33.7142857143" role="graphics-symbol" aria-roledescription="point" transform="translate(267.6153846153846,261.8181818181818)" d="M3.536,0A3.536,3.536,0,1,1,-3.536,0A3.536,3.536,0,1,1,3.536,0" fill="#4e79a7" stroke-width="2" opacity="0.55"/><path aria-label="date: Sep 16, 2025; count: 27; Date: Sep 16, 2025; Daily unique: 27; 7d avg: 29.8571428571" role="graphics-symbol" aria-roledescription="point" transform="translate(305.84615384615387,244.36363636363635)" d="M3.536,0A3.536,3.536,0,1,1,-3.536,0A3.536,3.536,0,1,1,3.536,0" fill="#4e79a7" stroke-width="2" opacity="0.55"/><path aria-label="date: Sep 17, 2025; count: 39; Date: Sep 17, 2025; Daily unique: 39; 7d avg: 28.1428571429" role="graphics-symbol" aria-roledescription="point" transform="translate(344.0769230769231,139.63636363636363)" d="M3.536,0A3.536,3.536,0,1,1,-3.536,0A3.536,3.536,0,1,1,3.536,0" fill="#4e79a7" stroke-width="2" opacity="0.55"/><path aria-label="date: Sep 18, 2025; count: 41; Date: Sep 18, 2025; Daily unique: 41; 7d avg: 28.8571428571" role="graphics-symbol" aria-roledescription="point" transform="translate(382.3076923076923,122.18181818181817)" d="M3.536,0A3.536,3.536,0,1,1,-3.536,0A3.536,3.536,0,1,1,3.536,0" fill="#4e79a7" stroke-width="2" opacity="0.55"/><path aria-label="date: Sep 19, 2025; count: 28; Date: Sep 19, 2025; Daily unique: 28; 7d avg: 28.2857142857" role="graphics-symbol" aria-roledescription="point" transform="translate(420.53846153846155,235.63636363636365)" d="M3.536,0A3.536,3.536,0,1,1,-3.536,0A3.536,3.536,0,1,1,3.536,0" fill="#4e79a7" stroke-width="2" opacity="0.55"/><path aria-label="date: Sep 20, 2025; count: 24; Date: Sep 20, 2025; Daily unique: 24; 7d avg: 28.8571428571" role="graphics-symbol" aria-roledescription="point" transform="translate(458.7692307692308,270.54545454545456)" d="M3.536,0A3.536,3.536,0,1,1,-3.536,0A3.536,3.536,0,1,1,3.536,0" fill="#4e79a7" stroke-width="2" opacity="0.55"/><path aria-label="date: Sep 21, 2025; count: 15; Date: Sep 21, 2025; Daily unique: 15; 7d avg: 28.4285714286" role="graphics-symbol" aria-roledescription="point" transform="translate(497,349.0909090909091)" d="M3.536,0A3.536,3.536,0,1,1,-3.536,0A3.536,3.536,0,1,1,3.536,0" fill="#4e79a7" stroke-width="2" opacity="0.55"/><path aria-label="date: Sep 22, 2025; count: 16; Date: Sep 22, 2025; Daily unique: 16; 7d avg: 27.1428571429" role="graphics-symbol" aria-roledescription="point" transform="translate(535.2307692307692,340.3636363636364)" d="M3.536,0A3.536,3.536,0,1,1,-3.536,0A3.536,3.536,0,1,1,3.536,0" fill="#4e79a7" stroke-width="2" opacity="0.55"/><path aria-label="date: Sep 23, 2025; count: 17; Date: Sep 23, 2025; Daily unique: 17; 7d avg: 25.7142857143" role="graphics-symbol" aria-roledescription="point" transform="translate(573.4615384615385,331.6363636363636)" d="M3.536,0A3.536,3.536,0,1,1,-3.536,0A3.536,3.536,0,1,1,3.536,0" fill="#4e79a7" stroke-width="2" opacity="0.55"/><path aria-label="date: Sep 24, 2025; count: 18; Date: Sep 24, 2025; Daily unique: 18; 7d avg: 22.7142857143" role="graphics-symbol" aria-roledescription="point" transform="translate(611.6923076923077,322.90909090909093)" d="M3.536,0A3.536,3.536,0,1,1,-3.536,0A3.536,3.536,0,1,1,3.536,0" fill="#4e79a7" stroke-width="2" opacity="0.55"/><path aria-label="date: Sep 25, 2025; count: 11; Date: Sep 25, 2025; Daily unique: 11; 7d avg: 18.4285714286" role="graphics-symbol" aria-roledescription="point" transform="translate(649.9230769230769,384)" d="M3.536,0A3.536,3.536,0,1,1,-3.536,0A3.536,3.536,0,1,1,3.536,0" fill="#4e79a7" stroke-width="2" opacity="0.55"/><path aria-label="date: Sep 26, 2025; count: 25; Date: Sep 26, 2025; Daily unique: 25; 7d avg: 18" role="graphics-symbol" aria-roledescription="point" transform="translate(688.1538461538462,261.8181818181818)" d="M3.536,0A3.536,3.536,0,1,1,-3.536,0A3.536,3.536,0,1,1,3.536,0" fill="#4e79a7" stroke-width="2" opacity="0.55"/><path aria-label="date: Sep 27, 2025; count: 7; Date: Sep 27, 2025; Daily unique: 7; 7d avg: 15.5714285714" role="graphics-symbol" aria-roledescription="point" transform="translate(726.3846153846154,418.90909090909093)" d="M3.536,0A3.536,3.536,0,1,1,-3.536,0A3.536,3.536,0,1,1,3.536,0" fill="#4e79a7" stroke-width="2" opacity="0.55"/><path aria-label="date: Sep 28, 2025; count: 14; Date: Sep 28, 2025; Daily unique: 14; 7d avg: 15.4285714286" role="graphics-symbol" aria-roledescription="point" transform="translate(764.6153846153846,357.8181818181818)" d="M3.536,0A3.536,3.536,0,1,1,-3.536,0A3.536,3.536,0,1,1,3.536,0" fill="#4e79a7" stroke-width="2" opacity="0.55"/><path aria-label="date: Sep 29, 2025; count: 38; Date: Sep 29, 2025; Daily unique: 38; 7d avg: 18.5714285714" role="graphics-symbol" aria-roledescription="point" transform="translate(802.8461538461538,148.36363636363637)" d="M3.536,0A3.536,3.536,0,1,1,-3.536,0A3.536,3.536,0,1,1,3.536,0" fill="#4e79a7" stroke-width="2" opacity="0.55"/><path aria-label="date: Sep 30, 2025; count: 27; Date: Sep 30, 2025; Daily unique: 27; 7d avg: 20" role="graphics-symbol" aria-roledescription="point" transform="translate(841.0769230769231,244.36363636363635)" d="M3.536,0A3.536,3.536,0,1,1,-3.536,0A3.536,3.536,0,1,1,3.536,0" fill="#4e79a7" stroke-width="2" opacity="0.55"/><path aria-label="date: Oct 01, 2025; count: 9; Date: Oct 01, 2025; Daily unique: 9; 7d avg: 18.7142857143" role="graphics-symbol" aria-roledescription="point" transform="translate(879.3076923076923,401.4545454545455)" d="M3.536,0A3.536,3.536,0,1,1,-3.536,0A3.536,3.536,0,1,1,3.536,0" fill="#4e79a7" stroke-width="2" opacity="0.55"/><path aria-label="date: Oct 02, 2025; count: 36; Date: Oct 02, 2025; Daily unique: 36; 7d avg: 22.2857142857" role="graphics-symbol" aria-roledescription="point" transform="translate(917.5384615384615,165.8181818181818)" d="M3.536,0A3.536,3.536,0,1,1,-3.536,0A3.536,3.536,0,1,1,3.536,0" fill="#4e79a7" stroke-width="2" opacity="0.55"/><path aria-label="date: Oct 03, 2025; count: 26; Date: Oct 03, 2025; Daily unique: 26; 7d avg: 22.4285714286" role="graphics-symbol" aria-roledescription="point" transform="translate(955.7692307692308,253.09090909090912)" d="M3.536,0A3.536,3.536,0,1,1,-3.536,0A3.536,3.536,0,1,1,3.536,0" fill="#4e79a7" stroke-width="2" opacity="0.55"/><path aria-label="date: Oct 04, 2025; count: 26; Date: Oct 04, 2025; Daily unique: 26; 7d avg: 25.1428571429" role="graphics-symbol" aria-roledescription="point" transform="translate(994,253.09090909090912)" d="M3.536,0A3.536,3.536,0,1,1,-3.536,0A3.536,3.536,0,1,1,3.536,0" fill="#4e79a7" stroke-width="2" opacity="0.55"/><path aria-label="date: Oct 05, 2025; count: 16; Date: Oct 05, 2025; Daily unique: 16; 7d avg: 25.4285714286" role="graphics-symbol" aria-roledescription="point" transform="translate(1032.2307692307693,340.3636363636364)" d="M3.536,0A3.536,3.536,0,1,1,-3.536,0A3.536,3.536,0,1,1,3.536,0" fill="#4e79a7" stroke-width="2" opacity="0.55"/><path aria-label="date: Oct 06, 2025; count: 20; Date: Oct 06, 2025; Daily unique: 20; 7d avg: 22.8571428571" role="graphics-symbol" aria-roledescription="point" transform="translate(1070.4615384615383,305.45454545454544)" d="M3.536,0A3.536,3.536,0,1,1,-3.536,0A3.536,3.536,0,1,1,3.536,0" fill="#4e79a7" stroke-width="2" opacity="0.55"/><path aria-label="date: Oct 07, 2025; count: 31; Date: Oct 07, 2025; Daily unique: 31; 7d avg: 23.4285714286" role="graphics-symbol" aria-roledescription="point" transform="translate(1108.6923076923076,209.45454545454547)" d="M3.536,0A3.536,3.536,0,1,1,-3.536,0A3.536,3.536,0,1,1,3.536,0" fill="#4e79a7" stroke-width="2" opacity="0.55"/><path aria-label="date: Oct 08, 2025; count: 26; Date: Oct 08, 2025; Daily unique: 26; 7d avg: 25.8571428571" role="graphics-symbol" aria-roledescription="point" transform="translate(1146.923076923077,253.09090909090912)" d="M3.536,0A3.536,3.536,0,1,1,-3.536,0A3.536,3.536,0,1,1,3.536,0" fill="#4e79a7" stroke-width="2" opacity="0.55"/><path aria-label="date: Oct 09, 2025; count: 15; Date: Oct 09, 2025; Daily unique: 15; 7d avg: 22.8571428571" role="graphics-symbol" aria-roledescription="point" transform="translate(1185.1538461538462,349.0909090909091)" d="M3.536,0A3.536,3.536,0,1,1,-3.536,0A3.536,3.536,0,1,1,3.536,0" fill="#4e79a7" stroke-width="2" opacity="0.55"/><path aria-label="date: Oct 10, 2025; count: 19; Date: Oct 10, 2025; Daily unique: 19; 7d avg: 21.8571428571" role="graphics-symbol" aria-roledescription="point" transform="translate(1223.3846153846155,314.1818181818182)" d="M3.536,0A3.536,3.536,0,1,1,-3.536,0A3.536,3.536,0,1,1,3.536,0" fill="#4e79a7" stroke-width="2" opacity="0.55"/><path aria-label="date: Oct 11, 2025; count: 9; Date: Oct 11, 2025; Daily unique: 9; 7d avg: 19.4285714286" role="graphics-symbol" aria-roledescription="point" transform="translate(1261.6153846153845,401.4545454545455)" d="M3.536,0A3.536,3.536,0,1,1,-3.536,0A3.536,3.536,0,1,1,3.536,0" fill="#4e79a7" stroke-width="2" opacity="0.55"/><path aria-label="date: Oct 12, 2025; count: 15; Date: Oct 12, 2025; Daily unique: 15; 7d avg: 19.2857142857" role="graphics-symbol" aria-roledescription="point" transform="translate(1299.8461538461538,349.0909090909091)" d="M3.536,0A3.536,3.536,0,1,1,-3.536,0A3.536,3.536,0,1,1,3.536,0" fill="#4e79a7" stroke-width="2" opacity="0.55"/><path aria-label="date: Oct 13, 2025; count: 15; Date: Oct 13, 2025; Daily unique: 15; 7d avg: 18.5714285714" role="graphics-symbol" aria-roledescription="point" transform="translate(1338.076923076923,349.0909090909091)" d="M3.536,0A3.536,3.536,0,1,1,-3.536,0A3.536,3.536,0,1,1,3.536,0" fill="#4e79a7" stroke-width="2" opacity="0.55"/><path aria-label="date: Oct 14, 2025; count: 13; Date: Oct 14, 2025; Daily unique: 13; 7d avg: 16" role="graphics-symbol" aria-roledescription="point" transform="translate(1376.3076923076924,366.54545454545456)" d="M3.536,0A3.536,3.536,0,1,1,-3.536,0A3.536,3.536,0,1,1,3.536,0" fill="#4e79a7" stroke-width="2" opacity="0.55"/><path aria-label="date: Oct 15, 2025; count: 19; Date: Oct 15, 2025; Daily unique: 19; 7d avg: 15" role="graphics-symbol" aria-roledescription="point" transform="translate(1414.5384615384617,314.1818181818182)" d="M3.536,0A3.536,3.536,0,1,1,-3.536,0A3.536,3.536,0,1,1,3.536,0" fill="#4e79a7" stroke-width="2" opacity="0.55"/><path aria-label="date: Oct 16, 2025; count: 16; Date: Oct 16, 2025; Daily unique: 16; 7d avg: 15.1428571429" role="graphics-symbol" aria-roledescription="point" transform="translate(1452.7692307692307,340.3636363636364)" d="M3.536,0A3.536,3.536,0,1,1,-3.536,0A3.536,3.536,0,1,1,3.536,0" fill="#4e79a7" stroke-width="2" opacity="0.55"/><path aria-label="date: Oct 17, 2025; count: 12; Date: Oct 17, 2025; Daily unique: 12; 7d avg: 14.1428571429" role="graphics-symbol" aria-roledescription="point" transform="translate(1491,375.2727272727273)" d="M3.536,0A3.536,3.536,0,1,1,-3.536,0A3.536,3.536,0,1,1,3.536,0" fill="#4e79a7" stroke-width="2" opacity="0.55"/><path aria-label="date: Oct 18, 2025; count: 3; Date: Oct 18, 2025; Daily unique: 3; 7d avg: 13.2857142857" role="graphics-symbol" aria-roledescription="point" transform="translate(1529.2307692307693,453.8181818181818)" d="M3.536,0A3.536,3.536,0,1,1,-3.536,0A3.536,3.536,0,1,1,3.536,0" fill="#4e79a7" stroke-width="2" opacity="0.55"/><path aria-label="date: Oct 19, 2025; count: 6; Date: Oct 19, 2025; Daily unique: 6; 7d avg: 12" role="graphics-symbol" aria-roledescription="point" transform="translate(1567.4615384615383,427.6363636363636)" d="M3.536,0A3.536,3.536,0,1,1,-3.536,0A3.536,3.536,0,1,1,3.536,0" fill="#4e79a7" stroke-width="2" opacity="0.55"/><path aria-label="date: Oct 20, 2025; count: 13; Date: Oct 20, 2025; Daily unique: 13; 7d avg: 11.7142857143" role="graphics-symbol" aria-roledescription="point" transform="translate(1605.6923076923076,366.54545454545456)" d="M3.536,0A3.536,3.536,0,1,1,-3.536,0A3.536,3.536,0,1,1,3.536,0" fill="#4e79a7" stroke-width="2" opacity="0.55"/><path aria-label="date: Oct 21, 2025; count: 10; Date: Oct 21, 2025; Daily unique: 10; 7d avg: 11.2857142857" role="graphics-symbol" aria-roledescription="point" transform="translate(1643.923076923077,392.7272727272727)" d="M3.536,0A3.536,3.536,0,1,1,-3.536,0A3.536,3.536,0,1,1,3.536,0" fill="#4e79a7" stroke-width="2" opacity="0.55"/><path aria-label="date: Oct 22, 2025; count: 17; Date: Oct 22, 2025; Daily unique: 17; 7d avg: 11" role="graphics-symbol" aria-roledescription="point" transform="translate(1682.1538461538462,331.6363636363636)" d="M3.536,0A3.536,3.536,0,1,1,-3.536,0A3.536,3.536,0,1,1,3.536,0" fill="#4e79a7" stroke-width="2" opacity="0.55"/><path aria-label="date: Oct 23, 2025; count: 12; Date: Oct 23, 2025; Daily unique: 12; 7d avg: 10.4285714286" role="graphics-symbol" aria-roledescription="point" transform="translate(1720.3846153846155,375.2727272727273)" d="M3.536,0A3.536,3.536,0,1,1,-3.536,0A3.536,3.536,0,1,1,3.536,0" fill="#4e79a7" stroke-width="2" opacity="0.55"/><path aria-label="date: Oct 24, 2025; count: 13; Date: Oct 24, 2025; Daily unique: 13; 7d avg: 10.5714285714" role="graphics-symbol" aria-roledescription="point" transform="translate(1758.6153846153845,366.54545454545456)" d="M3.536,0A3.536,3.536,0,1,1,-3.536,0A3.536,3.536,0,1,1,3.536,0" fill="#4e79a7" stroke-width="2" opacity="0.55"/><path aria-label="date: Oct 25, 2025; count: 15; Date: Oct 25, 2025; Daily unique: 15; 7d avg: 12.2857142857" role="graphics-symbol" aria-roledescription="point" transform="translate(1796.8461538461538,349.0909090909091)" d="M3.536,0A3.536,3.536,0,1,1,-3.536,0A3.536,3.536,0,1,1,3.536,0" fill="#4e79a7" stroke-width="2" opacity="0.55"/><path aria-label="date: Oct 26, 2025; count: 10; Date: Oct 26, 2025; Daily unique: 10; 7d avg: 12.8571428571" role="graphics-symbol" aria-roledescription="point" transform="translate(1835.076923076923,392.7272727272727)" d="M3.536,0A3.536,3.536,0,1,1,-3.536,0A3.536,3.536,0,1,1,3.536,0" fill="#4e79a7" stroke-width="2" opacity="0.55"/><path aria-label="date: Oct 27, 2025; count: 15; Date: Oct 27, 2025; Daily unique: 15; 7d avg: 13.1428571429" role="graphics-symbol" aria-roledescription="point" transform="translate(1873.3076923076924,349.0909090909091)" d="M3.536,0A3.536,3.536,0,1,1,-3.536,0A3.536,3.536,0,1,1,3.536,0" fill="#4e79a7" stroke-width="2" opacity="0.55"/><path aria-label="date: Oct 28, 2025; count: 28; Date: Oct 28, 2025; Daily unique: 28; 7d avg: 15.7142857143" role="graphics-symbol" aria-roledescription="point" transform="translate(1911.5384615384617,235.63636363636365)" d="M3.536,0A3.536,3.536,0,1,1,-3.536,0A3.536,3.536,0,1,1,3.536,0" fill="#4e79a7" stroke-width="2" opacity="0.55"/><path aria-label="date: Oct 29, 2025; count: 10; Date: Oct 29, 2025; Daily unique: 10; 7d avg: 14.7142857143" role="graphics-symbol" aria-roledescription="point" transform="translate(1949.7692307692307,392.7272727272727)" d="M3.536,0A3.536,3.536,0,1,1,-3.536,0A3.536,3.536,0,1,1,3.536,0" fill="#4e79a7" stroke-width="2" opacity="0.55"/><path aria-label="date: Oct 30, 2025; count: 5; Date: Oct 30, 2025; Daily unique: 5; 7d avg: 13.7142857143" role="graphics-symbol" aria-roledescription="point" transform="translate(1988,436.3636363636364)" d="M3.536,0A3.536,3.536,0,1,1,-3.536,0A3.536,3.536,0,1,1,3.536,0" fill="#4e79a7" stroke-width="2" opacity="0.55"/></g><g class="mark-path role-mark layer_3_voronoi" aria-hidden="true"><path transform="translate(0,0)" d="M0,297.01307658687466L22.302943589768958,305.38740300207155L24.84469651970747,306.82410309181245L148.53060461107165,449.40820808833064L168.31706449760225,480L0,480Z" stroke-width="0.35"/><path transform="translate(0,0)" d="M72.2880365473195,0L0,105.5552072126591L0,0Z" stroke-width="0.35"/><path transform="translate(0,0)" d="M244.42210551475225,0L219.28428361939984,64.23606477786068L0,128.27597816179545L0,105.5552072126591L72.2880365473195,0Z" stroke-width="0.35"/><path transform="translate(0,0)" d="M221.86401441779162,86.8376485515909L22.302943589768958,305.38740300207155L0,297.01307658687466L0,128.27597816179545L219.28428361939984,64.23606477786068Z" stroke-width="0.35"/><path transform="translate(0,0)" d="M246.0770756378459,164.04694159390903L205.0707021134634,241.03246496540595L24.84469651970747,306.82410309181245L22.302943589768958,305.38740300207155L221.86401441779162,86.8376485515909L246.29513106418625,163.2827691478816Z" stroke-width="0.35"/><path transform="translate(0,0)" d="M205.0707021134634,241.03246496540595L226.5126001470432,278.60389334668184L148.53060461107165,449.40820808833064L24.84469651970747,306.82410309181245Z" stroke-width="0.35"/><path transform="translate(0,0)" d="M359.5587298355489,373.14032879281626L349.10424685978006,480L168.31706449760225,480L148.53060461107165,449.40820808833064L226.5126001470432,278.60389334668184L327.12543986103515,341.5675374305181Z" stroke-width="0.35"/><path transform="translate(0,0)" d="M246.0770756378459,164.04694159390903L327.12543986103515,341.5675374305181L226.5126001470432,278.60389334668184L205.0707021134634,241.03246496540595Z" stroke-width="0.35"/><path transform="translate(0,0)" d="M363.83873971448173,365.32822475698356L359.5587298355489,373.14032879281626L327.12543986103515,341.5675374305181L246.0770756378459,164.04694159390903L246.29513106418625,163.2827691478816L360.52779916260806,204.98349006762467L369.9934649709593,329.3796318326644Z" stroke-width="0.35"/><path transform="translate(0,0)" d="M303.424776887645,0L387.2825367121142,183.67402762835454L360.52779916260806,204.98349006762467L246.29513106418625,163.2827691478816L221.86401441779162,86.8376485515909L219.28428361939984,64.23606477786068L244.42210551475225,0Z" stroke-width="0.35"/><path transform="translate(0,0)" d="M554.486960684784,127.33116607395455L387.2825367121142,183.67402762835454L303.424776887645,0L600.9987115084891,0L597.542221576523,55.518946324424604L567.9154587164043,120.41057795754543Z" stroke-width="0.35"/><path transform="translate(0,0)" d="M554.486960684784,127.33116607395455L369.9934649709593,329.3796318326644L360.52779916260806,204.98349006762467L387.2825367121142,183.67402762835454Z" stroke-width="0.35"/><path transform="translate(0,0)" d="M565.4547343821353,208.46102407208153L537.2986202018212,261.32142112695004L505.1202039957481,296.56168583019553L363.83873971448173,365.32822475698356L369.9934649709593,329.3796318326644L554.486960684784,127.33116607395455L567.9154587164043,120.41057795754543L570.6843933275431,193.18829679935453Z" stroke-width="0.35"/><path transform="translate(0,0)" d="M505.1202039957481,296.56168583019553L546.995275531127,480L349.10424685978006,480L359.5587298355489,373.14032879281626L363.83873971448173,365.32822475698356Z" stroke-width="0.35"/><path transform="translate(0,0)" d="M537.2986202018212,261.32142112695004L572.4181629829837,415.16640540949436L547.751274973426,480L546.995275531127,480L505.1202039957481,296.56168583019553Z" stroke-width="0.35"/><path transform="translate(0,0)" d="M565.4547343821353,208.46102407208153L602.5854281761772,371.1160745304375L572.4181629829837,415.16640540949436L537.2986202018212,261.32142112695004Z" stroke-width="0.35"/><path transform="translate(0,0)" d="M676.091382156043,325.11595429143506L602.5854281761772,371.1160745304375L565.4547343821353,208.46102407208153L570.6843933275431,193.18829679935453Z" stroke-width="0.35"/><path transform="translate(0,0)" d="M705.5460216266874,363.36038547456815L652.2933276710485,480L547.751274973426,480L572.4181629829837,415.16640540949436L602.5854281761772,371.1160745304375L676.091382156043,325.11595429143506L698.4098030896514,332.09940250824127Z" stroke-width="0.35"/><path transform="translate(0,0)" d="M767.364735030228,277.17856729275L698.4098030896514,332.09940250824127L676.091382156043,325.11595429143506L570.6843933275431,193.18829679935453L567.9154587164043,120.41057795754543L597.542221576523,55.518946324424604L760.9153935470531,220.67448093294666Z" stroke-width="0.35"/><path transform="translate(0,0)" d="M652.2933276710485,480L705.5460216266874,363.36038547456815L804.5755200674436,425.3331725596888L810.8151579534422,480Z" stroke-width="0.35"/><path transform="translate(0,0)" d="M841.8454773296421,327.37410700563174L804.5755200674436,425.3331725596888L705.5460216266874,363.36038547456815L698.4098030896514,332.09940250824127L767.364735030228,277.17856729275Z" stroke-width="0.35"/><path transform="translate(0,0)" d="M884.0993200141728,0L856.2964588796029,182.69019449842958L760.9153935470531,220.67448093294666L597.542221576523,55.518946324424604L600.9987115084891,0Z" stroke-width="0.35"/><path transform="translate(0,0)" d="M900.1961985429468,225.42521528537776L893.3931969632088,314.8290846037127L841.8454773296421,327.37410700563174L767.364735030228,277.17856729275L760.9153935470531,220.67448093294666L856.2964588796029,182.69019449842958Z" stroke-width="0.35"/><path transform="translate(0,0)" d="M943.729256848335,340.77056644684853L999.349721980964,480L810.8151579534422,480L804.5755200674436,425.3331725596888L841.8454773296421,327.37410700563174L893.3931969632088,314.8290846037127Z" stroke-width="0.35"/><path transform="translate(0,0)" d="M900.1961985429468,225.42521528537776L856.2964588796029,182.69019449842958L884.0993200141728,0L1055.9487816920596,0L1021.226138618104,152.106321863233L974.8846153846155,192.70714037565Z" stroke-width="0.35"/><path transform="translate(0,0)" d="M974.8846153846155,313.47467780616824L943.729256848335,340.77056644684853L893.3931969632088,314.8290846037127L900.1961985429468,225.42521528537776L974.8846153846155,192.70714037565Z" stroke-width="0.35"/><path transform="translate(0,0)" d="M974.8846153846155,313.47467780616824L974.8846153846155,192.70714037565L1021.226138618104,152.106321863233L1056.2592814630038,244.18622183105356L1023.346639550316,292.2453600085812Z" stroke-width="0.35"/><path transform="translate(0,0)" d="M974.8846153846155,313.47467780616824L1023.346639550316,292.2453600085812L1106.4909168936058,383.3010018827324L1100.972334963372,480L999.349721980964,480L943.729256848335,340.77056644684853Z" stroke-width="0.35"/><path transform="translate(0,0)" d="M1023.346639550316,292.2453600085812L1056.2592814630038,244.18622183105356L1095.315488208974,259.739855447037L1132.7208199245422,314.35923271440106L1106.4909168936058,383.3010018827324Z" stroke-width="0.35"/><path transform="translate(0,0)" d="M1021.226138618104,152.106321863233L1055.9487816920596,0L1351.2666808223785,0L1333.903421162704,50.70776739286333L1095.315488208974,259.739855447037L1056.2592814630038,244.18622183105356Z" stroke-width="0.35"/><path transform="translate(0,0)" d="M1132.7208199245422,314.35923271440106L1095.315488208974,259.739855447037L1333.903421162704,50.70776739286333L1318.9615384615386,116.16231284740866L1173.6205817656523,298.0714269171Z" stroke-width="0.35"/><path transform="translate(0,0)" d="M1132.7208199245422,314.35923271440106L1173.6205817656523,298.0714269171L1232.2687450650685,362.30009453687336L1151.66357841902,480L1100.972334963372,480L1106.4909168936058,383.3010018827324Z" stroke-width="0.35"/><path transform="translate(0,0)" d="M1173.6205817656523,298.0714269171L1318.9615384615386,116.16231284740866L1318.9615384615386,206.03082554464805L1251.452348068065,353.8965081893267L1232.2687450650685,362.30009453687336Z" stroke-width="0.35"/><path transform="translate(0,0)" d="M1151.66357841902,480L1232.2687450650685,362.30009453687336L1251.452348068065,353.8965081893267L1318.9615384615383,403.18506907088647L1329.4724436894733,418.53312432759566L1348.1812201882624,480Z" stroke-width="0.35"/><path transform="translate(0,0)" d="M1251.452348068065,353.8965081893267L1318.9615384615386,206.03082554464805L1318.9615384615383,403.18506907088647Z" stroke-width="0.35"/><path transform="translate(0,0)" d="M1318.9615384615383,403.18506907088647L1318.9615384615386,206.03082554464805L1318.9615384615386,206.03082554464768L1372.7267530804663,323.79301637865336L1329.4724436894733,418.53312432759566Z" stroke-width="0.35"/><path transform="translate(0,0)" d="M1348.1812201882624,480L1329.4724436894733,418.53312432759566L1372.7267530804663,323.79301637865336L1414.93350332979,354.60822786543935L1431.2650040565884,402.30284029781404L1427.2648909742873,454.8716340981505L1412.924210232789,480Z" stroke-width="0.35"/><path transform="translate(0,0)" d="M1333.903421162704,50.70776739286333L1351.2666808223785,0L1569.4070932725588,0L1560.1044623884775,142.62915917584533L1414.93350332979,354.60822786543935L1372.7267530804663,323.79301637865336L1318.9615384615386,206.03082554464768L1318.9615384615386,116.16231284740866Z" stroke-width="0.35"/><path transform="translate(0,0)" d="M1414.93350332979,354.60822786543935L1560.1044623884775,142.62915917584533L1561.0538306996227,167.58202723849567L1541.5449965675023,281.5294590764265L1431.2650040565884,402.30284029781404Z" stroke-width="0.35"/><path transform="translate(0,0)" d="M1427.2648909742873,454.8716340981505L1431.2650040565884,402.30284029781404L1541.5449965675023,281.5294590764265L1548.5264789627786,373.2788923816568L1525.3407671074124,407.13473819182957Z" stroke-width="0.35"/><path transform="translate(0,0)" d="M1412.924210232789,480L1427.2648909742873,454.8716340981505L1525.3407671074124,407.13473819182957L1575.2415427082522,480Z" stroke-width="0.35"/><path transform="translate(0,0)" d="M1575.2415427082522,480L1525.3407671074124,407.13473819182957L1548.5264789627786,373.2788923816568L1604.9710072258088,408.60195053344097L1637.568324121461,480Z" stroke-width="0.35"/><path transform="translate(0,0)" d="M1541.5449965675023,281.5294590764265L1561.0538306996227,167.58202723849567L1644.6443773895758,350.6707767392863L1604.9710072258088,408.60195053344097L1548.5264789627786,373.2788923816568Z" stroke-width="0.35"/><path transform="translate(0,0)" d="M1637.568324121461,480L1604.9710072258088,408.60195053344097L1644.6443773895758,350.6707767392863L1679.5290114281793,372.5016254445341L1704.068607448889,480Z" stroke-width="0.35"/><path transform="translate(0,0)" d="M1560.1044623884775,142.62915917584533L1569.4070932725588,0L1678.1411968313378,0L1761.1232387330979,198.27920589026354L1747.0654412808703,290.6517764086875L1729.8077867501684,328.4512945654774L1679.5290114281793,372.5016254445341L1644.6443773895758,350.6707767392863L1561.0538306996227,167.58202723849567Z" stroke-width="0.35"/><path transform="translate(0,0)" d="M1763.1209283674075,480L1704.068607448889,480L1679.5290114281793,372.5016254445341L1729.8077867501684,328.4512945654774L1763.633812154555,476.62988501882717Z" stroke-width="0.35"/><path transform="translate(0,0)" d="M1763.633812154555,476.62988501882717L1729.8077867501684,328.4512945654774L1747.0654412808703,290.6517764086875L1792.9229554970364,391.09369556725335Z" stroke-width="0.35"/><path transform="translate(0,0)" d="M1747.0654412808703,290.6517764086875L1761.1232387330979,198.27920589026354L1835.076923076923,273.0397074264493L1835.076923076923,354.1616858301954L1792.9229554970364,391.09369556725335Z" stroke-width="0.35"/><path transform="translate(0,0)" d="M1763.1209283674075,480L1763.633812154555,476.62988501882717L1792.9229554970364,391.09369556725335L1835.076923076923,354.1616858301954L1892.423076923077,404.4039010668819L1892.423076923077,480Z" stroke-width="0.35"/><path transform="translate(0,0)" d="M1835.076923076923,354.1616858301954L1835.076923076923,273.0397074264493L1946.0510398485906,310.4346467996437L1892.423076923077,404.4039010668819Z" stroke-width="0.35"/><path transform="translate(0,0)" d="M1988,300.2256472827387L1946.0510398485906,310.4346467996437L1835.076923076923,273.0397074264493L1761.1232387330979,198.27920589026354L1678.1411968313378,0L1988,0Z" stroke-width="0.35"/><path transform="translate(0,0)" d="M1892.423076923077,480L1892.423076923077,404.4039010668819L1946.0510398485906,310.4346467996437L1988,300.2256472827387L1988,397.79804946655906L1894.175201878787,480Z" stroke-width="0.35"/><path transform="translate(0,0)" d="M1894.175201878787,480L1988,397.79804946655906L1988,480Z" stroke-width="0.35"/></g><g class="mark-symbol role-mark layer_4_marks" role="graphics-object" aria-roledescription="symbol mark container"><path aria-label="date: Sep 08, 2025; count: 1; Peak date: Sep 08, 2025; Peak unique count: 1" role="graphics-symbol" aria-roledescription="point" transform="translate(0,471.27272727272725)" d="M-5.916,0L0,-5.916L5.916,0L0,5.916Z" fill="#ff9900" stroke="#b36b00" stroke-width="1.5" opacity="0"/><path aria-label="date: Sep 09, 2025; count: 54; Peak date: Sep 09, 2025; Peak unique count: 54" role="graphics-symbol" aria-roledescription="point" transform="translate(38.23076923076923,8.72727272727273)" d="M-5.916,0L0,-5.916L5.916,0L0,5.916Z" fill="#ff9900" stroke="#b36b00" stroke-width="1.5" opacity="1"/><path aria-label="date: Sep 10, 2025; count: 51; Peak date: Sep 10, 2025; Peak unique count: 51" role="graphics-symbol" aria-roledescription="point" transform="translate(76.46153846153847,34.90909090909092)" d="M-5.916,0L0,-5.916L5.916,0L0,5.916Z" fill="#ff9900" stroke="#b36b00" stroke-width="1.5" opacity="0"/><path aria-label="date: Sep 11, 2025; count: 36; Peak date: Sep 11, 2025; Peak unique count: 36" role="graphics-symbol" aria-roledescription="point" transform="translate(114.6923076923077,165.8181818181818)" d="M-5.916,0L0,-5.916L5.916,0L0,5.916Z" fill="#ff9900" stroke="#b36b00" stroke-width="1.5" opacity="0"/><path aria-label="date: Sep 12, 2025; count: 32; Peak date: Sep 12, 2025; Peak unique count: 32" role="graphics-symbol" aria-roledescription="point" transform="translate(152.92307692307693,200.72727272727275)" d="M-5.916,0L0,-5.916L5.916,0L0,5.916Z" fill="#ff9900" stroke="#b36b00" stroke-width="1.5" opacity="0"/><path aria-label="date: Sep 13, 2025; count: 20; Peak date: Sep 13, 2025; Peak unique count: 20" role="graphics-symbol" aria-roledescription="point" transform="translate(191.15384615384616,305.45454545454544)" d="M-5.916,0L0,-5.916L5.916,0L0,5.916Z" fill="#ff9900" stroke="#b36b00" stroke-width="1.5" opacity="0"/><path aria-label="date: Sep 14, 2025; count: 18; Peak date: Sep 14, 2025; Peak unique count: 18" role="graphics-symbol" aria-roledescription="point" transform="translate(229.3846153846154,322.90909090909093)" d="M-5.916,0L0,-5.916L5.916,0L0,5.916Z" fill="#ff9900" stroke="#b36b00" stroke-width="1.5" opacity="0"/><path aria-label="date: Sep 15, 2025; count: 25; Peak date: Sep 15, 2025; Peak unique count: 25" role="graphics-symbol" aria-roledescription="point" transform="translate(267.6153846153846,261.8181818181818)" d="M-5.916,0L0,-5.916L5.916,0L0,5.916Z" fill="#ff9900" stroke="#b36b00" stroke-width="1.5" opacity="0"/><path aria-label="date: Sep 16, 2025; count: 27; Peak date: Sep 16, 2025; Peak unique count: 27" role="graphics-symbol" aria-roledescription="point" transform="translate(305.84615384615387,244.36363636363635)" d="M-5.916,0L0,-5.916L5.916,0L0,5.916Z" fill="#ff9900" stroke="#b36b00" stroke-width="1.5" opacity="0"/><path aria-label="date: Sep 17, 2025; count: 39; Peak date: Sep 17, 2025; Peak unique count: 39" role="graphics-symbol" aria-roledescription="point" transform="translate(344.0769230769231,139.63636363636363)" d="M-5.916,0L0,-5.916L5.916,0L0,5.916Z" fill="#ff9900" stroke="#b36b00" stroke-width="1.5" opacity="0"/><path aria-label="date: Sep 18, 2025; count: 41; Peak date: Sep 18, 2025; Peak unique count: 41" role="graphics-symbol" aria-roledescription="point" transform="translate(382.3076923076923,122.18181818181817)" d="M-5.916,0L0,-5.916L5.916,0L0,5.916Z" fill="#ff9900" stroke="#b36b00" stroke-width="1.5" opacity="0"/><path aria-label="date: Sep 19, 2025; count: 28; Peak date: Sep 19, 2025; Peak unique count: 28" role="graphics-symbol" aria-roledescription="point" transform="translate(420.53846153846155,235.63636363636365)" d="M-5.916,0L0,-5.916L5.916,0L0,5.916Z" fill="#ff9900" stroke="#b36b00" stroke-width="1.5" opacity="0"/><path aria-label="date: Sep 20, 2025; count: 24; Peak date: Sep 20, 2025; Peak unique count: 24" role="graphics-symbol" aria-roledescription="point" transform="translate(458.7692307692308,270.54545454545456)" d="M-5.916,0L0,-5.916L5.916,0L0,5.916Z" fill="#ff9900" stroke="#b36b00" stroke-width="1.5" opacity="0"/><path aria-label="date: Sep 21, 2025; count: 15; Peak date: Sep 21, 2025; Peak unique count: 15" role="graphics-symbol" aria-roledescription="point" transform="translate(497,349.0909090909091)" d="M-5.916,0L0,-5.916L5.916,0L0,5.916Z" fill="#ff9900" stroke="#b36b00" stroke-width="1.5" opacity="0"/><path aria-label="date: Sep 22, 2025; count: 16; Peak date: Sep 22, 2025; Peak unique count: 16" role="graphics-symbol" aria-roledescription="point" transform="translate(535.2307692307692,340.3636363636364)" d="M-5.916,0L0,-5.916L5.916,0L0,5.916Z" fill="#ff9900" stroke="#b36b00" stroke-width="1.5" opacity="0"/><path aria-label="date: Sep 23, 2025; count: 17; Peak date: Sep 23, 2025; Peak unique count: 17" role="graphics-symbol" aria-roledescription="point" transform="translate(573.4615384615385,331.6363636363636)" d="M-5.916,0L0,-5.916L5.916,0L0,5.916Z" fill="#ff9900" stroke="#b36b00" stroke-width="1.5" opacity="0"/><path aria-label="date: Sep 24, 2025; count: 18; Peak date: Sep 24, 2025; Peak unique count: 18" role="graphics-symbol" aria-roledescription="point" transform="translate(611.6923076923077,322.90909090909093)" d="M-5.916,0L0,-5.916L5.916,0L0,5.916Z" fill="#ff9900" stroke="#b36b00" stroke-width="1.5" opacity="0"/><path aria-label="date: Sep 25, 2025; count: 11; Peak date: Sep 25, 2025; Peak unique count: 11" role="graphics-symbol" aria-roledescription="point" transform="translate(649.9230769230769,384)" d="M-5.916,0L0,-5.916L5.916,0L0,5.916Z" fill="#ff9900" stroke="#b36b00" stroke-width="1.5" opacity="0"/><path aria-label="date: Sep 26, 2025; count: 25; Peak date: Sep 26, 2025; Peak unique count: 25" role="graphics-symbol" aria-roledescription="point" transform="translate(688.1538461538462,261.8181818181818)" d="M-5.916,0L0,-5.916L5.916,0L0,5.916Z" fill="#ff9900" stroke="#b36b00" stroke-width="1.5" opacity="0"/><path aria-label="date: Sep 27, 2025; count: 7; Peak date: Sep 27, 2025; Peak unique count: 7" role="graphics-symbol" aria-roledescription="point" transform="translate(726.3846153846154,418.90909090909093)" d="M-5.916,0L0,-5.916L5.916,0L0,5.916Z" fill="#ff9900" stroke="#b36b00" stroke-width="1.5" opacity="0"/><path aria-label="date: Sep 28, 2025; count: 14; Peak date: Sep 28, 2025; Peak unique count: 14" role="graphics-symbol" aria-roledescription="point" transform="translate(764.6153846153846,357.8181818181818)" d="M-5.916,0L0,-5.916L5.916,0L0,5.916Z" fill="#ff9900" stroke="#b36b00" stroke-width="1.5" opacity="0"/><path aria-label="date: Sep 29, 2025; count: 38; Peak date: Sep 29, 2025; Peak unique count: 38" role="graphics-symbol" aria-roledescription="point" transform="translate(802.8461538461538,148.36363636363637)" d="M-5.916,0L0,-5.916L5.916,0L0,5.916Z" fill="#ff9900" stroke="#b36b00" stroke-width="1.5" opacity="0"/><path aria-label="date: Sep 30, 2025; count: 27; Peak date: Sep 30, 2025; Peak unique count: 27" role="graphics-symbol" aria-roledescription="point" transform="translate(841.0769230769231,244.36363636363635)" d="M-5.916,0L0,-5.916L5.916,0L0,5.916Z" fill="#ff9900" stroke="#b36b00" stroke-width="1.5" opacity="0"/><path aria-label="date: Oct 01, 2025; count: 9; Peak date: Oct 01, 2025; Peak unique count: 9" role="graphics-symbol" aria-roledescription="point" transform="translate(879.3076923076923,401.4545454545455)" d="M-5.916,0L0,-5.916L5.916,0L0,5.916Z" fill="#ff9900" stroke="#b36b00" stroke-width="1.5" opacity="0"/><path aria-label="date: Oct 02, 2025; count: 36; Peak date: Oct 02, 2025; Peak unique count: 36" role="graphics-symbol" aria-roledescription="point" transform="translate(917.5384615384615,165.8181818181818)" d="M-5.916,0L0,-5.916L5.916,0L0,5.916Z" fill="#ff9900" stroke="#b36b00" stroke-width="1.5" opacity="0"/><path aria-label="date: Oct 03, 2025; count: 26; Peak date: Oct 03, 2025; Peak unique count: 26" role="graphics-symbol" aria-roledescription="point" transform="translate(955.7692307692308,253.09090909090912)" d="M-5.916,0L0,-5.916L5.916,0L0,5.916Z" fill="#ff9900" stroke="#b36b00" stroke-width="1.5" opacity="0"/><path aria-label="date: Oct 04, 2025; count: 26; Peak date: Oct 04, 2025; Peak unique count: 26" role="graphics-symbol" aria-roledescription="point" transform="translate(994,253.09090909090912)" d="M-5.916,0L0,-5.916L5.916,0L0,5.916Z" fill="#ff9900" stroke="#b36b00" stroke-width="1.5" opacity="0"/><path aria-label="date: Oct 05, 2025; count: 16; Peak date: Oct 05, 2025; Peak unique count: 16" role="graphics-symbol" aria-roledescription="point" transform="translate(1032.2307692307693,340.3636363636364)" d="M-5.916,0L0,-5.916L5.916,0L0,5.916Z" fill="#ff9900" stroke="#b36b00" stroke-width="1.5" opacity="0"/><path aria-label="date: Oct 06, 2025; count: 20; Peak date: Oct 06, 2025; Peak unique count: 20" role="graphics-symbol" aria-roledescription="point" transform="translate(1070.4615384615383,305.45454545454544)" d="M-5.916,0L0,-5.916L5.916,0L0,5.916Z" fill="#ff9900" stroke="#b36b00" stroke-width="1.5" opacity="0"/><path aria-label="date: Oct 07, 2025; count: 31; Peak date: Oct 07, 2025; Peak unique count: 31" role="graphics-symbol" aria-roledescription="point" transform="translate(1108.6923076923076,209.45454545454547)" d="M-5.916,0L0,-5.916L5.916,0L0,5.916Z" fill="#ff9900" stroke="#b36b00" stroke-width="1.5" opacity="0"/><path aria-label="date: Oct 08, 2025; count: 26; Peak date: Oct 08, 2025; Peak unique count: 26" role="graphics-symbol" aria-roledescription="point" transform="translate(1146.923076923077,253.09090909090912)" d="M-5.916,0L0,-5.916L5.916,0L0,5.916Z" fill="#ff9900" stroke="#b36b00" stroke-width="1.5" opacity="0"/><path aria-label="date: Oct 09, 2025; count: 15; Peak date: Oct 09, 2025; Peak unique count: 15" role="graphics-symbol" aria-roledescription="point" transform="translate(1185.1538461538462,349.0909090909091)" d="M-5.916,0L0,-5.916L5.916,0L0,5.916Z" fill="#ff9900" stroke="#b36b00" stroke-width="1.5" opacity="0"/><path aria-label="date: Oct 10, 2025; count: 19; Peak date: Oct 10, 2025; Peak unique count: 19" role="graphics-symbol" aria-roledescription="point" transform="translate(1223.3846153846155,314.1818181818182)" d="M-5.916,0L0,-5.916L5.916,0L0,5.916Z" fill="#ff9900" stroke="#b36b00" stroke-width="1.5" opacity="0"/><path aria-label="date: Oct 11, 2025; count: 9; Peak date: Oct 11, 2025; Peak unique count: 9" role="graphics-symbol" aria-roledescription="point" transform="translate(1261.6153846153845,401.4545454545455)" d="M-5.916,0L0,-5.916L5.916,0L0,5.916Z" fill="#ff9900" stroke="#b36b00" stroke-width="1.5" opacity="0"/><path aria-label="date: Oct 12, 2025; count: 15; Peak date: Oct 12, 2025; Peak unique count: 15" role="graphics-symbol" aria-roledescription="point" transform="translate(1299.8461538461538,349.0909090909091)" d="M-5.916,0L0,-5.916L5.916,0L0,5.916Z" fill="#ff9900" stroke="#b36b00" stroke-width="1.5" opacity="0"/><path aria-label="date: Oct 13, 2025; count: 15; Peak date: Oct 13, 2025; Peak unique count: 15" role="graphics-symbol" aria-roledescription="point" transform="translate(1338.076923076923,349.0909090909091)" d="M-5.916,0L0,-5.916L5.916,0L0,5.916Z" fill="#ff9900" stroke="#b36b00" stroke-width="1.5" opacity="0"/><path aria-label="date: Oct 14, 2025; count: 13; Peak date: Oct 14, 2025; Peak unique count: 13" role="graphics-symbol" aria-roledescription="point" transform="translate(1376.3076923076924,366.54545454545456)" d="M-5.916,0L0,-5.916L5.916,0L0,5.916Z" fill="#ff9900" stroke="#b36b00" stroke-width="1.5" opacity="0"/><path aria-label="date: Oct 15, 2025; count: 19; Peak date: Oct 15, 2025; Peak unique count: 19" role="graphics-symbol" aria-roledescription="point" transform="translate(1414.5384615384617,314.1818181818182)" d="M-5.916,0L0,-5.916L5.916,0L0,5.916Z" fill="#ff9900" stroke="#b36b00" stroke-width="1.5" opacity="0"/><path aria-label="date: Oct 16, 2025; count: 16; Peak date: Oct 16, 2025; Peak unique count: 16" role="graphics-symbol" aria-roledescription="point" transform="translate(1452.7692307692307,340.3636363636364)" d="M-5.916,0L0,-5.916L5.916,0L0,5.916Z" fill="#ff9900" stroke="#b36b00" stroke-width="1.5" opacity="0"/><path aria-label="date: Oct 17, 2025; count: 12; Peak date: Oct 17, 2025; Peak unique count: 12" role="graphics-symbol" aria-roledescription="point" transform="translate(1491,375.2727272727273)" d="M-5.916,0L0,-5.916L5.916,0L0,5.916Z" fill="#ff9900" stroke="#b36b00" stroke-width="1.5" opacity="0"/><path aria-label="date: Oct 18, 2025; count: 3; Peak date: Oct 18, 2025; Peak unique count: 3" role="graphics-symbol" aria-roledescription="point" transform="translate(1529.2307692307693,453.8181818181818)" d="M-5.916,0L0,-5.916L5.916,0L0,5.916Z" fill="#ff9900" stroke="#b36b00" stroke-width="1.5" opacity="0"/><path aria-label="date: Oct 19, 2025; count: 6; Peak date: Oct 19, 2025; Peak unique count: 6" role="graphics-symbol" aria-roledescription="point" transform="translate(1567.4615384615383,427.6363636363636)" d="M-5.916,0L0,-5.916L5.916,0L0,5.916Z" fill="#ff9900" stroke="#b36b00" stroke-width="1.5" opacity="0"/><path aria-label="date: Oct 20, 2025; count: 13; Peak date: Oct 20, 2025; Peak unique count: 13" role="graphics-symbol" aria-roledescription="point" transform="translate(1605.6923076923076,366.54545454545456)" d="M-5.916,0L0,-5.916L5.916,0L0,5.916Z" fill="#ff9900" stroke="#b36b00" stroke-width="1.5" opacity="0"/><path aria-label="date: Oct 21, 2025; count: 10; Peak date: Oct 21, 2025; Peak unique count: 10" role="graphics-symbol" aria-roledescription="point" transform="translate(1643.923076923077,392.7272727272727)" d="M-5.916,0L0,-5.916L5.916,0L0,5.916Z" fill="#ff9900" stroke="#b36b00" stroke-width="1.5" opacity="0"/><path aria-label="date: Oct 22, 2025; count: 17; Peak date: Oct 22, 2025; Peak unique count: 17" role="graphics-symbol" aria-roledescription="point" transform="translate(1682.1538461538462,331.6363636363636)" d="M-5.916,0L0,-5.916L5.916,0L0,5.916Z" fill="#ff9900" stroke="#b36b00" stroke-width="1.5" opacity="0"/><path aria-label="date: Oct 23, 2025; count: 12; Peak date: Oct 23, 2025; Peak unique count: 12" role="graphics-symbol" aria-roledescription="point" transform="translate(1720.3846153846155,375.2727272727273)" d="M-5.916,0L0,-5.916L5.916,0L0,5.916Z" fill="#ff9900" stroke="#b36b00" stroke-width="1.5" opacity="0"/><path aria-label="date: Oct 24, 2025; count: 13; Peak date: Oct 24, 2025; Peak unique count: 13" role="graphics-symbol" aria-roledescription="point" transform="translate(1758.6153846153845,366.54545454545456)" d="M-5.916,0L0,-5.916L5.916,0L0,5.916Z" fill="#ff9900" stroke="#b36b00" stroke-width="1.5" opacity="0"/><path aria-label="date: Oct 25, 2025; count: 15; Peak date: Oct 25, 2025; Peak unique count: 15" role="graphics-symbol" aria-roledescription="point" transform="translate(1796.8461538461538,349.0909090909091)" d="M-5.916,0L0,-5.916L5.916,0L0,5.916Z" fill="#ff9900" stroke="#b36b00" stroke-width="1.5" opacity="0"/><path aria-label="date: Oct 26, 2025; count: 10; Peak date: Oct 26, 2025; Peak unique count: 10" role="graphics-symbol" aria-roledescription="point" transform="translate(1835.076923076923,392.7272727272727)" d="M-5.916,0L0,-5.916L5.916,0L0,5.916Z" fill="#ff9900" stroke="#b36b00" stroke-width="1.5" opacity="0"/><path aria-label="date: Oct 27, 2025; count: 15; Peak date: Oct 27, 2025; Peak unique count: 15" role="graphics-symbol" aria-roledescription="point" transform="translate(1873.3076923076924,349.0909090909091)" d="M-5.916,0L0,-5.916L5.916,0L0,5.916Z" fill="#ff9900" stroke="#b36b00" stroke-width="1.5" opacity="0"/><path aria-label="date: Oct 28, 2025; count: 28; Peak date: Oct 28, 2025; Peak unique count: 28" role="graphics-symbol" aria-roledescription="point" transform="translate(1911.5384615384617,235.63636363636365)" d="M-5.916,0L0,-5.916L5.916,0L0,5.916Z" fill="#ff9900" stroke="#b36b00" stroke-width="1.5" opacity="0"/><path aria-label="date: Oct 29, 2025; count: 10; Peak date: Oct 29, 2025; Peak unique count: 10" role="graphics-symbol" aria-roledescription="point" transform="translate(1949.7692307692307,392.7272727272727)" d="M-5.916,0L0,-5.916L5.916,0L0,5.916Z" fill="#ff9900" stroke="#b36b00" stroke-width="1.5" opacity="0"/><path aria-label="date: Oct 30, 2025; count: 5; Peak date: Oct 30, 2025; Peak unique count: 5" role="graphics-symbol" aria-roledescription="point" transform="translate(1988,436.3636363636364)" d="M-5.916,0L0,-5.916L5.916,0L0,5.916Z" fill="#ff9900" stroke="#b36b00" stroke-width="1.5" opacity="0"/></g><g class="mark-rule role-mark layer_5_marks" role="graphics-symbol" aria-roledescription="rule mark container" pointer-events="none"><line transform="translate(1988,304.75636363636363)" x2="-1988" y2="0" stroke="#d62728" stroke-width="1.5" stroke-dasharray="4,4"/><line transform="translate(1988,304.75636363636363)" x2="-1988" y2="0" stroke="#d62728" stroke-width="1.5" stroke-dasharray="4,4"/><line transform="translate(1988,304.75636363636363)" x2="-1988" y2="0" stroke="#d62728" stroke-width="1.5" stroke-dasharray="4,4"/><line transform="translate(1988,304.75636363636363)" x2="-1988" y2="0" stroke="#d62728" stroke-width="1.5" stroke-dasharray="4,4"/><line transform="translate(1988,304.75636363636363)" x2="-1988" y2="0" stroke="#d62728" stroke-width="1.5" stroke-dasharray="4,4"/><line transform="translate(1988,304.75636363636363)" x2="-1988" y2="0" stroke="#d62728" stroke-width="1.5" stroke-dasharray="4,4"/><line transform="translate(1988,304.75636363636363)" x2="-1988" y2="0" stroke="#d62728" stroke-width="1.5" stroke-dasharray="4,4"/><line transform="translate(1988,304.75636363636363)" x2="-1988" y2="0" stroke="#d62728" stroke-width="1.5" stroke-dasharray="4,4"/><line transform="translate(1988,304.75636363636363)" x2="-1988" y2="0" stroke="#d62728" stroke-width="1.5" stroke-dasharray="4,4"/><line transform="translate(1988,304.75636363636363)" x2="-1988" y2="0" stroke="#d62728" stroke-width="1.5" stroke-dasharray="4,4"/><line transform="translate(1988,304.75636363636363)" x2="-1988" y2="0" stroke="#d62728" stroke-width="1.5" stroke-dasharray="4,4"/><line transform="translate(1988,304.75636363636363)" x2="-1988" y2="0" stroke="#d62728" stroke-width="1.5" stroke-dasharray="4,4"/><line transform="translate(1988,304.75636363636363)" x2="-1988" y2="0" stroke="#d62728" stroke-width="1.5" stroke-dasharray="4,4"/><line transform="translate(1988,304.75636363636363)" x2="-1988" y2="0" stroke="#d62728" stroke-width="1.5" stroke-dasharray="4,4"/><line transform="translate(1988,304.75636363636363)" x2="-1988" y2="0" stroke="#d62728" stroke-width="1.5" stroke-dasharray="4,4"/><line transform="translate(1988,304.75636363636363)" x2="-1988" y2="0" stroke="#d62728" stroke-width="1.5" stroke-dasharray="4,4"/><line transform="translate(1988,304.75636363636363)" x2="-1988" y2="0" stroke="#d62728" stroke-width="1.5" stroke-dasharray="4,4"/><line transform="translate(1988,304.75636363636363)" x2="-1988" y2="0" stroke="#d62728" stroke-width="1.5" stroke-dasharray="4,4"/><line transform="translate(1988,304.75636363636363)" x2="-1988" y2="0" stroke="#d62728" stroke-width="1.5" stroke-dasharray="4,4"/><line transform="translate(1988,304.75636363636363)" x2="-1988" y2="0" stroke="#d62728" stroke-width="1.5" stroke-dasharray="4,4"/><line transform="translate(1988,304.75636363636363)" x2="-1988" y2="0" stroke="#d62728" stroke-width="1.5" stroke-dasharray="4,4"/><line transform="translate(1988,304.75636363636363)" x2="-1988" y2="0" stroke="#d62728" stroke-width="1.5" stroke-dasharray="4,4"/><line transform="translate(1988,304.75636363636363)" x2="-1988" y2="0" stroke="#d62728" stroke-width="1.5" stroke-dasharray="4,4"/><line transform="translate(1988,304.75636363636363)" x2="-1988" y2="0" stroke="#d62728" stroke-width="1.5" stroke-dasharray="4,4"/><line transform="translate(1988,304.75636363636363)" x2="-1988" y2="0" stroke="#d62728" stroke-width="1.5" stroke-dasharray="4,4"/><line transform="translate(1988,304.75636363636363)" x2="-1988" y2="0" stroke="#d62728" stroke-width="1.5" stroke-dasharray="4,4"/><line transform="translate(1988,304.75636363636363)" x2="-1988" y2="0" stroke="#d62728" stroke-width="1.5" stroke-dasharray="4,4"/><line transform="translate(1988,304.75636363636363)" x2="-1988" y2="0" stroke="#d62728" stroke-width="1.5" stroke-dasharray="4,4"/><line transform="translate(1988,304.75636363636363)" x2="-1988" y2="0" stroke="#d62728" stroke-width="1.5" stroke-dasharray="4,4"/><line transform="translate(1988,304.75636363636363)" x2="-1988" y2="0" stroke="#d62728" stroke-width="1.5" stroke-dasharray="4,4"/><line transform="translate(1988,304.75636363636363)" x2="-1988" y2="0" stroke="#d62728" stroke-width="1.5" stroke-dasharray="4,4"/><line transform="translate(1988,304.75636363636363)" x2="-1988" y2="0" stroke="#d62728" stroke-width="1.5" stroke-dasharray="4,4"/><line transform="translate(1988,304.75636363636363)" x2="-1988" y2="0" stroke="#d62728" stroke-width="1.5" stroke-dasharray="4,4"/><line transform="translate(1988,304.75636363636363)" x2="-1988" y2="0" stroke="#d62728" stroke-width="1.5" stroke-dasharray="4,4"/><line transform="translate(1988,304.75636363636363)" x2="-1988" y2="0" stroke="#d62728" stroke-width="1.5" stroke-dasharray="4,4"/><line transform="translate(1988,304.75636363636363)" x2="-1988" y2="0" stroke="#d62728" stroke-width="1.5" stroke-dasharray="4,4"/><line transform="translate(1988,304.75636363636363)" x2="-1988" y2="0" stroke="#d62728" stroke-width="1.5" stroke-dasharray="4,4"/><line transform="translate(1988,304.75636363636363)" x2="-1988" y2="0" stroke="#d62728" stroke-width="1.5" stroke-dasharray="4,4"/><line transform="translate(1988,304.75636363636363)" x2="-1988" y2="0" stroke="#d62728" stroke-width="1.5" stroke-dasharray="4,4"/><line transform="translate(1988,304.75636363636363)" x2="-1988" y2="0" stroke="#d62728" stroke-width="1.5" stroke-dasharray="4,4"/><line transform="translate(1988,304.75636363636363)" x2="-1988" y2="0" stroke="#d62728" stroke-width="1.5" stroke-dasharray="4,4"/><line transform="translate(1988,304.75636363636363)" x2="-1988" y2="0" stroke="#d62728" stroke-width="1.5" stroke-dasharray="4,4"/><line transform="translate(1988,304.75636363636363)" x2="-1988" y2="0" stroke="#d62728" stroke-width="1.5" stroke-dasharray="4,4"/><line transform="translate(1988,304.75636363636363)" x2="-1988" y2="0" stroke="#d62728" stroke-width="1.5" stroke-dasharray="4,4"/><line transform="translate(1988,304.75636363636363)" x2="-1988" y2="0" stroke="#d62728" stroke-width="1.5" stroke-dasharray="4,4"/><line transform="translate(1988,304.75636363636363)" x2="-1988" y2="0" stroke="#d62728" stroke-width="1.5" stroke-dasharray="4,4"/><line transform="translate(1988,304.75636363636363)" x2="-1988" y2="0" stroke="#d62728" stroke-width="1.5" stroke-dasharray="4,4"/><line transform="translate(1988,304.75636363636363)" x2="-1988" y2="0" stroke="#d62728" stroke-width="1.5" stroke-dasharray="4,4"/><line transform="translate(1988,304.75636363636363)" x2="-1988" y2="0" stroke="#d62728" stroke-width="1.5" stroke-dasharray="4,4"/><line transform="translate(1988,304.75636363636363)" x2="-1988" y2="0" stroke="#d62728" stroke-width="1.5" stroke-dasharray="4,4"/><line transform="translate(1988,304.75636363636363)" x2="-1988" y2="0" stroke="#d62728" stroke-width="1.5" stroke-dasharray="4,4"/><line transform="translate(1988,304.75636363636363)" x2="-1988" y2="0" stroke="#d62728" stroke-width="1.5" stroke-dasharray="4,4"/><line transform="translate(1988,304.75636363636363)" x2="-1988" y2="0" stroke="#d62728" stroke-width="1.5" stroke-dasharray="4,4"/></g><g class="mark-text role-mark layer_6_marks" role="graphics-object" aria-roledescription="text mark container" pointer-events="none"><text aria-label="date: Oct 30, 2025" role="graphics-symbol" aria-roledescription="text mark" text-anchor="start" transform="translate(1994,302.75636363636363)" font-family="sans-serif" font-size="12px" fill="#d62728">Avg: 20.08</text></g></g><path class="foreground" aria-hidden="true" d="" display="none"/></g></g></g></svg>
