<svg xmlns="http://www.w3.org/2000/svg" xmlns:xlink="http://www.w3.org/1999/xlink" version="1.1" class="marks" width="2295" height="573" viewBox="0 0 2295 573"><rect width="2295" height="573" fill="white"/><g fill="none" stroke-miterlimit="10" transform="translate(51,11)"><g class="mark-group role-frame root" role="graphics-object" aria-roledescription="group mark container"><g transform="translate(0,0)"><path class="background" aria-hidden="true" d="M0.5,0.5h2168v480h-2168Z"/><g><g class="mark-group role-axis" aria-hidden="true"><g transform="translate(0.5,0.5)"><path class="background" aria-hidden="true" d="M0,0h0v0h0Z" pointer-events="none"/><g><g class="mark-rule role-axis-grid" pointer-events="none"><line transform="translate(0,480)" x2="2168" y2="0" stroke="#ddd" stroke-width="1" opacity="1"/><line transform="translate(0,436)" x2="2168" y2="0" stroke="#ddd" stroke-width="1" opacity="1"/><line transform="translate(0,393)" x2="2168" y2="0" stroke="#ddd" stroke-width="1" opacity="1"/><line transform="translate(0,349)" x2="2168" y2="0" stroke="#ddd" stroke-width="1" opacity="1"/><line transform="translate(0,305)" x2="2168" y2="0" stroke="#ddd" stroke-width="1" opacity="1"/><line transform="translate(0,262)" x2="2168" y2="0" stroke="#ddd" stroke-width="1" opacity="1"/><line transform="translate(0,218)" x2="2168" y2="0" stroke="#ddd" stroke-width="1" opacity="1"/><line transform="translate(0,175)" x2="2168" y2="0" stroke="#ddd" stroke-width="1" opacity="1"/><line transform="translate(0,131)" x2="2168" y2="0" stroke="#ddd" stroke-width="1" opacity="1"/><line transform="translate(0,87)" x2="2168" y2="0" stroke="#ddd" stroke-width="1" opacity="1"/><line transform="translate(0,44)" x2="2168" y2="0" stroke="#ddd" stroke-width="1" opacity="1"/><line transform="translate(0,0)" x2="2168" y2="0" stroke="#ddd" stroke-width="1" opacity="1"/></g></g><path class="foreground" aria-hidden="true" d="" pointer-events="none" display="none"/></g></g><g class="mark-group role-axis" role="graphics-symbol" aria-roledescription="axis" aria-label="X-axis titled 'Date' for a time scale with values from 2025-09-08 to 2025-11-04"><g transform="translate(0.5,480.5)"><path class="background" aria-hidden="true" d="M0,0h0v0h0Z" pointer-events="none"/><g><g class="mark-rule role-axis-tick" pointer-events="none"><line transform="translate(0,0)" x2="0" y2="5" stroke="#bbb" stroke-width="1" opacity="1"/><line transform="translate(38,0)" x2="0" y2="5" stroke="#bbb" stroke-width="1" opacity="1"/><line transform="translate(76,0)" x2="0" y2="5" stroke="#bbb" stroke-width="1" opacity="1"/><line transform="translate(114,0)" x2="0" y2="5" stroke="#bbb" stroke-width="1" opacity="1"/><line transform="translate(152,0)" x2="0" y2="5" stroke="#bbb" stroke-width="1" opacity="1"/><line transform="translate(190,0)" x2="0" y2="5" stroke="#bbb" stroke-width="1" opacity="1"/><line transform="translate(228,0)" x2="0" y2="5" stroke="#bbb" stroke-width="1" opacity="1"/><line transform="translate(266,0)" x2="0" y2="5" stroke="#bbb" stroke-width="1" opacity="1"/><line transform="translate(304,0)" x2="0" y2="5" stroke="#bbb" stroke-width="1" opacity="1"/><line transform="translate(342,0)" x2="0" y2="5" stroke="#bbb" stroke-width="1" opacity="1"/><line transform="translate(380,0)" x2="0" y2="5" stroke="#bbb" stroke-width="1" opacity="1"/><line transform="translate(418,0)" x2="0" y2="5" stroke="#bbb" stroke-width="1" opacity="1"/><line transform="translate(456,0)" x2="0" y2="5" stroke="#bbb" stroke-width="1" opacity="1"/><line transform="translate(494,0)" x2="0" y2="5" stroke="#bbb" stroke-width="1" opacity="1"/><line transform="translate(532,0)" x2="0" y2="5" stroke="#bbb" stroke-width="1" opacity="1"/><line transform="translate(571,0)" x2="0" y2="5" stroke="#bbb" stroke-width="1" opacity="1"/><line transform="translate(609,0)" x2="0" y2="5" stroke="#bbb" stroke-width="1" opacity="1"/><line transform="translate(647,0)" x2="0" y2="5" stroke="#bbb" stroke-width="1" opacity="1"/><line transform="translate(685,0)" x2="0" y2="5" stroke="#bbb" stroke-width="1" opacity="1"/><line transform="translate(723,0)" x2="0" y2="5" stroke="#bbb" stroke-width="1" opacity="1"/><line transform="translate(761,0)" x2="0" y2="5" stroke="#bbb" stroke-width="1" opacity="1"/><line transform="translate(799,0)" x2="0" y2="5" stroke="#bbb" stroke-width="1" opacity="1"/><line transform="translate(837,0)" x2="0" y2="5" stroke="#bbb" stroke-width="1" opacity="1"/><line transform="translate(875,0)" x2="0" y2="5" stroke="#bbb" stroke-width="1" opacity="1"/><line transform="translate(913,0)" x2="0" y2="5" stroke="#bbb" stroke-width="1" opacity="1"/><line transform="translate(951,0)" x2="0" y2="5" stroke="#bbb" stroke-width="1" opacity="1"/><line transform="translate(989,0)" x2="0" y2="5" stroke="#bbb" stroke-width="1" opacity="1"/><line transform="translate(1027,0)" x2="0" y2="5" stroke="#bbb" stroke-width="1" opacity="1"/><line transform="translate(1065,0)" x2="0" y2="5" stroke="#bbb" stroke-width="1" opacity="1"/><line transform="translate(1103,0)" x2="0" y2="5" stroke="#bbb" stroke-width="1" opacity="1"/><line transform="translate(1141,0)" x2="0" y2="5" stroke="#bbb" stroke-width="1" opacity="1"/><line transform="translate(1179,0)" x2="0" y2="5" stroke="#bbb" stroke-width="1" opacity="1"/><line transform="translate(1217,0)" x2="0" y2="5" stroke="#bbb" stroke-width="1" opacity="1"/><line transform="translate(1255,0)" x2="0" y2="5" stroke="#bbb" stroke-width="1" opacity="1"/><line transform="translate(1293,0)" x2="0" y2="5" stroke="#bbb" stroke-width="1" opacity="1"/><line transform="translate(1331,0)" x2="0" y2="5" stroke="#bbb" stroke-width="1" opacity="1"/><line transform="translate(1369,0)" x2="0" y2="5" stroke="#bbb" stroke-width="1" opacity="1"/><line transform="translate(1407,0)" x2="0" y2="5" stroke="#bbb" stroke-width="1" opacity="1"/><line transform="translate(1445,0)" x2="0" y2="5" stroke="#bbb" stroke-width="1" opacity="1"/><line transform="translate(1483,0)" x2="0" y2="5" stroke="#bbb" stroke-width="1" opacity="1"/><line transform="translate(1521,0)" x2="0" y2="5" stroke="#bbb" stroke-width="1" opacity="1"/><line transform="translate(1559,0)" x2="0" y2="5" stroke="#bbb" stroke-width="1" opacity="1"/><line transform="translate(1597,0)" x2="0" y2="5" stroke="#bbb" stroke-width="1" opacity="1"/><line transform="translate(1636,0)" x2="0" y2="5" stroke="#bbb" stroke-width="1" opacity="1"/><line transform="translate(1674,0)" x2="0" y2="5" stroke="#bbb" stroke-width="1" opacity="1"/><line transform="translate(1712,0)" x2="0" y2="5" stroke="#bbb" stroke-width="1" opacity="1"/><line transform="translate(1750,0)" x2="0" y2="5" stroke="#bbb" stroke-width="1" opacity="1"/><line transform="translate(1788,0)" x2="0" y2="5" stroke="#bbb" stroke-width="1" opacity="1"/><line transform="translate(1826,0)" x2="0" y2="5" stroke="#bbb" stroke-width="1" opacity="1"/><line transform="translate(1864,0)" x2="0" y2="5" stroke="#bbb" stroke-width="1" opacity="1"/><line transform="translate(1902,0)" x2="0" y2="5" stroke="#bbb" stroke-width="1" opacity="1"/><line transform="translate(1940,0)" x2="0" y2="5" stroke="#bbb" stroke-width="1" opacity="1"/><line transform="translate(1978,0)" x2="0" y2="5" stroke="#bbb" stroke-width="1" opacity="1"/><line transform="translate(2016,0)" x2="0" y2="5" stroke="#bbb" stroke-width="1" opacity="1"/><line transform="translate(2054,0)" x2="0" y2="5" stroke="#bbb" stroke-width="1" opacity="1"/><line transform="translate(2092,0)" x2="0" y2="5" stroke="#bbb" stroke-width="1" opacity="1"/><line transform="translate(2130,0)" x2="0" y2="5" stroke="#bbb" stroke-width="1" opacity="1"/><line transform="translate(2168,0)" x2="0" y2="5" stroke="#bbb" stroke-width="1" opacity="1"/></g><g class="mark-text role-axis-label" pointer-events="none"><text text-anchor="end" transform="translate(0,7) rotate(315) translate(0,9)" font-family="Segoe UI" font-size="11px" fill="#000" opacity="1">2025-09-08</text><text text-anchor="end" transform="translate(38.03508771929825,7) rotate(315) translate(0,9)" font-family="Segoe UI" font-size="11px" fill="#000" opacity="0">2025-09-09</text><text text-anchor="end" transform="translate(76.0701754385965,7) rotate(315) translate(0,9)" font-family="Segoe UI" font-size="11px" fill="#000" opacity="1">2025-09-10</text><text text-anchor="end" transform="translate(114.10526315789473,7) rotate(315) translate(0,9)" font-family="Segoe UI" font-size="11px" fill="#000" opacity="0">2025-09-11</text><text text-anchor="end" transform="translate(152.140350877193,7) rotate(315) translate(0,9)" font-family="Segoe UI" font-size="11px" fill="#000" opacity="1">2025-09-12</text><text text-anchor="end" transform="translate(190.1754385964912,7) rotate(315) translate(0,9)" font-family="Segoe UI" font-size="11px" fill="#000" opacity="0">2025-09-13</text><text text-anchor="end" transform="translate(228.21052631578945,7) rotate(315) translate(0,9)" font-family="Segoe UI" font-size="11px" fill="#000" opacity="1">2025-09-14</text><text text-anchor="end" transform="translate(266.2456140350877,7) rotate(315) translate(0,9)" font-family="Segoe UI" font-size="11px" fill="#000" opacity="0">2025-09-15</text><text text-anchor="end" transform="translate(304.280701754386,7) rotate(315) translate(0,9)" font-family="Segoe UI" font-size="11px" fill="#000" opacity="1">2025-09-16</text><text text-anchor="end" transform="translate(342.3157894736842,7) rotate(315) translate(0,9)" font-family="Segoe UI" font-size="11px" fill="#000" opacity="0">2025-09-17</text><text text-anchor="end" transform="translate(380.3508771929824,7) rotate(315) translate(0,9)" font-family="Segoe UI" font-size="11px" fill="#000" opacity="1">2025-09-18</text><text text-anchor="end" transform="translate(418.38596491228066,7) rotate(315) translate(0,9)" font-family="Segoe UI" font-size="11px" fill="#000" opacity="0">2025-09-19</text><text text-anchor="end" transform="translate(456.4210526315789,7) rotate(315) translate(0,9)" font-family="Segoe UI" font-size="11px" fill="#000" opacity="1">2025-09-20</text><text text-anchor="end" transform="translate(494.45614035087715,7) rotate(315) translate(0,9)" font-family="Segoe UI" font-size="11px" fill="#000" opacity="0">2025-09-21</text><text text-anchor="end" transform="translate(532.4912280701755,7) rotate(315) translate(0,9)" font-family="Segoe UI" font-size="11px" fill="#000" opacity="1">2025-09-22</text><text text-anchor="end" transform="translate(570.5263157894736,7) rotate(315) translate(0,9)" font-family="Segoe UI" font-size="11px" fill="#000" opacity="0">2025-09-23</text><text text-anchor="end" transform="translate(608.561403508772,7) rotate(315) translate(0,9)" font-family="Segoe UI" font-size="11px" fill="#000" opacity="1">2025-09-24</text><text text-anchor="end" transform="translate(646.5964912280701,7) rotate(315) translate(0,9)" font-family="Segoe UI" font-size="11px" fill="#000" opacity="0">2025-09-25</text><text text-anchor="end" transform="translate(684.6315789473684,7) rotate(315) translate(0,9)" font-family="Segoe UI" font-size="11px" fill="#000" opacity="1">2025-09-26</text><text text-anchor="end" transform="translate(722.6666666666666,7) rotate(315) translate(0,9)" font-family="Segoe UI" font-size="11px" fill="#000" opacity="0">2025-09-27</text><text text-anchor="end" transform="translate(760.7017543859648,7) rotate(315) translate(0,9)" font-family="Segoe UI" font-size="11px" fill="#000" opacity="1">2025-09-28</text><text text-anchor="end" transform="translate(798.7368421052631,7) rotate(315) translate(0,9)" font-family="Segoe UI" font-size="11px" fill="#000" opacity="0">2025-09-29</text><text text-anchor="end" transform="translate(836.7719298245613,7) rotate(315) translate(0,9)" font-family="Segoe UI" font-size="11px" fill="#000" opacity="1">2025-09-30</text><text text-anchor="end" transform="translate(874.8070175438596,7) rotate(315) translate(0,9)" font-family="Segoe UI" font-size="11px" fill="#000" opacity="0">2025-10-01</text><text text-anchor="end" transform="translate(912.8421052631578,7) rotate(315) translate(0,9)" font-family="Segoe UI" font-size="11px" fill="#000" opacity="1">2025-10-02</text><text text-anchor="end" transform="translate(950.8771929824561,7) rotate(315) translate(0,9)" font-family="Segoe UI" font-size="11px" fill="#000" opacity="0">2025-10-03</text><text text-anchor="end" transform="translate(988.9122807017543,7) rotate(315) translate(0,9)" font-family="Segoe UI" font-size="11px" fill="#000" opacity="1">2025-10-04</text><text text-anchor="end" transform="translate(1026.9473684210525,7) rotate(315) translate(0,9)" font-family="Segoe UI" font-size="11px" fill="#000" opacity="0">2025-10-05</text><text text-anchor="end" transform="translate(1064.982456140351,7) rotate(315) translate(0,9)" font-family="Segoe UI" font-size="11px" fill="#000" opacity="1">2025-10-06</text><text text-anchor="end" transform="translate(1103.017543859649,7) rotate(315) translate(0,9)" font-family="Segoe UI" font-size="11px" fill="#000" opacity="0">2025-10-07</text><text text-anchor="end" transform="translate(1141.0526315789473,7) rotate(315) translate(0,9)" font-family="Segoe UI" font-size="11px" fill="#000" opacity="1">2025-10-08</text><text text-anchor="end" transform="translate(1179.0877192982457,7) rotate(315) translate(0,9)" font-family="Segoe UI" font-size="11px" fill="#000" opacity="0">2025-10-09</text><text text-anchor="end" transform="translate(1217.122807017544,7) rotate(315) translate(0,9)" font-family="Segoe UI" font-size="11px" fill="#000" opacity="1">2025-10-10</text><text text-anchor="end" transform="translate(1255.157894736842,7) rotate(315) translate(0,9)" font-family="Segoe UI" font-size="11px" fill="#000" opacity="0">2025-10-11</text><text text-anchor="end" transform="translate(1293.1929824561403,7) rotate(315) translate(0,9)" font-family="Segoe UI" font-size="11px" fill="#000" opacity="1">2025-10-12</text><text text-anchor="end" transform="translate(1331.2280701754387,7) rotate(315) translate(0,9)" font-family="Segoe UI" font-size="11px" fill="#000" opacity="0">2025-10-13</text><text text-anchor="end" transform="translate(1369.2631578947369,7) rotate(315) translate(0,9)" font-family="Segoe UI" font-size="11px" fill="#000" opacity="1">2025-10-14</text><text text-anchor="end" transform="translate(1407.298245614035,7) rotate(315) translate(0,9)" font-family="Segoe UI" font-size="11px" fill="#000" opacity="0">2025-10-15</text><text text-anchor="end" transform="translate(1445.3333333333333,7) rotate(315) translate(0,9)" font-family="Segoe UI" font-size="11px" fill="#000" opacity="1">2025-10-16</text><text text-anchor="end" transform="translate(1483.3684210526317,7) rotate(315) translate(0,9)" font-family="Segoe UI" font-size="11px" fill="#000" opacity="0">2025-10-17</text><text text-anchor="end" transform="translate(1521.4035087719296,7) rotate(315) translate(0,9)" font-family="Segoe UI" font-size="11px" fill="#000" opacity="1">2025-10-18</text><text text-anchor="end" transform="translate(1559.438596491228,7) rotate(315) translate(0,9)" font-family="Segoe UI" font-size="11px" fill="#000" opacity="0">2025-10-19</text><text text-anchor="end" transform="translate(1597.4736842105262,7) rotate(315) translate(0,9)" font-family="Segoe UI" font-size="11px" fill="#000" opacity="1">2025-10-20</text><text text-anchor="end" transform="translate(1635.5087719298247,7) rotate(315) translate(0,9)" font-family="Segoe UI" font-size="11px" fill="#000" opacity="0">2025-10-21</text><text text-anchor="end" transform="translate(1673.5438596491226,7) rotate(315) translate(0,9)" font-family="Segoe UI" font-size="11px" fill="#000" opacity="1">2025-10-22</text><text text-anchor="end" transform="translate(1711.578947368421,7) rotate(315) translate(0,9)" font-family="Segoe UI" font-size="11px" fill="#000" opacity="0">2025-10-23</text><text text-anchor="end" transform="translate(1749.6140350877192,7) rotate(315) translate(0,9)" font-family="Segoe UI" font-size="11px" fill="#000" opacity="1">2025-10-24</text><text text-anchor="end" transform="translate(1787.6491228070176,7) rotate(315) translate(0,9)" font-family="Segoe UI" font-size="11px" fill="#000" opacity="0">2025-10-25</text><text text-anchor="end" transform="translate(1825.6842105263156,7) rotate(315) translate(0,9)" font-family="Segoe UI" font-size="11px" fill="#000" opacity="1">2025-10-26</text><text text-anchor="end" transform="translate(1863.719298245614,7) rotate(315) translate(0,9)" font-family="Segoe UI" font-size="11px" fill="#000" opacity="0">2025-10-27</text><text text-anchor="end" transform="translate(1901.7543859649122,7) rotate(315) translate(0,9)" font-family="Segoe UI" font-size="11px" fill="#000" opacity="1">2025-10-28</text><text text-anchor="end" transform="translate(1939.7894736842106,7) rotate(315) translate(0,9)" font-family="Segoe UI" font-size="11px" fill="#000" opacity="0">2025-10-29</text><text text-anchor="end" transform="translate(1977.8245614035086,7) rotate(315) translate(0,9)" font-family="Segoe UI" font-size="11px" fill="#000" opacity="1">2025-10-30</text><text text-anchor="end" transform="translate(2015.859649122807,7) rotate(315) translate(0,9)" font-family="Segoe UI" font-size="11px" fill="#000" opacity="0">2025-10-31</text><text text-anchor="end" transform="translate(2053.894736842105,7) rotate(315) translate(0,9)" font-family="Segoe UI" font-size="11px" fill="#000" opacity="1">2025-11-01</text><text text-anchor="end" transform="translate(2091.9298245614036,7) rotate(315) translate(0,9)" font-family="Segoe UI" font-size="11px" fill="#000" opacity="0">2025-11-02</text><text text-anchor="end" transform="translate(2129.964912280702,7) rotate(315) translate(0,9)" font-family="Segoe UI" font-size="11px" fill="#000" opacity="1">2025-11-03</text><text text-anchor="end" transform="translate(2168,7) rotate(315) translate(0,9)" font-family="Segoe UI" font-size="11px" fill="#000" opacity="0">2025-11-04</text></g><g class="mark-rule role-axis-domain" pointer-events="none"><line transform="translate(0,0)" x2="2168" y2="0" stroke="#888" stroke-width="1" opacity="1"/></g><g class="mark-text role-axis-title" pointer-events="none"><text text-anchor="middle" transform="translate(1084,73.9777658717112)" font-family="Segoe UI" font-size="13px" font-weight="bold" fill="#000" opacity="1">Date</text></g></g><path class="foreground" aria-hidden="true" d="" pointer-events="none" display="none"/></g></g><g class="mark-group role-axis" role="graphics-symbol" aria-roledescription="axis" aria-label="Y-axis titled 'Unique server names' for a linear scale with values from 0 to 55"><g transform="translate(0.5,0.5)"><path class="background" aria-hidden="true" d="M0,0h0v0h0Z" pointer-events="none"/><g><g class="mark-rule role-axis-tick" pointer-events="none"><line transform="translate(0,480)" x2="-5" y2="0" stroke="#bbb" stroke-width="1" opacity="1"/><line transform="translate(0,436)" x2="-5" y2="0" stroke="#bbb" stroke-width="1" opacity="1"/><line transform="translate(0,393)" x2="-5" y2="0" stroke="#bbb" stroke-width="1" opacity="1"/><line transform="translate(0,349)" x2="-5" y2="0" stroke="#bbb" stroke-width="1" opacity="1"/><line transform="translate(0,305)" x2="-5" y2="0" stroke="#bbb" stroke-width="1" opacity="1"/><line transform="translate(0,262)" x2="-5" y2="0" stroke="#bbb" stroke-width="1" opacity="1"/><line transform="translate(0,218)" x2="-5" y2="0" stroke="#bbb" stroke-width="1" opacity="1"/><line transform="translate(0,175)" x2="-5" y2="0" stroke="#bbb" stroke-width="1" opacity="1"/><line transform="translate(0,131)" x2="-5" y2="0" stroke="#bbb" stroke-width="1" opacity="1"/><line transform="translate(0,87)" x2="-5" y2="0" stroke="#bbb" stroke-width="1" opacity="1"/><line transform="translate(0,44)" x2="-5" y2="0" stroke="#bbb" stroke-width="1" opacity="1"/><line transform="translate(0,0)" x2="-5" y2="0" stroke="#bbb" stroke-width="1" opacity="1"/></g><g class="mark-text role-axis-label" pointer-events="none"><text text-anchor="end" transform="translate(-7,483)" font-family="Segoe UI" font-size="11px" fill="#000" opacity="1">0</text><text text-anchor="end" transform="translate(-7,439.3636363636364)" font-family="Segoe UI" font-size="11px" fill="#000" opacity="1">5</text><text text-anchor="end" transform="translate(-7,395.7272727272727)" font-family="Segoe UI" font-size="11px" fill="#000" opacity="1">10</text><text text-anchor="end" transform="translate(-7,352.0909090909091)" font-family="Segoe UI" font-size="11px" fill="#000" opacity="1">15</text><text text-anchor="end" transform="translate(-7,308.45454545454544)" font-family="Segoe UI" font-size="11px" fill="#000" opacity="1">20</text><text text-anchor="end" transform="translate(-7,264.8181818181818)" font-family="Segoe UI" font-size="11px" fill="#000" opacity="1">25</text><text text-anchor="end" transform="translate(-7,221.1818181818182)" font-family="Segoe UI" font-size="11px" fill="#000" opacity="1">30</text><text text-anchor="end" transform="translate(-7,177.54545454545456)" font-family="Segoe UI" font-size="11px" fill="#000" opacity="1">35</text><text text-anchor="end" transform="translate(-7,133.9090909090909)" font-family="Segoe UI" font-size="11px" fill="#000" opacity="1">40</text><text text-anchor="end" transform="translate(-7,90.27272727272725)" font-family="Segoe UI" font-size="11px" fill="#000" opacity="1">45</text><text text-anchor="end" transform="translate(-7,46.636363636363654)" font-family="Segoe UI" font-size="11px" fill="#000" opacity="1">50</text><text text-anchor="end" transform="translate(-7,3)" font-family="Segoe UI" font-size="11px" fill="#000" opacity="1">55</text></g><g class="mark-rule role-axis-domain" pointer-events="none"><line transform="translate(0,480)" x2="0" y2="-480" stroke="#888" stroke-width="1" opacity="1"/></g><g class="mark-text role-axis-title" pointer-events="none"><text text-anchor="middle" transform="translate(-24.99609375,240) rotate(-90) translate(0,-3)" font-family="Segoe UI" font-size="13px" font-weight="bold" fill="#000" opacity="1">Unique server names</text></g></g><path class="foreground" aria-hidden="true" d="" pointer-events="none" display="none"/></g></g><g class="mark-area role-mark layer_0_marks" role="graphics-object" aria-roledescription="area mark container" pointer-events="none"><path aria-label="date: 2025-09-08; count: 1" role="graphics-symbol" aria-roledescription="area mark" d="M0,471.273C12.678,240,25.357,8.727,38.035,8.727C50.713,8.727,63.392,17.455,76.07,34.909C88.749,52.364,101.427,142.545,114.105,165.818C126.784,189.091,139.462,177.455,152.14,200.727C164.819,224,177.497,293.818,190.175,305.455C202.854,317.091,215.532,322.909,228.211,322.909C240.889,322.909,253.567,273.455,266.246,261.818C278.924,250.182,291.602,256,304.281,244.364C316.959,232.727,329.637,151.273,342.316,139.636C354.994,128,367.673,122.182,380.351,122.182C393.029,122.182,405.708,212.364,418.386,235.636C431.064,258.909,443.743,251.636,456.421,270.545C469.099,289.455,481.778,349.091,494.456,349.091C507.135,349.091,519.813,343.273,532.491,340.364C545.17,337.455,557.848,334.545,570.526,331.636C583.205,328.727,595.883,322.909,608.561,322.909C621.24,322.909,633.918,384,646.596,384C659.275,384,671.953,261.818,684.632,261.818C697.31,261.818,709.988,418.909,722.667,418.909C735.345,418.909,748.023,398.545,760.702,357.818C773.38,317.091,786.058,148.364,798.737,148.364C811.415,148.364,824.094,202.182,836.772,244.364C849.45,286.545,862.129,401.455,874.807,401.455C887.485,401.455,900.164,165.818,912.842,165.818C925.52,165.818,938.199,253.091,950.877,253.091C963.556,253.091,976.234,253.091,988.912,253.091C1001.591,253.091,1014.269,340.364,1026.947,340.364C1039.626,340.364,1052.304,327.273,1064.982,305.455C1077.661,283.636,1090.339,209.455,1103.018,209.455C1115.696,209.455,1128.374,229.818,1141.053,253.091C1153.731,276.364,1166.409,349.091,1179.088,349.091C1191.766,349.091,1204.444,314.182,1217.123,314.182C1229.801,314.182,1242.48,401.455,1255.158,401.455C1267.836,401.455,1280.515,349.091,1293.193,349.091C1305.871,349.091,1318.55,349.091,1331.228,349.091C1343.906,349.091,1356.585,366.545,1369.263,366.545C1381.942,366.545,1394.62,314.182,1407.298,314.182C1419.977,314.182,1432.655,330.182,1445.333,340.364C1458.012,350.545,1470.69,356.364,1483.368,375.273C1496.047,394.182,1508.725,453.818,1521.404,453.818C1534.082,453.818,1546.76,442.182,1559.439,427.636C1572.117,413.091,1584.795,366.545,1597.474,366.545C1610.152,366.545,1622.83,392.727,1635.509,392.727C1648.187,392.727,1660.865,331.636,1673.544,331.636C1686.222,331.636,1698.901,375.273,1711.579,375.273C1724.257,375.273,1736.936,370.909,1749.614,366.545C1762.292,362.182,1774.971,349.091,1787.649,349.091C1800.327,349.091,1813.006,392.727,1825.684,392.727C1838.363,392.727,1851.041,375.273,1863.719,349.091C1876.398,322.909,1889.076,235.636,1901.754,235.636C1914.433,235.636,1927.111,392.727,1939.789,392.727C1952.468,392.727,1965.146,359.273,1977.825,349.091C1990.503,338.909,2003.181,331.636,2015.86,331.636C2028.538,331.636,2041.216,436.364,2053.895,436.364C2066.573,436.364,2079.251,386.909,2091.93,375.273C2104.608,363.636,2117.287,357.818,2129.965,357.818C2142.643,357.818,2155.322,384,2168,410.182L2168,480C2155.322,480,2142.643,480,2129.965,480C2117.287,480,2104.608,480,2091.93,480C2079.251,480,2066.573,480,2053.895,480C2041.216,480,2028.538,480,2015.86,480C2003.181,480,1990.503,480,1977.825,480C1965.146,480,1952.468,480,1939.789,480C1927.111,480,1914.433,480,1901.754,480C1889.076,480,1876.398,480,1863.719,480C1851.041,480,1838.363,480,1825.684,480C1813.006,480,1800.327,480,1787.649,480C1774.971,480,1762.292,480,1749.614,480C1736.936,480,1724.257,480,1711.579,480C1698.901,480,1686.222,480,1673.544,480C1660.865,480,1648.187,480,1635.509,480C1622.83,480,1610.152,480,1597.474,480C1584.795,480,1572.117,480,1559.439,480C1546.76,480,1534.082,480,1521.404,480C1508.725,480,1496.047,480,1483.368,480C1470.69,480,1458.012,480,1445.333,480C1432.655,480,1419.977,480,1407.298,480C1394.62,480,1381.942,480,1369.263,480C1356.585,480,1343.906,480,1331.228,480C1318.55,480,1305.871,480,1293.193,480C1280.515,480,1267.836,480,1255.158,480C1242.48,480,1229.801,480,1217.123,480C1204.444,480,1191.766,480,1179.088,480C1166.409,480,1153.731,480,1141.053,480C1128.374,480,1115.696,480,1103.018,480C1090.339,480,1077.661,480,1064.982,480C1052.304,480,1039.626,480,1026.947,480C1014.269,480,1001.591,480,988.912,480C976.234,480,963.556,480,950.877,480C938.199,480,925.52,480,912.842,480C900.164,480,887.485,480,874.807,480C862.129,480,849.45,480,836.772,480C824.094,480,811.415,480,798.737,480C786.058,480,773.38,480,760.702,480C748.023,480,735.345,480,722.667,480C709.988,480,697.31,480,684.632,480C671.953,480,659.275,480,646.596,480C633.918,480,621.24,480,608.561,480C595.883,480,583.205,480,570.526,480C557.848,480,545.17,480,532.491,480C519.813,480,507.135,480,494.456,480C481.778,480,469.099,480,456.421,480C443.743,480,431.064,480,418.386,480C405.708,480,393.029,480,380.351,480C367.673,480,354.994,480,342.316,480C329.637,480,316.959,480,304.281,480C291.602,480,278.924,480,266.246,480C253.567,480,240.889,480,228.211,480C215.532,480,202.854,480,190.175,480C177.497,480,164.819,480,152.14,480C139.462,480,126.784,480,114.105,480C101.427,480,88.749,480,76.07,480C63.392,480,50.713,480,38.035,480C25.357,480,12.678,480,0,480Z" fill="#4e79a7" opacity="0.18"/></g><g class="mark-line role-mark layer_1_marks" role="graphics-object" aria-roledescription="line mark container" pointer-events="none"><path aria-label="date: Sep 08, 2025; count: 1" role="graphics-symbol" aria-roledescription="line mark" d="M0,471.273C12.678,240,25.357,8.727,38.035,8.727C50.713,8.727,63.392,17.455,76.07,34.909C88.749,52.364,101.427,142.545,114.105,165.818C126.784,189.091,139.462,177.455,152.14,200.727C164.819,224,177.497,293.818,190.175,305.455C202.854,317.091,215.532,322.909,228.211,322.909C240.889,322.909,253.567,273.455,266.246,261.818C278.924,250.182,291.602,256,304.281,244.364C316.959,232.727,329.637,151.273,342.316,139.636C354.994,128,367.673,122.182,380.351,122.182C393.029,122.182,405.708,212.364,418.386,235.636C431.064,258.909,443.743,251.636,456.421,270.545C469.099,289.455,481.778,349.091,494.456,349.091C507.135,349.091,519.813,343.273,532.491,340.364C545.17,337.455,557.848,334.545,570.526,331.636C583.205,328.727,595.883,322.909,608.561,322.909C621.24,322.909,633.918,384,646.596,384C659.275,384,671.953,261.818,684.632,261.818C697.31,261.818,709.988,418.909,722.667,418.909C735.345,418.909,748.023,398.545,760.702,357.818C773.38,317.091,786.058,148.364,798.737,148.364C811.415,148.364,824.094,202.182,836.772,244.364C849.45,286.545,862.129,401.455,874.807,401.455C887.485,401.455,900.164,165.818,912.842,165.818C925.52,165.818,938.199,253.091,950.877,253.091C963.556,253.091,976.234,253.091,988.912,253.091C1001.591,253.091,1014.269,340.364,1026.947,340.364C1039.626,340.364,1052.304,327.273,1064.982,305.455C1077.661,283.636,1090.339,209.455,1103.018,209.455C1115.696,209.455,1128.374,229.818,1141.053,253.091C1153.731,276.364,1166.409,349.091,1179.088,349.091C1191.766,349.091,1204.444,314.182,1217.123,314.182C1229.801,314.182,1242.48,401.455,1255.158,401.455C1267.836,401.455,1280.515,349.091,1293.193,349.091C1305.871,349.091,1318.55,349.091,1331.228,349.091C1343.906,349.091,1356.585,366.545,1369.263,366.545C1381.942,366.545,1394.62,314.182,1407.298,314.182C1419.977,314.182,1432.655,330.182,1445.333,340.364C1458.012,350.545,1470.69,356.364,1483.368,375.273C1496.047,394.182,1508.725,453.818,1521.404,453.818C1534.082,453.818,1546.76,442.182,1559.439,427.636C1572.117,413.091,1584.795,366.545,1597.474,366.545C1610.152,366.545,1622.83,392.727,1635.509,392.727C1648.187,392.727,1660.865,331.636,1673.544,331.636C1686.222,331.636,1698.901,375.273,1711.579,375.273C1724.257,375.273,1736.936,370.909,1749.614,366.545C1762.292,362.182,1774.971,349.091,1787.649,349.091C1800.327,349.091,1813.006,392.727,1825.684,392.727C1838.363,392.727,1851.041,375.273,1863.719,349.091C1876.398,322.909,1889.076,235.636,1901.754,235.636C1914.433,235.636,1927.111,392.727,1939.789,392.727C1952.468,392.727,1965.146,359.273,1977.825,349.091C1990.503,338.909,2003.181,331.636,2015.86,331.636C2028.538,331.636,2041.216,436.364,2053.895,436.364C2066.573,436.364,2079.251,386.909,2091.93,375.273C2104.608,363.636,2117.287,357.818,2129.965,357.818C2142.643,357.818,2155.322,384,2168,410.182" stroke="#4e79a7" stroke-width="2"/></g><g class="mark-line role-mark layer_2_marks" role="graphics-object" aria-roledescription="line mark container" pointer-events="none"><path aria-label="date: Sep 08, 2025; ma7: 1" role="graphics-symbol" aria-roledescription="line mark" d="M0,471.273C12.678,378.424,25.357,285.576,38.035,240C50.713,194.424,63.392,172.606,76.07,171.636C88.749,170.667,101.427,170.182,114.105,170.182C126.784,170.182,139.462,172.218,152.14,176.291C164.819,180.364,177.497,191.252,190.175,197.818C202.854,204.384,215.532,215.688,228.211,215.688C240.889,215.688,253.567,185.766,266.246,185.766C278.924,185.766,291.602,211.325,304.281,219.429C316.959,227.532,329.637,234.39,342.316,234.39C354.994,234.39,367.673,228.156,380.351,228.156C393.029,228.156,405.708,233.143,418.386,233.143C431.064,233.143,443.743,228.156,456.421,228.156C469.099,228.156,481.778,229.403,494.456,231.896C507.135,234.39,519.813,239.169,532.491,243.117C545.17,247.065,557.848,249.143,570.526,255.584C583.205,262.026,595.883,271.169,608.561,281.766C621.24,292.364,633.918,316.675,646.596,319.169C659.275,321.662,671.953,320.416,684.632,322.909C697.31,325.403,709.988,343.273,722.667,344.104C735.345,344.935,748.023,345.351,760.702,345.351C773.38,345.351,786.058,324.571,798.737,317.922C811.415,311.273,824.094,305.455,836.772,305.455C849.45,305.455,862.129,316.675,874.807,316.675C887.485,316.675,900.164,286.338,912.842,285.506C925.52,284.675,938.199,285.091,950.877,284.26C963.556,283.429,976.234,262.234,988.912,260.571C1001.591,258.909,1014.269,258.078,1026.947,258.078C1039.626,258.078,1052.304,280.519,1064.982,280.519C1077.661,280.519,1090.339,278.857,1103.018,275.532C1115.696,272.208,1128.374,254.338,1141.053,254.338C1153.731,254.338,1166.409,274.701,1179.088,280.519C1191.766,286.338,1204.444,284.26,1217.123,289.247C1229.801,294.234,1242.48,309.61,1255.158,310.442C1267.836,311.273,1280.515,310.857,1293.193,311.688C1305.871,312.519,1318.55,313.766,1331.228,317.922C1343.906,322.078,1356.585,335.169,1369.263,340.364C1381.942,345.558,1394.62,349.091,1407.298,349.091C1419.977,349.091,1432.655,347.844,1445.333,347.844C1458.012,347.844,1470.69,353.87,1483.368,356.571C1496.047,359.273,1508.725,360.935,1521.404,364.052C1534.082,367.169,1546.76,373.61,1559.439,375.273C1572.117,376.935,1584.795,376.727,1597.474,377.766C1610.152,378.805,1622.83,380.468,1635.509,381.506C1648.187,382.545,1660.865,382.753,1673.544,384C1686.222,385.247,1698.901,388.987,1711.579,388.987C1724.257,388.987,1736.936,388.571,1749.614,387.74C1762.292,386.909,1774.971,376.104,1787.649,372.779C1800.327,369.455,1813.006,369.039,1825.684,367.792C1838.363,366.545,1851.041,366.961,1863.719,365.299C1876.398,363.636,1889.076,342.857,1901.754,342.857C1914.433,342.857,1927.111,351.584,1939.789,351.584C1952.468,351.584,1965.146,349.299,1977.825,347.844C1990.503,346.39,2003.181,342.857,2015.86,342.857C2028.538,342.857,2041.216,355.325,2053.895,355.325C2066.573,355.325,2079.251,352.831,2091.93,352.831C2104.608,352.831,2117.287,353.247,2129.965,354.078C2142.643,354.909,2155.322,366.961,2168,379.013" stroke="#d62728" stroke-width="2" stroke-dasharray="6,4"/></g><g class="mark-symbol role-mark layer_3_marks" role="graphics-object" aria-roledescription="symbol mark container"><path aria-label="date: Sep 08, 2025; count: 1; Date: Sep 08, 2025; Daily unique: 1; 7d avg: 1" role="graphics-symbol" aria-roledescription="point" transform="translate(0,471.27272727272725)" d="M3.536,0A3.536,3.536,0,1,1,-3.536,0A3.536,3.536,0,1,1,3.536,0" fill="#4e79a7" stroke-width="2" opacity="0.55"/><path aria-label="date: Sep 09, 2025; count: 54; Date: Sep 09, 2025; Daily unique: 54; 7d avg: 27.5" role="graphics-symbol" aria-roledescription="point" transform="translate(38.03508771929825,8.72727272727273)" d="M3.536,0A3.536,3.536,0,1,1,-3.536,0A3.536,3.536,0,1,1,3.536,0" fill="#4e79a7" stroke-width="2" opacity="0.55"/><path aria-label="date: Sep 10, 2025; count: 51; Date: Sep 10, 2025; Daily unique: 51; 7d avg: 35.3333333333" role="graphics-symbol" aria-roledescription="point" transform="translate(76.0701754385965,34.90909090909092)" d="M3.536,0A3.536,3.536,0,1,1,-3.536,0A3.536,3.536,0,1,1,3.536,0" fill="#4e79a7" stroke-width="2" opacity="0.55"/><path aria-label="date: Sep 11, 2025; count: 36; Date: Sep 11, 2025; Daily unique: 36; 7d avg: 35.5" role="graphics-symbol" aria-roledescription="point" transform="translate(114.10526315789473,165.8181818181818)" d="M3.536,0A3.536,3.536,0,1,1,-3.536,0A3.536,3.536,0,1,1,3.536,0" fill="#4e79a7" stroke-width="2" opacity="0.55"/><path aria-label="date: Sep 12, 2025; count: 32; Date: Sep 12, 2025; Daily unique: 32; 7d avg: 34.8" role="graphics-symbol" aria-roledescription="point" transform="translate(152.140350877193,200.72727272727275)" d="M3.536,0A3.536,3.536,0,1,1,-3.536,0A3.536,3.536,0,1,1,3.536,0" fill="#4e79a7" stroke-width="2" opacity="0.55"/><path aria-label="date: Sep 13, 2025; count: 20; Date: Sep 13, 2025; Daily unique: 20; 7d avg: 32.3333333333" role="graphics-symbol" aria-roledescription="point" transform="translate(190.1754385964912,305.45454545454544)" d="M3.536,0A3.536,3.536,0,1,1,-3.536,0A3.536,3.536,0,1,1,3.536,0" fill="#4e79a7" stroke-width="2" opacity="0.55"/><path aria-label="date: Sep 14, 2025; count: 18; Date: Sep 14, 2025; Daily unique: 18; 7d avg: 30.2857142857" role="graphics-symbol" aria-roledescription="point" transform="translate(228.21052631578945,322.90909090909093)" d="M3.536,0A3.536,3.536,0,1,1,-3.536,0A3.536,3.536,0,1,1,3.536,0" fill="#4e79a7" stroke-width="2" opacity="0.55"/><path aria-label="date: Sep 15, 2025; count: 25; Date: Sep 15, 2025; Daily unique: 25; 7d avg: 33.7142857143" role="graphics-symbol" aria-roledescription="point" transform="translate(266.2456140350877,261.8181818181818)" d="M3.536,0A3.536,3.536,0,1,1,-3.536,0A3.536,3.536,0,1,1,3.536,0" fill="#4e79a7" stroke-width="2" opacity="0.55"/><path aria-label="date: Sep 16, 2025; count: 27; Date: Sep 16, 2025; Daily unique: 27; 7d avg: 29.8571428571" role="graphics-symbol" aria-roledescription="point" transform="translate(304.280701754386,244.36363636363635)" d="M3.536,0A3.536,3.536,0,1,1,-3.536,0A3.536,3.536,0,1,1,3.536,0" fill="#4e79a7" stroke-width="2" opacity="0.55"/><path aria-label="date: Sep 17, 2025; count: 39; Date: Sep 17, 2025; Daily unique: 39; 7d avg: 28.1428571429" role="graphics-symbol" aria-roledescription="point" transform="translate(342.3157894736842,139.63636363636363)" d="M3.536,0A3.536,3.536,0,1,1,-3.536,0A3.536,3.536,0,1,1,3.536,0" fill="#4e79a7" stroke-width="2" opacity="0.55"/><path aria-label="date: Sep 18, 2025; count: 41; Date: Sep 18, 2025; Daily unique: 41; 7d avg: 28.8571428571" role="graphics-symbol" aria-roledescription="point" transform="translate(380.3508771929824,122.18181818181817)" d="M3.536,0A3.536,3.536,0,1,1,-3.536,0A3.536,3.536,0,1,1,3.536,0" fill="#4e79a7" stroke-width="2" opacity="0.55"/><path aria-label="date: Sep 19, 2025; count: 28; Date: Sep 19, 2025; Daily unique: 28; 7d avg: 28.2857142857" role="graphics-symbol" aria-roledescription="point" transform="translate(418.38596491228066,235.63636363636365)" d="M3.536,0A3.536,3.536,0,1,1,-3.536,0A3.536,3.536,0,1,1,3.536,0" fill="#4e79a7" stroke-width="2" opacity="0.55"/><path aria-label="date: Sep 20, 2025; count: 24; Date: Sep 20, 2025; Daily unique: 24; 7d avg: 28.8571428571" role="graphics-symbol" aria-roledescription="point" transform="translate(456.4210526315789,270.54545454545456)" d="M3.536,0A3.536,3.536,0,1,1,-3.536,0A3.536,3.536,0,1,1,3.536,0" fill="#4e79a7" stroke-width="2" opacity="0.55"/><path aria-label="date: Sep 21, 2025; count: 15; Date: Sep 21, 2025; Daily unique: 15; 7d avg: 28.4285714286" role="graphics-symbol" aria-roledescription="point" transform="translate(494.45614035087715,349.0909090909091)" d="M3.536,0A3.536,3.536,0,1,1,-3.536,0A3.536,3.536,0,1,1,3.536,0" fill="#4e79a7" stroke-width="2" opacity="0.55"/><path aria-label="date: Sep 22, 2025; count: 16; Date: Sep 22, 2025; Daily unique: 16; 7d avg: 27.1428571429" role="graphics-symbol" aria-roledescription="point" transform="translate(532.4912280701755,340.3636363636364)" d="M3.536,0A3.536,3.536,0,1,1,-3.536,0A3.536,3.536,0,1,1,3.536,0" fill="#4e79a7" stroke-width="2" opacity="0.55"/><path aria-label="date: Sep 23, 2025; count: 17; Date: Sep 23, 2025; Daily unique: 17; 7d avg: 25.7142857143" role="graphics-symbol" aria-roledescription="point" transform="translate(570.5263157894736,331.6363636363636)" d="M3.536,0A3.536,3.536,0,1,1,-3.536,0A3.536,3.536,0,1,1,3.536,0" fill="#4e79a7" stroke-width="2" opacity="0.55"/><path aria-label="date: Sep 24, 2025; count: 18; Date: Sep 24, 2025; Daily unique: 18; 7d avg: 22.7142857143" role="graphics-symbol" aria-roledescription="point" transform="translate(608.561403508772,322.90909090909093)" d="M3.536,0A3.536,3.536,0,1,1,-3.536,0A3.536,3.536,0,1,1,3.536,0" fill="#4e79a7" stroke-width="2" opacity="0.55"/><path aria-label="date: Sep 25, 2025; count: 11; Date: Sep 25, 2025; Daily unique: 11; 7d avg: 18.4285714286" role="graphics-symbol" aria-roledescription="point" transform="translate(646.5964912280701,384)" d="M3.536,0A3.536,3.536,0,1,1,-3.536,0A3.536,3.536,0,1,1,3.536,0" fill="#4e79a7" stroke-width="2" opacity="0.55"/><path aria-label="date: Sep 26, 2025; count: 25; Date: Sep 26, 2025; Daily unique: 25; 7d avg: 18" role="graphics-symbol" aria-roledescription="point" transform="translate(684.6315789473684,261.8181818181818)" d="M3.536,0A3.536,3.536,0,1,1,-3.536,0A3.536,3.536,0,1,1,3.536,0" fill="#4e79a7" stroke-width="2" opacity="0.55"/><path aria-label="date: Sep 27, 2025; count: 7; Date: Sep 27, 2025; Daily unique: 7; 7d avg: 15.5714285714" role="graphics-symbol" aria-roledescription="point" transform="translate(722.6666666666666,418.90909090909093)" d="M3.536,0A3.536,3.536,0,1,1,-3.536,0A3.536,3.536,0,1,1,3.536,0" fill="#4e79a7" stroke-width="2" opacity="0.55"/><path aria-label="date: Sep 28, 2025; count: 14; Date: Sep 28, 2025; Daily unique: 14; 7d avg: 15.4285714286" role="graphics-symbol" aria-roledescription="point" transform="translate(760.7017543859648,357.8181818181818)" d="M3.536,0A3.536,3.536,0,1,1,-3.536,0A3.536,3.536,0,1,1,3.536,0" fill="#4e79a7" stroke-width="2" opacity="0.55"/><path aria-label="date: Sep 29, 2025; count: 38; Date: Sep 29, 2025; Daily unique: 38; 7d avg: 18.5714285714" role="graphics-symbol" aria-roledescription="point" transform="translate(798.7368421052631,148.36363636363637)" d="M3.536,0A3.536,3.536,0,1,1,-3.536,0A3.536,3.536,0,1,1,3.536,0" fill="#4e79a7" stroke-width="2" opacity="0.55"/><path aria-label="date: Sep 30, 2025; count: 27; Date: Sep 30, 2025; Daily unique: 27; 7d avg: 20" role="graphics-symbol" aria-roledescription="point" transform="translate(836.7719298245613,244.36363636363635)" d="M3.536,0A3.536,3.536,0,1,1,-3.536,0A3.536,3.536,0,1,1,3.536,0" fill="#4e79a7" stroke-width="2" opacity="0.55"/><path aria-label="date: Oct 01, 2025; count: 9; Date: Oct 01, 2025; Daily unique: 9; 7d avg: 18.7142857143" role="graphics-symbol" aria-roledescription="point" transform="translate(874.8070175438596,401.4545454545455)" d="M3.536,0A3.536,3.536,0,1,1,-3.536,0A3.536,3.536,0,1,1,3.536,0" fill="#4e79a7" stroke-width="2" opacity="0.55"/><path aria-label="date: Oct 02, 2025; count: 36; Date: Oct 02, 2025; Daily unique: 36; 7d avg: 22.2857142857" role="graphics-symbol" aria-roledescription="point" transform="translate(912.8421052631578,165.8181818181818)" d="M3.536,0A3.536,3.536,0,1,1,-3.536,0A3.536,3.536,0,1,1,3.536,0" fill="#4e79a7" stroke-width="2" opacity="0.55"/><path aria-label="date: Oct 03, 2025; count: 26; Date: Oct 03, 2025; Daily unique: 26; 7d avg: 22.4285714286" role="graphics-symbol" aria-roledescription="point" transform="translate(950.8771929824561,253.09090909090912)" d="M3.536,0A3.536,3.536,0,1,1,-3.536,0A3.536,3.536,0,1,1,3.536,0" fill="#4e79a7" stroke-width="2" opacity="0.55"/><path aria-label="date: Oct 04, 2025; count: 26; Date: Oct 04, 2025; Daily unique: 26; 7d avg: 25.1428571429" role="graphics-symbol" aria-roledescription="point" transform="translate(988.9122807017543,253.09090909090912)" d="M3.536,0A3.536,3.536,0,1,1,-3.536,0A3.536,3.536,0,1,1,3.536,0" fill="#4e79a7" stroke-width="2" opacity="0.55"/><path aria-label="date: Oct 05, 2025; count: 16; Date: Oct 05, 2025; Daily unique: 16; 7d avg: 25.4285714286" role="graphics-symbol" aria-roledescription="point" transform="translate(1026.9473684210525,340.3636363636364)" d="M3.536,0A3.536,3.536,0,1,1,-3.536,0A3.536,3.536,0,1,1,3.536,0" fill="#4e79a7" stroke-width="2" opacity="0.55"/><path aria-label="date: Oct 06, 2025; count: 20; Date: Oct 06, 2025; Daily unique: 20; 7d avg: 22.8571428571" role="graphics-symbol" aria-roledescription="point" transform="translate(1064.982456140351,305.45454545454544)" d="M3.536,0A3.536,3.536,0,1,1,-3.536,0A3.536,3.536,0,1,1,3.536,0" fill="#4e79a7" stroke-width="2" opacity="0.55"/><path aria-label="date: Oct 07, 2025; count: 31; Date: Oct 07, 2025; Daily unique: 31; 7d avg: 23.4285714286" role="graphics-symbol" aria-roledescription="point" transform="translate(1103.017543859649,209.45454545454547)" d="M3.536,0A3.536,3.536,0,1,1,-3.536,0A3.536,3.536,0,1,1,3.536,0" fill="#4e79a7" stroke-width="2" opacity="0.55"/><path aria-label="date: Oct 08, 2025; count: 26; Date: Oct 08, 2025; Daily unique: 26; 7d avg: 25.8571428571" role="graphics-symbol" aria-roledescription="point" transform="translate(1141.0526315789473,253.09090909090912)" d="M3.536,0A3.536,3.536,0,1,1,-3.536,0A3.536,3.536,0,1,1,3.536,0" fill="#4e79a7" stroke-width="2" opacity="0.55"/><path aria-label="date: Oct 09, 2025; count: 15; Date: Oct 09, 2025; Daily unique: 15; 7d avg: 22.8571428571" role="graphics-symbol" aria-roledescription="point" transform="translate(1179.0877192982457,349.0909090909091)" d="M3.536,0A3.536,3.536,0,1,1,-3.536,0A3.536,3.536,0,1,1,3.536,0" fill="#4e79a7" stroke-width="2" opacity="0.55"/><path aria-label="date: Oct 10, 2025; count: 19; Date: Oct 10, 2025; Daily unique: 19; 7d avg: 21.8571428571" role="graphics-symbol" aria-roledescription="point" transform="translate(1217.122807017544,314.1818181818182)" d="M3.536,0A3.536,3.536,0,1,1,-3.536,0A3.536,3.536,0,1,1,3.536,0" fill="#4e79a7" stroke-width="2" opacity="0.55"/><path aria-label="date: Oct 11, 2025; count: 9; Date: Oct 11, 2025; Daily unique: 9; 7d avg: 19.4285714286" role="graphics-symbol" aria-roledescription="point" transform="translate(1255.157894736842,401.4545454545455)" d="M3.536,0A3.536,3.536,0,1,1,-3.536,0A3.536,3.536,0,1,1,3.536,0" fill="#4e79a7" stroke-width="2" opacity="0.55"/><path aria-label="date: Oct 12, 2025; count: 15; Date: Oct 12, 2025; Daily unique: 15; 7d avg: 19.2857142857" role="graphics-symbol" aria-roledescription="point" transform="translate(1293.1929824561403,349.0909090909091)" d="M3.536,0A3.536,3.536,0,1,1,-3.536,0A3.536,3.536,0,1,1,3.536,0" fill="#4e79a7" stroke-width="2" opacity="0.55"/><path aria-label="date: Oct 13, 2025; count: 15; Date: Oct 13, 2025; Daily unique: 15; 7d avg: 18.5714285714" role="graphics-symbol" aria-roledescription="point" transform="translate(1331.2280701754387,349.0909090909091)" d="M3.536,0A3.536,3.536,0,1,1,-3.536,0A3.536,3.536,0,1,1,3.536,0" fill="#4e79a7" stroke-width="2" opacity="0.55"/><path aria-label="date: Oct 14, 2025; count: 13; Date: Oct 14, 2025; Daily unique: 13; 7d avg: 16" role="graphics-symbol" aria-roledescription="point" transform="translate(1369.2631578947369,366.54545454545456)" d="M3.536,0A3.536,3.536,0,1,1,-3.536,0A3.536,3.536,0,1,1,3.536,0" fill="#4e79a7" stroke-width="2" opacity="0.55"/><path aria-label="date: Oct 15, 2025; count: 19; Date: Oct 15, 2025; Daily unique: 19; 7d avg: 15" role="graphics-symbol" aria-roledescription="point" transform="translate(1407.298245614035,314.1818181818182)" d="M3.536,0A3.536,3.536,0,1,1,-3.536,0A3.536,3.536,0,1,1,3.536,0" fill="#4e79a7" stroke-width="2" opacity="0.55"/><path aria-label="date: Oct 16, 2025; count: 16; Date: Oct 16, 2025; Daily unique: 16; 7d avg: 15.1428571429" role="graphics-symbol" aria-roledescription="point" transform="translate(1445.3333333333333,340.3636363636364)" d="M3.536,0A3.536,3.536,0,1,1,-3.536,0A3.536,3.536,0,1,1,3.536,0" fill="#4e79a7" stroke-width="2" opacity="0.55"/><path aria-label="date: Oct 17, 2025; count: 12; Date: Oct 17, 2025; Daily unique: 12; 7d avg: 14.1428571429" role="graphics-symbol" aria-roledescription="point" transform="translate(1483.3684210526317,375.2727272727273)" d="M3.536,0A3.536,3.536,0,1,1,-3.536,0A3.536,3.536,0,1,1,3.536,0" fill="#4e79a7" stroke-width="2" opacity="0.55"/><path aria-label="date: Oct 18, 2025; count: 3; Date: Oct 18, 2025; Daily unique: 3; 7d avg: 13.2857142857" role="graphics-symbol" aria-roledescription="point" transform="translate(1521.4035087719296,453.8181818181818)" d="M3.536,0A3.536,3.536,0,1,1,-3.536,0A3.536,3.536,0,1,1,3.536,0" fill="#4e79a7" stroke-width="2" opacity="0.55"/><path aria-label="date: Oct 19, 2025; count: 6; Date: Oct 19, 2025; Daily unique: 6; 7d avg: 12" role="graphics-symbol" aria-roledescription="point" transform="translate(1559.438596491228,427.6363636363636)" d="M3.536,0A3.536,3.536,0,1,1,-3.536,0A3.536,3.536,0,1,1,3.536,0" fill="#4e79a7" stroke-width="2" opacity="0.55"/><path aria-label="date: Oct 20, 2025; count: 13; Date: Oct 20, 2025; Daily unique: 13; 7d avg: 11.7142857143" role="graphics-symbol" aria-roledescription="point" transform="translate(1597.4736842105262,366.54545454545456)" d="M3.536,0A3.536,3.536,0,1,1,-3.536,0A3.536,3.536,0,1,1,3.536,0" fill="#4e79a7" stroke-width="2" opacity="0.55"/><path aria-label="date: Oct 21, 2025; count: 10; Date: Oct 21, 2025; Daily unique: 10; 7d avg: 11.2857142857" role="graphics-symbol" aria-roledescription="point" transform="translate(1635.5087719298247,392.7272727272727)" d="M3.536,0A3.536,3.536,0,1,1,-3.536,0A3.536,3.536,0,1,1,3.536,0" fill="#4e79a7" stroke-width="2" opacity="0.55"/><path aria-label="date: Oct 22, 2025; count: 17; Date: Oct 22, 2025; Daily unique: 17; 7d avg: 11" role="graphics-symbol" aria-roledescription="point" transform="translate(1673.5438596491226,331.6363636363636)" d="M3.536,0A3.536,3.536,0,1,1,-3.536,0A3.536,3.536,0,1,1,3.536,0" fill="#4e79a7" stroke-width="2" opacity="0.55"/><path aria-label="date: Oct 23, 2025; count: 12; Date: Oct 23, 2025; Daily unique: 12; 7d avg: 10.4285714286" role="graphics-symbol" aria-roledescription="point" transform="translate(1711.578947368421,375.2727272727273)" d="M3.536,0A3.536,3.536,0,1,1,-3.536,0A3.536,3.536,0,1,1,3.536,0" fill="#4e79a7" stroke-width="2" opacity="0.55"/><path aria-label="date: Oct 24, 2025; count: 13; Date: Oct 24, 2025; Daily unique: 13; 7d avg: 10.5714285714" role="graphics-symbol" aria-roledescription="point" transform="translate(1749.6140350877192,366.54545454545456)" d="M3.536,0A3.536,3.536,0,1,1,-3.536,0A3.536,3.536,0,1,1,3.536,0" fill="#4e79a7" stroke-width="2" opacity="0.55"/><path aria-label="date: Oct 25, 2025; count: 15; Date: Oct 25, 2025; Daily unique: 15; 7d avg: 12.2857142857" role="graphics-symbol" aria-roledescription="point" transform="translate(1787.6491228070176,349.0909090909091)" d="M3.536,0A3.536,3.536,0,1,1,-3.536,0A3.536,3.536,0,1,1,3.536,0" fill="#4e79a7" stroke-width="2" opacity="0.55"/><path aria-label="date: Oct 26, 2025; count: 10; Date: Oct 26, 2025; Daily unique: 10; 7d avg: 12.8571428571" role="graphics-symbol" aria-roledescription="point" transform="translate(1825.6842105263156,392.7272727272727)" d="M3.536,0A3.536,3.536,0,1,1,-3.536,0A3.536,3.536,0,1,1,3.536,0" fill="#4e79a7" stroke-width="2" opacity="0.55"/><path aria-label="date: Oct 27, 2025; count: 15; Date: Oct 27, 2025; Daily unique: 15; 7d avg: 13.1428571429" role="graphics-symbol" aria-roledescription="point" transform="translate(1863.719298245614,349.0909090909091)" d="M3.536,0A3.536,3.536,0,1,1,-3.536,0A3.536,3.536,0,1,1,3.536,0" fill="#4e79a7" stroke-width="2" opacity="0.55"/><path aria-label="date: Oct 28, 2025; count: 28; Date: Oct 28, 2025; Daily unique: 28; 7d avg: 15.7142857143" role="graphics-symbol" aria-roledescription="point" transform="translate(1901.7543859649122,235.63636363636365)" d="M3.536,0A3.536,3.536,0,1,1,-3.536,0A3.536,3.536,0,1,1,3.536,0" fill="#4e79a7" stroke-width="2" opacity="0.55"/><path aria-label="date: Oct 29, 2025; count: 10; Date: Oct 29, 2025; Daily unique: 10; 7d avg: 14.7142857143" role="graphics-symbol" aria-roledescription="point" transform="translate(1939.7894736842106,392.7272727272727)" d="M3.536,0A3.536,3.536,0,1,1,-3.536,0A3.536,3.536,0,1,1,3.536,0" fill="#4e79a7" stroke-width="2" opacity="0.55"/><path aria-label="date: Oct 30, 2025; count: 15; Date: Oct 30, 2025; Daily unique: 15; 7d avg: 15.1428571429" role="graphics-symbol" aria-roledescription="point" transform="translate(1977.8245614035086,349.0909090909091)" d="M3.536,0A3.536,3.536,0,1,1,-3.536,0A3.536,3.536,0,1,1,3.536,0" fill="#4e79a7" stroke-width="2" opacity="0.55"/><path aria-label="date: Oct 31, 2025; count: 17; Date: Oct 31, 2025; Daily unique: 17; 7d avg: 15.7142857143" role="graphics-symbol" aria-roledescription="point" transform="translate(2015.859649122807,331.6363636363636)" d="M3.536,0A3.536,3.536,0,1,1,-3.536,0A3.536,3.536,0,1,1,3.536,0" fill="#4e79a7" stroke-width="2" opacity="0.55"/><path aria-label="date: Nov 01, 2025; count: 5; Date: Nov 01, 2025; Daily unique: 5; 7d avg: 14.2857142857" role="graphics-symbol" aria-roledescription="point" transform="translate(2053.894736842105,436.3636363636364)" d="M3.536,0A3.536,3.536,0,1,1,-3.536,0A3.536,3.536,0,1,1,3.536,0" fill="#4e79a7" stroke-width="2" opacity="0.55"/><path aria-label="date: Nov 02, 2025; count: 12; Date: Nov 02, 2025; Daily unique: 12; 7d avg: 14.5714285714" role="graphics-symbol" aria-roledescription="point" transform="translate(2091.9298245614036,375.2727272727273)" d="M3.536,0A3.536,3.536,0,1,1,-3.536,0A3.536,3.536,0,1,1,3.536,0" fill="#4e79a7" stroke-width="2" opacity="0.55"/><path aria-label="date: Nov 03, 2025; count: 14; Date: Nov 03, 2025; Daily unique: 14; 7d avg: 14.4285714286" role="graphics-symbol" aria-roledescription="point" transform="translate(2129.964912280702,357.8181818181818)" d="M3.536,0A3.536,3.536,0,1,1,-3.536,0A3.536,3.536,0,1,1,3.536,0" fill="#4e79a7" stroke-width="2" opacity="0.55"/><path aria-label="date: Nov 04, 2025; count: 8; Date: Nov 04, 2025; Daily unique: 8; 7d avg: 11.5714285714" role="graphics-symbol" aria-roledescription="point" transform="translate(2168,410.18181818181813)" d="M3.536,0A3.536,3.536,0,1,1,-3.536,0A3.536,3.536,0,1,1,3.536,0" fill="#4e79a7" stroke-width="2" opacity="0.55"/></g><g class="mark-path role-mark layer_3_voronoi" aria-hidden="true"><path transform="translate(0,0)" d="M0,297.2329364080056L21.244751820973818,305.1691024704521L23.802857379640017,306.60764475877204L147.54262544890292,448.52371455504505L168.0059066271393,480L0,480Z" stroke-width="0.35"/><path transform="translate(0,0)" d="M72.07138672517652,0L0,104.70019679714969L0,0Z" stroke-width="0.35"/><path transform="translate(0,0)" d="M243.52156564752127,0L218.1025305489413,64.6221985138972L0,127.99097468995899L0,104.70019679714969L72.07138672517652,0Z" stroke-width="0.35"/><path transform="translate(0,0)" d="M220.760225238906,87.78766012437914L21.244751820973818,305.1691024704521L0,297.2329364080056L0,127.99097468995899L218.1025305489413,64.6221985138972Z" stroke-width="0.35"/><path transform="translate(0,0)" d="M244.76249815263566,164.83618197745628L203.87299866099113,241.20936367206306L23.802857379640017,306.60764475877204L21.244751820973818,305.1691024704521L220.760225238906,87.78766012437914L245.11550255325446,163.6054145876965Z" stroke-width="0.35"/><path transform="translate(0,0)" d="M225.43272683995508,278.7938956612395L147.54262544890292,448.52371455504505L23.802857379640017,306.60764475877204L203.87299866099113,241.20936367206306Z" stroke-width="0.35"/><path transform="translate(0,0)" d="M357.766359353175,372.27292692200956L347.1727927668887,480L168.0059066271393,480L147.54262544890292,448.52371455504505L225.43272683995508,278.7938956612395L325.70870162812116,341.2255332643145Z" stroke-width="0.35"/><path transform="translate(0,0)" d="M244.76249815263566,164.83618197745628L325.70870162812116,341.2255332643145L225.43272683995508,278.7938956612395L203.87299866099113,241.20936367206306Z" stroke-width="0.35"/><path transform="translate(0,0)" d="M361.87608116106463,364.81003662637175L357.766359353175,372.27292692200956L325.70870162812116,341.2255332643145L244.76249815263566,164.83618197745628L245.11550255325446,163.6054145876965L358.6439059742614,204.83691685353733L368.1091163760702,328.59039144911725Z" stroke-width="0.35"/><path transform="translate(0,0)" d="M301.25831274841664,0L385.49518490400214,183.56002623961996L358.6439059742614,204.83691685353733L245.11550255325446,163.6054145876965L220.760225238906,87.78766012437914L218.1025305489413,64.6221985138972L243.52156564752127,0Z" stroke-width="0.35"/><path transform="translate(0,0)" d="M552.6530259009999,127.5211683885122L385.49518490400214,183.56002623961996L301.25831274841664,0L598.0089761860883,0L594.4417737531464,57.0039644145199L564.9818850676211,121.19981834109257Z" stroke-width="0.35"/><path transform="translate(0,0)" d="M552.6530259009999,127.5211683885122L368.1091163760702,328.59039144911725L358.6439059742614,204.83691685353733L385.49518490400214,183.56002623961996Z" stroke-width="0.35"/><path transform="translate(0,0)" d="M562.5175555765998,209.4870365706928L534.4912436927762,261.8344273762557L502.46117296840646,296.73268791329735L361.87608116106463,364.81003662637175L368.1091163760702,328.59039144911725L552.6530259009999,127.5211683885122L564.9818850676211,121.19981834109257L567.7741198777799,194.21430929796583Z" stroke-width="0.35"/><path transform="translate(0,0)" d="M502.46117296840646,296.73268791329735L544.5031258577048,479.9593861048154L544.4938068693432,480L347.1727927668887,480L357.766359353175,372.27292692200956L361.87608116106463,364.81003662637175Z" stroke-width="0.35"/><path transform="translate(0,0)" d="M534.4912436927762,261.8344273762557L569.5266186111187,414.52514759786214L544.5031258577048,479.9593861048154L502.46117296840646,296.73268791329735Z" stroke-width="0.35"/><path transform="translate(0,0)" d="M562.5175555765998,209.4870365706928L599.5548099152152,370.9023219265602L569.5266186111187,414.52514759786214L534.4912436927762,261.8344273762557Z" stroke-width="0.35"/><path transform="translate(0,0)" d="M562.5175555765998,209.4870365706928L567.7741198777799,194.21430929796583L672.964821148864,325.1973838548169L599.5548099152152,370.9023219265602Z" stroke-width="0.35"/><path transform="translate(0,0)" d="M701.9824431215169,363.6453889464047L648.5865665964185,480L544.4938068693432,480L544.5031258577048,479.9593861048154L569.5266186111187,414.52514759786214L599.5548099152152,370.9023219265602L672.964821148864,325.1973838548169L694.713933182762,331.9678624443167Z" stroke-width="0.35"/><path transform="translate(0,0)" d="M763.4979470368867,277.4635707645865L694.713933182762,331.9678624443167L672.964821148864,325.1973838548169L567.7741198777799,194.21430929796583L564.9818850676211,121.19981834109257L594.4417737531464,57.0039644145199L756.9571384084966,220.45143473759634Z" stroke-width="0.35"/><path transform="translate(0,0)" d="M648.5865665964185,480L701.9824431215169,363.6453889464047L800.4298320722692,424.9385523679152L806.7468448499186,480Z" stroke-width="0.35"/><path transform="translate(0,0)" d="M837.7806607161241,327.2694118527122L800.4298320722692,424.9385523679152L701.9824431215169,363.6453889464047L694.713933182762,331.9678624443167L763.4979470368867,277.4635707645865Z" stroke-width="0.35"/><path transform="translate(0,0)" d="M879.8194819181771,0L851.8482674748032,182.8556803853024L756.9571384084966,220.45143473759634L594.4417737531464,57.0039644145199L598.0089761860883,0Z" stroke-width="0.35"/><path transform="translate(0,0)" d="M895.6203353055114,225.24831657872068L888.7614007004186,314.92587823565714L837.7806607161241,327.2694118527122L763.4979470368867,277.4635707645865L756.9571384084966,220.45143473759634L851.8482674748032,182.8556803853024Z" stroke-width="0.35"/><path transform="translate(0,0)" d="M938.6735507565794,340.5172300274383L994.6818954922911,480L806.7468448499186,480L800.4298320722692,424.9385523679152L837.7806607161241,327.2694118527122L888.7614007004186,314.92587823565714Z" stroke-width="0.35"/><path transform="translate(0,0)" d="M969.8947368421052,192.87814245875188L895.6203353055114,225.24831657872068L851.8482674748032,182.8556803853024L879.8194819181771,0L1050.983589313927,0L1015.9351678118782,152.74757967486502Z" stroke-width="0.35"/><path transform="translate(0,0)" d="M969.8947368421052,192.87814245875188L969.8947368421052,313.3036757230663L938.6735507565794,340.5172300274383L888.7614007004186,314.92587823565714L895.6203353055114,225.24831657872068Z" stroke-width="0.35"/><path transform="translate(0,0)" d="M1050.973382802864,244.36943834866273L1017.9334527652118,292.3675043536539L969.8947368421052,313.3036757230663L969.8947368421052,192.87814245875188L1015.9351678118782,152.74757967486502Z" stroke-width="0.35"/><path transform="translate(0,0)" d="M1017.9334527652118,292.3675043536539L1100.8394482880426,382.69746511884387L1095.257853700764,480L994.6818954922911,480L938.6735507565794,340.5172300274383L969.8947368421052,313.3036757230663Z" stroke-width="0.35"/><path transform="translate(0,0)" d="M1089.4983344809525,259.63297914509826L1127.0435582414607,314.1760161967919L1100.8394482880426,382.69746511884387L1017.9334527652118,292.3675043536539L1050.973382802864,244.36943834866273Z" stroke-width="0.35"/><path transform="translate(0,0)" d="M1089.4983344809525,259.63297914509826L1050.973382802864,244.36943834866273L1015.9351678118782,152.74757967486502L1050.983589313927,0L1345.270425614217,0L1327.2292814620184,52.417788223882894Z" stroke-width="0.35"/><path transform="translate(0,0)" d="M1089.4983344809525,259.63297914509826L1327.2292814620184,52.417788223882894L1312.2105263157894,117.87233367842754L1167.4035660547993,298.1854283058346L1127.0435582414607,314.1760161967919Z" stroke-width="0.35"/><path transform="translate(0,0)" d="M1127.0435582414607,314.1760161967919L1167.4035660547993,298.1854283058346L1226.1367226733848,362.17795019180056L1145.032782315644,480L1095.257853700764,480L1100.8394482880426,382.69746511884387Z" stroke-width="0.35"/><path transform="translate(0,0)" d="M1167.4035660547993,298.1854283058346L1312.2105263157894,117.87233367842754L1312.2105263157894,207.31334116791206L1244.8935255555252,354.0033844912654L1226.1367226733848,362.17795019180056Z" stroke-width="0.35"/><path transform="translate(0,0)" d="M1145.032782315644,480L1226.1367226733848,362.17795019180056L1244.8935255555252,354.0033844912654L1312.2105263157894,402.9000655990499L1322.6185597567155,418.0201180782899L1341.5805363795266,480Z" stroke-width="0.35"/><path transform="translate(0,0)" d="M1244.8935255555252,354.0033844912654L1312.2105263157894,207.31334116791206L1312.2105263157894,402.9000655990499Z" stroke-width="0.35"/><path transform="translate(0,0)" d="M1312.2105263157894,402.9000655990499L1312.2105263157894,207.31334116791203L1365.761888023404,324.00676898253084L1322.6185597567155,418.0201180782899Z" stroke-width="0.35"/><path transform="translate(0,0)" d="M1341.5805363795266,480L1322.6185597567155,418.0201180782899L1365.761888023404,324.00676898253084L1407.629924842093,354.4182255508817L1423.9503273280193,401.83647098026364L1419.92414692307,454.47701390637644L1405.2833196100555,480Z" stroke-width="0.35"/><path transform="translate(0,0)" d="M1327.2292814620184,52.417788223882894L1345.270425614217,0L1561.5903455995972,0L1552.1159486451209,144.51918219960254L1407.629924842093,354.4182255508817L1365.761888023404,324.00676898253084L1312.2105263157894,207.31334116791203L1312.2105263157894,117.87233367842754Z" stroke-width="0.35"/><path transform="translate(0,0)" d="M1407.629924842093,354.4182255508817L1552.1159486451209,144.51918219960254L1553.069262547582,169.4475045086986L1533.645269588842,282.31869945997346L1423.9503273280193,401.83647098026364Z" stroke-width="0.35"/><path transform="translate(0,0)" d="M1419.92414692307,454.47701390637644L1423.9503273280193,401.83647098026364L1533.645269588842,282.31869945997346L1540.6219239660861,373.53539550630967L1517.3954010701482,407.2772399277478Z" stroke-width="0.35"/><path transform="translate(0,0)" d="M1405.2833196100555,480L1419.92414692307,454.47701390637644L1517.3954010701482,407.2772399277478L1567.4548118947912,480Z" stroke-width="0.35"/><path transform="translate(0,0)" d="M1567.4548118947912,480L1517.3954010701482,407.2772399277478L1540.6219239660861,373.53539550630967L1596.6701988724976,408.4309484503391L1629.5136951891484,480Z" stroke-width="0.35"/><path transform="translate(0,0)" d="M1533.645269588842,282.31869945997346L1553.069262547582,169.4475045086986L1636.312257267853,350.8417788223883L1596.6701988724976,408.4309484503391L1540.6219239660861,373.53539550630967Z" stroke-width="0.35"/><path transform="translate(0,0)" d="M1629.5136951891484,480L1596.6701988724976,408.4309484503391L1636.312257267853,350.8417788223883L1670.8728232910864,372.3591237086158L1695.5713671969256,480Z" stroke-width="0.35"/><path transform="translate(0,0)" d="M1552.1159486451209,144.51918219960254L1561.5903455995972,0L1668.333456923086,0L1752.1740284962657,199.30521838887498L1738.1027624717308,291.2930342203192L1720.919808797914,328.73629803731365L1670.8728232910864,372.3591237086158L1636.312257267853,350.8417788223883L1553.069262547582,169.4475045086986Z" stroke-width="0.35"/><path transform="translate(0,0)" d="M1753.9465739154998,480L1695.5713671969256,480L1670.8728232910864,372.3591237086158L1720.919808797914,328.73629803731365L1754.6190442713473,475.60387252021576Z" stroke-width="0.35"/><path transform="translate(0,0)" d="M1754.6190442713473,475.60387252021576L1720.919808797914,328.73629803731365L1738.1027624717308,291.2930342203192L1783.7898197660904,390.84940687710764Z" stroke-width="0.35"/><path transform="translate(0,0)" d="M1738.1027624717308,291.2930342203192L1752.1740284962657,199.30521838887498L1825.6842105263158,273.23701752233615L1825.6842105263158,354.3326879132974L1783.7898197660904,390.84940687710764Z" stroke-width="0.35"/><path transform="translate(0,0)" d="M1753.9465739154998,480L1754.6190442713473,475.60387252021576L1783.7898197660904,390.84940687710764L1825.6842105263158,354.3326879132974L1882.7368421052631,404.06189690067833L1882.7368421052631,480Z" stroke-width="0.35"/><path transform="translate(0,0)" d="M1825.6842105263158,354.3326879132974L1825.6842105263158,273.23701752233615L1920.7719298245613,305.1147155911699L1920.7719298245613,337.7562849175039L1882.7368421052631,404.06189690067833Z" stroke-width="0.35"/><path transform="translate(0,0)" d="M2168,0L2168,12.560364227954096L2134.9758234902924,74.24273902459464L1966.5733920609682,274.40527813576534L1920.7719298245613,305.1147155911699L1825.6842105263158,273.23701752233615L1752.1740284962657,199.30521838887498L1668.333456923086,0Z" stroke-width="0.35"/><path transform="translate(0,0)" d="M1882.7368421052631,480L1882.7368421052631,404.06189690067833L1920.7719298245613,337.7562849175039L1999.8489626218577,406.682786311872L1971.8108466861092,480Z" stroke-width="0.35"/><path transform="translate(0,0)" d="M1920.7719298245613,305.1147155911699L1966.5733920609682,274.40527813576534L2019.439980818748,389.606521620372L1999.8489626218577,406.682786311872L1920.7719298245613,337.7562849175039Z" stroke-width="0.35"/><path transform="translate(0,0)" d="M2019.439980818748,389.606521620372L1966.5733920609682,274.40527813576534L2134.9758234902924,74.24273902459464L2082.2531421312474,304.01805062008214L2036.7664513265174,383.3138548825966Z" stroke-width="0.35"/><path transform="translate(0,0)" d="M1971.8108466861092,480L1999.8489626218577,406.682786311872L2019.439980818748,389.606521620372L2036.7664513265174,383.3138548825966L2112.614048106553,430.53642923541383L2123.9636228811178,480Z" stroke-width="0.35"/><path transform="translate(0,0)" d="M2036.7664513265174,383.3138548825966L2082.2531421312474,304.01805062008214L2126.4636424093687,400.35686738110553L2112.614048106553,430.53642923541383Z" stroke-width="0.35"/><path transform="translate(0,0)" d="M2168,370.1863308368385L2126.4636424093687,400.35686738110553L2082.2531421312474,304.01805062008214L2134.9758234902924,74.24273902459464L2168,12.560364227954096Z" stroke-width="0.35"/><path transform="translate(0,0)" d="M2168,480L2123.9636228811178,480L2112.614048106553,430.53642923541383L2126.4636424093687,400.35686738110553L2168,370.1863308368385Z" stroke-width="0.35"/></g><g class="mark-symbol role-mark layer_4_marks" role="graphics-object" aria-roledescription="symbol mark container"><path aria-label="date: Sep 08, 2025; count: 1; Peak date: Sep 08, 2025; Peak unique count: 1" role="graphics-symbol" aria-roledescription="point" transform="translate(0,471.27272727272725)" d="M-5.916,0L0,-5.916L5.916,0L0,5.916Z" fill="#ff9900" stroke="#b36b00" stroke-width="1.5" opacity="0"/><path aria-label="date: Sep 09, 2025; count: 54; Peak date: Sep 09, 2025; Peak unique count: 54" role="graphics-symbol" aria-roledescription="point" transform="translate(38.03508771929825,8.72727272727273)" d="M-5.916,0L0,-5.916L5.916,0L0,5.916Z" fill="#ff9900" stroke="#b36b00" stroke-width="1.5" opacity="1"/><path aria-label="date: Sep 10, 2025; count: 51; Peak date: Sep 10, 2025; Peak unique count: 51" role="graphics-symbol" aria-roledescription="point" transform="translate(76.0701754385965,34.90909090909092)" d="M-5.916,0L0,-5.916L5.916,0L0,5.916Z" fill="#ff9900" stroke="#b36b00" stroke-width="1.5" opacity="0"/><path aria-label="date: Sep 11, 2025; count: 36; Peak date: Sep 11, 2025; Peak unique count: 36" role="graphics-symbol" aria-roledescription="point" transform="translate(114.10526315789473,165.8181818181818)" d="M-5.916,0L0,-5.916L5.916,0L0,5.916Z" fill="#ff9900" stroke="#b36b00" stroke-width="1.5" opacity="0"/><path aria-label="date: Sep 12, 2025; count: 32; Peak date: Sep 12, 2025; Peak unique count: 32" role="graphics-symbol" aria-roledescription="point" transform="translate(152.140350877193,200.72727272727275)" d="M-5.916,0L0,-5.916L5.916,0L0,5.916Z" fill="#ff9900" stroke="#b36b00" stroke-width="1.5" opacity="0"/><path aria-label="date: Sep 13, 2025; count: 20; Peak date: Sep 13, 2025; Peak unique count: 20" role="graphics-symbol" aria-roledescription="point" transform="translate(190.1754385964912,305.45454545454544)" d="M-5.916,0L0,-5.916L5.916,0L0,5.916Z" fill="#ff9900" stroke="#b36b00" stroke-width="1.5" opacity="0"/><path aria-label="date: Sep 14, 2025; count: 18; Peak date: Sep 14, 2025; Peak unique count: 18" role="graphics-symbol" aria-roledescription="point" transform="translate(228.21052631578945,322.90909090909093)" d="M-5.916,0L0,-5.916L5.916,0L0,5.916Z" fill="#ff9900" stroke="#b36b00" stroke-width="1.5" opacity="0"/><path aria-label="date: Sep 15, 2025; count: 25; Peak date: Sep 15, 2025; Peak unique count: 25" role="graphics-symbol" aria-roledescription="point" transform="translate(266.2456140350877,261.8181818181818)" d="M-5.916,0L0,-5.916L5.916,0L0,5.916Z" fill="#ff9900" stroke="#b36b00" stroke-width="1.5" opacity="0"/><path aria-label="date: Sep 16, 2025; count: 27; Peak date: Sep 16, 2025; Peak unique count: 27" role="graphics-symbol" aria-roledescription="point" transform="translate(304.280701754386,244.36363636363635)" d="M-5.916,0L0,-5.916L5.916,0L0,5.916Z" fill="#ff9900" stroke="#b36b00" stroke-width="1.5" opacity="0"/><path aria-label="date: Sep 17, 2025; count: 39; Peak date: Sep 17, 2025; Peak unique count: 39" role="graphics-symbol" aria-roledescription="point" transform="translate(342.3157894736842,139.63636363636363)" d="M-5.916,0L0,-5.916L5.916,0L0,5.916Z" fill="#ff9900" stroke="#b36b00" stroke-width="1.5" opacity="0"/><path aria-label="date: Sep 18, 2025; count: 41; Peak date: Sep 18, 2025; Peak unique count: 41" role="graphics-symbol" aria-roledescription="point" transform="translate(380.3508771929824,122.18181818181817)" d="M-5.916,0L0,-5.916L5.916,0L0,5.916Z" fill="#ff9900" stroke="#b36b00" stroke-width="1.5" opacity="0"/><path aria-label="date: Sep 19, 2025; count: 28; Peak date: Sep 19, 2025; Peak unique count: 28" role="graphics-symbol" aria-roledescription="point" transform="translate(418.38596491228066,235.63636363636365)" d="M-5.916,0L0,-5.916L5.916,0L0,5.916Z" fill="#ff9900" stroke="#b36b00" stroke-width="1.5" opacity="0"/><path aria-label="date: Sep 20, 2025; count: 24; Peak date: Sep 20, 2025; Peak unique count: 24" role="graphics-symbol" aria-roledescription="point" transform="translate(456.4210526315789,270.54545454545456)" d="M-5.916,0L0,-5.916L5.916,0L0,5.916Z" fill="#ff9900" stroke="#b36b00" stroke-width="1.5" opacity="0"/><path aria-label="date: Sep 21, 2025; count: 15; Peak date: Sep 21, 2025; Peak unique count: 15" role="graphics-symbol" aria-roledescription="point" transform="translate(494.45614035087715,349.0909090909091)" d="M-5.916,0L0,-5.916L5.916,0L0,5.916Z" fill="#ff9900" stroke="#b36b00" stroke-width="1.5" opacity="0"/><path aria-label="date: Sep 22, 2025; count: 16; Peak date: Sep 22, 2025; Peak unique count: 16" role="graphics-symbol" aria-roledescription="point" transform="translate(532.4912280701755,340.3636363636364)" d="M-5.916,0L0,-5.916L5.916,0L0,5.916Z" fill="#ff9900" stroke="#b36b00" stroke-width="1.5" opacity="0"/><path aria-label="date: Sep 23, 2025; count: 17; Peak date: Sep 23, 2025; Peak unique count: 17" role="graphics-symbol" aria-roledescription="point" transform="translate(570.5263157894736,331.6363636363636)" d="M-5.916,0L0,-5.916L5.916,0L0,5.916Z" fill="#ff9900" stroke="#b36b00" stroke-width="1.5" opacity="0"/><path aria-label="date: Sep 24, 2025; count: 18; Peak date: Sep 24, 2025; Peak unique count: 18" role="graphics-symbol" aria-roledescription="point" transform="translate(608.561403508772,322.90909090909093)" d="M-5.916,0L0,-5.916L5.916,0L0,5.916Z" fill="#ff9900" stroke="#b36b00" stroke-width="1.5" opacity="0"/><path aria-label="date: Sep 25, 2025; count: 11; Peak date: Sep 25, 2025; Peak unique count: 11" role="graphics-symbol" aria-roledescription="point" transform="translate(646.5964912280701,384)" d="M-5.916,0L0,-5.916L5.916,0L0,5.916Z" fill="#ff9900" stroke="#b36b00" stroke-width="1.5" opacity="0"/><path aria-label="date: Sep 26, 2025; count: 25; Peak date: Sep 26, 2025; Peak unique count: 25" role="graphics-symbol" aria-roledescription="point" transform="translate(684.6315789473684,261.8181818181818)" d="M-5.916,0L0,-5.916L5.916,0L0,5.916Z" fill="#ff9900" stroke="#b36b00" stroke-width="1.5" opacity="0"/><path aria-label="date: Sep 27, 2025; count: 7; Peak date: Sep 27, 2025; Peak unique count: 7" role="graphics-symbol" aria-roledescription="point" transform="translate(722.6666666666666,418.90909090909093)" d="M-5.916,0L0,-5.916L5.916,0L0,5.916Z" fill="#ff9900" stroke="#b36b00" stroke-width="1.5" opacity="0"/><path aria-label="date: Sep 28, 2025; count: 14; Peak date: Sep 28, 2025; Peak unique count: 14" role="graphics-symbol" aria-roledescription="point" transform="translate(760.7017543859648,357.8181818181818)" d="M-5.916,0L0,-5.916L5.916,0L0,5.916Z" fill="#ff9900" stroke="#b36b00" stroke-width="1.5" opacity="0"/><path aria-label="date: Sep 29, 2025; count: 38; Peak date: Sep 29, 2025; Peak unique count: 38" role="graphics-symbol" aria-roledescription="point" transform="translate(798.7368421052631,148.36363636363637)" d="M-5.916,0L0,-5.916L5.916,0L0,5.916Z" fill="#ff9900" stroke="#b36b00" stroke-width="1.5" opacity="0"/><path aria-label="date: Sep 30, 2025; count: 27; Peak date: Sep 30, 2025; Peak unique count: 27" role="graphics-symbol" aria-roledescription="point" transform="translate(836.7719298245613,244.36363636363635)" d="M-5.916,0L0,-5.916L5.916,0L0,5.916Z" fill="#ff9900" stroke="#b36b00" stroke-width="1.5" opacity="0"/><path aria-label="date: Oct 01, 2025; count: 9; Peak date: Oct 01, 2025; Peak unique count: 9" role="graphics-symbol" aria-roledescription="point" transform="translate(874.8070175438596,401.4545454545455)" d="M-5.916,0L0,-5.916L5.916,0L0,5.916Z" fill="#ff9900" stroke="#b36b00" stroke-width="1.5" opacity="0"/><path aria-label="date: Oct 02, 2025; count: 36; Peak date: Oct 02, 2025; Peak unique count: 36" role="graphics-symbol" aria-roledescription="point" transform="translate(912.8421052631578,165.8181818181818)" d="M-5.916,0L0,-5.916L5.916,0L0,5.916Z" fill="#ff9900" stroke="#b36b00" stroke-width="1.5" opacity="0"/><path aria-label="date: Oct 03, 2025; count: 26; Peak date: Oct 03, 2025; Peak unique count: 26" role="graphics-symbol" aria-roledescription="point" transform="translate(950.8771929824561,253.09090909090912)" d="M-5.916,0L0,-5.916L5.916,0L0,5.916Z" fill="#ff9900" stroke="#b36b00" stroke-width="1.5" opacity="0"/><path aria-label="date: Oct 04, 2025; count: 26; Peak date: Oct 04, 2025; Peak unique count: 26" role="graphics-symbol" aria-roledescription="point" transform="translate(988.9122807017543,253.09090909090912)" d="M-5.916,0L0,-5.916L5.916,0L0,5.916Z" fill="#ff9900" stroke="#b36b00" stroke-width="1.5" opacity="0"/><path aria-label="date: Oct 05, 2025; count: 16; Peak date: Oct 05, 2025; Peak unique count: 16" role="graphics-symbol" aria-roledescription="point" transform="translate(1026.9473684210525,340.3636363636364)" d="M-5.916,0L0,-5.916L5.916,0L0,5.916Z" fill="#ff9900" stroke="#b36b00" stroke-width="1.5" opacity="0"/><path aria-label="date: Oct 06, 2025; count: 20; Peak date: Oct 06, 2025; Peak unique count: 20" role="graphics-symbol" aria-roledescription="point" transform="translate(1064.982456140351,305.45454545454544)" d="M-5.916,0L0,-5.916L5.916,0L0,5.916Z" fill="#ff9900" stroke="#b36b00" stroke-width="1.5" opacity="0"/><path aria-label="date: Oct 07, 2025; count: 31; Peak date: Oct 07, 2025; Peak unique count: 31" role="graphics-symbol" aria-roledescription="point" transform="translate(1103.017543859649,209.45454545454547)" d="M-5.916,0L0,-5.916L5.916,0L0,5.916Z" fill="#ff9900" stroke="#b36b00" stroke-width="1.5" opacity="0"/><path aria-label="date: Oct 08, 2025; count: 26; Peak date: Oct 08, 2025; Peak unique count: 26" role="graphics-symbol" aria-roledescription="point" transform="translate(1141.0526315789473,253.09090909090912)" d="M-5.916,0L0,-5.916L5.916,0L0,5.916Z" fill="#ff9900" stroke="#b36b00" stroke-width="1.5" opacity="0"/><path aria-label="date: Oct 09, 2025; count: 15; Peak date: Oct 09, 2025; Peak unique count: 15" role="graphics-symbol" aria-roledescription="point" transform="translate(1179.0877192982457,349.0909090909091)" d="M-5.916,0L0,-5.916L5.916,0L0,5.916Z" fill="#ff9900" stroke="#b36b00" stroke-width="1.5" opacity="0"/><path aria-label="date: Oct 10, 2025; count: 19; Peak date: Oct 10, 2025; Peak unique count: 19" role="graphics-symbol" aria-roledescription="point" transform="translate(1217.122807017544,314.1818181818182)" d="M-5.916,0L0,-5.916L5.916,0L0,5.916Z" fill="#ff9900" stroke="#b36b00" stroke-width="1.5" opacity="0"/><path aria-label="date: Oct 11, 2025; count: 9; Peak date: Oct 11, 2025; Peak unique count: 9" role="graphics-symbol" aria-roledescription="point" transform="translate(1255.157894736842,401.4545454545455)" d="M-5.916,0L0,-5.916L5.916,0L0,5.916Z" fill="#ff9900" stroke="#b36b00" stroke-width="1.5" opacity="0"/><path aria-label="date: Oct 12, 2025; count: 15; Peak date: Oct 12, 2025; Peak unique count: 15" role="graphics-symbol" aria-roledescription="point" transform="translate(1293.1929824561403,349.0909090909091)" d="M-5.916,0L0,-5.916L5.916,0L0,5.916Z" fill="#ff9900" stroke="#b36b00" stroke-width="1.5" opacity="0"/><path aria-label="date: Oct 13, 2025; count: 15; Peak date: Oct 13, 2025; Peak unique count: 15" role="graphics-symbol" aria-roledescription="point" transform="translate(1331.2280701754387,349.0909090909091)" d="M-5.916,0L0,-5.916L5.916,0L0,5.916Z" fill="#ff9900" stroke="#b36b00" stroke-width="1.5" opacity="0"/><path aria-label="date: Oct 14, 2025; count: 13; Peak date: Oct 14, 2025; Peak unique count: 13" role="graphics-symbol" aria-roledescription="point" transform="translate(1369.2631578947369,366.54545454545456)" d="M-5.916,0L0,-5.916L5.916,0L0,5.916Z" fill="#ff9900" stroke="#b36b00" stroke-width="1.5" opacity="0"/><path aria-label="date: Oct 15, 2025; count: 19; Peak date: Oct 15, 2025; Peak unique count: 19" role="graphics-symbol" aria-roledescription="point" transform="translate(1407.298245614035,314.1818181818182)" d="M-5.916,0L0,-5.916L5.916,0L0,5.916Z" fill="#ff9900" stroke="#b36b00" stroke-width="1.5" opacity="0"/><path aria-label="date: Oct 16, 2025; count: 16; Peak date: Oct 16, 2025; Peak unique count: 16" role="graphics-symbol" aria-roledescription="point" transform="translate(1445.3333333333333,340.3636363636364)" d="M-5.916,0L0,-5.916L5.916,0L0,5.916Z" fill="#ff9900" stroke="#b36b00" stroke-width="1.5" opacity="0"/><path aria-label="date: Oct 17, 2025; count: 12; Peak date: Oct 17, 2025; Peak unique count: 12" role="graphics-symbol" aria-roledescription="point" transform="translate(1483.3684210526317,375.2727272727273)" d="M-5.916,0L0,-5.916L5.916,0L0,5.916Z" fill="#ff9900" stroke="#b36b00" stroke-width="1.5" opacity="0"/><path aria-label="date: Oct 18, 2025; count: 3; Peak date: Oct 18, 2025; Peak unique count: 3" role="graphics-symbol" aria-roledescription="point" transform="translate(1521.4035087719296,453.8181818181818)" d="M-5.916,0L0,-5.916L5.916,0L0,5.916Z" fill="#ff9900" stroke="#b36b00" stroke-width="1.5" opacity="0"/><path aria-label="date: Oct 19, 2025; count: 6; Peak date: Oct 19, 2025; Peak unique count: 6" role="graphics-symbol" aria-roledescription="point" transform="translate(1559.438596491228,427.6363636363636)" d="M-5.916,0L0,-5.916L5.916,0L0,5.916Z" fill="#ff9900" stroke="#b36b00" stroke-width="1.5" opacity="0"/><path aria-label="date: Oct 20, 2025; count: 13; Peak date: Oct 20, 2025; Peak unique count: 13" role="graphics-symbol" aria-roledescription="point" transform="translate(1597.4736842105262,366.54545454545456)" d="M-5.916,0L0,-5.916L5.916,0L0,5.916Z" fill="#ff9900" stroke="#b36b00" stroke-width="1.5" opacity="0"/><path aria-label="date: Oct 21, 2025; count: 10; Peak date: Oct 21, 2025; Peak unique count: 10" role="graphics-symbol" aria-roledescription="point" transform="translate(1635.5087719298247,392.7272727272727)" d="M-5.916,0L0,-5.916L5.916,0L0,5.916Z" fill="#ff9900" stroke="#b36b00" stroke-width="1.5" opacity="0"/><path aria-label="date: Oct 22, 2025; count: 17; Peak date: Oct 22, 2025; Peak unique count: 17" role="graphics-symbol" aria-roledescription="point" transform="translate(1673.5438596491226,331.6363636363636)" d="M-5.916,0L0,-5.916L5.916,0L0,5.916Z" fill="#ff9900" stroke="#b36b00" stroke-width="1.5" opacity="0"/><path aria-label="date: Oct 23, 2025; count: 12; Peak date: Oct 23, 2025; Peak unique count: 12" role="graphics-symbol" aria-roledescription="point" transform="translate(1711.578947368421,375.2727272727273)" d="M-5.916,0L0,-5.916L5.916,0L0,5.916Z" fill="#ff9900" stroke="#b36b00" stroke-width="1.5" opacity="0"/><path aria-label="date: Oct 24, 2025; count: 13; Peak date: Oct 24, 2025; Peak unique count: 13" role="graphics-symbol" aria-roledescription="point" transform="translate(1749.6140350877192,366.54545454545456)" d="M-5.916,0L0,-5.916L5.916,0L0,5.916Z" fill="#ff9900" stroke="#b36b00" stroke-width="1.5" opacity="0"/><path aria-label="date: Oct 25, 2025; count: 15; Peak date: Oct 25, 2025; Peak unique count: 15" role="graphics-symbol" aria-roledescription="point" transform="translate(1787.6491228070176,349.0909090909091)" d="M-5.916,0L0,-5.916L5.916,0L0,5.916Z" fill="#ff9900" stroke="#b36b00" stroke-width="1.5" opacity="0"/><path aria-label="date: Oct 26, 2025; count: 10; Peak date: Oct 26, 2025; Peak unique count: 10" role="graphics-symbol" aria-roledescription="point" transform="translate(1825.6842105263156,392.7272727272727)" d="M-5.916,0L0,-5.916L5.916,0L0,5.916Z" fill="#ff9900" stroke="#b36b00" stroke-width="1.5" opacity="0"/><path aria-label="date: Oct 27, 2025; count: 15; Peak date: Oct 27, 2025; Peak unique count: 15" role="graphics-symbol" aria-roledescription="point" transform="translate(1863.719298245614,349.0909090909091)" d="M-5.916,0L0,-5.916L5.916,0L0,5.916Z" fill="#ff9900" stroke="#b36b00" stroke-width="1.5" opacity="0"/><path aria-label="date: Oct 28, 2025; count: 28; Peak date: Oct 28, 2025; Peak unique count: 28" role="graphics-symbol" aria-roledescription="point" transform="translate(1901.7543859649122,235.63636363636365)" d="M-5.916,0L0,-5.916L5.916,0L0,5.916Z" fill="#ff9900" stroke="#b36b00" stroke-width="1.5" opacity="0"/><path aria-label="date: Oct 29, 2025; count: 10; Peak date: Oct 29, 2025; Peak unique count: 10" role="graphics-symbol" aria-roledescription="point" transform="translate(1939.7894736842106,392.7272727272727)" d="M-5.916,0L0,-5.916L5.916,0L0,5.916Z" fill="#ff9900" stroke="#b36b00" stroke-width="1.5" opacity="0"/><path aria-label="date: Oct 30, 2025; count: 15; Peak date: Oct 30, 2025; Peak unique count: 15" role="graphics-symbol" aria-roledescription="point" transform="translate(1977.8245614035086,349.0909090909091)" d="M-5.916,0L0,-5.916L5.916,0L0,5.916Z" fill="#ff9900" stroke="#b36b00" stroke-width="1.5" opacity="0"/><path aria-label="date: Oct 31, 2025; count: 17; Peak date: Oct 31, 2025; Peak unique count: 17" role="graphics-symbol" aria-roledescription="point" transform="translate(2015.859649122807,331.6363636363636)" d="M-5.916,0L0,-5.916L5.916,0L0,5.916Z" fill="#ff9900" stroke="#b36b00" stroke-width="1.5" opacity="0"/><path aria-label="date: Nov 01, 2025; count: 5; Peak date: Nov 01, 2025; Peak unique count: 5" role="graphics-symbol" aria-roledescription="point" transform="translate(2053.894736842105,436.3636363636364)" d="M-5.916,0L0,-5.916L5.916,0L0,5.916Z" fill="#ff9900" stroke="#b36b00" stroke-width="1.5" opacity="0"/><path aria-label="date: Nov 02, 2025; count: 12; Peak date: Nov 02, 2025; Peak unique count: 12" role="graphics-symbol" aria-roledescription="point" transform="translate(2091.9298245614036,375.2727272727273)" d="M-5.916,0L0,-5.916L5.916,0L0,5.916Z" fill="#ff9900" stroke="#b36b00" stroke-width="1.5" opacity="0"/><path aria-label="date: Nov 03, 2025; count: 14; Peak date: Nov 03, 2025; Peak unique count: 14" role="graphics-symbol" aria-roledescription="point" transform="translate(2129.964912280702,357.8181818181818)" d="M-5.916,0L0,-5.916L5.916,0L0,5.916Z" fill="#ff9900" stroke="#b36b00" stroke-width="1.5" opacity="0"/><path aria-label="date: Nov 04, 2025; count: 8; Peak date: Nov 04, 2025; Peak unique count: 8" role="graphics-symbol" aria-roledescription="point" transform="translate(2168,410.18181818181813)" d="M-5.916,0L0,-5.916L5.916,0L0,5.916Z" fill="#ff9900" stroke="#b36b00" stroke-width="1.5" opacity="0"/></g><g class="mark-rule role-mark layer_5_marks" role="graphics-symbol" aria-roledescription="rule mark container" pointer-events="none"><line transform="translate(2168,309.9927272727273)" x2="-2168" y2="0" stroke="#d62728" stroke-width="1.5" stroke-dasharray="4,4"/><line transform="translate(2168,309.9927272727273)" x2="-2168" y2="0" stroke="#d62728" stroke-width="1.5" stroke-dasharray="4,4"/><line transform="translate(2168,309.9927272727273)" x2="-2168" y2="0" stroke="#d62728" stroke-width="1.5" stroke-dasharray="4,4"/><line transform="translate(2168,309.9927272727273)" x2="-2168" y2="0" stroke="#d62728" stroke-width="1.5" stroke-dasharray="4,4"/><line transform="translate(2168,309.9927272727273)" x2="-2168" y2="0" stroke="#d62728" stroke-width="1.5" stroke-dasharray="4,4"/><line transform="translate(2168,309.9927272727273)" x2="-2168" y2="0" stroke="#d62728" stroke-width="1.5" stroke-dasharray="4,4"/><line transform="translate(2168,309.9927272727273)" x2="-2168" y2="0" stroke="#d62728" stroke-width="1.5" stroke-dasharray="4,4"/><line transform="translate(2168,309.9927272727273)" x2="-2168" y2="0" stroke="#d62728" stroke-width="1.5" stroke-dasharray="4,4"/><line transform="translate(2168,309.9927272727273)" x2="-2168" y2="0" stroke="#d62728" stroke-width="1.5" stroke-dasharray="4,4"/><line transform="translate(2168,309.9927272727273)" x2="-2168" y2="0" stroke="#d62728" stroke-width="1.5" stroke-dasharray="4,4"/><line transform="translate(2168,309.9927272727273)" x2="-2168" y2="0" stroke="#d62728" stroke-width="1.5" stroke-dasharray="4,4"/><line transform="translate(2168,309.9927272727273)" x2="-2168" y2="0" stroke="#d62728" stroke-width="1.5" stroke-dasharray="4,4"/><line transform="translate(2168,309.9927272727273)" x2="-2168" y2="0" stroke="#d62728" stroke-width="1.5" stroke-dasharray="4,4"/><line transform="translate(2168,309.9927272727273)" x2="-2168" y2="0" stroke="#d62728" stroke-width="1.5" stroke-dasharray="4,4"/><line transform="translate(2168,309.9927272727273)" x2="-2168" y2="0" stroke="#d62728" stroke-width="1.5" stroke-dasharray="4,4"/><line transform="translate(2168,309.9927272727273)" x2="-2168" y2="0" stroke="#d62728" stroke-width="1.5" stroke-dasharray="4,4"/><line transform="translate(2168,309.9927272727273)" x2="-2168" y2="0" stroke="#d62728" stroke-width="1.5" stroke-dasharray="4,4"/><line transform="translate(2168,309.9927272727273)" x2="-2168" y2="0" stroke="#d62728" stroke-width="1.5" stroke-dasharray="4,4"/><line transform="translate(2168,309.9927272727273)" x2="-2168" y2="0" stroke="#d62728" stroke-width="1.5" stroke-dasharray="4,4"/><line transform="translate(2168,309.9927272727273)" x2="-2168" y2="0" stroke="#d62728" stroke-width="1.5" stroke-dasharray="4,4"/><line transform="translate(2168,309.9927272727273)" x2="-2168" y2="0" stroke="#d62728" stroke-width="1.5" stroke-dasharray="4,4"/><line transform="translate(2168,309.9927272727273)" x2="-2168" y2="0" stroke="#d62728" stroke-width="1.5" stroke-dasharray="4,4"/><line transform="translate(2168,309.9927272727273)" x2="-2168" y2="0" stroke="#d62728" stroke-width="1.5" stroke-dasharray="4,4"/><line transform="translate(2168,309.9927272727273)" x2="-2168" y2="0" stroke="#d62728" stroke-width="1.5" stroke-dasharray="4,4"/><line transform="translate(2168,309.9927272727273)" x2="-2168" y2="0" stroke="#d62728" stroke-width="1.5" stroke-dasharray="4,4"/><line transform="translate(2168,309.9927272727273)" x2="-2168" y2="0" stroke="#d62728" stroke-width="1.5" stroke-dasharray="4,4"/><line transform="translate(2168,309.9927272727273)" x2="-2168" y2="0" stroke="#d62728" stroke-width="1.5" stroke-dasharray="4,4"/><line transform="translate(2168,309.9927272727273)" x2="-2168" y2="0" stroke="#d62728" stroke-width="1.5" stroke-dasharray="4,4"/><line transform="translate(2168,309.9927272727273)" x2="-2168" y2="0" stroke="#d62728" stroke-width="1.5" stroke-dasharray="4,4"/><line transform="translate(2168,309.9927272727273)" x2="-2168" y2="0" stroke="#d62728" stroke-width="1.5" stroke-dasharray="4,4"/><line transform="translate(2168,309.9927272727273)" x2="-2168" y2="0" stroke="#d62728" stroke-width="1.5" stroke-dasharray="4,4"/><line transform="translate(2168,309.9927272727273)" x2="-2168" y2="0" stroke="#d62728" stroke-width="1.5" stroke-dasharray="4,4"/><line transform="translate(2168,309.9927272727273)" x2="-2168" y2="0" stroke="#d62728" stroke-width="1.5" stroke-dasharray="4,4"/><line transform="translate(2168,309.9927272727273)" x2="-2168" y2="0" stroke="#d62728" stroke-width="1.5" stroke-dasharray="4,4"/><line transform="translate(2168,309.9927272727273)" x2="-2168" y2="0" stroke="#d62728" stroke-width="1.5" stroke-dasharray="4,4"/><line transform="translate(2168,309.9927272727273)" x2="-2168" y2="0" stroke="#d62728" stroke-width="1.5" stroke-dasharray="4,4"/><line transform="translate(2168,309.9927272727273)" x2="-2168" y2="0" stroke="#d62728" stroke-width="1.5" stroke-dasharray="4,4"/><line transform="translate(2168,309.9927272727273)" x2="-2168" y2="0" stroke="#d62728" stroke-width="1.5" stroke-dasharray="4,4"/><line transform="translate(2168,309.9927272727273)" x2="-2168" y2="0" stroke="#d62728" stroke-width="1.5" stroke-dasharray="4,4"/><line transform="translate(2168,309.9927272727273)" x2="-2168" y2="0" stroke="#d62728" stroke-width="1.5" stroke-dasharray="4,4"/><line transform="translate(2168,309.9927272727273)" x2="-2168" y2="0" stroke="#d62728" stroke-width="1.5" stroke-dasharray="4,4"/><line transform="translate(2168,309.9927272727273)" x2="-2168" y2="0" stroke="#d62728" stroke-width="1.5" stroke-dasharray="4,4"/><line transform="translate(2168,309.9927272727273)" x2="-2168" y2="0" stroke="#d62728" stroke-width="1.5" stroke-dasharray="4,4"/><line transform="translate(2168,309.9927272727273)" x2="-2168" y2="0" stroke="#d62728" stroke-width="1.5" stroke-dasharray="4,4"/><line transform="translate(2168,309.9927272727273)" x2="-2168" y2="0" stroke="#d62728" stroke-width="1.5" stroke-dasharray="4,4"/><line transform="translate(2168,309.9927272727273)" x2="-2168" y2="0" stroke="#d62728" stroke-width="1.5" stroke-dasharray="4,4"/><line transform="translate(2168,309.9927272727273)" x2="-2168" y2="0" stroke="#d62728" stroke-width="1.5" stroke-dasharray="4,4"/><line transform="translate(2168,309.9927272727273)" x2="-2168" y2="0" stroke="#d62728" stroke-width="1.5" stroke-dasharray="4,4"/><line transform="translate(2168,309.9927272727273)" x2="-2168" y2="0" stroke="#d62728" stroke-width="1.5" stroke-dasharray="4,4"/><line transform="translate(2168,309.9927272727273)" x2="-2168" y2="0" stroke="#d62728" stroke-width="1.5" stroke-dasharray="4,4"/><line transform="translate(2168,309.9927272727273)" x2="-2168" y2="0" stroke="#d62728" stroke-width="1.5" stroke-dasharray="4,4"/><line transform="translate(2168,309.9927272727273)" x2="-2168" y2="0" stroke="#d62728" stroke-width="1.5" stroke-dasharray="4,4"/><line transform="translate(2168,309.9927272727273)" x2="-2168" y2="0" stroke="#d62728" stroke-width="1.5" stroke-dasharray="4,4"/><line transform="translate(2168,309.9927272727273)" x2="-2168" y2="0" stroke="#d62728" stroke-width="1.5" stroke-dasharray="4,4"/><line transform="translate(2168,309.9927272727273)" x2="-2168" y2="0" stroke="#d62728" stroke-width="1.5" stroke-dasharray="4,4"/><line transform="translate(2168,309.9927272727273)" x2="-2168" y2="0" stroke="#d62728" stroke-width="1.5" stroke-dasharray="4,4"/><line transform="translate(2168,309.9927272727273)" x2="-2168" y2="0" stroke="#d62728" stroke-width="1.5" stroke-dasharray="4,4"/><line transform="translate(2168,309.9927272727273)" x2="-2168" y2="0" stroke="#d62728" stroke-width="1.5" stroke-dasharray="4,4"/></g><g class="mark-text role-mark layer_6_marks" role="graphics-object" aria-roledescription="text mark container" pointer-events="none"><text aria-label="date: Nov 04, 2025" role="graphics-symbol" aria-roledescription="text mark" text-anchor="start" transform="translate(2174,307.9927272727273)" font-family="sans-serif" font-size="12px" fill="#d62728">Avg: 19.48</text></g></g><path class="foreground" aria-hidden="true" d="" display="none"/></g></g></g></svg>
