<svg xmlns="http://www.w3.org/2000/svg" xmlns:xlink="http://www.w3.org/1999/xlink" version="1.1" class="marks" width="965" height="591" viewBox="0 0 965 591"><rect width="965" height="591" fill="white"/><g fill="none" stroke-miterlimit="10" transform="translate(68,11)"><g class="mark-group role-frame root" role="graphics-object" aria-roledescription="group mark container"><g transform="translate(0,0)"><path class="background" aria-hidden="true" d="M0.5,0.5h800v480h-800Z"/><g><g class="mark-group role-axis" aria-hidden="true"><g transform="translate(0.5,0.5)"><path class="background" aria-hidden="true" d="M0,0h0v0h0Z" pointer-events="none"/><g><g class="mark-rule role-axis-grid" pointer-events="none"><line transform="translate(0,480)" x2="800" y2="0" stroke="#ddd" stroke-width="1" opacity="1"/><line transform="translate(0,436)" x2="800" y2="0" stroke="#ddd" stroke-width="1" opacity="1"/><line transform="translate(0,393)" x2="800" y2="0" stroke="#ddd" stroke-width="1" opacity="1"/><line transform="translate(0,349)" x2="800" y2="0" stroke="#ddd" stroke-width="1" opacity="1"/><line transform="translate(0,305)" x2="800" y2="0" stroke="#ddd" stroke-width="1" opacity="1"/><line transform="translate(0,262)" x2="800" y2="0" stroke="#ddd" stroke-width="1" opacity="1"/><line transform="translate(0,218)" x2="800" y2="0" stroke="#ddd" stroke-width="1" opacity="1"/><line transform="translate(0,175)" x2="800" y2="0" stroke="#ddd" stroke-width="1" opacity="1"/><line transform="translate(0,131)" x2="800" y2="0" stroke="#ddd" stroke-width="1" opacity="1"/><line transform="translate(0,87)" x2="800" y2="0" stroke="#ddd" stroke-width="1" opacity="1"/><line transform="translate(0,44)" x2="800" y2="0" stroke="#ddd" stroke-width="1" opacity="1"/><line transform="translate(0,0)" x2="800" y2="0" stroke="#ddd" stroke-width="1" opacity="1"/></g></g><path class="foreground" aria-hidden="true" d="" pointer-events="none" display="none"/></g></g><g class="mark-group role-axis" role="graphics-symbol" aria-roledescription="axis" aria-label="X-axis titled 'Date' for a time scale with values from 2025-09-08 to 2025-09-27"><g transform="translate(0.5,480.5)"><path class="background" aria-hidden="true" d="M0,0h0v0h0Z" pointer-events="none"/><g><g class="mark-rule role-axis-tick" pointer-events="none"><line transform="translate(0,0)" x2="0" y2="5" stroke="#bbb" stroke-width="1" opacity="1"/><line transform="translate(42,0)" x2="0" y2="5" stroke="#bbb" stroke-width="1" opacity="1"/><line transform="translate(84,0)" x2="0" y2="5" stroke="#bbb" stroke-width="1" opacity="1"/><line transform="translate(126,0)" x2="0" y2="5" stroke="#bbb" stroke-width="1" opacity="1"/><line transform="translate(168,0)" x2="0" y2="5" stroke="#bbb" stroke-width="1" opacity="1"/><line transform="translate(211,0)" x2="0" y2="5" stroke="#bbb" stroke-width="1" opacity="1"/><line transform="translate(253,0)" x2="0" y2="5" stroke="#bbb" stroke-width="1" opacity="1"/><line transform="translate(295,0)" x2="0" y2="5" stroke="#bbb" stroke-width="1" opacity="1"/><line transform="translate(337,0)" x2="0" y2="5" stroke="#bbb" stroke-width="1" opacity="1"/><line transform="translate(379,0)" x2="0" y2="5" stroke="#bbb" stroke-width="1" opacity="1"/><line transform="translate(421,0)" x2="0" y2="5" stroke="#bbb" stroke-width="1" opacity="1"/><line transform="translate(463,0)" x2="0" y2="5" stroke="#bbb" stroke-width="1" opacity="1"/><line transform="translate(505,0)" x2="0" y2="5" stroke="#bbb" stroke-width="1" opacity="1"/><line transform="translate(547,0)" x2="0" y2="5" stroke="#bbb" stroke-width="1" opacity="1"/><line transform="translate(589,0)" x2="0" y2="5" stroke="#bbb" stroke-width="1" opacity="1"/><line transform="translate(632,0)" x2="0" y2="5" stroke="#bbb" stroke-width="1" opacity="1"/><line transform="translate(674,0)" x2="0" y2="5" stroke="#bbb" stroke-width="1" opacity="1"/><line transform="translate(716,0)" x2="0" y2="5" stroke="#bbb" stroke-width="1" opacity="1"/><line transform="translate(758,0)" x2="0" y2="5" stroke="#bbb" stroke-width="1" opacity="1"/><line transform="translate(800,0)" x2="0" y2="5" stroke="#bbb" stroke-width="1" opacity="1"/></g><g class="mark-text role-axis-label" pointer-events="none"><text text-anchor="end" transform="translate(0,7) rotate(315) translate(0,9)" font-family="Segoe UI" font-size="11px" fill="#000" opacity="1">2025-09-08</text><text text-anchor="end" transform="translate(42.10526315789473,7) rotate(315) translate(0,9)" font-family="Segoe UI" font-size="11px" fill="#000" opacity="0">2025-09-09</text><text text-anchor="end" transform="translate(84.21052631578947,7) rotate(315) translate(0,9)" font-family="Segoe UI" font-size="11px" fill="#000" opacity="1">2025-09-10</text><text text-anchor="end" transform="translate(126.3157894736842,7) rotate(315) translate(0,9)" font-family="Segoe UI" font-size="11px" fill="#000" opacity="0">2025-09-11</text><text text-anchor="end" transform="translate(168.42105263157893,7) rotate(315) translate(0,9)" font-family="Segoe UI" font-size="11px" fill="#000" opacity="1">2025-09-12</text><text text-anchor="end" transform="translate(210.52631578947367,7) rotate(315) translate(0,9)" font-family="Segoe UI" font-size="11px" fill="#000" opacity="0">2025-09-13</text><text text-anchor="end" transform="translate(252.6315789473684,7) rotate(315) translate(0,9)" font-family="Segoe UI" font-size="11px" fill="#000" opacity="1">2025-09-14</text><text text-anchor="end" transform="translate(294.7368421052631,7) rotate(315) translate(0,9)" font-family="Segoe UI" font-size="11px" fill="#000" opacity="0">2025-09-15</text><text text-anchor="end" transform="translate(336.84210526315786,7) rotate(315) translate(0,9)" font-family="Segoe UI" font-size="11px" fill="#000" opacity="1">2025-09-16</text><text text-anchor="end" transform="translate(378.9473684210526,7) rotate(315) translate(0,9)" font-family="Segoe UI" font-size="11px" fill="#000" opacity="0">2025-09-17</text><text text-anchor="end" transform="translate(421.05263157894734,7) rotate(315) translate(0,9)" font-family="Segoe UI" font-size="11px" fill="#000" opacity="1">2025-09-18</text><text text-anchor="end" transform="translate(463.15789473684214,7) rotate(315) translate(0,9)" font-family="Segoe UI" font-size="11px" fill="#000" opacity="0">2025-09-19</text><text text-anchor="end" transform="translate(505.2631578947368,7) rotate(315) translate(0,9)" font-family="Segoe UI" font-size="11px" fill="#000" opacity="1">2025-09-20</text><text text-anchor="end" transform="translate(547.3684210526316,7) rotate(315) translate(0,9)" font-family="Segoe UI" font-size="11px" fill="#000" opacity="0">2025-09-21</text><text text-anchor="end" transform="translate(589.4736842105262,7) rotate(315) translate(0,9)" font-family="Segoe UI" font-size="11px" fill="#000" opacity="1">2025-09-22</text><text text-anchor="end" transform="translate(631.578947368421,7) rotate(315) translate(0,9)" font-family="Segoe UI" font-size="11px" fill="#000" opacity="0">2025-09-23</text><text text-anchor="end" transform="translate(673.6842105263157,7) rotate(315) translate(0,9)" font-family="Segoe UI" font-size="11px" fill="#000" opacity="1">2025-09-24</text><text text-anchor="end" transform="translate(715.7894736842105,7) rotate(315) translate(0,9)" font-family="Segoe UI" font-size="11px" fill="#000" opacity="0">2025-09-25</text><text text-anchor="end" transform="translate(757.8947368421052,7) rotate(315) translate(0,9)" font-family="Segoe UI" font-size="11px" fill="#000" opacity="1">2025-09-26</text><text text-anchor="end" transform="translate(800,7) rotate(315) translate(0,9)" font-family="Segoe UI" font-size="11px" fill="#000" opacity="0">2025-09-27</text></g><g class="mark-rule role-axis-domain" pointer-events="none"><line transform="translate(0,0)" x2="800" y2="0" stroke="#888" stroke-width="1" opacity="1"/></g><g class="mark-text role-axis-title" pointer-events="none"><text text-anchor="middle" transform="translate(400,91.00357133746823)" font-family="Segoe UI" font-size="13px" font-weight="bold" fill="#000" opacity="1">Date</text></g></g><path class="foreground" aria-hidden="true" d="" pointer-events="none" display="none"/></g></g><g class="mark-group role-axis" role="graphics-symbol" aria-roledescription="axis" aria-label="Y-axis titled 'Unique server names' for a linear scale with values from 0 to 55"><g transform="translate(0.5,0.5)"><path class="background" aria-hidden="true" d="M0,0h0v0h0Z" pointer-events="none"/><g><g class="mark-rule role-axis-tick" pointer-events="none"><line transform="translate(0,480)" x2="-5" y2="0" stroke="#bbb" stroke-width="1" opacity="1"/><line transform="translate(0,436)" x2="-5" y2="0" stroke="#bbb" stroke-width="1" opacity="1"/><line transform="translate(0,393)" x2="-5" y2="0" stroke="#bbb" stroke-width="1" opacity="1"/><line transform="translate(0,349)" x2="-5" y2="0" stroke="#bbb" stroke-width="1" opacity="1"/><line transform="translate(0,305)" x2="-5" y2="0" stroke="#bbb" stroke-width="1" opacity="1"/><line transform="translate(0,262)" x2="-5" y2="0" stroke="#bbb" stroke-width="1" opacity="1"/><line transform="translate(0,218)" x2="-5" y2="0" stroke="#bbb" stroke-width="1" opacity="1"/><line transform="translate(0,175)" x2="-5" y2="0" stroke="#bbb" stroke-width="1" opacity="1"/><line transform="translate(0,131)" x2="-5" y2="0" stroke="#bbb" stroke-width="1" opacity="1"/><line transform="translate(0,87)" x2="-5" y2="0" stroke="#bbb" stroke-width="1" opacity="1"/><line transform="translate(0,44)" x2="-5" y2="0" stroke="#bbb" stroke-width="1" opacity="1"/><line transform="translate(0,0)" x2="-5" y2="0" stroke="#bbb" stroke-width="1" opacity="1"/></g><g class="mark-text role-axis-label" pointer-events="none"><text text-anchor="end" transform="translate(-7,483)" font-family="Segoe UI" font-size="11px" fill="#000" opacity="1">0</text><text text-anchor="end" transform="translate(-7,439.3636363636364)" font-family="Segoe UI" font-size="11px" fill="#000" opacity="1">5</text><text text-anchor="end" transform="translate(-7,395.7272727272727)" font-family="Segoe UI" font-size="11px" fill="#000" opacity="1">10</text><text text-anchor="end" transform="translate(-7,352.0909090909091)" font-family="Segoe UI" font-size="11px" fill="#000" opacity="1">15</text><text text-anchor="end" transform="translate(-7,308.45454545454544)" font-family="Segoe UI" font-size="11px" fill="#000" opacity="1">20</text><text text-anchor="end" transform="translate(-7,264.8181818181818)" font-family="Segoe UI" font-size="11px" fill="#000" opacity="1">25</text><text text-anchor="end" transform="translate(-7,221.1818181818182)" font-family="Segoe UI" font-size="11px" fill="#000" opacity="1">30</text><text text-anchor="end" transform="translate(-7,177.54545454545456)" font-family="Segoe UI" font-size="11px" fill="#000" opacity="1">35</text><text text-anchor="end" transform="translate(-7,133.9090909090909)" font-family="Segoe UI" font-size="11px" fill="#000" opacity="1">40</text><text text-anchor="end" transform="translate(-7,90.27272727272725)" font-family="Segoe UI" font-size="11px" fill="#000" opacity="1">45</text><text text-anchor="end" transform="translate(-7,46.636363636363654)" font-family="Segoe UI" font-size="11px" fill="#000" opacity="1">50</text><text text-anchor="end" transform="translate(-7,3)" font-family="Segoe UI" font-size="11px" fill="#000" opacity="1">55</text></g><g class="mark-rule role-axis-domain" pointer-events="none"><line transform="translate(0,480)" x2="0" y2="-480" stroke="#888" stroke-width="1" opacity="1"/></g><g class="mark-text role-axis-title" pointer-events="none"><text text-anchor="middle" transform="translate(-28,240) rotate(-90) translate(0,-3)" font-family="Segoe UI" font-size="13px" font-weight="bold" fill="#000" opacity="1">Unique server names</text></g></g><path class="foreground" aria-hidden="true" d="" pointer-events="none" display="none"/></g></g><g class="mark-area role-mark layer_0_marks" role="graphics-object" aria-roledescription="area mark container" pointer-events="none"><path aria-label="date: 2025-09-08; count: 1" role="graphics-symbol" aria-roledescription="area mark" d="M0,471.273C14.035,240,28.07,8.727,42.105,8.727C56.14,8.727,70.175,17.455,84.211,34.909C98.246,52.364,112.281,148.364,126.316,165.818C140.351,183.273,154.386,174.545,168.421,192C182.456,209.455,196.491,293.818,210.526,305.455C224.561,317.091,238.596,322.909,252.632,322.909C266.667,322.909,280.702,273.455,294.737,261.818C308.772,250.182,322.807,256,336.842,244.364C350.877,232.727,364.912,142.545,378.947,130.909C392.982,119.273,407.018,113.455,421.053,113.455C435.088,113.455,449.123,218.182,463.158,235.636C477.193,253.091,491.228,244.364,505.263,261.818C519.298,279.273,533.333,349.091,547.368,349.091C561.404,349.091,575.439,343.273,589.474,340.364C603.509,337.455,617.544,334.545,631.579,331.636C645.614,328.727,659.649,322.909,673.684,322.909C687.719,322.909,701.754,384,715.789,384C729.825,384,743.86,261.818,757.895,261.818C771.93,261.818,785.965,353.455,800,445.091L800,480C785.965,480,771.93,480,757.895,480C743.86,480,729.825,480,715.789,480C701.754,480,687.719,480,673.684,480C659.649,480,645.614,480,631.579,480C617.544,480,603.509,480,589.474,480C575.439,480,561.404,480,547.368,480C533.333,480,519.298,480,505.263,480C491.228,480,477.193,480,463.158,480C449.123,480,435.088,480,421.053,480C407.018,480,392.982,480,378.947,480C364.912,480,350.877,480,336.842,480C322.807,480,308.772,480,294.737,480C280.702,480,266.667,480,252.632,480C238.596,480,224.561,480,210.526,480C196.491,480,182.456,480,168.421,480C154.386,480,140.351,480,126.316,480C112.281,480,98.246,480,84.211,480C70.175,480,56.14,480,42.105,480C28.07,480,14.035,480,0,480Z" fill="#4e79a7" opacity="0.18"/></g><g class="mark-line role-mark layer_1_marks" role="graphics-object" aria-roledescription="line mark container" pointer-events="none"><path aria-label="date: Sep 08, 2025; count: 1" role="graphics-symbol" aria-roledescription="line mark" d="M0,471.273C14.035,240,28.07,8.727,42.105,8.727C56.14,8.727,70.175,17.455,84.211,34.909C98.246,52.364,112.281,148.364,126.316,165.818C140.351,183.273,154.386,174.545,168.421,192C182.456,209.455,196.491,293.818,210.526,305.455C224.561,317.091,238.596,322.909,252.632,322.909C266.667,322.909,280.702,273.455,294.737,261.818C308.772,250.182,322.807,256,336.842,244.364C350.877,232.727,364.912,142.545,378.947,130.909C392.982,119.273,407.018,113.455,421.053,113.455C435.088,113.455,449.123,218.182,463.158,235.636C477.193,253.091,491.228,244.364,505.263,261.818C519.298,279.273,533.333,349.091,547.368,349.091C561.404,349.091,575.439,343.273,589.474,340.364C603.509,337.455,617.544,334.545,631.579,331.636C645.614,328.727,659.649,322.909,673.684,322.909C687.719,322.909,701.754,384,715.789,384C729.825,384,743.86,261.818,757.895,261.818C771.93,261.818,785.965,353.455,800,445.091" stroke="#4e79a7" stroke-width="2"/></g><g class="mark-line role-mark layer_2_marks" role="graphics-object" aria-roledescription="line mark container" pointer-events="none"><path aria-label="date: Sep 08, 2025; ma7: 1" role="graphics-symbol" aria-roledescription="line mark" d="M0,471.273C14.035,378.424,28.07,285.576,42.105,240C56.14,194.424,70.175,172.606,84.211,171.636C98.246,170.667,112.281,170.182,126.316,170.182C140.351,170.182,154.386,171.636,168.421,174.545C182.456,177.455,196.491,189.714,210.526,196.364C224.561,203.013,238.596,214.442,252.632,214.442C266.667,214.442,280.702,184.519,294.737,184.519C308.772,184.519,322.807,210.286,336.842,218.182C350.877,226.078,364.912,231.896,378.947,231.896C392.982,231.896,407.018,224.416,421.053,224.416C435.088,224.416,449.123,230.649,463.158,230.649C477.193,230.649,491.228,224.416,505.263,224.416C519.298,224.416,533.333,225.662,547.368,228.156C561.404,230.649,575.439,235.429,589.474,239.377C603.509,243.325,617.544,245.195,631.579,251.844C645.614,258.494,659.649,268.26,673.684,279.273C687.719,290.286,701.754,315.429,715.789,317.922C729.825,320.416,743.86,319.169,757.895,321.662C771.93,324.156,785.965,336,800,347.844" stroke="#d62728" stroke-width="2" stroke-dasharray="6,4"/></g><g class="mark-symbol role-mark layer_3_marks" role="graphics-object" aria-roledescription="symbol mark container"><path aria-label="date: Sep 08, 2025; count: 1; Date: Sep 08, 2025; Daily unique: 1; 7d avg: 1" role="graphics-symbol" aria-roledescription="point" transform="translate(0,471.27272727272725)" d="M3.536,0A3.536,3.536,0,1,1,-3.536,0A3.536,3.536,0,1,1,3.536,0" fill="#4e79a7" stroke-width="2" opacity="0.55"/><path aria-label="date: Sep 09, 2025; count: 54; Date: Sep 09, 2025; Daily unique: 54; 7d avg: 27.5" role="graphics-symbol" aria-roledescription="point" transform="translate(42.10526315789473,8.72727272727273)" d="M3.536,0A3.536,3.536,0,1,1,-3.536,0A3.536,3.536,0,1,1,3.536,0" fill="#4e79a7" stroke-width="2" opacity="0.55"/><path aria-label="date: Sep 10, 2025; count: 51; Date: Sep 10, 2025; Daily unique: 51; 7d avg: 35.3333333333" role="graphics-symbol" aria-roledescription="point" transform="translate(84.21052631578947,34.90909090909092)" d="M3.536,0A3.536,3.536,0,1,1,-3.536,0A3.536,3.536,0,1,1,3.536,0" fill="#4e79a7" stroke-width="2" opacity="0.55"/><path aria-label="date: Sep 11, 2025; count: 36; Date: Sep 11, 2025; Daily unique: 36; 7d avg: 35.5" role="graphics-symbol" aria-roledescription="point" transform="translate(126.3157894736842,165.8181818181818)" d="M3.536,0A3.536,3.536,0,1,1,-3.536,0A3.536,3.536,0,1,1,3.536,0" fill="#4e79a7" stroke-width="2" opacity="0.55"/><path aria-label="date: Sep 12, 2025; count: 33; Date: Sep 12, 2025; Daily unique: 33; 7d avg: 35" role="graphics-symbol" aria-roledescription="point" transform="translate(168.42105263157893,192)" d="M3.536,0A3.536,3.536,0,1,1,-3.536,0A3.536,3.536,0,1,1,3.536,0" fill="#4e79a7" stroke-width="2" opacity="0.55"/><path aria-label="date: Sep 13, 2025; count: 20; Date: Sep 13, 2025; Daily unique: 20; 7d avg: 32.5" role="graphics-symbol" aria-roledescription="point" transform="translate(210.52631578947367,305.45454545454544)" d="M3.536,0A3.536,3.536,0,1,1,-3.536,0A3.536,3.536,0,1,1,3.536,0" fill="#4e79a7" stroke-width="2" opacity="0.55"/><path aria-label="date: Sep 14, 2025; count: 18; Date: Sep 14, 2025; Daily unique: 18; 7d avg: 30.4285714286" role="graphics-symbol" aria-roledescription="point" transform="translate(252.6315789473684,322.90909090909093)" d="M3.536,0A3.536,3.536,0,1,1,-3.536,0A3.536,3.536,0,1,1,3.536,0" fill="#4e79a7" stroke-width="2" opacity="0.55"/><path aria-label="date: Sep 15, 2025; count: 25; Date: Sep 15, 2025; Daily unique: 25; 7d avg: 33.8571428571" role="graphics-symbol" aria-roledescription="point" transform="translate(294.7368421052631,261.8181818181818)" d="M3.536,0A3.536,3.536,0,1,1,-3.536,0A3.536,3.536,0,1,1,3.536,0" fill="#4e79a7" stroke-width="2" opacity="0.55"/><path aria-label="date: Sep 16, 2025; count: 27; Date: Sep 16, 2025; Daily unique: 27; 7d avg: 30" role="graphics-symbol" aria-roledescription="point" transform="translate(336.84210526315786,244.36363636363635)" d="M3.536,0A3.536,3.536,0,1,1,-3.536,0A3.536,3.536,0,1,1,3.536,0" fill="#4e79a7" stroke-width="2" opacity="0.55"/><path aria-label="date: Sep 17, 2025; count: 40; Date: Sep 17, 2025; Daily unique: 40; 7d avg: 28.4285714286" role="graphics-symbol" aria-roledescription="point" transform="translate(378.9473684210526,130.9090909090909)" d="M3.536,0A3.536,3.536,0,1,1,-3.536,0A3.536,3.536,0,1,1,3.536,0" fill="#4e79a7" stroke-width="2" opacity="0.55"/><path aria-label="date: Sep 18, 2025; count: 42; Date: Sep 18, 2025; Daily unique: 42; 7d avg: 29.2857142857" role="graphics-symbol" aria-roledescription="point" transform="translate(421.05263157894734,113.45454545454544)" d="M3.536,0A3.536,3.536,0,1,1,-3.536,0A3.536,3.536,0,1,1,3.536,0" fill="#4e79a7" stroke-width="2" opacity="0.55"/><path aria-label="date: Sep 19, 2025; count: 28; Date: Sep 19, 2025; Daily unique: 28; 7d avg: 28.5714285714" role="graphics-symbol" aria-roledescription="point" transform="translate(463.15789473684214,235.63636363636365)" d="M3.536,0A3.536,3.536,0,1,1,-3.536,0A3.536,3.536,0,1,1,3.536,0" fill="#4e79a7" stroke-width="2" opacity="0.55"/><path aria-label="date: Sep 20, 2025; count: 25; Date: Sep 20, 2025; Daily unique: 25; 7d avg: 29.2857142857" role="graphics-symbol" aria-roledescription="point" transform="translate(505.2631578947368,261.8181818181818)" d="M3.536,0A3.536,3.536,0,1,1,-3.536,0A3.536,3.536,0,1,1,3.536,0" fill="#4e79a7" stroke-width="2" opacity="0.55"/><path aria-label="date: Sep 21, 2025; count: 15; Date: Sep 21, 2025; Daily unique: 15; 7d avg: 28.8571428571" role="graphics-symbol" aria-roledescription="point" transform="translate(547.3684210526316,349.0909090909091)" d="M3.536,0A3.536,3.536,0,1,1,-3.536,0A3.536,3.536,0,1,1,3.536,0" fill="#4e79a7" stroke-width="2" opacity="0.55"/><path aria-label="date: Sep 22, 2025; count: 16; Date: Sep 22, 2025; Daily unique: 16; 7d avg: 27.5714285714" role="graphics-symbol" aria-roledescription="point" transform="translate(589.4736842105262,340.3636363636364)" d="M3.536,0A3.536,3.536,0,1,1,-3.536,0A3.536,3.536,0,1,1,3.536,0" fill="#4e79a7" stroke-width="2" opacity="0.55"/><path aria-label="date: Sep 23, 2025; count: 17; Date: Sep 23, 2025; Daily unique: 17; 7d avg: 26.1428571429" role="graphics-symbol" aria-roledescription="point" transform="translate(631.578947368421,331.6363636363636)" d="M3.536,0A3.536,3.536,0,1,1,-3.536,0A3.536,3.536,0,1,1,3.536,0" fill="#4e79a7" stroke-width="2" opacity="0.55"/><path aria-label="date: Sep 24, 2025; count: 18; Date: Sep 24, 2025; Daily unique: 18; 7d avg: 23" role="graphics-symbol" aria-roledescription="point" transform="translate(673.6842105263157,322.90909090909093)" d="M3.536,0A3.536,3.536,0,1,1,-3.536,0A3.536,3.536,0,1,1,3.536,0" fill="#4e79a7" stroke-width="2" opacity="0.55"/><path aria-label="date: Sep 25, 2025; count: 11; Date: Sep 25, 2025; Daily unique: 11; 7d avg: 18.5714285714" role="graphics-symbol" aria-roledescription="point" transform="translate(715.7894736842105,384)" d="M3.536,0A3.536,3.536,0,1,1,-3.536,0A3.536,3.536,0,1,1,3.536,0" fill="#4e79a7" stroke-width="2" opacity="0.55"/><path aria-label="date: Sep 26, 2025; count: 25; Date: Sep 26, 2025; Daily unique: 25; 7d avg: 18.1428571429" role="graphics-symbol" aria-roledescription="point" transform="translate(757.8947368421052,261.8181818181818)" d="M3.536,0A3.536,3.536,0,1,1,-3.536,0A3.536,3.536,0,1,1,3.536,0" fill="#4e79a7" stroke-width="2" opacity="0.55"/><path aria-label="date: Sep 27, 2025; count: 4; Date: Sep 27, 2025; Daily unique: 4; 7d avg: 15.1428571429" role="graphics-symbol" aria-roledescription="point" transform="translate(800,445.09090909090907)" d="M3.536,0A3.536,3.536,0,1,1,-3.536,0A3.536,3.536,0,1,1,3.536,0" fill="#4e79a7" stroke-width="2" opacity="0.55"/></g><g class="mark-path role-mark layer_3_voronoi" aria-hidden="true"><path transform="translate(0,0)" d="M0,480L0,292.42752815051983L44.04718927168038,310.64253123279366L167.8740897841639,467.8558167403328L175.00603740756847,480Z" stroke-width="0.35"/><path transform="translate(0,0)" d="M0,0L76.72483688560249,0L0,123.3878955762612Z" stroke-width="0.35"/><path transform="translate(0,0)" d="M218.94597651152668,63.79898710092618L0,134.22020761632953L0,123.3878955762612L76.72483688560249,0L258.58362269309634,0L241.79244755244753,51.551853501992014Z" stroke-width="0.35"/><path transform="translate(0,0)" d="M0,134.22020761632953L218.94597651152668,63.79898710092618L78.29836276642013,289.9866700243432L44.04718927168038,310.64253123279366L0,292.42752815051983Z" stroke-width="0.35"/><path transform="translate(0,0)" d="M227.27318750087693,234.69911698523975L78.29836276642013,289.9866700243432L218.94597651152668,63.79898710092618L241.79244755244753,51.551853501992014L271.6438537068861,154.42324062568375Z" stroke-width="0.35"/><path transform="translate(0,0)" d="M247.97038325842152,274.6410737103258L167.8740897841639,467.8558167403328L44.04718927168038,310.64253123279366L78.29836276642013,289.9866700243432L227.27318750087693,234.69911698523975Z" stroke-width="0.35"/><path transform="translate(0,0)" d="M355.42404175728575,348.700612775959L395.0937246818087,391.231461915311L387.20831168831165,480L175.00603740756847,480L167.8740897841639,467.8558167403328L247.97038325842152,274.6410737103258Z" stroke-width="0.35"/><path transform="translate(0,0)" d="M355.42404175728575,348.700612775959L247.97038325842152,274.6410737103258L227.27318750087693,234.69911698523975L271.6438537068861,154.42324062568375L276.06665348570516,157.26831650679543Z" stroke-width="0.35"/><path transform="translate(0,0)" d="M355.42404175728575,348.700612775959L276.06665348570516,157.26831650679543L397.3949753897576,202.29569643070155L408.57615888137997,364.12861538839513L395.0937246818087,391.231461915311Z" stroke-width="0.35"/><path transform="translate(0,0)" d="M349.35008264462806,0L424.2568769030013,180.69621421975995L397.3949753897576,202.29569643070155L276.06665348570516,157.26831650679543L271.6438537068861,154.42324062568375L241.79244755244753,51.551853501992014L258.58362269309634,0Z" stroke-width="0.35"/><path transform="translate(0,0)" d="M672.1189734667247,0L631.578947368421,92.04133892287712L554.4016386571237,135.8468289034896L424.2568769030013,180.69621421975995L349.35008264462806,0Z" stroke-width="0.35"/><path transform="translate(0,0)" d="M415.77391412415335,358.78615198282785L408.57615888137997,364.12861538839513L397.3949753897576,202.29569643070155L424.2568769030013,180.69621421975995L554.4016386571237,135.8468289034896Z" stroke-width="0.35"/><path transform="translate(0,0)" d="M415.77391412415335,358.78615198282785L554.4016386571237,135.8468289034896L631.578947368421,92.04133892287712L631.578947368421,176.28396349725998L625.0605338289375,194.25452713994633L593.1229419905887,252.0363544790642L557.1931511724464,290.55757270514266Z" stroke-width="0.35"/><path transform="translate(0,0)" d="M415.77391412415335,358.78615198282785L557.1931511724464,290.55757270514266L596.459399739017,480L387.20831168831165,480L395.0937246818087,391.231461915311L408.57615888137997,364.12861538839513Z" stroke-width="0.35"/><path transform="translate(0,0)" d="M596.459399739017,480L557.1931511724464,290.55757270514266L593.1229419905887,252.0363544790642L629.7075250108743,428.5409216821959L611.9307525010875,480Z" stroke-width="0.35"/><path transform="translate(0,0)" d="M662.6431665941714,375.5742466213381L629.7075250108743,428.5409216821959L593.1229419905887,252.0363544790642L625.0605338289375,194.25452713994633Z" stroke-width="0.35"/><path transform="translate(0,0)" d="M662.6431665941714,375.5742466213381L625.0605338289375,194.25452713994633L631.578947368421,176.28396349725998L738.3177149485283,323.417603018711Z" stroke-width="0.35"/><path transform="translate(0,0)" d="M662.6431665941714,375.5742466213381L738.3177149485283,323.417603018711L800,344.67402957153644L800,356.50561811226623L710.4104393214441,480L611.9307525010875,480L629.7075250108743,428.5409216821959Z" stroke-width="0.35"/><path transform="translate(0,0)" d="M800,0L800,344.67402957153644L738.3177149485283,323.417603018711L631.578947368421,176.28396349725998L631.578947368421,92.04133892287712L672.1189734667247,0Z" stroke-width="0.35"/><path transform="translate(0,0)" d="M800,480L710.4104393214441,480L800,356.50561811226623Z" stroke-width="0.35"/></g><g class="mark-symbol role-mark layer_4_marks" role="graphics-object" aria-roledescription="symbol mark container"><path aria-label="date: Sep 08, 2025; count: 1; Peak date: Sep 08, 2025; Peak unique count: 1" role="graphics-symbol" aria-roledescription="point" transform="translate(0,471.27272727272725)" d="M-5.916,0L0,-5.916L5.916,0L0,5.916Z" fill="#ff9900" stroke="#b36b00" stroke-width="1.5" opacity="0"/><path aria-label="date: Sep 09, 2025; count: 54; Peak date: Sep 09, 2025; Peak unique count: 54" role="graphics-symbol" aria-roledescription="point" transform="translate(42.10526315789473,8.72727272727273)" d="M-5.916,0L0,-5.916L5.916,0L0,5.916Z" fill="#ff9900" stroke="#b36b00" stroke-width="1.5" opacity="1"/><path aria-label="date: Sep 10, 2025; count: 51; Peak date: Sep 10, 2025; Peak unique count: 51" role="graphics-symbol" aria-roledescription="point" transform="translate(84.21052631578947,34.90909090909092)" d="M-5.916,0L0,-5.916L5.916,0L0,5.916Z" fill="#ff9900" stroke="#b36b00" stroke-width="1.5" opacity="0"/><path aria-label="date: Sep 11, 2025; count: 36; Peak date: Sep 11, 2025; Peak unique count: 36" role="graphics-symbol" aria-roledescription="point" transform="translate(126.3157894736842,165.8181818181818)" d="M-5.916,0L0,-5.916L5.916,0L0,5.916Z" fill="#ff9900" stroke="#b36b00" stroke-width="1.5" opacity="0"/><path aria-label="date: Sep 12, 2025; count: 33; Peak date: Sep 12, 2025; Peak unique count: 33" role="graphics-symbol" aria-roledescription="point" transform="translate(168.42105263157893,192)" d="M-5.916,0L0,-5.916L5.916,0L0,5.916Z" fill="#ff9900" stroke="#b36b00" stroke-width="1.5" opacity="0"/><path aria-label="date: Sep 13, 2025; count: 20; Peak date: Sep 13, 2025; Peak unique count: 20" role="graphics-symbol" aria-roledescription="point" transform="translate(210.52631578947367,305.45454545454544)" d="M-5.916,0L0,-5.916L5.916,0L0,5.916Z" fill="#ff9900" stroke="#b36b00" stroke-width="1.5" opacity="0"/><path aria-label="date: Sep 14, 2025; count: 18; Peak date: Sep 14, 2025; Peak unique count: 18" role="graphics-symbol" aria-roledescription="point" transform="translate(252.6315789473684,322.90909090909093)" d="M-5.916,0L0,-5.916L5.916,0L0,5.916Z" fill="#ff9900" stroke="#b36b00" stroke-width="1.5" opacity="0"/><path aria-label="date: Sep 15, 2025; count: 25; Peak date: Sep 15, 2025; Peak unique count: 25" role="graphics-symbol" aria-roledescription="point" transform="translate(294.7368421052631,261.8181818181818)" d="M-5.916,0L0,-5.916L5.916,0L0,5.916Z" fill="#ff9900" stroke="#b36b00" stroke-width="1.5" opacity="0"/><path aria-label="date: Sep 16, 2025; count: 27; Peak date: Sep 16, 2025; Peak unique count: 27" role="graphics-symbol" aria-roledescription="point" transform="translate(336.84210526315786,244.36363636363635)" d="M-5.916,0L0,-5.916L5.916,0L0,5.916Z" fill="#ff9900" stroke="#b36b00" stroke-width="1.5" opacity="0"/><path aria-label="date: Sep 17, 2025; count: 40; Peak date: Sep 17, 2025; Peak unique count: 40" role="graphics-symbol" aria-roledescription="point" transform="translate(378.9473684210526,130.9090909090909)" d="M-5.916,0L0,-5.916L5.916,0L0,5.916Z" fill="#ff9900" stroke="#b36b00" stroke-width="1.5" opacity="0"/><path aria-label="date: Sep 18, 2025; count: 42; Peak date: Sep 18, 2025; Peak unique count: 42" role="graphics-symbol" aria-roledescription="point" transform="translate(421.05263157894734,113.45454545454544)" d="M-5.916,0L0,-5.916L5.916,0L0,5.916Z" fill="#ff9900" stroke="#b36b00" stroke-width="1.5" opacity="0"/><path aria-label="date: Sep 19, 2025; count: 28; Peak date: Sep 19, 2025; Peak unique count: 28" role="graphics-symbol" aria-roledescription="point" transform="translate(463.15789473684214,235.63636363636365)" d="M-5.916,0L0,-5.916L5.916,0L0,5.916Z" fill="#ff9900" stroke="#b36b00" stroke-width="1.5" opacity="0"/><path aria-label="date: Sep 20, 2025; count: 25; Peak date: Sep 20, 2025; Peak unique count: 25" role="graphics-symbol" aria-roledescription="point" transform="translate(505.2631578947368,261.8181818181818)" d="M-5.916,0L0,-5.916L5.916,0L0,5.916Z" fill="#ff9900" stroke="#b36b00" stroke-width="1.5" opacity="0"/><path aria-label="date: Sep 21, 2025; count: 15; Peak date: Sep 21, 2025; Peak unique count: 15" role="graphics-symbol" aria-roledescription="point" transform="translate(547.3684210526316,349.0909090909091)" d="M-5.916,0L0,-5.916L5.916,0L0,5.916Z" fill="#ff9900" stroke="#b36b00" stroke-width="1.5" opacity="0"/><path aria-label="date: Sep 22, 2025; count: 16; Peak date: Sep 22, 2025; Peak unique count: 16" role="graphics-symbol" aria-roledescription="point" transform="translate(589.4736842105262,340.3636363636364)" d="M-5.916,0L0,-5.916L5.916,0L0,5.916Z" fill="#ff9900" stroke="#b36b00" stroke-width="1.5" opacity="0"/><path aria-label="date: Sep 23, 2025; count: 17; Peak date: Sep 23, 2025; Peak unique count: 17" role="graphics-symbol" aria-roledescription="point" transform="translate(631.578947368421,331.6363636363636)" d="M-5.916,0L0,-5.916L5.916,0L0,5.916Z" fill="#ff9900" stroke="#b36b00" stroke-width="1.5" opacity="0"/><path aria-label="date: Sep 24, 2025; count: 18; Peak date: Sep 24, 2025; Peak unique count: 18" role="graphics-symbol" aria-roledescription="point" transform="translate(673.6842105263157,322.90909090909093)" d="M-5.916,0L0,-5.916L5.916,0L0,5.916Z" fill="#ff9900" stroke="#b36b00" stroke-width="1.5" opacity="0"/><path aria-label="date: Sep 25, 2025; count: 11; Peak date: Sep 25, 2025; Peak unique count: 11" role="graphics-symbol" aria-roledescription="point" transform="translate(715.7894736842105,384)" d="M-5.916,0L0,-5.916L5.916,0L0,5.916Z" fill="#ff9900" stroke="#b36b00" stroke-width="1.5" opacity="0"/><path aria-label="date: Sep 26, 2025; count: 25; Peak date: Sep 26, 2025; Peak unique count: 25" role="graphics-symbol" aria-roledescription="point" transform="translate(757.8947368421052,261.8181818181818)" d="M-5.916,0L0,-5.916L5.916,0L0,5.916Z" fill="#ff9900" stroke="#b36b00" stroke-width="1.5" opacity="0"/><path aria-label="date: Sep 27, 2025; count: 4; Peak date: Sep 27, 2025; Peak unique count: 4" role="graphics-symbol" aria-roledescription="point" transform="translate(800,445.09090909090907)" d="M-5.916,0L0,-5.916L5.916,0L0,5.916Z" fill="#ff9900" stroke="#b36b00" stroke-width="1.5" opacity="0"/></g><g class="mark-rule role-mark layer_5_marks" role="graphics-symbol" aria-roledescription="rule mark container" pointer-events="none"><line transform="translate(800,259.20000000000005)" x2="-800" y2="0" stroke="#d62728" stroke-width="1.5" stroke-dasharray="4,4"/><line transform="translate(800,259.20000000000005)" x2="-800" y2="0" stroke="#d62728" stroke-width="1.5" stroke-dasharray="4,4"/><line transform="translate(800,259.20000000000005)" x2="-800" y2="0" stroke="#d62728" stroke-width="1.5" stroke-dasharray="4,4"/><line transform="translate(800,259.20000000000005)" x2="-800" y2="0" stroke="#d62728" stroke-width="1.5" stroke-dasharray="4,4"/><line transform="translate(800,259.20000000000005)" x2="-800" y2="0" stroke="#d62728" stroke-width="1.5" stroke-dasharray="4,4"/><line transform="translate(800,259.20000000000005)" x2="-800" y2="0" stroke="#d62728" stroke-width="1.5" stroke-dasharray="4,4"/><line transform="translate(800,259.20000000000005)" x2="-800" y2="0" stroke="#d62728" stroke-width="1.5" stroke-dasharray="4,4"/><line transform="translate(800,259.20000000000005)" x2="-800" y2="0" stroke="#d62728" stroke-width="1.5" stroke-dasharray="4,4"/><line transform="translate(800,259.20000000000005)" x2="-800" y2="0" stroke="#d62728" stroke-width="1.5" stroke-dasharray="4,4"/><line transform="translate(800,259.20000000000005)" x2="-800" y2="0" stroke="#d62728" stroke-width="1.5" stroke-dasharray="4,4"/><line transform="translate(800,259.20000000000005)" x2="-800" y2="0" stroke="#d62728" stroke-width="1.5" stroke-dasharray="4,4"/><line transform="translate(800,259.20000000000005)" x2="-800" y2="0" stroke="#d62728" stroke-width="1.5" stroke-dasharray="4,4"/><line transform="translate(800,259.20000000000005)" x2="-800" y2="0" stroke="#d62728" stroke-width="1.5" stroke-dasharray="4,4"/><line transform="translate(800,259.20000000000005)" x2="-800" y2="0" stroke="#d62728" stroke-width="1.5" stroke-dasharray="4,4"/><line transform="translate(800,259.20000000000005)" x2="-800" y2="0" stroke="#d62728" stroke-width="1.5" stroke-dasharray="4,4"/><line transform="translate(800,259.20000000000005)" x2="-800" y2="0" stroke="#d62728" stroke-width="1.5" stroke-dasharray="4,4"/><line transform="translate(800,259.20000000000005)" x2="-800" y2="0" stroke="#d62728" stroke-width="1.5" stroke-dasharray="4,4"/><line transform="translate(800,259.20000000000005)" x2="-800" y2="0" stroke="#d62728" stroke-width="1.5" stroke-dasharray="4,4"/><line transform="translate(800,259.20000000000005)" x2="-800" y2="0" stroke="#d62728" stroke-width="1.5" stroke-dasharray="4,4"/><line transform="translate(800,259.20000000000005)" x2="-800" y2="0" stroke="#d62728" stroke-width="1.5" stroke-dasharray="4,4"/></g><g class="mark-text role-mark layer_6_marks" role="graphics-object" aria-roledescription="text mark container" pointer-events="none"><text aria-label="date: Sep 27, 2025" role="graphics-symbol" aria-roledescription="text mark" text-anchor="start" transform="translate(806,257.20000000000005)" font-family="sans-serif" font-size="12px" fill="#d62728">Avg: 25.3</text></g></g><path class="foreground" aria-hidden="true" d="" display="none"/></g></g></g></svg>