<svg xmlns="http://www.w3.org/2000/svg" xmlns:xlink="http://www.w3.org/1999/xlink" version="1.1" class="marks" width="2007" height="573" viewBox="0 0 2007 573"><rect width="2007" height="573" fill="white"/><g fill="none" stroke-miterlimit="10" transform="translate(51,11)"><g class="mark-group role-frame root" role="graphics-object" aria-roledescription="group mark container"><g transform="translate(0,0)"><path class="background" aria-hidden="true" d="M0.5,0.5h1880v480h-1880Z"/><g><g class="mark-group role-axis" aria-hidden="true"><g transform="translate(0.5,0.5)"><path class="background" aria-hidden="true" d="M0,0h0v0h0Z" pointer-events="none"/><g><g class="mark-rule role-axis-grid" pointer-events="none"><line transform="translate(0,480)" x2="1880" y2="0" stroke="#ddd" stroke-width="1" opacity="1"/><line transform="translate(0,436)" x2="1880" y2="0" stroke="#ddd" stroke-width="1" opacity="1"/><line transform="translate(0,393)" x2="1880" y2="0" stroke="#ddd" stroke-width="1" opacity="1"/><line transform="translate(0,349)" x2="1880" y2="0" stroke="#ddd" stroke-width="1" opacity="1"/><line transform="translate(0,305)" x2="1880" y2="0" stroke="#ddd" stroke-width="1" opacity="1"/><line transform="translate(0,262)" x2="1880" y2="0" stroke="#ddd" stroke-width="1" opacity="1"/><line transform="translate(0,218)" x2="1880" y2="0" stroke="#ddd" stroke-width="1" opacity="1"/><line transform="translate(0,175)" x2="1880" y2="0" stroke="#ddd" stroke-width="1" opacity="1"/><line transform="translate(0,131)" x2="1880" y2="0" stroke="#ddd" stroke-width="1" opacity="1"/><line transform="translate(0,87)" x2="1880" y2="0" stroke="#ddd" stroke-width="1" opacity="1"/><line transform="translate(0,44)" x2="1880" y2="0" stroke="#ddd" stroke-width="1" opacity="1"/><line transform="translate(0,0)" x2="1880" y2="0" stroke="#ddd" stroke-width="1" opacity="1"/></g></g><path class="foreground" aria-hidden="true" d="" pointer-events="none" display="none"/></g></g><g class="mark-group role-axis" role="graphics-symbol" aria-roledescription="axis" aria-label="X-axis titled 'Date' for a time scale with values from 2025-09-08 to 2025-10-27"><g transform="translate(0.5,480.5)"><path class="background" aria-hidden="true" d="M0,0h0v0h0Z" pointer-events="none"/><g><g class="mark-rule role-axis-tick" pointer-events="none"><line transform="translate(0,0)" x2="0" y2="5" stroke="#bbb" stroke-width="1" opacity="1"/><line transform="translate(38,0)" x2="0" y2="5" stroke="#bbb" stroke-width="1" opacity="1"/><line transform="translate(77,0)" x2="0" y2="5" stroke="#bbb" stroke-width="1" opacity="1"/><line transform="translate(115,0)" x2="0" y2="5" stroke="#bbb" stroke-width="1" opacity="1"/><line transform="translate(153,0)" x2="0" y2="5" stroke="#bbb" stroke-width="1" opacity="1"/><line transform="translate(192,0)" x2="0" y2="5" stroke="#bbb" stroke-width="1" opacity="1"/><line transform="translate(230,0)" x2="0" y2="5" stroke="#bbb" stroke-width="1" opacity="1"/><line transform="translate(269,0)" x2="0" y2="5" stroke="#bbb" stroke-width="1" opacity="1"/><line transform="translate(307,0)" x2="0" y2="5" stroke="#bbb" stroke-width="1" opacity="1"/><line transform="translate(345,0)" x2="0" y2="5" stroke="#bbb" stroke-width="1" opacity="1"/><line transform="translate(384,0)" x2="0" y2="5" stroke="#bbb" stroke-width="1" opacity="1"/><line transform="translate(422,0)" x2="0" y2="5" stroke="#bbb" stroke-width="1" opacity="1"/><line transform="translate(460,0)" x2="0" y2="5" stroke="#bbb" stroke-width="1" opacity="1"/><line transform="translate(499,0)" x2="0" y2="5" stroke="#bbb" stroke-width="1" opacity="1"/><line transform="translate(537,0)" x2="0" y2="5" stroke="#bbb" stroke-width="1" opacity="1"/><line transform="translate(576,0)" x2="0" y2="5" stroke="#bbb" stroke-width="1" opacity="1"/><line transform="translate(614,0)" x2="0" y2="5" stroke="#bbb" stroke-width="1" opacity="1"/><line transform="translate(652,0)" x2="0" y2="5" stroke="#bbb" stroke-width="1" opacity="1"/><line transform="translate(691,0)" x2="0" y2="5" stroke="#bbb" stroke-width="1" opacity="1"/><line transform="translate(729,0)" x2="0" y2="5" stroke="#bbb" stroke-width="1" opacity="1"/><line transform="translate(767,0)" x2="0" y2="5" stroke="#bbb" stroke-width="1" opacity="1"/><line transform="translate(806,0)" x2="0" y2="5" stroke="#bbb" stroke-width="1" opacity="1"/><line transform="translate(844,0)" x2="0" y2="5" stroke="#bbb" stroke-width="1" opacity="1"/><line transform="translate(882,0)" x2="0" y2="5" stroke="#bbb" stroke-width="1" opacity="1"/><line transform="translate(921,0)" x2="0" y2="5" stroke="#bbb" stroke-width="1" opacity="1"/><line transform="translate(959,0)" x2="0" y2="5" stroke="#bbb" stroke-width="1" opacity="1"/><line transform="translate(998,0)" x2="0" y2="5" stroke="#bbb" stroke-width="1" opacity="1"/><line transform="translate(1036,0)" x2="0" y2="5" stroke="#bbb" stroke-width="1" opacity="1"/><line transform="translate(1074,0)" x2="0" y2="5" stroke="#bbb" stroke-width="1" opacity="1"/><line transform="translate(1113,0)" x2="0" y2="5" stroke="#bbb" stroke-width="1" opacity="1"/><line transform="translate(1151,0)" x2="0" y2="5" stroke="#bbb" stroke-width="1" opacity="1"/><line transform="translate(1189,0)" x2="0" y2="5" stroke="#bbb" stroke-width="1" opacity="1"/><line transform="translate(1228,0)" x2="0" y2="5" stroke="#bbb" stroke-width="1" opacity="1"/><line transform="translate(1266,0)" x2="0" y2="5" stroke="#bbb" stroke-width="1" opacity="1"/><line transform="translate(1304,0)" x2="0" y2="5" stroke="#bbb" stroke-width="1" opacity="1"/><line transform="translate(1343,0)" x2="0" y2="5" stroke="#bbb" stroke-width="1" opacity="1"/><line transform="translate(1381,0)" x2="0" y2="5" stroke="#bbb" stroke-width="1" opacity="1"/><line transform="translate(1420,0)" x2="0" y2="5" stroke="#bbb" stroke-width="1" opacity="1"/><line transform="translate(1458,0)" x2="0" y2="5" stroke="#bbb" stroke-width="1" opacity="1"/><line transform="translate(1496,0)" x2="0" y2="5" stroke="#bbb" stroke-width="1" opacity="1"/><line transform="translate(1535,0)" x2="0" y2="5" stroke="#bbb" stroke-width="1" opacity="1"/><line transform="translate(1573,0)" x2="0" y2="5" stroke="#bbb" stroke-width="1" opacity="1"/><line transform="translate(1611,0)" x2="0" y2="5" stroke="#bbb" stroke-width="1" opacity="1"/><line transform="translate(1650,0)" x2="0" y2="5" stroke="#bbb" stroke-width="1" opacity="1"/><line transform="translate(1688,0)" x2="0" y2="5" stroke="#bbb" stroke-width="1" opacity="1"/><line transform="translate(1727,0)" x2="0" y2="5" stroke="#bbb" stroke-width="1" opacity="1"/><line transform="translate(1765,0)" x2="0" y2="5" stroke="#bbb" stroke-width="1" opacity="1"/><line transform="translate(1803,0)" x2="0" y2="5" stroke="#bbb" stroke-width="1" opacity="1"/><line transform="translate(1842,0)" x2="0" y2="5" stroke="#bbb" stroke-width="1" opacity="1"/><line transform="translate(1880,0)" x2="0" y2="5" stroke="#bbb" stroke-width="1" opacity="1"/></g><g class="mark-text role-axis-label" pointer-events="none"><text text-anchor="end" transform="translate(0,7) rotate(315) translate(0,9)" font-family="Segoe UI" font-size="11px" fill="#000" opacity="1">2025-09-08</text><text text-anchor="end" transform="translate(38.367346938775505,7) rotate(315) translate(0,9)" font-family="Segoe UI" font-size="11px" fill="#000" opacity="0">2025-09-09</text><text text-anchor="end" transform="translate(76.73469387755101,7) rotate(315) translate(0,9)" font-family="Segoe UI" font-size="11px" fill="#000" opacity="1">2025-09-10</text><text text-anchor="end" transform="translate(115.10204081632652,7) rotate(315) translate(0,9)" font-family="Segoe UI" font-size="11px" fill="#000" opacity="0">2025-09-11</text><text text-anchor="end" transform="translate(153.46938775510202,7) rotate(315) translate(0,9)" font-family="Segoe UI" font-size="11px" fill="#000" opacity="1">2025-09-12</text><text text-anchor="end" transform="translate(191.83673469387756,7) rotate(315) translate(0,9)" font-family="Segoe UI" font-size="11px" fill="#000" opacity="0">2025-09-13</text><text text-anchor="end" transform="translate(230.20408163265304,7) rotate(315) translate(0,9)" font-family="Segoe UI" font-size="11px" fill="#000" opacity="1">2025-09-14</text><text text-anchor="end" transform="translate(268.57142857142856,7) rotate(315) translate(0,9)" font-family="Segoe UI" font-size="11px" fill="#000" opacity="0">2025-09-15</text><text text-anchor="end" transform="translate(306.93877551020404,7) rotate(315) translate(0,9)" font-family="Segoe UI" font-size="11px" fill="#000" opacity="1">2025-09-16</text><text text-anchor="end" transform="translate(345.30612244897964,7) rotate(315) translate(0,9)" font-family="Segoe UI" font-size="11px" fill="#000" opacity="0">2025-09-17</text><text text-anchor="end" transform="translate(383.6734693877551,7) rotate(315) translate(0,9)" font-family="Segoe UI" font-size="11px" fill="#000" opacity="1">2025-09-18</text><text text-anchor="end" transform="translate(422.0408163265306,7) rotate(315) translate(0,9)" font-family="Segoe UI" font-size="11px" fill="#000" opacity="0">2025-09-19</text><text text-anchor="end" transform="translate(460.4081632653061,7) rotate(315) translate(0,9)" font-family="Segoe UI" font-size="11px" fill="#000" opacity="1">2025-09-20</text><text text-anchor="end" transform="translate(498.7755102040817,7) rotate(315) translate(0,9)" font-family="Segoe UI" font-size="11px" fill="#000" opacity="0">2025-09-21</text><text text-anchor="end" transform="translate(537.1428571428571,7) rotate(315) translate(0,9)" font-family="Segoe UI" font-size="11px" fill="#000" opacity="1">2025-09-22</text><text text-anchor="end" transform="translate(575.5102040816327,7) rotate(315) translate(0,9)" font-family="Segoe UI" font-size="11px" fill="#000" opacity="0">2025-09-23</text><text text-anchor="end" transform="translate(613.8775510204081,7) rotate(315) translate(0,9)" font-family="Segoe UI" font-size="11px" fill="#000" opacity="1">2025-09-24</text><text text-anchor="end" transform="translate(652.2448979591836,7) rotate(315) translate(0,9)" font-family="Segoe UI" font-size="11px" fill="#000" opacity="0">2025-09-25</text><text text-anchor="end" transform="translate(690.6122448979593,7) rotate(315) translate(0,9)" font-family="Segoe UI" font-size="11px" fill="#000" opacity="1">2025-09-26</text><text text-anchor="end" transform="translate(728.9795918367347,7) rotate(315) translate(0,9)" font-family="Segoe UI" font-size="11px" fill="#000" opacity="0">2025-09-27</text><text text-anchor="end" transform="translate(767.3469387755102,7) rotate(315) translate(0,9)" font-family="Segoe UI" font-size="11px" fill="#000" opacity="1">2025-09-28</text><text text-anchor="end" transform="translate(805.7142857142857,7) rotate(315) translate(0,9)" font-family="Segoe UI" font-size="11px" fill="#000" opacity="0">2025-09-29</text><text text-anchor="end" transform="translate(844.0816326530612,7) rotate(315) translate(0,9)" font-family="Segoe UI" font-size="11px" fill="#000" opacity="1">2025-09-30</text><text text-anchor="end" transform="translate(882.4489795918367,7) rotate(315) translate(0,9)" font-family="Segoe UI" font-size="11px" fill="#000" opacity="0">2025-10-01</text><text text-anchor="end" transform="translate(920.8163265306122,7) rotate(315) translate(0,9)" font-family="Segoe UI" font-size="11px" fill="#000" opacity="1">2025-10-02</text><text text-anchor="end" transform="translate(959.1836734693878,7) rotate(315) translate(0,9)" font-family="Segoe UI" font-size="11px" fill="#000" opacity="0">2025-10-03</text><text text-anchor="end" transform="translate(997.5510204081634,7) rotate(315) translate(0,9)" font-family="Segoe UI" font-size="11px" fill="#000" opacity="1">2025-10-04</text><text text-anchor="end" transform="translate(1035.9183673469386,7) rotate(315) translate(0,9)" font-family="Segoe UI" font-size="11px" fill="#000" opacity="0">2025-10-05</text><text text-anchor="end" transform="translate(1074.2857142857142,7) rotate(315) translate(0,9)" font-family="Segoe UI" font-size="11px" fill="#000" opacity="1">2025-10-06</text><text text-anchor="end" transform="translate(1112.6530612244899,7) rotate(315) translate(0,9)" font-family="Segoe UI" font-size="11px" fill="#000" opacity="0">2025-10-07</text><text text-anchor="end" transform="translate(1151.0204081632653,7) rotate(315) translate(0,9)" font-family="Segoe UI" font-size="11px" fill="#000" opacity="1">2025-10-08</text><text text-anchor="end" transform="translate(1189.387755102041,7) rotate(315) translate(0,9)" font-family="Segoe UI" font-size="11px" fill="#000" opacity="0">2025-10-09</text><text text-anchor="end" transform="translate(1227.7551020408162,7) rotate(315) translate(0,9)" font-family="Segoe UI" font-size="11px" fill="#000" opacity="1">2025-10-10</text><text text-anchor="end" transform="translate(1266.1224489795918,7) rotate(315) translate(0,9)" font-family="Segoe UI" font-size="11px" fill="#000" opacity="0">2025-10-11</text><text text-anchor="end" transform="translate(1304.4897959183672,7) rotate(315) translate(0,9)" font-family="Segoe UI" font-size="11px" fill="#000" opacity="1">2025-10-12</text><text text-anchor="end" transform="translate(1342.857142857143,7) rotate(315) translate(0,9)" font-family="Segoe UI" font-size="11px" fill="#000" opacity="0">2025-10-13</text><text text-anchor="end" transform="translate(1381.2244897959185,7) rotate(315) translate(0,9)" font-family="Segoe UI" font-size="11px" fill="#000" opacity="1">2025-10-14</text><text text-anchor="end" transform="translate(1419.5918367346937,7) rotate(315) translate(0,9)" font-family="Segoe UI" font-size="11px" fill="#000" opacity="0">2025-10-15</text><text text-anchor="end" transform="translate(1457.9591836734694,7) rotate(315) translate(0,9)" font-family="Segoe UI" font-size="11px" fill="#000" opacity="1">2025-10-16</text><text text-anchor="end" transform="translate(1496.3265306122448,7) rotate(315) translate(0,9)" font-family="Segoe UI" font-size="11px" fill="#000" opacity="0">2025-10-17</text><text text-anchor="end" transform="translate(1534.6938775510205,7) rotate(315) translate(0,9)" font-family="Segoe UI" font-size="11px" fill="#000" opacity="1">2025-10-18</text><text text-anchor="end" transform="translate(1573.061224489796,7) rotate(315) translate(0,9)" font-family="Segoe UI" font-size="11px" fill="#000" opacity="0">2025-10-19</text><text text-anchor="end" transform="translate(1611.4285714285713,7) rotate(315) translate(0,9)" font-family="Segoe UI" font-size="11px" fill="#000" opacity="1">2025-10-20</text><text text-anchor="end" transform="translate(1649.795918367347,7) rotate(315) translate(0,9)" font-family="Segoe UI" font-size="11px" fill="#000" opacity="0">2025-10-21</text><text text-anchor="end" transform="translate(1688.1632653061224,7) rotate(315) translate(0,9)" font-family="Segoe UI" font-size="11px" fill="#000" opacity="1">2025-10-22</text><text text-anchor="end" transform="translate(1726.530612244898,7) rotate(315) translate(0,9)" font-family="Segoe UI" font-size="11px" fill="#000" opacity="0">2025-10-23</text><text text-anchor="end" transform="translate(1764.8979591836735,7) rotate(315) translate(0,9)" font-family="Segoe UI" font-size="11px" fill="#000" opacity="1">2025-10-24</text><text text-anchor="end" transform="translate(1803.265306122449,7) rotate(315) translate(0,9)" font-family="Segoe UI" font-size="11px" fill="#000" opacity="0">2025-10-25</text><text text-anchor="end" transform="translate(1841.6326530612243,7) rotate(315) translate(0,9)" font-family="Segoe UI" font-size="11px" fill="#000" opacity="1">2025-10-26</text><text text-anchor="end" transform="translate(1880,7) rotate(315) translate(0,9)" font-family="Segoe UI" font-size="11px" fill="#000" opacity="0">2025-10-27</text></g><g class="mark-rule role-axis-domain" pointer-events="none"><line transform="translate(0,0)" x2="1880" y2="0" stroke="#888" stroke-width="1" opacity="1"/></g><g class="mark-text role-axis-title" pointer-events="none"><text text-anchor="middle" transform="translate(940,73.9777658717112)" font-family="Segoe UI" font-size="13px" font-weight="bold" fill="#000" opacity="1">Date</text></g></g><path class="foreground" aria-hidden="true" d="" pointer-events="none" display="none"/></g></g><g class="mark-group role-axis" role="graphics-symbol" aria-roledescription="axis" aria-label="Y-axis titled 'Unique server names' for a linear scale with values from 0 to 55"><g transform="translate(0.5,0.5)"><path class="background" aria-hidden="true" d="M0,0h0v0h0Z" pointer-events="none"/><g><g class="mark-rule role-axis-tick" pointer-events="none"><line transform="translate(0,480)" x2="-5" y2="0" stroke="#bbb" stroke-width="1" opacity="1"/><line transform="translate(0,436)" x2="-5" y2="0" stroke="#bbb" stroke-width="1" opacity="1"/><line transform="translate(0,393)" x2="-5" y2="0" stroke="#bbb" stroke-width="1" opacity="1"/><line transform="translate(0,349)" x2="-5" y2="0" stroke="#bbb" stroke-width="1" opacity="1"/><line transform="translate(0,305)" x2="-5" y2="0" stroke="#bbb" stroke-width="1" opacity="1"/><line transform="translate(0,262)" x2="-5" y2="0" stroke="#bbb" stroke-width="1" opacity="1"/><line transform="translate(0,218)" x2="-5" y2="0" stroke="#bbb" stroke-width="1" opacity="1"/><line transform="translate(0,175)" x2="-5" y2="0" stroke="#bbb" stroke-width="1" opacity="1"/><line transform="translate(0,131)" x2="-5" y2="0" stroke="#bbb" stroke-width="1" opacity="1"/><line transform="translate(0,87)" x2="-5" y2="0" stroke="#bbb" stroke-width="1" opacity="1"/><line transform="translate(0,44)" x2="-5" y2="0" stroke="#bbb" stroke-width="1" opacity="1"/><line transform="translate(0,0)" x2="-5" y2="0" stroke="#bbb" stroke-width="1" opacity="1"/></g><g class="mark-text role-axis-label" pointer-events="none"><text text-anchor="end" transform="translate(-7,483)" font-family="Segoe UI" font-size="11px" fill="#000" opacity="1">0</text><text text-anchor="end" transform="translate(-7,439.3636363636364)" font-family="Segoe UI" font-size="11px" fill="#000" opacity="1">5</text><text text-anchor="end" transform="translate(-7,395.7272727272727)" font-family="Segoe UI" font-size="11px" fill="#000" opacity="1">10</text><text text-anchor="end" transform="translate(-7,352.0909090909091)" font-family="Segoe UI" font-size="11px" fill="#000" opacity="1">15</text><text text-anchor="end" transform="translate(-7,308.45454545454544)" font-family="Segoe UI" font-size="11px" fill="#000" opacity="1">20</text><text text-anchor="end" transform="translate(-7,264.8181818181818)" font-family="Segoe UI" font-size="11px" fill="#000" opacity="1">25</text><text text-anchor="end" transform="translate(-7,221.1818181818182)" font-family="Segoe UI" font-size="11px" fill="#000" opacity="1">30</text><text text-anchor="end" transform="translate(-7,177.54545454545456)" font-family="Segoe UI" font-size="11px" fill="#000" opacity="1">35</text><text text-anchor="end" transform="translate(-7,133.9090909090909)" font-family="Segoe UI" font-size="11px" fill="#000" opacity="1">40</text><text text-anchor="end" transform="translate(-7,90.27272727272725)" font-family="Segoe UI" font-size="11px" fill="#000" opacity="1">45</text><text text-anchor="end" transform="translate(-7,46.636363636363654)" font-family="Segoe UI" font-size="11px" fill="#000" opacity="1">50</text><text text-anchor="end" transform="translate(-7,3)" font-family="Segoe UI" font-size="11px" fill="#000" opacity="1">55</text></g><g class="mark-rule role-axis-domain" pointer-events="none"><line transform="translate(0,480)" x2="0" y2="-480" stroke="#888" stroke-width="1" opacity="1"/></g><g class="mark-text role-axis-title" pointer-events="none"><text text-anchor="middle" transform="translate(-24.99609375,240) rotate(-90) translate(0,-3)" font-family="Segoe UI" font-size="13px" font-weight="bold" fill="#000" opacity="1">Unique server names</text></g></g><path class="foreground" aria-hidden="true" d="" pointer-events="none" display="none"/></g></g><g class="mark-area role-mark layer_0_marks" role="graphics-object" aria-roledescription="area mark container" pointer-events="none"><path aria-label="date: 2025-09-08; count: 1" role="graphics-symbol" aria-roledescription="area mark" d="M0,471.273C12.789,240,25.578,8.727,38.367,8.727C51.156,8.727,63.946,17.455,76.735,34.909C89.524,52.364,102.313,142.545,115.102,165.818C127.891,189.091,140.68,177.455,153.469,200.727C166.259,224,179.048,293.818,191.837,305.455C204.626,317.091,217.415,322.909,230.204,322.909C242.993,322.909,255.782,273.455,268.571,261.818C281.361,250.182,294.15,256,306.939,244.364C319.728,232.727,332.517,151.273,345.306,139.636C358.095,128,370.884,122.182,383.673,122.182C396.463,122.182,409.252,212.364,422.041,235.636C434.83,258.909,447.619,251.636,460.408,270.545C473.197,289.455,485.986,349.091,498.776,349.091C511.565,349.091,524.354,343.273,537.143,340.364C549.932,337.455,562.721,334.545,575.51,331.636C588.299,328.727,601.088,322.909,613.878,322.909C626.667,322.909,639.456,384,652.245,384C665.034,384,677.823,261.818,690.612,261.818C703.401,261.818,716.19,418.909,728.98,418.909C741.769,418.909,754.558,398.545,767.347,357.818C780.136,317.091,792.925,148.364,805.714,148.364C818.503,148.364,831.293,202.182,844.082,244.364C856.871,286.545,869.66,401.455,882.449,401.455C895.238,401.455,908.027,165.818,920.816,165.818C933.605,165.818,946.395,253.091,959.184,253.091C971.973,253.091,984.762,253.091,997.551,253.091C1010.34,253.091,1023.129,340.364,1035.918,340.364C1048.707,340.364,1061.497,327.273,1074.286,305.455C1087.075,283.636,1099.864,209.455,1112.653,209.455C1125.442,209.455,1138.231,229.818,1151.02,253.091C1163.81,276.364,1176.599,349.091,1189.388,349.091C1202.177,349.091,1214.966,314.182,1227.755,314.182C1240.544,314.182,1253.333,401.455,1266.122,401.455C1278.912,401.455,1291.701,349.091,1304.49,349.091C1317.279,349.091,1330.068,349.091,1342.857,349.091C1355.646,349.091,1368.435,366.545,1381.224,366.545C1394.014,366.545,1406.803,314.182,1419.592,314.182C1432.381,314.182,1445.17,330.182,1457.959,340.364C1470.748,350.545,1483.537,356.364,1496.327,375.273C1509.116,394.182,1521.905,453.818,1534.694,453.818C1547.483,453.818,1560.272,442.182,1573.061,427.636C1585.85,413.091,1598.639,366.545,1611.429,366.545C1624.218,366.545,1637.007,392.727,1649.796,392.727C1662.585,392.727,1675.374,331.636,1688.163,331.636C1700.952,331.636,1713.741,375.273,1726.531,375.273C1739.32,375.273,1752.109,370.909,1764.898,366.545C1777.687,362.182,1790.476,349.091,1803.265,349.091C1816.054,349.091,1828.844,379.636,1841.633,392.727C1854.422,405.818,1867.211,416.727,1880,427.636L1880,480C1867.211,480,1854.422,480,1841.633,480C1828.844,480,1816.054,480,1803.265,480C1790.476,480,1777.687,480,1764.898,480C1752.109,480,1739.32,480,1726.531,480C1713.741,480,1700.952,480,1688.163,480C1675.374,480,1662.585,480,1649.796,480C1637.007,480,1624.218,480,1611.429,480C1598.639,480,1585.85,480,1573.061,480C1560.272,480,1547.483,480,1534.694,480C1521.905,480,1509.116,480,1496.327,480C1483.537,480,1470.748,480,1457.959,480C1445.17,480,1432.381,480,1419.592,480C1406.803,480,1394.014,480,1381.224,480C1368.435,480,1355.646,480,1342.857,480C1330.068,480,1317.279,480,1304.49,480C1291.701,480,1278.912,480,1266.122,480C1253.333,480,1240.544,480,1227.755,480C1214.966,480,1202.177,480,1189.388,480C1176.599,480,1163.81,480,1151.02,480C1138.231,480,1125.442,480,1112.653,480C1099.864,480,1087.075,480,1074.286,480C1061.497,480,1048.707,480,1035.918,480C1023.129,480,1010.34,480,997.551,480C984.762,480,971.973,480,959.184,480C946.395,480,933.605,480,920.816,480C908.027,480,895.238,480,882.449,480C869.66,480,856.871,480,844.082,480C831.293,480,818.503,480,805.714,480C792.925,480,780.136,480,767.347,480C754.558,480,741.769,480,728.98,480C716.19,480,703.401,480,690.612,480C677.823,480,665.034,480,652.245,480C639.456,480,626.667,480,613.878,480C601.088,480,588.299,480,575.51,480C562.721,480,549.932,480,537.143,480C524.354,480,511.565,480,498.776,480C485.986,480,473.197,480,460.408,480C447.619,480,434.83,480,422.041,480C409.252,480,396.463,480,383.673,480C370.884,480,358.095,480,345.306,480C332.517,480,319.728,480,306.939,480C294.15,480,281.361,480,268.571,480C255.782,480,242.993,480,230.204,480C217.415,480,204.626,480,191.837,480C179.048,480,166.259,480,153.469,480C140.68,480,127.891,480,115.102,480C102.313,480,89.524,480,76.735,480C63.946,480,51.156,480,38.367,480C25.578,480,12.789,480,0,480Z" fill="#4e79a7" opacity="0.18"/></g><g class="mark-line role-mark layer_1_marks" role="graphics-object" aria-roledescription="line mark container" pointer-events="none"><path aria-label="date: Sep 08, 2025; count: 1" role="graphics-symbol" aria-roledescription="line mark" d="M0,471.273C12.789,240,25.578,8.727,38.367,8.727C51.156,8.727,63.946,17.455,76.735,34.909C89.524,52.364,102.313,142.545,115.102,165.818C127.891,189.091,140.68,177.455,153.469,200.727C166.259,224,179.048,293.818,191.837,305.455C204.626,317.091,217.415,322.909,230.204,322.909C242.993,322.909,255.782,273.455,268.571,261.818C281.361,250.182,294.15,256,306.939,244.364C319.728,232.727,332.517,151.273,345.306,139.636C358.095,128,370.884,122.182,383.673,122.182C396.463,122.182,409.252,212.364,422.041,235.636C434.83,258.909,447.619,251.636,460.408,270.545C473.197,289.455,485.986,349.091,498.776,349.091C511.565,349.091,524.354,343.273,537.143,340.364C549.932,337.455,562.721,334.545,575.51,331.636C588.299,328.727,601.088,322.909,613.878,322.909C626.667,322.909,639.456,384,652.245,384C665.034,384,677.823,261.818,690.612,261.818C703.401,261.818,716.19,418.909,728.98,418.909C741.769,418.909,754.558,398.545,767.347,357.818C780.136,317.091,792.925,148.364,805.714,148.364C818.503,148.364,831.293,202.182,844.082,244.364C856.871,286.545,869.66,401.455,882.449,401.455C895.238,401.455,908.027,165.818,920.816,165.818C933.605,165.818,946.395,253.091,959.184,253.091C971.973,253.091,984.762,253.091,997.551,253.091C1010.34,253.091,1023.129,340.364,1035.918,340.364C1048.707,340.364,1061.497,327.273,1074.286,305.455C1087.075,283.636,1099.864,209.455,1112.653,209.455C1125.442,209.455,1138.231,229.818,1151.02,253.091C1163.81,276.364,1176.599,349.091,1189.388,349.091C1202.177,349.091,1214.966,314.182,1227.755,314.182C1240.544,314.182,1253.333,401.455,1266.122,401.455C1278.912,401.455,1291.701,349.091,1304.49,349.091C1317.279,349.091,1330.068,349.091,1342.857,349.091C1355.646,349.091,1368.435,366.545,1381.224,366.545C1394.014,366.545,1406.803,314.182,1419.592,314.182C1432.381,314.182,1445.17,330.182,1457.959,340.364C1470.748,350.545,1483.537,356.364,1496.327,375.273C1509.116,394.182,1521.905,453.818,1534.694,453.818C1547.483,453.818,1560.272,442.182,1573.061,427.636C1585.85,413.091,1598.639,366.545,1611.429,366.545C1624.218,366.545,1637.007,392.727,1649.796,392.727C1662.585,392.727,1675.374,331.636,1688.163,331.636C1700.952,331.636,1713.741,375.273,1726.531,375.273C1739.32,375.273,1752.109,370.909,1764.898,366.545C1777.687,362.182,1790.476,349.091,1803.265,349.091C1816.054,349.091,1828.844,379.636,1841.633,392.727C1854.422,405.818,1867.211,416.727,1880,427.636" stroke="#4e79a7" stroke-width="2"/></g><g class="mark-line role-mark layer_2_marks" role="graphics-object" aria-roledescription="line mark container" pointer-events="none"><path aria-label="date: Sep 08, 2025; ma7: 1" role="graphics-symbol" aria-roledescription="line mark" d="M0,471.273C12.789,378.424,25.578,285.576,38.367,240C51.156,194.424,63.946,172.606,76.735,171.636C89.524,170.667,102.313,170.182,115.102,170.182C127.891,170.182,140.68,172.218,153.469,176.291C166.259,180.364,179.048,191.252,191.837,197.818C204.626,204.384,217.415,215.688,230.204,215.688C242.993,215.688,255.782,185.766,268.571,185.766C281.361,185.766,294.15,211.325,306.939,219.429C319.728,227.532,332.517,234.39,345.306,234.39C358.095,234.39,370.884,228.156,383.673,228.156C396.463,228.156,409.252,233.143,422.041,233.143C434.83,233.143,447.619,228.156,460.408,228.156C473.197,228.156,485.986,229.403,498.776,231.896C511.565,234.39,524.354,239.169,537.143,243.117C549.932,247.065,562.721,249.143,575.51,255.584C588.299,262.026,601.088,271.169,613.878,281.766C626.667,292.364,639.456,316.675,652.245,319.169C665.034,321.662,677.823,320.416,690.612,322.909C703.401,325.403,716.19,343.273,728.98,344.104C741.769,344.935,754.558,345.351,767.347,345.351C780.136,345.351,792.925,324.571,805.714,317.922C818.503,311.273,831.293,305.455,844.082,305.455C856.871,305.455,869.66,316.675,882.449,316.675C895.238,316.675,908.027,286.338,920.816,285.506C933.605,284.675,946.395,285.091,959.184,284.26C971.973,283.429,984.762,262.234,997.551,260.571C1010.34,258.909,1023.129,258.078,1035.918,258.078C1048.707,258.078,1061.497,280.519,1074.286,280.519C1087.075,280.519,1099.864,278.857,1112.653,275.532C1125.442,272.208,1138.231,254.338,1151.02,254.338C1163.81,254.338,1176.599,274.701,1189.388,280.519C1202.177,286.338,1214.966,284.26,1227.755,289.247C1240.544,294.234,1253.333,309.61,1266.122,310.442C1278.912,311.273,1291.701,310.857,1304.49,311.688C1317.279,312.519,1330.068,313.766,1342.857,317.922C1355.646,322.078,1368.435,335.169,1381.224,340.364C1394.014,345.558,1406.803,349.091,1419.592,349.091C1432.381,349.091,1445.17,347.844,1457.959,347.844C1470.748,347.844,1483.537,353.87,1496.327,356.571C1509.116,359.273,1521.905,360.935,1534.694,364.052C1547.483,367.169,1560.272,373.61,1573.061,375.273C1585.85,376.935,1598.639,376.727,1611.429,377.766C1624.218,378.805,1637.007,380.468,1649.796,381.506C1662.585,382.545,1675.374,382.753,1688.163,384C1700.952,385.247,1713.741,388.987,1726.531,388.987C1739.32,388.987,1752.109,388.571,1764.898,387.74C1777.687,386.909,1790.476,376.104,1803.265,372.779C1816.054,369.455,1828.844,367.792,1841.633,367.792C1854.422,367.792,1867.211,372.156,1880,376.519" stroke="#d62728" stroke-width="2" stroke-dasharray="6,4"/></g><g class="mark-symbol role-mark layer_3_marks" role="graphics-object" aria-roledescription="symbol mark container"><path aria-label="date: Sep 08, 2025; count: 1; Date: Sep 08, 2025; Daily unique: 1; 7d avg: 1" role="graphics-symbol" aria-roledescription="point" transform="translate(0,471.27272727272725)" d="M3.536,0A3.536,3.536,0,1,1,-3.536,0A3.536,3.536,0,1,1,3.536,0" fill="#4e79a7" stroke-width="2" opacity="0.55"/><path aria-label="date: Sep 09, 2025; count: 54; Date: Sep 09, 2025; Daily unique: 54; 7d avg: 27.5" role="graphics-symbol" aria-roledescription="point" transform="translate(38.367346938775505,8.72727272727273)" d="M3.536,0A3.536,3.536,0,1,1,-3.536,0A3.536,3.536,0,1,1,3.536,0" fill="#4e79a7" stroke-width="2" opacity="0.55"/><path aria-label="date: Sep 10, 2025; count: 51; Date: Sep 10, 2025; Daily unique: 51; 7d avg: 35.3333333333" role="graphics-symbol" aria-roledescription="point" transform="translate(76.73469387755101,34.90909090909092)" d="M3.536,0A3.536,3.536,0,1,1,-3.536,0A3.536,3.536,0,1,1,3.536,0" fill="#4e79a7" stroke-width="2" opacity="0.55"/><path aria-label="date: Sep 11, 2025; count: 36; Date: Sep 11, 2025; Daily unique: 36; 7d avg: 35.5" role="graphics-symbol" aria-roledescription="point" transform="translate(115.10204081632652,165.8181818181818)" d="M3.536,0A3.536,3.536,0,1,1,-3.536,0A3.536,3.536,0,1,1,3.536,0" fill="#4e79a7" stroke-width="2" opacity="0.55"/><path aria-label="date: Sep 12, 2025; count: 32; Date: Sep 12, 2025; Daily unique: 32; 7d avg: 34.8" role="graphics-symbol" aria-roledescription="point" transform="translate(153.46938775510202,200.72727272727275)" d="M3.536,0A3.536,3.536,0,1,1,-3.536,0A3.536,3.536,0,1,1,3.536,0" fill="#4e79a7" stroke-width="2" opacity="0.55"/><path aria-label="date: Sep 13, 2025; count: 20; Date: Sep 13, 2025; Daily unique: 20; 7d avg: 32.3333333333" role="graphics-symbol" aria-roledescription="point" transform="translate(191.83673469387756,305.45454545454544)" d="M3.536,0A3.536,3.536,0,1,1,-3.536,0A3.536,3.536,0,1,1,3.536,0" fill="#4e79a7" stroke-width="2" opacity="0.55"/><path aria-label="date: Sep 14, 2025; count: 18; Date: Sep 14, 2025; Daily unique: 18; 7d avg: 30.2857142857" role="graphics-symbol" aria-roledescription="point" transform="translate(230.20408163265304,322.90909090909093)" d="M3.536,0A3.536,3.536,0,1,1,-3.536,0A3.536,3.536,0,1,1,3.536,0" fill="#4e79a7" stroke-width="2" opacity="0.55"/><path aria-label="date: Sep 15, 2025; count: 25; Date: Sep 15, 2025; Daily unique: 25; 7d avg: 33.7142857143" role="graphics-symbol" aria-roledescription="point" transform="translate(268.57142857142856,261.8181818181818)" d="M3.536,0A3.536,3.536,0,1,1,-3.536,0A3.536,3.536,0,1,1,3.536,0" fill="#4e79a7" stroke-width="2" opacity="0.55"/><path aria-label="date: Sep 16, 2025; count: 27; Date: Sep 16, 2025; Daily unique: 27; 7d avg: 29.8571428571" role="graphics-symbol" aria-roledescription="point" transform="translate(306.93877551020404,244.36363636363635)" d="M3.536,0A3.536,3.536,0,1,1,-3.536,0A3.536,3.536,0,1,1,3.536,0" fill="#4e79a7" stroke-width="2" opacity="0.55"/><path aria-label="date: Sep 17, 2025; count: 39; Date: Sep 17, 2025; Daily unique: 39; 7d avg: 28.1428571429" role="graphics-symbol" aria-roledescription="point" transform="translate(345.30612244897964,139.63636363636363)" d="M3.536,0A3.536,3.536,0,1,1,-3.536,0A3.536,3.536,0,1,1,3.536,0" fill="#4e79a7" stroke-width="2" opacity="0.55"/><path aria-label="date: Sep 18, 2025; count: 41; Date: Sep 18, 2025; Daily unique: 41; 7d avg: 28.8571428571" role="graphics-symbol" aria-roledescription="point" transform="translate(383.6734693877551,122.18181818181817)" d="M3.536,0A3.536,3.536,0,1,1,-3.536,0A3.536,3.536,0,1,1,3.536,0" fill="#4e79a7" stroke-width="2" opacity="0.55"/><path aria-label="date: Sep 19, 2025; count: 28; Date: Sep 19, 2025; Daily unique: 28; 7d avg: 28.2857142857" role="graphics-symbol" aria-roledescription="point" transform="translate(422.0408163265306,235.63636363636365)" d="M3.536,0A3.536,3.536,0,1,1,-3.536,0A3.536,3.536,0,1,1,3.536,0" fill="#4e79a7" stroke-width="2" opacity="0.55"/><path aria-label="date: Sep 20, 2025; count: 24; Date: Sep 20, 2025; Daily unique: 24; 7d avg: 28.8571428571" role="graphics-symbol" aria-roledescription="point" transform="translate(460.4081632653061,270.54545454545456)" d="M3.536,0A3.536,3.536,0,1,1,-3.536,0A3.536,3.536,0,1,1,3.536,0" fill="#4e79a7" stroke-width="2" opacity="0.55"/><path aria-label="date: Sep 21, 2025; count: 15; Date: Sep 21, 2025; Daily unique: 15; 7d avg: 28.4285714286" role="graphics-symbol" aria-roledescription="point" transform="translate(498.7755102040817,349.0909090909091)" d="M3.536,0A3.536,3.536,0,1,1,-3.536,0A3.536,3.536,0,1,1,3.536,0" fill="#4e79a7" stroke-width="2" opacity="0.55"/><path aria-label="date: Sep 22, 2025; count: 16; Date: Sep 22, 2025; Daily unique: 16; 7d avg: 27.1428571429" role="graphics-symbol" aria-roledescription="point" transform="translate(537.1428571428571,340.3636363636364)" d="M3.536,0A3.536,3.536,0,1,1,-3.536,0A3.536,3.536,0,1,1,3.536,0" fill="#4e79a7" stroke-width="2" opacity="0.55"/><path aria-label="date: Sep 23, 2025; count: 17; Date: Sep 23, 2025; Daily unique: 17; 7d avg: 25.7142857143" role="graphics-symbol" aria-roledescription="point" transform="translate(575.5102040816327,331.6363636363636)" d="M3.536,0A3.536,3.536,0,1,1,-3.536,0A3.536,3.536,0,1,1,3.536,0" fill="#4e79a7" stroke-width="2" opacity="0.55"/><path aria-label="date: Sep 24, 2025; count: 18; Date: Sep 24, 2025; Daily unique: 18; 7d avg: 22.7142857143" role="graphics-symbol" aria-roledescription="point" transform="translate(613.8775510204081,322.90909090909093)" d="M3.536,0A3.536,3.536,0,1,1,-3.536,0A3.536,3.536,0,1,1,3.536,0" fill="#4e79a7" stroke-width="2" opacity="0.55"/><path aria-label="date: Sep 25, 2025; count: 11; Date: Sep 25, 2025; Daily unique: 11; 7d avg: 18.4285714286" role="graphics-symbol" aria-roledescription="point" transform="translate(652.2448979591836,384)" d="M3.536,0A3.536,3.536,0,1,1,-3.536,0A3.536,3.536,0,1,1,3.536,0" fill="#4e79a7" stroke-width="2" opacity="0.55"/><path aria-label="date: Sep 26, 2025; count: 25; Date: Sep 26, 2025; Daily unique: 25; 7d avg: 18" role="graphics-symbol" aria-roledescription="point" transform="translate(690.6122448979593,261.8181818181818)" d="M3.536,0A3.536,3.536,0,1,1,-3.536,0A3.536,3.536,0,1,1,3.536,0" fill="#4e79a7" stroke-width="2" opacity="0.55"/><path aria-label="date: Sep 27, 2025; count: 7; Date: Sep 27, 2025; Daily unique: 7; 7d avg: 15.5714285714" role="graphics-symbol" aria-roledescription="point" transform="translate(728.9795918367347,418.90909090909093)" d="M3.536,0A3.536,3.536,0,1,1,-3.536,0A3.536,3.536,0,1,1,3.536,0" fill="#4e79a7" stroke-width="2" opacity="0.55"/><path aria-label="date: Sep 28, 2025; count: 14; Date: Sep 28, 2025; Daily unique: 14; 7d avg: 15.4285714286" role="graphics-symbol" aria-roledescription="point" transform="translate(767.3469387755102,357.8181818181818)" d="M3.536,0A3.536,3.536,0,1,1,-3.536,0A3.536,3.536,0,1,1,3.536,0" fill="#4e79a7" stroke-width="2" opacity="0.55"/><path aria-label="date: Sep 29, 2025; count: 38; Date: Sep 29, 2025; Daily unique: 38; 7d avg: 18.5714285714" role="graphics-symbol" aria-roledescription="point" transform="translate(805.7142857142857,148.36363636363637)" d="M3.536,0A3.536,3.536,0,1,1,-3.536,0A3.536,3.536,0,1,1,3.536,0" fill="#4e79a7" stroke-width="2" opacity="0.55"/><path aria-label="date: Sep 30, 2025; count: 27; Date: Sep 30, 2025; Daily unique: 27; 7d avg: 20" role="graphics-symbol" aria-roledescription="point" transform="translate(844.0816326530612,244.36363636363635)" d="M3.536,0A3.536,3.536,0,1,1,-3.536,0A3.536,3.536,0,1,1,3.536,0" fill="#4e79a7" stroke-width="2" opacity="0.55"/><path aria-label="date: Oct 01, 2025; count: 9; Date: Oct 01, 2025; Daily unique: 9; 7d avg: 18.7142857143" role="graphics-symbol" aria-roledescription="point" transform="translate(882.4489795918367,401.4545454545455)" d="M3.536,0A3.536,3.536,0,1,1,-3.536,0A3.536,3.536,0,1,1,3.536,0" fill="#4e79a7" stroke-width="2" opacity="0.55"/><path aria-label="date: Oct 02, 2025; count: 36; Date: Oct 02, 2025; Daily unique: 36; 7d avg: 22.2857142857" role="graphics-symbol" aria-roledescription="point" transform="translate(920.8163265306122,165.8181818181818)" d="M3.536,0A3.536,3.536,0,1,1,-3.536,0A3.536,3.536,0,1,1,3.536,0" fill="#4e79a7" stroke-width="2" opacity="0.55"/><path aria-label="date: Oct 03, 2025; count: 26; Date: Oct 03, 2025; Daily unique: 26; 7d avg: 22.4285714286" role="graphics-symbol" aria-roledescription="point" transform="translate(959.1836734693878,253.09090909090912)" d="M3.536,0A3.536,3.536,0,1,1,-3.536,0A3.536,3.536,0,1,1,3.536,0" fill="#4e79a7" stroke-width="2" opacity="0.55"/><path aria-label="date: Oct 04, 2025; count: 26; Date: Oct 04, 2025; Daily unique: 26; 7d avg: 25.1428571429" role="graphics-symbol" aria-roledescription="point" transform="translate(997.5510204081634,253.09090909090912)" d="M3.536,0A3.536,3.536,0,1,1,-3.536,0A3.536,3.536,0,1,1,3.536,0" fill="#4e79a7" stroke-width="2" opacity="0.55"/><path aria-label="date: Oct 05, 2025; count: 16; Date: Oct 05, 2025; Daily unique: 16; 7d avg: 25.4285714286" role="graphics-symbol" aria-roledescription="point" transform="translate(1035.9183673469386,340.3636363636364)" d="M3.536,0A3.536,3.536,0,1,1,-3.536,0A3.536,3.536,0,1,1,3.536,0" fill="#4e79a7" stroke-width="2" opacity="0.55"/><path aria-label="date: Oct 06, 2025; count: 20; Date: Oct 06, 2025; Daily unique: 20; 7d avg: 22.8571428571" role="graphics-symbol" aria-roledescription="point" transform="translate(1074.2857142857142,305.45454545454544)" d="M3.536,0A3.536,3.536,0,1,1,-3.536,0A3.536,3.536,0,1,1,3.536,0" fill="#4e79a7" stroke-width="2" opacity="0.55"/><path aria-label="date: Oct 07, 2025; count: 31; Date: Oct 07, 2025; Daily unique: 31; 7d avg: 23.4285714286" role="graphics-symbol" aria-roledescription="point" transform="translate(1112.6530612244899,209.45454545454547)" d="M3.536,0A3.536,3.536,0,1,1,-3.536,0A3.536,3.536,0,1,1,3.536,0" fill="#4e79a7" stroke-width="2" opacity="0.55"/><path aria-label="date: Oct 08, 2025; count: 26; Date: Oct 08, 2025; Daily unique: 26; 7d avg: 25.8571428571" role="graphics-symbol" aria-roledescription="point" transform="translate(1151.0204081632653,253.09090909090912)" d="M3.536,0A3.536,3.536,0,1,1,-3.536,0A3.536,3.536,0,1,1,3.536,0" fill="#4e79a7" stroke-width="2" opacity="0.55"/><path aria-label="date: Oct 09, 2025; count: 15; Date: Oct 09, 2025; Daily unique: 15; 7d avg: 22.8571428571" role="graphics-symbol" aria-roledescription="point" transform="translate(1189.387755102041,349.0909090909091)" d="M3.536,0A3.536,3.536,0,1,1,-3.536,0A3.536,3.536,0,1,1,3.536,0" fill="#4e79a7" stroke-width="2" opacity="0.55"/><path aria-label="date: Oct 10, 2025; count: 19; Date: Oct 10, 2025; Daily unique: 19; 7d avg: 21.8571428571" role="graphics-symbol" aria-roledescription="point" transform="translate(1227.7551020408162,314.1818181818182)" d="M3.536,0A3.536,3.536,0,1,1,-3.536,0A3.536,3.536,0,1,1,3.536,0" fill="#4e79a7" stroke-width="2" opacity="0.55"/><path aria-label="date: Oct 11, 2025; count: 9; Date: Oct 11, 2025; Daily unique: 9; 7d avg: 19.4285714286" role="graphics-symbol" aria-roledescription="point" transform="translate(1266.1224489795918,401.4545454545455)" d="M3.536,0A3.536,3.536,0,1,1,-3.536,0A3.536,3.536,0,1,1,3.536,0" fill="#4e79a7" stroke-width="2" opacity="0.55"/><path aria-label="date: Oct 12, 2025; count: 15; Date: Oct 12, 2025; Daily unique: 15; 7d avg: 19.2857142857" role="graphics-symbol" aria-roledescription="point" transform="translate(1304.4897959183672,349.0909090909091)" d="M3.536,0A3.536,3.536,0,1,1,-3.536,0A3.536,3.536,0,1,1,3.536,0" fill="#4e79a7" stroke-width="2" opacity="0.55"/><path aria-label="date: Oct 13, 2025; count: 15; Date: Oct 13, 2025; Daily unique: 15; 7d avg: 18.5714285714" role="graphics-symbol" aria-roledescription="point" transform="translate(1342.857142857143,349.0909090909091)" d="M3.536,0A3.536,3.536,0,1,1,-3.536,0A3.536,3.536,0,1,1,3.536,0" fill="#4e79a7" stroke-width="2" opacity="0.55"/><path aria-label="date: Oct 14, 2025; count: 13; Date: Oct 14, 2025; Daily unique: 13; 7d avg: 16" role="graphics-symbol" aria-roledescription="point" transform="translate(1381.2244897959185,366.54545454545456)" d="M3.536,0A3.536,3.536,0,1,1,-3.536,0A3.536,3.536,0,1,1,3.536,0" fill="#4e79a7" stroke-width="2" opacity="0.55"/><path aria-label="date: Oct 15, 2025; count: 19; Date: Oct 15, 2025; Daily unique: 19; 7d avg: 15" role="graphics-symbol" aria-roledescription="point" transform="translate(1419.5918367346937,314.1818181818182)" d="M3.536,0A3.536,3.536,0,1,1,-3.536,0A3.536,3.536,0,1,1,3.536,0" fill="#4e79a7" stroke-width="2" opacity="0.55"/><path aria-label="date: Oct 16, 2025; count: 16; Date: Oct 16, 2025; Daily unique: 16; 7d avg: 15.1428571429" role="graphics-symbol" aria-roledescription="point" transform="translate(1457.9591836734694,340.3636363636364)" d="M3.536,0A3.536,3.536,0,1,1,-3.536,0A3.536,3.536,0,1,1,3.536,0" fill="#4e79a7" stroke-width="2" opacity="0.55"/><path aria-label="date: Oct 17, 2025; count: 12; Date: Oct 17, 2025; Daily unique: 12; 7d avg: 14.1428571429" role="graphics-symbol" aria-roledescription="point" transform="translate(1496.3265306122448,375.2727272727273)" d="M3.536,0A3.536,3.536,0,1,1,-3.536,0A3.536,3.536,0,1,1,3.536,0" fill="#4e79a7" stroke-width="2" opacity="0.55"/><path aria-label="date: Oct 18, 2025; count: 3; Date: Oct 18, 2025; Daily unique: 3; 7d avg: 13.2857142857" role="graphics-symbol" aria-roledescription="point" transform="translate(1534.6938775510205,453.8181818181818)" d="M3.536,0A3.536,3.536,0,1,1,-3.536,0A3.536,3.536,0,1,1,3.536,0" fill="#4e79a7" stroke-width="2" opacity="0.55"/><path aria-label="date: Oct 19, 2025; count: 6; Date: Oct 19, 2025; Daily unique: 6; 7d avg: 12" role="graphics-symbol" aria-roledescription="point" transform="translate(1573.061224489796,427.6363636363636)" d="M3.536,0A3.536,3.536,0,1,1,-3.536,0A3.536,3.536,0,1,1,3.536,0" fill="#4e79a7" stroke-width="2" opacity="0.55"/><path aria-label="date: Oct 20, 2025; count: 13; Date: Oct 20, 2025; Daily unique: 13; 7d avg: 11.7142857143" role="graphics-symbol" aria-roledescription="point" transform="translate(1611.4285714285713,366.54545454545456)" d="M3.536,0A3.536,3.536,0,1,1,-3.536,0A3.536,3.536,0,1,1,3.536,0" fill="#4e79a7" stroke-width="2" opacity="0.55"/><path aria-label="date: Oct 21, 2025; count: 10; Date: Oct 21, 2025; Daily unique: 10; 7d avg: 11.2857142857" role="graphics-symbol" aria-roledescription="point" transform="translate(1649.795918367347,392.7272727272727)" d="M3.536,0A3.536,3.536,0,1,1,-3.536,0A3.536,3.536,0,1,1,3.536,0" fill="#4e79a7" stroke-width="2" opacity="0.55"/><path aria-label="date: Oct 22, 2025; count: 17; Date: Oct 22, 2025; Daily unique: 17; 7d avg: 11" role="graphics-symbol" aria-roledescription="point" transform="translate(1688.1632653061224,331.6363636363636)" d="M3.536,0A3.536,3.536,0,1,1,-3.536,0A3.536,3.536,0,1,1,3.536,0" fill="#4e79a7" stroke-width="2" opacity="0.55"/><path aria-label="date: Oct 23, 2025; count: 12; Date: Oct 23, 2025; Daily unique: 12; 7d avg: 10.4285714286" role="graphics-symbol" aria-roledescription="point" transform="translate(1726.530612244898,375.2727272727273)" d="M3.536,0A3.536,3.536,0,1,1,-3.536,0A3.536,3.536,0,1,1,3.536,0" fill="#4e79a7" stroke-width="2" opacity="0.55"/><path aria-label="date: Oct 24, 2025; count: 13; Date: Oct 24, 2025; Daily unique: 13; 7d avg: 10.5714285714" role="graphics-symbol" aria-roledescription="point" transform="translate(1764.8979591836735,366.54545454545456)" d="M3.536,0A3.536,3.536,0,1,1,-3.536,0A3.536,3.536,0,1,1,3.536,0" fill="#4e79a7" stroke-width="2" opacity="0.55"/><path aria-label="date: Oct 25, 2025; count: 15; Date: Oct 25, 2025; Daily unique: 15; 7d avg: 12.2857142857" role="graphics-symbol" aria-roledescription="point" transform="translate(1803.265306122449,349.0909090909091)" d="M3.536,0A3.536,3.536,0,1,1,-3.536,0A3.536,3.536,0,1,1,3.536,0" fill="#4e79a7" stroke-width="2" opacity="0.55"/><path aria-label="date: Oct 26, 2025; count: 10; Date: Oct 26, 2025; Daily unique: 10; 7d avg: 12.8571428571" role="graphics-symbol" aria-roledescription="point" transform="translate(1841.6326530612243,392.7272727272727)" d="M3.536,0A3.536,3.536,0,1,1,-3.536,0A3.536,3.536,0,1,1,3.536,0" fill="#4e79a7" stroke-width="2" opacity="0.55"/><path aria-label="date: Oct 27, 2025; count: 6; Date: Oct 27, 2025; Daily unique: 6; 7d avg: 11.8571428571" role="graphics-symbol" aria-roledescription="point" transform="translate(1880,427.6363636363636)" d="M3.536,0A3.536,3.536,0,1,1,-3.536,0A3.536,3.536,0,1,1,3.536,0" fill="#4e79a7" stroke-width="2" opacity="0.55"/></g><g class="mark-path role-mark layer_3_voronoi" aria-hidden="true"><path transform="translate(0,0)" d="M0,296.8589548726992L23.038657919834606,305.54043165444443L25.56908634752652,306.97584036315266L149.21948372443924,450.02823797294474L168.53590752988376,480L0,480Z" stroke-width="0.35"/><path transform="translate(0,0)" d="M72.43971391968086,0L0,106.1545694344528L0,0Z" stroke-width="0.35"/><path transform="translate(0,0)" d="M245.05170761816242,0L220.10891916736517,63.96538506479254L0,128.47576556906003L0,106.1545694344528L72.43971391968086,0Z" stroke-width="0.35"/><path transform="translate(0,0)" d="M222.63451058167834,86.1716905273757L23.038657919834606,305.54043165444443L0,296.8589548726992L0,128.47576556906003L220.10891916736517,63.96538506479254Z" stroke-width="0.35"/><path transform="translate(0,0)" d="M246.99443027268387,163.4936841584073L205.90620162012527,240.90845898848312L25.56908634752652,306.97584036315266L23.038657919834606,305.54043165444443L222.63451058167834,86.1716905273757L247.1187090865622,163.05659472456318Z" stroke-width="0.35"/><path transform="translate(0,0)" d="M205.90620162012527,240.90845898848312L227.26654856303932,278.4707017418388L149.21948372443924,450.02823797294474L25.56908634752652,306.97584036315266Z" stroke-width="0.35"/><path transform="translate(0,0)" d="M360.8098767265869,373.7483774236214L350.4518848932223,480L168.53590752988376,480L149.21948372443924,450.02823797294474L227.26654856303932,278.4707017418388L328.115045915676,341.8072823192357Z" stroke-width="0.35"/><path transform="translate(0,0)" d="M246.99443027268387,163.4936841584073L328.115045915676,341.8072823192357L227.26654856303932,278.4707017418388L205.90620162012527,240.90845898848312Z" stroke-width="0.35"/><path transform="translate(0,0)" d="M365.2082911486764,365.6914745883738L360.8098767265869,373.7483774236214L328.115045915676,341.8072823192357L246.99443027268387,163.4936841584073L247.1187090865622,163.05659472456318L361.8425628908651,205.08623787707504L371.30869197119534,329.93288926816626Z" stroke-width="0.35"/><path transform="translate(0,0)" d="M304.93502187229734,0L388.5306259292886,183.75394259126037L361.8425628908651,205.08623787707504L247.1187090865622,163.05659472456318L222.63451058167834,86.1716905273757L220.10891916736517,63.96538506479254L245.05170761816242,0Z" stroke-width="0.35"/><path transform="translate(0,0)" d="M555.7700148367184,127.19797446911156L388.5306259292886,183.75394259126037L304.93502187229734,0L603.0856866211485,0L599.706080443894,54.47794878130935L569.9628923715135,119.85732052204362Z" stroke-width="0.35"/><path transform="translate(0,0)" d="M555.7700148367184,127.19797446911156L371.30869197119534,329.93288926816626L361.8425628908651,205.08623787707504L388.5306259292886,183.75394259126037Z" stroke-width="0.35"/><path transform="translate(0,0)" d="M567.5046352045301,207.74178940592924L539.257880952979,260.9618037938738L506.9758760940634,296.4418133858367L365.2082911486764,365.6914745883738L371.30869197119534,329.93288926816626L555.7700148367184,127.19797446911156L569.9628923715135,119.85732052204362L572.7156779335613,192.46906213320193Z" stroke-width="0.35"/><path transform="translate(0,0)" d="M506.9758760940634,296.4418133858367L548.729150263939,480L350.4518848932223,480L360.8098767265869,373.7483774236214L365.2082911486764,365.6914745883738Z" stroke-width="0.35"/><path transform="translate(0,0)" d="M539.257880952979,260.9618037938738L574.436459092165,415.6159270758395L550.0277970164678,480L548.729150263939,480L506.9758760940634,296.4418133858367Z" stroke-width="0.35"/><path transform="translate(0,0)" d="M567.5046352045301,207.74178940592924L604.7008386473984,371.265915085886L574.436459092165,415.6159270758395L539.257880952979,260.9618037938738Z" stroke-width="0.35"/><path transform="translate(0,0)" d="M678.2746060055814,325.05887217507376L604.7008386473984,371.265915085886L567.5046352045301,207.74178940592924L572.7156779335613,192.46906213320193Z" stroke-width="0.35"/><path transform="translate(0,0)" d="M708.0333985255786,363.16059806730357L654.8793804703171,480L550.0277970164678,480L574.436459092165,415.6159270758395L604.7008386473984,371.265915085886L678.2746060055814,325.05887217507376L700.9890024868748,332.19161208082494Z" stroke-width="0.35"/><path transform="translate(0,0)" d="M770.0637797865762,276.97877988548544L700.9890024868748,332.19161208082494L678.2746060055814,325.05887217507376L572.7156779335613,192.46906213320193L569.9628923715135,119.85732052204362L599.706080443894,54.47794878130935L763.6779014826855,220.83083629515372Z" stroke-width="0.35"/><path transform="translate(0,0)" d="M654.8793804703171,480L708.0333985255786,363.16059806730357L807.4689576795131,425.6098012774398L813.6549222537617,480Z" stroke-width="0.35"/><path transform="translate(0,0)" d="M844.6832930449896,327.44749829809626L807.4689576795131,425.6098012774398L708.0333985255786,363.16059806730357L700.9890024868748,332.19161208082494L770.0637797865762,276.97877988548544Z" stroke-width="0.35"/><path transform="translate(0,0)" d="M887.0872157408771,0L859.400917074885,182.5741889071147L763.6779014826855,220.83083629515372L599.706080443894,54.47794878130935L603.0856866211485,0Z" stroke-width="0.35"/><path transform="translate(0,0)" d="M903.390060445029,225.54922126230065L896.6258228594097,314.7612322767172L844.6832930449896,327.44749829809626L770.0637797865762,276.97877988548544L763.6779014826855,220.83083629515372L859.400917074885,182.5741889071147Z" stroke-width="0.35"/><path transform="translate(0,0)" d="M947.2572507267173,340.94815525330586L1002.6090295446471,480L813.6549222537617,480L807.4689576795131,425.6098012774398L844.6832930449896,327.44749829809626L896.6258228594097,314.7612322767172Z" stroke-width="0.35"/><path transform="translate(0,0)" d="M1059.4156152772348,0L1024.9188266831263,151.65680019688753L978.3673469387757,192.58726793129117L903.390060445029,225.54922126230065L859.400917074885,182.5741889071147L887.0872157408771,0Z" stroke-width="0.35"/><path transform="translate(0,0)" d="M978.3673469387757,313.59455025052677L947.2572507267173,340.94815525330586L896.6258228594097,314.7612322767172L903.390060445029,225.54922126230065L978.3673469387757,192.58726793129117Z" stroke-width="0.35"/><path transform="translate(0,0)" d="M978.3673469387757,313.59455025052677L978.3673469387757,192.58726793129117L1024.9188266831263,151.65680019688753L1059.9489880505948,244.05778706924062L1027.1242919635135,292.1597368340392Z" stroke-width="0.35"/><path transform="translate(0,0)" d="M978.3673469387757,313.59455025052677L1027.1242919635135,292.1597368340392L1110.435447750403,383.7240810981167L1104.9605695768723,480L1002.6090295446471,480L947.2572507267173,340.94815525330586Z" stroke-width="0.35"/><path transform="translate(0,0)" d="M1027.1242919635135,292.1597368340392L1059.9489880505948,244.05778706924062L1099.3749851971736,259.81477572476115L1136.6836819281457,314.487667476214L1110.435447750403,383.7240810981167Z" stroke-width="0.35"/><path transform="translate(0,0)" d="M1024.9188266831263,151.65680019688753L1059.4156152772348,0L1355.4546100486968,0L1338.5621628992724,49.5090429492769L1099.3749851971736,259.81477572476115L1059.9489880505948,244.05778706924062Z" stroke-width="0.35"/><path transform="translate(0,0)" d="M1136.6836819281457,314.487667476214L1099.3749851971736,259.81477572476115L1338.5621628992724,49.5090429492769L1323.673469387755,114.96358840382203L1177.9591689364331,297.99151195419427Z" stroke-width="0.35"/><path transform="translate(0,0)" d="M1136.6836819281457,314.487667476214L1177.9591689364331,297.99151195419427L1236.5491774242416,362.3857177114153L1156.2893731855322,480L1104.9605695768723,480L1110.435447750403,383.7240810981167Z" stroke-width="0.35"/><path transform="translate(0,0)" d="M1177.9591689364331,297.99151195419427L1323.673469387755,114.96358840382203L1323.673469387755,205.1317822119572L1256.0296738354211,353.82158791160253L1236.5491774242416,362.3857177114153Z" stroke-width="0.35"/><path transform="translate(0,0)" d="M1156.2893731855322,480L1236.5491774242416,362.3857177114153L1256.0296738354211,353.82158791160253L1323.673469387755,403.38485647815094L1334.2560262395798,418.89274166067196L1352.789136699167,480Z" stroke-width="0.35"/><path transform="translate(0,0)" d="M1256.0296738354211,353.82158791160253L1323.673469387755,205.1317822119572L1323.6734693877552,205.13178221195756L1323.673469387755,403.38485647815094Z" stroke-width="0.35"/><path transform="translate(0,0)" d="M1323.673469387755,403.38485647815094L1323.6734693877552,205.13178221195756L1377.5881304658315,323.6431758232051L1334.2560262395798,418.89274166067196Z" stroke-width="0.35"/><path transform="translate(0,0)" d="M1352.789136699167,480L1334.2560262395798,418.89274166067196L1377.5881304658315,323.6431758232051L1420.0309171532163,354.7414194702824L1436.3703836468487,402.629765146065L1432.3883234753641,455.1482628159015L1418.2560009760896,480Z" stroke-width="0.35"/><path transform="translate(0,0)" d="M1338.5621628992724,49.5090429492769L1355.4546100486968,0L1574.8635190175946,0L1565.6801091376738,141.30425321187874L1420.0309171532163,354.7414194702824L1377.5881304658315,323.6431758232051L1323.6734693877552,205.13178221195756L1323.673469387755,205.1317822119572L1323.673469387755,114.96358840382203Z" stroke-width="0.35"/><path transform="translate(0,0)" d="M1420.0309171532163,354.7414194702824L1565.6801091376738,141.30425321187874L1566.6267502649828,166.27432784549146L1547.05865496758,280.97620164092496L1436.3703836468487,402.629765146065Z" stroke-width="0.35"/><path transform="translate(0,0)" d="M1432.3883234753641,455.1482628159015L1436.3703836468487,402.629765146065L1547.05865496758,280.97620164092496L1554.0436007650817,373.0990837151187L1530.8858901253486,407.0348444881972Z" stroke-width="0.35"/><path transform="translate(0,0)" d="M1418.2560009760896,480L1432.3883234753641,455.1482628159015L1530.8858901253486,407.0348444881972L1580.6771993411398,480Z" stroke-width="0.35"/><path transform="translate(0,0)" d="M1580.6771993411398,480L1530.8858901253486,407.0348444881972L1554.0436007650817,373.0990837151187L1610.7643724498769,408.7218229777997L1643.1911175864755,480Z" stroke-width="0.35"/><path transform="translate(0,0)" d="M1547.05865496758,280.97620164092496L1566.6267502649828,166.27432784549146L1650.4601173460414,350.55090429492753L1610.7643724498769,408.7218229777997L1554.0436007650817,373.0990837151187Z" stroke-width="0.35"/><path transform="translate(0,0)" d="M1710.0000157896814,480L1643.1911175864755,480L1610.7643724498769,408.7218229777997L1650.4601173460414,350.55090429492753L1685.5704967409858,372.6015191481664Z" stroke-width="0.35"/><path transform="translate(0,0)" d="M1565.6801091376738,141.30425321187874L1574.8635190175946,0L1797.3284232208796,0L1753.3209633141105,290.2022547423423L1736.0111293330415,328.2515071582127L1685.5704967409858,372.6015191481664L1650.4601173460414,350.55090429492753L1566.6267502649828,166.27432784549146Z" stroke-width="0.35"/><path transform="translate(0,0)" d="M1710.0000157896814,480L1685.5704967409858,372.6015191481664L1736.0111293330415,328.2515071582127L1769.9257893584725,477.34911968497937L1769.5237989973552,480Z" stroke-width="0.35"/><path transform="translate(0,0)" d="M1769.9257893584725,477.34911968497937L1736.0111293330415,328.2515071582127L1753.3209633141105,290.2022547423423L1799.2976442102877,391.2649419163371Z" stroke-width="0.35"/><path transform="translate(0,0)" d="M1880,320.30725833932826L1799.2976442102877,391.2649419163371L1753.3209633141105,290.2022547423423L1797.3284232208796,0L1880,0Z" stroke-width="0.35"/><path transform="translate(0,0)" d="M1880,389.0977212777502L1797.2912342148043,480L1769.5237989973552,480L1769.9257893584725,477.34911968497937L1799.2976442102877,391.2649419163371L1880,320.30725833932826Z" stroke-width="0.35"/><path transform="translate(0,0)" d="M1797.2912342148043,480L1880,389.0977212777502L1880,480Z" stroke-width="0.35"/></g><g class="mark-symbol role-mark layer_4_marks" role="graphics-object" aria-roledescription="symbol mark container"><path aria-label="date: Sep 08, 2025; count: 1; Peak date: Sep 08, 2025; Peak unique count: 1" role="graphics-symbol" aria-roledescription="point" transform="translate(0,471.27272727272725)" d="M-5.916,0L0,-5.916L5.916,0L0,5.916Z" fill="#ff9900" stroke="#b36b00" stroke-width="1.5" opacity="0"/><path aria-label="date: Sep 09, 2025; count: 54; Peak date: Sep 09, 2025; Peak unique count: 54" role="graphics-symbol" aria-roledescription="point" transform="translate(38.367346938775505,8.72727272727273)" d="M-5.916,0L0,-5.916L5.916,0L0,5.916Z" fill="#ff9900" stroke="#b36b00" stroke-width="1.5" opacity="1"/><path aria-label="date: Sep 10, 2025; count: 51; Peak date: Sep 10, 2025; Peak unique count: 51" role="graphics-symbol" aria-roledescription="point" transform="translate(76.73469387755101,34.90909090909092)" d="M-5.916,0L0,-5.916L5.916,0L0,5.916Z" fill="#ff9900" stroke="#b36b00" stroke-width="1.5" opacity="0"/><path aria-label="date: Sep 11, 2025; count: 36; Peak date: Sep 11, 2025; Peak unique count: 36" role="graphics-symbol" aria-roledescription="point" transform="translate(115.10204081632652,165.8181818181818)" d="M-5.916,0L0,-5.916L5.916,0L0,5.916Z" fill="#ff9900" stroke="#b36b00" stroke-width="1.5" opacity="0"/><path aria-label="date: Sep 12, 2025; count: 32; Peak date: Sep 12, 2025; Peak unique count: 32" role="graphics-symbol" aria-roledescription="point" transform="translate(153.46938775510202,200.72727272727275)" d="M-5.916,0L0,-5.916L5.916,0L0,5.916Z" fill="#ff9900" stroke="#b36b00" stroke-width="1.5" opacity="0"/><path aria-label="date: Sep 13, 2025; count: 20; Peak date: Sep 13, 2025; Peak unique count: 20" role="graphics-symbol" aria-roledescription="point" transform="translate(191.83673469387756,305.45454545454544)" d="M-5.916,0L0,-5.916L5.916,0L0,5.916Z" fill="#ff9900" stroke="#b36b00" stroke-width="1.5" opacity="0"/><path aria-label="date: Sep 14, 2025; count: 18; Peak date: Sep 14, 2025; Peak unique count: 18" role="graphics-symbol" aria-roledescription="point" transform="translate(230.20408163265304,322.90909090909093)" d="M-5.916,0L0,-5.916L5.916,0L0,5.916Z" fill="#ff9900" stroke="#b36b00" stroke-width="1.5" opacity="0"/><path aria-label="date: Sep 15, 2025; count: 25; Peak date: Sep 15, 2025; Peak unique count: 25" role="graphics-symbol" aria-roledescription="point" transform="translate(268.57142857142856,261.8181818181818)" d="M-5.916,0L0,-5.916L5.916,0L0,5.916Z" fill="#ff9900" stroke="#b36b00" stroke-width="1.5" opacity="0"/><path aria-label="date: Sep 16, 2025; count: 27; Peak date: Sep 16, 2025; Peak unique count: 27" role="graphics-symbol" aria-roledescription="point" transform="translate(306.93877551020404,244.36363636363635)" d="M-5.916,0L0,-5.916L5.916,0L0,5.916Z" fill="#ff9900" stroke="#b36b00" stroke-width="1.5" opacity="0"/><path aria-label="date: Sep 17, 2025; count: 39; Peak date: Sep 17, 2025; Peak unique count: 39" role="graphics-symbol" aria-roledescription="point" transform="translate(345.30612244897964,139.63636363636363)" d="M-5.916,0L0,-5.916L5.916,0L0,5.916Z" fill="#ff9900" stroke="#b36b00" stroke-width="1.5" opacity="0"/><path aria-label="date: Sep 18, 2025; count: 41; Peak date: Sep 18, 2025; Peak unique count: 41" role="graphics-symbol" aria-roledescription="point" transform="translate(383.6734693877551,122.18181818181817)" d="M-5.916,0L0,-5.916L5.916,0L0,5.916Z" fill="#ff9900" stroke="#b36b00" stroke-width="1.5" opacity="0"/><path aria-label="date: Sep 19, 2025; count: 28; Peak date: Sep 19, 2025; Peak unique count: 28" role="graphics-symbol" aria-roledescription="point" transform="translate(422.0408163265306,235.63636363636365)" d="M-5.916,0L0,-5.916L5.916,0L0,5.916Z" fill="#ff9900" stroke="#b36b00" stroke-width="1.5" opacity="0"/><path aria-label="date: Sep 20, 2025; count: 24; Peak date: Sep 20, 2025; Peak unique count: 24" role="graphics-symbol" aria-roledescription="point" transform="translate(460.4081632653061,270.54545454545456)" d="M-5.916,0L0,-5.916L5.916,0L0,5.916Z" fill="#ff9900" stroke="#b36b00" stroke-width="1.5" opacity="0"/><path aria-label="date: Sep 21, 2025; count: 15; Peak date: Sep 21, 2025; Peak unique count: 15" role="graphics-symbol" aria-roledescription="point" transform="translate(498.7755102040817,349.0909090909091)" d="M-5.916,0L0,-5.916L5.916,0L0,5.916Z" fill="#ff9900" stroke="#b36b00" stroke-width="1.5" opacity="0"/><path aria-label="date: Sep 22, 2025; count: 16; Peak date: Sep 22, 2025; Peak unique count: 16" role="graphics-symbol" aria-roledescription="point" transform="translate(537.1428571428571,340.3636363636364)" d="M-5.916,0L0,-5.916L5.916,0L0,5.916Z" fill="#ff9900" stroke="#b36b00" stroke-width="1.5" opacity="0"/><path aria-label="date: Sep 23, 2025; count: 17; Peak date: Sep 23, 2025; Peak unique count: 17" role="graphics-symbol" aria-roledescription="point" transform="translate(575.5102040816327,331.6363636363636)" d="M-5.916,0L0,-5.916L5.916,0L0,5.916Z" fill="#ff9900" stroke="#b36b00" stroke-width="1.5" opacity="0"/><path aria-label="date: Sep 24, 2025; count: 18; Peak date: Sep 24, 2025; Peak unique count: 18" role="graphics-symbol" aria-roledescription="point" transform="translate(613.8775510204081,322.90909090909093)" d="M-5.916,0L0,-5.916L5.916,0L0,5.916Z" fill="#ff9900" stroke="#b36b00" stroke-width="1.5" opacity="0"/><path aria-label="date: Sep 25, 2025; count: 11; Peak date: Sep 25, 2025; Peak unique count: 11" role="graphics-symbol" aria-roledescription="point" transform="translate(652.2448979591836,384)" d="M-5.916,0L0,-5.916L5.916,0L0,5.916Z" fill="#ff9900" stroke="#b36b00" stroke-width="1.5" opacity="0"/><path aria-label="date: Sep 26, 2025; count: 25; Peak date: Sep 26, 2025; Peak unique count: 25" role="graphics-symbol" aria-roledescription="point" transform="translate(690.6122448979593,261.8181818181818)" d="M-5.916,0L0,-5.916L5.916,0L0,5.916Z" fill="#ff9900" stroke="#b36b00" stroke-width="1.5" opacity="0"/><path aria-label="date: Sep 27, 2025; count: 7; Peak date: Sep 27, 2025; Peak unique count: 7" role="graphics-symbol" aria-roledescription="point" transform="translate(728.9795918367347,418.90909090909093)" d="M-5.916,0L0,-5.916L5.916,0L0,5.916Z" fill="#ff9900" stroke="#b36b00" stroke-width="1.5" opacity="0"/><path aria-label="date: Sep 28, 2025; count: 14; Peak date: Sep 28, 2025; Peak unique count: 14" role="graphics-symbol" aria-roledescription="point" transform="translate(767.3469387755102,357.8181818181818)" d="M-5.916,0L0,-5.916L5.916,0L0,5.916Z" fill="#ff9900" stroke="#b36b00" stroke-width="1.5" opacity="0"/><path aria-label="date: Sep 29, 2025; count: 38; Peak date: Sep 29, 2025; Peak unique count: 38" role="graphics-symbol" aria-roledescription="point" transform="translate(805.7142857142857,148.36363636363637)" d="M-5.916,0L0,-5.916L5.916,0L0,5.916Z" fill="#ff9900" stroke="#b36b00" stroke-width="1.5" opacity="0"/><path aria-label="date: Sep 30, 2025; count: 27; Peak date: Sep 30, 2025; Peak unique count: 27" role="graphics-symbol" aria-roledescription="point" transform="translate(844.0816326530612,244.36363636363635)" d="M-5.916,0L0,-5.916L5.916,0L0,5.916Z" fill="#ff9900" stroke="#b36b00" stroke-width="1.5" opacity="0"/><path aria-label="date: Oct 01, 2025; count: 9; Peak date: Oct 01, 2025; Peak unique count: 9" role="graphics-symbol" aria-roledescription="point" transform="translate(882.4489795918367,401.4545454545455)" d="M-5.916,0L0,-5.916L5.916,0L0,5.916Z" fill="#ff9900" stroke="#b36b00" stroke-width="1.5" opacity="0"/><path aria-label="date: Oct 02, 2025; count: 36; Peak date: Oct 02, 2025; Peak unique count: 36" role="graphics-symbol" aria-roledescription="point" transform="translate(920.8163265306122,165.8181818181818)" d="M-5.916,0L0,-5.916L5.916,0L0,5.916Z" fill="#ff9900" stroke="#b36b00" stroke-width="1.5" opacity="0"/><path aria-label="date: Oct 03, 2025; count: 26; Peak date: Oct 03, 2025; Peak unique count: 26" role="graphics-symbol" aria-roledescription="point" transform="translate(959.1836734693878,253.09090909090912)" d="M-5.916,0L0,-5.916L5.916,0L0,5.916Z" fill="#ff9900" stroke="#b36b00" stroke-width="1.5" opacity="0"/><path aria-label="date: Oct 04, 2025; count: 26; Peak date: Oct 04, 2025; Peak unique count: 26" role="graphics-symbol" aria-roledescription="point" transform="translate(997.5510204081634,253.09090909090912)" d="M-5.916,0L0,-5.916L5.916,0L0,5.916Z" fill="#ff9900" stroke="#b36b00" stroke-width="1.5" opacity="0"/><path aria-label="date: Oct 05, 2025; count: 16; Peak date: Oct 05, 2025; Peak unique count: 16" role="graphics-symbol" aria-roledescription="point" transform="translate(1035.9183673469386,340.3636363636364)" d="M-5.916,0L0,-5.916L5.916,0L0,5.916Z" fill="#ff9900" stroke="#b36b00" stroke-width="1.5" opacity="0"/><path aria-label="date: Oct 06, 2025; count: 20; Peak date: Oct 06, 2025; Peak unique count: 20" role="graphics-symbol" aria-roledescription="point" transform="translate(1074.2857142857142,305.45454545454544)" d="M-5.916,0L0,-5.916L5.916,0L0,5.916Z" fill="#ff9900" stroke="#b36b00" stroke-width="1.5" opacity="0"/><path aria-label="date: Oct 07, 2025; count: 31; Peak date: Oct 07, 2025; Peak unique count: 31" role="graphics-symbol" aria-roledescription="point" transform="translate(1112.6530612244899,209.45454545454547)" d="M-5.916,0L0,-5.916L5.916,0L0,5.916Z" fill="#ff9900" stroke="#b36b00" stroke-width="1.5" opacity="0"/><path aria-label="date: Oct 08, 2025; count: 26; Peak date: Oct 08, 2025; Peak unique count: 26" role="graphics-symbol" aria-roledescription="point" transform="translate(1151.0204081632653,253.09090909090912)" d="M-5.916,0L0,-5.916L5.916,0L0,5.916Z" fill="#ff9900" stroke="#b36b00" stroke-width="1.5" opacity="0"/><path aria-label="date: Oct 09, 2025; count: 15; Peak date: Oct 09, 2025; Peak unique count: 15" role="graphics-symbol" aria-roledescription="point" transform="translate(1189.387755102041,349.0909090909091)" d="M-5.916,0L0,-5.916L5.916,0L0,5.916Z" fill="#ff9900" stroke="#b36b00" stroke-width="1.5" opacity="0"/><path aria-label="date: Oct 10, 2025; count: 19; Peak date: Oct 10, 2025; Peak unique count: 19" role="graphics-symbol" aria-roledescription="point" transform="translate(1227.7551020408162,314.1818181818182)" d="M-5.916,0L0,-5.916L5.916,0L0,5.916Z" fill="#ff9900" stroke="#b36b00" stroke-width="1.5" opacity="0"/><path aria-label="date: Oct 11, 2025; count: 9; Peak date: Oct 11, 2025; Peak unique count: 9" role="graphics-symbol" aria-roledescription="point" transform="translate(1266.1224489795918,401.4545454545455)" d="M-5.916,0L0,-5.916L5.916,0L0,5.916Z" fill="#ff9900" stroke="#b36b00" stroke-width="1.5" opacity="0"/><path aria-label="date: Oct 12, 2025; count: 15; Peak date: Oct 12, 2025; Peak unique count: 15" role="graphics-symbol" aria-roledescription="point" transform="translate(1304.4897959183672,349.0909090909091)" d="M-5.916,0L0,-5.916L5.916,0L0,5.916Z" fill="#ff9900" stroke="#b36b00" stroke-width="1.5" opacity="0"/><path aria-label="date: Oct 13, 2025; count: 15; Peak date: Oct 13, 2025; Peak unique count: 15" role="graphics-symbol" aria-roledescription="point" transform="translate(1342.857142857143,349.0909090909091)" d="M-5.916,0L0,-5.916L5.916,0L0,5.916Z" fill="#ff9900" stroke="#b36b00" stroke-width="1.5" opacity="0"/><path aria-label="date: Oct 14, 2025; count: 13; Peak date: Oct 14, 2025; Peak unique count: 13" role="graphics-symbol" aria-roledescription="point" transform="translate(1381.2244897959185,366.54545454545456)" d="M-5.916,0L0,-5.916L5.916,0L0,5.916Z" fill="#ff9900" stroke="#b36b00" stroke-width="1.5" opacity="0"/><path aria-label="date: Oct 15, 2025; count: 19; Peak date: Oct 15, 2025; Peak unique count: 19" role="graphics-symbol" aria-roledescription="point" transform="translate(1419.5918367346937,314.1818181818182)" d="M-5.916,0L0,-5.916L5.916,0L0,5.916Z" fill="#ff9900" stroke="#b36b00" stroke-width="1.5" opacity="0"/><path aria-label="date: Oct 16, 2025; count: 16; Peak date: Oct 16, 2025; Peak unique count: 16" role="graphics-symbol" aria-roledescription="point" transform="translate(1457.9591836734694,340.3636363636364)" d="M-5.916,0L0,-5.916L5.916,0L0,5.916Z" fill="#ff9900" stroke="#b36b00" stroke-width="1.5" opacity="0"/><path aria-label="date: Oct 17, 2025; count: 12; Peak date: Oct 17, 2025; Peak unique count: 12" role="graphics-symbol" aria-roledescription="point" transform="translate(1496.3265306122448,375.2727272727273)" d="M-5.916,0L0,-5.916L5.916,0L0,5.916Z" fill="#ff9900" stroke="#b36b00" stroke-width="1.5" opacity="0"/><path aria-label="date: Oct 18, 2025; count: 3; Peak date: Oct 18, 2025; Peak unique count: 3" role="graphics-symbol" aria-roledescription="point" transform="translate(1534.6938775510205,453.8181818181818)" d="M-5.916,0L0,-5.916L5.916,0L0,5.916Z" fill="#ff9900" stroke="#b36b00" stroke-width="1.5" opacity="0"/><path aria-label="date: Oct 19, 2025; count: 6; Peak date: Oct 19, 2025; Peak unique count: 6" role="graphics-symbol" aria-roledescription="point" transform="translate(1573.061224489796,427.6363636363636)" d="M-5.916,0L0,-5.916L5.916,0L0,5.916Z" fill="#ff9900" stroke="#b36b00" stroke-width="1.5" opacity="0"/><path aria-label="date: Oct 20, 2025; count: 13; Peak date: Oct 20, 2025; Peak unique count: 13" role="graphics-symbol" aria-roledescription="point" transform="translate(1611.4285714285713,366.54545454545456)" d="M-5.916,0L0,-5.916L5.916,0L0,5.916Z" fill="#ff9900" stroke="#b36b00" stroke-width="1.5" opacity="0"/><path aria-label="date: Oct 21, 2025; count: 10; Peak date: Oct 21, 2025; Peak unique count: 10" role="graphics-symbol" aria-roledescription="point" transform="translate(1649.795918367347,392.7272727272727)" d="M-5.916,0L0,-5.916L5.916,0L0,5.916Z" fill="#ff9900" stroke="#b36b00" stroke-width="1.5" opacity="0"/><path aria-label="date: Oct 22, 2025; count: 17; Peak date: Oct 22, 2025; Peak unique count: 17" role="graphics-symbol" aria-roledescription="point" transform="translate(1688.1632653061224,331.6363636363636)" d="M-5.916,0L0,-5.916L5.916,0L0,5.916Z" fill="#ff9900" stroke="#b36b00" stroke-width="1.5" opacity="0"/><path aria-label="date: Oct 23, 2025; count: 12; Peak date: Oct 23, 2025; Peak unique count: 12" role="graphics-symbol" aria-roledescription="point" transform="translate(1726.530612244898,375.2727272727273)" d="M-5.916,0L0,-5.916L5.916,0L0,5.916Z" fill="#ff9900" stroke="#b36b00" stroke-width="1.5" opacity="0"/><path aria-label="date: Oct 24, 2025; count: 13; Peak date: Oct 24, 2025; Peak unique count: 13" role="graphics-symbol" aria-roledescription="point" transform="translate(1764.8979591836735,366.54545454545456)" d="M-5.916,0L0,-5.916L5.916,0L0,5.916Z" fill="#ff9900" stroke="#b36b00" stroke-width="1.5" opacity="0"/><path aria-label="date: Oct 25, 2025; count: 15; Peak date: Oct 25, 2025; Peak unique count: 15" role="graphics-symbol" aria-roledescription="point" transform="translate(1803.265306122449,349.0909090909091)" d="M-5.916,0L0,-5.916L5.916,0L0,5.916Z" fill="#ff9900" stroke="#b36b00" stroke-width="1.5" opacity="0"/><path aria-label="date: Oct 26, 2025; count: 10; Peak date: Oct 26, 2025; Peak unique count: 10" role="graphics-symbol" aria-roledescription="point" transform="translate(1841.6326530612243,392.7272727272727)" d="M-5.916,0L0,-5.916L5.916,0L0,5.916Z" fill="#ff9900" stroke="#b36b00" stroke-width="1.5" opacity="0"/><path aria-label="date: Oct 27, 2025; count: 6; Peak date: Oct 27, 2025; Peak unique count: 6" role="graphics-symbol" aria-roledescription="point" transform="translate(1880,427.6363636363636)" d="M-5.916,0L0,-5.916L5.916,0L0,5.916Z" fill="#ff9900" stroke="#b36b00" stroke-width="1.5" opacity="0"/></g><g class="mark-rule role-mark layer_5_marks" role="graphics-symbol" aria-roledescription="rule mark container" pointer-events="none"><line transform="translate(1880,303.36)" x2="-1880" y2="0" stroke="#d62728" stroke-width="1.5" stroke-dasharray="4,4"/><line transform="translate(1880,303.36)" x2="-1880" y2="0" stroke="#d62728" stroke-width="1.5" stroke-dasharray="4,4"/><line transform="translate(1880,303.36)" x2="-1880" y2="0" stroke="#d62728" stroke-width="1.5" stroke-dasharray="4,4"/><line transform="translate(1880,303.36)" x2="-1880" y2="0" stroke="#d62728" stroke-width="1.5" stroke-dasharray="4,4"/><line transform="translate(1880,303.36)" x2="-1880" y2="0" stroke="#d62728" stroke-width="1.5" stroke-dasharray="4,4"/><line transform="translate(1880,303.36)" x2="-1880" y2="0" stroke="#d62728" stroke-width="1.5" stroke-dasharray="4,4"/><line transform="translate(1880,303.36)" x2="-1880" y2="0" stroke="#d62728" stroke-width="1.5" stroke-dasharray="4,4"/><line transform="translate(1880,303.36)" x2="-1880" y2="0" stroke="#d62728" stroke-width="1.5" stroke-dasharray="4,4"/><line transform="translate(1880,303.36)" x2="-1880" y2="0" stroke="#d62728" stroke-width="1.5" stroke-dasharray="4,4"/><line transform="translate(1880,303.36)" x2="-1880" y2="0" stroke="#d62728" stroke-width="1.5" stroke-dasharray="4,4"/><line transform="translate(1880,303.36)" x2="-1880" y2="0" stroke="#d62728" stroke-width="1.5" stroke-dasharray="4,4"/><line transform="translate(1880,303.36)" x2="-1880" y2="0" stroke="#d62728" stroke-width="1.5" stroke-dasharray="4,4"/><line transform="translate(1880,303.36)" x2="-1880" y2="0" stroke="#d62728" stroke-width="1.5" stroke-dasharray="4,4"/><line transform="translate(1880,303.36)" x2="-1880" y2="0" stroke="#d62728" stroke-width="1.5" stroke-dasharray="4,4"/><line transform="translate(1880,303.36)" x2="-1880" y2="0" stroke="#d62728" stroke-width="1.5" stroke-dasharray="4,4"/><line transform="translate(1880,303.36)" x2="-1880" y2="0" stroke="#d62728" stroke-width="1.5" stroke-dasharray="4,4"/><line transform="translate(1880,303.36)" x2="-1880" y2="0" stroke="#d62728" stroke-width="1.5" stroke-dasharray="4,4"/><line transform="translate(1880,303.36)" x2="-1880" y2="0" stroke="#d62728" stroke-width="1.5" stroke-dasharray="4,4"/><line transform="translate(1880,303.36)" x2="-1880" y2="0" stroke="#d62728" stroke-width="1.5" stroke-dasharray="4,4"/><line transform="translate(1880,303.36)" x2="-1880" y2="0" stroke="#d62728" stroke-width="1.5" stroke-dasharray="4,4"/><line transform="translate(1880,303.36)" x2="-1880" y2="0" stroke="#d62728" stroke-width="1.5" stroke-dasharray="4,4"/><line transform="translate(1880,303.36)" x2="-1880" y2="0" stroke="#d62728" stroke-width="1.5" stroke-dasharray="4,4"/><line transform="translate(1880,303.36)" x2="-1880" y2="0" stroke="#d62728" stroke-width="1.5" stroke-dasharray="4,4"/><line transform="translate(1880,303.36)" x2="-1880" y2="0" stroke="#d62728" stroke-width="1.5" stroke-dasharray="4,4"/><line transform="translate(1880,303.36)" x2="-1880" y2="0" stroke="#d62728" stroke-width="1.5" stroke-dasharray="4,4"/><line transform="translate(1880,303.36)" x2="-1880" y2="0" stroke="#d62728" stroke-width="1.5" stroke-dasharray="4,4"/><line transform="translate(1880,303.36)" x2="-1880" y2="0" stroke="#d62728" stroke-width="1.5" stroke-dasharray="4,4"/><line transform="translate(1880,303.36)" x2="-1880" y2="0" stroke="#d62728" stroke-width="1.5" stroke-dasharray="4,4"/><line transform="translate(1880,303.36)" x2="-1880" y2="0" stroke="#d62728" stroke-width="1.5" stroke-dasharray="4,4"/><line transform="translate(1880,303.36)" x2="-1880" y2="0" stroke="#d62728" stroke-width="1.5" stroke-dasharray="4,4"/><line transform="translate(1880,303.36)" x2="-1880" y2="0" stroke="#d62728" stroke-width="1.5" stroke-dasharray="4,4"/><line transform="translate(1880,303.36)" x2="-1880" y2="0" stroke="#d62728" stroke-width="1.5" stroke-dasharray="4,4"/><line transform="translate(1880,303.36)" x2="-1880" y2="0" stroke="#d62728" stroke-width="1.5" stroke-dasharray="4,4"/><line transform="translate(1880,303.36)" x2="-1880" y2="0" stroke="#d62728" stroke-width="1.5" stroke-dasharray="4,4"/><line transform="translate(1880,303.36)" x2="-1880" y2="0" stroke="#d62728" stroke-width="1.5" stroke-dasharray="4,4"/><line transform="translate(1880,303.36)" x2="-1880" y2="0" stroke="#d62728" stroke-width="1.5" stroke-dasharray="4,4"/><line transform="translate(1880,303.36)" x2="-1880" y2="0" stroke="#d62728" stroke-width="1.5" stroke-dasharray="4,4"/><line transform="translate(1880,303.36)" x2="-1880" y2="0" stroke="#d62728" stroke-width="1.5" stroke-dasharray="4,4"/><line transform="translate(1880,303.36)" x2="-1880" y2="0" stroke="#d62728" stroke-width="1.5" stroke-dasharray="4,4"/><line transform="translate(1880,303.36)" x2="-1880" y2="0" stroke="#d62728" stroke-width="1.5" stroke-dasharray="4,4"/><line transform="translate(1880,303.36)" x2="-1880" y2="0" stroke="#d62728" stroke-width="1.5" stroke-dasharray="4,4"/><line transform="translate(1880,303.36)" x2="-1880" y2="0" stroke="#d62728" stroke-width="1.5" stroke-dasharray="4,4"/><line transform="translate(1880,303.36)" x2="-1880" y2="0" stroke="#d62728" stroke-width="1.5" stroke-dasharray="4,4"/><line transform="translate(1880,303.36)" x2="-1880" y2="0" stroke="#d62728" stroke-width="1.5" stroke-dasharray="4,4"/><line transform="translate(1880,303.36)" x2="-1880" y2="0" stroke="#d62728" stroke-width="1.5" stroke-dasharray="4,4"/><line transform="translate(1880,303.36)" x2="-1880" y2="0" stroke="#d62728" stroke-width="1.5" stroke-dasharray="4,4"/><line transform="translate(1880,303.36)" x2="-1880" y2="0" stroke="#d62728" stroke-width="1.5" stroke-dasharray="4,4"/><line transform="translate(1880,303.36)" x2="-1880" y2="0" stroke="#d62728" stroke-width="1.5" stroke-dasharray="4,4"/><line transform="translate(1880,303.36)" x2="-1880" y2="0" stroke="#d62728" stroke-width="1.5" stroke-dasharray="4,4"/><line transform="translate(1880,303.36)" x2="-1880" y2="0" stroke="#d62728" stroke-width="1.5" stroke-dasharray="4,4"/></g><g class="mark-text role-mark layer_6_marks" role="graphics-object" aria-roledescription="text mark container" pointer-events="none"><text aria-label="date: Oct 27, 2025" role="graphics-symbol" aria-roledescription="text mark" text-anchor="start" transform="translate(1886,301.36)" font-family="sans-serif" font-size="12px" fill="#d62728">Avg: 20.24</text></g></g><path class="foreground" aria-hidden="true" d="" display="none"/></g></g></g></svg>
