<svg xmlns="http://www.w3.org/2000/svg" xmlns:xlink="http://www.w3.org/1999/xlink" version="1.1" class="marks" width="1935" height="573" viewBox="0 0 1935 573"><rect width="1935" height="573" fill="white"/><g fill="none" stroke-miterlimit="10" transform="translate(51,11)"><g class="mark-group role-frame root" role="graphics-object" aria-roledescription="group mark container"><g transform="translate(0,0)"><path class="background" aria-hidden="true" d="M0.5,0.5h1808v480h-1808Z"/><g><g class="mark-group role-axis" aria-hidden="true"><g transform="translate(0.5,0.5)"><path class="background" aria-hidden="true" d="M0,0h0v0h0Z" pointer-events="none"/><g><g class="mark-rule role-axis-grid" pointer-events="none"><line transform="translate(0,480)" x2="1808" y2="0" stroke="#ddd" stroke-width="1" opacity="1"/><line transform="translate(0,436)" x2="1808" y2="0" stroke="#ddd" stroke-width="1" opacity="1"/><line transform="translate(0,393)" x2="1808" y2="0" stroke="#ddd" stroke-width="1" opacity="1"/><line transform="translate(0,349)" x2="1808" y2="0" stroke="#ddd" stroke-width="1" opacity="1"/><line transform="translate(0,305)" x2="1808" y2="0" stroke="#ddd" stroke-width="1" opacity="1"/><line transform="translate(0,262)" x2="1808" y2="0" stroke="#ddd" stroke-width="1" opacity="1"/><line transform="translate(0,218)" x2="1808" y2="0" stroke="#ddd" stroke-width="1" opacity="1"/><line transform="translate(0,175)" x2="1808" y2="0" stroke="#ddd" stroke-width="1" opacity="1"/><line transform="translate(0,131)" x2="1808" y2="0" stroke="#ddd" stroke-width="1" opacity="1"/><line transform="translate(0,87)" x2="1808" y2="0" stroke="#ddd" stroke-width="1" opacity="1"/><line transform="translate(0,44)" x2="1808" y2="0" stroke="#ddd" stroke-width="1" opacity="1"/><line transform="translate(0,0)" x2="1808" y2="0" stroke="#ddd" stroke-width="1" opacity="1"/></g></g><path class="foreground" aria-hidden="true" d="" pointer-events="none" display="none"/></g></g><g class="mark-group role-axis" role="graphics-symbol" aria-roledescription="axis" aria-label="X-axis titled 'Date' for a time scale with values from 2025-09-08 to 2025-10-25"><g transform="translate(0.5,480.5)"><path class="background" aria-hidden="true" d="M0,0h0v0h0Z" pointer-events="none"/><g><g class="mark-rule role-axis-tick" pointer-events="none"><line transform="translate(0,0)" x2="0" y2="5" stroke="#bbb" stroke-width="1" opacity="1"/><line transform="translate(38,0)" x2="0" y2="5" stroke="#bbb" stroke-width="1" opacity="1"/><line transform="translate(77,0)" x2="0" y2="5" stroke="#bbb" stroke-width="1" opacity="1"/><line transform="translate(115,0)" x2="0" y2="5" stroke="#bbb" stroke-width="1" opacity="1"/><line transform="translate(154,0)" x2="0" y2="5" stroke="#bbb" stroke-width="1" opacity="1"/><line transform="translate(192,0)" x2="0" y2="5" stroke="#bbb" stroke-width="1" opacity="1"/><line transform="translate(231,0)" x2="0" y2="5" stroke="#bbb" stroke-width="1" opacity="1"/><line transform="translate(269,0)" x2="0" y2="5" stroke="#bbb" stroke-width="1" opacity="1"/><line transform="translate(308,0)" x2="0" y2="5" stroke="#bbb" stroke-width="1" opacity="1"/><line transform="translate(346,0)" x2="0" y2="5" stroke="#bbb" stroke-width="1" opacity="1"/><line transform="translate(385,0)" x2="0" y2="5" stroke="#bbb" stroke-width="1" opacity="1"/><line transform="translate(423,0)" x2="0" y2="5" stroke="#bbb" stroke-width="1" opacity="1"/><line transform="translate(462,0)" x2="0" y2="5" stroke="#bbb" stroke-width="1" opacity="1"/><line transform="translate(500,0)" x2="0" y2="5" stroke="#bbb" stroke-width="1" opacity="1"/><line transform="translate(539,0)" x2="0" y2="5" stroke="#bbb" stroke-width="1" opacity="1"/><line transform="translate(577,0)" x2="0" y2="5" stroke="#bbb" stroke-width="1" opacity="1"/><line transform="translate(615,0)" x2="0" y2="5" stroke="#bbb" stroke-width="1" opacity="1"/><line transform="translate(654,0)" x2="0" y2="5" stroke="#bbb" stroke-width="1" opacity="1"/><line transform="translate(692,0)" x2="0" y2="5" stroke="#bbb" stroke-width="1" opacity="1"/><line transform="translate(731,0)" x2="0" y2="5" stroke="#bbb" stroke-width="1" opacity="1"/><line transform="translate(769,0)" x2="0" y2="5" stroke="#bbb" stroke-width="1" opacity="1"/><line transform="translate(808,0)" x2="0" y2="5" stroke="#bbb" stroke-width="1" opacity="1"/><line transform="translate(846,0)" x2="0" y2="5" stroke="#bbb" stroke-width="1" opacity="1"/><line transform="translate(885,0)" x2="0" y2="5" stroke="#bbb" stroke-width="1" opacity="1"/><line transform="translate(923,0)" x2="0" y2="5" stroke="#bbb" stroke-width="1" opacity="1"/><line transform="translate(962,0)" x2="0" y2="5" stroke="#bbb" stroke-width="1" opacity="1"/><line transform="translate(1000,0)" x2="0" y2="5" stroke="#bbb" stroke-width="1" opacity="1"/><line transform="translate(1039,0)" x2="0" y2="5" stroke="#bbb" stroke-width="1" opacity="1"/><line transform="translate(1077,0)" x2="0" y2="5" stroke="#bbb" stroke-width="1" opacity="1"/><line transform="translate(1116,0)" x2="0" y2="5" stroke="#bbb" stroke-width="1" opacity="1"/><line transform="translate(1154,0)" x2="0" y2="5" stroke="#bbb" stroke-width="1" opacity="1"/><line transform="translate(1193,0)" x2="0" y2="5" stroke="#bbb" stroke-width="1" opacity="1"/><line transform="translate(1231,0)" x2="0" y2="5" stroke="#bbb" stroke-width="1" opacity="1"/><line transform="translate(1269,0)" x2="0" y2="5" stroke="#bbb" stroke-width="1" opacity="1"/><line transform="translate(1308,0)" x2="0" y2="5" stroke="#bbb" stroke-width="1" opacity="1"/><line transform="translate(1346,0)" x2="0" y2="5" stroke="#bbb" stroke-width="1" opacity="1"/><line transform="translate(1385,0)" x2="0" y2="5" stroke="#bbb" stroke-width="1" opacity="1"/><line transform="translate(1423,0)" x2="0" y2="5" stroke="#bbb" stroke-width="1" opacity="1"/><line transform="translate(1462,0)" x2="0" y2="5" stroke="#bbb" stroke-width="1" opacity="1"/><line transform="translate(1500,0)" x2="0" y2="5" stroke="#bbb" stroke-width="1" opacity="1"/><line transform="translate(1539,0)" x2="0" y2="5" stroke="#bbb" stroke-width="1" opacity="1"/><line transform="translate(1577,0)" x2="0" y2="5" stroke="#bbb" stroke-width="1" opacity="1"/><line transform="translate(1616,0)" x2="0" y2="5" stroke="#bbb" stroke-width="1" opacity="1"/><line transform="translate(1654,0)" x2="0" y2="5" stroke="#bbb" stroke-width="1" opacity="1"/><line transform="translate(1693,0)" x2="0" y2="5" stroke="#bbb" stroke-width="1" opacity="1"/><line transform="translate(1731,0)" x2="0" y2="5" stroke="#bbb" stroke-width="1" opacity="1"/><line transform="translate(1770,0)" x2="0" y2="5" stroke="#bbb" stroke-width="1" opacity="1"/><line transform="translate(1808,0)" x2="0" y2="5" stroke="#bbb" stroke-width="1" opacity="1"/></g><g class="mark-text role-axis-label" pointer-events="none"><text text-anchor="end" transform="translate(0,7) rotate(315) translate(0,9)" font-family="Segoe UI" font-size="11px" fill="#000" opacity="1">2025-09-08</text><text text-anchor="end" transform="translate(38.46808510638298,7) rotate(315) translate(0,9)" font-family="Segoe UI" font-size="11px" fill="#000" opacity="0">2025-09-09</text><text text-anchor="end" transform="translate(76.93617021276596,7) rotate(315) translate(0,9)" font-family="Segoe UI" font-size="11px" fill="#000" opacity="1">2025-09-10</text><text text-anchor="end" transform="translate(115.40425531914893,7) rotate(315) translate(0,9)" font-family="Segoe UI" font-size="11px" fill="#000" opacity="0">2025-09-11</text><text text-anchor="end" transform="translate(153.87234042553192,7) rotate(315) translate(0,9)" font-family="Segoe UI" font-size="11px" fill="#000" opacity="1">2025-09-12</text><text text-anchor="end" transform="translate(192.3404255319149,7) rotate(315) translate(0,9)" font-family="Segoe UI" font-size="11px" fill="#000" opacity="0">2025-09-13</text><text text-anchor="end" transform="translate(230.80851063829786,7) rotate(315) translate(0,9)" font-family="Segoe UI" font-size="11px" fill="#000" opacity="1">2025-09-14</text><text text-anchor="end" transform="translate(269.27659574468083,7) rotate(315) translate(0,9)" font-family="Segoe UI" font-size="11px" fill="#000" opacity="0">2025-09-15</text><text text-anchor="end" transform="translate(307.74468085106383,7) rotate(315) translate(0,9)" font-family="Segoe UI" font-size="11px" fill="#000" opacity="1">2025-09-16</text><text text-anchor="end" transform="translate(346.21276595744683,7) rotate(315) translate(0,9)" font-family="Segoe UI" font-size="11px" fill="#000" opacity="0">2025-09-17</text><text text-anchor="end" transform="translate(384.6808510638298,7) rotate(315) translate(0,9)" font-family="Segoe UI" font-size="11px" fill="#000" opacity="1">2025-09-18</text><text text-anchor="end" transform="translate(423.1489361702128,7) rotate(315) translate(0,9)" font-family="Segoe UI" font-size="11px" fill="#000" opacity="0">2025-09-19</text><text text-anchor="end" transform="translate(461.6170212765957,7) rotate(315) translate(0,9)" font-family="Segoe UI" font-size="11px" fill="#000" opacity="1">2025-09-20</text><text text-anchor="end" transform="translate(500.0851063829787,7) rotate(315) translate(0,9)" font-family="Segoe UI" font-size="11px" fill="#000" opacity="0">2025-09-21</text><text text-anchor="end" transform="translate(538.5531914893617,7) rotate(315) translate(0,9)" font-family="Segoe UI" font-size="11px" fill="#000" opacity="1">2025-09-22</text><text text-anchor="end" transform="translate(577.0212765957447,7) rotate(315) translate(0,9)" font-family="Segoe UI" font-size="11px" fill="#000" opacity="0">2025-09-23</text><text text-anchor="end" transform="translate(615.4893617021277,7) rotate(315) translate(0,9)" font-family="Segoe UI" font-size="11px" fill="#000" opacity="1">2025-09-24</text><text text-anchor="end" transform="translate(653.9574468085107,7) rotate(315) translate(0,9)" font-family="Segoe UI" font-size="11px" fill="#000" opacity="0">2025-09-25</text><text text-anchor="end" transform="translate(692.4255319148937,7) rotate(315) translate(0,9)" font-family="Segoe UI" font-size="11px" fill="#000" opacity="1">2025-09-26</text><text text-anchor="end" transform="translate(730.8936170212766,7) rotate(315) translate(0,9)" font-family="Segoe UI" font-size="11px" fill="#000" opacity="0">2025-09-27</text><text text-anchor="end" transform="translate(769.3617021276596,7) rotate(315) translate(0,9)" font-family="Segoe UI" font-size="11px" fill="#000" opacity="1">2025-09-28</text><text text-anchor="end" transform="translate(807.8297872340426,7) rotate(315) translate(0,9)" font-family="Segoe UI" font-size="11px" fill="#000" opacity="0">2025-09-29</text><text text-anchor="end" transform="translate(846.2978723404256,7) rotate(315) translate(0,9)" font-family="Segoe UI" font-size="11px" fill="#000" opacity="1">2025-09-30</text><text text-anchor="end" transform="translate(884.7659574468084,7) rotate(315) translate(0,9)" font-family="Segoe UI" font-size="11px" fill="#000" opacity="0">2025-10-01</text><text text-anchor="end" transform="translate(923.2340425531914,7) rotate(315) translate(0,9)" font-family="Segoe UI" font-size="11px" fill="#000" opacity="1">2025-10-02</text><text text-anchor="end" transform="translate(961.7021276595744,7) rotate(315) translate(0,9)" font-family="Segoe UI" font-size="11px" fill="#000" opacity="0">2025-10-03</text><text text-anchor="end" transform="translate(1000.1702127659574,7) rotate(315) translate(0,9)" font-family="Segoe UI" font-size="11px" fill="#000" opacity="1">2025-10-04</text><text text-anchor="end" transform="translate(1038.6382978723404,7) rotate(315) translate(0,9)" font-family="Segoe UI" font-size="11px" fill="#000" opacity="0">2025-10-05</text><text text-anchor="end" transform="translate(1077.1063829787233,7) rotate(315) translate(0,9)" font-family="Segoe UI" font-size="11px" fill="#000" opacity="1">2025-10-06</text><text text-anchor="end" transform="translate(1115.5744680851064,7) rotate(315) translate(0,9)" font-family="Segoe UI" font-size="11px" fill="#000" opacity="0">2025-10-07</text><text text-anchor="end" transform="translate(1154.0425531914893,7) rotate(315) translate(0,9)" font-family="Segoe UI" font-size="11px" fill="#000" opacity="1">2025-10-08</text><text text-anchor="end" transform="translate(1192.5106382978722,7) rotate(315) translate(0,9)" font-family="Segoe UI" font-size="11px" fill="#000" opacity="0">2025-10-09</text><text text-anchor="end" transform="translate(1230.9787234042553,7) rotate(315) translate(0,9)" font-family="Segoe UI" font-size="11px" fill="#000" opacity="1">2025-10-10</text><text text-anchor="end" transform="translate(1269.4468085106382,7) rotate(315) translate(0,9)" font-family="Segoe UI" font-size="11px" fill="#000" opacity="0">2025-10-11</text><text text-anchor="end" transform="translate(1307.9148936170213,7) rotate(315) translate(0,9)" font-family="Segoe UI" font-size="11px" fill="#000" opacity="1">2025-10-12</text><text text-anchor="end" transform="translate(1346.3829787234042,7) rotate(315) translate(0,9)" font-family="Segoe UI" font-size="11px" fill="#000" opacity="0">2025-10-13</text><text text-anchor="end" transform="translate(1384.8510638297873,7) rotate(315) translate(0,9)" font-family="Segoe UI" font-size="11px" fill="#000" opacity="1">2025-10-14</text><text text-anchor="end" transform="translate(1423.3191489361702,7) rotate(315) translate(0,9)" font-family="Segoe UI" font-size="11px" fill="#000" opacity="0">2025-10-15</text><text text-anchor="end" transform="translate(1461.787234042553,7) rotate(315) translate(0,9)" font-family="Segoe UI" font-size="11px" fill="#000" opacity="1">2025-10-16</text><text text-anchor="end" transform="translate(1500.2553191489362,7) rotate(315) translate(0,9)" font-family="Segoe UI" font-size="11px" fill="#000" opacity="0">2025-10-17</text><text text-anchor="end" transform="translate(1538.723404255319,7) rotate(315) translate(0,9)" font-family="Segoe UI" font-size="11px" fill="#000" opacity="1">2025-10-18</text><text text-anchor="end" transform="translate(1577.1914893617022,7) rotate(315) translate(0,9)" font-family="Segoe UI" font-size="11px" fill="#000" opacity="0">2025-10-19</text><text text-anchor="end" transform="translate(1615.659574468085,7) rotate(315) translate(0,9)" font-family="Segoe UI" font-size="11px" fill="#000" opacity="1">2025-10-20</text><text text-anchor="end" transform="translate(1654.127659574468,7) rotate(315) translate(0,9)" font-family="Segoe UI" font-size="11px" fill="#000" opacity="0">2025-10-21</text><text text-anchor="end" transform="translate(1692.595744680851,7) rotate(315) translate(0,9)" font-family="Segoe UI" font-size="11px" fill="#000" opacity="1">2025-10-22</text><text text-anchor="end" transform="translate(1731.0638297872342,7) rotate(315) translate(0,9)" font-family="Segoe UI" font-size="11px" fill="#000" opacity="0">2025-10-23</text><text text-anchor="end" transform="translate(1769.5319148936169,7) rotate(315) translate(0,9)" font-family="Segoe UI" font-size="11px" fill="#000" opacity="1">2025-10-24</text><text text-anchor="end" transform="translate(1808,7) rotate(315) translate(0,9)" font-family="Segoe UI" font-size="11px" fill="#000" opacity="0">2025-10-25</text></g><g class="mark-rule role-axis-domain" pointer-events="none"><line transform="translate(0,0)" x2="1808" y2="0" stroke="#888" stroke-width="1" opacity="1"/></g><g class="mark-text role-axis-title" pointer-events="none"><text text-anchor="middle" transform="translate(904,73.9777658717112)" font-family="Segoe UI" font-size="13px" font-weight="bold" fill="#000" opacity="1">Date</text></g></g><path class="foreground" aria-hidden="true" d="" pointer-events="none" display="none"/></g></g><g class="mark-group role-axis" role="graphics-symbol" aria-roledescription="axis" aria-label="Y-axis titled 'Unique server names' for a linear scale with values from 0 to 55"><g transform="translate(0.5,0.5)"><path class="background" aria-hidden="true" d="M0,0h0v0h0Z" pointer-events="none"/><g><g class="mark-rule role-axis-tick" pointer-events="none"><line transform="translate(0,480)" x2="-5" y2="0" stroke="#bbb" stroke-width="1" opacity="1"/><line transform="translate(0,436)" x2="-5" y2="0" stroke="#bbb" stroke-width="1" opacity="1"/><line transform="translate(0,393)" x2="-5" y2="0" stroke="#bbb" stroke-width="1" opacity="1"/><line transform="translate(0,349)" x2="-5" y2="0" stroke="#bbb" stroke-width="1" opacity="1"/><line transform="translate(0,305)" x2="-5" y2="0" stroke="#bbb" stroke-width="1" opacity="1"/><line transform="translate(0,262)" x2="-5" y2="0" stroke="#bbb" stroke-width="1" opacity="1"/><line transform="translate(0,218)" x2="-5" y2="0" stroke="#bbb" stroke-width="1" opacity="1"/><line transform="translate(0,175)" x2="-5" y2="0" stroke="#bbb" stroke-width="1" opacity="1"/><line transform="translate(0,131)" x2="-5" y2="0" stroke="#bbb" stroke-width="1" opacity="1"/><line transform="translate(0,87)" x2="-5" y2="0" stroke="#bbb" stroke-width="1" opacity="1"/><line transform="translate(0,44)" x2="-5" y2="0" stroke="#bbb" stroke-width="1" opacity="1"/><line transform="translate(0,0)" x2="-5" y2="0" stroke="#bbb" stroke-width="1" opacity="1"/></g><g class="mark-text role-axis-label" pointer-events="none"><text text-anchor="end" transform="translate(-7,483)" font-family="Segoe UI" font-size="11px" fill="#000" opacity="1">0</text><text text-anchor="end" transform="translate(-7,439.3636363636364)" font-family="Segoe UI" font-size="11px" fill="#000" opacity="1">5</text><text text-anchor="end" transform="translate(-7,395.7272727272727)" font-family="Segoe UI" font-size="11px" fill="#000" opacity="1">10</text><text text-anchor="end" transform="translate(-7,352.0909090909091)" font-family="Segoe UI" font-size="11px" fill="#000" opacity="1">15</text><text text-anchor="end" transform="translate(-7,308.45454545454544)" font-family="Segoe UI" font-size="11px" fill="#000" opacity="1">20</text><text text-anchor="end" transform="translate(-7,264.8181818181818)" font-family="Segoe UI" font-size="11px" fill="#000" opacity="1">25</text><text text-anchor="end" transform="translate(-7,221.1818181818182)" font-family="Segoe UI" font-size="11px" fill="#000" opacity="1">30</text><text text-anchor="end" transform="translate(-7,177.54545454545456)" font-family="Segoe UI" font-size="11px" fill="#000" opacity="1">35</text><text text-anchor="end" transform="translate(-7,133.9090909090909)" font-family="Segoe UI" font-size="11px" fill="#000" opacity="1">40</text><text text-anchor="end" transform="translate(-7,90.27272727272725)" font-family="Segoe UI" font-size="11px" fill="#000" opacity="1">45</text><text text-anchor="end" transform="translate(-7,46.636363636363654)" font-family="Segoe UI" font-size="11px" fill="#000" opacity="1">50</text><text text-anchor="end" transform="translate(-7,3)" font-family="Segoe UI" font-size="11px" fill="#000" opacity="1">55</text></g><g class="mark-rule role-axis-domain" pointer-events="none"><line transform="translate(0,480)" x2="0" y2="-480" stroke="#888" stroke-width="1" opacity="1"/></g><g class="mark-text role-axis-title" pointer-events="none"><text text-anchor="middle" transform="translate(-24.99609375,240) rotate(-90) translate(0,-3)" font-family="Segoe UI" font-size="13px" font-weight="bold" fill="#000" opacity="1">Unique server names</text></g></g><path class="foreground" aria-hidden="true" d="" pointer-events="none" display="none"/></g></g><g class="mark-area role-mark layer_0_marks" role="graphics-object" aria-roledescription="area mark container" pointer-events="none"><path aria-label="date: 2025-09-08; count: 1" role="graphics-symbol" aria-roledescription="area mark" d="M0,471.273C12.823,240,25.645,8.727,38.468,8.727C51.291,8.727,64.113,17.455,76.936,34.909C89.759,52.364,102.582,142.545,115.404,165.818C128.227,189.091,141.05,177.455,153.872,200.727C166.695,224,179.518,293.818,192.34,305.455C205.163,317.091,217.986,322.909,230.809,322.909C243.631,322.909,256.454,273.455,269.277,261.818C282.099,250.182,294.922,256,307.745,244.364C320.567,232.727,333.39,151.273,346.213,139.636C359.035,128,371.858,122.182,384.681,122.182C397.504,122.182,410.326,212.364,423.149,235.636C435.972,258.909,448.794,251.636,461.617,270.545C474.44,289.455,487.262,349.091,500.085,349.091C512.908,349.091,525.73,343.273,538.553,340.364C551.376,337.455,564.199,334.545,577.021,331.636C589.844,328.727,602.667,322.909,615.489,322.909C628.312,322.909,641.135,384,653.957,384C666.78,384,679.603,261.818,692.426,261.818C705.248,261.818,718.071,418.909,730.894,418.909C743.716,418.909,756.539,398.545,769.362,357.818C782.184,317.091,795.007,148.364,807.83,148.364C820.652,148.364,833.475,202.182,846.298,244.364C859.121,286.545,871.943,401.455,884.766,401.455C897.589,401.455,910.411,165.818,923.234,165.818C936.057,165.818,948.879,253.091,961.702,253.091C974.525,253.091,987.348,253.091,1000.17,253.091C1012.993,253.091,1025.816,340.364,1038.638,340.364C1051.461,340.364,1064.284,327.273,1077.106,305.455C1089.929,283.636,1102.752,209.455,1115.574,209.455C1128.397,209.455,1141.22,229.818,1154.043,253.091C1166.865,276.364,1179.688,349.091,1192.511,349.091C1205.333,349.091,1218.156,314.182,1230.979,314.182C1243.801,314.182,1256.624,401.455,1269.447,401.455C1282.27,401.455,1295.092,349.091,1307.915,349.091C1320.738,349.091,1333.56,349.091,1346.383,349.091C1359.206,349.091,1372.028,366.545,1384.851,366.545C1397.674,366.545,1410.496,314.182,1423.319,314.182C1436.142,314.182,1448.965,330.182,1461.787,340.364C1474.61,350.545,1487.433,356.364,1500.255,375.273C1513.078,394.182,1525.901,453.818,1538.723,453.818C1551.546,453.818,1564.369,442.182,1577.191,427.636C1590.014,413.091,1602.837,366.545,1615.66,366.545C1628.482,366.545,1641.305,392.727,1654.128,392.727C1666.95,392.727,1679.773,331.636,1692.596,331.636C1705.418,331.636,1718.241,375.273,1731.064,375.273C1743.887,375.273,1756.709,366.545,1769.532,366.545C1782.355,366.545,1795.177,384,1808,401.455L1808,480C1795.177,480,1782.355,480,1769.532,480C1756.709,480,1743.887,480,1731.064,480C1718.241,480,1705.418,480,1692.596,480C1679.773,480,1666.95,480,1654.128,480C1641.305,480,1628.482,480,1615.66,480C1602.837,480,1590.014,480,1577.191,480C1564.369,480,1551.546,480,1538.723,480C1525.901,480,1513.078,480,1500.255,480C1487.433,480,1474.61,480,1461.787,480C1448.965,480,1436.142,480,1423.319,480C1410.496,480,1397.674,480,1384.851,480C1372.028,480,1359.206,480,1346.383,480C1333.56,480,1320.738,480,1307.915,480C1295.092,480,1282.27,480,1269.447,480C1256.624,480,1243.801,480,1230.979,480C1218.156,480,1205.333,480,1192.511,480C1179.688,480,1166.865,480,1154.043,480C1141.22,480,1128.397,480,1115.574,480C1102.752,480,1089.929,480,1077.106,480C1064.284,480,1051.461,480,1038.638,480C1025.816,480,1012.993,480,1000.17,480C987.348,480,974.525,480,961.702,480C948.879,480,936.057,480,923.234,480C910.411,480,897.589,480,884.766,480C871.943,480,859.121,480,846.298,480C833.475,480,820.652,480,807.83,480C795.007,480,782.184,480,769.362,480C756.539,480,743.716,480,730.894,480C718.071,480,705.248,480,692.426,480C679.603,480,666.78,480,653.957,480C641.135,480,628.312,480,615.489,480C602.667,480,589.844,480,577.021,480C564.199,480,551.376,480,538.553,480C525.73,480,512.908,480,500.085,480C487.262,480,474.44,480,461.617,480C448.794,480,435.972,480,423.149,480C410.326,480,397.504,480,384.681,480C371.858,480,359.035,480,346.213,480C333.39,480,320.567,480,307.745,480C294.922,480,282.099,480,269.277,480C256.454,480,243.631,480,230.809,480C217.986,480,205.163,480,192.34,480C179.518,480,166.695,480,153.872,480C141.05,480,128.227,480,115.404,480C102.582,480,89.759,480,76.936,480C64.113,480,51.291,480,38.468,480C25.645,480,12.823,480,0,480Z" fill="#4e79a7" opacity="0.18"/></g><g class="mark-line role-mark layer_1_marks" role="graphics-object" aria-roledescription="line mark container" pointer-events="none"><path aria-label="date: Sep 08, 2025; count: 1" role="graphics-symbol" aria-roledescription="line mark" d="M0,471.273C12.823,240,25.645,8.727,38.468,8.727C51.291,8.727,64.113,17.455,76.936,34.909C89.759,52.364,102.582,142.545,115.404,165.818C128.227,189.091,141.05,177.455,153.872,200.727C166.695,224,179.518,293.818,192.34,305.455C205.163,317.091,217.986,322.909,230.809,322.909C243.631,322.909,256.454,273.455,269.277,261.818C282.099,250.182,294.922,256,307.745,244.364C320.567,232.727,333.39,151.273,346.213,139.636C359.035,128,371.858,122.182,384.681,122.182C397.504,122.182,410.326,212.364,423.149,235.636C435.972,258.909,448.794,251.636,461.617,270.545C474.44,289.455,487.262,349.091,500.085,349.091C512.908,349.091,525.73,343.273,538.553,340.364C551.376,337.455,564.199,334.545,577.021,331.636C589.844,328.727,602.667,322.909,615.489,322.909C628.312,322.909,641.135,384,653.957,384C666.78,384,679.603,261.818,692.426,261.818C705.248,261.818,718.071,418.909,730.894,418.909C743.716,418.909,756.539,398.545,769.362,357.818C782.184,317.091,795.007,148.364,807.83,148.364C820.652,148.364,833.475,202.182,846.298,244.364C859.121,286.545,871.943,401.455,884.766,401.455C897.589,401.455,910.411,165.818,923.234,165.818C936.057,165.818,948.879,253.091,961.702,253.091C974.525,253.091,987.348,253.091,1000.17,253.091C1012.993,253.091,1025.816,340.364,1038.638,340.364C1051.461,340.364,1064.284,327.273,1077.106,305.455C1089.929,283.636,1102.752,209.455,1115.574,209.455C1128.397,209.455,1141.22,229.818,1154.043,253.091C1166.865,276.364,1179.688,349.091,1192.511,349.091C1205.333,349.091,1218.156,314.182,1230.979,314.182C1243.801,314.182,1256.624,401.455,1269.447,401.455C1282.27,401.455,1295.092,349.091,1307.915,349.091C1320.738,349.091,1333.56,349.091,1346.383,349.091C1359.206,349.091,1372.028,366.545,1384.851,366.545C1397.674,366.545,1410.496,314.182,1423.319,314.182C1436.142,314.182,1448.965,330.182,1461.787,340.364C1474.61,350.545,1487.433,356.364,1500.255,375.273C1513.078,394.182,1525.901,453.818,1538.723,453.818C1551.546,453.818,1564.369,442.182,1577.191,427.636C1590.014,413.091,1602.837,366.545,1615.66,366.545C1628.482,366.545,1641.305,392.727,1654.128,392.727C1666.95,392.727,1679.773,331.636,1692.596,331.636C1705.418,331.636,1718.241,375.273,1731.064,375.273C1743.887,375.273,1756.709,366.545,1769.532,366.545C1782.355,366.545,1795.177,384,1808,401.455" stroke="#4e79a7" stroke-width="2"/></g><g class="mark-line role-mark layer_2_marks" role="graphics-object" aria-roledescription="line mark container" pointer-events="none"><path aria-label="date: Sep 08, 2025; ma7: 1" role="graphics-symbol" aria-roledescription="line mark" d="M0,471.273C12.823,378.424,25.645,285.576,38.468,240C51.291,194.424,64.113,172.606,76.936,171.636C89.759,170.667,102.582,170.182,115.404,170.182C128.227,170.182,141.05,172.218,153.872,176.291C166.695,180.364,179.518,191.252,192.34,197.818C205.163,204.384,217.986,215.688,230.809,215.688C243.631,215.688,256.454,185.766,269.277,185.766C282.099,185.766,294.922,211.325,307.745,219.429C320.567,227.532,333.39,234.39,346.213,234.39C359.035,234.39,371.858,228.156,384.681,228.156C397.504,228.156,410.326,233.143,423.149,233.143C435.972,233.143,448.794,228.156,461.617,228.156C474.44,228.156,487.262,229.403,500.085,231.896C512.908,234.39,525.73,239.169,538.553,243.117C551.376,247.065,564.199,249.143,577.021,255.584C589.844,262.026,602.667,271.169,615.489,281.766C628.312,292.364,641.135,316.675,653.957,319.169C666.78,321.662,679.603,320.416,692.426,322.909C705.248,325.403,718.071,343.273,730.894,344.104C743.716,344.935,756.539,345.351,769.362,345.351C782.184,345.351,795.007,324.571,807.83,317.922C820.652,311.273,833.475,305.455,846.298,305.455C859.121,305.455,871.943,316.675,884.766,316.675C897.589,316.675,910.411,286.338,923.234,285.506C936.057,284.675,948.879,285.091,961.702,284.26C974.525,283.429,987.348,262.234,1000.17,260.571C1012.993,258.909,1025.816,258.078,1038.638,258.078C1051.461,258.078,1064.284,280.519,1077.106,280.519C1089.929,280.519,1102.752,278.857,1115.574,275.532C1128.397,272.208,1141.22,254.338,1154.043,254.338C1166.865,254.338,1179.688,274.701,1192.511,280.519C1205.333,286.338,1218.156,284.26,1230.979,289.247C1243.801,294.234,1256.624,309.61,1269.447,310.442C1282.27,311.273,1295.092,310.857,1307.915,311.688C1320.738,312.519,1333.56,313.766,1346.383,317.922C1359.206,322.078,1372.028,335.169,1384.851,340.364C1397.674,345.558,1410.496,349.091,1423.319,349.091C1436.142,349.091,1448.965,347.844,1461.787,347.844C1474.61,347.844,1487.433,353.87,1500.255,356.571C1513.078,359.273,1525.901,360.935,1538.723,364.052C1551.546,367.169,1564.369,373.61,1577.191,375.273C1590.014,376.935,1602.837,376.727,1615.66,377.766C1628.482,378.805,1641.305,380.468,1654.128,381.506C1666.95,382.545,1679.773,382.753,1692.596,384C1705.418,385.247,1718.241,388.987,1731.064,388.987C1743.887,388.987,1756.709,388.571,1769.532,387.74C1782.355,386.909,1795.177,383.584,1808,380.26" stroke="#d62728" stroke-width="2" stroke-dasharray="6,4"/></g><g class="mark-symbol role-mark layer_3_marks" role="graphics-object" aria-roledescription="symbol mark container"><path aria-label="date: Sep 08, 2025; count: 1; Date: Sep 08, 2025; Daily unique: 1; 7d avg: 1" role="graphics-symbol" aria-roledescription="point" transform="translate(0,471.27272727272725)" d="M3.536,0A3.536,3.536,0,1,1,-3.536,0A3.536,3.536,0,1,1,3.536,0" fill="#4e79a7" stroke-width="2" opacity="0.55"/><path aria-label="date: Sep 09, 2025; count: 54; Date: Sep 09, 2025; Daily unique: 54; 7d avg: 27.5" role="graphics-symbol" aria-roledescription="point" transform="translate(38.46808510638298,8.72727272727273)" d="M3.536,0A3.536,3.536,0,1,1,-3.536,0A3.536,3.536,0,1,1,3.536,0" fill="#4e79a7" stroke-width="2" opacity="0.55"/><path aria-label="date: Sep 10, 2025; count: 51; Date: Sep 10, 2025; Daily unique: 51; 7d avg: 35.3333333333" role="graphics-symbol" aria-roledescription="point" transform="translate(76.93617021276596,34.90909090909092)" d="M3.536,0A3.536,3.536,0,1,1,-3.536,0A3.536,3.536,0,1,1,3.536,0" fill="#4e79a7" stroke-width="2" opacity="0.55"/><path aria-label="date: Sep 11, 2025; count: 36; Date: Sep 11, 2025; Daily unique: 36; 7d avg: 35.5" role="graphics-symbol" aria-roledescription="point" transform="translate(115.40425531914893,165.8181818181818)" d="M3.536,0A3.536,3.536,0,1,1,-3.536,0A3.536,3.536,0,1,1,3.536,0" fill="#4e79a7" stroke-width="2" opacity="0.55"/><path aria-label="date: Sep 12, 2025; count: 32; Date: Sep 12, 2025; Daily unique: 32; 7d avg: 34.8" role="graphics-symbol" aria-roledescription="point" transform="translate(153.87234042553192,200.72727272727275)" d="M3.536,0A3.536,3.536,0,1,1,-3.536,0A3.536,3.536,0,1,1,3.536,0" fill="#4e79a7" stroke-width="2" opacity="0.55"/><path aria-label="date: Sep 13, 2025; count: 20; Date: Sep 13, 2025; Daily unique: 20; 7d avg: 32.3333333333" role="graphics-symbol" aria-roledescription="point" transform="translate(192.3404255319149,305.45454545454544)" d="M3.536,0A3.536,3.536,0,1,1,-3.536,0A3.536,3.536,0,1,1,3.536,0" fill="#4e79a7" stroke-width="2" opacity="0.55"/><path aria-label="date: Sep 14, 2025; count: 18; Date: Sep 14, 2025; Daily unique: 18; 7d avg: 30.2857142857" role="graphics-symbol" aria-roledescription="point" transform="translate(230.80851063829786,322.90909090909093)" d="M3.536,0A3.536,3.536,0,1,1,-3.536,0A3.536,3.536,0,1,1,3.536,0" fill="#4e79a7" stroke-width="2" opacity="0.55"/><path aria-label="date: Sep 15, 2025; count: 25; Date: Sep 15, 2025; Daily unique: 25; 7d avg: 33.7142857143" role="graphics-symbol" aria-roledescription="point" transform="translate(269.27659574468083,261.8181818181818)" d="M3.536,0A3.536,3.536,0,1,1,-3.536,0A3.536,3.536,0,1,1,3.536,0" fill="#4e79a7" stroke-width="2" opacity="0.55"/><path aria-label="date: Sep 16, 2025; count: 27; Date: Sep 16, 2025; Daily unique: 27; 7d avg: 29.8571428571" role="graphics-symbol" aria-roledescription="point" transform="translate(307.74468085106383,244.36363636363635)" d="M3.536,0A3.536,3.536,0,1,1,-3.536,0A3.536,3.536,0,1,1,3.536,0" fill="#4e79a7" stroke-width="2" opacity="0.55"/><path aria-label="date: Sep 17, 2025; count: 39; Date: Sep 17, 2025; Daily unique: 39; 7d avg: 28.1428571429" role="graphics-symbol" aria-roledescription="point" transform="translate(346.21276595744683,139.63636363636363)" d="M3.536,0A3.536,3.536,0,1,1,-3.536,0A3.536,3.536,0,1,1,3.536,0" fill="#4e79a7" stroke-width="2" opacity="0.55"/><path aria-label="date: Sep 18, 2025; count: 41; Date: Sep 18, 2025; Daily unique: 41; 7d avg: 28.8571428571" role="graphics-symbol" aria-roledescription="point" transform="translate(384.6808510638298,122.18181818181817)" d="M3.536,0A3.536,3.536,0,1,1,-3.536,0A3.536,3.536,0,1,1,3.536,0" fill="#4e79a7" stroke-width="2" opacity="0.55"/><path aria-label="date: Sep 19, 2025; count: 28; Date: Sep 19, 2025; Daily unique: 28; 7d avg: 28.2857142857" role="graphics-symbol" aria-roledescription="point" transform="translate(423.1489361702128,235.63636363636365)" d="M3.536,0A3.536,3.536,0,1,1,-3.536,0A3.536,3.536,0,1,1,3.536,0" fill="#4e79a7" stroke-width="2" opacity="0.55"/><path aria-label="date: Sep 20, 2025; count: 24; Date: Sep 20, 2025; Daily unique: 24; 7d avg: 28.8571428571" role="graphics-symbol" aria-roledescription="point" transform="translate(461.6170212765957,270.54545454545456)" d="M3.536,0A3.536,3.536,0,1,1,-3.536,0A3.536,3.536,0,1,1,3.536,0" fill="#4e79a7" stroke-width="2" opacity="0.55"/><path aria-label="date: Sep 21, 2025; count: 15; Date: Sep 21, 2025; Daily unique: 15; 7d avg: 28.4285714286" role="graphics-symbol" aria-roledescription="point" transform="translate(500.0851063829787,349.0909090909091)" d="M3.536,0A3.536,3.536,0,1,1,-3.536,0A3.536,3.536,0,1,1,3.536,0" fill="#4e79a7" stroke-width="2" opacity="0.55"/><path aria-label="date: Sep 22, 2025; count: 16; Date: Sep 22, 2025; Daily unique: 16; 7d avg: 27.1428571429" role="graphics-symbol" aria-roledescription="point" transform="translate(538.5531914893617,340.3636363636364)" d="M3.536,0A3.536,3.536,0,1,1,-3.536,0A3.536,3.536,0,1,1,3.536,0" fill="#4e79a7" stroke-width="2" opacity="0.55"/><path aria-label="date: Sep 23, 2025; count: 17; Date: Sep 23, 2025; Daily unique: 17; 7d avg: 25.7142857143" role="graphics-symbol" aria-roledescription="point" transform="translate(577.0212765957447,331.6363636363636)" d="M3.536,0A3.536,3.536,0,1,1,-3.536,0A3.536,3.536,0,1,1,3.536,0" fill="#4e79a7" stroke-width="2" opacity="0.55"/><path aria-label="date: Sep 24, 2025; count: 18; Date: Sep 24, 2025; Daily unique: 18; 7d avg: 22.7142857143" role="graphics-symbol" aria-roledescription="point" transform="translate(615.4893617021277,322.90909090909093)" d="M3.536,0A3.536,3.536,0,1,1,-3.536,0A3.536,3.536,0,1,1,3.536,0" fill="#4e79a7" stroke-width="2" opacity="0.55"/><path aria-label="date: Sep 25, 2025; count: 11; Date: Sep 25, 2025; Daily unique: 11; 7d avg: 18.4285714286" role="graphics-symbol" aria-roledescription="point" transform="translate(653.9574468085107,384)" d="M3.536,0A3.536,3.536,0,1,1,-3.536,0A3.536,3.536,0,1,1,3.536,0" fill="#4e79a7" stroke-width="2" opacity="0.55"/><path aria-label="date: Sep 26, 2025; count: 25; Date: Sep 26, 2025; Daily unique: 25; 7d avg: 18" role="graphics-symbol" aria-roledescription="point" transform="translate(692.4255319148937,261.8181818181818)" d="M3.536,0A3.536,3.536,0,1,1,-3.536,0A3.536,3.536,0,1,1,3.536,0" fill="#4e79a7" stroke-width="2" opacity="0.55"/><path aria-label="date: Sep 27, 2025; count: 7; Date: Sep 27, 2025; Daily unique: 7; 7d avg: 15.5714285714" role="graphics-symbol" aria-roledescription="point" transform="translate(730.8936170212766,418.90909090909093)" d="M3.536,0A3.536,3.536,0,1,1,-3.536,0A3.536,3.536,0,1,1,3.536,0" fill="#4e79a7" stroke-width="2" opacity="0.55"/><path aria-label="date: Sep 28, 2025; count: 14; Date: Sep 28, 2025; Daily unique: 14; 7d avg: 15.4285714286" role="graphics-symbol" aria-roledescription="point" transform="translate(769.3617021276596,357.8181818181818)" d="M3.536,0A3.536,3.536,0,1,1,-3.536,0A3.536,3.536,0,1,1,3.536,0" fill="#4e79a7" stroke-width="2" opacity="0.55"/><path aria-label="date: Sep 29, 2025; count: 38; Date: Sep 29, 2025; Daily unique: 38; 7d avg: 18.5714285714" role="graphics-symbol" aria-roledescription="point" transform="translate(807.8297872340426,148.36363636363637)" d="M3.536,0A3.536,3.536,0,1,1,-3.536,0A3.536,3.536,0,1,1,3.536,0" fill="#4e79a7" stroke-width="2" opacity="0.55"/><path aria-label="date: Sep 30, 2025; count: 27; Date: Sep 30, 2025; Daily unique: 27; 7d avg: 20" role="graphics-symbol" aria-roledescription="point" transform="translate(846.2978723404256,244.36363636363635)" d="M3.536,0A3.536,3.536,0,1,1,-3.536,0A3.536,3.536,0,1,1,3.536,0" fill="#4e79a7" stroke-width="2" opacity="0.55"/><path aria-label="date: Oct 01, 2025; count: 9; Date: Oct 01, 2025; Daily unique: 9; 7d avg: 18.7142857143" role="graphics-symbol" aria-roledescription="point" transform="translate(884.7659574468084,401.4545454545455)" d="M3.536,0A3.536,3.536,0,1,1,-3.536,0A3.536,3.536,0,1,1,3.536,0" fill="#4e79a7" stroke-width="2" opacity="0.55"/><path aria-label="date: Oct 02, 2025; count: 36; Date: Oct 02, 2025; Daily unique: 36; 7d avg: 22.2857142857" role="graphics-symbol" aria-roledescription="point" transform="translate(923.2340425531914,165.8181818181818)" d="M3.536,0A3.536,3.536,0,1,1,-3.536,0A3.536,3.536,0,1,1,3.536,0" fill="#4e79a7" stroke-width="2" opacity="0.55"/><path aria-label="date: Oct 03, 2025; count: 26; Date: Oct 03, 2025; Daily unique: 26; 7d avg: 22.4285714286" role="graphics-symbol" aria-roledescription="point" transform="translate(961.7021276595744,253.09090909090912)" d="M3.536,0A3.536,3.536,0,1,1,-3.536,0A3.536,3.536,0,1,1,3.536,0" fill="#4e79a7" stroke-width="2" opacity="0.55"/><path aria-label="date: Oct 04, 2025; count: 26; Date: Oct 04, 2025; Daily unique: 26; 7d avg: 25.1428571429" role="graphics-symbol" aria-roledescription="point" transform="translate(1000.1702127659574,253.09090909090912)" d="M3.536,0A3.536,3.536,0,1,1,-3.536,0A3.536,3.536,0,1,1,3.536,0" fill="#4e79a7" stroke-width="2" opacity="0.55"/><path aria-label="date: Oct 05, 2025; count: 16; Date: Oct 05, 2025; Daily unique: 16; 7d avg: 25.4285714286" role="graphics-symbol" aria-roledescription="point" transform="translate(1038.6382978723404,340.3636363636364)" d="M3.536,0A3.536,3.536,0,1,1,-3.536,0A3.536,3.536,0,1,1,3.536,0" fill="#4e79a7" stroke-width="2" opacity="0.55"/><path aria-label="date: Oct 06, 2025; count: 20; Date: Oct 06, 2025; Daily unique: 20; 7d avg: 22.8571428571" role="graphics-symbol" aria-roledescription="point" transform="translate(1077.1063829787233,305.45454545454544)" d="M3.536,0A3.536,3.536,0,1,1,-3.536,0A3.536,3.536,0,1,1,3.536,0" fill="#4e79a7" stroke-width="2" opacity="0.55"/><path aria-label="date: Oct 07, 2025; count: 31; Date: Oct 07, 2025; Daily unique: 31; 7d avg: 23.4285714286" role="graphics-symbol" aria-roledescription="point" transform="translate(1115.5744680851064,209.45454545454547)" d="M3.536,0A3.536,3.536,0,1,1,-3.536,0A3.536,3.536,0,1,1,3.536,0" fill="#4e79a7" stroke-width="2" opacity="0.55"/><path aria-label="date: Oct 08, 2025; count: 26; Date: Oct 08, 2025; Daily unique: 26; 7d avg: 25.8571428571" role="graphics-symbol" aria-roledescription="point" transform="translate(1154.0425531914893,253.09090909090912)" d="M3.536,0A3.536,3.536,0,1,1,-3.536,0A3.536,3.536,0,1,1,3.536,0" fill="#4e79a7" stroke-width="2" opacity="0.55"/><path aria-label="date: Oct 09, 2025; count: 15; Date: Oct 09, 2025; Daily unique: 15; 7d avg: 22.8571428571" role="graphics-symbol" aria-roledescription="point" transform="translate(1192.5106382978722,349.0909090909091)" d="M3.536,0A3.536,3.536,0,1,1,-3.536,0A3.536,3.536,0,1,1,3.536,0" fill="#4e79a7" stroke-width="2" opacity="0.55"/><path aria-label="date: Oct 10, 2025; count: 19; Date: Oct 10, 2025; Daily unique: 19; 7d avg: 21.8571428571" role="graphics-symbol" aria-roledescription="point" transform="translate(1230.9787234042553,314.1818181818182)" d="M3.536,0A3.536,3.536,0,1,1,-3.536,0A3.536,3.536,0,1,1,3.536,0" fill="#4e79a7" stroke-width="2" opacity="0.55"/><path aria-label="date: Oct 11, 2025; count: 9; Date: Oct 11, 2025; Daily unique: 9; 7d avg: 19.4285714286" role="graphics-symbol" aria-roledescription="point" transform="translate(1269.4468085106382,401.4545454545455)" d="M3.536,0A3.536,3.536,0,1,1,-3.536,0A3.536,3.536,0,1,1,3.536,0" fill="#4e79a7" stroke-width="2" opacity="0.55"/><path aria-label="date: Oct 12, 2025; count: 15; Date: Oct 12, 2025; Daily unique: 15; 7d avg: 19.2857142857" role="graphics-symbol" aria-roledescription="point" transform="translate(1307.9148936170213,349.0909090909091)" d="M3.536,0A3.536,3.536,0,1,1,-3.536,0A3.536,3.536,0,1,1,3.536,0" fill="#4e79a7" stroke-width="2" opacity="0.55"/><path aria-label="date: Oct 13, 2025; count: 15; Date: Oct 13, 2025; Daily unique: 15; 7d avg: 18.5714285714" role="graphics-symbol" aria-roledescription="point" transform="translate(1346.3829787234042,349.0909090909091)" d="M3.536,0A3.536,3.536,0,1,1,-3.536,0A3.536,3.536,0,1,1,3.536,0" fill="#4e79a7" stroke-width="2" opacity="0.55"/><path aria-label="date: Oct 14, 2025; count: 13; Date: Oct 14, 2025; Daily unique: 13; 7d avg: 16" role="graphics-symbol" aria-roledescription="point" transform="translate(1384.8510638297873,366.54545454545456)" d="M3.536,0A3.536,3.536,0,1,1,-3.536,0A3.536,3.536,0,1,1,3.536,0" fill="#4e79a7" stroke-width="2" opacity="0.55"/><path aria-label="date: Oct 15, 2025; count: 19; Date: Oct 15, 2025; Daily unique: 19; 7d avg: 15" role="graphics-symbol" aria-roledescription="point" transform="translate(1423.3191489361702,314.1818181818182)" d="M3.536,0A3.536,3.536,0,1,1,-3.536,0A3.536,3.536,0,1,1,3.536,0" fill="#4e79a7" stroke-width="2" opacity="0.55"/><path aria-label="date: Oct 16, 2025; count: 16; Date: Oct 16, 2025; Daily unique: 16; 7d avg: 15.1428571429" role="graphics-symbol" aria-roledescription="point" transform="translate(1461.787234042553,340.3636363636364)" d="M3.536,0A3.536,3.536,0,1,1,-3.536,0A3.536,3.536,0,1,1,3.536,0" fill="#4e79a7" stroke-width="2" opacity="0.55"/><path aria-label="date: Oct 17, 2025; count: 12; Date: Oct 17, 2025; Daily unique: 12; 7d avg: 14.1428571429" role="graphics-symbol" aria-roledescription="point" transform="translate(1500.2553191489362,375.2727272727273)" d="M3.536,0A3.536,3.536,0,1,1,-3.536,0A3.536,3.536,0,1,1,3.536,0" fill="#4e79a7" stroke-width="2" opacity="0.55"/><path aria-label="date: Oct 18, 2025; count: 3; Date: Oct 18, 2025; Daily unique: 3; 7d avg: 13.2857142857" role="graphics-symbol" aria-roledescription="point" transform="translate(1538.723404255319,453.8181818181818)" d="M3.536,0A3.536,3.536,0,1,1,-3.536,0A3.536,3.536,0,1,1,3.536,0" fill="#4e79a7" stroke-width="2" opacity="0.55"/><path aria-label="date: Oct 19, 2025; count: 6; Date: Oct 19, 2025; Daily unique: 6; 7d avg: 12" role="graphics-symbol" aria-roledescription="point" transform="translate(1577.1914893617022,427.6363636363636)" d="M3.536,0A3.536,3.536,0,1,1,-3.536,0A3.536,3.536,0,1,1,3.536,0" fill="#4e79a7" stroke-width="2" opacity="0.55"/><path aria-label="date: Oct 20, 2025; count: 13; Date: Oct 20, 2025; Daily unique: 13; 7d avg: 11.7142857143" role="graphics-symbol" aria-roledescription="point" transform="translate(1615.659574468085,366.54545454545456)" d="M3.536,0A3.536,3.536,0,1,1,-3.536,0A3.536,3.536,0,1,1,3.536,0" fill="#4e79a7" stroke-width="2" opacity="0.55"/><path aria-label="date: Oct 21, 2025; count: 10; Date: Oct 21, 2025; Daily unique: 10; 7d avg: 11.2857142857" role="graphics-symbol" aria-roledescription="point" transform="translate(1654.127659574468,392.7272727272727)" d="M3.536,0A3.536,3.536,0,1,1,-3.536,0A3.536,3.536,0,1,1,3.536,0" fill="#4e79a7" stroke-width="2" opacity="0.55"/><path aria-label="date: Oct 22, 2025; count: 17; Date: Oct 22, 2025; Daily unique: 17; 7d avg: 11" role="graphics-symbol" aria-roledescription="point" transform="translate(1692.595744680851,331.6363636363636)" d="M3.536,0A3.536,3.536,0,1,1,-3.536,0A3.536,3.536,0,1,1,3.536,0" fill="#4e79a7" stroke-width="2" opacity="0.55"/><path aria-label="date: Oct 23, 2025; count: 12; Date: Oct 23, 2025; Daily unique: 12; 7d avg: 10.4285714286" role="graphics-symbol" aria-roledescription="point" transform="translate(1731.0638297872342,375.2727272727273)" d="M3.536,0A3.536,3.536,0,1,1,-3.536,0A3.536,3.536,0,1,1,3.536,0" fill="#4e79a7" stroke-width="2" opacity="0.55"/><path aria-label="date: Oct 24, 2025; count: 13; Date: Oct 24, 2025; Daily unique: 13; 7d avg: 10.5714285714" role="graphics-symbol" aria-roledescription="point" transform="translate(1769.5319148936169,366.54545454545456)" d="M3.536,0A3.536,3.536,0,1,1,-3.536,0A3.536,3.536,0,1,1,3.536,0" fill="#4e79a7" stroke-width="2" opacity="0.55"/><path aria-label="date: Oct 25, 2025; count: 9; Date: Oct 25, 2025; Daily unique: 9; 7d avg: 11.4285714286" role="graphics-symbol" aria-roledescription="point" transform="translate(1808,401.4545454545455)" d="M3.536,0A3.536,3.536,0,1,1,-3.536,0A3.536,3.536,0,1,1,3.536,0" fill="#4e79a7" stroke-width="2" opacity="0.55"/></g><g class="mark-path role-mark layer_3_voronoi" aria-hidden="true"><path transform="translate(0,0)" d="M0,296.7449242473235L23.579822536059098,305.6536535519805L26.101944480649593,307.08810680163776L149.72723371738124,450.4869818681341L168.6981922751937,480L0,480Z" stroke-width="0.35"/><path transform="translate(0,0)" d="M72.55183145537643,0L0,106.59802186646913L0,0Z" stroke-width="0.35"/><path transform="translate(0,0)" d="M245.51664818979657,0L220.71706730210553,63.76511622452715L0,128.6235830463988L0,106.59802186646913L72.55183145537643,0Z" stroke-width="0.35"/><path transform="translate(0,0)" d="M223.2028700071356,85.67896560291314L23.579822536059098,305.6536535519805L0,296.7449242473235L0,128.6235830463988L220.71706730210553,63.76511622452715Z" stroke-width="0.35"/><path transform="translate(0,0)" d="M247.67097376015397,163.08434345193058L206.52222289414868,240.81671020944526L26.101944480649593,307.08810680163776L23.579822536059098,305.6536535519805L223.2028700071356,85.67896560291314L247.7262987536232,162.8892541841797Z" stroke-width="0.35"/><path transform="translate(0,0)" d="M206.52222289414868,240.81671020944526L227.82277785471842,278.37215675694625L149.72723371738124,450.4869818681341L26.101944480649593,307.08810680163776Z" stroke-width="0.35"/><path transform="translate(0,0)" d="M361.73278424098,374.1982567024785L351.44565921745357,480L168.6981922751937,480L149.72723371738124,450.4869818681341L227.82277785471842,278.37215675694625L328.8453747173728,341.98466329204217Z" stroke-width="0.35"/><path transform="translate(0,0)" d="M247.67097376015397,163.08434345193058L328.8453747173728,341.98466329204217L227.82277785471842,278.37215675694625L206.52222289414868,240.81671020944526Z" stroke-width="0.35"/><path transform="translate(0,0)" d="M366.21829832785414,365.9602336380805L361.73278424098,374.1982567024785L328.8453747173728,341.98466329204217L247.67097376015397,163.08434345193058L247.7262987536232,162.8892541841797L362.8122568450191,205.16225829399212L372.2788033759773,330.3422299746428Z" stroke-width="0.35"/><path transform="translate(0,0)" d="M306.0479933274305,0L389.45151001637544,183.81306958219588L362.8122568450191,205.16225829399212L247.7262987536232,162.8892541841797L223.2028700071356,85.67896560291314L220.71706730210553,63.76511622452715L245.51664818979657,0Z" stroke-width="0.35"/><path transform="translate(0,0)" d="M556.7179658483815,127.09942948421892L389.45151001637544,183.81306958219588L306.0479933274305,0L604.6251521974791,0L601.3020519510706,53.70774192570195L571.4730140026522,119.447979815567Z" stroke-width="0.35"/><path transform="translate(0,0)" d="M556.7179658483815,127.09942948421892L372.2788033759773,330.3422299746428L362.8122568450191,205.16225829399212L389.45151001637544,183.81306958219588Z" stroke-width="0.35"/><path transform="translate(0,0)" d="M569.0165510222819,207.20964648750956L540.7029190935389,260.695732334664L508.3444826035469,296.35312289943346L366.21829832785414,365.9602336380805L372.2788033759773,330.3422299746428L556.7179658483815,127.09942948421892L571.4730140026522,119.447979815567L574.2139473508125,191.93691921478245Z" stroke-width="0.35"/><path transform="translate(0,0)" d="M508.3444826035469,296.35312289943346L550.0085367808276,480L351.44565921745357,480L361.73278424098,374.1982567024785L366.21829832785414,365.9602336380805Z" stroke-width="0.35"/><path transform="translate(0,0)" d="M540.7029190935389,260.695732334664L575.9251919063973,415.9485163998519L551.7062077615304,480L550.0085367808276,480L508.3444826035469,296.35312289943346Z" stroke-width="0.35"/><path transform="translate(0,0)" d="M569.0165510222819,207.20964648750956L606.2612261157647,371.37677819389006L575.9251919063973,415.9485163998519L540.7029190935389,260.695732334664Z" stroke-width="0.35"/><path transform="translate(0,0)" d="M569.0165510222819,207.20964648750956L574.2139473508125,191.93691921478245L679.8854542238599,325.0166386101198L606.2612261157647,371.37677819389006Z" stroke-width="0.35"/><path transform="translate(0,0)" d="M709.8681347979375,363.01278058996485L656.7862428049689,480L551.7062077615304,480L575.9251919063973,415.9485163998519L606.2612261157647,371.37677819389006L679.8854542238599,325.0166386101198L702.8911995554812,332.25983553190434Z" stroke-width="0.35"/><path transform="translate(0,0)" d="M765.7153956699609,220.94651953828838L772.0546607099046,276.83096240814666L702.8911995554812,332.25983553190434L679.8854542238599,325.0166386101198L574.2139473508125,191.93691921478245L571.4730140026522,119.447979815567L601.3020519510706,53.70774192570195Z" stroke-width="0.35"/><path transform="translate(0,0)" d="M809.6030809880966,425.81447163067804L815.7496292584702,480L656.7862428049689,480L709.8681347979375,363.01278058996485Z" stroke-width="0.35"/><path transform="translate(0,0)" d="M772.0546607099046,276.83096240814666L846.7768189819409,327.5017985958942L809.6030809880966,425.81447163067804L709.8681347979375,363.01278058996485L702.8911995554812,332.25983553190434Z" stroke-width="0.35"/><path transform="translate(0,0)" d="M889.2914409669002,0L861.6906271551712,182.4883594041438L765.7153956699609,220.94651953828838L601.3020519510706,53.70774192570195L604.6251521974791,0Z" stroke-width="0.35"/><path transform="translate(0,0)" d="M861.6906271551712,182.4883594041438L905.7458668161528,225.64097004133845L899.0100778806042,314.7110301146022L846.7768189819409,327.5017985958942L772.0546607099046,276.83096240814666L765.7153956699609,220.94651953828838Z" stroke-width="0.35"/><path transform="translate(0,0)" d="M899.0100778806042,314.7110301146022L949.8591034069029,341.079548566496L1005.0137637306634,480L815.7496292584702,480L809.6030809880966,425.81447163067804L846.7768189819409,327.5017985958942Z" stroke-width="0.35"/><path transform="translate(0,0)" d="M1061.9734062004472,0L1027.6424106524585,151.32421087287537L980.936170212766,192.49857744488799L905.7458668161528,225.64097004133845L861.6906271551712,182.4883594041438L889.2914409669002,0Z" stroke-width="0.35"/><path transform="translate(0,0)" d="M905.7458668161528,225.64097004133845L980.936170212766,192.49857744488799L980.936170212766,313.68324073693026L949.8591034069029,341.079548566496L899.0100778806042,314.7110301146022Z" stroke-width="0.35"/><path transform="translate(0,0)" d="M980.936170212766,192.49857744488799L1027.6424106524585,151.32421087287537L1062.670663924665,243.96276154809422L1029.9103689142203,292.09638648660837L980.936170212766,313.68324073693026Z" stroke-width="0.35"/><path transform="translate(0,0)" d="M980.936170212766,313.68324073693026L1029.9103689142203,292.09638648660837L1113.3449079322531,384.0371063442454L1107.902121123942,480L1005.0137637306634,480L949.8591034069029,341.079548566496Z" stroke-width="0.35"/><path transform="translate(0,0)" d="M1029.9103689142203,292.09638648660837L1062.670663924665,243.96276154809422L1102.3688913233254,259.8702072787632L1139.606834137431,314.58269299736025L1113.3449079322531,384.0371063442454Z" stroke-width="0.35"/><path transform="translate(0,0)" d="M1027.6424106524585,151.32421087287537L1061.9734062004472,0L1358.54503128545,0L1341.9986399660145,48.6221380852443L1102.3688913233254,259.8702072787632L1062.670663924665,243.96276154809422Z" stroke-width="0.35"/><path transform="translate(0,0)" d="M1102.3688913233254,259.8702072787632L1341.9986399660145,48.6221380852443L1327.148936170213,114.07668353978886L1181.1589302933305,297.93238496325864L1139.606834137431,314.58269299736025Z" stroke-width="0.35"/><path transform="translate(0,0)" d="M1139.606834137431,314.58269299736025L1181.1589302933305,297.93238496325864L1239.7066523623753,362.4490680588463L1159.700145184406,480L1107.902121123942,480L1113.3449079322531,384.0371063442454Z" stroke-width="0.35"/><path transform="translate(0,0)" d="M1181.1589302933305,297.93238496325864L1327.148936170213,114.07668353978886L1327.1489361702127,204.46660356393278L1259.4056153531342,353.76615635760044L1239.7066523623753,362.4490680588463Z" stroke-width="0.35"/><path transform="translate(0,0)" d="M1159.700145184406,480L1239.7066523623753,362.4490680588463L1259.4056153531342,353.76615635760044L1327.148936170213,403.5326739554899L1337.7842649981094,419.1588131198817L1356.1883569264478,480Z" stroke-width="0.35"/><path transform="translate(0,0)" d="M1259.4056153531342,353.76615635760044L1327.1489361702127,204.46660356393278L1327.1489361702127,204.46660356393272L1327.148936170213,403.5326739554899Z" stroke-width="0.35"/><path transform="translate(0,0)" d="M1327.148936170213,403.5326739554899L1327.1489361702127,204.46660356393272L1381.1739240715121,323.5323127152009L1337.7842649981094,419.1588131198817Z" stroke-width="0.35"/><path transform="translate(0,0)" d="M1356.1883569264478,480L1337.7842649981094,419.1588131198817L1381.1739240715121,323.5323127152009L1423.79061493558,354.8399644551749L1440.1360713012034,402.8716482908014L1436.167253297532,455.3529331691395L1422.1880239204147,480Z" stroke-width="0.35"/><path transform="translate(0,0)" d="M1341.9986399660145,48.6221380852443L1358.54503128545,0L1578.8884578730695,0L1569.7926378148252,140.32398994110702L1423.79061493558,354.8399644551749L1381.1739240715121,323.5323127152009L1327.1489361702127,204.46660356393272L1327.1489361702127,204.46660356393278L1327.148936170213,114.07668353978886Z" stroke-width="0.35"/><path transform="translate(0,0)" d="M1423.79061493558,354.8399644551749L1569.7926378148252,140.32398994110702L1570.7372812985707,165.3067952665466L1551.1254519431716,280.5668609344479L1440.1360713012034,402.8716482908014Z" stroke-width="0.35"/><path transform="translate(0,0)" d="M1436.167253297532,455.3529331691395L1440.1360713012034,402.8716482908014L1551.1254519431716,280.5668609344479L1558.1130010846039,372.96604798551385L1534.9756921156932,406.96093574952783Z" stroke-width="0.35"/><path transform="translate(0,0)" d="M1422.1880239204147,480L1436.167253297532,455.3529331691395L1534.9756921156932,406.96093574952783L1584.6869136409541,480Z" stroke-width="0.35"/><path transform="translate(0,0)" d="M1584.6869136409541,480L1534.9756921156932,406.96093574952783L1558.1130010846039,372.96604798551385L1615.0373573637125,408.81051346420287L1647.338942565796,480Z" stroke-width="0.35"/><path transform="translate(0,0)" d="M1551.1254519431716,280.5668609344479L1570.7372812985707,165.3067952665466L1654.7498766788406,350.46221380852427L1615.0373573637125,408.81051346420287L1558.1130010846039,372.96604798551385Z" stroke-width="0.35"/><path transform="translate(0,0)" d="M1647.338942565796,480L1615.0373573637125,408.81051346420287L1654.7498766788406,350.46221380852427L1690.026533630238,372.67542788683585L1714.375310248027,480Z" stroke-width="0.35"/><path transform="translate(0,0)" d="M1808,179.53122899433475L1740.58659064585,328.103689680874L1690.026533630238,372.67542788683585L1654.7498766788406,350.46221380852427L1570.7372812985707,165.3067952665466L1569.7926378148252,140.32398994110702L1578.8884578730695,0L1808,0Z" stroke-width="0.35"/><path transform="translate(0,0)" d="M1738.347536922433,480L1714.375310248027,480L1690.026533630238,372.67542788683585L1740.58659064585,328.103689680874L1760.3674419690306,415.293754201133Z" stroke-width="0.35"/><path transform="translate(0,0)" d="M1808,362.80503998792807L1760.3674419690306,415.293754201133L1740.58659064585,328.103689680874L1808,179.53122899433475Z" stroke-width="0.35"/><path transform="translate(0,0)" d="M1808,480L1738.347536922433,480L1760.3674419690306,415.293754201133L1808,362.80503998792807Z" stroke-width="0.35"/></g><g class="mark-symbol role-mark layer_4_marks" role="graphics-object" aria-roledescription="symbol mark container"><path aria-label="date: Sep 08, 2025; count: 1; Peak date: Sep 08, 2025; Peak unique count: 1" role="graphics-symbol" aria-roledescription="point" transform="translate(0,471.27272727272725)" d="M-5.916,0L0,-5.916L5.916,0L0,5.916Z" fill="#ff9900" stroke="#b36b00" stroke-width="1.5" opacity="0"/><path aria-label="date: Sep 09, 2025; count: 54; Peak date: Sep 09, 2025; Peak unique count: 54" role="graphics-symbol" aria-roledescription="point" transform="translate(38.46808510638298,8.72727272727273)" d="M-5.916,0L0,-5.916L5.916,0L0,5.916Z" fill="#ff9900" stroke="#b36b00" stroke-width="1.5" opacity="1"/><path aria-label="date: Sep 10, 2025; count: 51; Peak date: Sep 10, 2025; Peak unique count: 51" role="graphics-symbol" aria-roledescription="point" transform="translate(76.93617021276596,34.90909090909092)" d="M-5.916,0L0,-5.916L5.916,0L0,5.916Z" fill="#ff9900" stroke="#b36b00" stroke-width="1.5" opacity="0"/><path aria-label="date: Sep 11, 2025; count: 36; Peak date: Sep 11, 2025; Peak unique count: 36" role="graphics-symbol" aria-roledescription="point" transform="translate(115.40425531914893,165.8181818181818)" d="M-5.916,0L0,-5.916L5.916,0L0,5.916Z" fill="#ff9900" stroke="#b36b00" stroke-width="1.5" opacity="0"/><path aria-label="date: Sep 12, 2025; count: 32; Peak date: Sep 12, 2025; Peak unique count: 32" role="graphics-symbol" aria-roledescription="point" transform="translate(153.87234042553192,200.72727272727275)" d="M-5.916,0L0,-5.916L5.916,0L0,5.916Z" fill="#ff9900" stroke="#b36b00" stroke-width="1.5" opacity="0"/><path aria-label="date: Sep 13, 2025; count: 20; Peak date: Sep 13, 2025; Peak unique count: 20" role="graphics-symbol" aria-roledescription="point" transform="translate(192.3404255319149,305.45454545454544)" d="M-5.916,0L0,-5.916L5.916,0L0,5.916Z" fill="#ff9900" stroke="#b36b00" stroke-width="1.5" opacity="0"/><path aria-label="date: Sep 14, 2025; count: 18; Peak date: Sep 14, 2025; Peak unique count: 18" role="graphics-symbol" aria-roledescription="point" transform="translate(230.80851063829786,322.90909090909093)" d="M-5.916,0L0,-5.916L5.916,0L0,5.916Z" fill="#ff9900" stroke="#b36b00" stroke-width="1.5" opacity="0"/><path aria-label="date: Sep 15, 2025; count: 25; Peak date: Sep 15, 2025; Peak unique count: 25" role="graphics-symbol" aria-roledescription="point" transform="translate(269.27659574468083,261.8181818181818)" d="M-5.916,0L0,-5.916L5.916,0L0,5.916Z" fill="#ff9900" stroke="#b36b00" stroke-width="1.5" opacity="0"/><path aria-label="date: Sep 16, 2025; count: 27; Peak date: Sep 16, 2025; Peak unique count: 27" role="graphics-symbol" aria-roledescription="point" transform="translate(307.74468085106383,244.36363636363635)" d="M-5.916,0L0,-5.916L5.916,0L0,5.916Z" fill="#ff9900" stroke="#b36b00" stroke-width="1.5" opacity="0"/><path aria-label="date: Sep 17, 2025; count: 39; Peak date: Sep 17, 2025; Peak unique count: 39" role="graphics-symbol" aria-roledescription="point" transform="translate(346.21276595744683,139.63636363636363)" d="M-5.916,0L0,-5.916L5.916,0L0,5.916Z" fill="#ff9900" stroke="#b36b00" stroke-width="1.5" opacity="0"/><path aria-label="date: Sep 18, 2025; count: 41; Peak date: Sep 18, 2025; Peak unique count: 41" role="graphics-symbol" aria-roledescription="point" transform="translate(384.6808510638298,122.18181818181817)" d="M-5.916,0L0,-5.916L5.916,0L0,5.916Z" fill="#ff9900" stroke="#b36b00" stroke-width="1.5" opacity="0"/><path aria-label="date: Sep 19, 2025; count: 28; Peak date: Sep 19, 2025; Peak unique count: 28" role="graphics-symbol" aria-roledescription="point" transform="translate(423.1489361702128,235.63636363636365)" d="M-5.916,0L0,-5.916L5.916,0L0,5.916Z" fill="#ff9900" stroke="#b36b00" stroke-width="1.5" opacity="0"/><path aria-label="date: Sep 20, 2025; count: 24; Peak date: Sep 20, 2025; Peak unique count: 24" role="graphics-symbol" aria-roledescription="point" transform="translate(461.6170212765957,270.54545454545456)" d="M-5.916,0L0,-5.916L5.916,0L0,5.916Z" fill="#ff9900" stroke="#b36b00" stroke-width="1.5" opacity="0"/><path aria-label="date: Sep 21, 2025; count: 15; Peak date: Sep 21, 2025; Peak unique count: 15" role="graphics-symbol" aria-roledescription="point" transform="translate(500.0851063829787,349.0909090909091)" d="M-5.916,0L0,-5.916L5.916,0L0,5.916Z" fill="#ff9900" stroke="#b36b00" stroke-width="1.5" opacity="0"/><path aria-label="date: Sep 22, 2025; count: 16; Peak date: Sep 22, 2025; Peak unique count: 16" role="graphics-symbol" aria-roledescription="point" transform="translate(538.5531914893617,340.3636363636364)" d="M-5.916,0L0,-5.916L5.916,0L0,5.916Z" fill="#ff9900" stroke="#b36b00" stroke-width="1.5" opacity="0"/><path aria-label="date: Sep 23, 2025; count: 17; Peak date: Sep 23, 2025; Peak unique count: 17" role="graphics-symbol" aria-roledescription="point" transform="translate(577.0212765957447,331.6363636363636)" d="M-5.916,0L0,-5.916L5.916,0L0,5.916Z" fill="#ff9900" stroke="#b36b00" stroke-width="1.5" opacity="0"/><path aria-label="date: Sep 24, 2025; count: 18; Peak date: Sep 24, 2025; Peak unique count: 18" role="graphics-symbol" aria-roledescription="point" transform="translate(615.4893617021277,322.90909090909093)" d="M-5.916,0L0,-5.916L5.916,0L0,5.916Z" fill="#ff9900" stroke="#b36b00" stroke-width="1.5" opacity="0"/><path aria-label="date: Sep 25, 2025; count: 11; Peak date: Sep 25, 2025; Peak unique count: 11" role="graphics-symbol" aria-roledescription="point" transform="translate(653.9574468085107,384)" d="M-5.916,0L0,-5.916L5.916,0L0,5.916Z" fill="#ff9900" stroke="#b36b00" stroke-width="1.5" opacity="0"/><path aria-label="date: Sep 26, 2025; count: 25; Peak date: Sep 26, 2025; Peak unique count: 25" role="graphics-symbol" aria-roledescription="point" transform="translate(692.4255319148937,261.8181818181818)" d="M-5.916,0L0,-5.916L5.916,0L0,5.916Z" fill="#ff9900" stroke="#b36b00" stroke-width="1.5" opacity="0"/><path aria-label="date: Sep 27, 2025; count: 7; Peak date: Sep 27, 2025; Peak unique count: 7" role="graphics-symbol" aria-roledescription="point" transform="translate(730.8936170212766,418.90909090909093)" d="M-5.916,0L0,-5.916L5.916,0L0,5.916Z" fill="#ff9900" stroke="#b36b00" stroke-width="1.5" opacity="0"/><path aria-label="date: Sep 28, 2025; count: 14; Peak date: Sep 28, 2025; Peak unique count: 14" role="graphics-symbol" aria-roledescription="point" transform="translate(769.3617021276596,357.8181818181818)" d="M-5.916,0L0,-5.916L5.916,0L0,5.916Z" fill="#ff9900" stroke="#b36b00" stroke-width="1.5" opacity="0"/><path aria-label="date: Sep 29, 2025; count: 38; Peak date: Sep 29, 2025; Peak unique count: 38" role="graphics-symbol" aria-roledescription="point" transform="translate(807.8297872340426,148.36363636363637)" d="M-5.916,0L0,-5.916L5.916,0L0,5.916Z" fill="#ff9900" stroke="#b36b00" stroke-width="1.5" opacity="0"/><path aria-label="date: Sep 30, 2025; count: 27; Peak date: Sep 30, 2025; Peak unique count: 27" role="graphics-symbol" aria-roledescription="point" transform="translate(846.2978723404256,244.36363636363635)" d="M-5.916,0L0,-5.916L5.916,0L0,5.916Z" fill="#ff9900" stroke="#b36b00" stroke-width="1.5" opacity="0"/><path aria-label="date: Oct 01, 2025; count: 9; Peak date: Oct 01, 2025; Peak unique count: 9" role="graphics-symbol" aria-roledescription="point" transform="translate(884.7659574468084,401.4545454545455)" d="M-5.916,0L0,-5.916L5.916,0L0,5.916Z" fill="#ff9900" stroke="#b36b00" stroke-width="1.5" opacity="0"/><path aria-label="date: Oct 02, 2025; count: 36; Peak date: Oct 02, 2025; Peak unique count: 36" role="graphics-symbol" aria-roledescription="point" transform="translate(923.2340425531914,165.8181818181818)" d="M-5.916,0L0,-5.916L5.916,0L0,5.916Z" fill="#ff9900" stroke="#b36b00" stroke-width="1.5" opacity="0"/><path aria-label="date: Oct 03, 2025; count: 26; Peak date: Oct 03, 2025; Peak unique count: 26" role="graphics-symbol" aria-roledescription="point" transform="translate(961.7021276595744,253.09090909090912)" d="M-5.916,0L0,-5.916L5.916,0L0,5.916Z" fill="#ff9900" stroke="#b36b00" stroke-width="1.5" opacity="0"/><path aria-label="date: Oct 04, 2025; count: 26; Peak date: Oct 04, 2025; Peak unique count: 26" role="graphics-symbol" aria-roledescription="point" transform="translate(1000.1702127659574,253.09090909090912)" d="M-5.916,0L0,-5.916L5.916,0L0,5.916Z" fill="#ff9900" stroke="#b36b00" stroke-width="1.5" opacity="0"/><path aria-label="date: Oct 05, 2025; count: 16; Peak date: Oct 05, 2025; Peak unique count: 16" role="graphics-symbol" aria-roledescription="point" transform="translate(1038.6382978723404,340.3636363636364)" d="M-5.916,0L0,-5.916L5.916,0L0,5.916Z" fill="#ff9900" stroke="#b36b00" stroke-width="1.5" opacity="0"/><path aria-label="date: Oct 06, 2025; count: 20; Peak date: Oct 06, 2025; Peak unique count: 20" role="graphics-symbol" aria-roledescription="point" transform="translate(1077.1063829787233,305.45454545454544)" d="M-5.916,0L0,-5.916L5.916,0L0,5.916Z" fill="#ff9900" stroke="#b36b00" stroke-width="1.5" opacity="0"/><path aria-label="date: Oct 07, 2025; count: 31; Peak date: Oct 07, 2025; Peak unique count: 31" role="graphics-symbol" aria-roledescription="point" transform="translate(1115.5744680851064,209.45454545454547)" d="M-5.916,0L0,-5.916L5.916,0L0,5.916Z" fill="#ff9900" stroke="#b36b00" stroke-width="1.5" opacity="0"/><path aria-label="date: Oct 08, 2025; count: 26; Peak date: Oct 08, 2025; Peak unique count: 26" role="graphics-symbol" aria-roledescription="point" transform="translate(1154.0425531914893,253.09090909090912)" d="M-5.916,0L0,-5.916L5.916,0L0,5.916Z" fill="#ff9900" stroke="#b36b00" stroke-width="1.5" opacity="0"/><path aria-label="date: Oct 09, 2025; count: 15; Peak date: Oct 09, 2025; Peak unique count: 15" role="graphics-symbol" aria-roledescription="point" transform="translate(1192.5106382978722,349.0909090909091)" d="M-5.916,0L0,-5.916L5.916,0L0,5.916Z" fill="#ff9900" stroke="#b36b00" stroke-width="1.5" opacity="0"/><path aria-label="date: Oct 10, 2025; count: 19; Peak date: Oct 10, 2025; Peak unique count: 19" role="graphics-symbol" aria-roledescription="point" transform="translate(1230.9787234042553,314.1818181818182)" d="M-5.916,0L0,-5.916L5.916,0L0,5.916Z" fill="#ff9900" stroke="#b36b00" stroke-width="1.5" opacity="0"/><path aria-label="date: Oct 11, 2025; count: 9; Peak date: Oct 11, 2025; Peak unique count: 9" role="graphics-symbol" aria-roledescription="point" transform="translate(1269.4468085106382,401.4545454545455)" d="M-5.916,0L0,-5.916L5.916,0L0,5.916Z" fill="#ff9900" stroke="#b36b00" stroke-width="1.5" opacity="0"/><path aria-label="date: Oct 12, 2025; count: 15; Peak date: Oct 12, 2025; Peak unique count: 15" role="graphics-symbol" aria-roledescription="point" transform="translate(1307.9148936170213,349.0909090909091)" d="M-5.916,0L0,-5.916L5.916,0L0,5.916Z" fill="#ff9900" stroke="#b36b00" stroke-width="1.5" opacity="0"/><path aria-label="date: Oct 13, 2025; count: 15; Peak date: Oct 13, 2025; Peak unique count: 15" role="graphics-symbol" aria-roledescription="point" transform="translate(1346.3829787234042,349.0909090909091)" d="M-5.916,0L0,-5.916L5.916,0L0,5.916Z" fill="#ff9900" stroke="#b36b00" stroke-width="1.5" opacity="0"/><path aria-label="date: Oct 14, 2025; count: 13; Peak date: Oct 14, 2025; Peak unique count: 13" role="graphics-symbol" aria-roledescription="point" transform="translate(1384.8510638297873,366.54545454545456)" d="M-5.916,0L0,-5.916L5.916,0L0,5.916Z" fill="#ff9900" stroke="#b36b00" stroke-width="1.5" opacity="0"/><path aria-label="date: Oct 15, 2025; count: 19; Peak date: Oct 15, 2025; Peak unique count: 19" role="graphics-symbol" aria-roledescription="point" transform="translate(1423.3191489361702,314.1818181818182)" d="M-5.916,0L0,-5.916L5.916,0L0,5.916Z" fill="#ff9900" stroke="#b36b00" stroke-width="1.5" opacity="0"/><path aria-label="date: Oct 16, 2025; count: 16; Peak date: Oct 16, 2025; Peak unique count: 16" role="graphics-symbol" aria-roledescription="point" transform="translate(1461.787234042553,340.3636363636364)" d="M-5.916,0L0,-5.916L5.916,0L0,5.916Z" fill="#ff9900" stroke="#b36b00" stroke-width="1.5" opacity="0"/><path aria-label="date: Oct 17, 2025; count: 12; Peak date: Oct 17, 2025; Peak unique count: 12" role="graphics-symbol" aria-roledescription="point" transform="translate(1500.2553191489362,375.2727272727273)" d="M-5.916,0L0,-5.916L5.916,0L0,5.916Z" fill="#ff9900" stroke="#b36b00" stroke-width="1.5" opacity="0"/><path aria-label="date: Oct 18, 2025; count: 3; Peak date: Oct 18, 2025; Peak unique count: 3" role="graphics-symbol" aria-roledescription="point" transform="translate(1538.723404255319,453.8181818181818)" d="M-5.916,0L0,-5.916L5.916,0L0,5.916Z" fill="#ff9900" stroke="#b36b00" stroke-width="1.5" opacity="0"/><path aria-label="date: Oct 19, 2025; count: 6; Peak date: Oct 19, 2025; Peak unique count: 6" role="graphics-symbol" aria-roledescription="point" transform="translate(1577.1914893617022,427.6363636363636)" d="M-5.916,0L0,-5.916L5.916,0L0,5.916Z" fill="#ff9900" stroke="#b36b00" stroke-width="1.5" opacity="0"/><path aria-label="date: Oct 20, 2025; count: 13; Peak date: Oct 20, 2025; Peak unique count: 13" role="graphics-symbol" aria-roledescription="point" transform="translate(1615.659574468085,366.54545454545456)" d="M-5.916,0L0,-5.916L5.916,0L0,5.916Z" fill="#ff9900" stroke="#b36b00" stroke-width="1.5" opacity="0"/><path aria-label="date: Oct 21, 2025; count: 10; Peak date: Oct 21, 2025; Peak unique count: 10" role="graphics-symbol" aria-roledescription="point" transform="translate(1654.127659574468,392.7272727272727)" d="M-5.916,0L0,-5.916L5.916,0L0,5.916Z" fill="#ff9900" stroke="#b36b00" stroke-width="1.5" opacity="0"/><path aria-label="date: Oct 22, 2025; count: 17; Peak date: Oct 22, 2025; Peak unique count: 17" role="graphics-symbol" aria-roledescription="point" transform="translate(1692.595744680851,331.6363636363636)" d="M-5.916,0L0,-5.916L5.916,0L0,5.916Z" fill="#ff9900" stroke="#b36b00" stroke-width="1.5" opacity="0"/><path aria-label="date: Oct 23, 2025; count: 12; Peak date: Oct 23, 2025; Peak unique count: 12" role="graphics-symbol" aria-roledescription="point" transform="translate(1731.0638297872342,375.2727272727273)" d="M-5.916,0L0,-5.916L5.916,0L0,5.916Z" fill="#ff9900" stroke="#b36b00" stroke-width="1.5" opacity="0"/><path aria-label="date: Oct 24, 2025; count: 13; Peak date: Oct 24, 2025; Peak unique count: 13" role="graphics-symbol" aria-roledescription="point" transform="translate(1769.5319148936169,366.54545454545456)" d="M-5.916,0L0,-5.916L5.916,0L0,5.916Z" fill="#ff9900" stroke="#b36b00" stroke-width="1.5" opacity="0"/><path aria-label="date: Oct 25, 2025; count: 9; Peak date: Oct 25, 2025; Peak unique count: 9" role="graphics-symbol" aria-roledescription="point" transform="translate(1808,401.4545454545455)" d="M-5.916,0L0,-5.916L5.916,0L0,5.916Z" fill="#ff9900" stroke="#b36b00" stroke-width="1.5" opacity="0"/></g><g class="mark-rule role-mark layer_5_marks" role="graphics-symbol" aria-roledescription="rule mark container" pointer-events="none"><line transform="translate(1808,300.0436363636364)" x2="-1808" y2="0" stroke="#d62728" stroke-width="1.5" stroke-dasharray="4,4"/><line transform="translate(1808,300.0436363636364)" x2="-1808" y2="0" stroke="#d62728" stroke-width="1.5" stroke-dasharray="4,4"/><line transform="translate(1808,300.0436363636364)" x2="-1808" y2="0" stroke="#d62728" stroke-width="1.5" stroke-dasharray="4,4"/><line transform="translate(1808,300.0436363636364)" x2="-1808" y2="0" stroke="#d62728" stroke-width="1.5" stroke-dasharray="4,4"/><line transform="translate(1808,300.0436363636364)" x2="-1808" y2="0" stroke="#d62728" stroke-width="1.5" stroke-dasharray="4,4"/><line transform="translate(1808,300.0436363636364)" x2="-1808" y2="0" stroke="#d62728" stroke-width="1.5" stroke-dasharray="4,4"/><line transform="translate(1808,300.0436363636364)" x2="-1808" y2="0" stroke="#d62728" stroke-width="1.5" stroke-dasharray="4,4"/><line transform="translate(1808,300.0436363636364)" x2="-1808" y2="0" stroke="#d62728" stroke-width="1.5" stroke-dasharray="4,4"/><line transform="translate(1808,300.0436363636364)" x2="-1808" y2="0" stroke="#d62728" stroke-width="1.5" stroke-dasharray="4,4"/><line transform="translate(1808,300.0436363636364)" x2="-1808" y2="0" stroke="#d62728" stroke-width="1.5" stroke-dasharray="4,4"/><line transform="translate(1808,300.0436363636364)" x2="-1808" y2="0" stroke="#d62728" stroke-width="1.5" stroke-dasharray="4,4"/><line transform="translate(1808,300.0436363636364)" x2="-1808" y2="0" stroke="#d62728" stroke-width="1.5" stroke-dasharray="4,4"/><line transform="translate(1808,300.0436363636364)" x2="-1808" y2="0" stroke="#d62728" stroke-width="1.5" stroke-dasharray="4,4"/><line transform="translate(1808,300.0436363636364)" x2="-1808" y2="0" stroke="#d62728" stroke-width="1.5" stroke-dasharray="4,4"/><line transform="translate(1808,300.0436363636364)" x2="-1808" y2="0" stroke="#d62728" stroke-width="1.5" stroke-dasharray="4,4"/><line transform="translate(1808,300.0436363636364)" x2="-1808" y2="0" stroke="#d62728" stroke-width="1.5" stroke-dasharray="4,4"/><line transform="translate(1808,300.0436363636364)" x2="-1808" y2="0" stroke="#d62728" stroke-width="1.5" stroke-dasharray="4,4"/><line transform="translate(1808,300.0436363636364)" x2="-1808" y2="0" stroke="#d62728" stroke-width="1.5" stroke-dasharray="4,4"/><line transform="translate(1808,300.0436363636364)" x2="-1808" y2="0" stroke="#d62728" stroke-width="1.5" stroke-dasharray="4,4"/><line transform="translate(1808,300.0436363636364)" x2="-1808" y2="0" stroke="#d62728" stroke-width="1.5" stroke-dasharray="4,4"/><line transform="translate(1808,300.0436363636364)" x2="-1808" y2="0" stroke="#d62728" stroke-width="1.5" stroke-dasharray="4,4"/><line transform="translate(1808,300.0436363636364)" x2="-1808" y2="0" stroke="#d62728" stroke-width="1.5" stroke-dasharray="4,4"/><line transform="translate(1808,300.0436363636364)" x2="-1808" y2="0" stroke="#d62728" stroke-width="1.5" stroke-dasharray="4,4"/><line transform="translate(1808,300.0436363636364)" x2="-1808" y2="0" stroke="#d62728" stroke-width="1.5" stroke-dasharray="4,4"/><line transform="translate(1808,300.0436363636364)" x2="-1808" y2="0" stroke="#d62728" stroke-width="1.5" stroke-dasharray="4,4"/><line transform="translate(1808,300.0436363636364)" x2="-1808" y2="0" stroke="#d62728" stroke-width="1.5" stroke-dasharray="4,4"/><line transform="translate(1808,300.0436363636364)" x2="-1808" y2="0" stroke="#d62728" stroke-width="1.5" stroke-dasharray="4,4"/><line transform="translate(1808,300.0436363636364)" x2="-1808" y2="0" stroke="#d62728" stroke-width="1.5" stroke-dasharray="4,4"/><line transform="translate(1808,300.0436363636364)" x2="-1808" y2="0" stroke="#d62728" stroke-width="1.5" stroke-dasharray="4,4"/><line transform="translate(1808,300.0436363636364)" x2="-1808" y2="0" stroke="#d62728" stroke-width="1.5" stroke-dasharray="4,4"/><line transform="translate(1808,300.0436363636364)" x2="-1808" y2="0" stroke="#d62728" stroke-width="1.5" stroke-dasharray="4,4"/><line transform="translate(1808,300.0436363636364)" x2="-1808" y2="0" stroke="#d62728" stroke-width="1.5" stroke-dasharray="4,4"/><line transform="translate(1808,300.0436363636364)" x2="-1808" y2="0" stroke="#d62728" stroke-width="1.5" stroke-dasharray="4,4"/><line transform="translate(1808,300.0436363636364)" x2="-1808" y2="0" stroke="#d62728" stroke-width="1.5" stroke-dasharray="4,4"/><line transform="translate(1808,300.0436363636364)" x2="-1808" y2="0" stroke="#d62728" stroke-width="1.5" stroke-dasharray="4,4"/><line transform="translate(1808,300.0436363636364)" x2="-1808" y2="0" stroke="#d62728" stroke-width="1.5" stroke-dasharray="4,4"/><line transform="translate(1808,300.0436363636364)" x2="-1808" y2="0" stroke="#d62728" stroke-width="1.5" stroke-dasharray="4,4"/><line transform="translate(1808,300.0436363636364)" x2="-1808" y2="0" stroke="#d62728" stroke-width="1.5" stroke-dasharray="4,4"/><line transform="translate(1808,300.0436363636364)" x2="-1808" y2="0" stroke="#d62728" stroke-width="1.5" stroke-dasharray="4,4"/><line transform="translate(1808,300.0436363636364)" x2="-1808" y2="0" stroke="#d62728" stroke-width="1.5" stroke-dasharray="4,4"/><line transform="translate(1808,300.0436363636364)" x2="-1808" y2="0" stroke="#d62728" stroke-width="1.5" stroke-dasharray="4,4"/><line transform="translate(1808,300.0436363636364)" x2="-1808" y2="0" stroke="#d62728" stroke-width="1.5" stroke-dasharray="4,4"/><line transform="translate(1808,300.0436363636364)" x2="-1808" y2="0" stroke="#d62728" stroke-width="1.5" stroke-dasharray="4,4"/><line transform="translate(1808,300.0436363636364)" x2="-1808" y2="0" stroke="#d62728" stroke-width="1.5" stroke-dasharray="4,4"/><line transform="translate(1808,300.0436363636364)" x2="-1808" y2="0" stroke="#d62728" stroke-width="1.5" stroke-dasharray="4,4"/><line transform="translate(1808,300.0436363636364)" x2="-1808" y2="0" stroke="#d62728" stroke-width="1.5" stroke-dasharray="4,4"/><line transform="translate(1808,300.0436363636364)" x2="-1808" y2="0" stroke="#d62728" stroke-width="1.5" stroke-dasharray="4,4"/><line transform="translate(1808,300.0436363636364)" x2="-1808" y2="0" stroke="#d62728" stroke-width="1.5" stroke-dasharray="4,4"/></g><g class="mark-text role-mark layer_6_marks" role="graphics-object" aria-roledescription="text mark container" pointer-events="none"><text aria-label="date: Oct 25, 2025" role="graphics-symbol" aria-roledescription="text mark" text-anchor="start" transform="translate(1814,298.0436363636364)" font-family="sans-serif" font-size="12px" fill="#d62728">Avg: 20.62</text></g></g><path class="foreground" aria-hidden="true" d="" display="none"/></g></g></g></svg>
